<svg xmlns="http://www.w3.org/2000/svg" width="500" height="310"><path fill="#E8E8E8" d="M0 0h500v310H0z"/><path fill="#4B8AC7" d="M37.7 28.6l.9 1c-1 .9-2 1.4-3.3 1.4a4.3 4.3 0 0 1-4-2.3 5 5 0 0 1-.4-2.4 4.3 4.3 0 0 1 4.5-4.7c.6 0 1.3.2 1.9.5.6.3 1 .7 1.4 1.2l-.9.8c-.4-.4-.8-.8-1.2-1-.4-.2-.9-.3-1.4-.3-.6 0-1 .2-1.5.4-.4.3-.7.7-1 1.2s-.4 1.1-.4 1.8c0 .6.1 1.2.4 1.8.3.5.6 1 1.1 1.2.5.3 1 .5 1.6.5a3 3 0 0 0 2.3-1.1zm0-4.4h-.1.2zm.2 0h-.1zM41 30.7v-1h2.7V18.8h-2.5v-1.2h4v12h2.6v1H41zM57 22.6c.7.7 1 1.8 1 3.4v4.7h-1.5v-1.3c-.5 1-1.5 1.6-3 1.6-1 0-1.8-.3-2.4-.7-.5-.5-.8-1-.8-1.8 0-.6.2-1.2.6-1.7.4-.4 1-.8 1.6-1 .7-.3 1.5-.4 2.3-.4l2 .1c0-1-.3-1.7-.8-2.1-.4-.4-1-.6-2-.6-.4 0-.9 0-1.3.2s-.8.4-1 .8l-.8-1c.9-.8 2-1.2 3.2-1.2 1.3 0 2.3.3 3 1zM56 29c.6-.5.9-1.4 1-2.4l-2-.2c-1 0-1.8.2-2.3.5-.6.4-.9.8-.9 1.5 0 1 .6 1.5 2 1.5a3 3 0 0 0 2.2-.9zM67 26.6c.5.4.7.9.7 1.5 0 .9-.3 1.5-.9 2-.6.6-1.6.8-2.8.8-1.5 0-2.7-.4-3.8-1.4l.8-1.3c.5.5.9 1 1.3 1.2.5.2 1 .4 1.8.4.7 0 1.2-.2 1.7-.4a1.2 1.2 0 0 0 0-2c-.3-.3-.8-.5-1.7-.8-2.2-.6-3.4-1.6-3.4-2.8 0-.7.3-1.2.9-1.6.6-.4 1.4-.6 2.4-.6.8 0 1.5 0 2 .3l1.6 1-.8 1c-.3-.3-.7-.7-1.2-.9-.5-.2-1-.4-1.5-.4-.6 0-1 .1-1.4.3-.4.2-.6.5-.6.9 0 .3.2.6.6.9l2 .8c1.1.3 1.9.7 2.4 1zM61 28zm.3 0H61h.2zm5.4-4h-.1c0-.1 0-.1.1 0zm.1 0V24zM76.8 26.6c.5.4.7.9.7 1.5 0 .9-.3 1.5-1 2-.5.6-1.5.8-2.7.8-1.5 0-2.7-.4-3.8-1.4l.8-1.3c.5.5.9 1 1.3 1.2.4.2 1 .4 1.8.4.7 0 1.2-.2 1.6-.4a1.2 1.2 0 0 0 .2-2c-.4-.3-1-.5-1.8-.8-2.2-.6-3.4-1.6-3.4-2.8 0-.7.3-1.2.9-1.6.5-.4 1.4-.6 2.4-.6.8 0 1.5 0 2 .3l1.6 1-.8 1c-.3-.3-.7-.7-1.2-.9a3.5 3.5 0 0 0-3 0c-.3.1-.5.4-.5.8 0 .3.2.6.6.9s1 .5 2 .8c1 .3 1.9.7 2.3 1zm-6 1.5zm.3 0h-.2.2zm5.4-4h-.2c0-.1.1-.1.2 0zm.1 0h-.1V24h.1z"/><path fill="#1E4885" d="M89.5 18.5h4.1c1 0 1.7.2 2.3.5.7.4 1.1.8 1.4 1.3.3.6.4 1.2.4 1.9s-.1 1.3-.4 1.9a3 3 0 0 1-1.3 1.2c-.6.4-1.4.5-2.3.5h-2v5h-2.2V18.4zm4 5.4c.7 0 1.2-.1 1.5-.4.3-.3.5-.7.5-1.2 0-.6-.2-1-.5-1.3-.3-.4-.8-.5-1.4-.5h-1.9v3.4h1.9zM101.2 30.5a4 4 0 0 1-1.6-1.7c-.4-.7-.6-1.5-.6-2.5s.2-1.9.6-2.6a4 4 0 0 1 3.8-2.3c.7 0 1.3.2 2 .5.5.4 1 .9 1.3 1.5a5.3 5.3 0 0 1 .5 3.1v.3h-6c0 .8.4 1.4.8 1.9.4.4 1 .6 1.5.6a3 3 0 0 0 2.3-1.1l1.3 1.2c-1 1.1-2.1 1.7-3.5 1.7-.9 0-1.7-.2-2.4-.6zm3.9-5.3c0-.4-.1-.8-.3-1a2 2 0 0 0-.6-.9c-.3-.2-.6-.3-1-.3-.5 0-1 .2-1.3.6-.3.4-.6 1-.6 1.6h3.8zM116.3 24.4l-.8-.9-1-.2c-.4 0-.9 0-1.2.3s-.7.5-1 1a3 3 0 0 0-.3 1.4v4.7h-2.2v-9.1h2.3v1.3c.2-.5.6-.8 1-1.1.5-.3 1-.4 1.6-.4a3.8 3.8 0 0 1 2.6 1l-1 2zm-.3 0h.2v.1h-.2v-.1zm.3 0v.1-.1zM124.8 25.6l.6.4c.4.3.8.5 1 .8a2.6 2.6 0 0 1-.2 2.7c-.3.5-.7.9-1.3 1.1a4 4 0 0 1-1.8.5 7 7 0 0 1-2.4-.4c-.7-.3-1.3-.6-1.9-1.2l1-1.6c.4.5.9.8 1.4 1 .5.3 1.2.4 1.9.4 1 0 1.6-.4 1.6-1l-.2-.6-.6-.4-1.2-.4c-1-.3-1.9-.6-2.4-1a2 2 0 0 1-1-1.8 2.8 2.8 0 0 1 1.6-2.4c.7-.2 1.3-.3 2-.3s1.4.1 2 .4a5 5 0 0 1 1.6 1l-1.1 1.6-1-1a3 3 0 0 0-1.5-.2c-.4 0-.7 0-1 .2-.2.1-.3.3-.3.5s0 .4.2.5l.6.5a13.8 13.8 0 0 0 2.4.7zm-5.1 2.2zm.3.1h-.1-.1v-.1h.2v.1zm5-3.5H125.4v.1l-.2-.1zm.4.1v-.1.1zM130.4 30.4c-.7-.4-1.2-1-1.6-1.7-.4-.7-.6-1.6-.6-2.5 0-.9.2-1.7.6-2.4.4-.8 1-1.3 1.6-1.8s1.4-.6 2.2-.6 1.5.2 2.2.6 1.2 1 1.6 1.8c.3.7.5 1.5.5 2.4 0 1-.1 1.8-.5 2.5s-1 1.3-1.6 1.7c-.7.5-1.4.7-2.2.7s-1.6-.2-2.2-.7zm3.3-1.5l.8-1 .2-1.7c0-.6 0-1.2-.2-1.6-.2-.5-.5-.8-.8-1-.3-.3-.7-.4-1.1-.4-.4 0-.8 0-1.1.3-.3.3-.6.6-.7 1-.2.5-.3 1-.3 1.7 0 .6 0 1.2.2 1.6.2.5.5.9.8 1.1.3.3.7.4 1 .4s.9-.1 1.2-.4zM138.6 21.6h2.3v1a3.5 3.5 0 0 1 2.6-1.2c.8 0 1.5.3 2 1 .6.5.8 1.5.8 2.8v5.5h-2.2v-5.5c0-.7-.1-1.2-.4-1.5s-.6-.5-1-.5a2 2 0 0 0-1 .2 1.5 1.5 0 0 0-.8 1.5v5.8h-2.3v-9.1z"/><path fill="#4B8AC7" d="M151.1 24.4a1 1 0 0 1 0-1.6c.2-.2.5-.3.8-.3.3 0 .6 0 .8.3a1 1 0 0 1 0 1.6 1.2 1.2 0 0 1-1.6 0zm0 6.2c-.2-.2-.3-.4-.3-.8s0-.5.3-.8c.2-.2.5-.3.8-.3.3 0 .6.1.8.3.3.3.4.5.4.8 0 .3-.1.6-.3.8-.3.3-.6.4-.9.4-.3 0-.6-.1-.8-.4z"/><path fill="#235399" d="M169.3 30.3a4.8 4.8 0 0 1-1.6-2.2c-.3-1-.5-2.1-.5-3.5 0-1.3.2-2.5.5-3.4.4-1 1-1.7 1.6-2.2.7-.5 1.5-.8 2.5-.8s1.8.3 2.5.8 1.2 1.2 1.6 2.2c.3 1 .5 2 .5 3.4s-.2 2.5-.5 3.5c-.4 1-1 1.7-1.6 2.2-.7.5-1.5.8-2.5.8s-1.8-.3-2.5-.8zm3.8-1.6c.3-.4.6-1 .8-1.7a10.3 10.3 0 0 0 0-4.9c-.2-.6-.5-1.2-.8-1.5a1.7 1.7 0 0 0-2.6 0c-.3.3-.6.9-.8 1.5a10.3 10.3 0 0 0 0 5c.2.7.5 1.2.8 1.6.4.4.8.6 1.3.6s.9-.2 1.3-.6zM180.5 30.7a3 3 0 0 1-1-.8l-.4.8h-1.5V17.5h2.4v.3l-.2.2v4.4a3 3 0 0 1 2.1-1c.7 0 1.4.2 2 .5.5.4 1 .9 1.4 1.6.3.7.5 1.5.5 2.5s-.2 2-.6 2.7c-.4.8-.8 1.4-1.4 1.8-.6.3-1.3.5-2 .5a3 3 0 0 1-1.3-.3zm2-1.8c.3-.2.6-.5.8-1 .2-.4.3-1 .3-1.6 0-1-.2-1.7-.5-2.3-.4-.5-.9-.8-1.6-.8-.6 0-1 .2-1.3.8a5 5 0 0 0-.4 2c0 1.2.1 2 .5 2.5.3.5.7.7 1.3.7.3 0 .6 0 1-.3zM193.8 21.6v8.5a5 5 0 0 1-.5 2.3 3 3 0 0 1-1.3 1.4 4 4 0 0 1-1.9.4 4 4 0 0 1-1.7-.4c-.5-.2-1-.6-1.5-1l1.2-1.6c.6.8 1.3 1.2 2 1.2.5 0 .8-.2 1-.5.3-.3.4-.8.4-1.5v-7h-3.1v-1.8h5.4zm-5.7 9.5h0zm.3 0h-.2.2zm3.4-11.3c-.2 0-.4-.2-.5-.4l-.2-.7c0-.4.1-.7.4-1 .2-.2.6-.3 1-.3.2 0 .4 0 .6.2.3.1.4.3.5.5a1.2 1.2 0 0 1 0 1.3 1.4 1.4 0 0 1-1.1.6c-.3 0-.5 0-.7-.2zM199.2 30.5a4 4 0 0 1-1.7-1.7c-.4-.7-.6-1.5-.6-2.5s.2-1.9.6-2.6a4 4 0 0 1 3.8-2.3c.7 0 1.4.2 2 .5s1 .9 1.4 1.5a5.3 5.3 0 0 1 .4 3.1v.3h-6c.1.8.4 1.4.8 1.9.4.4 1 .6 1.5.6a3 3 0 0 0 2.4-1.1l1.2 1.2c-1 1.1-2.1 1.7-3.5 1.7-.9 0-1.7-.2-2.3-.6zm3.8-5.3c0-.4 0-.8-.2-1l-.7-.9c-.3-.2-.6-.3-1-.3-.5 0-1 .2-1.3.6-.3.4-.5 1-.6 1.6h3.8zM212 29.2l.6-.3c.4-.2.8-.5 1.1-1l1.3 1.5a4.7 4.7 0 0 1-3.6 1.7c-1 0-1.7-.2-2.4-.7-.7-.4-1.3-1-1.7-1.7-.3-.7-.5-1.5-.5-2.4 0-1 .2-1.8.5-2.5s1-1.3 1.7-1.8c.7-.4 1.5-.6 2.4-.6a5 5 0 0 1 2.1.5c.7.3 1.2.7 1.6 1.3l-1.3 1.4c-.3-.5-.6-.8-1-1-.3-.3-.8-.4-1.4-.4a2 2 0 0 0-1.2.4c-.4.3-.7.6-.9 1-.2.6-.3 1-.3 1.7 0 .6 0 1 .3 1.5.2.5.5.8.8 1 .4.3.8.4 1.3.4h.6zm1.6-4.6h.2v.1l-.2-.1zm.3.1h-.1zM224.7 30c-.5.3-1 .6-1.5.7-.5.2-1 .3-1.6.3-1 0-1.7-.3-2.2-.8-.5-.6-.8-1.5-.8-3v-1l.2-2.8h-2l.1-1.8h2l.2-2.1 2.4-.4V19.4l-.2.3v.3l-.2 1.6h2.8v1.8H221l-.2 2.6v1c0 .9 0 1.4.2 1.8.2.3.5.4 1 .4.3 0 .7 0 1-.2.4-.1.7-.4 1.1-.8l.5 1.7z"/><path fill="#4B8AC7" d="M89.7 68.8H91v1.8c.2-.7.5-1.2 1-1.5a3 3 0 0 1 1.7-.5 3.5 3.5 0 0 1 3.3 2c.3.8.5 1.6.5 2.6s-.2 1.9-.6 2.6c-.3.7-.8 1.3-1.4 1.6-.5.4-1.2.6-1.8.6a3.2 3.2 0 0 1-2.7-1.4V81h-1.4V68.8zm5.7 7.1c.5-.5.7-1.4.7-2.6 0-1.1-.2-2-.6-2.6-.5-.6-1-.9-1.9-.9-.7 0-1.3.3-1.8 1-.5.6-.7 1.5-.7 2.8 0 1 .3 1.8.7 2.3.4.6 1 .8 1.8.8.7 0 1.3-.2 1.8-.8zM106.6 70.7a4 4 0 0 0-1-.7l-.8-.2c-.5 0-1 .1-1.3.4-.4.2-.8.5-1 1s-.4 1-.4 1.8v4.8h-1.5v-9h1.5v1.6c.2-.5.6-1 1.1-1.3.5-.4 1-.5 1.7-.5 1 0 1.7.3 2.4 1l-.7 1zm-.2 0h.2v.1h-.2zm.3 0h-.1.1zM110.9 77.3a4 4 0 0 1-1.5-1.6c-.4-.7-.5-1.5-.5-2.4 0-1 .1-1.7.5-2.4a3.9 3.9 0 0 1 3.6-2.3 3.9 3.9 0 0 1 3.6 2.3c.3.7.5 1.5.5 2.4 0 .9-.2 1.7-.5 2.4a4 4 0 0 1-3.6 2.2 4 4 0 0 1-2.1-.6zm3.4-1a3 3 0 0 0 1-1.3c.2-.5.3-1 .3-1.8a4 4 0 0 0-.7-2.5c-.5-.6-1.1-1-2-1s-1.3.4-1.8 1a4 4 0 0 0-.8 2.5c0 .7.2 1.3.4 1.8s.5 1 1 1.3c.3.3.8.4 1.3.4s1-.1 1.3-.4zM119 68.8h1.5v1.8c.2-.7.5-1.2 1-1.5a3 3 0 0 1 1.7-.5 3.5 3.5 0 0 1 3.2 2c.4.8.6 1.6.6 2.6s-.2 1.9-.6 2.6c-.3.7-.8 1.3-1.4 1.6-.6.4-1.2.6-1.8.6a3.2 3.2 0 0 1-2.7-1.4V81h-1.4V68.8zm5.7 7.1c.5-.5.8-1.4.8-2.6 0-1.1-.2-2-.7-2.6-.4-.6-1-.9-1.8-.9-.7 0-1.4.3-1.8 1-.5.6-.7 1.5-.7 2.8 0 1 .2 1.8.7 2.3.4.6 1 .8 1.7.8.8 0 1.4-.2 1.8-.8zM129.8 76.7c-.8-.8-1.2-2-1.2-3.4 0-1 .2-1.8.6-2.5a4 4 0 0 1 1.5-1.7 4 4 0 0 1 2-.5c1.1 0 2 .3 2.7 1 .7.8 1 1.8 1 3.2v.7H130c0 1 .3 1.9 1 2.5.5.5 1.2.8 2 .8a3 3 0 0 0 2.4-1l.7.8c-.7.9-1.8 1.3-3.1 1.3s-2.4-.4-3.2-1.2zm5.2-4.3a3 3 0 0 0-.7-2c-.4-.5-1-.7-1.6-.7-.7 0-1.3.2-1.8.6-.4.5-.7 1.2-.9 2h5zM145.8 70.7a4 4 0 0 0-1-.7l-.8-.2c-.5 0-1 .1-1.4.4-.4.2-.7.5-1 1s-.4 1-.4 1.8v4.8h-1.4v-9h1.5v1.6c.2-.5.6-1 1-1.3.6-.4 1.2-.5 1.8-.5 1 0 1.7.3 2.3 1l-.6 1zm-.2 0h.2v.1h-.2zm.3 0h-.1c.1 0 .1 0 0 0zM156 77c-1 .6-1.9.9-2.9.9s-1.7-.3-2-1c-.5-.5-.7-1.5-.7-2.9V73l.2-3h-2v-1.1h2l.2-2.4 1.6-.2h.2l-.2.4v.4l-.3 1.8h3V70h-3l-.3 3v1c0 1 .1 1.8.4 2.2.2.3.6.5 1.1.5.4 0 .8 0 1.1-.2l1.1-.7.5 1.1zM165.7 68.8l-.3 1.6-.7 2-2.3 6.4a4 4 0 0 1-1.1 1.8c-.5.4-1.1.6-1.8.6-.8 0-1.5-.3-2-.8l.6-1 .7.5.8.1c.5 0 .9-.2 1.2-.5.3-.3.5-1 .8-1.7l-3.6-9h1.4l2.8 7.2 1.2-3.6a81.3 81.3 0 0 0 1-3.6h1.3zm-7.6 10.5v.1zm.2 0h-.2.2z"/><path fill="#1E4885" d="M184.2 69.2c.7.6 1 1.6 1 3v5.5h-2V77c-.4.4-.8.6-1.3.8-.5.2-1 .3-1.6.3-1 0-1.6-.2-2.1-.7-.5-.5-.8-1.1-.8-2 0-.6.2-1.1.6-1.6.4-.4 1-.8 1.8-1 .8-.3 1.7-.4 2.8-.4h.7c-.1-.8-.3-1.4-.6-1.7-.3-.3-.8-.5-1.5-.5a3 3 0 0 0-1.3.3c-.5.2-.9.5-1.3 1l-1-1.5c.5-.5 1.1-1 1.8-1.2.6-.3 1.3-.4 2-.4 1.1 0 2 .3 2.8 1zm-1.6 6.5c.4-.4.6-1 .7-2h-.5c-1.1 0-2 .2-2.4.4-.6.3-.8.7-.8 1.2 0 .3.1.6.4.8l1 .2a2 2 0 0 0 1.6-.6zM195.3 78.1c0 .6-.2 1-.5 1.5s-.8.8-1.4 1.1c-.7.3-1.5.4-2.4.4-1.2 0-2-.2-2.7-.6-.6-.4-.9-1-.9-1.6 0-.4.1-.7.3-1 .2-.4.5-.6.8-.9-.6-.3-.8-.7-.8-1.4 0-.3 0-.6.2-1l.8-.7a3.3 3.3 0 0 1-1-2.4c0-.6 0-1.1.4-1.6a3.4 3.4 0 0 1 5-1l1-.4a4.9 4.9 0 0 1 1.6-.1l.2 1.7a4.2 4.2 0 0 0-2 0 3.2 3.2 0 0 1 0 3 3.3 3.3 0 0 1-3 1.7c-.4 0-.9-.1-1.3-.3l-.2.3v.2c0 .3.2.4.7.6l2.2.2c2 0 3 .7 3 2.3zm-2.5 1.1c.3-.2.5-.5.5-.8 0-.2 0-.4-.2-.5l-.4-.3a4 4 0 0 0-1 0c-.8 0-1.5 0-2-.2l-.4.5v.5c0 .4 0 .7.5.8.3.2.8.3 1.5.3a3 3 0 0 0 1.5-.3zm-2.5-9c-.2.2-.4.3-.5.6l-.2.7c0 .2 0 .5.2.8 0 .2.3.4.5.5l.7.2c.2 0 .5 0 .7-.2l.5-.5.2-.8-.2-.7c-.1-.3-.3-.4-.5-.6a1.3 1.3 0 0 0-1.4 0zM199.2 77.5a4 4 0 0 1-1.7-1.7c-.4-.7-.6-1.5-.6-2.5s.2-1.9.6-2.6a4 4 0 0 1 3.8-2.3c.7 0 1.4.2 2 .5.5.4 1 .9 1.4 1.5a5.3 5.3 0 0 1 .4 3.1v.3h-6c.1.8.4 1.5.8 1.9.4.4 1 .6 1.5.6a3 3 0 0 0 2.4-1l1.2 1.1c-1 1.1-2.1 1.7-3.5 1.7-.9 0-1.7-.2-2.3-.6zm3.8-5.3l-.2-1a2 2 0 0 0-.7-.9c-.3-.2-.6-.2-1-.2-.5 0-1 .1-1.3.5-.3.4-.5 1-.6 1.6h3.8z"/><path fill="#4B8AC7" d="M209.9 71.4a1 1 0 0 1 0-1.6c.2-.2.5-.3.8-.3.3 0 .6 0 .8.3s.3.5.3.8c0 .3 0 .6-.3.8a1.2 1.2 0 0 1-1.6 0zm0 6.2a1 1 0 0 1-.4-.8c0-.3.1-.5.4-.8.2-.2.5-.3.8-.3.3 0 .6.1.8.3.2.3.3.5.3.8 0 .3 0 .6-.3.8-.2.3-.5.4-.8.4-.4 0-.6-.1-.8-.4z"/><path fill="#235399" d="M226.2 65.5h2.7l3.9 8.8v-8.8h2.1v.3l-.1.2v11.7h-2.5l-4.1-9.2v9.2h-2V65.5zM237.2 77.2c-.6-.6-.8-1.5-.8-2.9v-5.7h2.1v5.7c0 .7.2 1.2.4 1.5.2.4.5.5 1 .5.3 0 .6 0 1-.2l.7-.8.2-1.2v-5.5h2.2v8.5l.2.6h-2.1l-.2-.4v-.6c-.3.4-.6.8-1.1 1-.5.3-1 .4-1.4.4-1 0-1.7-.3-2.2-.9zM245.8 68.5h1.9v.6l.7-.7.9-.2.9.3c.3.1.5.4.7.8.2-.4.5-.6.7-.8a2 2 0 0 1 1.1-.3c.7 0 1.2.2 1.4.7.3.4.4 1.1.4 2v6.8h-2v-6.3l-.1-1.1c-.1-.3-.3-.4-.5-.4-.5 0-.7.6-.7 1.8v6h-2v-6.2c0-.6 0-1-.2-1.2-.1-.3-.2-.4-.4-.4-.3 0-.5.2-.6.4-.2.3-.2.7-.2 1.4v6h-2v-9.2zM258.9 77.7c-.5-.2-.8-.5-1.1-.8l-.3.8h-1.6V64.5h2.4v.3l-.1.2v4.4a3 3 0 0 1 1-.7c.3-.2.7-.3 1-.3.8 0 1.4.2 2 .5.6.4 1 .9 1.4 1.6.3.7.5 1.5.5 2.5s-.2 2-.5 2.7-1 1.4-1.5 1.8c-.6.4-1.2.5-2 .5a3 3 0 0 1-1.2-.3zm2-1.8c.3-.2.5-.5.7-1 .2-.4.3-1 .3-1.6 0-1-.2-1.7-.5-2.3-.4-.5-.9-.8-1.6-.8-.6 0-1 .2-1.3.8a5 5 0 0 0-.4 2c0 1.2.2 2 .5 2.5s.7.7 1.3.7c.3 0 .6 0 1-.3zM267.7 77.5a4 4 0 0 1-1.6-1.7c-.4-.7-.6-1.5-.6-2.5s.2-1.9.5-2.6a4 4 0 0 1 3.8-2.3c.7 0 1.4.2 2 .5.6.4 1 .9 1.4 1.5a5.3 5.3 0 0 1 .5 3.1v.3h-6c0 .8.3 1.5.7 1.9.5.4 1 .6 1.6.6a3 3 0 0 0 2.3-1l1.2 1.1c-1 1.1-2 1.7-3.4 1.7-1 0-1.7-.2-2.4-.6zm3.8-5.3c0-.4 0-.8-.2-1l-.6-.9c-.3-.2-.6-.2-1-.2-.5 0-1 .1-1.3.5-.4.4-.6 1-.7 1.6h3.8zM282.8 71.4l-.8-.9-1-.2c-.5 0-.9 0-1.3.3-.4.2-.7.5-.9 1a3 3 0 0 0-.3 1.4v4.7h-2.2v-9h2.3v1.2c.2-.5.6-.8 1-1 .5-.4 1-.5 1.6-.5a3.9 3.9 0 0 1 2.5 1l-1 2zm-.3 0h.2v.1h-.2v-.1zm.3 0v.1h-.1v-.1z"/><path fill="#4B8AC7" d="M295 70.4v-1.2h8v1.2h-8zm0 3v-1.2h8v1.2h-8z"/><path fill="#235399" d="M321.4 67.1a9 9 0 0 1 1 4.6 9 9 0 0 1-1 4.6 3 3 0 0 1-2.8 1.7c-1.2 0-2.1-.6-2.8-1.7a9 9 0 0 1-1-4.6 9 9 0 0 1 1-4.6 3 3 0 0 1 2.8-1.6 3 3 0 0 1 2.8 1.6zm-4.5 1a12.9 12.9 0 0 0-.4 6l4-5.5c-.1-.6-.4-1.1-.7-1.4-.3-.4-.7-.5-1.2-.5-.7 0-1.3.4-1.7 1.3zm3.5 7.4a9 9 0 0 0 .6-3.8l-.1-2-4.2 5.3c.4 1.2 1 1.8 2 1.8.7 0 1.2-.5 1.7-1.3z"/><path fill="#4B8AC7" d="M89.7 92.3H91v1.8c.2-.7.5-1.2 1-1.5a3 3 0 0 1 1.7-.5 3.5 3.5 0 0 1 3.3 2c.3.8.5 1.6.5 2.6s-.2 1.9-.6 2.6c-.3.7-.8 1.3-1.4 1.6-.5.4-1.2.6-1.8.6a3.2 3.2 0 0 1-2.7-1.4v4.4h-1.4V92.3zm5.7 7.1c.5-.5.7-1.4.7-2.6 0-1.1-.2-2-.6-2.6s-1-.9-1.9-.9c-.7 0-1.3.3-1.8 1-.5.6-.7 1.5-.7 2.8 0 1 .3 1.8.7 2.3.4.6 1 .8 1.8.8.7 0 1.3-.2 1.8-.8zM106.6 94.2a4 4 0 0 0-1-.7l-.8-.2c-.5 0-1 .1-1.3.4-.4.2-.8.5-1 1s-.4 1-.4 1.8v4.8h-1.5v-9h1.5v1.6c.2-.5.6-1 1.1-1.3.5-.4 1-.5 1.7-.5 1 0 1.7.3 2.4 1l-.7 1zm-.2 0h.2v.1h-.2zm.3 0h-.1.1zM110.9 100.8a4 4 0 0 1-1.5-1.6c-.4-.7-.5-1.5-.5-2.4 0-1 .1-1.7.5-2.4A3.9 3.9 0 0 1 113 92a3.9 3.9 0 0 1 3.6 2.3c.3.7.5 1.5.5 2.4 0 .9-.2 1.7-.5 2.4a4 4 0 0 1-3.6 2.2 4 4 0 0 1-2.1-.6zm3.4-1a3 3 0 0 0 1-1.3c.2-.5.3-1 .3-1.8a4 4 0 0 0-.7-2.5c-.5-.6-1.1-1-2-1s-1.3.4-1.8 1a4 4 0 0 0-.8 2.5c0 .7.2 1.3.4 1.8s.5 1 1 1.3c.3.3.8.4 1.3.4s1-.1 1.3-.4zM119 92.3h1.5v1.8c.2-.7.5-1.2 1-1.5a3 3 0 0 1 1.7-.5 3.5 3.5 0 0 1 3.2 2c.4.8.6 1.6.6 2.6s-.2 1.9-.6 2.6-.8 1.3-1.4 1.6c-.6.4-1.2.6-1.8.6a3.2 3.2 0 0 1-2.7-1.4v4.4h-1.4V92.3zm5.7 7.1c.5-.5.8-1.4.8-2.6 0-1.1-.2-2-.7-2.6s-1-.9-1.8-.9c-.7 0-1.4.3-1.8 1-.5.6-.7 1.5-.7 2.8 0 1 .2 1.8.7 2.3.4.6 1 .8 1.7.8.8 0 1.4-.2 1.8-.8zM129.8 100.2c-.8-.8-1.2-2-1.2-3.4 0-1 .2-1.8.6-2.5a4 4 0 0 1 1.5-1.7 4 4 0 0 1 2-.5c1.1 0 2 .3 2.7 1 .7.8 1 1.8 1 3.2v.7H130c0 1 .3 2 1 2.5.5.5 1.2.8 2 .8a3 3 0 0 0 2.4-1l.7.8c-.7.9-1.8 1.3-3.1 1.3s-2.4-.4-3.2-1.2zM135 96a3 3 0 0 0-.7-2c-.4-.5-1-.7-1.6-.7-.7 0-1.3.2-1.8.6-.4.5-.7 1.2-.9 2h5zM145.8 94.2a4 4 0 0 0-1-.7l-.8-.2c-.5 0-1 .1-1.4.4-.4.2-.7.5-1 1s-.4 1-.4 1.8v4.8h-1.4v-9h1.5v1.6c.2-.5.6-1 1-1.3.6-.4 1.2-.5 1.8-.5 1 0 1.7.3 2.3 1l-.6 1zm-.2 0h.2v.1h-.2zm.3 0h-.1c.1 0 .1 0 0 0zM156 100.4c-1 .7-1.9 1-2.9 1s-1.7-.3-2-1c-.5-.5-.7-1.5-.7-2.9v-1.1l.2-3h-2v-1.1h2l.2-2.4 1.6-.2h.2l-.2.4v.4l-.3 1.8h3v1.2h-3l-.3 3v1c0 1 .1 1.8.4 2.2.2.3.6.5 1.1.5.4 0 .8 0 1.1-.2l1.1-.7.5 1.1zM165.7 92.3l-.3 1.6-.7 2-2.3 6.4a4 4 0 0 1-1.1 1.8c-.5.4-1.1.6-1.8.6-.8 0-1.5-.3-2-.8l.6-1 .7.5.8.1c.5 0 .9-.2 1.2-.5.3-.3.5-1 .8-1.7l-3.6-9h1.4l2.8 7.2 1.2-3.6a82.8 82.8 0 0 0 1-3.6h1.3zm-7.6 10.5v.1zm.2 0v.1h-.2l.1-.1h.1z"/><path fill="#1E4885" d="M182.6 99.7l.6-.3c.4-.2.8-.5 1.1-1l1.3 1.5a4.7 4.7 0 0 1-3.6 1.7c-.9 0-1.7-.2-2.4-.7-.7-.4-1.2-1-1.6-1.7-.4-.7-.6-1.5-.6-2.4 0-1 .2-1.8.6-2.5a4.4 4.4 0 0 1 4-2.4 5 5 0 0 1 2.1.5c.7.3 1.2.7 1.6 1.3l-1.2 1.4c-.3-.5-.7-.8-1-1-.4-.3-.9-.4-1.5-.4a2 2 0 0 0-1.2.4c-.4.3-.7.6-.9 1-.2.6-.3 1-.3 1.7 0 .6.1 1 .3 1.5s.5.8.9 1c.3.3.7.4 1.2.4h.6zm1.6-4.6h.2v.1l-.2-.1zm.3.2l-.1-.1h.1zM187.6 88h2.4v.3l-.2.2V93l1.1-.8a3 3 0 0 1 1.3-.3c1 0 1.7.3 2.3 1 .5.5.8 1.5.8 2.8v5.5h-2.2v-5.5c0-.7-.1-1.2-.4-1.5-.2-.3-.5-.5-1-.5l-1 .3a2 2 0 0 0-.6.8c-.2.3-.3.7-.3 1.2v5.2h-2.2V88zM198 101.3v-1.8h2.2v-5.6H198V92h4.2v7.4h2v1.7H198zm2.4-11c-.2 0-.3-.2-.5-.4l-.2-.7c0-.3.2-.7.4-.9.3-.2.6-.4 1-.4.3 0 .5 0 .7.2l.5.5.2.6-.2.7a1.4 1.4 0 0 1-1.2.6c-.2 0-.5 0-.7-.2zM207.3 101.3v-1.8h2.5v-9.8h-2.4V88h4.6v11.5h2.5v1.7h-7.2zM218.3 101c-.6-.3-1-.9-1.4-1.6a6 6 0 0 1-.5-2.6c0-1 .2-1.8.5-2.6.4-.7.8-1.3 1.4-1.7.6-.4 1.3-.6 2-.6.3 0 .7 0 1.1.3.4.1.7.4 1 .6V88h2.4v.3l-.2.2v12.2l.2.6h-2.1l-.2-.5v-.6a2 2 0 0 1-1 1c-.3.2-.8.3-1.2.3-.7 0-1.4-.1-2-.5zm4.1-4.4c0-1-.1-1.6-.4-2.1s-.7-.8-1.3-.8c-.7 0-1.2.3-1.6.8-.3.6-.5 1.4-.5 2.3 0 .7.1 1.2.3 1.7l.8 1 .9.2c1.2 0 1.8-1 1.8-3.1zM233.8 94.9l-.8-.9-1-.2c-.4 0-.9 0-1.2.3-.4.2-.7.5-1 1s-.2.8-.2 1.4v4.7h-2.3v-9h2.3v1.2c.2-.5.6-.8 1-1 .5-.4 1-.5 1.6-.5a3.8 3.8 0 0 1 2.6 1l-1 2zm-.3 0h.2v.1h-.2v-.1zm.3 0v.1-.1zM238.3 101c-.7-.4-1.2-1-1.6-1.7s-.6-1.5-.6-2.5.2-1.8.6-2.6a4 4 0 0 1 3.7-2.3c.8 0 1.4.2 2 .5.6.4 1 .9 1.4 1.5a5.3 5.3 0 0 1 .5 3.1v.3h-6c0 .8.3 1.5.8 1.9.4.4 1 .6 1.5.6a3 3 0 0 0 2.3-1l1.2 1.1c-.9 1.1-2 1.7-3.4 1.7-1 0-1.7-.2-2.4-.6zm3.8-5.3c0-.4 0-.8-.2-1-.1-.4-.3-.7-.6-.9-.3-.2-.6-.2-1-.2-.5 0-1 .1-1.3.5-.4.4-.6 1-.6 1.6h3.7zM246.4 92.1h2.2v1a3.5 3.5 0 0 1 2.6-1.2c.8 0 1.5.3 2 1 .6.5.8 1.5.8 2.8v5.6h-2.2v-5.6c0-.7 0-1.2-.3-1.5-.3-.3-.7-.5-1.2-.5a2 2 0 0 0-.8.2 1.5 1.5 0 0 0-1 1.5v5.9h-2.1V92z"/><path fill="#4B8AC7" d="M258.8 94.9a1 1 0 0 1 0-1.6c.2-.2.5-.3.8-.3s.6 0 .9.3a1 1 0 0 1 0 1.6 1.2 1.2 0 0 1-1.7 0zm0 6.2a1 1 0 0 1-.3-.8c0-.3 0-.5.3-.8.2-.2.5-.3.8-.3s.6.1.9.3c.2.3.3.5.3.8 0 .3-.1.6-.3.8-.3.3-.5.4-.9.4-.3 0-.6-.1-.8-.4zM277.1 103V88h5.6v1.2h-4.3v12.6h4.3v1h-5.6z"/><path fill="#235399" d="M285.3 89h4.2c.9 0 1.7.2 2.3.5.6.4 1 .8 1.3 1.3.3.6.5 1.2.5 2 0 .6-.2 1.2-.5 1.8a3 3 0 0 1-1.3 1.2c-.6.4-1.3.5-2.2.5h-2v5h-2.3V89zm4.1 5.5c.6 0 1.1-.2 1.4-.5.4-.3.5-.7.5-1.2 0-.6-.1-1-.5-1.3-.3-.3-.8-.5-1.4-.5h-1.8v3.4h1.8zM297 101a4 4 0 0 1-1.5-1.7c-.4-.7-.6-1.5-.6-2.5s.2-1.8.5-2.6a4 4 0 0 1 3.8-2.3c.7 0 1.4.2 2 .5.6.4 1 .9 1.4 1.5a5.3 5.3 0 0 1 .5 3.1v.3h-6c0 .8.3 1.5.7 1.9.4.4 1 .6 1.6.6a3 3 0 0 0 2.3-1l1.2 1.1c-1 1.1-2 1.7-3.5 1.7-.9 0-1.6-.2-2.3-.6zm3.9-5.3c0-.4 0-.8-.2-1-.2-.4-.4-.7-.7-.9-.2-.2-.6-.2-1-.2-.5 0-1 .1-1.3.5-.3.4-.5 1-.6 1.6h3.8zM312.1 94.9c-.2-.4-.5-.7-.8-.9l-1-.2c-.4 0-.8 0-1.2.3-.4.2-.7.5-.9 1a3 3 0 0 0-.3 1.4v4.7h-2.2v-9h2.2v1.2c.3-.5.6-.8 1-1 .6-.4 1-.5 1.7-.5a3.8 3.8 0 0 1 2.5 1l-1 2zm-.2 0h.2v.1h-.2v-.1zm.2 0v.1-.1zM320.6 96.1l.7.4 1 .8.2 1.2c0 .6-.1 1-.5 1.5-.3.5-.7.9-1.2 1.1s-1.2.5-1.9.5a7 7 0 0 1-2.4-.4c-.7-.2-1.3-.6-1.9-1.2l1-1.6c.4.5 1 .8 1.4 1 .6.3 1.2.4 2 .4 1 0 1.5-.3 1.5-1 0-.2 0-.4-.2-.6l-.6-.4-1.2-.4c-1-.3-1.8-.6-2.4-1s-.9-1-.9-1.8c0-.5.2-1 .4-1.4.3-.4.7-.7 1.3-1 .5-.2 1.1-.3 1.8-.3s1.4.1 2 .4a5 5 0 0 1 1.6 1l-1 1.6h-.1l-1-1a3 3 0 0 0-1.4-.2c-.4 0-.7 0-1 .2-.3.1-.4.3-.4.5s0 .4.2.6l.7.4a14.6 14.6 0 0 0 2.3.7zm-5.1 2.2h0zm.3.1h-.2v-.1h.2v.1zm5.1-3.5h.2v.1l-.2-.1zm.4.1h-.1v-.1.1zM326.2 101c-.6-.5-1.2-1-1.5-1.8-.4-.7-.6-1.6-.6-2.5 0-.9.2-1.7.6-2.4.4-.8.9-1.3 1.5-1.8a4 4 0 0 1 2.2-.6 4 4 0 0 1 2.2.6 5 5 0 0 1 2.2 4.2c0 1-.2 1.8-.6 2.5-.4.8-.9 1.3-1.6 1.7a4 4 0 0 1-2.2.7 4 4 0 0 1-2.2-.7zm3.4-1.6c.3-.2.5-.6.7-1 .2-.5.3-1 .3-1.7 0-.6-.1-1.2-.3-1.6-.2-.5-.4-.8-.7-1-.4-.3-.7-.4-1.2-.4-.4 0-.7 0-1 .3-.4.3-.6.6-.8 1-.2.5-.3 1-.3 1.7 0 .6.1 1.2.3 1.6.2.5.4.9.7 1.1.3.3.7.4 1.1.4.5 0 .8-.1 1.2-.4zM334.5 92.1h2.2v1a3.5 3.5 0 0 1 2.6-1.2c.9 0 1.6.3 2 1 .6.5.9 1.5.9 2.8v5.6H340v-5.6c0-.7-.2-1.2-.4-1.5-.3-.3-.6-.5-1.1-.5a2 2 0 0 0-1 .2 1.5 1.5 0 0 0-.8 1.5v5.9h-2.2V92z"/><path fill="#4B8AC7" d="M351.3 103h-5.6v-1.1h4.3V89.3h-4.3v-1.2h5.6V103zM89.7 115.8H91v1.8c.2-.7.5-1.2 1-1.5a3 3 0 0 1 1.7-.5c.7 0 1.3.2 2 .5.5.4 1 .9 1.3 1.6.3.7.5 1.5.5 2.5s-.2 1.9-.6 2.6c-.3.7-.8 1.3-1.4 1.6-.5.4-1.2.6-1.8.6a3.2 3.2 0 0 1-2.7-1.4v4.4h-1.4v-12.2zm5.7 7.1c.5-.5.7-1.4.7-2.6 0-1.1-.2-2-.6-2.6-.5-.6-1-.9-1.9-.9-.7 0-1.3.3-1.8 1-.5.6-.7 1.5-.7 2.8 0 1 .3 1.8.7 2.3.4.6 1 .8 1.8.8.7 0 1.3-.2 1.8-.8zM106.6 117.7a4 4 0 0 0-1-.7l-.8-.2c-.5 0-1 .1-1.3.4-.4.2-.8.5-1 1s-.4 1-.4 1.8v4.8h-1.5v-9h1.5v1.6c.2-.5.6-1 1.1-1.3.5-.4 1-.5 1.7-.5 1 0 1.7.3 2.4 1l-.7 1zm-.2 0h.2v.1h-.2zm.3 0h-.1.1zM110.9 124.3a4 4 0 0 1-1.5-1.6c-.4-.7-.5-1.5-.5-2.4s.1-1.7.5-2.4a3.9 3.9 0 0 1 3.6-2.3 3.9 3.9 0 0 1 3.6 2.3c.3.7.5 1.5.5 2.4s-.2 1.7-.5 2.4a4 4 0 0 1-3.6 2.2 4 4 0 0 1-2.1-.6zm3.4-1a3 3 0 0 0 1-1.3c.2-.5.3-1 .3-1.8a4 4 0 0 0-.7-2.5c-.5-.6-1.1-1-2-1s-1.3.4-1.8 1a4 4 0 0 0-.8 2.5c0 .7.2 1.3.4 1.8.2.6.5 1 1 1.3.3.3.8.4 1.3.4s1-.1 1.3-.4zM119 115.8h1.5v1.8c.2-.7.5-1.2 1-1.5a3 3 0 0 1 1.7-.5c.7 0 1.3.2 1.9.5.5.4 1 .9 1.3 1.6.4.7.6 1.5.6 2.5s-.2 1.9-.6 2.6c-.3.7-.8 1.3-1.4 1.6-.6.4-1.2.6-1.8.6a3.2 3.2 0 0 1-2.7-1.4v4.4h-1.4v-12.2zm5.7 7.1c.5-.5.8-1.4.8-2.6 0-1.1-.2-2-.7-2.6-.4-.6-1-.9-1.8-.9-.7 0-1.4.3-1.8 1-.5.6-.7 1.5-.7 2.8 0 1 .2 1.8.7 2.3.4.6 1 .8 1.7.8.8 0 1.4-.2 1.8-.8zM129.8 123.7c-.8-.8-1.2-2-1.2-3.4 0-1 .2-1.8.6-2.5a4 4 0 0 1 1.5-1.7 4 4 0 0 1 2-.5c1.1 0 2 .3 2.7 1 .7.8 1 1.8 1 3.2v.7H130c0 1 .3 2 1 2.5.5.5 1.2.8 2 .8a3 3 0 0 0 2.4-1l.7.8c-.7.9-1.8 1.3-3.1 1.3s-2.4-.4-3.2-1.2zm5.2-4.3a3 3 0 0 0-.7-2c-.4-.5-1-.7-1.6-.7-.7 0-1.3.2-1.8.6-.4.5-.7 1.2-.9 2h5zM145.8 117.7a4 4 0 0 0-1-.7l-.8-.2c-.5 0-1 .1-1.4.4-.4.2-.7.5-1 1s-.4 1-.4 1.8v4.8h-1.4v-9h1.5v1.6c.2-.5.6-1 1-1.3.6-.4 1.2-.5 1.8-.5 1 0 1.7.3 2.3 1l-.6 1zm-.2 0h.2v.1h-.2zm.3 0h-.1c.1 0 .1 0 0 0zM156 124c-1 .6-1.9.9-2.9.9s-1.7-.3-2-1c-.5-.5-.7-1.5-.7-2.9V120l.2-3h-2v-1.1h2l.2-2.4 1.6-.2h.2l-.2.4v.4l-.3 1.8h3v1.2h-3l-.3 3v1c0 1 .1 1.8.4 2.2.2.3.6.5 1.1.5.4 0 .8 0 1.1-.2l1.1-.7.5 1.1zM165.7 115.8l-.3 1.6c-.1.6-.4 1.2-.7 2l-2.3 6.4a4 4 0 0 1-1.1 1.8c-.5.4-1.1.6-1.8.6-.8 0-1.5-.3-2-.8l.6-1 .7.5.8.1c.5 0 .9-.2 1.2-.5.3-.3.5-1 .8-1.7l-3.6-9h1.4l2.8 7.2 1.2-3.6a82.6 82.6 0 0 0 1-3.6h1.3zm-7.6 10.5v.1zm.2 0h-.2.2z"/><path fill="#1E4885" d="M178 124.8V123h2.5v-9.8H178v-1.7h4.6V123h2.5v1.8h-7.3zM194 116.2c.7.6 1 1.6 1 3v5.5h-2v-.8a4.2 4.2 0 0 1-2.9 1c-1 0-1.6-.1-2.1-.6s-.8-1.1-.8-2c0-.6.2-1.1.6-1.6.4-.4 1-.8 1.8-1s1.7-.4 2.8-.4h.7c-.1-.8-.3-1.4-.6-1.7-.4-.3-.8-.5-1.5-.5a3 3 0 0 0-1.3.3c-.5.2-.9.5-1.3 1l-1-1.5c.5-.5 1.1-1 1.8-1.2.6-.3 1.3-.4 1.9-.4 1.2 0 2.2.3 2.9 1zm-1.6 6.5c.4-.4.6-1 .7-2h-.5c-1.1 0-2 .2-2.4.4-.6.3-.8.7-.8 1.2 0 .3.1.6.4.8l1 .2a2 2 0 0 0 1.6-.6zM197.4 115.6h2.2v1a3.5 3.5 0 0 1 2.6-1.2c.9 0 1.6.3 2.1 1 .5.5.8 1.5.8 2.8v5.6h-2.2v-5.6c0-.7-.2-1.2-.4-1.5-.3-.3-.6-.5-1.1-.5a2 2 0 0 0-.9.2 1.5 1.5 0 0 0-.9 1.5v5.9h-2.2v-9.2zM214.9 125.1c0 .6-.2 1-.5 1.5s-.8.9-1.4 1.1c-.7.3-1.5.4-2.4.4-1.2 0-2-.2-2.7-.6-.6-.4-.9-.9-.9-1.6 0-.4.1-.7.3-1 .2-.4.4-.6.8-.9-.6-.3-.9-.7-.9-1.4l.3-1 .8-.7a3.3 3.3 0 0 1-1-2.4c0-.6 0-1.1.4-1.6s.7-1 1.2-1.2a3.3 3.3 0 0 1 2.8-.3l1 .6 1-.5a4.9 4.9 0 0 1 1.6-.1l.2 1.7a4.2 4.2 0 0 0-2 0 3.2 3.2 0 0 1 0 3 3.3 3.3 0 0 1-3 1.7c-.4 0-.9-.1-1.3-.3l-.2.3v.2c0 .3.2.4.6.6l2.3.2c2 0 3 .7 3 2.3zm-2.6 1.1c.4-.2.6-.5.6-.8 0-.2 0-.4-.2-.5l-.4-.3a4 4 0 0 0-1 0c-.8 0-1.5 0-2-.2l-.4.5-.1.5c0 .4.2.7.5.8.4.2 1 .3 1.6.3a3 3 0 0 0 1.4-.3zm-2.4-9c-.3.2-.4.3-.5.6a1.5 1.5 0 0 0 .5 2l.7.2c.2 0 .4 0 .7-.2l.5-.5.2-.8-.2-.7-.5-.6a1.3 1.3 0 0 0-1.4 0zM217.6 124.2c-.5-.6-.8-1.5-.8-2.9v-5.7h2.2v5.7c0 .7 0 1.2.3 1.5.2.4.6.5 1 .5.3 0 .7 0 1-.2l.7-.8.2-1.2v-5.5h2.2v8.5l.2.7h-2.1l-.2-.5v-.6c-.2.4-.6.8-1 1-.6.3-1 .4-1.5.4-1 0-1.7-.3-2.2-.9zM233.2 116.2c.7.6 1 1.6 1 3v5.5h-2v-.8a4.2 4.2 0 0 1-2.9 1c-1 0-1.7-.1-2.2-.6-.5-.5-.7-1.1-.7-2 0-.6.2-1.1.6-1.6.4-.4 1-.8 1.8-1s1.7-.4 2.8-.4h.6c0-.8-.2-1.4-.6-1.7-.3-.3-.8-.5-1.4-.5a3 3 0 0 0-1.4.3c-.4.2-.8.5-1.2 1l-1.1-1.5c.5-.5 1.2-1 1.8-1.2.7-.3 1.3-.4 2-.4 1.2 0 2.1.3 2.9 1zm-1.7 6.5c.4-.4.6-1 .7-2h-.4c-1.1 0-2 .2-2.5.4-.5.3-.7.7-.7 1.2 0 .3 0 .6.3.8l1.1.2a2 2 0 0 0 1.5-.6zM244.3 125.1c0 .6-.2 1-.5 1.5s-.8.9-1.5 1.1c-.6.3-1.4.4-2.4.4-1.1 0-2-.2-2.6-.6-.6-.4-.9-.9-.9-1.6 0-.4 0-.7.3-1 .2-.4.4-.6.8-.9-.6-.3-.9-.7-.9-1.4l.3-1 .8-.7a3.3 3.3 0 0 1-1.1-2.4c0-.6.1-1.1.4-1.6a3.3 3.3 0 0 1 4-1.5c.4.2.7.3 1 .6l1.1-.5a4.9 4.9 0 0 1 1.6-.1l.2 1.7a4.2 4.2 0 0 0-2 0 3.2 3.2 0 0 1 0 3 3.3 3.3 0 0 1-3 1.7c-.4 0-.9-.1-1.3-.3l-.2.3v.2c0 .3.2.4.6.6l2.3.2c2 0 3 .7 3 2.3zm-2.6 1.1c.4-.2.5-.5.5-.8v-.5l-.6-.3a4 4 0 0 0-1 0c-.8 0-1.5 0-2-.2l-.3.5-.1.5c0 .4.2.7.5.8.4.2.9.3 1.5.3a3 3 0 0 0 1.5-.3zm-2.5-9l-.5.6-.2.7.2.8.5.5.7.2c.3 0 .5 0 .7-.2l.5-.5c.2-.3.2-.5.2-.8l-.2-.7c0-.2-.3-.4-.5-.6a1.3 1.3 0 0 0-1.4 0zM248.1 124.5c-.7-.4-1.2-1-1.6-1.7-.4-.7-.6-1.5-.6-2.5s.2-1.8.6-2.6a4 4 0 0 1 3.7-2.3c.8 0 1.4.2 2 .5s1 .9 1.4 1.5a5.3 5.3 0 0 1 .5 3.1v.3h-6c0 .8.3 1.5.8 1.9.4.4.9.6 1.5.6a3 3 0 0 0 2.3-1l1.2 1.1c-.9 1.1-2 1.7-3.4 1.7-1 0-1.7-.2-2.4-.6zm3.8-5.3c0-.4 0-.8-.2-1-.1-.4-.3-.7-.6-.9l-1-.2c-.5 0-1 .1-1.3.5-.4.4-.6 1-.6 1.6h3.7z"/><path fill="#4B8AC7" d="M258.8 118.4a1 1 0 0 1 0-1.6c.2-.2.5-.3.8-.3s.6 0 .9.3a1 1 0 0 1 0 1.6 1.2 1.2 0 0 1-1.7 0zm0 6.2c-.2-.2-.3-.4-.3-.7s0-.6.3-.9c.2-.2.5-.3.8-.3s.6.1.9.3c.2.3.3.5.3.8 0 .4-.1.6-.3.8-.3.3-.5.4-.9.4-.3 0-.6-.1-.8-.4z"/><path fill="#235399" d="M275.8 112.5h2.4v.3l-.2.2v9.9h5.5v1.8h-7.8v-12.2zM292 116.2c.6.6 1 1.6 1 3v5.5h-2v-.8c-.4.4-.9.6-1.4.8-.5.2-1 .3-1.6.3-.9 0-1.6-.2-2.1-.7-.5-.5-.8-1.1-.8-2 0-.6.2-1.1.6-1.6.5-.4 1-.8 1.8-1 .8-.3 1.7-.4 2.8-.4h.7c0-.8-.3-1.4-.6-1.7-.3-.3-.8-.5-1.5-.5a3 3 0 0 0-1.3.3c-.5.2-.9.5-1.3 1l-1-1.5c.5-.5 1.1-1 1.8-1.2.6-.3 1.3-.4 2-.4 1.1 0 2 .3 2.8 1zm-1.7 6.5c.4-.4.6-1 .7-2h-.5c-1 0-1.9.2-2.4.4-.5.3-.8.7-.8 1.2 0 .3.1.6.4.8l1 .2a2 2 0 0 0 1.6-.6zM295.3 115.6h2.2v1a3.5 3.5 0 0 1 2.6-1.2c.9 0 1.6.3 2.1 1 .5.5.8 1.5.8 2.8v5.6h-2.2v-5.6c0-.7-.1-1.2-.4-1.5-.2-.3-.6-.5-1.1-.5a2 2 0 0 0-.9.2c-.3.1-.5.3-.6.6-.2.2-.3.5-.3.9v5.9h-2.2v-9.2zM312.8 125.1c0 .6-.2 1-.5 1.5s-.8.9-1.4 1.1c-.7.3-1.5.4-2.4.4-1.2 0-2-.2-2.7-.6-.6-.4-.9-.9-.9-1.6 0-.4.1-.7.3-1 .2-.4.5-.6.8-.9-.6-.3-.8-.7-.8-1.4 0-.3 0-.6.2-1l.8-.7a3.3 3.3 0 0 1-1-2.4c0-.6 0-1.1.4-1.6a3.4 3.4 0 0 1 5-1l1-.4a4.9 4.9 0 0 1 1.6-.1l.2 1.7a4.2 4.2 0 0 0-2 0 3.2 3.2 0 0 1 0 3 3.3 3.3 0 0 1-3 1.7l-1.3-.3-.1.3-.1.2c0 .3.2.4.7.6l2.2.2c2 0 3 .7 3 2.3zm-2.5 1.1c.3-.2.5-.5.5-.8l-.1-.5-.5-.3a4 4 0 0 0-1 0c-.8 0-1.5 0-2-.2l-.4.5v.5c0 .4.1.7.5.8.3.2.8.3 1.5.3a3 3 0 0 0 1.5-.3zm-2.5-9c-.2.2-.4.3-.5.6-.2.2-.2.5-.2.7l.2.8.5.5.7.2c.2 0 .5 0 .7-.2l.5-.5.2-.8c0-.3 0-.5-.2-.7l-.5-.6a1.3 1.3 0 0 0-1.4 0zM315.5 124.2c-.5-.6-.8-1.5-.8-2.9v-5.7h2.2v5.7c0 .7.1 1.2.3 1.5.3.4.6.5 1 .5s.7 0 1-.2l.7-.8.3-1.2v-5.5h2.2v8.5c0 .3 0 .5.2.7h-2.2l-.1-.5v-.6c-.3.4-.7.8-1.2 1-.4.3-.9.4-1.3.4-1 0-1.8-.3-2.3-.9zM331 116.2c.8.6 1.2 1.6 1.2 3v5.5H330v-.8c-.4.4-.8.6-1.3.8-.5.2-1 .3-1.6.3-1 0-1.7-.2-2.2-.7-.5-.5-.7-1.1-.7-2 0-.6.2-1.1.6-1.6.4-.4 1-.8 1.8-1 .8-.3 1.7-.4 2.8-.4h.6c0-.8-.2-1.4-.5-1.7-.4-.3-.9-.5-1.5-.5a3 3 0 0 0-1.3.3c-.5.2-1 .5-1.3 1l-1.1-1.5c.6-.5 1.2-1 1.8-1.2.7-.3 1.4-.4 2-.4 1.2 0 2.2.3 2.9 1zm-1.5 6.5c.3-.4.6-1 .6-2h-.4c-1.1 0-2 .2-2.5.4-.5.3-.7.7-.7 1.2 0 .3.1.6.4.8l1 .2a2 2 0 0 0 1.6-.6zM342.2 125.1c0 .6-.2 1-.5 1.5s-.8.9-1.4 1.1c-.7.3-1.5.4-2.4.4-1.2 0-2.1-.2-2.7-.6-.6-.4-.9-.9-.9-1.6 0-.4.1-.7.3-1 .2-.4.4-.6.8-.9-.6-.3-.9-.7-.9-1.4l.3-1 .8-.7a3.3 3.3 0 0 1-1.1-2.4c0-.6.2-1.1.5-1.6a3.3 3.3 0 0 1 2.8-1.6 3.3 3.3 0 0 1 2.1.7l1.1-.5a4.9 4.9 0 0 1 1.6-.1l.2 1.7a4.2 4.2 0 0 0-2 0 3.2 3.2 0 0 1 0 3 3.3 3.3 0 0 1-3 1.7c-.4 0-.9-.1-1.3-.3l-.2.3v.2c0 .3.2.4.6.6l2.3.2c2 0 3 .7 3 2.3zm-2.6 1.1c.4-.2.6-.5.6-.8 0-.2 0-.4-.2-.5l-.4-.3a4 4 0 0 0-1 0c-.9 0-1.5 0-2-.2l-.4.5-.1.5c0 .4.2.7.5.8.4.2 1 .3 1.6.3a3 3 0 0 0 1.4-.3zm-2.4-9l-.6.6-.1.7.1.8c.2.2.3.4.6.5l.6.2c.3 0 .5 0 .8-.2l.5-.5.1-.8-.1-.7-.5-.6a1.3 1.3 0 0 0-1.4 0zM346 124.5c-.7-.4-1.2-1-1.6-1.7-.4-.7-.6-1.5-.6-2.5s.2-1.8.6-2.6a4 4 0 0 1 3.7-2.3c.8 0 1.4.2 2 .5.6.4 1 .9 1.4 1.5a5.3 5.3 0 0 1 .5 3.1v.3h-6c0 .8.4 1.5.8 1.9.4.4 1 .6 1.5.6a3 3 0 0 0 2.3-1l1.2 1.1c-.9 1.1-2 1.7-3.4 1.7-.9 0-1.7-.2-2.4-.6zm3.9-5.3c0-.4-.1-.8-.3-1-.1-.4-.3-.7-.6-.9l-1-.2c-.5 0-1 .1-1.3.5-.3.4-.6 1-.6 1.6h3.8z"/><path fill="#4B8AC7" d="M356.8 124.6a1 1 0 0 1-.4-.8c0-.3.1-.5.4-.7.2-.3.4-.4.8-.4.3 0 .5.1.7.4.3.2.4.4.4.7 0 .3-.1.6-.4.8a1 1 0 0 1-.7.4 1 1 0 0 1-.9-.4zM366.8 124.8v-11h-3.5v-1.3h8.5v1.3H368v11h-1.3zM381.2 115.8l-.4 1.6-.7 2-2.2 6.4a4 4 0 0 1-1.2 1.8c-.5.4-1 .6-1.7.6-.9 0-1.6-.3-2.1-.8l.6-1 .7.5.8.1c.5 0 1-.2 1.2-.5.3-.3.6-1 .8-1.7l-3.6-9h1.4l2.8 7.2 1.2-3.6a88.1 88.1 0 0 0 1-3.6h1.4zm-7.7 10.5v.1zm.2 0h-.1.1zM383.4 115.8h1.5v1.8c.2-.7.5-1.2 1-1.5a3 3 0 0 1 1.7-.5c.7 0 1.3.2 1.9.5.5.4 1 .9 1.3 1.6.4.7.5 1.5.5 2.5s-.1 1.9-.5 2.6c-.3.7-.8 1.3-1.4 1.6-.6.4-1.2.6-1.8.6a3.2 3.2 0 0 1-2.7-1.4v4.4h-1.5v-12.2zm5.7 7.1c.5-.5.8-1.4.8-2.6 0-1.1-.2-2-.7-2.6-.4-.6-1-.9-1.8-.9s-1.4.3-1.8 1c-.5.6-.7 1.5-.7 2.8 0 1 .2 1.8.7 2.3.4.6 1 .8 1.7.8s1.3-.2 1.8-.8zM394.2 123.7c-.8-.8-1.2-2-1.2-3.4 0-1 .2-1.8.6-2.5a4 4 0 0 1 3.5-2.2c1.1 0 2 .3 2.7 1 .6.8 1 1.8 1 3.2v.7h-6.4c0 1 .3 2 .9 2.5.6.5 1.3.8 2.1.8a3 3 0 0 0 2.3-1l.8.8c-.7.9-1.8 1.3-3.1 1.3s-2.4-.4-3.2-1.2zm5.1-4.3a3 3 0 0 0-.6-2c-.4-.5-1-.7-1.7-.7-.6 0-1.2.2-1.7.6-.5.5-.8 1.2-.9 2h5zM412.5 117.4v-1.2h8v1.2h-8zm0 3v-1.2h8v1.2h-8z"/><path fill="#235399" d="M432.3 124.8v-12.3h8v2h-5.8v3h4.8v1.9h-4.8v3.5h5.7v1.8h-7.9zM442.2 115.6h2.2v1a3.4 3.4 0 0 1 2.6-1.2c.9 0 1.6.3 2 1 .6.5.9 1.5.9 2.8v5.6h-2.2v-5.6c0-.7-.2-1.2-.4-1.5-.3-.3-.6-.5-1.1-.5a2 2 0 0 0-.9.2 1.5 1.5 0 0 0-.9 1.5v5.9h-2.2v-9.2zM459.7 125.1c0 .6-.2 1-.5 1.5s-.8.9-1.4 1.1c-.7.3-1.5.4-2.4.4-1.2 0-2-.2-2.7-.6-.6-.4-.9-.9-.9-1.6 0-.4.1-.7.3-1 .2-.4.4-.6.8-.9-.6-.3-.9-.7-.9-1.4l.3-1 .8-.7a3.3 3.3 0 0 1-1.1-2.4c0-.6.2-1.1.5-1.6a3.4 3.4 0 0 1 4-1.5l1 .6 1-.5a4.9 4.9 0 0 1 1.6-.1l.2 1.7a4.2 4.2 0 0 0-2 0 3.2 3.2 0 0 1 0 3 3.3 3.3 0 0 1-3 1.7c-.4 0-.9-.1-1.3-.3l-.2.3v.2c0 .3.2.4.6.6l2.3.2c2 0 3 .7 3 2.3zm-2.6 1.1c.4-.2.6-.5.6-.8 0-.2 0-.4-.2-.5l-.4-.3a4 4 0 0 0-1 0c-.8 0-1.5 0-2-.2l-.4.5-.1.5c0 .4.2.7.5.8.4.2 1 .3 1.6.3a3 3 0 0 0 1.4-.3zm-2.4-9c-.3.2-.4.3-.5.6-.2.2-.2.5-.2.7l.2.8c0 .2.2.4.5.5l.7.2c.2 0 .4 0 .7-.2l.5-.5.1-.8-.1-.7-.5-.6a1.3 1.3 0 0 0-1.4 0zM462 124.8V123h2.4v-9.8H462v-1.7h4.6V123h2.5v1.8H462zM472.1 124.8V123h2.2v-5.6h-2v-1.8h4.2v7.4h2v1.7h-6.4zm2.5-11c-.2 0-.4-.2-.5-.4l-.2-.7c0-.3.2-.7.4-.9.3-.2.6-.4 1-.4.2 0 .5 0 .7.2l.5.5a1.2 1.2 0 0 1 0 1.3l-.5.4a1.4 1.4 0 0 1-1.4 0zM487.1 119.6l.7.4c.5.2.7.5.9.8a2.6 2.6 0 0 1-.2 2.7c-.3.5-.7.9-1.3 1.1a4 4 0 0 1-1.8.5 7 7 0 0 1-2.4-.4c-.7-.2-1.3-.6-1.9-1.2l1-1.6c.4.5.9.8 1.4 1 .5.3 1.2.4 1.9.4 1 0 1.6-.3 1.6-1l-.2-.6-.6-.4-1.2-.4c-1-.3-1.9-.6-2.4-1a2 2 0 0 1-1-1.8 2.8 2.8 0 0 1 1.7-2.4c.6-.2 1.2-.3 1.9-.3s1.4.1 2 .4 1 .5 1.6 1l-1.1 1.6-1-1a3 3 0 0 0-1.5-.2c-.3 0-.7 0-1 .2-.2.1-.3.3-.3.5s0 .4.2.6l.6.4 1.3.4 1.1.3zm-5.1 2.2zm.3.1h-.1-.1v-.1h.2v.1zm5.1-3.5h.2v.1l-.2-.1zm.3.1v-.1.1zM491.2 111.5h2.3v.3l-.1.2v4.5l1-.8a3 3 0 0 1 1.4-.3c1 0 1.7.3 2.2 1 .6.5.9 1.5.9 2.8v5.5h-2.3v-5.5c0-.7 0-1.2-.3-1.5-.2-.3-.6-.5-1-.5-.3 0-.7.1-1 .3a2 2 0 0 0-.7.8c-.2.3-.2.7-.2 1.2v5.3h-2.2v-13.3z"/><path fill="#4B8AC7" d="M89.7 139.3H91v1.8c.2-.7.5-1.2 1-1.5a3 3 0 0 1 1.7-.5 3.5 3.5 0 0 1 3.3 2c.3.8.5 1.6.5 2.6s-.2 1.9-.6 2.6c-.3.7-.8 1.3-1.4 1.6-.5.4-1.2.6-1.8.6a3.2 3.2 0 0 1-2.7-1.4v4.4h-1.4v-12.2zm5.7 7.1c.5-.5.7-1.4.7-2.6 0-1.1-.2-2-.6-2.6-.5-.6-1-.9-1.9-.9-.7 0-1.3.3-1.8 1-.5.6-.7 1.5-.7 2.8 0 1 .3 1.8.7 2.3.4.6 1 .8 1.8.8.7 0 1.3-.2 1.8-.8zM106.6 141.2a4 4 0 0 0-1-.7l-.8-.2c-.5 0-1 .1-1.3.4-.4.2-.8.5-1 1-.3.5-.4 1.1-.4 1.8v4.8h-1.5v-9h1.5v1.6c.2-.5.6-1 1.1-1.3.5-.3 1-.5 1.7-.5 1 0 1.7.3 2.4 1l-.7 1zm-.2 0h.2v.1h-.2zm.3 0h-.1.1zM110.9 147.8a4 4 0 0 1-1.5-1.6c-.4-.7-.5-1.5-.5-2.4s.1-1.7.5-2.4a3.9 3.9 0 0 1 3.6-2.3 3.9 3.9 0 0 1 3.6 2.3c.3.7.5 1.5.5 2.4s-.2 1.7-.5 2.4a4 4 0 0 1-3.6 2.2 4 4 0 0 1-2.1-.6zm3.4-1a3 3 0 0 0 1-1.3c.2-.5.3-1 .3-1.8a4 4 0 0 0-.7-2.4c-.5-.7-1.1-1-2-1s-1.3.3-1.8 1a4 4 0 0 0-.8 2.4c0 .7.2 1.3.4 1.8.2.6.5 1 1 1.3.3.3.8.4 1.3.4s1-.1 1.3-.4zM119 139.3h1.5v1.8c.2-.7.5-1.2 1-1.5a3 3 0 0 1 1.7-.5 3.5 3.5 0 0 1 3.2 2c.4.8.6 1.6.6 2.6s-.2 1.9-.6 2.6c-.3.7-.8 1.3-1.4 1.6s-1.2.6-1.8.6a3.2 3.2 0 0 1-2.7-1.4v4.4h-1.4v-12.2zm5.7 7.1c.5-.5.8-1.4.8-2.6 0-1.1-.2-2-.7-2.6-.4-.6-1-.9-1.8-.9-.7 0-1.4.3-1.8 1-.5.6-.7 1.5-.7 2.8 0 1 .2 1.8.7 2.3.4.6 1 .8 1.7.8.8 0 1.4-.2 1.8-.8zM129.8 147.2c-.8-.8-1.2-2-1.2-3.4 0-1 .2-1.8.6-2.5a4 4 0 0 1 1.5-1.7 4 4 0 0 1 2-.5c1.1 0 2 .3 2.7 1 .7.8 1 1.8 1 3.2v.7H130c0 1 .3 2 1 2.5.5.5 1.2.8 2 .8a3 3 0 0 0 2.4-1l.7.8c-.7.9-1.8 1.3-3.1 1.3s-2.4-.4-3.2-1.2zm5.2-4.3a3 3 0 0 0-.7-2c-.4-.5-1-.7-1.6-.7-.7 0-1.3.2-1.8.6-.4.5-.7 1.2-.9 2h5zM145.8 141.2a4 4 0 0 0-1-.7l-.8-.2c-.5 0-1 .1-1.4.4-.4.2-.7.5-1 1-.2.5-.4 1.1-.4 1.8v4.8h-1.4v-9h1.5v1.6c.2-.5.6-1 1-1.3.6-.3 1.2-.5 1.8-.5 1 0 1.7.3 2.3 1l-.6 1zm-.2 0h.2v.1h-.2zm.3 0h-.1c.1 0 .1 0 0 0zM156 147.4c-1 .7-1.9 1-2.9 1s-1.7-.3-2-1c-.5-.5-.7-1.5-.7-2.8v-1.2l.2-3h-2v-1.1h2l.2-2.4 1.6-.2h.2l-.2.4v.4l-.3 1.8h3v1.2h-3l-.3 3v1c0 1 .1 1.8.4 2.2.2.3.6.5 1.1.5.4 0 .8 0 1.1-.2l1.1-.7.5 1.1zM165.7 139.3l-.3 1.6c-.1.6-.4 1.2-.7 2l-2.3 6.4a4 4 0 0 1-1.1 1.8c-.5.4-1.1.6-1.8.6-.8 0-1.5-.3-2-.8l.6-1 .7.5.8.1c.5 0 .9-.2 1.2-.5.3-.3.5-1 .8-1.7l-3.6-9h1.4l2.8 7.2 1.2-3.6a82.8 82.8 0 0 0 1-3.6h1.3zm-7.6 10.5v.1zm.2 0v.1h-.2l.1-.1h.1z"/><path fill="#1E4885" d="M185.3 137.5l-1-.7-1-.2c-.6 0-1 .2-1.3.6-.4.3-.5.8-.5 1.5v.4h2.8v1.8h-2.8v7.4h-2.1v-7.4h-2V139h2v-.3c0-.9.1-1.6.5-2.1.3-.6.8-1 1.3-1.4a4 4 0 0 1 2-.4c1.1 0 2.1.4 3 1.2l-1 1.4zm-.3 0l.2.1h-.2zm.4.2h-.2v-.1h.2zM188.2 148.3v-1.8h2.2v-5.6h-2.1V139h4.3v7.4h2v1.8h-6.4zm2.4-11c-.2 0-.3-.2-.5-.4l-.1-.7c0-.3 0-.7.3-.9.3-.2.6-.4 1-.4.3 0 .5 0 .7.2l.5.5a1.2 1.2 0 0 1 0 1.3l-.5.4c-.2.2-.4.2-.7.2-.2 0-.5 0-.7-.2zM204.4 141.9c-.2-.4-.5-.7-.8-.9l-1-.2c-.4 0-.8 0-1.2.3-.4.2-.7.5-.9 1a3 3 0 0 0-.3 1.4v4.8H198V139h2.2v1.3c.3-.5.6-.8 1-1 .6-.4 1-.5 1.7-.5a3.8 3.8 0 0 1 2.5 1l-1 2zm-.3 0h.2v.1h-.1v-.1zm.3 0v.1-.1zM213 143.1s.1.2.6.4l1 .8.2 1.2c0 .6-.1 1-.5 1.5-.3.5-.7.9-1.3 1.1a4 4 0 0 1-1.8.5 7 7 0 0 1-2.4-.4c-.7-.2-1.3-.6-1.9-1.2l1-1.6c.4.5.9.8 1.4 1 .5.3 1.2.4 2 .4 1 0 1.5-.3 1.5-1 0-.2 0-.4-.2-.6l-.6-.4-1.2-.4c-1-.3-1.8-.6-2.4-1a2 2 0 0 1-.9-1.8c0-.5.1-1 .4-1.4.3-.4.7-.7 1.3-1 .5-.2 1.1-.3 1.8-.3s1.4.1 2 .4a5 5 0 0 1 1.6 1l-1.1 1.6-1-1a3 3 0 0 0-1.4-.2c-.4 0-.8 0-1 .2-.3.1-.4.3-.4.5s0 .4.2.6l.7.4a13.8 13.8 0 0 0 2.3.7zm-5.2 2.2zm.3.1h-.2v-.1h.2v.1zm5.1-3.5h.2v.1l-.2-.1zm.4.1h-.2v-.1l.2.1zM224.7 147.4c-.5.4-1 .7-1.5.8-.5.2-1 .3-1.6.3-1 0-1.7-.3-2.2-.8-.5-.6-.8-1.5-.8-3v-1l.2-2.8h-2l.1-1.8h2l.2-2.1 2.4-.4V136.9l-.2.3v.3l-.2 1.6h2.8v1.8H221l-.2 2.6v1c0 .9 0 1.4.2 1.8s.5.4 1 .4c.3 0 .7 0 1-.2.4-.1.7-.4 1.1-.8l.5 1.7zM226.2 136h2.7l3.9 8.8V136h2.1v.3l-.1.2v11.8h-2.5l-4.1-9.3v9.3h-2V136zM243 139.7c.7.6 1 1.6 1 3v5.6h-2v-.9c-.4.4-.8.6-1.3.8-.5.2-1 .3-1.6.3-1 0-1.7-.2-2.2-.7-.5-.5-.7-1.1-.7-2 0-.6.2-1.1.6-1.6.4-.4 1-.8 1.8-1 .7-.3 1.7-.4 2.7-.4h.7c0-.8-.2-1.4-.6-1.7-.3-.3-.8-.5-1.5-.5a3 3 0 0 0-1.3.3c-.4.2-.8.5-1.2 1l-1.1-1.5c.5-.5 1.2-1 1.8-1.2.7-.3 1.3-.4 2-.4 1.2 0 2.1.3 2.9 1zm-1.7 6.5c.4-.4.6-1 .7-2h-.4c-1.1 0-2 .2-2.5.4-.5.3-.8.7-.8 1.2 0 .3.2.6.4.8l1.1.2a2 2 0 0 0 1.5-.6zM245.8 139h1.9v.6l.7-.7.9-.2.9.3c.3.1.5.4.7.8.2-.4.5-.6.7-.8a2 2 0 0 1 1.1-.3c.7 0 1.2.2 1.4.7.3.4.4 1.1.4 2v6.9h-2v-6.4l-.1-1.1c-.1-.3-.3-.4-.5-.4-.5 0-.7.6-.7 1.8v6h-2V142c0-.6 0-1-.2-1.2-.1-.3-.2-.4-.4-.4-.3 0-.5.2-.6.4-.2.3-.2.7-.2 1.4v6h-2V139zM258 148c-.8-.4-1.3-1-1.7-1.7-.4-.7-.6-1.5-.6-2.5s.2-1.8.6-2.6a4 4 0 0 1 3.7-2.3c.8 0 1.4.2 2 .5.6.4 1 .9 1.4 1.5a5.3 5.3 0 0 1 .5 3.1v.3h-6c0 .8.3 1.5.8 1.9.4.4.9.6 1.5.6a3 3 0 0 0 2.3-1l1.2 1.1c-.9 1.1-2 1.7-3.4 1.7-1 0-1.7-.2-2.4-.6zm3.7-5.3c0-.4 0-.7-.2-1-.1-.4-.4-.7-.6-.9l-1-.2c-.5 0-1 .1-1.3.5-.4.4-.6 1-.7 1.6h3.8z"/><path fill="#4B8AC7" d="M268.6 141.9a1 1 0 0 1 0-1.6c.2-.2.5-.3.8-.3s.6 0 .8.3a1 1 0 0 1 0 1.6 1.2 1.2 0 0 1-1.6 0zm0 6.2a1 1 0 0 1-.3-.7c0-.4 0-.6.3-.9.2-.2.5-.3.8-.3s.6.1.8.4c.3.2.4.4.4.8 0 .3-.1.5-.3.7-.3.3-.6.4-.9.4s-.6-.1-.8-.4z"/><path fill="#235399" d="M291.4 141.8l.7.5c.5.4.8.8 1 1.2.2.4.3.9.3 1.4 0 .6-.2 1.2-.5 1.8-.3.6-.8 1-1.4 1.4-.7.3-1.5.5-2.5.5-1.6 0-3-.6-4.1-1.7l1-1.7c1 1 2 1.5 3.3 1.5.6 0 1-.1 1.4-.4.4-.3.5-.7.5-1.3 0-.3 0-.5-.2-.8l-.7-.7c-.4-.2-.8-.5-1.5-.7-1.1-.5-2-1-2.4-1.7-.5-.6-.8-1.3-.8-2.1 0-.6.2-1.2.5-1.7a4.3 4.3 0 0 1 3.3-1.6 5 5 0 0 1 2 .4c.7.3 1.2.7 1.8 1.3l-1.1 1.5c-.3-.5-.7-.8-1.2-1-.5-.2-1-.4-1.5-.4a2 2 0 0 0-1 .2l-.5.5c-.2.2-.2.4-.2.7 0 .3 0 .5.2.8l.8.6 1.6.9 1.2.6zm-5.6 3.3h.1v.1h-.1zm.3.1h-.2v-.1l.2.1zm5.6-6.3h.1l.1.1h-.2v-.1zm.3.2v-.2.2zM303 147.4c-.4.4-1 .7-1.4.8-.5.2-1.1.3-1.7.3-1 0-1.7-.3-2.2-.8-.5-.6-.7-1.5-.7-3v-1l.2-2.8h-2V139h2l.2-2.1 2.4-.4V136.9a1 1 0 0 0-.2.6l-.2 1.6h2.8v1.8h-2.8l-.2 2.6v1c0 .9 0 1.4.2 1.8s.5.4 1 .4c.4 0 .7 0 1-.2.4-.1.8-.4 1.2-.8l.5 1.7zM312.1 141.9c-.2-.4-.5-.7-.8-.9l-1-.2c-.4 0-.8 0-1.2.3-.4.2-.7.5-.9 1a3 3 0 0 0-.3 1.4v4.8h-2.2V139h2.2v1.3c.3-.5.6-.8 1-1 .6-.4 1-.5 1.7-.5a3.9 3.9 0 0 1 2.5 1l-1 2zm-.2 0h.2v.1h-.2v-.1zm.2 0v.1-.1zM315.5 148.3v-1.8h2.2v-5.6h-2.1V139h4.3v7.4h2v1.8h-6.4zm2.4-11c-.2 0-.3-.2-.5-.4l-.1-.7c0-.3 0-.7.3-.9.3-.2.6-.4 1-.4.3 0 .5 0 .7.2l.5.5a1.2 1.2 0 0 1 0 1.3l-.5.4c-.2.2-.4.2-.7.2-.2 0-.5 0-.7-.2zM324.7 139.1h2.2v1a3.4 3.4 0 0 1 2.6-1.2c.9 0 1.6.3 2 1 .6.5.9 1.5.9 2.8v5.6h-2.2v-5.6c0-.7-.2-1.2-.4-1.5-.3-.3-.6-.5-1.1-.5a2 2 0 0 0-1 .2 1.5 1.5 0 0 0-.8 1.5v5.9h-2.2V139zM342.2 148.6c0 .6-.2 1-.5 1.5s-.8.9-1.4 1.1c-.7.3-1.5.4-2.4.4-1.2 0-2.1-.2-2.7-.6-.6-.4-.9-.9-.9-1.6 0-.4.1-.7.3-1 .2-.4.4-.6.8-.9-.6-.3-.9-.7-.9-1.4l.3-.9.8-.8a3.3 3.3 0 0 1-1.1-2.4c0-.6.2-1.1.5-1.6a3.3 3.3 0 0 1 2.8-1.6 3.3 3.3 0 0 1 2.1.7l1.1-.5a4.9 4.9 0 0 1 1.6-.1l.2 1.7a4.2 4.2 0 0 0-2 0 3.2 3.2 0 0 1 0 3 3.3 3.3 0 0 1-3 1.7c-.4 0-.9-.1-1.3-.3l-.2.3v.2c0 .3.2.4.6.6l2.3.2c2 0 3 .7 3 2.3zm-2.6 1.1c.4-.2.6-.5.6-.8 0-.2 0-.4-.2-.5l-.4-.3a4 4 0 0 0-1 0c-.9 0-1.5 0-2-.2l-.4.5-.1.5c0 .4.2.7.5.8.4.2 1 .3 1.6.3a3 3 0 0 0 1.4-.3zm-2.4-9l-.6.6-.1.7.1.8c.2.2.3.4.6.5l.6.2c.3 0 .5 0 .8-.2l.5-.5.1-.8-.1-.7-.5-.6a1.3 1.3 0 0 0-1.4 0z"/><path fill="#4B8AC7" d="M89.7 162.8H91v1.8c.2-.7.5-1.2 1-1.5a3 3 0 0 1 1.7-.5c.7 0 1.3.2 2 .5.5.4 1 .9 1.3 1.6s.5 1.5.5 2.5-.2 1.9-.6 2.6c-.3.7-.8 1.3-1.4 1.6-.5.4-1.2.6-1.8.6a3.2 3.2 0 0 1-2.7-1.4v4.4h-1.4v-12.2zm5.7 7.1c.5-.5.7-1.4.7-2.6 0-1.1-.2-2-.6-2.6-.5-.6-1-.9-1.9-.9-.7 0-1.3.3-1.8 1-.5.6-.7 1.5-.7 2.8 0 1 .3 1.8.7 2.3.4.6 1 .8 1.8.8.7 0 1.3-.2 1.8-.8zM106.6 164.7a4 4 0 0 0-1-.7l-.8-.2c-.5 0-1 .1-1.3.4-.4.2-.8.5-1 1-.3.5-.4 1.1-.4 1.8v4.8h-1.5v-9h1.5v1.6c.2-.5.6-1 1.1-1.3.5-.3 1-.5 1.7-.5 1 0 1.7.3 2.4 1l-.7 1zm-.2 0h.2v.1h-.2zm.3 0h-.1.1zM110.9 171.3a4 4 0 0 1-1.5-1.6c-.4-.7-.5-1.5-.5-2.4s.1-1.7.5-2.4a3.9 3.9 0 0 1 3.6-2.3 3.9 3.9 0 0 1 3.6 2.3c.3.7.5 1.5.5 2.4s-.2 1.7-.5 2.4a4 4 0 0 1-3.6 2.2 4 4 0 0 1-2.1-.6zm3.4-1a3 3 0 0 0 1-1.3c.2-.5.3-1 .3-1.8a4 4 0 0 0-.7-2.4c-.5-.7-1.1-1-2-1s-1.3.3-1.8 1a4 4 0 0 0-.8 2.4c0 .7.2 1.3.4 1.8.2.6.5 1 1 1.3.3.3.8.4 1.3.4s1-.1 1.3-.4zM119 162.8h1.5v1.8c.2-.7.5-1.2 1-1.5a3 3 0 0 1 1.7-.5c.7 0 1.3.2 1.9.5.5.4 1 .9 1.3 1.6s.6 1.5.6 2.5-.2 1.9-.6 2.6c-.3.7-.8 1.3-1.4 1.6s-1.2.6-1.8.6a3.2 3.2 0 0 1-2.7-1.4v4.4h-1.4v-12.2zm5.7 7.1c.5-.5.8-1.4.8-2.6 0-1.1-.2-2-.7-2.6-.4-.6-1-.9-1.8-.9-.7 0-1.4.3-1.8 1-.5.6-.7 1.5-.7 2.8 0 1 .2 1.8.7 2.3.4.6 1 .8 1.7.8.8 0 1.4-.2 1.8-.8zM129.8 170.7c-.8-.8-1.2-2-1.2-3.4 0-1 .2-1.8.6-2.5a4 4 0 0 1 3.5-2.2c1.1 0 2 .3 2.7 1 .7.8 1 1.8 1 3.2v.7H130c0 1 .3 2 1 2.5.5.5 1.2.8 2 .8a3 3 0 0 0 2.4-1l.7.8c-.7.9-1.8 1.3-3.1 1.3s-2.4-.4-3.2-1.2zm5.2-4.3a3 3 0 0 0-.7-2c-.4-.5-1-.7-1.6-.7-.7 0-1.3.2-1.8.7-.4.4-.7 1-.9 2h5zM145.8 164.7a4 4 0 0 0-1-.7l-.8-.2c-.5 0-1 .1-1.4.4-.4.2-.7.5-1 1-.2.5-.4 1.1-.4 1.8v4.8h-1.4v-9h1.5v1.6c.2-.5.6-1 1-1.3.6-.3 1.2-.5 1.8-.5 1 0 1.7.3 2.3 1l-.6 1zm-.2 0h.2v.1h-.2zm.3 0h-.1c.1 0 .1 0 0 0zM156 171c-1 .6-1.9.9-2.9.9s-1.7-.3-2-1c-.5-.5-.7-1.5-.7-2.8v-1.2l.2-3h-2v-1h2l.2-2.5 1.6-.2h.2l-.2.4v.4l-.3 1.8h3v1.2h-3l-.3 3v1c0 1 .1 1.8.4 2.2.2.3.6.5 1.1.5.4 0 .8 0 1.1-.2a6 6 0 0 0 1.1-.7l.5 1.1zM165.7 162.8l-.3 1.6-.7 2-2.3 6.4a4 4 0 0 1-1.1 1.8c-.5.4-1.1.6-1.8.6-.8 0-1.5-.3-2-.8l.6-1 .7.5.8.1c.5 0 .9-.2 1.2-.5.3-.3.5-.9.8-1.7l-3.6-9h1.4l2.8 7.2 1.2-3.6a85 85 0 0 0 1-3.6h1.3zm-7.6 10.5v.1zm.2 0v.1h-.2l.1-.1h.1z"/><path fill="#1E4885" d="M178 171.8V170h2.5v-9.9H178v-1.7h4.6v11.6h2.5v1.7h-7.3zM194 163.2c.7.6 1 1.6 1 3v5.6h-2v-.9a4.2 4.2 0 0 1-2.9 1c-1 0-1.6-.1-2.1-.6s-.8-1.1-.8-2c0-.6.2-1.1.6-1.6.4-.4 1-.8 1.8-1 .8-.3 1.7-.4 2.8-.4h.7c-.1-.8-.3-1.4-.6-1.7-.4-.3-.8-.5-1.5-.5a3 3 0 0 0-1.3.3c-.5.2-.9.6-1.3 1l-1-1.5c.5-.5 1.1-1 1.8-1.2.6-.3 1.3-.4 1.9-.4 1.2 0 2.2.3 2.9 1zm-1.6 6.5c.4-.4.6-1 .7-2h-.5c-1.1 0-2 .2-2.4.4-.6.3-.8.7-.8 1.2 0 .3.1.6.4.8l1 .2a2 2 0 0 0 1.6-.6zM203.1 166.6l.7.4 1 .8.2 1.2c0 .6-.1 1-.5 1.5-.3.5-.7.9-1.3 1.1a4 4 0 0 1-1.8.5 7 7 0 0 1-2.4-.4c-.7-.2-1.3-.6-1.9-1.2l1-1.6c.4.5 1 .9 1.4 1 .6.3 1.2.4 2 .4 1 0 1.5-.3 1.5-1 0-.2 0-.4-.2-.6l-.6-.4-1.2-.4c-1-.3-1.8-.6-2.4-1a2 2 0 0 1-.9-1.8c0-.5.2-1 .4-1.4.3-.4.7-.7 1.3-1 .5-.2 1.1-.3 1.8-.3s1.4.1 2 .4a5 5 0 0 1 1.6 1l-1 1.6h-.1l-1-1a3 3 0 0 0-1.4-.2c-.4 0-.7 0-1 .2-.3.1-.4.3-.4.5s0 .4.2.6l.7.4 1.2.4 1.1.3zm-5.1 2.2h.1v.1h-.1zm.3.1h-.2v-.1h.2v.1zm5.1-3.5h.2v.1l-.2-.1zm.4.1h-.2l.1-.1v.1zM215 171l-1.6.8-1.6.2c-1 0-1.7-.2-2.2-.8-.5-.6-.8-1.5-.8-3v-1l.3-2.8h-2v-1.8h2l.2-2.1 2.4-.4v.2a24.1 24.1 0 0 1-.2.4v.3l-.2 1.6h2.8v1.8h-2.8l-.2 2.6v1c0 .9 0 1.4.2 1.8.2.3.5.4 1 .4.3 0 .7 0 1-.2l1.2-.8.4 1.7zM216.4 159.6h2.7l3.9 8.7v-8.7h2.1v.2l-.1.2v11.8h-2.5l-4-9.3v9.3h-2v-12.2zM233.2 163.2c.7.6 1 1.6 1 3v5.6h-2v-.9a4.2 4.2 0 0 1-2.9 1c-1 0-1.7-.1-2.2-.6-.5-.5-.7-1.1-.7-2 0-.6.2-1.1.6-1.6.4-.4 1-.8 1.8-1 .7-.3 1.7-.4 2.8-.4h.6c0-.8-.2-1.4-.6-1.7-.3-.3-.8-.5-1.4-.5a3 3 0 0 0-1.4.3c-.4.2-.8.6-1.2 1l-1.1-1.5c.5-.5 1.2-1 1.8-1.2.7-.3 1.3-.4 2-.4 1.2 0 2.1.3 2.9 1zm-1.7 6.5c.4-.4.6-1 .7-2h-.4c-1.1 0-2 .2-2.5.4-.5.3-.7.7-.7 1.2 0 .3 0 .6.3.8l1.1.2a2 2 0 0 0 1.5-.6zM236 162.5h1.9v.6l.7-.7.9-.2.9.3c.3.1.5.4.7.8.2-.4.5-.6.8-.8a2 2 0 0 1 1-.3c.7 0 1.2.2 1.4.7.3.4.5 1.1.5 2v6.9h-2v-6.4l-.2-1.1c-.1-.1-.3-.4-.5-.4-.5 0-.7.6-.7 1.8v6h-2v-6.2c0-.6 0-1-.2-1.2-.1-.3-.2-.4-.4-.4-.3 0-.5.2-.6.4l-.2 1.4v6h-2v-9.2zM248.1 171.5c-.7-.4-1.2-1-1.6-1.7-.4-.7-.6-1.5-.6-2.5s.2-1.8.6-2.6a4 4 0 0 1 3.7-2.3c.8 0 1.4.2 2 .5s1 .9 1.4 1.5a5.3 5.3 0 0 1 .5 3.1v.3h-6c0 .8.3 1.5.8 1.9.4.4.9.6 1.5.6a3 3 0 0 0 2.3-1l1.2 1.1c-.9 1.1-2 1.7-3.4 1.7-1 0-1.7-.2-2.4-.6zm3.8-5.3c0-.4 0-.7-.2-1-.1-.4-.3-.7-.6-.9l-1-.2c-.5 0-1 .1-1.3.5s-.6 1-.6 1.6h3.7z"/><path fill="#4B8AC7" d="M258.8 165.4a1 1 0 0 1 0-1.6c.2-.2.5-.3.8-.3s.6 0 .9.3a1 1 0 0 1 0 1.6 1.1 1.1 0 0 1-1.7 0zm0 6.2c-.2-.2-.3-.4-.3-.7s0-.6.3-.9c.2-.2.5-.3.8-.3s.6.1.9.4c.2.2.3.4.3.8 0 .3-.1.5-.3.7-.3.3-.5.4-.9.4-.3 0-.6-.1-.8-.4z"/><path fill="#235399" d="M281.6 165.3l.7.5c.5.4.8.8 1 1.2.2.4.3.9.3 1.4 0 .6-.2 1.2-.5 1.8-.3.6-.8 1-1.4 1.4-.7.3-1.5.5-2.5.5-1.6 0-3-.6-4.1-1.7l1-1.7c1 1 2 1.5 3.3 1.5.6 0 1.1-.1 1.4-.4s.5-.7.5-1.3c0-.3 0-.5-.2-.8l-.7-.7c-.4-.2-.8-.5-1.5-.7-1-.5-2-1-2.4-1.7-.5-.6-.8-1.3-.8-2.1 0-.6.2-1.2.5-1.7a4.3 4.3 0 0 1 3.3-1.6 5 5 0 0 1 2.1.4c.6.3 1.2.7 1.7 1.3l-1.1 1.5c-.3-.5-.7-.8-1.2-1-.4-.2-1-.4-1.5-.4l-1 .2-.5.5-.2.7c0 .3 0 .5.2.8l.8.6 1.6.9 1.2.6zm-5.6 3.3h.1v.1h-.1zm.3.1h-.2v-.1l.2.1zm5.6-6.3h.1l.1.1h-.2v-.1zm.3.2v-.2.2zM293.3 171l-1.5.8-1.7.2c-1 0-1.7-.2-2.2-.8-.5-.6-.7-1.5-.7-3v-1l.2-2.8h-2v-1.8h2l.2-2.1 2.4-.4V160.4l-.2.3v.3l-.2 1.6h2.9v1.8h-2.9l-.2 2.6v1c0 .9 0 1.4.2 1.8.2.3.6.4 1 .4s.7 0 1-.2c.4-.1.8-.4 1.2-.8l.5 1.7zM302.3 165.4c-.2-.4-.5-.7-.8-.9l-1-.2c-.4 0-.8 0-1.2.3-.4.2-.7.5-.9 1a3 3 0 0 0-.3 1.4v4.8h-2.2v-9.2h2.2v1.3c.3-.4.6-.8 1.1-1 .5-.4 1-.5 1.6-.5a3.8 3.8 0 0 1 2.5 1l-1 2zm-.2 0h.2v.1h-.2v-.1zm.2 0l.1.1h-.1v-.1zM305.7 171.8V170h2.2v-5.6h-2.1v-1.8h4.3v7.4h2v1.8h-6.4zm2.4-11c-.2 0-.3-.2-.5-.4l-.1-.7c0-.3 0-.7.3-.9.3-.2.6-.4 1-.4.3 0 .5 0 .7.2l.5.5.2.6-.2.7a1.4 1.4 0 0 1-1.9.4zM314.9 162.6h2.2v1a3.4 3.4 0 0 1 2.6-1.2c.9 0 1.6.3 2.1 1 .5.6.8 1.5.8 2.8v5.6h-2.2v-5.6c0-.7-.1-1.2-.4-1.5-.3-.3-.6-.5-1.1-.5a2 2 0 0 0-.9.2c-.3.1-.5.3-.6.6-.2.2-.3.5-.3.9v5.9H315v-9.2zM332.4 172.1c0 .6-.2 1-.5 1.5s-.8.9-1.4 1.1c-.7.3-1.5.4-2.4.4-1.2 0-2-.2-2.7-.6-.6-.4-.9-.9-.9-1.6 0-.4.1-.7.3-1 .2-.4.4-.6.8-.9-.6-.3-.9-.7-.9-1.4l.3-.9.8-.8a3.3 3.3 0 0 1-1-2.4c0-.6 0-1.1.4-1.6a3.3 3.3 0 0 1 2.9-1.6 3.3 3.3 0 0 1 2 .7 4.5 4.5 0 0 1 2.4-.6h.3l.2 1.7a4.4 4.4 0 0 0-2 0 3.2 3.2 0 0 1 0 3 3.3 3.3 0 0 1-3 1.7c-.4 0-.9-.1-1.3-.3l-.2.3v.2c0 .3.2.4.7.6l2.2.2c2 0 3 .7 3 2.3zm-2.6 1.1c.4-.2.6-.5.6-.8 0-.2 0-.4-.2-.5l-.4-.3a4 4 0 0 0-1 0c-.8 0-1.5 0-2-.2l-.4.5-.1.5c0 .4.2.7.5.8.4.2 1 .3 1.6.3a3 3 0 0 0 1.4-.3zm-2.4-9l-.5.6-.2.7a1.5 1.5 0 0 0 .7 1.3l.7.2c.2 0 .4 0 .7-.2l.5-.5.2-.8a1.5 1.5 0 0 0-.7-1.3 1.3 1.3 0 0 0-1.4 0z"/><path fill="#4B8AC7" d="M89.7 186.3H91v1.8c.2-.7.5-1.2 1-1.5a3 3 0 0 1 1.7-.5c.7 0 1.3.2 2 .5.5.4 1 .9 1.3 1.6.3.7.5 1.5.5 2.5s-.2 1.9-.6 2.6c-.3.7-.8 1.3-1.4 1.6-.5.4-1.2.6-1.8.6a3.2 3.2 0 0 1-2.7-1.4v4.4h-1.4v-12.2zm5.7 7.1c.5-.5.7-1.4.7-2.6 0-1.1-.2-2-.6-2.6-.5-.6-1-.9-1.9-.9-.7 0-1.3.3-1.8 1-.5.6-.7 1.5-.7 2.8 0 1 .3 1.8.7 2.3.4.6 1 .8 1.8.8.7 0 1.3-.2 1.8-.8zM106.6 188.2a4 4 0 0 0-1-.7l-.8-.2a2.7 2.7 0 0 0-2.3 1.4c-.3.5-.4 1.1-.4 1.8v4.8h-1.5v-9h1.5v1.7c.2-.6.6-1 1.1-1.4.5-.3 1-.5 1.7-.5 1 0 1.7.3 2.4 1l-.7 1zm-.2 0h.2v.1h-.2zm.3 0h-.1c.1 0 .2.1.1 0zM110.9 194.8a4 4 0 0 1-1.5-1.6c-.4-.7-.5-1.5-.5-2.4s.1-1.7.5-2.4a4 4 0 0 1 3.6-2.3 4 4 0 0 1 3.6 2.3c.3.7.5 1.5.5 2.4s-.2 1.7-.5 2.4a4 4 0 0 1-3.6 2.2 4 4 0 0 1-2.1-.6zm3.4-1a3 3 0 0 0 1-1.3c.2-.5.3-1 .3-1.7a4 4 0 0 0-.7-2.5c-.5-.7-1.1-1-2-1s-1.3.3-1.8 1a4 4 0 0 0-.8 2.4c0 .7.2 1.3.4 1.8.2.6.5 1 1 1.3.3.3.8.4 1.3.4s1-.1 1.3-.4zM119 186.3h1.5v1.8c.2-.7.5-1.2 1-1.5a3 3 0 0 1 1.7-.5c.7 0 1.3.2 1.9.5.5.4 1 .9 1.3 1.6.4.7.6 1.5.6 2.5s-.2 1.9-.6 2.6c-.3.7-.8 1.3-1.4 1.6s-1.2.6-1.8.6a3.2 3.2 0 0 1-2.7-1.4v4.4h-1.4v-12.2zm5.7 7.1c.5-.5.8-1.4.8-2.6 0-1.1-.2-2-.7-2.6-.4-.6-1-.9-1.8-.9-.7 0-1.4.3-1.8 1-.5.6-.7 1.5-.7 2.8 0 1 .2 1.8.7 2.3.4.6 1 .8 1.7.8.8 0 1.4-.2 1.8-.8zM129.8 194.2c-.8-.8-1.2-2-1.2-3.4 0-1 .2-1.8.6-2.5a4 4 0 0 1 3.5-2.2c1.1 0 2 .3 2.7 1 .7.8 1 1.8 1 3.2v.7H130c0 1 .3 2 1 2.5.5.5 1.2.8 2 .8a3 3 0 0 0 2.4-1l.7.8c-.7.9-1.8 1.3-3.1 1.3s-2.4-.4-3.2-1.2zm5.2-4.3a3 3 0 0 0-.7-2c-.4-.5-1-.7-1.6-.7-.7 0-1.3.2-1.8.7-.4.4-.7 1-.9 2h5zM145.8 188.2a4 4 0 0 0-1-.7l-.8-.2a2.7 2.7 0 0 0-2.4 1.4c-.2.5-.4 1.1-.4 1.8v4.8h-1.4v-9h1.5v1.7c.2-.6.6-1 1-1.4.6-.3 1.2-.5 1.8-.5 1 0 1.7.3 2.3 1l-.6 1zm-.2 0h.2v.1h-.2zm.3 0h-.1c.1 0 .1.1 0 0zM156 194.4c-1 .7-1.9 1-2.9 1s-1.7-.3-2-1c-.5-.5-.7-1.5-.7-2.8v-1.2l.2-3h-2v-1h2l.2-2.5 1.6-.2h.2l-.2.4v.4l-.3 1.8h3v1.2h-3l-.3 3v1c0 1 .1 1.8.4 2.2.2.3.6.5 1.1.5.4 0 .8 0 1.1-.2a6 6 0 0 0 1.1-.7l.5 1.1zM165.7 186.3l-.3 1.6-.7 2-2.3 6.4a4 4 0 0 1-1.1 1.8c-.5.4-1.1.6-1.8.6-.8 0-1.5-.3-2-.8l.6-1 .7.5.8.1c.5 0 .9-.2 1.2-.5s.5-.9.8-1.7l-3.6-9h1.4l2.8 7.2 1.2-3.6a83.5 83.5 0 0 0 1-3.6h1.3zm-7.6 10.5v.1zm.2 0v.1h-.2l.1-.1h.1z"/><path fill="#1E4885" d="M178.4 195.3v-1.8h2.2v-5.6h-2.1V186h4.3v7.4h2v1.8h-6.4zm2.4-11c-.2 0-.3-.2-.5-.4l-.1-.7c0-.3 0-.7.3-.9.3-.2.6-.4 1-.4.3 0 .5 0 .7.2l.5.5.2.6-.2.7a1.4 1.4 0 0 1-1.9.4zM193.4 190.1l.6.4 1 .8.2 1.3c0 .5-.1 1-.4 1.4s-.8.9-1.3 1.2a4 4 0 0 1-1.9.4 7 7 0 0 1-2.4-.4c-.7-.2-1.3-.6-1.9-1.2l1-1.6c.4.5 1 .9 1.4 1 .6.3 1.2.4 2 .4 1 0 1.5-.3 1.5-1 0-.2 0-.4-.2-.6l-.6-.4-1.2-.4c-1-.3-1.8-.6-2.4-1a2 2 0 0 1-.9-1.8c0-.5.2-1 .4-1.4.3-.4.7-.7 1.3-1 .5-.2 1.1-.3 1.8-.3.8 0 1.4.1 2 .4a5 5 0 0 1 1.6 1l-1 1.6h-.1l-1-1a3 3 0 0 0-1.4-.2c-.4 0-.7 0-1 .2-.3.1-.4.3-.4.5s0 .4.2.6l.7.4 1.2.4 1.2.3zm-5.2 2.2h.1v.1h-.1zm.4.1h-.2v-.1h.1v.1zm5-3.5h.2v.1l-.2-.1zm.4.1h-.1v-.1.1zM196.8 195.3V183h2.3l2 5.7 2.1-5.8h2.3v12.3h-2v-8.9L202 191h-1.5l-1.6-4.6v8.9h-2zM213.6 186.7c.7.6 1 1.6 1 3v5.6h-2v-.9a4.2 4.2 0 0 1-2.9 1c-1 0-1.7-.1-2.2-.6-.5-.5-.7-1.1-.7-2 0-.6.2-1.1.6-1.6.4-.4 1-.8 1.8-1 .8-.3 1.7-.4 2.8-.4h.6c0-.8-.2-1.4-.5-1.7-.4-.3-.9-.5-1.5-.5a3 3 0 0 0-1.3.3c-.5.2-1 .6-1.3 1l-1.1-1.5c.6-.5 1.2-1 1.8-1.2.7-.2 1.3-.4 2-.4 1.2 0 2.2.3 2.9 1zm-1.6 6.5c.3-.4.6-1 .6-2h-.4c-1.1 0-2 .2-2.5.4-.5.3-.7.7-.7 1.2 0 .3.1.6.4.8l1 .2a2 2 0 0 0 1.6-.6zM217.1 195.3v-1.7h2.5v-9.9h-2.4V182h4.6v11.6h2.5v1.7h-7.2zM228.5 195a4 4 0 0 1-1.6-1.7c-.4-.7-.6-1.5-.6-2.5s.2-1.8.6-2.6a4 4 0 0 1 3.7-2.3c.8 0 1.4.2 2 .5.6.4 1 .9 1.4 1.5s.5 1.5.5 2.5V191.3h-6c0 .8.3 1.5.8 1.9.4.4 1 .6 1.5.6a3 3 0 0 0 2.3-1l1.2 1.1c-.9 1.1-2 1.7-3.4 1.7-.9 0-1.7-.2-2.4-.6zm3.9-5.3c0-.4-.1-.7-.3-1-.1-.4-.3-.7-.6-.9l-1-.2c-.5 0-1 .1-1.3.5-.4.4-.6 1-.6 1.6h3.8z"/><path fill="#4B8AC7" d="M239.2 188.9a1 1 0 0 1 0-1.6c.3-.2.5-.3.8-.3s.6 0 .9.3a1 1 0 0 1 0 1.6 1.2 1.2 0 0 1-1.7 0zm0 6.2c-.2-.2-.3-.4-.3-.7s.1-.6.3-.9c.3-.2.5-.3.8-.3s.6.1.9.3a1 1 0 0 1 0 1.6c-.2.3-.5.4-.9.4s-.6-.1-.8-.4z"/><path fill="#235399" d="M255.8 183h3.7c1.4 0 2.5.3 3.2.9.7.6 1 1.3 1 2.3 0 .5-.1 1-.4 1.4-.2.5-.6.9-1 1.1.3.2.7.4 1 .8.2.3.5.6.6 1l.3 1.2c0 1-.4 2-1.2 2.6-.8.6-2 1-3.6 1h-3.6V183zm3.5 4.8c.8 0 1.3-.1 1.7-.4.3-.3.5-.6.5-1 0-.3 0-.6-.2-.8l-.7-.5c-.3-.2-.7-.2-1.1-.2h-1.6v3h1.4zm.3 5.6a3 3 0 0 0 1.7-.4c.4-.3.6-.7.6-1.4 0-.6-.2-1-.6-1.5-.4-.3-1-.5-2-.5H258v3.8h1.7zM267.5 195c-.7-.5-1.2-1-1.6-1.8-.4-.7-.6-1.6-.6-2.5 0-.9.2-1.7.6-2.4.4-.8 1-1.3 1.6-1.8a4 4 0 0 1 2.2-.6 4 4 0 0 1 2.2.6c.6.5 1.2 1 1.5 1.8a5.4 5.4 0 0 1 0 5c-.3.7-.8 1.2-1.5 1.6a4 4 0 0 1-2.2.7 4 4 0 0 1-2.2-.7zm3.3-1.6c.3-.2.6-.6.8-1l.2-1.7c0-.6 0-1.2-.2-1.6-.2-.5-.5-.8-.8-1-.3-.3-.7-.4-1.1-.4-.4 0-.8 0-1.1.3l-.8 1-.2 1.7c0 .6 0 1.2.2 1.6.2.5.4.9.8 1.1.3.3.6.4 1 .4s.9-.1 1.2-.4zM277.3 195c-.7-.5-1.2-1-1.6-1.8-.4-.7-.6-1.6-.6-2.5 0-.9.2-1.7.6-2.4.4-.8 1-1.3 1.6-1.8.7-.4 1.4-.6 2.2-.6s1.5.2 2.2.6c.6.5 1.2 1 1.5 1.8a5.4 5.4 0 0 1 0 5c-.3.7-.9 1.2-1.5 1.6a4 4 0 0 1-2.2.7 4 4 0 0 1-2.2-.7zm3.3-1.6c.3-.2.6-.6.7-1 .2-.5.3-1 .3-1.7 0-.6 0-1.2-.3-1.6-.1-.5-.4-.8-.7-1-.3-.3-.7-.4-1.1-.4-.4 0-.8 0-1.1.3l-.8 1-.2 1.7c0 .6 0 1.2.2 1.6.2.5.4.9.8 1.1.3.3.6.4 1 .4.5 0 .9-.1 1.2-.4zM285.7 195.3v-1.7h2.5v-9.9h-2.4V182h4.6v11.6h2.5v1.7h-7.2zM297 195a4 4 0 0 1-1.5-1.7c-.4-.7-.6-1.5-.6-2.5s.2-1.8.5-2.6a4 4 0 0 1 3.8-2.3c.7 0 1.4.2 2 .5.6.4 1 .9 1.4 1.5a5.3 5.3 0 0 1 .5 3.1v.3h-6c0 .8.3 1.5.7 1.9.4.4 1 .6 1.6.6a3 3 0 0 0 2.3-1l1.2 1.1c-1 1.1-2 1.7-3.5 1.7-.9 0-1.6-.2-2.3-.6zm3.9-5.3c0-.4 0-.7-.2-1-.2-.4-.4-.7-.7-.9l-1-.2c-.5 0-1 .1-1.3.5-.3.4-.5 1-.6 1.6h3.8zM311.5 186.7c.7.6 1 1.6 1 3v5.6h-2v-.9a4.2 4.2 0 0 1-2.9 1c-1 0-1.6-.1-2.1-.6s-.8-1.1-.8-2c0-.6.2-1.1.6-1.6.4-.4 1-.8 1.8-1 .8-.3 1.7-.4 2.8-.4h.7c-.1-.8-.3-1.4-.6-1.7-.4-.3-.8-.5-1.5-.5a3 3 0 0 0-1.3.3c-.5.2-.9.6-1.3 1l-1-1.5c.5-.5 1.1-1 1.8-1.2.6-.2 1.3-.4 2-.4 1.1 0 2 .3 2.8 1zm-1.6 6.5c.4-.4.6-1 .7-2h-.5c-1.1 0-2 .2-2.4.4-.6.3-.8.7-.8 1.2 0 .3.1.6.4.8l1 .2a2 2 0 0 0 1.6-.6zM314.9 186.1h2.2v1a3.5 3.5 0 0 1 2.6-1.2c.9 0 1.6.3 2.1 1 .5.5.8 1.5.8 2.8v5.6h-2.2v-5.6c0-.7-.1-1.2-.4-1.5-.3-.3-.6-.5-1.1-.5a2 2 0 0 0-.9.2 1.5 1.5 0 0 0-.9 1.5v5.9H315V186z"/><path fill="#4B8AC7" d="M328 190.8c0-.6 0-1.1.3-1.5l1-1.3c.5-.4.8-.8 1-1.2.3-.4.4-.8.4-1.4 0-.6-.2-1-.6-1.4-.4-.4-1-.6-1.6-.6a4 4 0 0 0-1.5.3c-.5.2-.7.4-.9.6l-.4.7h.2v.1h-.2l-1-.8c.5-.7 1-1.2 1.6-1.6.6-.3 1.3-.5 2.2-.5 1 0 2 .3 2.6.9.6.5 1 1.2 1 2.2 0 .7-.2 1.3-.5 1.8-.2.4-.6.9-1.1 1.3-.4.5-.8.8-1 1.2-.2.3-.3.7-.3 1.2v.8H328v-.8zm-.2 4.3a1 1 0 0 1-.3-.7c0-.3.1-.6.3-.8.2-.3.5-.4.8-.4.3 0 .6.1.8.4.2.2.3.5.3.8 0 .3 0 .5-.3.7a1.1 1.1 0 0 1-1.6 0zM354.3 189.8v-1.4h7v1.4h-7zM364 189.8v-1.4h7.1v1.4h-7zM390 187.1c.6.7 1 1.8 1 3.4v4.8h-1.5v-1.4c-.6 1-1.6 1.6-3.1 1.6-1 0-1.8-.3-2.3-.7-.6-.5-.9-1-.9-1.8 0-.6.2-1.2.6-1.6.4-.5 1-.9 1.7-1.1.7-.3 1.4-.4 2.2-.4l2 .1c0-1-.3-1.7-.7-2.1-.5-.4-1.2-.6-2-.6a3.3 3.3 0 0 0-2.5 1l-.6-1c.8-.8 1.9-1.2 3.1-1.2 1.3 0 2.3.3 3 1zm-1.2 6.4c.6-.5.9-1.3 1-2.4l-2-.2c-1 0-1.7.2-2.3.5-.6.4-.9.9-.9 1.5 0 1 .7 1.5 2 1.5a3 3 0 0 0 2.2-.9zM393.6 195.3V194h2.6v-10.7h-2.5v-1.2h4v12h2.6v1h-6.7zM403.4 195.3V194h2.6v-10.7h-2.5v-1.2h4v12h2.6v1h-6.7zM414.4 194.8a4 4 0 0 1-1.5-1.6c-.3-.7-.5-1.5-.5-2.4s.2-1.7.5-2.4a4 4 0 0 1 3.6-2.3 3.9 3.9 0 0 1 3.6 2.3c.4.7.6 1.5.6 2.4s-.2 1.7-.6 2.4a4 4 0 0 1-3.6 2.2 4 4 0 0 1-2.1-.6zm3.5-1a3 3 0 0 0 1-1.3c.2-.5.3-1 .3-1.7a4 4 0 0 0-.8-2.5c-.5-.7-1-1-1.9-1s-1.4.3-1.9 1a4 4 0 0 0-.7 2.4c0 .7.1 1.3.3 1.8.3.6.6 1 1 1.3.4.3.8.4 1.3.4s1-.1 1.4-.4zM421.7 186.3h1.3l1.4 7.2 1.6-6.4h.8l2 6.4a214.1 214.1 0 0 0 .7-6.9v-.3h1.4l-1.5 9H428l-1.6-5.8-1.6 5.8h-1.2l-1.9-9zM439.1 191c.5.5.7 1 .7 1.7 0 .8-.3 1.4-1 2-.5.5-1.5.8-2.7.8-1.5 0-2.7-.5-3.8-1.5l.8-1.3c.5.5.9 1 1.3 1.2.5.2 1 .4 1.8.4a3 3 0 0 0 1.6-.4c.5-.3.7-.6.7-1s-.2-.7-.5-1l-1.8-.8c-2.2-.6-3.4-1.5-3.4-2.8 0-.6.3-1.2.9-1.6.6-.4 1.4-.6 2.4-.6.8 0 1.5.1 2 .3.6.3 1.1.6 1.6 1.1l-.8 1c-.3-.4-.7-.7-1.2-1-.5-.2-1-.4-1.5-.4-.6 0-1 .1-1.4.3-.4.2-.6.5-.6.9 0 .3.2.6.6.9l2 .8c1 .3 1.9.7 2.3 1zm-6 1.6zm.3 0h-.2.2zm5.4-4h-.2c0-.1.1-.1.2 0zm.1 0v-.1.1zM458.5 187.1c.7.7 1 1.8 1 3.4v4.8H458v-1.4c-.5 1-1.6 1.6-3 1.6-1 0-1.8-.3-2.4-.7-.5-.5-.8-1-.8-1.8 0-.6.2-1.2.6-1.6.4-.5 1-.9 1.6-1.1.7-.3 1.5-.4 2.3-.4l2 .1c0-1-.4-1.7-.8-2.1-.4-.4-1.1-.6-2-.6a3.3 3.3 0 0 0-2.4 1l-.7-1c.8-.8 1.9-1.2 3.2-1.2 1.3 0 2.2.3 3 1zm-1.1 6.4c.5-.5.8-1.3.9-2.4l-2-.2c-.9 0-1.7.2-2.3.5-.5.4-.8.9-.8 1.5 0 1 .6 1.5 1.9 1.5a3 3 0 0 0 2.3-.9zM471.8 186.3h1.4v1.6c.3-.6.8-1 1.3-1.3.5-.3 1.1-.5 1.7-.5.8 0 1.4.3 2 .9.4.6.6 1.6.6 2.8v5.5h-1.3v-5.4c0-1-.2-1.6-.5-2-.3-.4-.7-.6-1.2-.6-.4 0-.8.1-1.2.4a3 3 0 0 0-1 1c-.3.4-.4.9-.4 1.4v5.2h-1.4v-9zM482.1 195.3V194h2.3v-6.7h-2.1v-1.1h3.5v7.8h2.1v1.2h-5.8zm2.3-11.2a1 1 0 0 1-.3-.7c0-.3 0-.5.2-.7.2-.2.5-.3.8-.3.2 0 .5.1.7.3a1 1 0 0 1 0 1.4 1 1 0 0 1-.7.3 1 1 0 0 1-.7-.3zM491.5 195.3V194h2.7v-10.7h-2.6v-1.2h4v12h2.6v1h-6.7zM91.3 242c-.6-.4-1-1-1.4-1.7-.3-.7-.5-1.6-.5-2.6s.2-1.9.5-2.6a3.6 3.6 0 0 1 3.2-2 3 3 0 0 1 1.6.4c.5.3.8.6 1 1.1v-5.4h1.6v.2l-.2.2v12l.2.7h-1.4a2 2 0 0 1-.2-.7v-.7c-.3.5-.6.9-1 1.1-.5.3-1 .5-1.6.5-.6 0-1.3-.2-1.8-.6zm3.8-1.7a5 5 0 0 0 .6-2.6c0-1-.3-1.9-.7-2.5a2 2 0 0 0-1.8-1 2 2 0 0 0-1.8.9 4 4 0 0 0-.6 2.4c0 1.1.2 2 .6 2.7.5.7 1 1 1.9 1a2 2 0 0 0 1.8-1zM100.4 241.2c-.7-.8-1.1-2-1.1-3.4 0-1 .1-1.8.5-2.5a4 4 0 0 1 3.6-2.2c1 0 2 .4 2.6 1 .7.8 1 1.8 1 3.2v.7h-6.4c0 1 .4 2 1 2.5.5.5 1.2.8 2 .8a3 3 0 0 0 2.4-1l.8.8c-.8.9-1.8 1.4-3.2 1.4-1.3 0-2.4-.5-3.2-1.3zm5.2-4.3a3 3 0 0 0-.7-2c-.4-.5-1-.7-1.6-.7-.7 0-1.2.2-1.7.7-.5.4-.8 1-1 2h5zM116.6 231.4l-1-1a2 2 0 0 0-1-.1 2 2 0 0 0-1.5.5c-.3.4-.5 1-.5 1.8v.7h3v1.1h-3v7.9h-1.3v-7.9h-2v-1h2v-.8c0-1.2.3-2 .9-2.6.5-.6 1.3-.9 2.4-.9a4 4 0 0 1 1.5.3c.5.2 1 .5 1.3 1l-.8 1zm-.2 0h.2l-.1.1h-.1zm.2 0v.1zM125.6 234.1c.7.7 1 1.8 1 3.4v4.8h-1.5v-1.4c-.6 1-1.6 1.6-3 1.6-1 0-1.9-.3-2.4-.7-.6-.5-.9-1-.9-1.8 0-.6.2-1.2.6-1.6.5-.5 1-.9 1.7-1.1.7-.3 1.4-.4 2.2-.4l2 .1c0-1-.3-1.7-.7-2.1-.5-.4-1.1-.6-2-.6a3.3 3.3 0 0 0-2.4 1l-.7-1c.8-.8 1.9-1.2 3.2-1.2 1.2 0 2.2.3 2.9 1zm-1.2 6.4c.6-.5 1-1.3 1-2.4l-2-.2c-1 0-1.7.2-2.3.5-.6.4-.8.9-.8 1.5 0 1 .6 1.5 1.9 1.5a3 3 0 0 0 2.2-.9zM129.8 241.4c-.6-.7-.9-1.7-.9-3.1v-5h1.4v5c0 1 .2 1.8.6 2.3.4.5.8.7 1.5.7.6 0 1.2-.2 1.7-.8.4-.5.7-1.3.7-2.3v-4.9h1.3V241.6l.2.7H135l-.2-.6v-.8a3.1 3.1 0 0 1-2.8 1.6c-1 0-1.7-.4-2.2-1zM139 242.3V241h2.7v-10.7H139v-1.2h4v12h2.6v1H139zM156 241.4c-1 .7-1.9 1-2.9 1s-1.7-.3-2-.9c-.5-.6-.7-1.6-.7-3v-1.1l.2-3h-2v-1h2l.2-2.5 1.6-.2h.2l-.2.4v.4l-.3 1.8h3v1.2h-3l-.3 3v1c0 1 .1 1.8.4 2.2.2.3.6.5 1.1.5.4 0 .8 0 1.1-.2l1.1-.7.5 1.1z"/><path fill="#1E4885" d="M169.5 242c-.6-.5-1.1-1-1.5-1.8-.4-.7-.6-1.6-.6-2.5 0-.9.2-1.7.6-2.4.4-.8 1-1.3 1.6-1.8a4 4 0 0 1 2.2-.6 4 4 0 0 1 2.1.6 5 5 0 0 1 2.2 4.2c0 1-.2 1.8-.6 2.5-.3.8-.9 1.3-1.5 1.8-.7.4-1.4.6-2.2.6s-1.6-.2-2.3-.6zm3.4-1.6c.3-.2.6-.6.7-1 .2-.5.3-1 .3-1.7 0-.6-.1-1.2-.3-1.6-.1-.5-.4-.8-.7-1-.3-.3-.7-.4-1.1-.4-.5 0-.8.1-1.1.3s-.6.6-.8 1l-.2 1.7c0 .6 0 1.2.2 1.6.2.5.4.9.7 1.1.4.3.7.4 1.2.4s.8-.1 1-.4zM185.5 241.4c-.4.4-1 .7-1.4.9l-1.7.2c-1 0-1.7-.2-2.2-.8-.5-.6-.7-1.5-.7-2.9v-1.2l.2-2.7h-2V233h2l.2-2.1 2.4-.4V230.9l-.2.3v.3l-.2 1.6h2.8v1.8H182l-.2 2.6v1c0 .9 0 1.4.2 1.8.2.3.5.4 1 .4.4 0 .7 0 1-.2.4-.1.8-.4 1.2-.7l.4 1.6zM187.6 229h2.4v.3l-.2.2v4.5l1.1-.8a3 3 0 0 1 1.3-.3c1 0 1.7.3 2.3 1 .5.5.8 1.5.8 2.8v5.6h-2.2v-5.6c0-.6-.1-1.1-.4-1.5-.2-.3-.5-.5-1-.5l-1 .3a2 2 0 0 0-.6.8c-.2.3-.3.7-.3 1.2v5.3h-2.2V229zM199.2 242c-.7-.4-1.3-1-1.7-1.7s-.6-1.5-.6-2.5.2-1.8.6-2.6a4 4 0 0 1 3.8-2.3c.7 0 1.4.2 2 .5.5.4 1 .9 1.4 1.5a5.3 5.3 0 0 1 .4 3.1v.3h-6c.1.8.4 1.5.8 1.9.4.4 1 .6 1.5.6a3 3 0 0 0 2.4-1l1.2 1.1c-1 1.1-2.1 1.7-3.5 1.7-.9 0-1.7-.2-2.3-.6zm3.8-5.3l-.2-1c-.2-.4-.4-.7-.7-.8-.3-.2-.6-.3-1-.3-.5 0-1 .2-1.3.5-.3.4-.5 1-.6 1.6h3.8zM214.2 235.9c-.2-.4-.5-.7-.8-.9l-1-.2c-.4 0-.8 0-1.2.3-.4.2-.7.5-1 1a3 3 0 0 0-.2 1.4v4.8h-2.2V233h2.2v1.3c.3-.4.6-.8 1-1 .5-.4 1-.5 1.6-.5a3.8 3.8 0 0 1 2.6 1l-1 2zm-.3 0H214.2v.1h-.3v-.1zm.3 0v.1-.1zM219.5 242.3V232h-3.3v-2h9v2h-3.5v10.3h-2.2zM226.8 229h2.3v.3l-.1.2v4.5l1-.8a3 3 0 0 1 1.4-.3c1 0 1.7.3 2.3 1 .5.5.8 1.5.8 2.8v5.6h-2.3v-5.6c0-.6 0-1.1-.3-1.5-.2-.3-.6-.5-1-.5-.3 0-.7.1-1 .3a2 2 0 0 0-.7.8l-.2 1.2v5.3h-2.2V229zM237.1 242.3v-1.8h2.2v-5.6h-2V233h4.2v7.4h2v1.8h-6.4zm2.5-11c-.2 0-.4-.2-.5-.4l-.2-.7c0-.3.1-.6.4-.9.3-.2.6-.4 1-.4l.7.2.5.5a1.2 1.2 0 0 1 0 1.3 1.4 1.4 0 0 1-1.2.6l-.7-.1zM246.4 233.1h2.2v1a3.4 3.4 0 0 1 2.6-1.2c.8 0 1.5.3 2 1 .6.6.8 1.5.8 2.8v5.6h-2.2v-5.6c0-.7 0-1.2-.3-1.5-.3-.3-.7-.5-1.2-.5a2 2 0 0 0-.8.2c-.3.1-.5.3-.7.6-.2.2-.2.5-.2.9v5.9h-2.2V233zM263.8 242.6c0 .6-.1 1-.4 1.5-.3.5-.8.9-1.5 1.1-.6.3-1.4.4-2.4.4-1.1 0-2-.2-2.6-.6-.6-.3-1-.9-1-1.6 0-.4.2-.7.4-1 .1-.4.4-.6.7-.9-.5-.3-.8-.7-.8-1.4l.3-.9c.2-.3.4-.5.8-.7a3.3 3.3 0 0 1-1.1-2.5c0-.6.1-1.1.4-1.6a3.3 3.3 0 0 1 3-1.6 3.3 3.3 0 0 1 2 .7 4.5 4.5 0 0 1 2.3-.6h.3l.3 1.7a4.3 4.3 0 0 0-2 0 3.2 3.2 0 0 1 0 3 3.3 3.3 0 0 1-3 1.7c-.5 0-1 0-1.3-.3l-.2.3v.2c0 .3.2.5.6.6l2.3.2c2 0 3 .7 3 2.3zm-2.5 1.1c.4-.2.5-.5.5-.8l-.1-.5-.5-.2-1-.1c-.8 0-1.5 0-2-.2-.1.2-.3.3-.3.5l-.1.5c0 .4.1.7.5.8.4.2.9.3 1.5.3a3 3 0 0 0 1.5-.3zm-2.5-9l-.5.6-.2.7c0 .2 0 .5.2.8l.5.5.7.2c.3 0 .5 0 .7-.2l.5-.5.2-.8c0-.3 0-.5-.2-.7l-.5-.6a1.3 1.3 0 0 0-1.4 0z"/><path fill="#4B8AC7" d="M275.4 234.9v-1.2h8v1.2h-8zm0 3v-1.1h8v1.1h-8z"/><path fill="#235399" d="M298.4 229.2a40.7 40.7 0 0 1-.2 4.1l-.2 1h-.9l-.1-1a34.2 34.2 0 0 1-.2-4h1.6zm2.9 0a45.4 45.4 0 0 1-.2 4.1l-.1 1h-1v-1a38.4 38.4 0 0 1-.3-4h1.6zM305.6 240.8a8 8 0 0 1-1.1-4.6 8 8 0 0 1 1.1-4.6 3.7 3.7 0 0 1 3.2-1.6c1.4 0 2.5.5 3.2 1.6a8 8 0 0 1 1.2 4.6 8 8 0 0 1-1.1 4.6c-.8 1.1-1.9 1.7-3.3 1.7s-2.4-.6-3.2-1.7zm5.4-.8c.5-1 .8-2.2.8-3.8 0-1.5-.3-2.8-.8-3.7-.5-.9-1.2-1.3-2.2-1.3-.9 0-1.6.4-2.1 1.3-.6 1-.8 2.2-.8 3.7 0 1.6.2 2.9.7 3.8.6.8 1.3 1.3 2.2 1.3 1 0 1.7-.5 2.2-1.3zM315.1 233.3h1.4v1.6c.4-.6.8-1 1.3-1.3.6-.3 1.1-.5 1.7-.5.8 0 1.5.3 2 .9.4.6.7 1.6.7 2.8v5.5h-1.4v-5.4c0-1-.2-1.6-.5-2-.3-.4-.7-.6-1.2-.6-.4 0-.8.1-1.2.4a3 3 0 0 0-1 1c-.3.4-.4.9-.4 1.4v5.2h-1.4v-9zM325.7 241.2c-.8-.8-1.2-2-1.2-3.4 0-1 .2-1.8.5-2.5s.9-1.3 1.5-1.6a4 4 0 0 1 2-.6c1.2 0 2 .4 2.7 1 .7.8 1 1.8 1 3.2v.7h-6.4c0 1 .4 2 1 2.5.5.5 1.2.8 2 .8a3 3 0 0 0 2.4-1l.8.8c-.8.9-1.8 1.4-3.2 1.4-1.3 0-2.4-.5-3.1-1.3zm5.1-4.3a3 3 0 0 0-.6-2c-.5-.5-1-.7-1.7-.7s-1.2.2-1.7.7c-.5.4-.8 1-1 2h5zM337.5 229.2a40.7 40.7 0 0 1-.2 4.1v1h-1l-.2-1a34.2 34.2 0 0 1-.1-4h1.5zm3 0a45.4 45.4 0 0 1-.2 4.1l-.2 1h-.9l-.1-1a38.4 38.4 0 0 1-.2-4h1.6z"/><path fill="#4B8AC7" d="M364 236.8v-1.4h7.1v1.4h-7zM373.9 236.8v-1.4h7v1.4h-7zM394.8 241.8a4 4 0 0 1-1.4-1.6c-.4-.7-.6-1.5-.6-2.4 0-1 .2-1.7.6-2.4a4 4 0 0 1 3.6-2.3 3.9 3.9 0 0 1 3.6 2.3c.3.7.5 1.5.5 2.4 0 .9-.2 1.7-.5 2.4a4 4 0 0 1-3.6 2.2 4 4 0 0 1-2.2-.6zm3.5-1a3 3 0 0 0 1-1.3c.2-.5.3-1 .3-1.7a4 4 0 0 0-.7-2.5c-.5-.7-1.2-1-2-1-.7 0-1.3.3-1.8 1a4 4 0 0 0-.8 2.5c0 .6.1 1.2.4 1.7.2.6.5 1 .9 1.3.4.3.8.4 1.4.4s1-.1 1.3-.4zM410.8 233.3c-.2 1-.7 2.4-1.3 4l-2.2 5h-1.1l-3.6-9h1.4l2.8 7 1.5-3.3c.6-1.3 1-2.6 1.1-3.7h1.4zM413.8 241.2c-.8-.8-1.2-2-1.2-3.4 0-1 .2-1.8.6-2.5s.8-1.3 1.4-1.6a4 4 0 0 1 2.1-.6c1.1 0 2 .4 2.6 1 .7.8 1 1.8 1 3.2v.7H414c0 1 .3 2 .9 2.5.5.5 1.2.8 2.1.8a3 3 0 0 0 2.3-1l.8.8c-.8.9-1.8 1.4-3.1 1.4s-2.4-.5-3.2-1.3zm5.1-4.3a3 3 0 0 0-.6-2c-.4-.5-1-.7-1.7-.7-.6 0-1.2.2-1.7.7-.5.4-.8 1-.9 2h5zM429.8 235.2a4 4 0 0 0-1-.7l-.9-.2a2.7 2.7 0 0 0-2.3 1.4c-.3.5-.4 1.1-.4 1.8v4.8h-1.4v-9h1.4v1.7c.2-.6.6-1 1.1-1.4.6-.3 1.1-.5 1.7-.5 1 0 1.8.3 2.4 1l-.6 1zm-.2 0h.1v.1h-.1zm.2 0s0 .1 0 0zM431.5 233.3h1.3l1.4 7.2 1.6-6.4h.8l2 6.4a211 211 0 0 0 .7-6.9v-.3h1.3c-.3 3-.8 6-1.4 9h-1.4l-1.6-5.8-1.6 5.8h-1.3l-1.8-9zM449.4 235.2a4 4 0 0 0-1-.7l-.9-.2a2.7 2.7 0 0 0-2.3 1.4c-.3.5-.4 1.1-.4 1.8v4.8h-1.5v-9h1.5v1.7c.2-.6.6-1 1.1-1.4.5-.3 1.1-.5 1.7-.5 1 0 1.8.3 2.4 1l-.6 1zm-.3 0h.2v.1h-.2zm.3 0s0 .1 0 0zM452.8 242.3V241h2.3v-6.7h-2.2v-1h3.6v7.7h2v1.2h-5.7zM455 231a1 1 0 0 1-.3-.7c0-.3 0-.5.3-.7.2-.2.4-.3.7-.3.3 0 .5.1.7.3a1 1 0 0 1 0 1.4 1 1 0 0 1-.7.3 1 1 0 0 1-.7-.3zM469.3 241.4c-.9.7-1.8 1-2.8 1-1 0-1.7-.3-2.1-.9-.5-.6-.7-1.6-.7-3v-1.1l.3-3h-2v-1h2l.2-2.5 1.5-.2h.2l-.2.4v.4l-.3 1.8h3v1.2h-3l-.2 3v1c0 1 0 1.8.3 2.2.3.3.6.5 1.2.5.4 0 .7 0 1-.2.4-.1.8-.4 1.2-.7l.4 1.1zM472.5 241.2c-.8-.8-1.1-2-1.1-3.4 0-1 .1-1.8.5-2.5s.9-1.3 1.5-1.6a4 4 0 0 1 2-.6c1.2 0 2 .4 2.7 1 .7.8 1 1.8 1 3.2v.7h-6.4c0 1 .4 2 1 2.5.5.5 1.2.8 2 .8a3 3 0 0 0 2.4-1l.8.8c-.8.9-1.8 1.4-3.2 1.4-1.3 0-2.4-.5-3.2-1.3zm5.2-4.3a3 3 0 0 0-.7-2c-.4-.5-1-.7-1.6-.7-.7 0-1.3.2-1.7.7-.5.4-.8 1-1 2h5zM498.7 241.4c-.9.7-1.8 1-2.9 1-1 0-1.7-.3-2-.9-.5-.6-.7-1.6-.7-3v-1.1l.2-3h-2v-1h2.1l.1-2.5 1.6-.2h.2l-.2.4v.4l-.3 1.8h3v1.2h-3l-.2 3v1c0 1 0 1.8.3 2.2.2.3.6.5 1.2.5.3 0 .7 0 1-.2l1.1-.7.5 1.1zM97 278.4l-1-1a2 2 0 0 0-1-.1 2 2 0 0 0-1.4.5c-.4.4-.6 1-.6 1.8v.7h3v1.1h-3v7.9h-1.3v-7.9h-2v-1h2v-.8c0-1.2.3-2 .9-2.6.6-.6 1.4-.9 2.4-.9a4 4 0 0 1 1.6.3c.5.2.9.6 1.2 1l-.8 1zm-.2 0h.2v.1h-.2zm.2 0c0 .1.1.2 0 .1zM100.4 288.4c-.6-.7-.9-1.7-.8-3v-5h1.3v5c0 1 .2 1.7.6 2.2.4.5.9.7 1.5.7.7 0 1.2-.2 1.7-.8.5-.5.7-1.2.7-2.3v-4.9h1.4V288.6c0 .2 0 .5.2.7h-1.4l-.2-.6v-.8a3.2 3.2 0 0 1-2.8 1.6c-1 0-1.7-.4-2.2-1zM109.5 280.3h1.4v1.6c.3-.6.8-1 1.3-1.3.5-.3 1.1-.5 1.7-.5.8 0 1.4.3 2 1 .4.5.6 1.5.6 2.7v5.5h-1.3v-5.4c0-1-.2-1.6-.5-2s-.7-.6-1.2-.6c-.4 0-.8.1-1.2.4-.4.2-.8.5-1 1-.3.4-.4.9-.4 1.4v5.2h-1.4v-9zM125.9 287.1l.8 1c-.9.9-2 1.4-3.2 1.4a4.3 4.3 0 0 1-4-2.3 5 5 0 0 1-.5-2.4c0-.9.2-1.7.6-2.4a4.3 4.3 0 0 1 3.8-2.3c.8 0 1.4.2 2 .5.6.3 1 .7 1.4 1.2l-.8.9c-.4-.5-.8-.9-1.2-1-.4-.3-1-.4-1.5-.4s-1 .2-1.4.4a3 3 0 0 0-1 1.2c-.3.5-.5 1.1-.5 1.8s.2 1.3.4 1.8c.3.5.7 1 1.1 1.3.5.3 1 .4 1.6.4a3 3 0 0 0 2.4-1zm0-4.4v.1l-.2-.1h.2zm0 0c.1 0 .1.1 0 0zM136.4 288.4c-.9.7-1.8 1-2.9 1-1 0-1.7-.3-2-.9-.5-.6-.7-1.6-.7-3v-1l.2-3h-2v-1.2h2.1l.1-2.4 1.6-.2h.2l-.2.4v.4l-.3 1.8h3v1.2h-3l-.2 3v1c0 1 0 1.8.3 2.2.2.3.6.5 1.1.5.4 0 .8 0 1.1-.2.4-.1.7-.4 1.1-.7l.5 1.1zM139.4 289.3V288h2.3v-6.7h-2.2v-1h3.6v7.7h2.1v1.2h-5.8zm2.2-11.2a1 1 0 0 1-.3-.7c0-.3.1-.5.3-.7.2-.2.5-.3.7-.3.3 0 .6.1.8.3a1 1 0 0 1 0 1.4 1 1 0 0 1-.8.3 1 1 0 0 1-.7-.3zM150 288.8a4 4 0 0 1-1.4-1.6c-.4-.7-.6-1.5-.6-2.4s.2-1.7.6-2.4a3.9 3.9 0 0 1 3.6-2.3 3.9 3.9 0 0 1 3.6 2.3c.3.7.5 1.5.5 2.4s-.2 1.7-.5 2.4a4 4 0 0 1-3.6 2.2 4 4 0 0 1-2.2-.6zm3.5-1a3 3 0 0 0 1-1.3c.2-.5.3-1 .3-1.7a4 4 0 0 0-.7-2.5c-.5-.7-1.2-1-2-1-.7 0-1.3.3-1.8 1a4 4 0 0 0-.8 2.5c0 .6.1 1.2.4 1.7.2.6.5 1 .9 1.3.4.3.8.4 1.4.4.5 0 1-.1 1.3-.4zM158.5 280.3h1.3v1.6c.4-.6.8-1 1.4-1.3s1-.5 1.7-.5c.8 0 1.4.3 1.9 1 .5.5.7 1.5.7 2.7v5.5H164v-5.4c0-1-.1-1.6-.4-2-.3-.4-.7-.6-1.2-.6-.4 0-.8.1-1.2.4-.5.2-.8.5-1 1-.3.4-.5.9-.5 1.4v5.2h-1.3v-9z"/><path fill="#1E4885" d="M178.4 289.3v-1.8h2.2v-5.6h-2.1V280h4.3v7.4h2v1.8h-6.4zm2.4-11c-.2 0-.3-.2-.5-.4l-.1-.7c0-.3 0-.6.3-.9.3-.2.6-.4 1-.4l.7.2.5.5.2.6-.2.7a1.4 1.4 0 0 1-1.9.5zM187.6 280.1h2.2v1a3.5 3.5 0 0 1 2.6-1.2c.9 0 1.6.3 2.1 1 .5.6.8 1.5.8 2.8v5.6H193v-5.6c0-.7-.1-1.2-.4-1.5-.2-.3-.6-.5-1.1-.5a2 2 0 0 0-.9.2 1.5 1.5 0 0 0-.9 1.5v5.9h-2.2V280zM198 289.3v-1.8h2.2v-5.6H198V280h4.2v7.4h2v1.8H198zm2.4-11c-.2 0-.3-.2-.5-.4l-.2-.7c0-.3.2-.6.4-.9.3-.2.6-.4 1-.4l.7.2.5.5.2.6-.2.7a1.4 1.4 0 0 1-1.9.5zM215 288.4c-.6.4-1 .7-1.6.9l-1.6.2c-1 0-1.7-.2-2.2-.8-.5-.6-.8-1.5-.8-2.9v-1.2l.3-2.7h-2v-1.8h2l.2-2.1 2.4-.4v.2a24.1 24.1 0 0 1-.2.4v.3l-.2 1.6h2.8v1.8h-2.8l-.2 2.6v1c0 .9 0 1.4.2 1.8s.5.4 1 .4c.3 0 .7 0 1-.2l1.2-.7.4 1.6zM217.5 289.3v-1.8h2.2v-5.6h-2V280h4.2v7.4h2v1.8h-6.4zm2.5-11c-.2 0-.4-.2-.5-.4l-.2-.7c0-.3.2-.6.4-.9.3-.2.6-.4 1-.4l.7.2.5.5.2.6-.2.7a1.4 1.4 0 0 1-1.9.5zM233.2 280.7c.7.6 1 1.6 1 3v5.6h-2v-.9c-.4.4-.8.6-1.3.8-.5.2-1 .3-1.6.3-1 0-1.7-.2-2.2-.7-.5-.5-.7-1.1-.7-2 0-.6.2-1.1.6-1.6.4-.4 1-.8 1.8-1 .7-.3 1.7-.4 2.8-.4h.6c0-.8-.2-1.3-.6-1.7-.3-.3-.8-.5-1.4-.5a3 3 0 0 0-1.4.3l-1.2 1-1.1-1.5c.5-.5 1.2-1 1.8-1.2.7-.2 1.3-.4 2-.4 1.2 0 2.1.3 2.9 1zm-1.7 6.5c.4-.4.6-1 .7-2h-.4c-1.1 0-2 .2-2.5.4-.5.3-.7.7-.7 1.2 0 .3 0 .6.3.8l1.1.2a2 2 0 0 0 1.5-.6zM236.7 289.3v-1.7h2.5v-9.9h-2.4V276h4.6v11.6h2.5v1.7h-7.2zM247 289.3v-1.8h2.1v-5.6h-2V280h4.2v7.4h2v1.8H247zm2.4-11c-.2 0-.4-.2-.5-.4l-.2-.7c0-.3.1-.6.4-.9.2-.2.6-.4 1-.4l.7.2.5.5.2.6-.2.7a1.4 1.4 0 0 1-2 .5zM261.9 284.1l.6.4c.5.2.8.5 1 .8.2.4.3.8.3 1.3s-.2 1-.5 1.4c-.3.5-.8.9-1.3 1.2a4 4 0 0 1-1.8.4c-1 0-1.8-.1-2.4-.4s-1.3-.6-2-1.2l1-1.6c.5.5 1 .9 1.5 1 .5.3 1.1.4 1.9.4 1 0 1.6-.3 1.6-1l-.2-.6-.6-.4-1.2-.4c-1-.3-1.9-.6-2.5-1a2 2 0 0 1-.8-1.8c0-.5.1-1 .4-1.4.3-.4.7-.7 1.2-1 .5-.2 1.2-.3 1.9-.3s1.3.1 2 .4a5 5 0 0 1 1.6 1l-1.1 1.6-1-1a3 3 0 0 0-1.5-.2c-.4 0-.7 0-1 .2-.2.1-.3.3-.3.5s0 .4.2.6l.6.4 1.3.4 1 .3zm-5.2 2.2h.2v.1h-.2zm.4.1h-.1-.1v-.1h.2v.1zm5-3.5H262.5v.1l-.2-.1zm.4.1h-.1v-.1l.1.1zM267.7 289c-.7-.4-1.2-1-1.6-1.6-.4-.8-.6-1.6-.6-2.6s.2-1.8.5-2.6a4 4 0 0 1 3.8-2.3c.7 0 1.4.2 2 .5.6.4 1 .9 1.4 1.6a5.3 5.3 0 0 1 .5 3v.3h-6c0 .8.3 1.5.7 1.9.5.4 1 .6 1.6.6a3 3 0 0 0 2.3-1l1.2 1.1c-1 1.1-2 1.7-3.4 1.7-1 0-1.7-.2-2.4-.6zm3.8-5.3c0-.4 0-.7-.2-1l-.6-.8c-.3-.2-.6-.3-1-.3-.5 0-1 .2-1.3.5-.4.4-.6 1-.7 1.6h3.8z"/><path fill="#4B8AC7" d="M279.5 290.6a9.3 9.3 0 0 1-2.6-6.2 8.7 8.7 0 0 1 2.5-6.2c.8-.8 1.7-1.5 2.8-2l.3 1.3a8 8 0 0 0-4.2 7c0 1.4.4 2.8 1.2 4a8 8 0 0 0 3.2 3l-.4 1.2a9 9 0 0 1-2.8-2z"/><path fill="#235399" d="M293 278.6l-1-.8-1-.2c-.6 0-1 .2-1.3.6-.3.3-.5.8-.5 1.5v.4h2.8v1.8h-2.8v7.4h-2.1v-7.4h-2V280h2v-.3c0-.8.1-1.5.5-2.1.3-.6.8-1 1.3-1.4a4 4 0 0 1 2-.4c1.1 0 2.1.4 3 1.3l-1 1.4zm-.3 0h.2v.1l-.2-.1zm.4 0h-.2.2zM295.9 289.3v-1.8h2.2v-5.6H296V280h4.3v7.4h2v1.8h-6.4zm2.4-11c-.2 0-.3-.2-.5-.4l-.1-.7c0-.3.1-.6.4-.9.2-.2.5-.4 1-.4l.6.2.5.5c.2.2.2.4.2.6l-.2.7a1.4 1.4 0 0 1-1.9.5zM312.1 282.9c-.2-.4-.5-.7-.8-.9l-1-.2c-.4 0-.8 0-1.2.3-.4.2-.7.5-.9 1a3 3 0 0 0-.3 1.4v4.8h-2.2V280h2.2v1.3c.3-.4.6-.8 1-1 .6-.3 1-.5 1.7-.5a3.8 3.8 0 0 1 2.5 1l-1 2zm-.2 0l.2.1h-.2v-.1zm.2 0v.1-.1zM320.6 284.1l.7.4 1 .8.2 1.3c0 .5-.1 1-.5 1.4-.3.5-.7.9-1.2 1.2a4 4 0 0 1-1.9.4 6 6 0 0 1-4.3-1.5l1-1.7c.4.5 1 .9 1.4 1 .6.3 1.2.4 2 .4 1 0 1.5-.3 1.5-1 0-.2 0-.4-.2-.6l-.6-.4-1.2-.4c-1-.3-1.8-.6-2.4-1s-.9-1-.9-1.8c0-.5.2-1 .4-1.4.3-.4.7-.7 1.3-1 .5-.2 1.1-.3 1.8-.3s1.4.1 2 .4a5 5 0 0 1 1.6 1l-1 1.6h-.1l-1-1a3 3 0 0 0-1.4-.2c-.4 0-.7 0-1 .2-.3.1-.4.3-.4.5s0 .4.2.6l.7.4a14.5 14.5 0 0 0 2.3.7zm-5.1 2.2h.1v.1h-.1zm.3.1h-.2v-.1h.2v.1zm5.1-3.5h.2v.1l-.2-.1zm.4.1h-.1v-.1.1zM332.4 288.4a6 6 0 0 1-1.5.9l-1.6.2c-1 0-1.7-.2-2.2-.8-.5-.6-.8-1.5-.8-2.9v-1.2l.3-2.7h-2v-1.8h2l.2-2.1 2.4-.4V277.9l-.2.3v.3l-.2 1.6h2.8v1.8h-2.8l-.2 2.6v1c0 .9 0 1.4.2 1.8.2.3.5.4 1 .4.3 0 .7 0 1-.2.4-.1.7-.4 1.2-.7l.4 1.6zM334 277h2.6l3.9 8.8v-8.7h2.1v.2l-.1.2v11.8H340l-4-9.3v9.3h-2V277zM350.7 280.7c.7.6 1 1.6 1 3v5.6h-2v-.9c-.4.4-.8.6-1.3.8-.5.2-1 .3-1.6.3-1 0-1.7-.2-2.2-.7-.5-.5-.7-1.1-.7-2 0-.6.2-1.1.6-1.6.4-.4 1-.8 1.8-1 .8-.3 1.7-.4 2.8-.4h.6c0-.8-.2-1.3-.6-1.7-.3-.3-.8-.5-1.4-.5a3 3 0 0 0-1.4.3l-1.2 1-1.1-1.5c.6-.5 1.2-1 1.8-1.2.7-.2 1.3-.4 2-.4 1.2 0 2.1.3 2.9 1zm-1.7 6.5c.4-.4.7-1 .7-2h-.4c-1.1 0-2 .2-2.5.4-.5.3-.7.7-.7 1.2 0 .3 0 .6.3.8l1.1.2a2 2 0 0 0 1.5-.6zM353.5 280h1.9v.6l.7-.7.9-.2a1.7 1.7 0 0 1 1.6 1.1c.2-.4.5-.6.8-.8a2 2 0 0 1 1-.3c.7 0 1.2.3 1.4.7.3.5.5 1.1.5 2.1v6.8h-2v-6.4l-.2-1.1c-.1-.2-.3-.4-.5-.4-.5 0-.7.6-.7 1.8v6h-2V283c0-.6 0-1-.2-1.2 0-.2-.2-.4-.4-.4-.3 0-.5.2-.6.4l-.2 1.4v6h-2V280zM365.6 289c-.7-.4-1.2-1-1.6-1.6-.4-.8-.6-1.6-.6-2.6s.2-1.8.6-2.6a4 4 0 0 1 3.7-2.3c.8 0 1.4.2 2 .5.6.4 1 .9 1.4 1.6a5.3 5.3 0 0 1 .5 3v.3h-6c0 .8.3 1.5.8 1.9.4.4.9.6 1.5.6a3 3 0 0 0 2.3-1l1.2 1.1c-.9 1.1-2 1.7-3.4 1.7-1 0-1.7-.2-2.4-.6zm3.8-5.3c0-.4 0-.7-.2-1-.1-.4-.3-.7-.6-.8-.3-.2-.6-.3-1-.3-.5 0-1 .2-1.3.5-.4.4-.6 1-.6 1.6h3.7z"/><path fill="#4B8AC7" d="M376.3 282.9a1 1 0 0 1 0-1.6c.3-.2.5-.3.8-.3s.6 0 .9.3a1 1 0 0 1 0 1.6 1.2 1.2 0 0 1-1.7 0zm0 6.3a1 1 0 0 1-.3-.8c0-.4 0-.6.3-.8.3-.3.5-.4.8-.4s.6.1.9.4c.2.2.3.4.3.8 0 .3-.1.5-.3.7-.3.3-.5.4-.9.4-.3 0-.6-.1-.8-.3z"/><path fill="#235399" d="M399.1 282.8l.7.5c.5.4.8.8 1 1.2.2.4.3.9.3 1.4 0 .6-.2 1.3-.5 1.8-.3.6-.8 1-1.4 1.4-.6.3-1.5.5-2.5.5-1.6 0-3-.6-4.1-1.7l1-1.7c1 1 2 1.5 3.3 1.5.6 0 1.1-.1 1.4-.4s.5-.7.5-1.3c0-.3 0-.5-.2-.8l-.7-.7c-.4-.2-.8-.5-1.5-.7-1-.5-2-1-2.4-1.7-.5-.6-.8-1.3-.8-2.1 0-.6.2-1.2.5-1.6s.8-1 1.4-1.2c.5-.3 1.2-.5 2-.5a5 5 0 0 1 2 .4c.6.3 1.2.7 1.7 1.3l-1.1 1.5c-.3-.5-.7-.8-1.2-1-.4-.2-1-.4-1.5-.4l-1 .2-.5.5-.2.7c0 .3 0 .5.2.8l.8.6a16.4 16.4 0 0 0 2.8 1.5zm-5.6 3.4h0zm.3 0h-.2v-.1l.2.1zm5.6-6.3h.1l.1.1h-.2zm.3.2v-.2.2zM410.8 288.4a6 6 0 0 1-1.5.9l-1.7.2c-1 0-1.7-.2-2.2-.8-.5-.6-.7-1.5-.7-2.9v-1.2l.2-2.7h-2v-1.8h2.1l.1-2.1 2.4-.4V277.9l-.2.3v.3l-.2 1.6h2.9v1.8H407l-.2 2.6v1c0 .9 0 1.4.2 1.8.2.3.6.4 1 .4s.7 0 1-.2c.4-.1.8-.4 1.2-.7l.5 1.6zM419.8 282.9l-.7-.9-1-.2c-.5 0-1 0-1.3.3-.4.2-.7.5-.9 1a3 3 0 0 0-.3 1.4v4.8h-2.2V280h2.2v1.3c.3-.4.6-.8 1.1-1 .5-.3 1-.5 1.6-.5a3.8 3.8 0 0 1 2.5 1l-1 2zm-.2 0l.2.1h-.2v-.1zm.2 0l.1.1h-.1v-.1zM423.2 289.3v-1.8h2.2v-5.6h-2.1V280h4.3v7.4h2v1.8h-6.4zm2.4-11c-.2 0-.3-.2-.5-.4l-.1-.7c0-.3 0-.6.3-.9.3-.2.6-.4 1-.4l.7.2.5.5.2.6-.2.7a1.4 1.4 0 0 1-1.9.5zM432.4 280.1h2.2v1a3.5 3.5 0 0 1 2.6-1.2c.9 0 1.6.3 2.1 1 .5.6.8 1.5.8 2.8v5.6h-2.2v-5.6c0-.7-.1-1.2-.4-1.5-.2-.3-.6-.5-1.1-.5a2 2 0 0 0-.9.2c-.3.1-.5.3-.6.6-.2.2-.3.5-.3.9v5.9h-2.2V280zM449.9 289.6c0 .6-.2 1-.5 1.5s-.8.9-1.4 1.1c-.7.3-1.5.4-2.4.4-1.2 0-2-.2-2.7-.5-.6-.4-.9-1-.9-1.7 0-.4.1-.7.3-1 .2-.4.4-.6.8-.8-.6-.4-.8-.8-.8-1.5 0-.3 0-.6.2-.9l.8-.7a3.3 3.3 0 0 1-1-2.5c0-.6 0-1.1.4-1.6a3.4 3.4 0 0 1 4-1.4c.3 0 .7.3 1 .5l1-.5a5 5 0 0 1 1.6-.1l.2 1.7a4.2 4.2 0 0 0-2 0 3.2 3.2 0 0 1 0 3c-.3.6-.7 1-1.3 1.3a3.3 3.3 0 0 1-3 .1l-.2.3v.2c0 .3.2.5.7.6l2.2.2c2 0 3 .7 3 2.3zm-2.6 1.1c.4-.2.6-.5.6-.8 0-.2 0-.4-.2-.5l-.4-.2-1-.1c-.8 0-1.5 0-2-.2l-.4.5-.1.5c0 .4.2.7.6.9l1.5.2a3 3 0 0 0 1.4-.3zm-2.4-9l-.5.6a1.5 1.5 0 0 0 .5 2c.2.2.4.2.7.2.2 0 .5 0 .7-.2l.5-.5.2-.8a1.5 1.5 0 0 0-.7-1.3 1.3 1.3 0 0 0-1.4 0z"/><path fill="#4B8AC7" d="M461.5 281.9v-1.2h8v1.2h-8zm0 3v-1.1h8v1.2h-8z"/><path fill="#235399" d="M484.4 276.2a42 42 0 0 1-.2 4.1l-.1 1h-1v-1a35.4 35.4 0 0 1-.3-4h1.6zm3 0a43 43 0 0 1-.3 4.1v1h-1l-.1-1a36.9 36.9 0 0 1-.2-4h1.5zM497 278.2v7c0 1 0 1.8-.3 2.4a3 3 0 0 1-1.2 1.4 3.6 3.6 0 0 1-4.6-.9l.8-1 1 .9c.4.2.7.3 1.1.3.7 0 1.2-.3 1.5-.7.3-.5.4-1.3.4-2.4v-7h-2.4v-1.1h5.6v1.1H497zm-5.3 8.8v.1zm.2.1h-.1v-.1h.2l-.1.1z"/></svg>