<svg width="9600" height="1053" xmlns="http://www.w3.org/2000/svg"><defs><linearGradient x1="33.4%" y1="50%" x2="94.8%" y2="47.8%" id="a"><stop stop-color="#1B4787" offset="0%"/><stop stop-color="#4889C9" offset="100%"/></linearGradient></defs><g fill="none" fill-rule="evenodd"><path d="M1867 419.4h-1.6a64.3 64.3 0 0 0-69.1-42.3 80.8 80.8 0 0 0-98-46.4 96.8 96.8 0 0 0-164 15.6 52.8 52.8 0 0 0-57.7 30.8 86.6 86.6 0 0 0-117 71.2 70.5 70.5 0 0 0-105.2 53.2 108.7 108.7 0 0 0-146.1 20A103.2 103.2 0 0 0 964.7 537a105 105 0 0 0-128.8-11.8 78.2 78.2 0 0 0-116.2-32 67.3 67.3 0 0 0-105.2-27.3 62 62 0 0 0-78.8-57 88 88 0 0 0-124.8-19 91.7 91.7 0 0 0-164.7 19.7 88.7 88.7 0 0 0-98.2 85.7A68 68 0 0 0 65.3 542 58 58 0 0 0 0 556.8V930l1920 9.7V440a77.6 77.6 0 0 0-53-20.7Z" fill="#FFF" fill-rule="nonzero" opacity=".3"/><path d="M623.2 593.7c-10.5 0-20.7 1.3-30.4 3.8A146.2 146.2 0 0 0 355 593a97.3 97.3 0 0 0-132.7 39 81.3 81.3 0 0 0-115 46.4 60 60 0 1 0 31.6 93 81 81 0 0 0 109-16.5 97 97 0 0 0 104.7 10 146.2 146.2 0 0 0 193.8 41.9 120.3 120.3 0 1 0 76.7-213ZM1920 647.8a70.5 70.5 0 0 0-44.4-5.7 76.4 76.4 0 0 0-95.9-38 104.6 104.6 0 0 0-96-24.2 118.3 118.3 0 0 0-187.3-2.3 87 87 0 0 0-94 36.4 86.9 86.9 0 0 0-77.5 57.8 77.4 77.4 0 1 0 60.4 113.1 87 87 0 0 0 94-36.4 86.4 86.4 0 0 0 32-7.8 118 118 0 0 0 126.9 18.5 104.6 104.6 0 0 0 151-9.5 76.6 76.6 0 0 0 39.9-1.1 70.6 70.6 0 0 0 90.9 26.6V647.8Z" fill="#FFF" fill-rule="nonzero" opacity=".4"/><path fill="#78C6F7" fill-rule="nonzero" d="M0 695h1920v358H0z"/><path d="m3840 747.7-.8.4-1.8-1-1.6 1.4-1.8-.7-1.6 1.1-1.4.4c-.3-1.7-1.7-3-3.5-3a3.5 3.5 0 0 0-3.5 3.3h-.1l-1.8-.7-1.6 1.2h-1.8l-1.7-.1-1.7-.7-1.7.5-1.7.8-1.8-.8-1.7.5-1.7-1-1.7.3-1.7-.2-1.7 1-1-.1a3.5 3.5 0 0 0-6-.5l-1.6.7-1.7-1-1.6-.6-1.9 1.2-1.6-1-1.6-.6h-1.7l-1.7-.6-1.7.7-1.7-.9-1.7.6-1.6-1.1a4.7 4.7 0 0 0-7.6 0h-1.2l-1.7-.8-1.8-.2-1.8.5-1.8-.2-1.7-.4h-1.8l-1.8.1h-1.8l-1.7-.6-1.8.1-1.7-.5-1.8.6-1.8.5-1.7-.7-1.7-.5-1.8.6-1.8.6-1.7-.2-1.7-.9-1.8-.4h-1.7l-1.8.5-1.8.8-1.7-1.3-1.8.2-1.7.8-1.8-1.4-1.7 1.2h-1.8l-1.7-.1h-1.8l-1.7-.8-1.8-.4-1.7.7-1.7.5-1.7.3h-1.7l-1.8-.8-1.7 1.2h-1.7l-1.8-.6-1.7.5-1.7-.2-1.7.3-1.8.2-1.7-.7h-3.5l-1.7 1.4-1.7-.6-1.7.7-1 .1a7.7 7.7 0 0 0-14 .1h-.6l-1.7.1-1.7-.4-1.7.1-1.7-.5-1.7-.1-1.7 1.2-1.7-.1h-1.8l-1.7-1.1-1.7 1-1.7-.8h-1.7l-1.7 1.3-1.7-.1-1.8.1-1.7.1-1.7-.2-1.7-.9-1.7-.2-1.7 1.3-1.7-1.4h-1.7l-1.7.8h-.6a5 5 0 0 0-10 .1v.2l-1.2-.3-1.7.1-1.7-.3-1.7.7-1.6-.2-1.7.1-1.7-.3-1.7-.2-1.7-.7-1.7.5-1.7-.5-1.7-.2h-1.7l-1.6.9-1.8.6-1.7-1-1.7.6-1.7-1.4-1.8 1.3-1.7-.1-1.7-1.3-1.8.6h-1.7l-1.7-.6-1.7-.2h-1.8l-1.7.4-1.8-.7-1.6 1-1.7-1-1.7.5-1.5 1.2-1.8-.4-1.7-.4h-1.7l-.5.2a6 6 0 0 0-8.3 1.3l-1.1.3-1.7.3-1.6.4-1.7.3-1.5.4h-1.6l-1.7-.5-1.8.4-1.8.4-1.5-1.4-1.8.4h-3.5l-1.7.2h-1.7l-1.7-1.1-1.7.5-1.7-.7-1.7-.4h-1.7l-1.8.7h-1.7l-1.7-1.4-1.7 1.1-1.6.3-1.7-.4-1.7.5-1.7-1.1-1.7 1-1.7.2-1.7-.2-1.7-.4-1.7-.6-1.7 1h-1.7l-1.7.5-1.7-1.3-1.7.1-1.6.9-1.7.2-1.8-.4-1.7-.7a4.4 4.4 0 0 0-7.7 1l-.7-.2-1.1-.3a3.9 3.9 0 0 0-7.4 1l-1.7-.5-1.7.3-1.7-.5-1.7.6-1.8-.7-1.7-.1-1.7-.1-1.7 1-1.7-.2-1.7-.3-1.7-.3-1.7.2-1.7.5-1.7.6-1.7-1.1-1.7 1-1.8-.5-1.7.6-1.8-.4-1.7 1-1.8-.7-1.7-.2-1.8.2-1.7-.3-1.7 1-1.1-.1a4.1 4.1 0 0 0-8-.3l-1.4 1-1.8.2-1.8-1.3-1.8.3-1.6.5h-1.8l-1.7-.3-1.7.1-1.7-.4-1.7.7-1.7-.3-1.7.8h-1.7l-1.8-.6-1.7.1h-1.6l-1.7.6-1.7-.3-1.6.7-1.7-.7-1.6.7-1.7-.2-1.7.1-1.6.5-1.6.3-1.8-.8-.7.4a5.2 5.2 0 0 0-9.6 3.8l-1 .5h-2l-1.7.7-1.5 1.5-2-.2-1.8.1-1.4 1.5h-2l-1.5 1-1.8.3-1.5 1-1.4 1.2-1.7.8-1.6.9-1.7.7-1.7 1.4 2 .4 1.8-.5h38.6l50.8-1.7 44.6.7 12.6 1.2 55.3 5.4 24.6 1.7 106.7 4.5 92 4 87.8 2v-37ZM3317.8 736.2l-.6.1c0-1-.8-1.6-1.7-1.6h-.2c0-.9-.8-1.6-1.7-1.6-.3 0-.6 0-.9.2a1.8 1.8 0 0 0-1.5 0c-2.7-1.3-4.8-1.7-4.8-1.7s-6.2-1.1-10.4-1.5v-1h-3.8v1c-3 0-7 .3-9.6.8-.2-.6-.9-1.1-1.6-1.1-1 0-1.7.7-1.7 1.6v.4c-1.6.7-3.7 1.9-5.8 2.8-.3-.2-.8-.4-1.2-.4-1 0-1.8.7-1.8 1.5v.1l-.5.2a72 72 0 0 1-9 1.4l-.3-.2-1 .2c-.2-.3-.7-.5-1.2-.5-.7 0-1.3.4-1.6 1h-.3l-.2-.1-.4.1-1 .1h-.8c-.3-.5-.8-.8-1.5-.8-.8 0-1.5.5-1.6 1.2H3249.3l-1.4-.5h-.6c-.2-.6-.8-1-1.6-1s-1.5.5-1.7 1.2l-.4.2-1.4-.6h-1.4l-.2.1c-.3-.4-.8-.6-1.4-.6-.5 0-.9.2-1.2.4l-1.5.2-1.5.5-1.4.3-1.5-.4-1.4-.6-1.5.7-1.4.4-1.2-.4c-.2-1-1.3-1.8-2.5-1.8-1.3 0-2.4.9-2.6 2l-1 .2-1.5-.4-1.4.4-1.5.2-.6-.2c0-1.2-1-2.2-2.2-2.2-1.2 0-2 .8-2.3 1.9l-.7-.1-1.5.7h-1.4l-1.5-.4-1.5-.1-1 .6v-.3a2.5 2.5 0 0 0-5-.6l-1-.2-1.5.5-1.3-.4-1.4-.5h-1.4l-1.5.9-1.3-.8-1.4.3-1.4-.1-1.4-.8h-2.8l-1.3-.1-1.5.6-1.3-.3-1.4-.7h-.4a2.5 2.5 0 0 0-4.5.3l-.6-.1-1.4-.4-1.3-.7-1.4-.1-1.5.4-1.2-.9-1.4-.2-1.4-.3-1.5.6-1.3-.7-1.5.3-1.3-.9-1.4.2-1.4.4h-1.4l-1.4-.4-1.4.3-1.4-.4h-1.4l-1.4.4-1.4-.3-1.4-.3-1.4.7-1.4-.7-1.4-.2-1.4.8-1.4-.2-1.4-.4-1.4.6h-2.8l-1.4-.4-1.4.4-1.4-.4-1.3.8h-1.4l-1.5-.4-1.4-.2-1.4.5-1.3.1h-1.5l-1.4-.6h-1.4l-1.4.8v-.2l-5.8-2.7.1-.4c0-.9-.7-1.6-1.7-1.6-.7 0-1.2.4-1.5.9l-1-.4v-.5c0-.8-.7-1.5-1.7-1.5-.7 0-1.4.4-1.6 1l-1.8-.6v-.4c0-.9-.7-1.6-1.6-1.6-.8 0-1.4.4-1.6 1-1.5-.3-9.7-2-14.8-2-5.6.2-12.5 2.4-12.5 2.4l-9 4.6c-.4-.3-.8-.6-1.4-.6-1 0-1.7.7-1.7 1.6l.1.5-.7.4-6.9.6-.9-.2-1.3-.6-1.4.2-1.5.4-1.4-.1-1.4-.5-1.3-.4-1.4-.4-1.4-.4-1.5.7-1.4-.3-1.3-.4-1.4-.5h-1.4l-1.3-1-1.5.6-1.3-.7h-2.9l-1.4.2-1.4-.4h-1.4l-1.3-1.2-1.5.6-1.4-.1-1.4-.4-1.4-.8-1.5.4-1.4.5-1.4-1-1.5.8-1.3-1-1.5.7-1.4-.5-1.4-.3-1.5.6-1.4-.6h-2.9l-1.4-.5-1.5.7-1.4-.4-1.4.5-1.4-1h-1.5l-1.4.7-1.4-1-1.5.3-1.4.4-1.5.2-1.4-.8-1.4.5-1.4-1-1.5.2-1.4.8-1.4-.8h-1.4l-1.5.2-1.4-.3-1.4.6-1.4.2h-1.4l-1.5-.4-1.4.6-1.4-.3-1.4.4-1.4-.1h-1.5l-1.4-.2-1.4-.6-1.4.5-1.4.1-1.5-.5-1.4.8-1.4-.8-1.4.4-1.5-.4-1.4.3-1.4-.3-1.4.4-1.5-.1-1.4.7-1.4-.7-1.4.5-1.5-.7-1.4 1-1.4-1-1.5.4h-1.4l-1.4-.2-1.5.5h-1.4l-1.5.2-1.4-.2-1.4-.4-1.5.3-1.4-.6-1.5.2-1.4-.3-1.4.6-1.5.2-1.4-.2-1.5-.6-1.4.6-1.4-.8-1.5.2-1.4.4-1.5-.5h-1.4l-1.4.6-1.5-.3-1.4.5-1.5-.2-1.4-.6-1.5.3-1.4.3-1.4-.4-1.5-.1-1.4.2-1.5.4-1.5-.6-1.4-.5-1.5.9-1.4-.6-1.5-.3-1.5.8-1.4-.2h-1.5l-1.4-.5-1.5.2-1.5.2-1.4-.3-1.5-.1-1.5-.2-1.4.9-1.5-.3-1.5-.3-1.4-.2-1.5.6-1.5-.2-1.4-.4-1.5.2-1.4-.5-1.5.3-1.5.5-1.5-.7h-1.4l-1.5.4-1.4.1-1.4-.4-1.5.3-1.4.5-1.4-.5h-1.4l-1.4.3-1.4.3-1.5-.5-1.4.3-1.4.2h-1.4l-1.4.1-1.4-.4h-1.5l-1.4.2-1.4-.1-1.4.3-1.4-.2-1.5-.2-1.4.5-1.4-.2-1.4-.4-1.4.7-1.5-.2-1.4-.5-1.4.8-1.4.2-1.5-.7-1.4.5-1.4.1-1.4-.1-1.5-.2-1.4.2-1.4-.6-1.4-.3-1.5.2-1.4.7-1.5-.3-1.4-.6-1.4.4-1.5.2-1.4-1-1.4.4-1.5.5h-1.4l-1.4-.2h-1.5l-1.4-.8-1.4.1-1.5.7-1.4-1-1.4 1-1.4-.6-1.5.1-1.4-.8-1.5.8-1.4-.1h-1.4l-1.5-.6-1.4.3-1.4-.2-1.5.2-1.4-.1-1.4-.3-1.4-.3-1.4.2-1.5.2-1.4-.7-1.4-.2-1.5.7-1.4-.6-1.4-.1-1.5.9-1.4-.3-1.4-.1-1.4-.1-1.4-.6-1.5.2-1.4-.5-1.5 1-1.3-1-1.5.6-1.4-.4-1.5.4-1.4-.1-1.4-.5-1.4.1-1.5-.5-1.4.3-1.4.3-1.4-.7-1.5-.2-1.4.4-1.5-.2h-1.4l-1.4-.3-1.5.4-1.4-.6-1.4.5-1.5-.2-1.3-.9-1.5.5h-1.4l-1.4-.4-1.4-.5-1.5.4h-1.4l-1.5.1-1.4-.6-1.4-.7-1.5.8-1.4-.4-1.4.2-1.4-.7-1.4-.4h-1.4l-1.5.2-1.5.3-1.4-.6h-2.9l-1.4-.3-1.4.2-1.4-.8-1.4-.2-1.5.3-1.4-.8-1.5.3-1.5-.1-1.4.3-1.4-1-1.5.4-1.4-.5-1.4-.6h-2.9l-1.4-.4-1.6.4h-1.4l-1.4-.8-1.5.6-1.5-.1-1.4-.4-1.4-.2-1.4-.5-1.5.3-1.5-.3h-1.4l-1.4-1.1-1.5.6-1.4-.9-1.5.3-1.4-.2-1.4-.2-1.5.7-1.4-.8-1.5.2-1.4-.2-1.5.3-1.4-.9-1.4.3-1.5.5-1.4-.7-1.5.4-1.4-.7h-1.4l-1.5.5-1.4-.8-1.5.4-1.4-.8-1.4-.1h-1.5l-1.5.3-1.4-.2-1.5.2-1.4-.8-1.4.2h-2.9l-1.4-.5-1.4.4-1.4-.3-1.5.5-1.4-.2-1.4-.4-1.4-.3-1.5 1-1.4-.3-1.4-.1-1.4-.5-1.5.6-1.4-.2-1.4-.3-1.4-.4h-1.5l-1.4.4-1.4.1-1.4-.1-1.5-.5-1.4.7-1.4-.8-1.5.2h-2.8l-1.4-.4-1.5.1h-2.8l-1.4-.2-1.5-.2-1.4.7-1.4-.8-1.5.6-1.4-.6-1.4.7-1.5-.8-1.4-.3-1.4.9-1.5-.9-1.4 1-1.5-.6-1.5.5-1.4.4-1.5-.8-1.4.3-1.5.5-1.4-.3-1.4.5h-1.5l-1.5-.8-1.4.3h-1.5l-1.4.8h-1.5l-1.4-.2-1.5-.3h-1.4l-1.5.9-1.4-.4-1.5.7h-1.4l-1.5-.4-1.4.6-1.5-.1-1.5-.7-1.4 1-1.5-.2-1.4.3-1.5-.9-1.4.6-1.5.6-1.4-.6h-1.5l-1.4.3h-1.5l-1.5-.1-1.4.7-1.5-.9-1.5.4-1.4-.2-1.4.3-1.5.7-1.4-1-1.5.2-1.4-.1-1.5.6-1.4-.7-1.4.4-1.5.2-1.4.3-1.5-.7-1.4.8-1.5-.4-1.4.4-1.4-.4-1.5-.2-1.4-.2-1.5.4h-1.4l-1.4-.3h-4.4l-1.4.3-1.5-.2-1.4.5-1.5-.6-1.4.6-1.4-.4-1.5.3h-1.4l-1.5-.5-1.4-.3h-1.5l-1.4.3h-1.5l-1.4-.3-1.5.9-1.4-1-1.5.5-1.4.2-1.5-.5-1.4.7-1.5-.3-1.4-.2-1.5-.3-1.4.5-1.4-.2-1.5.5-1.4-.2-1.4.3-1.4-1-1.5.5-1.4.1-1.4-.8-1.5.2-1.4.2h-2.9l-1.4.4h-1.4l-1.5-.1-1.4-.3-1.4-.5-1.5.8-1.4-.3-1.4.1-1.5.2-1.4-.4-1.4.3h-1.5l-1.4-.3-1.4-.2h-1.5l-1.4-.2-1.4.2h-1.5l-1.4-.4-1.4.1h-1.5l-1.4.3-1.4-.5-1.5.5-1.4-.6h-1.4l-1.5.3-1.4.4-1.5-.4-1.4-.3-1.4.3-1.5-.7h-1.4l-1.5.2h-1.4l-1.4-.5-1.5.7-1.4-.4-1.5.3-1.4.1-1.4-1h-1.5l-1.4.8-1.5-.1-1.4-.4-1.4-.4h-1.5l-1.4.7-1.5-.8-1.4.4-1.5.1-1.4-.4-1.4-.2-1.5.2-1.4.2h-1.5l-1.4-.4-1.5.5-1.4.1-1.5-.6-1.4.2-1.4-.4-1.5.6-1.4-.4-1.4.3-1.5-.5-1.4-.2-1.4-.3-1.5.5-1.4-.4h-1.5l-1.4.9-1.4-.7-1.5-.1-1.4.4-1.4-.6h-1.5l-1.4.3h-1.5l-1.4.5h-1.5l-1.4-1-1.4.2-1.4-.4-1.5.3h-1.4l-1.5-.1-1.4.6-1.5-.2-1.4-.3-1.4-.4-1.5.5h-1.4l-1.4-.7h-1.5l-1.4-.1-1.5.6-1.4-.8h-1.4l-1.4.1-1.5.5-1.4-.3h-1.5l-1.4.2-1.5.1-1.4-.5-1.4-.4-1.5.7-1.4.2-1.5-.1-1.4-1-1.5.7-1.4-.6h-1.4l-1.5.3-1.3.5-1.6-.6-1.4.1-1.3.8-1.5-.2-1.4.5h-1.4l-1.3.8-1.5-.5-1.4.7-1.4-.2h-1.5l-1.4.3-1.3.7h-1.5l-1.4.4-1.4.2-1.4.3h-1.4l-1.5-.4-1.3.9-1.5-.3h-1.5l-1.3.9-1.5-.2-1.4.4-1.4.4-1.3.4-1.6-.5-1.3.8-1.4.1-1.5-.3h-1.5l-1.3.9-1.4.1-1.5-.5-1.4.4-1.5-.2h-1.4l-1.5-.3-1.4.6-1.5-.7-1.4.8-1.5-.1-1.4-.7h-1.5l-1.4.7h-1.5l-1.4-.1-1.4-.4-1.5-.2h-1.4l-1.5-.1-1.5.6-1.4-.3-1.4.4-1.5-1-1.4.3-1.5-.3-1.4.3-1.5-.2-1.4-.3-1.5.6h-1.4l-1.5-.2-1.5.2h-1.4l-1.5.2h-1.4l-1.5-.3-1.4.3h-2.9l-1.5-.2-1.4-.9-1.5.1-1.4.1-1.5.6-1.4-1-1.4-.2-1.5.5-1.4-.8h-1.5l-1.4-.1-1.5-.2h-1.4l-1.5-.3-1.5.6h-2.9l-1.4-1.1-1.4-.1-1.5.7-1.5-.2-1.4-.6h-1.5l-1.4-.2-1.5.4h-1.4l-1.5-.4-1.4-.6-1.5.6-1.4-.5-1.5.3-1.5-.2-1.4-.5h-1.5l-1.4.2-1.5-.6-1.5.2-1.4.8-1.5-.7-1.5.5-1.4.2-1.5-.3-1.5-.5-1.4.3h-1.5l-1.5-.2-1.5.6h-1.4l-1.5-.4-1.4-.2-1.5.3-1.4.2-1.4-.4-1.4.2-1.4.5h-1.5l-1.4.1h-1.4l-1.5-.5-1.4 1.2-1.4-.6-1.5-.3-1.4.7h-1.4l-1.4.5-1.5-.4-1.4.6-1.4-.6h-1.5l-1.4.2-1.4.3-1.5-.6-1.3 1-1.5-.3-1.5-.4-1.3 1-1.5-.2-1.4.3-1.5-.5-1.4.7-1.4-1-1.4 1-1.4.2-1.4-.5-1.5-.1-1.4-.2-1.4 1-1.4-.8h-1.4l-1.4.1-1.5.3-1.4.2-1.4.3-1.4-.7-1.4.2-1.5-.3-1.3 1-1.5-.6-1.4-.2-1.4.8-1.4.2h-1.4l-1.5-.2-1.4.2-1.4-.5-1.4.5-1.4.3-1.5-.1h-1.4l-1.4-.9-1.5.2-1.4.1-1.4.8-1.5-.4-1.4.6-1.4-.1-1.5.1-1.4-.2-1.4.4-1.5.1-1.4-.1h-1.5l-1.4.2-1.4.6-1.4.3-1.5-.1-1.4-.3h-1.5l-.8.2v50.8l579-26.5 19.4-.7 33.3-2.2 24.6-1.6 23.7-.5 18.2.5 27.3 1.3 29.5.5h54.7l42-.7 46.3 1.7h27.7l51.3-.5 76-2.2 40.3 1.7 31.7 1.4v.1l13 .6 23 1h30v-.1h1l25-1 25 1h21l14.5-.8 17.5-.7 22 .5h19.5l12.5-2 16.5-1h32.3c1.2 0 2-.9 2-2 0-1-.8-1.8-2-1.8Z" fill="#4889C9" fill-rule="nonzero"/><path d="M869 754v-1s-5.2.2-12.3 1a20.3 20.3 0 0 0-18.6 3.3 45.2 45.2 0 0 0-11 3.6l.4 1c4.1-1.8 6.3-2.6 11-3.7v1.5h1V758c5-1.1 12.6-2.5 17-3v1.5h1V755c6.7-.7 11.5-.9 11.6-.9Z" fill="url(#a)" fill-rule="nonzero" transform="translate(1392.4)"/><path d="M5758.6 789.7h-1.5l-1.4-.3-1.4-1.1-1.4-.3-1.4.8-1.4-.8-1.5 1.5h-1.5l-1.3-.8a5 5 0 0 0-8.4-5.3c-1-1.7-2.7-2.9-4.8-2.9l-1.6.3v-3h-14.5v2h-.5c-1.4 0-2.7.5-3.6 1.4a6.7 6.7 0 0 0-10 2c-.6-.5-1.3-.8-2.1-.8a3 3 0 0 0-3.1 3v.5a3.2 3.2 0 0 0-2.6-1.3c-1 0-1.9.5-2.5 1.2-.4-1-1.5-1.8-2.8-1.8-1.2 0-2.2.6-2.7 1.5a3.2 3.2 0 0 0-5 .5 2 2 0 0 0-1.9-1.3 2 2 0 0 0-2 1.3l-.1-.2c0-.6-.6-1.1-1.3-1.1-.7 0-1.3.5-1.3 1v.4l-.4-.5c0-.7-.6-1.2-1.3-1.2-.6 0-1 .4-1.2.9a2 2 0 0 0-1.7-.9 2 2 0 0 0-1.5.6 1.4 1.4 0 0 0-1.4-.3l-.5-.4h-.6a2 2 0 0 0-1.4-.5 2 2 0 0 0-2 1.6l-.4.1-.1-.1v-.2c0-.6-.6-1-1.2-1.1h-.1c-.4 0-.7.1-.9.3a2 2 0 0 0-1.7-1 2 2 0 0 0-2 1.7l-1.2-1.3-1.4-.2-.5.5-.3.3-.7.9-.5-.3c0-1-1-1.8-2-1.8a2 2 0 0 0-1.3.5 1.3 1.3 0 0 0-1.4-.3l-.5-.2-.4.4a2 2 0 0 0-2.4-.7c-.3-.2-.6-.4-1-.4s-.8.2-1 .4a2 2 0 0 0-2.3.1l-.1-.2-.2.1c-.2-.2-.5-.4-1-.4s-1 .3-1.2.8a2 2 0 0 0-2.7-.2l-.7-.4h-.1a3.3 3.3 0 0 0-2.3.3l-.5-.2-1.4-.2-1.5.4-1.4-.7-.2.4c-.3-.3-.6-.4-1-.4-.7 0-1.3.5-1.3 1v.3l-.4-.2-1.3-1.2-1.5 1-1.3-1c-.4-.6-1.2-1-2.1-1-1 0-1.8.5-2.2 1h-.3c-.4-.2-.9-.4-1.5-.4-.5 0-1 .2-1.3.4l-.9.3c-.2-.3-.5-.5-1-.5-.3 0-.6.1-.8.4 0-.7-.7-1.1-1.5-1.1-.5 0-1 .1-1.3.4a4 4 0 0 0-6.6-3c-1-1-2.4-1.7-4-1.7-3 0-5.4 2.4-5.4 5.4h-1a3.5 3.5 0 0 0-6-1.9 5.2 5.2 0 0 0-3.6-1.4c-1.4 0-2.7.6-3.6 1.4a3.2 3.2 0 0 0-6.2 1l-.8-.2-1.5-.4-1.4.5-1.4-1-1.5-.6-1.4-.1-1.1.5a2.7 2.7 0 0 0-4-.4h-2.2l-.8.3a2.7 2.7 0 0 0-2.7-.4l-.8-.5-1.5 1-1.4-1.1c-.5-.5-1.3-.8-2-.8-1.4 0-2.4.8-2.7 2l-.7-.6c0-1.2-1-2-2.2-2-.6 0-1 .1-1.4.4a2.8 2.8 0 0 0-2.4-1.4c-1.1 0-2.1.7-2.5 1.6-.5-.3-1.1-.4-1.8-.4-1.1 0-2.1.5-2.7 1.2-.2-.9-1.6-1.6-3.1-1.6-1.1 0-2 .3-2.6.8l-.4-.4-.8.4c-.5-.2-1-.3-1.6-.3-.9 0-1.6.2-2.1.6V760h-7.4v16.6a5 5 0 0 0-2.5-.6c-1.8 0-3.3.8-3.4 2l-1 .7-1.5-.2-1.4-.2-1.5-.2-1.4.5-1.4.1-1.4.2-1.4-.5-1.5-1-1.4 1.6-1.4-.8h-.2l.1-.8c0-1.3-.8-2.3-2-2.3-1 0-1.9 1-1.9 2.3 0 .5.2.9.4 1.3l-.7-.3-1.4.3h-1.4l-1.4.1-1.4.1-1.5-1.2-1.4 1.6h-1.4l-1.4-.5-1.4.7-1-1c-.3-1-1.8-1.8-3.6-1.8-1.9 0-3.4.7-3.8 1.7l-.1-.1h-1.5l-1.4.7-1.4-.3-1.4-.4-1.4-.3-1.5 1.5h-7.1l-.8-.6v-.2c0-1.6-2.1-3-4.8-3v-10.1h-13.8v12.4l-.6.4h-1.4l-1.5-.1-1.4-.5h-1.4l-.8.2.2-1.4c0-3-2.5-5.4-5.5-5.4a5.4 5.4 0 0 0-5.2 7h-.1l-1.4.2-1.4-1.6h-1.5l-1.5-.2-1.4.5-1.4 1-1.5-1-1.5.4-1.5-.3-1.4-.1-1.5.3-1.4 1.4-1.4-.3-1.6-1-1.3 1.7-1.5-.5-1.5.4-1.5-1.2-1.4.6-1.5.3-1.4.5-1.5.1-1.4.1-1.5-1.3-1.5 1.5-1.4-.3-1.5-.4-1.4-.8-1.5.3-1.4 1.5-1.5-1.7-1.5 1.2-1.4-1-1.5.3-1.4-.5-1.5 1.7-1-.7c-1-2-3.4-3.5-6.3-3.5-2.7 0-5 1.3-6 3.1l-1.2-.7-1.4 1-1.5-.4-1.4 1.1-1.5-.5-1.4-1.2-1.4 1.7c-.7-1.6-3.1-2.8-6-2.8-2.5 0-4.6.8-5.7 2l-1.4.2-1.5-.6-1.4-.7h-1.4l-1.5.9-1.5-.3-1.4-.1-1.5.5-1.4-1-1.4-.6-1.5.2-1.5 1-1.4-1.5-1.5 1.3-1.5.4-1.4-1.1-1.4.1h-1.5l-1.4-.7-1.4-.2-1.5.6-1.5-.7-1.5 1.1-1.4-.8-1.4-.7-1.4.2-1.5 1-1.5-.5-1.4.3-1.4-1-1.5-.2-1.5 1.5-1.4-.1-1.4-1.9-1.5.2h-1c-.3-1.5-2.2-2.6-4.4-2.6-1.5 0-2.9.5-3.7 1.3a4.9 4.9 0 0 0-5.8-.7 4 4 0 0 0-3-1.3c-.6 0-1 0-1.5.3-.6-.3-1.2-.5-2-.5-1.7 0-3.1 1-3.8 2.3a3 3 0 0 0-2-1 3 3 0 0 0-2.4 1.4l-.9-.1-1.4.3h-1.5l-1.4.4-1.5-.2-1.4-.1-1.5 1-1.4-.4-1.5-.3-1.4.4-1.5-.5-1.4.7-1.5-1.8-1.4.6-1.5-.5-1.4 1.1-1.5-.3-1.4.2-1.5-.4-1.4-.6-1.5-.3h-1.4l-1.5 1.5h-1.4l-1.5-1.2-1.4-.2-1.5 1.5-1.4-1.2-1.5 1.1-1.4-.6-1.5.2-1.4-.4-1.5.8-1.1-1c-.5-1-1.2-1.5-2-1.5-1 0-1.8.9-2.2 2.2l-.5-.2-1.4-1h-1.5l-1.4 1a3 3 0 0 0-2.7-1.7c-1 0-2 .6-2.5 1.4l-.7.2-1.4-.7-.8.6c-.4-1.4-2.2-2.5-4.4-2.5-1.8 0-3.3.7-4 1.8l-1 .1h-1.4l-1.4.5-1.5-.4-1.4.8-1.5.3-1.4-.4-1.5-.7-1.4.9-1.5-1.3-1.4 1.2-1.4-.4-.6.3a3.3 3.3 0 0 0-3.3-2.4c-1.3 0-2.4.8-3 1.8l-.4-.4-1.4.5-1.5.8h-1.4l-1.4-1-1 .8c-1-2-3.4-3.3-6.2-3.3-2.4 0-4.6 1-5.7 2.6h-1.5l-1.4-.4-1.5.8-1.4.3h-1.5l-1.3-1.4-1.5 1.1-1.4-.2h-1.5l-1.4-1.3-1.4.1c-.3-1.9-1.5-3.3-3-3.3-1.2 0-2.3 1.2-2.7 2.8l-1.5 1.1-1.4-.3-1.4.1-1.5.6-1.4-.7-1.4.3-1.4-1.7h-1.4l-1.5 1h-.6c-.3-1.5-1.8-2.7-3.6-2.7-1.4 0-2.6.7-3.2 1.6-.7-1-2-1.6-3.5-1.6-1.9 0-3.5 1-4 2.5l-.8.5-1.4-.6-1.4-.3-1.4-.8-1.4.4-1.4-.7-1.4 1-1.4-.7-1 .2c-.6-1-1.7-1.6-3-1.6-1.2 0-2.3.5-3 1.2l-1.5-.2-.7.3c-.8-.8-2-1.3-3.2-1.3-1.2 0-2.4.5-3.1 1.2h-.1l-1.5.9-1.4-1.5-1.4 1.4-1.5.2-1.4-.7-1.4-.6-1.5-.1-1.4 1.4h-1.4l-1.5-1.5-1.4.3-1.4.5-1.4-.5-1.5 1.2-1.4-.8-1.4.1-1.5.4h-1.4l-1.4-1-1.5.6-1.4-.5-1.4-.8-1.5.6-1.4.5h-1.5l-1.4-1.2-1.5.8-1.4-.8-1.4.3-1.5.1-1.4.2-1.4-.8h-1.5l-1.4.4-1.4-.5h-1.5l-1.4-.4-1.4-.5h-1.4l-1.5.5-1.4-.8-1.5.3-1.4.1-1.4-.6-1.6 1.3-1.3-.9-1.4-.4-1.5-.4h-1.4l-1.5.7h-2.9l-1.4.3-1.5.2-1.3-1.5-1.5.2-1.5 1-1.3-1.8-1.5.5-1.4-.5-1.5.9-1.4-.5-1.5 1-1.4-.6-1.4-.6-1.4-.5-1.6 1.2-1.3-1-1.5.2-1.5.7-1.3-1.6-1.6 1.4-1.4-.5h-1.4l-1.5.3-1.4-.1-1.4-.6-1.4-1h-1.5l-1.4.4-1.5-.8-1.5 1.1-1.3-1.1-1.5.8-1.4-.4-1.5.4-1.4-.1h-1.5l-1.4-.2-1.4-.6h-1.5l-1.4.6-1.5-.4-1.4-.4-1.4-.8-1.5.8-1.4-.8-1.5 1.2-1.4-1.2-1.5.4-1.4.4-1.5.7-1.4-1.2-1.5 1-1.4-.3-1.5.2-1.4-1.7-1.4 1.3-1.5.4-1.4-.5-1.5.5-1.4-1.8-1.5 1.2-1.4-.3-1.4-.2-1.5.2h-1.4l-1.4-1.3-1.5.9-1.5.9-1.4-1.7-1.4.4-1.4-.6-1.5 1.5-1.4-1.2-1.4-.4-1.5.9-1.4-1h-1.5l-1.4 1.1-1.4-.9-1.5 1.3-1.5-.2-1.4-.6-1.4-.5-1.5-.2-1.4 1.4-1.5-.3-1.4.3-1.4-1.6-1.5-.1-1.4.7-1.4-.6-1.4.8-1.4.3-1.4-1.4-1.4.6-1.3.8-1.4-1.3-.2.2V762H4828v1.8l-1 .7-1.3-1.5-1.5 1.2-1.4-.4-1.4-.3h-2.9l-1.5.3-1.4-.6h-2.9l-1.4.2-1.4-1.3-1.5 1.2-1.4-.8-1.1-.2V761h-9.9v.8l-.6.4-1.4-.8-1.4-.2-.9-.3v-.9h-7.5v1.2l-.4.2-1.4-.5-1 .5V759h-7.8v1.3l-1.1.4c0-1.8-1.6-3.3-3.6-3.3a3.5 3.5 0 0 0-3.6 3l-1.5.9-1.4-1.3-1.4 1.2h-1.5l-1.4-1-.7.4c-.2-1.8-1.6-3.2-3.3-3.2-1.8 0-3.2 1.4-3.4 3.3l-1.2.6-1.4-.1-1.4.5-1.5-1.2v-.6h-10v1l-1.4.5-1.5-.2-1.3.9-1.5-.5h-.6v-.8h-11.4v2.1l-.8.2-1.4.4-.4-.2v-2h-10.2v2.2l-1-.8-1.2.7V761h-8.8v2.3h-.1l-1.5-.8-1.4.8v-1.9h-8v1.7l-.7-.2a6 6 0 0 0-4.6-1.8c-2.3 0-4.3 1.1-5 2.7l-.5-.2-1.4-.6-1.4.2-1.4 1-1.4-1.5c-.8-1-2-1.6-3.5-1.6-1.6 0-3 .9-3.8 2h-.1c-.6-1.7-3-3.1-6-3.1-2.3 0-4.4.9-5.4 2.2l-1.1.2-1.4-1h-1.5l-1.5.5-.5-.3v-.2c0-1.5-1-2.8-2.4-2.8s-2.5 1.3-2.5 2.8v.1l-.6.8-1.4-1-1.6.3-1-.8v-6h-24.5v5h-.3l-1.4-1-1.5.2h-1.4l-1.3 1.4-1.5-1.2-1.4.3-1.5-.7-1.3 1.7-1.5-1.6-1.4 1.4-1.2.4V757h-12.5v4.1l-.4.3-1.5-.8-1.5-.3-1.3 1.4-1.4.6-1.5-.3-1.6-.8-1.4.6-1.5-.2h-.5c-1-1.8-3.3-3-5.9-3-2.8 0-5.1 1.4-6 3.4-.4-.5-1-.8-1.6-1.1v-7h-7.8v2.7h-5.4v-2.2h-13.7v2.8h-8.1a22.6 22.6 0 0 0-9.7 1v-3h-8.7v-4.5h-12.6v7h-1.4v-5.9h-9.5v-5h-3.1v-3.5h-5.7v3.5h-3.3v6h-3.8v3.2h-4.9v-14.5h-2.8v12.7h-7v-16.5h-2.3v-.7l1.3.5.4-1-9-3.5-.4 1 .6.2v3.5h-1v10.5l-4-.2v-19.2h-7V748l-7.4-.8v3.5h-10.4v-15.4l-6 5h-2.3v3.9h-9v-15a13.3 13.3 0 0 0-10.9 0v15h-8.8v7h-2.7v-15.4h-3.6v-2.1h-5.2v2.1h-.8v13h-9V745l-7.5 4v3.3h-6.7v-1.8h-6.8v-3.7h-9.7v1.4h-7.3v2.8h-3.6v-2.6h-4.7v-9.6h-.5v-12h.6l.4-6h.9l.1-1.7h1.5v-1.3h-2.7l-1-3.8 1-1.6h-1.4l-.4-1.7h-.4V694h-1v16.7h-.4l-.4 1.7h-1.4l1 1.6-1 3.8h-2.7v1.3h1.4l.1 1.6h.9l.4 6h.5v12h-5.3V751h-8.1v-3.3h-13.5v6.7h-9.5v2.8l-1 .1-1.5.9-1.4.4-1.4-.7-1.4.7h-1.5l-1.4-.5h-4.3l-1.5-.3-1.4 1.4-1.5-1.2-1.4 1.2-1.4.2-1.5-1-1.5-.2-1.4.2-1.4.8-1.5-.4-1.5-.7h-1.4l-1.4 1.4-1.5-.7-1.4.7-1.5-.6-1.5-.3h-1.4l-1.4 1-1.5-.5-1.5-.3-1.3 1.6-1.5-.3-1.5-1.3-1.4 1.3-1.5-.4-1.4-.5-1.4.8h-1.5l-1.5-.7-1.4.7-1.5-.7h-1.4l-1.4 1.2-1.4.7-1.5-1.1-1.4.9-1.5-1-1.4 1.5h-2.9l-1.5-1.2-1.4 1.2h-1.4l-1.5-.7-1.5-.2-1.4-.4-1.4 1.6h-1.4l-1.5.1-1.5-1-1.4-.2-1.5 1.3h-1.4l-1.5.3h-1.4l-1.5-1.2h-1.4l-1.5.6-1.4-1.3-1.5 1.7-1.4.1-1.5-.6-1.4-.6-1.5 1-1.4-.3-1.5.4-1.4-1.9h-1.4l-1.5 1.3-1.4-.2-1.5-.7-1.4-.1-1.5 1.1-1.4-.4-1.5.1-1.4-.2-1.4-.9-1.5.4-1.4.5-1.5-.7-1.4.6-1.5-.6-1.4.7-1.4-.1-1.5-.9-1.4.6-1.5 1.2-1.4-1.2-1.5-.6-1.4.4-1.5.7-1.4.4-1.4-1.2-1.5.9h-1.4l-1.5-1-1.4 1.1-1.5-.4h-1.4l-1.4-1-1.5.2-1.4-.3-1.5 1.1-1.4-.5-1.5.5-1.4-.9-1.5 1-1.4.4-1.4-1.6h-1.5l-1.4 1.6-1.5-.7-1.4.7-1.4-1.7-1.5 1.1h-1.4l-1.5.4-1.4-.5-1.5-.8-1.4 1.3h-1.5l-1.4.1-1.4-.7-1.5.6-1.4-1-1.5.5-1.4.5-1.4-1-1.5-.7-1.4.2-1.5 1h-1.4l-1.4.2-1.5-1.2-1.4 1.6-1.5-1.7-1.4.1-1.5 1.2-1.4-.6-1.4.3-1.5.7h-1.4l-1.5-1.8-1.4.3-1.5 1.3h-1.4l-1.4-.6-1.5-1-1.4 1.2-1.4-.8-1.5-.3-1.4 1.6-1.5-1.6-1.4 1-1.4-1-1.5 1.2-1.4-1.1-1.4.1-1.5-.1-1.4.8-1.5-.2-1.4-.4-1.4-.5-1.5 1.6-1.4-.6-1.5-.7-1.4.7-1.5-1-1.4 1h-1.4l-1.5-.7-1.4.6-1.5.2-1.4-.9-1.4 1.2-1.5-.5-1.4.7-1.4-1.7-1.5 1.6-1.4-1-1.5.5-1.4.3-1.5-1-1.4-.7-1.4.2-1.5.2-1.4-.3-1.4.2-1.6 1.2-1.4-1.2-.3.2v-4h-6.8v3.8l-.2.2-1.4-.6-1.5-.3h-.4v-2h-7.7v1.5l-.6.3h-1.5l-1.3-.5-1.4.5-1.4-.8-1.4.7-1.4-.7-1.3-1v-1.2h-5.5v1.3h-.2l-1.4.3-.3-.1v-1.3h-10v1l-1 .6-1.4.4-1.4-.4-1.4-.5-.8.5v-1.8h-6.1v1h-.2l-1.4.8-1.4.3-1.5-.1h-1.4l-1.4-.8-1.5.6-.6.2v-1.8h-8.6v-9.9h-6.7v11.4h-.1l-1.5 1.2-1.4-1.4h-1.5l-1.5 1-1.4-.6-1.5 1.1-1.4-1-1.5-.5-1.4.8-1.3-.1v-2h-5.5v1.8h-.5l-1.4-1.1-1.5.7-1.5-.6-1.4 1h-1.5l-1.4.5-.5-.1v-12h-6.1v12.5h-2.3v-.8h-4.6v-2h-5.8V1053h1920V788.4l-1.4 1.3Zm-1321.3-55.1 1 .4v2.7h-1v-3.1Zm2 .8.7.2v2h-.6v-2.2Zm1.7.6 1.4.6v1h-1.4V736Z" fill="#1B4787" fill-rule="nonzero"/><path stroke="#0B2159" stroke-width=".3" d="m5983.4 749.5 1.2-4.7 1.3 4.7"/><path d="M6491.7 818.6a3.6 3.6 0 0 0-3.5-4.5 3.6 3.6 0 0 0-3.5 4.5h-.3v-4.2h-3.6v3.3l-.6-.4v-7h-7v-4.5h-7.8V800h-5.4v6.2l-2.5-1.4-.5-.1V801h-1.1v-.1a4.2 4.2 0 0 0-8.4-.9h-4.6v-3.2h-7.4V795h-2.4v-.3a3 3 0 1 0-5.5 1.3h-2.3v-1h-7.8v-2.2h-7.5v-1.5h-7.2c-.4-2.4-2.7-4.2-5.6-4.2-2 0-3.9 1-4.8 2.5a8.8 8.8 0 0 0-6.5-2.5c-2.3 0-4.3.7-5.8 1.9a7.1 7.1 0 0 0-5.5-2.4 8 8 0 0 0-3.3.7 6 6 0 0 0-7.9-1.5 8.6 8.6 0 0 0-9.5-1.5 8.4 8.4 0 0 0-7.2-3.9 9 9 0 0 0-4.8 1.4 7.5 7.5 0 0 0-6.2-3c-1.8 0-3.5.6-4.8 1.6a12 12 0 0 0-6.7-2 12 12 0 0 0-7 2 7.8 7.8 0 0 0-5-1.8 7.6 7.6 0 0 0-6.2 3 7.5 7.5 0 0 0-5-1.8c-2.2 0-4.2 1-5.5 2.4a9.5 9.5 0 0 0-7.4-3.4c-3.6 0-6.8 1.9-8.3 4.7-2-1.7-4.9-2.7-8-2.7-3.3 0-6.1 1-8.1 2.7a6.8 6.8 0 0 0-5.4-2.7c-1.9 0-3.6.8-4.8 2.2a10.2 10.2 0 0 0-8.2-3.8c-2.3 0-4.5.7-6.2 1.9-1.6-3-5.4-5-9.8-5-4.1 0-7.7 1.8-9.5 4.4a7.9 7.9 0 0 0-6.6-3.1c-.6 0-1.3 0-2 .2a6.5 6.5 0 0 0-6.5-5.6c-2.1 0-4 1-5.2 2.6-.7-.6-1.6-1-2.6-1a4 4 0 0 0-3.3 2 3.4 3.4 0 0 0-4.3 0 4.6 4.6 0 0 0-5.6 0c-.9-.8-2-1.4-3.5-1.4-1.3 0-2.5.5-3.3 1.3-1-1.4-3-2.4-5.3-2.4-2.8 0-5.1 1.5-5.9 3.4a7 7 0 0 0-3.7-.9c-.7 0-1.4 0-2 .2-.5-1-1.8-1.7-3.4-1.7-1.6 0-3 .8-3.4 2 0-1.7-1.8-3-4-3-1.4 0-2.7.5-3.4 1.3-.8-1.5-2.6-2.6-4.7-2.6-2 0-3.7 1-4.5 2.3-1-1.5-3.3-2.5-6-2.5-1.7 0-3.3.4-4.5 1.2l-.1-8-10.2-.2-1.7 1v4.8l-4.2-1.6.3-1.5c0-2.7-2.6-4.9-5.8-4.9a6 6 0 0 0-5.2 2.6l-5.5-1.5-8.5-1.3-10.8-.2-8.3-1.2c-.6-2.7-3.5-4.7-6.9-4.7-1.4 0-2.7.3-3.8 1l-1-.6c-.5-1.3-2-2.2-4-2.2-.3 0-.7 0-1 .2l-1.1-.4c-.6-1.4-2.7-2.4-5.2-2.4-1 0-2 .1-2.8.4l-1.4-.3c-.3-1.1-2.2-2-4.6-2a7 7 0 0 0-3.7 1l-5.3-.5-6.8.3-4-.4c-.6-1.3-2.2-2.2-4-2.2a5 5 0 0 0-3.7 1.4h-23.6l-15.2 1h-12.9c-.4-1.2-1.5-2.2-2.8-2.2-1.6 0-2.9 1.4-3 3.2l-10.8 1.9-1.3.7c-.2-.4-.6-.6-1-.8-1.4-.6-3 .2-3.7 1.8-.3.6-.4 1.2-.3 1.8h-.2l-1.1-.1c-1.2 0-2.2.5-2.9 1.4a3 3 0 0 0-2.6-1.7c-1.8 0-3.1 1.5-3.1 3.4v.6l-1.3-.2c-2.2 0-4 1.6-4 3.5v.1a5 5 0 0 0-1.1-.1c-2.4 0-4.4 1.6-4.4 3.7a3 3 0 0 0-1-.2c-1.7 0-3.1 1.5-3.4 3.4-.6-.3-1.3-.4-2-.4-2.5 0-4.5 1.9-4.8 4.3h-1a5.8 5.8 0 0 0-5.6 4l-.5.2a6.3 6.3 0 0 0-9 3.3l-2.2.8-2.3.2a4.1 4.1 0 0 0-7.9.8l-3.3.3-1-.1a5.1 5.1 0 0 0-8.1-.9l-1.7-.2-6.7-.1a5.1 5.1 0 0 0-9.1-.2h-.9l-21.5 3.6-9 1.7a6.2 6.2 0 0 0-10.6-.5l-6-2-3.3-1.4a8.5 8.5 0 0 0-16-.4h-.1l-6.3 1a7.1 7.1 0 0 0-8.2-1V1053h996.6l-61.5-53-204.9-176.3h3.6v-5h-2ZM5984.6 744.8l-.8 3h1.7z" fill="#0B2159" fill-rule="nonzero"/><path d="m6652.7 839.7-7.7-11a95.3 95.3 0 0 0-16-15.3l-8.7-7.2a11.9 11.9 0 0 0-6.6-5.2c-3.1-1-6.3-1-8.5 0l-3.2-1h-3.4c-.8-2.1-3.2-3.7-6-3.7-2.7 0-5.1 1.6-6 3.8l-3.5.6c-1-1-2.8-1.3-4.5-.6-.7.2-1.3.7-1.7 1.1-.7-1.2-2.2-2-3.9-2-1.4 0-2.6.5-3.4 1.3-.6-.3-1.3-.5-2-.5-2 0-3.7 1.4-4.5 3.4a6.6 6.6 0 0 0-5.1-2.4c-2.7 0-5 1.6-6 3.9a7.5 7.5 0 0 0-6.5-3.9c-2.7 0-5 1.5-6.4 3.7a7.6 7.6 0 0 0-11 2c-1.4-2.4-4-4-7.2-4a8.3 8.3 0 0 0-6.4 2.8c-.9-.2-1.8-.3-2.8-.3-5.5 0-10 3.7-10.5 8.4l-1.8-.2c-4.6 0-8.3 3-8.7 7l-22 4-51 24.4-375 204.2h770l-160-213.3Z" fill="#09174D" fill-rule="nonzero"/><path d="m7135.1 864.2-50.1-14.3-52-21.8-36.5-17.1-16-10.5-12.6-8.4c.3-.7.5-1.4.5-2.2 0-3.6-3.7-6.5-8.2-6.5-1.5 0-3 .4-4.2 1l-2.6-1.6c.4-.8.6-1.7.6-2.5 0-3.6-3.6-6.5-8.1-6.5-2.1 0-4 .6-5.4 1.6l-7.5-3.4a7 7 0 0 0-5.8-2.6c-.8 0-1.7.1-2.4.4l-2.8-.8-13 .5-6.7-2.9a8 8 0 0 0 .2-1.7c0-5-4.5-8.9-10-8.9-2.2 0-4.2.6-5.8 1.6-1.4-4-6.1-7-11.8-7-5 0-9.2 2.3-11.1 5.6l-9.8 1.8-22 1-14-.5-1.5.2c-.7-2.1-3.2-3.7-6.3-3.7-3.5 0-6.5 2.2-6.5 5l.1.7-5.3.8c-7.6 1.9-12.4 3.2-14.5 4.1-3 1.3-22 10.9-27.4 14.7-5.4 3.7-16.6 15.4-23.6 19.7a2945 2945 0 0 1-83.5 45.9L6258.3 1053H7680l-441.8-155-103.1-33.8Z" fill="#09174D" fill-rule="nonzero"/><path d="M9584 123.7a5.6 5.6 0 0 0-11-1l-21.3-1.7a2.7 2.7 0 0 0-4.5-.4l-10.7-1v-.2a3.5 3.5 0 0 0-4.6-3.4 4.3 4.3 0 0 0-7.6-1.6 4.8 4.8 0 0 0-8.6-.6 5.6 5.6 0 0 0-9.1 0 5.7 5.7 0 0 0-10-1 7.2 7.2 0 0 0-13.2 2.7h-.5a9 9 0 0 0-15.6-8.3 12.3 12.3 0 0 0-22-7.6 9.7 9.7 0 0 0-15.7 2.3 11.6 11.6 0 0 0-19.1 1.7 10.1 10.1 0 0 0-16.9-5 10 10 0 0 0-18-4.1 8.7 8.7 0 0 0-14-1.5 9.9 9.9 0 0 0-18.6 3.7 11.4 11.4 0 0 0-13.5 5.6l-.4-.3a8 8 0 0 0-9.1-13.1 9.7 9.7 0 0 0-18.9 2.7 11.7 11.7 0 0 0-20 5.2 12.3 12.3 0 0 0-15.6 2.2 7 7 0 0 0-11.4-7 8.4 8.4 0 0 0-14.1-.7 9.3 9.3 0 0 0-14.5-3.4 15.2 15.2 0 0 0-27.3 3.5 7.4 7.4 0 0 0-10.6 2.4 8.4 8.4 0 0 0-9 3.2 9.6 9.6 0 0 0-15.7-1.7 6.5 6.5 0 0 0-8.5-2.6 9.6 9.6 0 0 0-9.5-5.7 8.4 8.4 0 0 0-11.2-4 9.7 9.7 0 0 0-16.2-2.5 10.6 10.6 0 0 0-19-1.3 10.9 10.9 0 0 0-19 .3 12.2 12.2 0 0 0-22 2h-1.3a10 10 0 0 0-14.7-.8l-2.9-.2a10 10 0 0 0-13.2-.7h-1.2a8.8 8.8 0 0 0-12.2-2.5 9.7 9.7 0 0 0-14.8-4.2 12.6 12.6 0 0 0-21.4-7.8 12.4 12.4 0 0 0-18.5-.3 17.3 17.3 0 0 0-20.6-1.1 15.6 15.6 0 0 0-20.5-2.2 7.9 7.9 0 0 0-7-1.4 16.1 16.1 0 0 0-25.7 2.5 8.3 8.3 0 0 0-11.5 1.1 7.4 7.4 0 0 0-10.9.1 8.4 8.4 0 0 0-7.3-4c-2.4 0-4.5 1-6 2.4a14.8 14.8 0 0 0-21-12.2c-1.9-4-6.2-6.8-11.1-6.8-6 0-11.1 4.1-12.2 9.5-1.8-1.7-4.8-3-8.2-3-3.4 0-6.5 1.3-8.3 3.1l-4.7-3.3-5.7-2.3a5 5 0 0 0 1.5-3.5c0-3.3-3.7-6-8.2-6-2.7 0-5.1 1-6.6 2.4l-8-2.3c-3-.9-5.2-.6-8.3-1-3.1-.4-7.3-3.7-7.3-3.7s-6.5-4.3-12-5.6c-3.9-1-13.6-1.6-19.3-1.8v-1.2l-1.7-3V3.2l-1.4-3.2-1.5 3.2v18.5l-1.7 3.1V26l-12.6 2c-5 .8-14.1 5-18.5 7l-10.4 4.2c-.2-3.9-3.4-7-7.4-7a7.4 7.4 0 0 0-7.4 7.4c0 1.2.3 2.4.9 3.5l-21-2c.3-.8.4-1.8.4-2.8 0-4.4-3-8-7-8-3.7 0-6.8 3.6-6.8 8l.1 1.7h-16a8 8 0 0 0-14 .1l-5.7 1.2c-.3-4.2-3-7.4-6.1-7.4-2.2 0-4.1 1.5-5.2 3.8a8.6 8.6 0 0 0-14 5.5 14 14 0 0 0-5.3-1c-4.7 0-8.6 2.1-9.3 4.9-.7-.2-1.4-.2-2.2-.2-3.7 0-6.7 1.8-7.3 4.1a7 7 0 0 0-3.7-1 6.4 6.4 0 0 0-5.4 2.7c-1.1-2.1-5-3.7-9.5-3.7-2.8 0-5.3.6-7.1 1.6-.9-1-2.3-1.6-3.9-1.6-1.2 0-2.4.4-3.3 1-.2-2-2.4-3.8-5.2-3.8l-1.6.3c-.9-2.3-3.8-4-7.3-4-4.2 0-7.6 2.4-7.6 5.4 0 .3 0 .5.2.8-2.8-.1-6-.2-8.8 0-2.7-5.2-9.1-8.2-16-7-7.1 1.2-12.4 6.8-12.6 13l-1 .3-23.8 6.5c2-1.4 3.1-3.5 3.1-5.8 0-4.2-4.2-7.7-9.4-7.7-3.7 0-7 1.8-8.5 4.4a12.3 12.3 0 0 0-7.7-2.5c-1.7 0-3.2.3-4.6.8a16 16 0 0 0-10.2-3.4c-7.4 0-13.4 4.3-13.4 9.6 0 .7 0 1.3.3 2-3.5.5-6.3 3-6.7 6l-.1.1c-6.3 0-23.5 2.8-35.3 4.9a35 35 0 0 0-7.2-.7c-8 0-14.6 2.4-16.5 5.7-1.2-.4-2.4-.6-3.7-.6-4.7 0-8.6 3-8.6 6.5l-3.4-.1c-7.6 0-13.8 2.6-14.8 6a12.3 12.3 0 0 0-6.1-.2 4.2 4.2 0 0 0-3-1.3 4.4 4.4 0 0 0-4.3 3.7 5.6 5.6 0 0 0-7 5.1c-1.7-.4-3.5-.7-5.4-.7-7.9 0-14.2 4.2-14.2 9.3 0 .5 0 1 .2 1.4a12 12 0 0 0-5.5-1.3c-4.4 0-8.2 2.2-9.8 5.5a12.6 12.6 0 0 0-6.6-1.9c-6 0-11 4.3-12.1 9.8l-2-.1c-8.4 0-15.2 5.5-15.2 12.3v1.3c-1.5-1-3.5-1.6-5.7-1.6-4.6 0-8.5 2.8-9.4 6.4a13.3 13.3 0 0 0-7.7-2.4c-5.7 0-10.5 3.4-12 8a16.7 16.7 0 0 0-8.7-2.3c-7.1 0-13.1 4.3-15.3 10.4a16.1 16.1 0 0 0-24.6 4.7 16.2 16.2 0 0 0-14.6 3.3 17 17 0 0 0-30.5 4l-1.5-.1c-2.4 0-4.6.8-6.4 2.2a13 13 0 0 0-23.5 6 14.5 14.5 0 0 0-24.7 6.5 12.6 12.6 0 0 0-22.4 1.6 16.3 16.3 0 0 0-30.3 8.4v.8c-2-1.7-4.4-2.8-7.2-2.8-4.8 0-8.8 3.2-10.3 7.7-2.8-3.1-7.1-5-11.9-5-7 0-12.9 4.1-14.9 10a15.5 15.5 0 0 0-11-4.2c-7.4 0-13.4 4.2-13.4 9.4l.1 1.3a12.5 12.5 0 0 0-21.2-.2c-1.9-4.7-6.3-8-11.4-8-6.1 0-11.2 4.8-12.3 11a15.2 15.2 0 0 0-13.5-8.7c-6 0-11.3 3.8-13.8 9.3a16.3 16.3 0 0 0-14.4-9.3c-7 0-12.8 4.7-15.3 11.3-6.1.2-11.5 2.8-15 6.6a21 21 0 0 0-19.5-13 21 21 0 0 0-20.2 15 24.5 24.5 0 0 0-30.5-4V1053h1920V125.1l-16-1.4Z" fill="#03082B" fill-rule="nonzero"/><path d="m1392.4 723.5 144.9-8.8c38.2-2.3 60-3.5 65.6-3.5 17.4 0 30-.4 37.6-1.3 15.8-2.8 26.5-4.6 32.3-5.4 16-1.2 25.5-2.5 28.7-4a89 89 0 0 1 14-6 60.7 60.7 0 0 1 18-1.8c8 0 13.8.8 17.4 2.2 9.3 3 16.4 5 21.2 5.9 17.3 3 30.5 4.8 39.6 5.7 22.1 2.8 38 4.6 47.5 5.4 32.8 2.3 53 3.5 60.8 3.6v13.4c-77.4-.3-130.6-.6-159.7-1-34 0-57.6-.1-70.7-.5-23.4-.8-40.8-1-52-.4-28.8-.5-47.4-1-55.7-1.7-17-1-32.2-1.3-45.6-1-31 .8-51.2 1.1-60.4 1-9.2 0-37-.6-83.5-1.8Z" fill="#659DD2"/><path d="m0 752.7 732.8-49.3c3.4-.4 3.9-1.5 7.6-1.6l439.7-5.8a377.7 377.7 0 0 0-57.7-5.5c-23 0-26 1-36.8 1-10.8 0-27.6.1-40.7.3-13 .2-63.9 3.2-71.4 3.2-7.6 0-6.3-1.4-11.7-1.4-5.4 0-19 .7-24.3.7-5.2 0-32.5-.8-41.9-1.6-9.4-.9-17-3.3-21.5-3.3s-10.3 1.5-14.9 1c-4.5-.4-10.8-1-16.6-1-5.8 0-23.7.5-30 0-6.4-.4-30-1.9-36.3-1.1-6.2.8-16.4 3.8-23 3.5-6.6-.2-28.7-6.8-32.2-7-3.4-.3-14.4-.5-23 1.2-8.5 1.7-13.8 3.7-20.8 4.2-7 .4-41.3-.8-53.6-1.5-12.3-.8-33.6-2.5-46.3-2.4-12.8 0-58.9.3-73.3 1.2-14.5.8-16.4 1.7-23.8 2-7.5.1-14-1.6-18.8-1.6-4.7 0-12.6 2-21 2.3-8.4.3-80.7-1-103.9-2.3-23-1.2-47.4-3.7-59.2-3.6a453 453 0 0 0-36.8 2c-10.1 1-21 2.7-29.3 3.1-8.3.5-20.2-2-27.8-2-7.7.1-30.4 3.5-38.5 3.5-8 0-62.3-4.5-69.5-4.2-7.2.3-13.2 2.6-20.7 2.7-7.5.2-18.3-4.1-25.3-4.1-7.1 0-13.4 3.5-20.3 3.4-4.7-.1-7.7-.5-9.2-1.2v65.2ZM1394.9 695l94.8.6 83.2-.5a711 711 0 0 0-49.2-12.4c-4.3-.9-10.7-1-14.6-1.5-9.4-1.2-14.5-2.2-18.5-2-4 .3-11.5 1.3-16.8 2-11.3 1-19 2-23 2.6l-56 11.2ZM1920 690.7c-8.4-.4-15-.2-20 .7l-19 3.6h39v-4.3Z" fill="#589DDA"/></g></svg>