<?xml version="1.0" encoding="utf-8"?>
<!-- Generator: Adobe Illustrator 16.0.5, SVG Export Plug-In . SVG Version: 6.00 Build 0)  -->
<!DOCTYPE svg PUBLIC "-//W3C//DTD SVG 1.1//EN" "http://www.w3.org/Graphics/SVG/1.1/DTD/svg11.dtd">
<svg version="1.1" id="Layer_1" xmlns="http://www.w3.org/2000/svg" xmlns:xlink="http://www.w3.org/1999/xlink" x="0px" y="0px"
	 width="1920px" height="1080px" viewBox="0 0 1920 1080" enable-background="new 0 0 1920 1080" xml:space="preserve">
<path opacity="0.25" fill="#FFFFFF" enable-background="new    " d="M1867.083,446.375c-0.563,0-1.121,0.031-1.682,0.042
	c-8.839-24.973-32.649-42.869-60.651-42.869c-2.871,0-5.691,0.208-8.463,0.572c-12.128-29.273-40.965-49.871-74.623-49.871
	c-8.143,0-15.997,1.217-23.407,3.458c-17.717-23.218-45.673-38.203-77.132-38.203c-38.03,0-70.941,21.895-86.83,53.764
	c-3.076-0.56-6.239-0.868-9.477-0.868c-21.609,0-40.166,13.035-48.26,31.667c-9.607-3.675-20.035-5.693-30.935-5.693
	c-44.567,0-81.267,33.657-86.084,76.938c-10.338-5.946-22.315-9.364-35.099-9.364c-36.248,0-66.095,27.352-70.062,62.54
	c-17.627-12.281-39.054-19.489-62.166-19.489c-33.789,0-63.982,15.392-83.954,39.547c-17.588-13.825-39.769-22.071-63.876-22.071
	c-32.065,0-60.725,14.593-79.699,37.497c-18.85-17.632-44.171-28.431-72.019-28.431c-20.906,0-40.391,6.084-56.782,16.578
	c-12.239-27.212-39.564-46.17-71.337-46.17c-16.695,0-32.155,5.248-44.855,14.161c-9.864-24.896-34.141-42.512-62.547-42.512
	c-16.18,0-31.022,5.717-42.629,15.234c-1.392-33.032-28.6-59.387-61.975-59.387c-5.844,0-11.492,0.826-16.854,2.336
	C519.705,413.51,493.59,399,464.083,399c-19.977,0-38.396,6.654-53.174,17.861c-16.252-25.781-44.977-42.913-77.704-42.913
	c-40.458,0-74.801,26.175-87.023,62.514c-3.141-0.337-6.33-0.514-9.561-0.514c-48.148,0-87.334,38.358-88.673,86.184
	c-5.503-1.438-11.275-2.209-17.229-2.209c-31.011,0-57.151,20.784-65.298,49.175c-6.867-2.854-14.396-4.438-22.297-4.438
	c-17.109,0-32.488,7.395-43.125,19.158v77.92c0.571,0.631,1.151,1.253,1.749,1.857L0,664.697V957.03l1920,9.645V467.119
	C1906.104,454.25,1887.517,446.375,1867.083,446.375z"/>
<path opacity="0.4" fill="#FFFFFF" enable-background="new    " d="M623.208,620.667c-10.51,0-20.703,1.351-30.42,3.882
	c-26.401-38.219-70.51-63.268-120.476-63.268c-47.953,0-90.52,23.065-117.209,58.709c-13.936-7.697-29.956-12.083-47.003-12.083
	c-37.042,0-69.251,20.688-85.709,51.139c-11.289-5.935-24.134-9.31-37.774-9.31c-35.951,0-66.431,23.34-77.168,55.688
	c-5.377-1.581-11.061-2.443-16.949-2.443c-33.147,0-60.02,26.871-60.02,60.021c0,33.147,26.872,60.019,60.02,60.019
	c19.924,0,37.571-9.716,48.488-24.659c13.011,8.838,28.716,14.006,45.63,14.006c25.656,0,48.522-11.895,63.425-30.455
	c16.545,12.982,37.398,20.727,60.061,20.727c16.056,0,31.203-3.889,44.555-10.771c26.489,37.553,70.206,62.084,119.655,62.084
	c27.092,0,52.459-7.371,74.221-20.205c20.819,17.232,47.538,27.591,76.675,27.591c66.458,0,120.333-53.875,120.333-120.333
	S689.667,620.667,623.208,620.667z"/>
<path opacity="0.4" fill="#FFFFFF" enable-background="new    " d="M1920,676.796c-9.285-4.481-19.698-6.996-30.699-6.996
	c-4.699,0-9.29,0.47-13.732,1.345c-12.383-25.447-38.482-42.988-68.686-42.988c-9.567,0-18.717,1.775-27.156,4.99
	c-18.652-16.979-43.444-27.33-70.655-27.33c-8.759,0-17.263,1.078-25.395,3.099c-21.634-28.597-55.936-47.078-94.558-47.078
	c-37.559,0-71.03,17.479-92.74,44.738c-6.857-1.741-14.039-2.669-21.438-2.669c-30.329,0-57.022,15.552-72.556,39.11
	c-35.879,1.806-66.013,25.387-77.465,57.792c-2.672-0.278-5.383-0.427-8.129-0.427c-42.762,0-77.427,34.665-77.427,77.427
	c0,42.763,34.665,77.428,77.427,77.428c29.724,0,55.521-16.759,68.497-41.332c6.886,1.756,14.099,2.69,21.53,2.69
	c30.329,0,57.021-15.552,72.555-39.11c11.337-0.57,22.099-3.319,31.882-7.829c20.824,18.168,48.057,29.176,77.863,29.176
	c17.489,0,34.092-3.792,49.035-10.594c18.683,17.122,43.578,27.572,70.916,27.572c32.079,0,60.793-14.391,80.053-37.062
	c5.701,1.357,11.643,2.099,17.76,2.099c7.726,0,15.178-1.156,22.205-3.291c12.449,20.187,34.756,33.646,60.213,33.646
	c11.001,0,21.414-2.515,30.699-6.996V676.796z"/>
</svg>
