<?xml version="1.0" encoding="utf-8"?>
<!-- Generator: Adobe Illustrator 16.0.5, SVG Export Plug-In . SVG Version: 6.00 Build 0)  -->
<!DOCTYPE svg PUBLIC "-//W3C//DTD SVG 1.1//EN" "http://www.w3.org/Graphics/SVG/1.1/DTD/svg11.dtd">
<svg version="1.1" id="Layer_1" xmlns="http://www.w3.org/2000/svg" xmlns:xlink="http://www.w3.org/1999/xlink" x="0px" y="0px"
	 width="9600px" height="1080px" viewBox="0 0 9600 1080" enable-background="new 0 0 9600 1080" xml:space="preserve">
<path opacity="0.25" fill="#FFFFFF" enable-background="new    " d="M1867.084,446.375c-0.563,0-1.121,0.031-1.682,0.042
	c-8.839-24.973-32.649-42.869-60.651-42.869c-2.871,0-5.691,0.208-8.463,0.572c-12.128-29.273-40.965-49.871-74.623-49.871
	c-8.143,0-15.997,1.217-23.407,3.458c-17.717-23.218-45.673-38.203-77.132-38.203c-38.03,0-70.941,21.895-86.83,53.764
	c-3.076-0.56-6.239-0.868-9.477-0.868c-21.609,0-40.166,13.035-48.262,31.667c-9.605-3.677-20.033-5.693-30.935-5.693
	c-44.567,0-81.269,33.657-86.084,76.938c-10.338-5.946-22.315-9.364-35.101-9.364c-36.248,0-66.095,27.352-70.062,62.54
	c-17.627-12.281-39.054-19.489-62.166-19.489c-33.789,0-63.982,15.392-83.954,39.547c-17.588-13.825-39.769-22.071-63.876-22.071
	c-32.063,0-60.725,14.595-79.699,37.497c-18.85-17.632-44.171-28.431-72.019-28.431c-20.906,0-40.391,6.084-56.782,16.578
	c-12.239-27.212-39.562-46.17-71.337-46.17c-16.695,0-32.155,5.248-44.854,14.161c-9.864-24.896-34.143-42.514-62.549-42.514
	c-16.18,0-31.021,5.719-42.629,15.234c-1.392-33.032-28.6-59.387-61.975-59.387c-5.844,0-11.492,0.826-16.854,2.336
	C519.706,413.51,493.591,399,464.084,399c-19.977,0-38.396,6.654-53.174,17.861c-16.252-25.781-44.979-42.913-77.704-42.913
	c-40.458,0-74.801,26.175-87.023,62.514c-3.141-0.337-6.33-0.514-9.561-0.514c-48.148,0-87.334,38.356-88.673,86.184
	c-5.503-1.438-11.275-2.209-17.229-2.209c-31.011,0-57.151,20.784-65.298,49.175c-6.867-2.854-14.396-4.438-22.297-4.438
	c-17.109,0-32.488,7.395-43.125,19.158v77.92c0.571,0.631,1.151,1.253,1.749,1.855l-1.748,1.104V957.03l1920,9.645V467.119
	C1906.104,454.25,1887.518,446.375,1867.084,446.375z"/>
<path opacity="0.4" fill="#FFFFFF" enable-background="new    " d="M623.209,620.667c-10.51,0-20.703,1.351-30.42,3.882
	c-26.401-38.219-70.51-63.268-120.476-63.268c-47.953,0-90.521,23.063-117.209,58.709c-13.938-7.697-29.956-12.083-47.005-12.083
	c-37.042,0-69.25,20.688-85.708,51.139c-11.289-5.935-24.134-9.31-37.774-9.31c-35.951,0-66.431,23.34-77.168,55.688
	c-5.377-1.581-11.061-2.443-16.949-2.443c-33.147,0-60.02,26.871-60.02,60.021c0,33.146,26.872,60.019,60.02,60.019
	c19.924,0,37.571-9.716,48.488-24.657c13.011,8.838,28.716,14.006,45.63,14.006c25.656,0,48.522-11.896,63.425-30.455
	c16.545,12.98,37.398,20.727,60.062,20.727c16.056,0,31.201-3.889,44.555-10.771c26.489,37.553,70.206,62.084,119.655,62.084
	c27.092,0,52.459-7.371,74.221-20.205c20.817,17.23,47.538,27.591,76.675,27.591c66.458,0,120.333-53.875,120.333-120.333
	S689.668,620.667,623.209,620.667z"/>
<path opacity="0.4" fill="#FFFFFF" enable-background="new    " d="M1920.001,676.796c-9.285-4.479-19.698-6.996-30.699-6.996
	c-4.699,0-9.29,0.47-13.73,1.345c-12.385-25.445-38.482-42.986-68.688-42.986c-9.565,0-18.717,1.773-27.156,4.99
	c-18.65-16.979-43.442-27.33-70.653-27.33c-8.761,0-17.265,1.076-25.396,3.099c-21.634-28.597-55.936-47.078-94.558-47.078
	c-37.561,0-71.03,17.479-92.74,44.738c-6.857-1.741-14.039-2.669-21.438-2.669c-30.329,0-57.022,15.552-72.558,39.108
	c-35.879,1.808-66.013,25.389-77.465,57.792c-2.672-0.276-5.383-0.427-8.129-0.427c-42.762,0-77.427,34.665-77.427,77.427
	c0,42.765,34.665,77.43,77.427,77.43c29.724,0,55.521-16.761,68.497-41.332c6.886,1.756,14.099,2.688,21.53,2.688
	c30.327,0,57.021-15.552,72.555-39.108c11.337-0.57,22.099-3.319,31.882-7.829c20.824,18.168,48.057,29.176,77.863,29.176
	c17.489,0,34.092-3.792,49.035-10.594c18.683,17.122,43.577,27.571,70.916,27.571c32.079,0,60.793-14.392,80.053-37.062
	c5.701,1.357,11.643,2.099,17.76,2.099c7.727,0,15.178-1.154,22.205-3.291c12.449,20.188,34.756,33.646,60.213,33.646
	c11.001,0,21.414-2.517,30.699-6.996L1920.001,676.796L1920.001,676.796z"/>
<rect x="0.001" y="722" fill="#78C6F7" width="1920" height="358"/>
<polygon fill="#6AB4ED" points="1920.001,717.712 1919.195,717.391 1918.336,717.623 1917.519,717.369 1916.681,717.354 
	1915.841,717.408 1915.029,717.045 1914.187,717.044 1913.324,717.264 1912.5,716.93 1911.69,717.024 1910.908,717.282 
	1910.106,717.385 1909.295,717.401 1908.467,717.239 1907.67,717.363 1906.882,717.586 1906.063,717.562 1905.254,717.589 
	1904.446,717.649 1903.674,718.073 1902.863,718.113 1902.062,718.225 1901.233,718.084 1900.44,718.304 1899.618,718.271 
	1898.823,718.519 1897.997,718.472 1897.187,718.634 1896.348,718.649 1895.604,719.137 1894.754,719.1 1893.931,719.164 
	1893.165,719.536 1892.367,719.754 1891.528,719.77 1890.697,719.812 1889.889,719.968 1889.103,720.253 1888.28,720.356 
	1887.53,720.811 1886.711,720.938 1885.893,721.065 1885.071,721.177 1884.265,721.354 1883.443,721.479 1882.827,721.693 
	1882.117,721.812 1881.794,721.787 1880.822,721.979 1881.548,721.908 1881.001,722 1904.001,722 1920.001,722 "/>
<path fill="#6AB4ED" d="M1571.233,721.631l-0.818-0.258l-0.751-0.518l-0.87-0.069l-0.792-0.364l-0.904,0.072l-0.771-0.417
	l-0.892-0.011l-0.824-0.237l-0.859-0.13l-0.801-0.354l-0.78-0.241l-0.729-0.421l-0.842-0.004l-0.765-0.284l-0.771-0.283l-0.818-0.09
	l-0.796-0.175l-0.812-0.135l-0.721-0.46l-0.779-0.242l-0.849,0.005l-0.729-0.444l-0.793-0.201l-0.78-0.23l-0.794-0.188l-0.776-0.271
	l-0.785-0.239l-0.795-0.215l-0.878,0.084l-0.799-0.27l-0.776-0.376l-0.876-0.004l-0.77-0.397l-0.839-0.134l-0.857-0.062
	l-0.744-0.516l-0.85-0.104l-0.86-0.062l-0.766-0.437l-0.867-0.041l-0.783-0.361l-0.845-0.114l-0.781-0.379l-0.809-0.281
	l-0.911,0.104l-0.779-0.407l-0.76-0.299l-0.846,0.134l-0.755-0.35l-0.783-0.188l-0.844,0.121l-0.757-0.337l-0.78-0.201l-0.788-0.175
	l-0.811-0.075l-0.765-0.311l-0.803-0.104l-0.854,0.146l-0.786-0.18l-0.777-0.235l-0.812-0.075l-0.757-0.373l-0.831,0.053
	l-0.776-0.299l-0.813,0.149l-0.784-0.292l-0.824,0.187l-0.785-0.275l-0.797-0.124l-0.826,0.244l-0.781-0.345l-0.81-0.021
	l-0.794-0.195l-0.82,0.122l-0.804-0.096l-0.809-0.026l-0.795-0.175l-0.818,0.07l-0.808-0.084l-0.819,0.033l-0.8-0.19l-0.801-0.208
	l-0.813-0.091l-0.837,0.172l-0.796-0.233l-0.829,0.047l-0.793-0.268l-0.833,0.117l-0.798-0.22l-0.819-0.061l-0.801-0.214
	l-0.846,0.198l-0.812-0.146l-0.786-0.354l-0.821,0.007l-0.845,0.161l-0.774-0.456l-0.82-0.074l-0.85,0.177l-0.813-0.367
	l-0.815,0.153l-0.786,0.242l-0.796,0.161l-0.812,0.049l-0.787,0.248l-0.835-0.144l-0.792,0.156l-0.805,0.091l-0.791,0.216
	l-0.825-0.076l-0.809,0.047l-0.799,0.131l-0.784,0.281l-0.823-0.045l-0.804,0.105l-0.823-0.024l-0.797,0.186l-0.792,0.208
	l-0.792,0.2l-0.806,0.143l-0.841-0.146l-0.816,0.044l-0.786,0.312l-0.828,0.062l-0.807,0.264l-0.845-0.05l-0.827,0.077l-0.834,0.017
	l-0.841-0.052l-0.822,0.106l-0.812,0.271l-0.845-0.069l-0.818,0.164l-0.834-0.003l-0.812,0.229l-0.844-0.071l-0.819,0.121
	l-0.824,0.099l-0.838,0.008l-0.825,0.103l-0.787,0.457l-0.859-0.212l-0.835,0.024l-0.817,0.194l-0.824,0.107l-0.844-0.029
	l-0.837,0.052l-0.795,0.458l-0.866-0.159l-0.789,0.302l-0.822,0.135l-0.845,0.044l-0.786,0.288l-0.811,0.197l-0.796,0.261
	l-0.86-0.028l-0.802,0.208l-0.771,0.358l-0.865-0.058l-0.771,0.376l-0.797,0.238l-0.865-0.062l-0.787,0.308l-0.808,0.216
	l-0.856-0.021l-0.771,0.396l-0.846,0.043l-0.813,0.186l-0.767,0.394l-0.886-0.122l-0.75,0.485l-0.846,0.081l-0.786,0.349
	l-0.85-0.082l-0.821,0.044l-0.743,0.461l-0.802,0.174l-0.823,0.048l-0.791,0.226l-0.839-0.015l-0.786,0.246l-0.812,0.117
	l-0.774,0.303l-0.854-0.112l-0.815,0.084l-0.769,0.332l-0.816,0.086l-0.79,0.229l-0.79,0.243l-0.831,0.022l-0.766,0.363
	l-0.805,0.169l-0.812,0.104l-0.821,0.067l-0.809,0.141l-0.854-0.082l-0.744,0.471l-0.806,0.178l-0.867-0.175l-0.754,0.425
	l-0.815,0.104l-0.826,0.058l-0.771,0.312l-0.85-0.07l-0.812,0.136l-0.738,0.488l-0.826,0.041l-0.852-0.081l-0.778,0.312
	l-0.775,0.319l-0.83,0.038l-0.836,0.021l-0.785,0.278l-0.779,0.305l-0.806,0.165l-0.876-0.186l-0.752,0.469l-0.834,0.058
	l-0.825,0.103l0.096,0.067l0.823,0.062l0.818-0.062l0.104-0.045l48.159,0.491l38.503-0.106l49.502,0.006l41.011-0.581l-1.521-0.146
	l0.599-0.04L1571.233,721.631z M1396.461,721.801l0.336,0.038l-0.534,0.048L1396.461,721.801z"/>
<path fill="#6AB4ED" d="M1179.503,722.842l0.678,0.104l-0.636-0.242l-0.729,0.16l-0.269-0.024l-0.653-0.255l-0.813-0.104
	l-0.835,0.021l-0.816-0.104l-0.773-0.368l-0.863,0.227l-0.771-0.439l-0.817-0.068l-0.812-0.187l-0.854,0.163l-0.792-0.296
	l-0.846,0.072l-0.81-0.188l-0.79-0.287l-0.816-0.101l-0.813-0.13l-0.854,0.119l-0.819-0.089l-0.792-0.298l-0.828-0.037l-0.796-0.27
	l-0.832-0.022l-0.819-0.114l-0.812-0.107l-0.817-0.109l-0.796-0.276l-0.854,0.148l-0.771-0.4l-0.835,0.004l-0.84,0.02l-0.775-0.416
	l-0.848,0.073l-0.799-0.271l-0.85,0.061l-0.83-0.047l-0.785-0.312l-0.817-0.148l-0.859,0.125l-0.812-0.219l-0.814-0.196
	l-0.831,0.173l-0.824-0.015l-0.823-0.064l-0.823-0.131l-0.825-0.011l-0.828,0.135l-0.82-0.161l-0.824-0.106l-0.828-0.038
	l-0.829-0.04l-0.829,0.058l-0.826-0.083l-0.827,0.009l-0.827,0.101l-0.829,0.008l-0.83,0.072l-0.828-0.053l-0.827-0.114
	l-0.826-0.104l-0.83,0.062l-0.824-0.208l-0.834,0.254l-0.825-0.212l-0.829,0.083l-0.826-0.216l-0.834,0.306l-0.824-0.129
	l-0.823-0.206l-0.832,0.093l-0.834,0.115l-0.825-0.125l-0.831-0.096l-0.834,0.119l-0.829-0.062l-0.829-0.016l-0.836,0.106
	l-0.832-0.179l-0.835-0.093l-0.843-0.009l-0.828,0.006l-0.819,0.146l-0.82,0.137l-0.832-0.072l-0.828-0.044l-0.812,0.321
	l-0.842-0.28l-0.822,0.104l-0.813,0.175l-0.832-0.12l-0.822,0.099l-0.812,0.291l-0.838-0.241l-0.812,0.312l-0.839-0.188l-0.832-0.08
	l-0.812,0.339l-0.834-0.043l-0.828,0.006l-0.82,0.173l-0.842-0.267l-0.829,0.031l-0.829,0.091l-0.836-0.011l-0.825,0.198
	l-0.828-0.082l-0.829,0.2l-0.829-0.084l-0.827,0.207l-0.828-0.232l-0.827-0.07l-0.826-0.024l-0.823,0.118l-0.826-0.139l-0.823,0.189
	l-0.823,0.188l-0.826-0.243l-0.823,0.243l-0.824-0.095l-0.826,0.002l-0.829-0.062l-0.828-0.062l-0.828,0.25l-0.831,0.009
	l-0.831-0.006l-0.828,0.021l-0.832-0.289l-0.826,0.188l-0.828,0.029l-0.828-0.013l-0.827-0.005l-0.829,0.11l-0.832-0.345
	l-0.829,0.212l-0.834-0.198l-0.829,0.32l-0.833-0.291l-0.828-0.003l-0.828,0.155l-0.831-0.024l-0.833-0.05l-0.833,0.043
	l-0.832-0.109l-0.829,0.374l-0.833-0.336l-0.833-0.013l-0.832,0.203l-0.833-0.146l-0.829,0.12l-0.834-0.146l-0.83,0.058
	l-0.829,0.052l-0.828,0.233l-0.838-0.289l-0.83,0.159l-0.834-0.163l-0.836,0.007l-0.832,0.292l-0.836-0.326l-0.831,0.128
	l-0.835,0.26l-0.839-0.245l-0.84,0.225l-0.841-0.128l-0.812,0.06l-0.812,0.125l-0.825-0.252l-0.812,0.021l-0.808,0.204l-0.812,0.044
	l-0.812,0.212l-0.831-0.352l-0.812,0.18l-0.812,0.135l-0.812,0.125l-0.823-0.178l-0.81,0.092l-0.812,0.04l-0.824-0.133l-0.809,0.143
	l-0.807,0.26l-0.818-0.135l-0.819-0.012l-0.815,0.015l-0.817-0.056l-0.812,0.192l-0.814,0.062l-0.817-0.02l-0.808,0.254
	l-0.824-0.082l-0.829-0.143l-0.812,0.292l-0.835-0.245l-0.812,0.128l-0.81,0.252l-0.821-0.158l-0.812,0.146l-0.824-0.238
	l-0.81,0.321l-0.82-0.062l-0.814,0.155l-0.82-0.029l-0.817,0.018l-0.821-0.125l-0.812,0.156l-0.827-0.253l-0.812,0.196l-0.819-0.005
	l-0.814,0.136l-0.825-0.175l-0.812,0.174l-0.815,0.159l-0.823-0.113l-0.812,0.069l-0.818,0.006l-0.822-0.051l-0.816,0.049
	l-0.822-0.114l-0.812,0.271l-0.832-0.248l-0.817,0.076l-0.82-0.016l-0.819,0.104l-0.812,0.325l-0.831-0.275l-0.812,0.313
	l-0.902-0.236l-0.829-0.071l-0.82,0.201l-0.827-0.002l-0.803,0.246l-0.82-0.151l-0.817-0.05l-0.801,0.188l-0.822-0.098l-0.812,0.061
	l-0.791,0.253l-0.821-0.118l-0.789,0.37l-0.824-0.156l-0.811,0.028l-0.812,0.035l-0.814-0.012l-0.794,0.315l-0.827-0.203
	l-0.793,0.358l-0.823-0.103h-0.816l-0.8,0.214l-0.808,0.155l-0.833-0.188l-0.813,0.133l-0.805-0.086l-0.768-0.142l-0.804-0.062
	l-0.768-0.244l-0.791-0.134l-0.845,0.143l-0.758-0.309l-0.791-0.118l-0.75-0.354l-0.86,0.23l-0.753-0.358l-0.8-0.093l-0.818-0.035
	l-0.818,0.072l-0.812,0.205l-0.829-0.207l-0.821,0.004l-0.814,0.12l-0.818,0.077l-0.819,0.114l-0.821-0.021l-0.823-0.057
	l-0.815,0.184l-0.822-0.009l-0.822-0.03l-0.819-0.002l-0.828-0.146l-0.817,0.099l-0.817,0.085l-0.84,0.17l-0.819,0.064l-0.83-0.107
	l-0.814,0.18l-0.825-0.075l-0.823,0.097l-0.829-0.083l-0.829-0.104l-0.815,0.115l-0.819,0.183l-0.824,0.096l-0.833-0.041
	l-0.831,0.158l-0.838,0.003l-0.826-0.111l-0.836,0.021l-0.828-0.125l-0.827-0.115l-0.831-0.064l-0.833,0.005l-0.84,0.094
	l-0.824-0.188l-0.834-0.004l-0.836,0.048l-0.818-0.322l-0.845,0.258l-0.823-0.177l-0.825-0.162l-0.832-0.092l-0.848,0.282
	l-0.827-0.182l-0.835-0.035l-0.834-0.051l-0.83-0.106l-0.828-0.144l-0.854,0.346l-0.827-0.244l-0.839-0.082l-0.851,0.154
	l-0.812-0.283l-0.821-0.111h-0.829l-0.837,0.146l-0.831,0.023l-0.819-0.171h-0.827l-0.831,0.089l-0.818-0.194l-0.824-0.111
	l-0.839,0.174l-0.818-0.214l-0.823-0.095l-0.823-0.105l-0.827-0.079l-0.848,0.341l-0.817-0.236l-0.819-0.178l-0.83-0.021
	l-0.832,0.106l-0.821-0.107l-0.821-0.133l-0.848,0.282l-0.812-0.396l-0.832,0.013l-0.831-0.038l-0.831-0.013l-0.836,0.112
	l-0.815-0.266l-0.847,0.231l-0.827-0.161l-0.833-0.094l-0.828-0.062l-0.786-0.086l-0.74-0.313l-0.812-0.009l-0.75-0.3l-0.835,0.081
	l-0.746-0.334l-0.849,0.017l-0.78-0.346l-0.854,0.061l-0.803-0.241l-0.827-0.09l-0.773-0.377l-0.854,0.062l-0.812-0.188
	l-0.784-0.348l-0.866,0.09l-0.81-0.186l-0.815-0.038l-0.817,0.178l-0.825-0.146l-0.827-0.1l-0.816,0.183l-0.815,0.137l-0.82,0.022
	l-0.817,0.116l-0.83-0.094l-0.817,0.179l-0.837-0.279l-0.816,0.268l-0.819,0.123l-0.834-0.165l-0.814,0.198l-0.829-0.029
	l-0.827,0.075l-0.845-0.271l-0.823,0.354l-0.842-0.169l-0.84-0.033l-0.838-0.146l-0.851,0.166l-0.842,0.013l-0.842-0.017
	l-0.833-0.271l-0.851,0.104l-0.844,0.021l-0.845-0.062l-0.831-0.301l-0.854,0.275l-0.844-0.035l-0.845-0.077l-0.845-0.114
	l-0.841-0.216l-0.855,0.136l-0.835-0.14l-0.836,0.236l-0.838-0.24l-0.838,0.086l-0.839-0.054l-0.838,0.129l-0.839,0.023
	l-0.839-0.289l-0.839,0.188l-0.839-0.037l-0.84,0.089l-0.837,0.026l-0.84,0.049l-0.837,0.028l-0.837-0.224l-0.837,0.052
	l-0.842,0.112l-0.84-0.109l-0.839-0.138l-0.843,0.271l-0.841-0.278l-0.84-0.013l-0.839,0.263l-0.844,0.078l-0.845-0.101
	l-0.848-0.031l-0.848-0.125l-0.818-0.135l-0.828,0.222l-0.822-0.102l-0.823-0.054l-0.817-0.064l-0.825,0.069l-0.821-0.18
	l-0.826,0.229l-0.817-0.192l-0.823,0.075l-0.825-0.087l-0.825,0.032L812,715.982l-0.826-0.071l-0.829,0.177l-0.826,0.066
	l-0.825,0.044l-0.825-0.173l-0.867-0.034l-0.831-0.082l-0.833,0.073l-0.794-0.223l-0.833,0.252l-0.789-0.314l-0.812-0.002
	l-0.799-0.152l-0.812,0.049l-0.798-0.215l-0.812-0.009l-0.814,0.098l-0.793-0.233l-0.82,0.06l-0.799-0.186l-0.824,0.125l-0.82,0.042
	l-0.811-0.062l-0.799-0.206l-0.811-0.075l-0.798-0.248l-0.821,0.035l-0.836,0.184l-0.804-0.169l-0.824,0.129l-0.833-0.006
	l-0.83,0.016l-0.825,0.073l-0.836-0.184l-0.84-0.151l-0.829,0.093l-0.834-0.021l-0.825,0.312l-0.838-0.138l-0.834,0.037
	l-0.835-0.134l-0.834,0.085l-0.834,0.188l-0.846-0.235l-0.849,0.081l-0.786,0.44l-0.831,0.163l-0.892-0.116l-0.807,0.303
	l-0.792,0.358l-0.906-0.212l-0.793,0.366h-0.866l-0.836,0.184l-0.784,0.438l-0.858-0.168l-0.798,0.218l-0.772,0.36l-0.852-0.162
	l-0.771,0.381l-0.827,0.021l-0.814,0.104l-0.788,0.278l-0.836-0.022l-0.846-0.095l-0.81,0.166l-0.758,0.462l-0.867-0.212
	l-0.772,0.392l-0.812,0.188l-0.845,0.027l-0.775-0.303l-0.808-0.012l-0.786-0.146l-0.788-0.125l-0.792-0.121l-0.818,0.053
	l-0.764-0.348l-0.785-0.186l-0.801-0.229l-0.852,0.007l-0.81-0.242l-0.866,0.096l-0.787-0.317l-0.845-0.048l-0.809-0.237
	l-0.833-0.104l-0.833-0.104l-0.8-0.292l-0.813-0.214l-0.825-0.139l-0.809-0.235l-0.822-0.178l-0.831-0.146l-0.887,0.146
	l-0.771-0.428l-0.829-0.119l-0.834-0.118l-0.803-0.229l-0.783-0.278l-0.801-0.253l-0.782-0.287l-0.757-0.39l-0.871-0.011
	l-0.802-0.247l-0.696-0.572l-0.873,0.002l-0.767-0.366l-0.812-0.208l-0.764-0.396l-0.865,0.014l-0.805-0.066l-0.813-0.062
	l-0.813,0.181l-0.819-0.288l-0.816,0.098l-0.811,0.144l-0.814,0.062l-0.819-0.029l-0.815-0.166l-0.812,0.144l-0.812,0.102
	l-0.817,0.131l-0.813,0.054l-0.821-0.194l-0.824-0.164l-0.812,0.309l-0.822-0.16l-0.812,0.271l-0.826-0.361l-0.818,0.19
	l-0.823,0.087l-0.81,0.127l-0.85-0.079l-0.812,0.148l-0.821,0.121l-0.785,0.33l-0.845,0.001l-0.797,0.255l-0.829,0.075l-0.829,0.101
	l-0.805,0.231l-0.803,0.262l-0.812,0.21l-0.867-0.175l-0.782,0.239l-0.771,0.311l-0.831-0.014l-0.729,0.488l-0.848-0.046
	l-0.806,0.124l-0.743,0.422l-0.829,0.018l-0.842-0.03l-0.791,0.208l-0.766,0.325l-0.82,0.081l-0.766,0.329l-0.858-0.11l-0.738,0.455
	l-0.827,0.047l-0.799,0.193l-0.823,0.069l-0.776,0.402l-0.844-0.264l-0.832,0.036l-0.83-0.032l-0.83,0.015l-0.827-0.099
	l-0.829,0.026l-0.829,0.041l-0.825-0.118l-0.827-0.053l-0.826,0.002l-0.828-0.062l-0.835,0.265l-0.824-0.291l-0.838,0.32
	l-0.832-0.062l-0.831-0.153l-0.836,0.107l-0.834,0.027l-0.828-0.236l-0.835,0.178l-0.826-0.271l-0.834,0.127l-0.831-0.022
	l-0.827-0.217l-0.839,0.271l-0.828-0.248l-0.834-0.078l-0.836,0.021l-0.834,0.021l-0.832-0.013l-0.834,0.003l-0.829-0.168
	l-0.84,0.176l-0.838,0.098l-0.834-0.006l-0.831-0.191l-0.838,0.184l-0.83-0.32l-0.835-0.023l-0.841,0.253l-0.832-0.104l-0.835-0.064
	l-0.834,0.021l-0.833,0.041l-0.831-0.138l-0.837-0.035l-0.836,0.013l-0.839,0.16l-0.836-0.148l-0.841,0.102l-0.83-0.316
	l-0.832-0.041l-0.849,0.274l-0.835-0.268l-0.85,0.291l-0.849-0.002l-0.827-0.259l-0.846,0.033l-0.841,0.021l-0.83-0.15l-0.834-0.104
	l-0.85,0.104l-0.833-0.144l-0.828-0.206l-0.841-0.002l-0.838-0.053l-0.845-0.028l-0.828-0.182l-0.853,0.113l-0.823-0.257
	l-0.856,0.257l-0.828-0.184l-0.819-0.3l-0.844,0.061l-0.837-0.113l-0.84-0.043l-0.839-0.062l-0.844-0.062l-0.854,0.166l-0.832-0.168
	l-0.842-0.01l-0.847-0.03l-0.824-0.32l-0.868,0.268l-0.83-0.345l-0.835-0.038l-0.839,0.258l-0.825-0.221l-0.827-0.132l-0.834,0.122
	l-0.835,0.162l-0.827-0.133l-0.824-0.245l-0.839,0.238l-0.83-0.113l-0.831-0.088l-0.837,0.093l-0.835,0.104l-0.822-0.297
	l-0.841,0.259l-0.829-0.096l-0.821-0.324l-0.834-0.029l-0.845,0.267l-0.832-0.021l-0.83-0.12l-0.827-0.215l-0.847,0.296
	l-0.821-0.316l-0.836,0.083l-0.841,0.116l-0.833,0.036l-0.819-0.303l-0.837,0.126l-0.839,0.039l-0.829-0.129l-0.834-0.058
	l-0.844,0.149l-0.827-0.272l-0.84,0.104l-0.838,0.13l-0.827-0.318l-0.843,0.058l-0.84-0.074l-0.844,0.195l-0.827,0.025l-0.836-0.292
	l-0.826,0.167l-0.828,0.123l-0.829,0.054l-0.835-0.222l-0.824,0.294l-0.839-0.264l-0.827,0.311l-0.839-0.229l-0.827,0.266
	l-0.837-0.268l-0.825,0.275l-0.834-0.062l-0.835-0.077l-0.834,0.014l-0.833,0.022l-0.834-0.043l-0.83,0.13l-0.833,0.11l-0.834,0.029
	l-0.837-0.177l-0.829,0.125l-0.835,0.005l-0.831,0.003l-0.834-0.065l-0.834-0.091l-0.827,0.341l-0.843-0.307l-0.832,0.136
	l-0.837-0.002l-0.831,0.153l-0.838-0.112l-0.836-0.104l-0.838,0.101l-0.831,0.312l-0.851-0.354l-0.839,0.147l-0.83-0.144
	l-0.823,0.346l-0.826,0.038l-0.834-0.333l-0.826,0.041l-0.824,0.123l-0.828,0.08l-0.831-0.077l-0.83,0.055l-0.831,0.008
	l-0.831,0.134l-0.835-0.065l-0.837-0.177l-0.831,0.12l-0.833-0.087l-0.828,0.246l-0.832-0.064l-0.83,0.046l-0.833-0.147l-0.83,0.119
	l-0.832-0.038l-0.828,0.3l-0.841-0.253l-0.834,0.02l-0.829,0.242l-0.837-0.248l-0.827,0.252l-0.84-0.324l-0.833,0.092l-0.831,0.325
	l-0.835-0.026l-0.837-0.21l-0.832,0.143l-0.837-0.072l-0.834,0.104l-0.836-0.071l-0.835-0.124l-0.833,0.163l-0.831,0.188
	l-0.833-0.021l-0.833-0.033l-0.841-0.202l-0.834,0.054l-0.833,0.146l-0.836,0.093l-0.835,0.085l-0.841-0.355l-0.835-0.012
	l-0.837,0.254l-0.838,0.145l-0.849-0.277l-0.835,0.235l-0.845-0.021l-0.832,0.154l-0.85-0.042l-0.839,0.08l-0.832,0.171
	l-0.856-0.147l-0.814,0.358l-0.841,0.036l-0.837,0.104l-0.843,0.011l-0.833,0.104l-0.854-0.124l-0.822,0.277l-0.845,0.034
	l-0.836,0.12l-0.868-0.229l-0.812,0.404l-0.862-0.18l-0.825,0.236l-0.842,0.091l-0.844,0.092l-0.849,0.072l-0.858-0.229
	l-0.796-0.062l-0.824,0.126l-0.813-0.02l-0.799-0.269l-0.823,0.146l-0.81-0.112l-0.812-0.015l-0.812-0.135l-0.801-0.148
	l-0.819,0.068l-0.807-0.15l-0.817,0.045l-0.815,0.083l-0.793-0.313l-0.839,0.312l-0.811-0.133l-0.804-0.188l-0.828,0.135
	l-0.809-0.165l-0.812-0.053l-0.803-0.194l-0.812-0.129l-0.824,0.062l-0.832,0.125l-0.812-0.129l-0.832,0.045l-0.813,0.248
	l-0.833,0.054l-0.854-0.159l-0.817,0.229l-0.849-0.103l-0.813,0.246l-0.85-0.08l-0.815,0.209l-0.85-0.126l-0.82,0.172l-0.812,0.303
	l-0.85-0.103l-0.823,0.168l-0.841,0.013l-0.82,0.221l-0.861-0.226l-0.824,0.156l-0.847-0.034l-0.823,0.229l-0.836,0.12l-0.836,0.232
	l-0.845-0.22l-0.843,0.182l-0.839-0.084l-0.839-0.168l-0.84-0.044l-0.842,0.112l-0.838-0.148l-0.842,0.168l-0.836-0.08l-0.839,0.047
	l-0.845,0.035l-0.843,0.018l-0.839-0.105l-0.839-0.188l-0.846,0.229l-0.839-0.229l-0.844,0.086l-0.84-0.222l-0.851,0.295
	l-0.845-0.308l-0.854,0.221l-0.819-0.071l-0.816-0.156l-0.821-0.058l-0.821-0.027l-0.819,0.073l-0.822,0.083l-0.821-0.1
	l-0.821-0.094l-0.82-0.047l-0.826,0.264l-0.821-0.053l-0.82,0.12l-0.817-0.078l-0.817-0.191l-0.816,0.028l-0.817-0.021l-0.82,0.169
	l-0.812-0.243l-0.82,0.085l-0.816-0.093l-0.817,0.114l-0.816-0.198l-0.82,0.082l-0.822,0.187l-0.82-0.213l-0.825,0.102l-0.82-0.239
	l-0.822,0.062l-0.823,0.093l-0.819-0.188l-0.823,0.268l-0.817-0.178l-0.822,0.141l-0.82-0.062l-0.819-0.168l-0.827,0.22
	l-0.822-0.193l-0.822-0.1l-0.822,0.021l-0.822-0.002l-0.823,0.021l-0.823,0.004l-0.825-0.074l-0.828,0.265l-0.821-0.204
	l-0.823-0.079l-0.824,0.031l-0.826,0.052l-0.825,0.088l-0.826,0.104l-0.823-0.06l-0.823-0.146l-0.821-0.128l-0.821,0.021
	l-0.824,0.059l-0.829,0.218l-0.824-0.195l-0.823-0.089l-0.829,0.198l-0.825-0.195l-0.826-0.046l-0.826,0.14l-0.832,0.137
	l-0.827-0.343l-0.835,0.228l-0.833-0.048l-0.835,0.091l-0.829-0.033l-0.825-0.062l-0.814-0.323l-0.828-0.014l-0.824-0.114
	l-0.834,0.128l-0.828-0.01l-0.824-0.058l-0.823-0.102l-0.821-0.14l-0.843,0.279l-0.826-0.06l-0.814-0.296l-0.835,0.097l-0.835,0.112
	l-0.826-0.036l-0.82-0.158l-0.827,0.012l-0.817-0.197l-0.833,0.182l-0.812-0.29l-0.831,0.122l-0.813-0.229l-0.827,0.046
	l-0.833,0.179l-0.821-0.096l-0.819-0.14l-0.832,0.081l-0.83,0.027l-0.813-0.315l-0.834,0.076l-0.836,0.098l-0.84-0.272l-0.835,0.126
	l-0.827-0.038h-0.829l-0.815-0.271l-0.82-0.105l-0.838,0.17l-0.836,0.13l-0.827-0.061l-0.833-0.001l-0.819-0.265l-0.835,0.091
	l-0.815-0.312l-0.842,0.251l-0.822-0.182l-0.842,0.191l-0.83-0.03l-0.825-0.146l-0.824-0.123l-0.836,0.123l-0.816-0.396
	l-0.834,0.029l-0.841,0.206l-0.817-0.311l-0.837,0.062l-0.825-0.102l-0.83,0.009l-0.825-0.091l-0.838,0.064l-0.824-0.156
	l-0.839,0.123l-0.842,0.089l-0.829-0.083l-0.818-0.318l-0.832-0.013l-0.853,0.312l-0.816-0.418l-0.852,0.191l-0.839-0.032
	l-0.812-0.156l-0.818-0.042l-0.83,0.146l-0.807-0.211l-0.824,0.061l-0.809-0.178l-0.812-0.146l-0.817-0.076l-0.819-0.062
	l-0.836,0.188l-0.822-0.021l-0.8-0.355l-0.822,0.007l-0.816-0.099l-0.828,0.074l-0.823,0.002l-0.823-0.027l-0.812-0.185l-0.82-0.052
	l-0.839,0.253l-0.817-0.117l-0.822-0.041l-0.799-0.318l-0.833,0.164l-0.806-0.318l-0.827,0.071l-0.826,0.078l-0.808-0.251
	l-0.836,0.157l-0.814-0.16l-0.83,0.078l-0.826-0.031l-0.817-0.135l-0.822-0.062l-0.828,0.064l-0.825-0.043l-0.809-0.341
	l-0.828-0.066l-0.838,0.032l-0.833,0.036l-0.83,0.026l-0.822,0.179l-0.828,0.076l-0.847-0.194l-0.87,0.271l-0.841-0.075l-0.815,0.32
	l-0.831,0.061l-0.83,0.057l-0.84-0.108l-0.834-0.008l-0.833-0.007l-0.823,0.179l-0.834,0.018l-0.83,0.104l-0.838-0.007l-0.839-0.038
	l-0.82,0.257l-0.841-0.108l-0.828,0.13l-0.844-0.146l-0.825,0.194l-0.832,0.092l-0.834,0.049h-0.836l-0.82,0.275l-0.855-0.278
	l-0.827,0.176l-0.831,0.104l-0.844-0.136l-0.831,0.125l-0.825,0.184l-0.841-0.116l-0.834,0.021l-0.836,0.054l-0.82,0.273
	l-0.839-0.023l-0.829,0.188l-0.848-0.162l-0.833,0.089l-0.831,0.103l-0.844-0.042l-0.833,0.16l-0.855-0.163l-0.818,0.382
	l-0.854-0.214l-0.808,0.252l-0.81,0.243l-0.852-0.119l-0.82,0.154l-0.843-0.062l-0.83,0.059l-0.797,0.353l-0.838-0.013l-0.815,0.21
	l-0.824,0.137l-0.844-0.064l-0.807,0.271l-0.862-0.227l-0.83,0.072l-0.828,0.098l-0.799,0.354l-0.818,0.165l-0.851-0.111
	l-0.81,0.241l-0.824,0.097l-0.846-0.091l-0.831,0.085l-0.81,0.258l-0.845-0.062l-0.819,0.197l-0.829,0.104l-0.841-0.013
	l-0.839-0.013l-0.809,0.306l-0.855-0.112l-0.826,0.188l-0.832,0.167l-0.83-0.11l-0.831-0.039l-0.821-0.216l-0.852,0.281
	l-0.815-0.366l-0.839,0.067l-0.836,0.032l-0.819-0.235l-0.848,0.229l-0.82-0.243l-0.833-0.038l-0.837,0.008l-0.829-0.104
	l-0.839,0.072l-0.82-0.244l-0.845,0.133l-0.835-0.021l-0.828-0.129l-0.836,0.03l-0.836-0.013L194.192,715l-0.823-0.165l-0.839,0.074
	l-0.837-0.022l-0.835-0.022l-0.819-0.29l-0.85,0.174l-0.835-0.049l-0.84,0.057l-0.827-0.157l-0.832-0.13l-0.835-0.109l-0.853,0.146
	l-0.835-0.227l-0.843-0.062l-0.797,0.438l-0.842-0.084l-0.835,0.017l-0.84-0.028l-0.824,0.184l-0.817,0.254l-0.859-0.243
	l-0.813,0.277l-0.829,0.089l-0.833,0.041l-0.844-0.086l-0.811,0.29l-0.833,0.052l-0.828,0.113l-0.851-0.143l-0.825,0.188
	l-0.85-0.116l-0.832,0.076l-0.808,0.351l-0.84-0.022l-0.826,0.146l-0.828,0.14l-0.847-0.072l-0.845-0.063l-0.838,0.021l-0.817,0.263
	l-0.84,0.019l-0.83,0.13l-0.829,0.127l-0.839-0.006l-0.848-0.071l-0.81,0.331l-0.84-0.026l-0.817,0.244l-0.837,0.066l-0.86-0.227
	l-0.821,0.224l-0.834,0.104l-0.833,0.097l-0.841,0.014l-0.819,0.241l-0.851-0.076l-0.842,0.054l-0.826,0.251l-0.854,0.077
	l-0.824-0.083l-0.808-0.199l-0.82,0.058l-0.81-0.219l-0.82,0.021l-0.813-0.126l-0.824,0.127l-0.821,0.098l-0.802-0.316l-0.815-0.021
	l-0.824,0.162l-0.808-0.215l-0.827,0.186l-0.807-0.271l-0.824,0.067l-0.816-0.076l-0.809-0.215l-0.831,0.282l-0.813-0.106
	l-0.808-0.236l-0.831,0.224l-0.818-0.06l-0.82-0.006l-0.819,0.009l-0.81-0.237l-0.816-0.104l-0.822,0.021l-0.822,0.142l-0.808-0.229
	l-0.826,0.096l-0.815-0.077l-0.805-0.277l-0.825,0.131l-0.824,0.021l-0.82-0.021l-0.825,0.077l-0.809-0.322l-0.833,0.224
	l-0.808-0.308l-0.832,0.254l-0.815-0.215l-0.821-0.111l-0.825-0.07l-0.829,0.021L108.181,716l-0.81-0.125l-0.801-0.232l-0.837,0.271
	l-0.812-0.072l-0.797-0.275l-0.81-0.112l-0.82,0.03l-0.833,0.188l-0.812-0.104l-0.815-0.083l-0.807-0.188l-0.814-0.065l-0.818-0.012
	l-0.814-0.066l-0.818-0.018l-0.805-0.229l-0.834,0.184L93.508,715l-0.809-0.162l-0.819-0.025l-0.816-0.073l-0.82-0.025l-0.805-0.169
	l-0.816-0.053l-0.815-0.104l-0.812-0.097l-0.828,0.128l-0.798-0.297l-0.82-0.051l-0.821-0.021l-0.834,0.188l-0.813-0.162
	l-0.83,0.101l-0.812-0.146l-0.802-0.271l-0.837,0.167l-0.818-0.116l-0.82-0.129l-0.831-0.124l-0.814,0.127l-0.816,0.017
	l-0.811,0.063l-0.803,0.13l-0.802,0.154l-0.788,0.278l-0.8,0.167l-0.839-0.173l-0.804,0.132l-0.786,0.298l-0.804,0.133l-0.826-0.084
	l-0.826-0.062l-0.775,0.395l-0.804,0.125l-0.819-0.015l-0.797,0.185l-0.813,0.079l-0.813,0.064l-0.832-0.096l-0.781,0.361
	l-0.83-0.07l-0.827-0.041l-0.772,0.401l-0.837-0.106l-0.801,0.209l-0.815,0.104l-0.823-0.189l-0.796-0.02l-0.815-0.064l-0.811-0.084
	l-0.812-0.072l-0.811-0.094l-0.776-0.301l-0.772-0.327l-0.821-0.034l-0.807-0.108l-0.817-0.062l-0.809-0.11l-0.795-0.192
	l-0.785-0.221l-0.847,0.113l-0.812-0.102l-0.749-0.451l-0.809-0.09l-0.812-0.089l-0.816-0.083l-0.807-0.124l-0.819-0.055
	l-0.751-0.468l-0.843,0.078l-0.789-0.229l-0.843,0.09l-0.762-0.409l-0.845,0.066l-0.768-0.396l-0.84,0.02l-0.858-0.07l-0.79,0.436
	l-0.853-0.05l-0.807,0.294l-0.86-0.1l-0.802,0.341l-0.84,0.057l-0.873-0.193l-0.829,0.117l-0.804,0.334l-0.831,0.104l-0.824,0.155
	l-0.852-0.048l-0.822,0.209l-0.813,0.257l-0.847-0.001l-0.862-0.087l-0.825,0.175l-0.835,0.099l-0.826,0.155l-0.808,0.325
	l-0.85,0.021l-0.826,0.221l-0.862-0.027L9.505,714.9l-0.837,0.092l-0.831-0.075L7.01,714.77L6.181,714.7l-0.833-0.021l-0.829-0.062
	l-0.841,0.254l-0.832,0.001l-0.834-0.02l-0.826-0.193l-0.828-0.133l-0.357,0.083v65.071l733-49.352l5.602-1.604l289.361-3.752
	l3.703,0.024l6.608-0.158l140.269-1.817l0.104,0.029l0.136-0.033l1.551-0.021l-1.076-0.101L1179.503,722.842z M1175.164,722.532
	l0.177-0.04l0.831,0.045l0.234,0.104L1175.164,722.532z"/>
<polygon fill="#5090CC" points="1920.001,741.789 1918.806,741.997 1917.354,741.452 1915.93,741.947 1914.493,742.055 
	1913.047,741.51 1911.622,741.928 1910.179,741.723 1908.753,742.242 1907.312,742.009 1905.876,742.072 1904.44,742.161 
	1903.006,741.835 1901.53,742.154 1900.093,741.881 1898.665,741.501 1897.183,741.882 1895.784,741.149 1894.298,741.574 
	1892.899,740.879 1891.426,741.14 1889.96,741.354 1888.555,740.775 1887.127,740.451 1885.681,740.369 1884.19,740.852 
	1882.799,740.088 1881.348,740.07 1879.911,739.876 1878.455,739.956 1876.996,740.067 1875.563,740.101 1874.169,739.618 
	1872.708,740.013 1871.333,739.386 1869.9,739.441 1868.498,739.144 1867.093,738.895 1865.678,738.747 1864.22,739.211 
	1862.813,739.013 1861.41,738.744 1860.003,738.517 1858.602,738.22 1857.183,738.167 1855.733,738.467 1854.302,738.588 
	1852.904,738.266 1851.513,737.888 1850.085,737.706 1848.677,737.335 1847.183,737.697 1845.751,737.567 1844.382,736.925 
	1842.907,737.146 1841.517,736.7 1840.099,736.452 1838.623,736.721 1837.217,736.427 1835.851,735.767 1834.347,736.24 
	1832.92,736.081 1831.577,735.246 1830.097,735.528 1828.679,735.314 1827.306,734.732 1825.817,735.085 1824.392,734.934 
	1822.976,734.693 1821.557,734.395 1820.174,733.845 1818.751,733.608 1817.3,733.592 1815.815,733.799 1814.389,733.606 
	1812.988,733.24 1811.603,732.743 1810.154,732.736 1808.694,732.811 1807.335,732.139 1805.915,731.914 1804.484,731.751 
	1803.017,731.862 1801.574,731.791 1800.19,731.303 1798.733,731.357 1797.313,731.137 1795.923,730.701 1794.502,730.494 
	1793.104,730.222 1791.7,730.016 1790.313,729.696 1788.843,729.988 1787.506,729.325 1786.043,729.565 1784.639,729.403 
	1783.298,728.778 1781.91,728.513 1780.507,728.364 1779.065,728.448 1777.692,728.07 1776.335,727.572 1774.937,727.377 
	1773.469,727.646 1772.108,727.182 1770.679,727.209 1769.315,726.757 1767.937,726.428 1766.565,726.227 1765.152,726.159 
	1763.912,725.493 1762.642,724.928 1761.153,725.024 1759.883,724.459 1758.728,723.553 1757.275,723.548 1756.021,722.942 
	1754.637,722.31 1753.109,722.155 1751.685,721.671 1750.328,720.976 1748.826,720.748 1747.469,720.052 1746.042,719.596 
	1744.487,719.586 1743.096,719.824 1741.69,719.367 1740.288,719.688 1738.889,719.319 1737.486,719.854 1736.087,719.793 
	1734.688,719.787 1733.288,719.29 1731.892,719.734 1730.496,719.747 1729.096,719.425 1727.697,719.314 1726.298,719.171 
	1724.9,719.766 1723.525,719.742 1722.158,720.026 1720.688,719.919 1719.274,720.088 1717.989,720.875 1716.598,721.145 
	1715.231,721.535 1713.843,721.794 1712.368,721.641 1710.975,721.922 1710.003,722.956 1708.609,723.354 1707.802,724.636 
	1706.642,725.403 1705.32,725.881 1703.994,726.321 1702.894,727.237 1701.572,727.68 1700.235,728.257 1698.687,727.893 
	1697.3,728.191 1695.974,728.905 1694.549,729.041 1693.102,729.001 1691.684,729.158 1690.321,729.771 1688.885,729.798 
	1687.467,730.018 1686.036,730.105 1684.579,729.916 1683.18,730.212 1681.78,730.555 1680.334,730.424 1678.937,730.789 
	1677.497,730.704 1676.103,731.104 1674.681,731.192 1673.234,730.99 1671.831,731.31 1670.45,731.911 1668.987,731.562 
	1667.552,731.585 1666.19,732.01 1664.841,732.507 1663.471,732.918 1661.995,732.706 1660.646,733.266 1659.242,733.515 
	1657.779,733.374 1656.442,734.01 1655.012,734.051 1653.604,734.262 1652.147,734.129 1650.754,734.411 1649.331,734.494 
	1647.981,735.118 1646.546,735.105 1645.163,735.489 1643.712,735.348 1642.354,735.93 1640.949,736.211 1639.464,735.803 
	1638.045,735.942 1636.696,736.719 1635.25,736.6 1633.863,737.036 1632.384,736.527 1631.008,737.075 1629.575,737.175 
	1628.16,737.468 1626.726,737.4 1625.28,737.184 1623.886,737.775 1622.464,737.883 1621.034,737.952 1619.6,737.718 
	1618.176,737.963 1616.748,737.636 1615.319,737.786 1613.89,737.956 1612.465,737.586 1611.033,737.294 1609.601,737.385 
	1608.173,737.774 1606.742,737.788 1605.312,737.911 1603.861,737.484 1602.454,738.138 1600.996,737.565 1599.569,737.695 
	1598.165,738.215 1596.722,738.075 1595.3,738.302 1593.887,738.646 1592.457,738.75 1590.978,738.182 1589.532,738.408 
	1588.114,739.007 1586.671,739.154 1585.202,739.013 1583.725,738.711 1582.312,739.271 1580.844,739.089 1579.386,739.075 
	1577.977,739.773 1576.49,739.27 1575.071,739.777 1573.597,739.451 1572.179,740.005 1570.705,739.658 1569.262,739.806 
	1567.812,739.85 1566.385,740.262 1564.934,740.273 1563.476,740.188 1562.018,740.081 1560.601,740.765 1559.142,740.646 
	1557.678,740.452 1556.242,740.796 1554.774,740.46 1553.348,740.955 1551.902,740.988 1550.443,740.811 1549.005,741.076 
	1547.541,741.266 1546.051,741.033 1544.61,741.558 1543.134,741.468 1541.687,741.838 1540.181,741.295 1538.756,741.993 
	1537.269,741.745 1535.818,741.994 1534.368,742.227 1532.876,741.893 1531.397,741.742 1529.938,741.935 1528.481,742.112 
	1527.011,742.086 1525.555,742.288 1524.127,742.902 1522.64,742.608 1521.202,743.105 1519.716,742.796 1518.262,742.956 
	1516.78,742.733 1515.354,743.403 1513.883,743.331 1512.419,743.352 1510.97,743.578 1509.516,743.792 1508.011,743.261 
	1506.535,743.43 1505.062,743.575 1503.601,743.99 1502.126,744.092 1500.646,743.979 1499.181,744.237 1497.696,744.002 
	1496.236,744.33 1494.757,744.136 1493.269,743.793 1491.795,743.797 1490.34,744.377 1488.852,743.975 1487.383,744.16 
	1485.915,744.325 1484.434,744.057 1482.979,744.635 1481.485,744.197 1480.058,744.871 1478.559,744.366 1477.1,744.443 
	1475.656,744.725 1474.216,745.072 1472.771,745.344 1471.307,745.262 1469.84,745.185 1468.411,745.634 1466.964,745.788 
	1465.479,745.451 1464.022,745.467 1462.565,745.542 1461.133,745.949 1459.687,746.145 1458.229,746.182 1456.776,746.273 
	1455.302,746.039 1453.864,746.368 1452.419,746.565 1450.943,746.261 1449.507,746.58 1448.033,746.359 1446.603,746.785 
	1445.147,746.814 1443.688,746.745 1442.261,747.155 1440.797,747.019 1439.333,746.903 1437.886,747.108 1436.467,747.682 
	1434.983,747.229 1433.559,747.369 1432.157,747.832 1430.719,747.734 1429.326,748.252 1427.878,747.991 1426.444,747.901 
	1425.044,748.286 1423.621,748.361 1422.187,748.201 1420.782,748.486 1419.36,748.575 1417.944,748.733 1416.495,748.42 
	1415.097,748.802 1413.66,748.663 1412.271,749.188 1410.851,749.268 1409.438,749.481 1408.001,749.309 1406.611,749.808 
	1405.157,749.344 1403.751,749.621 1402.331,749.709 1400.906,749.706 1399.514,750.154 1398.101,750.267 1396.656,749.925 
	1395.252,750.182 1393.821,750.078 1392.425,750.496 1390.765,750.521 1392.428,750.56 1393.856,750.38 1395.281,750.413 
	1396.702,750.386 1398.125,750.468 1399.544,750.701 1400.964,750.663 1402.389,750.422 1403.805,750.568 1405.22,750.709 
	1406.638,751.021 1408.062,750.738 1409.479,751.04 1410.903,750.561 1412.319,751.03 1413.74,750.863 1415.16,750.714 
	1416.583,750.461 1417.997,750.923 1419.418,750.564 1420.834,750.64 1422.252,750.584 1423.665,751.211 1425.089,750.732 
	1426.507,750.576 1427.92,750.765 1429.337,750.594 1430.744,751.263 1432.167,750.803 1433.585,750.929 1435.001,750.989 
	1436.465,750.952 1437.926,750.993 1439.368,751.516 1440.835,751.205 1442.305,750.893 1443.74,751.556 1445.198,751.454 
	1446.647,751.699 1448.118,751.154 1449.554,751.68 1451.005,751.864 1452.47,751.549 1453.913,751.959 1455.367,751.973 
	1456.835,751.587 1458.277,751.961 1459.746,751.501 1461.198,751.587 1462.643,751.884 1464.089,752.075 1465.538,752.193 
	1467.007,751.695 1468.458,751.82 1469.913,751.755 1471.345,752.396 1472.792,752.469 1474.249,752.232 1475.69,752.509 
	1477.151,752.264 1478.609,752.172 1480.043,752.753 1481.501,752.592 1482.953,752.254 1484.421,752.686 1485.862,752.041 
	1487.328,752.624 1488.771,752.082 1490.226,752.193 1491.688,752.632 1493.128,752.128 1494.585,752.458 1496.022,751.97 
	1497.486,752.473 1498.925,751.938 1500.379,752.028 1501.832,752.109 1503.282,752.062 1504.731,751.956 1506.177,751.808 
	1507.632,751.981 1509.08,751.912 1510.528,751.868 1511.972,751.701 1513.431,752.127 1514.87,751.634 1516.325,751.869 
	1517.772,751.886 1519.215,751.716 1520.654,751.446 1522.099,751.345 1523.552,751.56 1525.003,751.686 1526.468,751.811 
	1527.935,751.372 1529.399,751.652 1530.86,751.658 1532.323,751.819 1533.785,751.157 1535.244,751.312 1536.706,751.582 
	1538.164,751.652 1539.621,751.315 1541.082,751.474 1542.542,751.144 1544.003,751.403 1545.462,751.371 1546.922,751.396 
	1548.381,751.232 1549.839,751.704 1551.298,751.479 1552.758,751.548 1554.215,751.338 1555.671,751.242 1557.128,751.244 
	1558.588,751.693 1560.045,751.361 1561.492,751.848 1562.969,751.498 1564.434,751.545 1565.875,752.032 1567.35,751.781 
	1568.792,752.227 1570.271,751.903 1571.738,751.74 1573.173,752.325 1574.64,752.137 1576.092,752.255 1577.56,752.129 
	1578.992,752.692 1580.479,752.214 1581.929,752.389 1583.383,752.545 1584.853,752.356 1586.281,752.966 1587.766,752.484 
	1589.188,753.214 1590.651,753.136 1592.099,753.314 1593.568,753.081 1595.015,753.37 1596.466,753.51 1597.913,753.698 
	1599.366,753.741 1600.846,753.273 1602.275,753.795 1603.733,753.785 1605.21,753.454 1606.656,753.688 1608.111,753.682 
	1609.567,753.618 1611.001,754.003 1612.454,754.2 1613.902,753.849 1615.354,754.301 1616.798,753.986 1618.245,753.963 
	1619.688,753.613 1621.136,754.021 1622.579,753.716 1624.021,753.706 1625.468,754.116 1626.911,753.889 1628.356,754.039 
	1629.801,753.913 1631.243,753.804 1632.69,754.094 1634.131,753.798 1635.571,753.552 1637.014,753.473 1638.46,753.649 
	1639.905,753.988 1641.344,753.771 1642.787,753.928 1644.225,753.319 1645.671,753.658 1647.115,754.001 1648.552,753.793 
	1649.989,753.725 1651.426,753.388 1652.869,753.598 1654.313,753.787 1655.755,753.666 1657.188,753.256 1658.632,753.756 
	1660.068,753.774 1661.502,753.359 1662.955,753.71 1664.423,753.37 1665.875,753.561 1667.33,753.53 1668.783,753.657 
	1670.243,753.436 1671.69,753.575 1673.135,754.036 1674.589,753.833 1676.046,753.582 1677.489,753.973 1678.946,753.852 
	1680.39,754.204 1681.841,754.246 1683.3,754.03 1684.744,754.283 1686.206,753.891 1687.642,754.534 1689.11,753.839 
	1690.551,754.211 1692.004,754.078 1693.444,754.448 1694.894,754.534 1696.343,754.583 1697.786,754.786 1699.249,754.189 
	1700.694,754.26 1702.131,754.698 1703.593,754.221 1705.042,754.305 1706.479,754.771 1707.928,754.691 1709.378,754.531 
	1710.815,754.732 1712.256,754.9 1713.703,754.999 1715.155,754.876 1716.601,755.017 1718.056,754.812 1719.497,755.241 
	1720.952,755.155 1722.403,755.214 1723.856,754.672 1725.299,755.179 1726.748,755.104 1728.192,755.438 1729.642,754.797 
	1731.084,755.458 1732.53,754.979 1733.974,754.861 1735.417,755.312 1736.86,755.367 1738.306,755.484 1739.75,755.463 
	1741.199,755.049 1742.646,754.82 1744.083,755.447 1745.527,755.282 1746.976,754.991 1748.414,755.342 1749.854,755.539 
	1751.301,755.05 1752.746,754.904 1754.188,755.054 1755.627,755.444 1757.067,755.289 1758.505,755.405 1759.945,755.481 
	1761.387,755.455 1762.835,755.116 1764.272,755.597 1765.712,755.556 1767.154,755.015 1768.589,755.387 1770.022,755.553 
	1771.469,755.138 1772.908,755.441 1774.349,755.597 1775.792,755.269 1777.234,755.453 1778.676,755.638 1780.119,755.453 
	1781.56,755.579 1783.001,755.489 1784.446,755.465 1785.893,755.773 1787.336,755.662 1788.776,755.717 1790.219,755.646 
	1791.659,755.435 1793.098,755.771 1794.539,755.652 1795.976,755.424 1797.411,755.467 1798.853,755.83 1800.291,755.486 
	1801.731,755.329 1803.169,755.65 1804.609,755.572 1806.047,755.242 1807.484,755.297 1808.923,755.709 1810.361,755.363 
	1811.798,755.178 1813.233,755.525 1814.67,755.355 1816.108,755.639 1817.546,755.751 1818.981,755.318 1820.415,755.439 
	1821.849,755.625 1823.283,755.816 1824.719,755.227 1826.157,755.301 1827.594,755.361 1829.027,755.602 1830.459,755.436 
	1831.89,755.302 1833.32,755.631 1834.757,755.608 1836.192,755.72 1837.628,755.146 1839.063,755.324 1840.5,755.741 
	1841.94,755.165 1843.375,755.479 1844.807,755.906 1846.24,755.621 1847.676,755.474 1849.106,755.521 1850.534,755.807 
	1851.968,755.643 1853.397,755.455 1854.821,755.854 1856.252,755.951 1857.685,755.645 1859.114,755.8 1860.547,755.419 
	1861.978,755.414 1863.404,755.785 1864.835,755.5 1866.266,755.382 1867.69,755.917 1869.122,755.502 1870.546,755.931 
	1871.973,756.02 1873.403,755.919 1874.835,755.552 1876.26,755.73 1877.687,755.617 1879.108,755.965 1880.534,755.807 
	1881.96,756.064 1883.389,756.201 1884.817,756.011 1886.241,756.077 1887.668,755.705 1889.089,755.842 1890.509,755.878 
	1891.938,755.646 1893.36,756.273 1894.793,755.637 1896.217,756.09 1897.647,755.792 1899.07,756.293 1900.5,755.846 
	1901.953,755.932 1903.401,755.617 1904.856,755.816 1906.301,755.604 1907.755,755.829 1909.198,755.586 1910.654,756.062 
	1912.094,755.509 1913.544,755.854 1914.985,755.739 1916.429,755.438 1917.883,755.835 1919.33,755.86 1920.001,755.88 "/>
<path fill="#4889C9" d="M3840.001,774.729l-0.775,0.354l-1.816-0.93l-1.582,1.354l-1.805-0.733l-1.604,1.146l-1.466,0.34
	c-0.24-1.697-1.688-3.012-3.451-3.012c-1.884,0-3.408,1.492-3.485,3.354l-0.14,0.039l-1.8-0.735l-1.604,1.188l-1.722,0.08
	l-1.75-0.174l-1.711-0.689l-1.714,0.498l-1.712,0.83l-1.719-0.878l-1.713,0.518l-1.709-1.058l-1.715,0.415l-1.711-0.188
	l-1.714,0.923l-0.906-0.068c-0.551-1.21-1.765-2.056-3.181-2.056c-1.212,0-2.28,0.617-2.908,1.554l-1.621,0.711l-1.625-1.031
	l-1.642-0.622l-1.854,1.217l-1.595-1.029l-1.65-0.522l-1.71-0.021l-1.643-0.617l-1.793,0.7l-1.618-0.852l-1.771,0.521l-1.539-1.099
	c-0.867-1.148-2.231-1.902-3.781-1.902c-1.601,0-3.006,0.796-3.867,2.008l-1.188-0.104l-1.729-0.744l-1.758-0.211l-1.809,0.492
	l-1.767-0.156l-1.75-0.407l-1.771-0.079l-1.785,0.146l-1.774-0.091l-1.751-0.476l-1.791,0.104l-1.741-0.521l-1.77,0.617
	l-1.768,0.474l-1.729-0.684l-1.731-0.521l-1.77,0.583l-1.771,0.577l-1.748-0.135l-1.724-0.921l-1.74-0.396l-1.749-0.076
	l-1.771,0.607l-1.777,0.721l-1.72-1.249l-1.759,0.158l-1.773,0.867l-1.716-1.438l-1.78,1.214l-1.749,0.021l-1.746-0.138
	l-1.748-0.027l-1.741-0.806l-1.745-0.339l-1.707,0.684l-1.711,0.521l-1.723,0.295l-1.729-0.114l-1.762-0.692l-1.679,1.176
	l-1.728,0.057l-1.771-0.671l-1.702,0.543l-1.743-0.258l-1.723,0.346l-1.729,0.173l-1.771-0.646l-1.733-0.003l-1.743-0.098
	l-1.658,1.509l-1.771-0.638l-1.704,0.663l-0.87,0.125c-1.221-2.68-3.915-4.545-7.051-4.545c-3.188,0-5.927,1.927-7.114,4.678
	l-0.477-0.077l-1.711,0.193l-1.72-0.478l-1.709,0.152l-1.723-0.516l-1.717-0.145l-1.692,1.224l-1.717-0.092l-1.714,0.052
	l-1.73-1.151l-1.699,1.021l-1.721-0.774l-1.719-0.104l-1.692,1.347l-1.717-0.1l-1.716,0.148l-1.713,0.101l-1.722-0.184l-1.735-0.938
	l-1.719-0.22l-1.688,1.281l-1.672-1.376l-1.688,0.058l-1.688,0.763l-0.604,0.021c-0.062-2.709-2.267-4.89-4.987-4.89
	c-2.763,0-5,2.236-5,5c0,0.061,0.017,0.115,0.019,0.176l-1.227-0.345l-1.688,0.173l-1.688-0.395l-1.694,0.741l-1.688-0.157
	l-1.69,0.1l-1.69-0.29l-1.688-0.201l-1.688-0.76l-1.688,0.557l-1.688-0.499l-1.691-0.229l-1.694-0.006l-1.666,0.883l-1.768,0.562
	l-1.674-1.021l-1.785,0.646l-1.629-1.351l-1.829,1.245l-1.729-0.074l-1.646-1.322l-1.771,0.649l-1.729-0.062l-1.71-0.582
	l-1.733-0.188l-1.739,0.092l-1.732,0.271l-1.756-0.651l-1.636,1.001l-1.732-0.938l-1.646,0.477l-1.575,1.106l-1.722-0.395
	l-1.729-0.312l-1.689,0.027l-0.561,0.127c-0.979-0.666-2.163-1.056-3.438-1.056c-1.976,0-3.727,0.938-4.847,2.389l-1.099,0.25
	l-1.654,0.279l-1.618,0.45l-1.654,0.246l-1.531,0.408l-1.646,0.053l-1.683-0.47l-1.771,0.399l-1.768,0.362l-1.586-1.363
	l-1.762,0.317l-1.738,0.104l-1.714-0.158l-1.755,0.242l-1.729-0.007l-1.636-1.077l-1.776,0.497l-1.678-0.626l-1.693-0.432
	l-1.729-0.018l-1.766,0.709l-1.674-0.078l-1.673-1.294l-1.699,1.079l-1.688,0.334l-1.688-0.396l-1.684,0.459l-1.708-1.146
	l-1.678,1.071l-1.688,0.173l-1.691-0.158l-1.704-0.453l-1.709-0.618l-1.675,0.989l-1.691,0.127l-1.688,0.37l-1.729-1.27l-1.695,0.13
	l-1.675,0.883l-1.692,0.242l-1.713-0.457l-1.718-0.73l-0.044,0.039c-0.792-1.121-2.094-1.857-3.569-1.857
	c-1.896,0-3.491,1.213-4.103,2.896l-0.729-0.247l-1.118-0.32c-0.598-1.367-1.959-2.326-3.55-2.326c-1.979,0-3.593,1.486-3.827,3.4
	l-0.006,0.002l-1.711-0.546l-1.701,0.299l-1.71-0.471l-1.698,0.531l-1.714-0.647l-1.707-0.146l-1.707-0.074l-1.687,1.089
	l-1.711-0.235l-1.709-0.381l-1.709-0.234l-1.704,0.22l-1.699,0.406l-1.7,0.629l-1.729-1.094l-1.688,1.073l-1.771-0.586l-1.723,0.617
	l-1.771-0.378l-1.713,0.901l-1.777-0.573l-1.768-0.265l-1.74,0.24l-1.771-0.272l-1.712,0.89l-1.098-0.035
	c-0.357-1.912-2.031-3.356-4.048-3.356c-1.91,0-3.502,1.305-3.973,3.063l-1.377,0.952l-1.748,0.229l-1.822-1.318l-1.735,0.362
	l-1.69,0.479l-1.711,0.048l-1.709-0.374l-1.709,0.139l-1.722-0.415l-1.693,0.679l-1.725-0.336l-1.687,0.896l-1.715-0.075
	l-1.744-0.548l-1.716,0.12l-1.673-0.104l-1.621,0.699l-1.688-0.316l-1.623,0.689l-1.718-0.729l-1.616,0.761l-1.688-0.257
	l-1.661,0.146l-1.64,0.438l-1.642,0.372l-1.732-0.883l-0.698,0.398c-0.87-1.691-2.614-2.861-4.648-2.861
	c-2.897,0-5.25,2.351-5.25,5.25c0,0.521,0.102,1.02,0.243,1.497l-0.965,0.504l-2.062-0.077l-1.687,0.711l-1.436,1.483l-1.934-0.12
	l-1.875,0.072l-1.448,1.505l-1.92-0.068l-1.591,1.05l-1.737,0.325l-1.527,0.918l-1.359,1.287l-1.688,0.799l-1.655,0.855
	l-1.731,0.745l-1.687,1.326l2.091,0.438l1.688-0.472l0.053-0.03h38.601l50.827-1.737l44.52,0.706l12.615,1.24l55.377,5.444
	l24.525,1.662l106.682,4.454l92.095,3.981l87.74,1.97v-36.992L3840.001,774.729L3840.001,774.729z"/>
<path fill="#4889C9" d="M3317.82,763.209c-0.216,0-0.421,0.039-0.617,0.095c0.003-0.032,0.011-0.062,0.011-0.094
	c0-0.858-0.766-1.555-1.71-1.555c-0.071,0-0.14,0.012-0.208,0.02c0-0.007,0.002-0.013,0.002-0.02c0-0.858-0.766-1.558-1.71-1.558
	c-0.312,0-0.603,0.082-0.854,0.219c-0.252-0.137-0.542-0.219-0.854-0.219c-0.259,0-0.501,0.059-0.721,0.149
	c-2.617-1.261-4.781-1.661-4.781-1.661s-6.212-1.101-10.375-1.467v-0.964h-3.792v0.857c-3.055,0.082-7.056,0.438-9.63,0.859
	c-0.226-0.619-0.859-1.069-1.616-1.069c-0.942,0-1.711,0.696-1.711,1.558c0,0.151,0.032,0.301,0.079,0.439
	c-1.623,0.72-3.736,1.867-5.857,2.847c-0.311-0.286-0.738-0.469-1.22-0.469c-0.944,0-1.711,0.696-1.711,1.558
	c0,0.025,0.008,0.055,0.009,0.083c-0.183,0.06-0.373,0.134-0.551,0.185c-1.86,0.528-5.691,1.035-9.017,1.406l-0.307-0.16
	l-0.905,0.161c-0.312-0.317-0.766-0.521-1.271-0.521c-0.703,0-1.306,0.39-1.569,0.938c-0.104,0.01-0.209,0.02-0.31,0.029
	l-0.203-0.059l-0.413,0.112c-0.632,0.058-1.008,0.09-1.008,0.09h-0.579v0.057l-0.213-0.046c-0.289-0.482-0.85-0.815-1.497-0.815
	c-0.807,0-1.478,0.508-1.658,1.188l-0.315-0.04l-1.419,0.119l-1.419-0.518l-0.574-0.001c-0.229-0.612-0.86-1.059-1.611-1.059
	c-0.824,0-1.513,0.53-1.674,1.235l-0.407,0.181l-1.425-0.554l-1.423,0.03l-0.185,0.062c-0.312-0.394-0.814-0.648-1.39-0.648
	c-0.465,0-0.885,0.17-1.19,0.44l-0.091-0.043l-1.432,0.262l-1.448,0.416l-1.452,0.298l-1.463-0.323l-1.471-0.659l-1.438,0.764
	l-1.45,0.334l-1.154-0.355c-0.229-1.039-1.273-1.825-2.535-1.825c-1.31,0-2.38,0.854-2.549,1.952l-1.049,0.271l-1.47-0.375
	l-1.45,0.329l-1.454,0.253l-0.614-0.204c-0.013-1.229-1.013-2.228-2.248-2.228c-1.115,0-2.034,0.814-2.212,1.881l-0.771-0.101
	l-1.445,0.68l-1.463-0.023l-1.468-0.347l-1.466-0.102l-1.113,0.568c0.009-0.076,0.021-0.146,0.021-0.227c0-1.381-1.119-2.5-2.5-2.5
	c-1.169,0-2.146,0.807-2.417,1.891l-1.062-0.187l-1.428,0.457l-1.369-0.407l-1.366-0.429l-1.397-0.003l-1.453,0.856l-1.347-0.798
	l-1.417,0.264l-1.395-0.086l-1.354-0.748l-1.396-0.116l-1.402,0.082l-1.368-0.138l-1.44,0.649l-1.357-0.289l-1.321-0.713
	l-0.421-0.034c-0.419-0.793-1.242-1.339-2.201-1.339c-1.09,0-2.007,0.7-2.351,1.675l-0.602-0.148l-1.368-0.354l-1.313-0.671
	l-1.387-0.175l-1.474,0.469l-1.276-0.931l-1.386-0.2l-1.37-0.279l-1.492,0.601l-1.312-0.736l-1.449,0.28l-1.295-0.87l-1.438,0.158
	l-1.444,0.472l-1.36-0.031l-1.396-0.405l-1.396,0.328l-1.397-0.404l-1.399-0.068l-1.396,0.441l-1.396-0.304l-1.398-0.266
	l-1.398,0.68l-1.397-0.739l-1.401-0.201l-1.399,0.843l-1.4-0.199l-1.405-0.359l-1.396,0.574l-1.395,0.04l-1.403-0.146l-1.413-0.33
	l-1.387,0.395l-1.413-0.354l-1.37,0.765l-1.396,0.059l-1.417-0.4l-1.407-0.222l-1.386,0.481l-1.396,0.126l-1.401-0.05l-1.427-0.596
	l-1.403,0.107l-1.385,0.717l-0.006-0.003v-0.17l-5.794-2.69c0.054-0.147,0.09-0.308,0.09-0.475c0-0.858-0.768-1.556-1.71-1.556
	c-0.666,0-1.237,0.351-1.521,0.854l-1.062-0.338c0.062-0.162,0.104-0.334,0.104-0.517c0-0.857-0.766-1.557-1.71-1.557
	c-0.748,0-1.377,0.439-1.606,1.047l-1.83-0.581c0.052-0.146,0.087-0.303,0.087-0.466c0-0.855-0.767-1.555-1.71-1.555
	c-0.737,0-1.359,0.426-1.603,1.021c-1.5-0.327-9.644-2.056-14.733-1.939c-5.625,0.125-12.562,2.312-12.562,2.312l-9.026,4.628
	c-0.314-0.353-0.786-0.58-1.322-0.58c-0.945,0-1.711,0.695-1.711,1.557c0,0.185,0.042,0.357,0.104,0.522l-0.67,0.345l-6.915,0.636
	l-0.882-0.236l-1.328-0.521l-1.447,0.139l-1.48,0.402l-1.405-0.122l-1.352-0.483l-1.369-0.383l-1.36-0.44l-1.374-0.338l-1.521,0.646
	l-1.392-0.263l-1.364-0.415l-1.354-0.482l-1.434,0.04l-1.28-0.978l-1.506,0.545l-1.312-0.762l-1.43,0.009l-1.444,0.121l-1.438,0.074
	l-1.381-0.333l-1.417-0.067l-1.257-1.18l-1.533,0.672l-1.385-0.162l-1.391-0.389l-1.395-0.771l-1.448,0.418l-1.453,0.487
	l-1.386-0.942l-1.471,0.733l-1.387-1l-1.464,0.67l-1.409-0.473l-1.417-0.312l-1.462,0.577l-1.405-0.604l-1.434,0.018l-1.433-0.021
	l-1.414-0.466l-1.467,0.66l-1.414-0.422l-1.459,0.51l-1.396-0.935l-1.434,0.048l-1.462,0.624l-1.396-0.931l-1.446,0.256
	l-1.455,0.393l-1.445,0.212l-1.398-0.805l-1.461,0.452l-1.396-0.896l-1.456,0.121l-1.418,0.779l-1.43-0.765l-1.423-0.068
	l-1.418,0.267l-1.422-0.339l-1.41,0.578l-1.416,0.227l-1.418,0.034l-1.425-0.391l-1.416,0.567l-1.424-0.267l-1.415,0.338
	l-1.421-0.062l-1.424-0.086l-1.424-0.062l-1.43-0.618l-1.417,0.43l-1.421,0.146l-1.429-0.539l-1.415,0.808l-1.431-0.736l-1.423,0.34
	l-1.425-0.357l-1.417,0.293l-1.429-0.323l-1.417,0.448l-1.427-0.153l-1.419,0.704l-1.434-0.718l-1.422,0.479l-1.438-0.646
	l-1.426,0.984l-1.431-0.937l-1.438,0.351l-1.438-0.054l-1.438-0.199l-1.446,0.562l-1.438-0.099l-1.438,0.289l-1.438-0.199
	l-1.435-0.385l-1.44,0.239l-1.436-0.519l-1.444,0.174l-1.438-0.267l-1.443,0.555l-1.44,0.153l-1.439-0.131l-1.437-0.642
	l-1.445,0.625l-1.436-0.8l-1.445,0.183l-1.444,0.433l-1.438-0.555l-1.439,0.012l-1.45,0.573l-1.438-0.229l-1.442,0.463l-1.442-0.142
	l-1.438-0.596l-1.447,0.281l-1.447,0.248l-1.438-0.424l-1.453-0.061l-1.452,0.226l-1.455,0.43l-1.453-0.643l-1.454-0.468l-1.47,0.86
	l-1.453-0.643l-1.459-0.285l-1.475,0.843l-1.46-0.186l-1.464,0.017l-1.455-0.513l-1.469,0.184l-1.467,0.23l-1.458-0.378
	l-1.463-0.108l-1.464-0.13l-1.478,0.867l-1.462-0.307l-1.461-0.296l-1.464-0.198l-1.47,0.631l-1.46-0.188l-1.461-0.441l-1.469,0.235
	l-1.46-0.538l-1.473,0.262l-1.472,0.5l-1.462-0.638l-1.472-0.101l-1.478,0.478l-1.412,0.147l-1.431-0.447l-1.412,0.27l-1.403,0.547
	l-1.427-0.514l-1.414-0.029l-1.408,0.374l-1.414,0.212l-1.431-0.475l-1.41,0.354l-1.414,0.136l-1.419-0.05l-1.416,0.199l-1.43-0.432
	l-1.417,0.068l-1.416,0.186l-1.425-0.143l-1.412,0.326l-1.428-0.228l-1.427-0.229l-1.409,0.541l-1.423-0.183l-1.427-0.407
	l-1.407,0.672l-1.425-0.199l-1.434-0.508l-1.405,0.858l-1.419,0.109l-1.44-0.67l-1.415,0.559l-1.433,0.089l-1.438-0.146
	l-1.426-0.208l-1.438,0.2l-1.409-0.617l-1.421-0.257l-1.438,0.186l-1.458,0.697l-1.424-0.327l-1.414-0.56l-1.444,0.402l-1.439,0.216
	l-1.401-0.975l-1.443,0.312l-1.454,0.586l-1.438-0.001l-1.429-0.206l-1.431-0.113l-1.412-0.713l-1.44,0.144l-1.46,0.688
	l-1.396-1.024l-1.467,0.927l-1.419-0.529l-1.432,0.086l-1.41-0.791l-1.466,0.779l-1.433-0.122l-1.443,0.096l-1.42-0.639
	l-1.453,0.312l-1.416-0.211l-1.431,0.187l-1.419-0.148l-1.42-0.253l-1.416-0.303l-1.439,0.238l-1.436,0.115l-1.398-0.695
	l-1.421-0.126l-1.456,0.713l-1.402-0.657l-1.426-0.105l-1.467,0.895l-1.417-0.307l-1.429-0.073l-1.424-0.129l-1.41-0.559
	l-1.438,0.198l-1.408-0.56l-1.473,1.043l-1.396-0.969l-1.455,0.589l-1.417-0.383l-1.442,0.322l-1.435-0.062l-1.406-0.53
	l-1.438,0.182l-1.411-0.587l-1.447,0.376l-1.443,0.303l-1.408-0.689l-1.425-0.21l-1.45,0.331l-1.431-0.19l-1.439,0.044l-1.402-0.353
	l-1.473,0.438l-1.383-0.593l-1.479,0.474l-1.423-0.173l-1.358-0.894l-1.479,0.467l-1.438,0.035l-1.398-0.434l-1.399-0.458
	l-1.471,0.355l-1.434-0.042l-1.454,0.162l-1.383-0.655l-1.384-0.653l-1.507,0.764l-1.406-0.38l-1.455,0.177l-1.383-0.651
	l-1.398-0.409l-1.439-0.027l-1.459,0.221l-1.467,0.296l-1.393-0.579l-1.442,0.02l-1.449,0.042l-1.414-0.372l-1.469,0.19
	l-1.372-0.799l-1.438-0.173l-1.491,0.267l-1.37-0.795l-1.502,0.333l-1.444-0.149l-1.492,0.277l-1.359-0.858l-1.502,0.335
	l-1.408-0.481l-1.389-0.631l-1.47,0.036l-1.459-0.049l-1.417-0.404l-1.515,0.438l-1.459-0.044l-1.369-0.833l-1.535,0.638
	l-1.444-0.121l-1.43-0.338l-1.433-0.269l-1.41-0.484l-1.501,0.291l-1.427-0.326l-1.477,0.061l-1.34-1.145l-1.54,0.659l-1.375-0.897
	l-1.464,0.299l-1.432-0.222l-1.434-0.248l-1.493,0.731l-1.393-0.831l-1.46,0.203l-1.438-0.162l-1.469,0.295l-1.39-0.861
	l-1.466,0.259l-1.482,0.497l-1.401-0.648l-1.479,0.389l-1.399-0.714l-1.445-0.058l-1.482,0.537l-1.391-0.822l-1.479,0.398
	l-1.396-0.769l-1.443-0.099l-1.455,0.047l-1.465,0.218l-1.438-0.201l-1.474,0.242l-1.407-0.803l-1.44,0.194l-1.425-0.087
	l-1.428-0.001l-1.411-0.438l-1.441,0.442l-1.418-0.282l-1.438,0.455l-1.416-0.153l-1.406-0.454l-1.415-0.278l-1.459,0.941
	l-1.42-0.289l-1.425-0.058l-1.409-0.472l-1.446,0.607l-1.417-0.236l-1.417-0.285l-1.414-0.421l-1.432,0.054l-1.438,0.308
	l-1.433,0.156l-1.423-0.124l-1.414-0.45l-1.451,0.641l-1.402-0.734l-1.435,0.148l-1.43-0.033l-1.433,0.006l-1.418-0.356
	l-1.434,0.122l-1.436,0.062l-1.427-0.027l-1.42-0.222l-1.424-0.235l-1.454,0.702l-1.401-0.852l-1.455,0.632l-1.41-0.594
	l-1.456,0.656l-1.412-0.756l-1.443-0.268l-1.43,0.829l-1.497-0.854l-1.409,0.983l-1.485-0.628l-1.432,0.526l-1.438,0.38
	l-1.489-0.729l-1.442,0.277l-1.426,0.507l-1.463-0.273l-1.428,0.492l-1.451,0.033l-1.494-0.823l-1.447,0.236l-1.458-0.047
	l-1.411,0.887l-1.455-0.038l-1.46-0.146l-1.469-0.306l-1.456,0.012l-1.418,0.828l-1.477-0.418l-1.423,0.717l-1.447,0.119
	l-1.481-0.477l-1.429,0.611l-1.463-0.136l-1.489-0.646l-1.413,0.955l-1.469-0.227l-1.445,0.293l-1.499-0.854l-1.431,0.608
	l-1.43,0.604l-1.484-0.643l-1.457,0.079l-1.449,0.196l-1.459,0.001l-1.466-0.094l-1.422,0.781l-1.508-0.906l-1.448,0.353
	l-1.462-0.188l-1.435,0.258l-1.44,0.741l-1.443-0.916l-1.444,0.107l-1.441-0.088l-1.445,0.561l-1.445-0.669l-1.441,0.404
	l-1.444,0.248l-1.442,0.271l-1.443-0.679l-1.439,0.742l-1.438-0.428l-1.44,0.445l-1.439-0.443l-1.444-0.188l-1.447-0.193
	l-1.441,0.386l-1.443,0.08l-1.441-0.324l-1.44-0.099l-1.443,0.062l-1.443-0.023l-1.447,0.294l-1.445-0.188l-1.443,0.514
	l-1.443-0.607l-1.447,0.647l-1.446-0.409l-1.444,0.243l-1.446,0.069l-1.448-0.528l-1.445-0.264l-1.447-0.034l-1.447,0.266
	l-1.449-0.027l-1.443-0.196l-1.444,0.837l-1.45-0.888l-1.446,0.419l-1.448,0.206l-1.45-0.555l-1.449,0.752l-1.452-0.28l-1.453-0.261
	l-1.45-0.3l-1.438,0.567l-1.427-0.24l-1.441,0.518l-1.427-0.257l-1.438,0.308l-1.414-1.023l-1.442,0.584l-1.437,0.125l-1.416-0.842
	l-1.437,0.17l-1.432,0.187l-1.428-0.002l-1.431,0.077l-1.438,0.396l-1.435,0.052l-1.431-0.208l-1.43-0.236l-1.421-0.521l-1.445,0.82
	l-1.424-0.373l-1.436,0.138l-1.438,0.166l-1.429-0.412l-1.438,0.315l-1.434-0.028l-1.43-0.22l-1.432-0.189l-1.437-0.037l-1.43-0.224
	l-1.438,0.205l-1.438,0.033l-1.427-0.412l-1.438,0.113l-1.437,0.071l-1.44,0.188l-1.425-0.429l-1.442,0.481l-1.426-0.604
	l-1.434-0.053l-1.444,0.324l-1.446,0.357l-1.429-0.396l-1.437-0.277l-1.447,0.279l-1.429-0.611l-1.438,0.008l-1.446,0.166
	l-1.44,0.028l-1.426-0.535l-1.465,0.672l-1.43-0.337l-1.45,0.239l-1.445,0.127l-1.412-0.942l-1.441-0.026l-1.468,0.762l-1.44-0.137
	l-1.432-0.352l-1.429-0.464l-1.446,0.055l-1.47,0.734l-1.412-0.877l-1.455,0.419l-1.452,0.151l-1.428-0.452l-1.439-0.179
	l-1.453,0.168l-1.451,0.232l-1.445-0.091l-1.441-0.301l-1.464,0.521L2290.07,741l-1.431-0.58l-1.438,0.202l-1.429-0.379
	l-1.443,0.588l-1.431-0.438l-1.441,0.278l-1.429-0.444l-1.437-0.192l-1.434-0.302l-1.443,0.457l-1.432-0.405l-1.438-0.062
	l-1.452,0.949l-1.426-0.63l-1.433-0.163l-1.446,0.435l-1.429-0.58l-1.438-0.074l-1.442,0.294l-1.44,0.065l-1.448,0.514l-1.443,0.009
	l-1.429-0.955l-1.437,0.148l-1.424-0.391l-1.447,0.281l-1.442,0.062l-1.433-0.208l-1.458,0.645l-1.428-0.255l-1.428-0.295
	l-1.429-0.326l-1.456,0.497l-1.438,0.014l-1.415-0.768l-1.438-0.008l-1.435-0.124l-1.461,0.601l-1.417-0.752l-1.438-0.052
	l-1.443,0.146l-1.457,0.455l-1.435-0.271l-1.438-0.051l-1.449,0.23l-1.449,0.183l-1.422-0.521l-1.425-0.45l-1.466,0.685
	l-1.448,0.225l-1.44-0.11l-1.412-1.058l-1.467,0.779l-1.427-0.629l-1.447-0.036l-1.449,0.402l-1.354,0.506l-1.521-0.614
	l-1.427,0.071l-1.323,0.837l-1.478-0.283l-1.369,0.525l-1.443,0.012l-1.326,0.849l-1.511-0.519l-1.347,0.672l-1.469-0.211
	l-1.438,0.019l-1.395,0.349l-1.358,0.63l-1.444-0.012l-1.383,0.428l-1.413,0.214l-1.402,0.312l-1.442,0.018l-1.507-0.475
	l-1.316,0.938l-1.484-0.279l-1.442,0.02l-1.328,0.858l-1.474-0.219l-1.387,0.438l-1.395,0.35l-1.387,0.397l-1.509-0.448
	l-1.343,0.736l-1.421,0.188l-1.499-0.37l-1.455-0.062l-1.318,0.955l-1.435,0.131l-1.487-0.477l-1.428,0.403l-1.445-0.237
	l-1.45,0.067l-1.442-0.393l-1.46,0.66l-1.431-0.719l-1.457,0.792l-1.443-0.112l-1.435-0.711l-1.449-0.009l-1.464,0.769l-1.45,0.039
	l-1.443-0.205l-1.44-0.381l-1.443-0.215l-1.45,0.104l-1.447-0.195l-1.462,0.639l-1.445-0.284l-1.454,0.323l-1.432-1.036l-1.458,0.41
	l-1.446-0.292l-1.454,0.222l-1.448-0.175l-1.448-0.278l-1.462,0.614l-1.452-0.074l-1.45-0.128l-1.457,0.229l-1.449-0.046l-1.453,0.2
	l-1.453-0.067l-1.447-0.253l-1.459,0.323l-1.455-0.035l-1.454,0.045l-1.454-0.184l-1.443-0.924l-1.448,0.098l-1.456,0.107
	l-1.504,0.576l-1.371-1.052l-1.443-0.136l-1.497,0.526l-1.387-0.854l-1.466,0.104l-1.444-0.188l-1.439-0.232l-1.459,0.034
	l-1.433-0.307l-1.512,0.661l-1.458-0.018l-1.458,0.02l-1.367-1.146l-1.45-0.136l-1.519,0.739l-1.447-0.171l-1.41-0.623l-1.468,0.076
	l-1.431-0.321l-1.493,0.447l-1.464,0.021l-1.424-0.438l-1.416-0.567l-1.507,0.552l-1.422-0.485l-1.49,0.313l-1.452-0.188
	l-1.43-0.495l-1.469,0.028l-1.468,0.127l-1.466-0.618l-1.468,0.271l-1.467,0.802l-1.469-0.781l-1.465,0.594l-1.464,0.119
	l-1.47-0.295l-1.467-0.512l-1.479,0.339l-1.471-0.024l-1.468-0.141l-1.472,0.6l-1.474-0.006l-1.473-0.376l-1.443-0.213l-1.419,0.218
	l-1.414,0.281l-1.455-0.479l-1.417,0.215l-1.402,0.522l-1.428,0.063l-1.43,0.055l-1.436-0.084l-1.453-0.419l-1.368,1.16
	l-1.466-0.604l-1.447-0.26l-1.392,0.736l-1.44-0.13l-1.401,0.62l-1.457-0.455l-1.399,0.662l-1.466-0.599l-1.442-0.132l-1.414,0.312
	l-1.414,0.321l-1.469-0.616l-1.375,1.068l-1.454-0.341l-1.463-0.488l-1.377,1.073l-1.449-0.193l-1.429,0.216l-1.464-0.494
	l-1.391,0.709l-1.443-0.916l-1.393,0.896l-1.411,0.227l-1.428-0.438l-1.419-0.191l-1.418-0.12l-1.39,0.903l-1.44-0.756l-1.418,0.041
	l-1.415,0.088l-1.408,0.296l-1.413,0.148l-1.409,0.357l-1.44-0.732l-1.41,0.256l-1.429-0.33l-1.391,1.032l-1.438-0.623l-1.426-0.197
	l-1.396,0.822l-1.416,0.182l-1.419-0.056l-1.423-0.189l-1.415,0.265l-1.436-0.578l-1.406,0.513l-1.415,0.287l-1.423-0.057
	l-1.424,0.025l-1.453-0.896l-1.431,0.168l-1.44,0.146l-1.389,0.745l-1.475-0.421l-1.394,0.664l-1.455-0.155l-1.434,0.156
	l-1.461-0.238l-1.414,0.43l-1.438,0.078l-1.457-0.144l-1.441,0.017l-1.428,0.189l-1.406,0.584l-1.419,0.335l-1.457-0.134
	l-1.466-0.256l-1.451-0.079l-0.807,0.247v50.79l579-26.494l19.361-0.667l33.307-2.166l24.666-1.584l23.666-0.5l18.167,0.49
	l27.334,1.26l29.499,0.5h54.667l42-0.667l46.333,1.667h27.667l51.333-0.5l76-2.166l40.334,1.666l31.666,1.418v0.088l13,0.582l23,1
	h30V771h1l25-1l25,1h21l14.5-0.75l17.5-0.75l22,0.5h17.421v0.005h2.079l12.5-2l16.5-1h12.5h15l4.819-0.032l-0.002-0.005h0.002
	c1.143,0,2.065-0.842,2.065-1.879C3319.889,764.051,3318.963,763.209,3317.82,763.209z"/>
<linearGradient id="SVGID_1_" gradientUnits="userSpaceOnUse" x1="2983.2031" y1="188.5264" x2="3018.1628" y2="208.7106" gradientTransform="matrix(1 0 0 -1 -760 983)">
	<stop  offset="0.4996" style="stop-color:#1B4787"/>
	<stop  offset="1" style="stop-color:#4889C9"/>
</linearGradient>
<path fill="url(#SVGID_1_)" d="M2261.503,781.027l-0.027-1c-0.11,0.003-5.257,0.156-12.375,0.973
	c-0.854-0.593-6.386-1.606-11.266-0.332c-3.923,1.024-6.588,2.787-7.269,3.605c-5.133,1.109-6.5,1.688-11.016,3.643l0.396,0.918
	c4.111-1.777,6.288-2.57,10.968-3.637v1.511h1v-1.731c5.086-1.106,12.631-2.44,16.978-2.944v1.471h1v-1.585
	C2256.608,781.175,2261.395,781.03,2261.503,781.027z"/>
<path fill="#1B4787" d="M5758.579,816.701l-1.433-0.095l-1.425-0.206l-1.389-1.128l-1.422-0.277l-1.456,0.762l-1.399-0.758
	l-1.489,1.548l-1.433,0.038l-1.323-0.846c0.428-0.735,0.688-1.578,0.688-2.489c0-2.762-2.238-5-5-5
	c-1.711,0-3.217,0.861-4.119,2.171c-0.896-1.728-2.676-2.921-4.756-2.921c-0.57,0-1.109,0.113-1.625,0.277v-3.027h-14.5v2.051
	c-0.167-0.017-0.329-0.051-0.5-0.051c-1.396,0-2.653,0.553-3.593,1.439c-1.146-0.898-2.59-1.439-4.157-1.439
	c-2.524,0-4.724,1.389-5.88,3.442c-0.555-0.479-1.277-0.775-2.079-0.775c-1.728,0-3.125,1.343-3.125,3
	c0,0.169,0.021,0.332,0.052,0.493c-0.562-0.801-1.514-1.327-2.594-1.327c-1.02,0-1.912,0.474-2.483,1.196
	c-0.485-1.047-1.578-1.779-2.85-1.779c-1.152,0-2.147,0.605-2.689,1.496c-0.57-0.607-1.391-0.996-2.311-0.996
	c-1.142,0-2.127,0.592-2.673,1.467c-0.283-0.755-1.028-1.299-1.913-1.299c-0.882,0-1.626,0.541-1.911,1.293l-0.214-0.182
	c-0.009-0.615-0.58-1.112-1.289-1.112c-0.713,0-1.291,0.504-1.291,1.125c0,0.118,0.038,0.227,0.077,0.334l-0.5-0.559
	c0-0.011,0.006-0.019,0.006-0.025c0-0.621-0.578-1.125-1.292-1.125c-0.6,0-1.081,0.363-1.228,0.846l-0.013,0.005
	c-0.368-0.513-0.98-0.85-1.681-0.85c-0.562,0-1.071,0.219-1.44,0.572c-0.235-0.243-0.579-0.407-0.975-0.407
	c-0.146,0-0.281,0.033-0.412,0.072l-0.54-0.374l-0.621,0.037c-0.363-0.324-0.848-0.527-1.384-0.527
	c-1.003,0-1.833,0.697-2.004,1.614l-0.403,0.097l-0.13-0.139c0.009-0.053,0.036-0.102,0.036-0.155c0-0.601-0.545-1.083-1.229-1.113
	l-0.048-0.051l-0.036,0.043c-0.339,0.004-0.644,0.122-0.868,0.312c-0.358-0.562-0.998-0.94-1.735-0.94
	c-1.021,0-1.86,0.724-2.009,1.666l-1.124-1.363l-1.438-0.165l-0.473,0.521c-0.122,0.091-0.219,0.199-0.295,0.324l-0.771,0.847
	l-0.453-0.281c-0.088-1.005-0.953-1.796-2.021-1.796c-0.511,0-0.973,0.188-1.33,0.484l-0.021,0.006
	c-0.233-0.224-0.564-0.366-0.939-0.366c-0.15,0-0.29,0.033-0.424,0.074l-0.481-0.206l-0.419,0.385
	c-0.371-0.479-0.962-0.795-1.633-0.795c-0.28,0-0.548,0.055-0.791,0.153c-0.236-0.266-0.588-0.444-1.002-0.444
	c-0.4,0-0.743,0.168-0.979,0.417c-0.312-0.183-0.672-0.293-1.062-0.293c-0.445,0-0.854,0.141-1.188,0.373l-0.127-0.158l-0.15,0.093
	c-0.236-0.257-0.584-0.432-0.992-0.432c-0.565,0-1.033,0.322-1.207,0.765c-0.373-0.391-0.904-0.64-1.5-0.64
	c-0.495,0-0.942,0.176-1.296,0.458l-0.639-0.36l-0.152,0.062c-0.264-0.073-0.557-0.118-0.872-0.118
	c-0.521,0-0.992,0.114-1.343,0.299l-0.526-0.218l-1.427-0.188l-1.449,0.459l-1.401-0.687l-0.291,0.329
	c-0.237-0.246-0.58-0.411-0.979-0.411c-0.713,0-1.291,0.504-1.291,1.125c0,0.074,0.032,0.139,0.049,0.209l-0.389-0.166l-1.382-1.196
	l-1.466,0.994l-1.312-1.105c-0.418-0.513-1.188-0.858-2.084-0.858c-0.987,0-1.833,0.42-2.209,1.021l-0.062,0.008l-0.254-0.035
	c-0.334-0.247-0.867-0.409-1.475-0.409c-0.532,0-1.01,0.126-1.345,0.324l-0.809,0.314c-0.221-0.277-0.562-0.474-0.974-0.474
	c-0.354,0-0.666,0.145-0.888,0.361c-0.064-0.622-0.721-1.111-1.529-1.111c-0.494,0-0.929,0.188-1.211,0.469
	c-0.018-2.192-1.799-3.969-3.997-3.969c-1.021,0-1.946,0.396-2.655,1.029c-0.981-1.086-2.39-1.779-3.97-1.779
	c-2.969,0-5.375,2.406-5.375,5.375c0,0.026,0.009,0.05,0.009,0.076l-1.062,0.015c-0.259-1.677-1.696-2.966-3.446-2.966
	c-0.967,0-1.842,0.394-2.475,1.025c-0.871-0.851-2.174-1.4-3.65-1.4c-1.462,0-2.754,0.542-3.625,1.376
	c-0.489-1.175-1.646-2.001-3-2.001c-1.705,0-3.089,1.318-3.224,2.989l-0.792-0.196l-1.438-0.381l-1.47,0.5l-1.408-0.94l-1.422-0.688
	l-1.448-0.094l-1.142,0.518c-0.488-0.651-1.281-1.083-2.183-1.083c-0.688,0-1.312,0.256-1.785,0.664l-0.7,0.027l-1.444-0.111
	l-0.793,0.354c-0.457-0.346-1.024-0.56-1.65-0.56c-0.391,0-0.755,0.082-1.088,0.227l-0.797-0.521l-1.494,1.064l-1.397-1.181
	l-0.071,0.062c-0.491-0.548-1.214-0.902-2.025-0.902c-1.287,0-2.359,0.869-2.625,2.027l-0.694-0.601
	c-0.052-1.142-1.021-2.054-2.226-2.054c-0.536,0-1.021,0.188-1.406,0.49c-0.468-0.812-1.359-1.365-2.396-1.365
	c-1.117,0-2.074,0.638-2.506,1.551c-0.498-0.269-1.1-0.426-1.744-0.426c-1.15,0-2.146,0.503-2.688,1.244
	c-0.289-0.922-1.604-1.619-3.188-1.619c-1.064,0-2.003,0.32-2.597,0.81l-0.382-0.377l-0.807,0.331
	c-0.44-0.163-0.964-0.264-1.528-0.264c-0.889,0-1.672,0.243-2.188,0.615v-18.74h-7.375v16.591c-0.623-0.362-1.484-0.591-2.438-0.591
	c-1.862,0-3.371,0.863-3.427,1.939l-1.09,0.795l-1.426-0.182l-1.42-0.262l-1.43-0.144l-1.418,0.482l-1.42,0.118l-1.421,0.146
	l-1.429-0.43l-1.438-1.038l-1.396,1.607l-1.432-0.8l-0.188-0.038c0.069-0.24,0.116-0.493,0.116-0.763
	c0-1.276-0.867-2.312-1.938-2.312s-1.938,1.035-1.938,2.312c0,0.46,0.113,0.888,0.31,1.245l-0.619-0.236l-1.416,0.271l-1.419,0.072
	l-1.419,0.078l-1.419,0.07l-1.436-1.159l-1.396,1.55l-1.42,0.002l-1.426-0.536l-1.406,0.727l-0.889-1.077
	c-0.358-0.967-1.895-1.691-3.732-1.691c-1.844,0-3.381,0.729-3.735,1.698l-0.162-0.14l-1.417-0.07l-1.404,0.8l-1.425-0.331
	l-1.413-0.369l-1.418-0.326l-1.477,1.534l-1.432-0.072l-1.432,0.08l-1.432-0.09l-1.429-0.008l-1.429,0.025l-0.729-0.562
	c0.006-0.057,0.018-0.113,0.018-0.172c0-1.605-2.135-2.927-4.875-3.104V792.5h-13.75v12.428l-0.621,0.335l-1.432,0.115l-1.423-0.199
	l-1.413-0.466l-1.423-0.086l-0.849,0.309c0.127-0.456,0.2-0.938,0.2-1.436c0-2.991-2.444-5.416-5.458-5.416
	c-3.018,0-5.459,2.425-5.459,5.416c0,0.578,0.094,1.135,0.263,1.657l-0.104,0.003l-1.425,0.184l-1.375-1.668l-1.454-0.061
	l-1.504-0.091l-1.442,0.507l-1.421,0.896l-1.52-0.995l-1.443,0.466l-1.48-0.321l-1.47-0.088l-1.447,0.323l-1.383,1.435l-1.479-0.334
	l-1.522-1.073l-1.365,1.8l-1.496-0.563l-1.438,0.453l-1.531-1.267l-1.432,0.63l-1.444,0.271l-1.438,0.518l-1.455,0.161l-1.457,0.079
	l-1.508-1.306l-1.436,1.504l-1.459-0.28l-1.457-0.406l-1.452-0.827l-1.455,0.317l-1.454,1.488l-1.452-1.664l-1.454,1.161
	l-1.449-0.993l-1.449,0.238l-1.452-0.477l-1.452,1.733l-1.104-0.747c-0.905-2.036-3.336-3.497-6.198-3.497
	c-2.717,0-5.047,1.312-6.053,3.184l-1.154-0.736l-1.452,0.943l-1.45-0.357l-1.448,1.146l-1.446-0.582l-1.444-1.183l-1.354,1.763
	c-0.724-1.636-3.182-2.842-6.109-2.842c-2.418,0-4.519,0.82-5.584,2.024l-0.01,0.002l-1.469,0.172l-1.428-0.573l-1.424-0.725
	l-1.452-0.081l-1.502,0.97l-1.441-0.312l-1.446-0.113l-1.479,0.495l-1.408-0.959l-1.427-0.582l-1.463,0.138l-1.501,0.959
	l-1.386-1.43l-1.521,1.316l-1.473,0.404l-1.399-1.146l-1.462,0.147l-1.45-0.02l-1.417-0.729l-1.44-0.198l-1.488,0.685l-1.419-0.714
	l-1.504,1.091l-1.408-0.856l-1.419-0.628l-1.458,0.171l-1.496,0.913l-1.434-0.43l-1.466,0.267l-1.402-0.951l-1.438-0.164
	l-1.517,1.42l-1.44-0.104l-1.36-1.861l-1.46,0.161l-0.961,0.069c-0.393-1.514-2.252-2.662-4.5-2.662
	c-1.522,0-2.861,0.532-3.694,1.342c-0.851-0.82-2.05-1.342-3.388-1.342c-0.866,0-1.666,0.229-2.361,0.604
	c-0.68-0.769-1.792-1.271-3.056-1.271c-0.535,0-1.042,0.093-1.502,0.254c-0.58-0.26-1.225-0.42-1.915-0.42
	c-1.715,0-3.186,0.908-3.887,2.215c-0.559-0.543-1.26-0.882-2.03-0.882c-0.95,0-1.797,0.5-2.393,1.284l-0.829-0.062l-1.461,0.359
	l-1.447-0.066l-1.458,0.409l-1.445-0.209l-1.45-0.116l-1.474,1.081l-1.438-0.475l-1.439-0.293l-1.456,0.398l-1.437-0.496
	l-1.468,0.726l-1.412-1.789l-1.463,0.574l-1.437-0.482l-1.469,1.121l-1.438-0.331l-1.448,0.192l-1.439-0.362l-1.44-0.646
	l-1.465-0.315l-1.459,0.111l-1.457,1.379l-1.453,0.028l-1.455-1.191l-1.451-0.153l-1.452,1.419l-1.454-1.203l-1.449,1.19
	l-1.449-0.639l-1.453,0.165l-1.45-0.371l-1.452,0.747l-1.147-0.927c-0.416-0.938-1.135-1.561-1.954-1.561
	c-1.007,0-1.854,0.938-2.184,2.244l-0.521-0.16l-1.45-0.994l-1.451-0.013l-1.429,0.938c-0.505-0.996-1.486-1.684-2.634-1.684
	c-1.045,0-1.964,0.565-2.5,1.421l-0.688,0.202l-1.448-0.724l-0.809,0.651c-0.443-1.459-2.237-2.553-4.392-2.553
	c-1.77,0-3.285,0.744-4.021,1.817l-0.916,0.129l-1.445,0.031l-1.443,0.411l-1.441-0.363l-1.449,0.765l-1.448,0.271l-1.447-0.312
	l-1.447-0.711l-1.45,0.84l-1.449-1.25l-1.447,1.146l-1.447-0.322l-0.598,0.241c-0.377-1.356-1.666-2.361-3.213-2.361
	c-1.32,0-2.453,0.736-2.99,1.796l-0.443-0.435l-1.449,0.551l-1.456,0.783l-1.446-0.033l-1.405-1.06l-0.961,0.896
	c-0.989-1.953-3.382-3.333-6.179-3.333c-2.46,0-4.603,1.068-5.758,2.653l-0.021,0.007l-1.432-0.058l-1.42-0.439l-1.459,0.821
	l-1.444,0.291l-1.431-0.054l-1.39-1.274l-1.471,1.073l-1.426-0.186l-1.432,0.021l-1.391-1.302l-1.433,0.058l-0.055,0.033
	c-0.259-1.888-1.438-3.313-2.86-3.313c-1.279,0-2.354,1.159-2.747,2.765l-0.042-0.014l-1.466,1.152l-1.419-0.332l-1.436,0.144
	l-1.448,0.521l-1.409-0.643l-1.438,0.291l-1.372-1.671l-1.427,0.007l-1.453,0.88l-0.654,0.049c-0.288-1.5-1.787-2.647-3.606-2.647
	c-1.362,0-2.54,0.651-3.171,1.605c-0.742-0.964-2.027-1.605-3.495-1.605c-1.891,0-3.469,1.064-3.979,2.515l-0.812,0.432
	l-1.391-0.547l-1.401-0.357l-1.382-0.797l-1.432,0.462l-1.384-0.779l-1.45,0.996l-1.385-0.682l-0.958,0.222
	c-0.583-0.964-1.741-1.629-3.096-1.629c-1.179,0-2.216,0.504-2.85,1.271l-0.155-0.058l-1.407-0.131l-0.757,0.229
	c-0.791-0.802-1.911-1.312-3.164-1.312c-1.239,0-2.352,0.497-3.141,1.283l-0.101,0.024l-1.435,0.812l-1.432-1.44l-1.433,1.359
	l-1.432,0.181l-1.428-0.725l-1.428-0.522l-1.434-0.154l-1.431,1.409l-1.433,0.035l-1.43-1.56l-1.431,0.305l-1.432,0.501
	l-1.428-0.503l-1.43,1.252l-1.432-0.848l-1.428,0.133l-1.427,0.372l-1.428,0.098l-1.433-1.018l-1.434,0.534l-1.427-0.522
	l-1.405-0.723l-1.482,0.579l-1.477,0.526l-1.439-0.13l-1.378-1.093l-1.493,0.801l-1.396-0.781l-1.459,0.287l-1.445,0.087
	l-1.455,0.158l-1.396-0.753l-1.445,0.018l-1.462,0.316l-1.419-0.428l-1.438-0.103l-1.418-0.37l-1.419-0.419l-1.437-0.089
	l-1.475,0.507l-1.394-0.752l-1.456,0.249l-1.455,0.199l-1.4-0.688l-1.521,1.384l-1.38-0.943l-1.411-0.448l-1.415-0.401l-1.442,0.053
	l-1.48,0.646l-1.445,0.098l-1.436-0.043l-1.453,0.281l-1.452,0.255l-1.343-1.495l-1.451,0.179l-1.5,0.974l-1.329-1.814l-1.471,0.49
	l-1.411-0.481l-1.494,0.854l-1.412-0.454l-1.503,0.957l-1.421-0.593l-1.424-0.527l-1.416-0.562l-1.515,1.229l-1.394-1.037
	l-1.46,0.282l-1.481,0.651l-1.355-1.616l-1.516,1.377l-1.427-0.415l-1.438-0.126l-1.468,0.384l-1.438-0.135l-1.418-0.532
	l-1.394-0.991l-1.444,0.044l-1.463,0.35l-1.404-0.786l-1.497,1.053l-1.384-1.135l-1.484,0.817l-1.425-0.4l-1.466,0.434l-1.438-0.117
	l-1.439,0.036l-1.429-0.244l-1.406-0.64l-1.445,0.062l-1.476,0.593l-1.418-0.413l-1.439-0.362l-1.43-0.813l-1.471,0.736
	l-1.425-0.782l-1.483,1.248l-1.411-1.221l-1.458,0.436l-1.458,0.391l-1.461,0.66l-1.408-1.2l-1.474,0.934l-1.439-0.193l-1.448,0.146
	l-1.397-1.633l-1.482,1.249l-1.454,0.403l-1.431-0.486l-1.457,0.444l-1.396-1.739l-1.477,1.198l-1.434-0.324l-1.438-0.159
	l-1.447,0.18l-1.443-0.024l-1.405-1.276l-1.465,0.889l-1.465,0.896l-1.395-1.646l-1.452,0.346l-1.431-0.555l-1.481,1.498
	l-1.403-1.285l-1.426-0.399l-1.463,0.902l-1.409-0.986l-1.443,0.046l-1.473,1.086l-1.416-0.894l-1.479,1.278l-1.438-0.143
	l-1.423-0.69l-1.432-0.418l-1.435-0.228l-1.479,1.379l-1.436-0.244l-1.448,0.252l-1.396-1.593l-1.44-0.105l-1.46,0.694l-1.389-0.599
	l-1.392,0.761l-1.388,0.362l-1.384-1.392l-1.388,0.542l-1.386,0.793l-1.383-1.214l-0.17,0.194v-1.614H4828v1.769l-0.912,0.674
	l-1.37-1.466l-1.504,1.234l-1.423-0.401l-1.424-0.367l-1.438-0.042l-1.446,0.121l-1.448,0.227l-1.406-0.609l-1.442,0.021
	l-1.438-0.047l-1.454,0.273l-1.375-1.268l-1.497,1.123l-1.394-0.771l-1.153-0.202V788H4796v0.805l-0.602,0.397l-1.382-0.85
	l-1.438-0.136l-0.828-0.313V787h-7.5v1.186l-0.407,0.203l-1.407-0.529l-1.061,0.532v-2.267h-7.75v1.234l-1.128,0.487
	c-0.015-1.852-1.63-3.349-3.622-3.349c-1.869,0-3.39,1.322-3.586,3.014l-0.054-0.042l-1.414,0.895l-1.455-1.238l-1.408,1.132
	l-1.429,0.098l-1.451-1.05l-0.629,0.392c-0.248-1.808-1.662-3.195-3.388-3.195c-1.75,0-3.178,1.431-3.394,3.275l-1.144,0.573
	l-1.434-0.088l-1.412,0.547l-1.485-1.211l-0.07,0.077V787h-10v1.072l-1.341,0.438l-1.438-0.21l-1.39,0.865l-1.453-0.491
	l-0.629-0.047v-0.755H4717.5v2.158l-0.783,0.148l-1.407,0.422l-0.435-0.221v-1.947h-10.125v2.122l-1.023-0.745l-1.227,0.67V788
	h-8.75v2.271l-0.158,0.027l-1.463-0.767l-1.435,0.759l-0.068,0.03v-1.887h-7.875v1.664l-0.753-0.216l-0.051,0.059
	c-0.938-1.088-2.599-1.817-4.508-1.817c-2.373,0-4.358,1.124-5.04,2.664l-0.47-0.218l-1.38-0.601l-1.416,0.211l-1.449,0.966
	l-1.337-1.404l-0.019-0.002c-0.781-0.978-2.062-1.616-3.516-1.616c-1.652,0-3.07,0.83-3.796,2.036l-0.147,0.012
	c-0.578-1.812-3.013-3.173-5.931-3.173c-2.371,0-4.42,0.9-5.415,2.209l-1.145,0.216l-1.412-0.941l-1.479-0.138l-1.533,0.533
	l-0.475-0.228c0.005-0.072,0.019-0.143,0.019-0.216c0-1.554-1.091-2.812-2.438-2.812c-1.349,0-2.438,1.259-2.438,2.812
	c0,0.038,0.008,0.072,0.01,0.109l-0.663,0.719l-1.402-0.993l-1.518,0.318L4632,787.85v-5.975h-24.5v4.886l-0.33,0.125l-1.374-1.1
	l-1.462,0.174l-1.445-0.044l-1.337,1.518l-1.484-1.208l-1.4,0.302l-1.46-0.753l-1.318,1.771l-1.504-1.613l-1.341,1.359l-1.284,0.381
	V784h-12.423v4.12l-0.402,0.267l-1.536-0.747l-1.498-0.347l-1.331,1.429l-1.416,0.541l-1.483-0.225l-1.54-0.85l-1.411,0.564
	l-1.472-0.141l-0.57-0.015c-1.011-1.754-3.252-2.977-5.858-2.977c-2.794,0-5.164,1.401-6.057,3.357
	c-0.399-0.436-0.938-0.806-1.59-1.077v-6.946h-7.792v2.599H4540v-2.14h-13.655v2.75h-8.161c-0.871-0.104-1.766-0.168-2.684-0.168
	c-2.536,0-4.921,0.423-7,1.166v-2.957h-8.667v-4.459h-12.667v6.918h-1.333v-5.834h-9.5v-5h-3.167v-3.5h-5.666v3.5h-3.333v5.917
	h-3.75v3.25h-4.917V768.5h-2.833v12.668h-7v-16.5h-2.292v-0.715l1.319,0.513l0.36-0.932l-9-3.5l-0.36,0.932l0.634,0.247v3.455
	h-0.995v10.579l-18.458-1.079v3.582H4406.5v-15.416l-6,5h-2.333v3.834h-9.042V768.5H4383v2.668h-13.5v7h-2.666v-15.334h-3.667
	v-2.166H4358v2.166h-0.833v13h-9v-3.833l-7.5,4v3.333H4334v-1.833h-6.833v-3.667h-9.667v1.334h-7.333v2.833h-3.542v-2.626h-4.75
	v-9.625h-0.438v-12h0.547l0.388-6h0.925l0.113-1.625h1.463v-1.3h-2.672l-0.988-3.869l0.973-1.581h-1.376l-0.436-1.708H4300V721h-1
	v16.667h-0.375l-0.436,1.708h-1.378l0.975,1.581l-0.988,3.869h-2.672v1.3h1.347l0.151,1.625h0.879l0.388,6h0.547v12h-5.312V778H4284
	v-3.25h-13.5v6.668h-9.498v2.779l-1.061,0.121l-1.395,0.88l-1.417,0.4l-1.466-0.693l-1.401,0.728l-1.431,0.012l-1.454-0.556
	l-1.427,0.042l-1.436-0.125l-1.432,0.046l-1.443-0.246l-1.399,1.354l-1.506-1.156l-1.405,1.219l-1.446,0.158l-1.499-1.058
	l-1.458-0.112l-1.44,0.194l-1.42,0.807l-1.467-0.408l-1.479-0.725l-1.45,0.075l-1.396,1.297l-1.479-0.643l-1.423,0.653l-1.479-0.602
	l-1.462-0.276l-1.445,0.043l-1.407,1.059l-1.475-0.562l-1.461-0.289l-1.385,1.521l-1.46-0.289l-1.501-1.227l-1.396,1.239l-1.465-0.4
	l-1.465-0.468l-1.412,0.833l-1.447-0.062l-1.477-0.645l-1.424,0.631l-1.474-0.645l-1.446,0.004l-1.395,1.214l-1.414,0.678
	L4195,787.09l-1.412,0.894l-1.484-0.896l-1.388,1.445l-1.452-0.093l-1.445,0.043l-1.5-1.23l-1.397,1.215l-1.443,0.095l-1.479-0.779
	l-1.456-0.229l-1.461-0.312l-1.381,1.604l-1.449,0.002l-1.445,0.086l-1.478-0.967l-1.444-0.297l-1.464,1.341l-1.452-0.028
	l-1.451,0.289l-1.449-0.061l-1.441-1.155l-1.447-0.005l-1.454,0.604l-1.437-1.244l-1.456,1.642l-1.45,0.144l-1.442-0.603
	l-1.445-0.562l-1.453,0.939l-1.447-0.275l-1.449,0.377l-1.434-1.857l-1.447,0.057l-1.456,1.227l-1.444-0.242l-1.44-0.664
	l-1.444-0.104l-1.455,1.114l-1.443-0.396l-1.445,0.122l-1.441-0.199l-1.436-0.913l-1.445,0.374l-1.448,0.512l-1.442-0.72
	l-1.448,0.591l-1.438-0.578l-1.445,0.695l-1.439-0.101l-1.434-0.855l-1.448,0.52l-1.453,1.262l-1.436-1.208l-1.441-0.627
	l-1.448,0.451l-1.45,0.66l-1.448,0.44l-1.436-1.196l-1.449,0.854l-1.444,0.042l-1.438-0.973l-1.453,1.083l-1.442-0.476l-1.444-0.014
	l-1.438-0.909l-1.444,0.197l-1.44-0.321l-1.451,1.115l-1.439-0.548l-1.447,0.507l-1.438-0.86l-1.452,1.055l-1.447,0.271l-1.434-1.52
	l-1.442-0.071l-1.454,1.616l-1.437-0.717l-1.447,0.754l-1.431-1.7l-1.449,1.084l-1.441-0.074l-1.445,0.449l-1.44-0.463l-1.438-0.831
	l-1.453,1.31l-1.445,0.084l-1.444,0.023l-1.438-0.725l-1.446,0.571l-1.436-0.872l-1.444,0.406l-1.443,0.479l-1.434-0.922
	l-1.436-0.733l-1.441,0.239l-1.447,0.981l-1.44-0.022l-1.442,0.229l-1.433-1.234l-1.452,1.554l-1.431-1.662l-1.444,0.145
	l-1.451,1.145l-1.44-0.594l-1.446,0.344l-1.447,0.64l-1.441,0.003l-1.429-1.767l-1.443,0.301l-1.449,1.273l-1.439,0.104
	l-1.435-0.648l-1.432-1.062l-1.446,1.192l-1.433-0.744l-1.436-0.296l-1.449,1.561l-1.427-1.57l-1.445,1.071l-1.431-1.098
	l-1.447,1.201l-1.431-1.146l-1.44,0.148l-1.438-0.119l-1.445,0.847l-1.439-0.193l-1.438-0.443l-1.438-0.497l-1.452,1.572
	l-1.439-0.518l-1.438-0.714l-1.447,0.697l-1.434-1.07l-1.448,1.104l-1.439-0.099l-1.435-0.638l-1.442,0.527l-1.439,0.243
	l-1.432-0.861l-1.445,1.116l-1.433-0.486l-1.446,0.713l-1.43-1.665l-1.452,1.568l-1.436-0.896l-1.445,0.399l-1.445,0.354
	l-1.435-1.123l-1.442-0.644l-1.444,0.249l-1.443,0.215l-1.405-0.319l-1.449,0.147l-1.585,1.216l-1.359-1.137l-0.315,0.181v-4.117
	h-6.833v3.943l-0.191,0.163l-1.407-0.563l-1.43-0.322l-0.472,0.066v-2.121H3953v1.537l-0.621,0.324l-1.433-0.011l-1.364-0.476
	l-1.422,0.492l-1.379-0.796l-1.422,0.674l-1.381-0.688l-1.31-1.026V782.5h-5.5v1.349l-0.161,0.034l-1.409,0.247l-0.263-0.168v-1.296
	h-10v1.126l-1.014,0.473l-1.418,0.462l-1.417-0.459l-1.415-0.441l-0.736,0.479V782.5h-6.167v1.04l-0.172-0.006l-1.416,0.813
	l-1.415,0.269l-1.416-0.147l-1.405-0.007l-1.489-0.798l-1.44,0.671l-0.58,0.131v-1.8h-8.667v-9.833h-6.668v11.349l-0.141,0.034
	l-1.471,1.22l-1.43-1.459l-1.46,0.084l-1.476,0.927l-1.446-0.539l-1.478,1.064l-1.434-0.962l-1.445-0.519l-1.467,0.718l-1.252-0.072
	v-2.011h-5.5v1.792l-0.511,0.046l-1.432-1.103l-1.468,0.713l-1.438-0.646l-1.476,1.082l-1.425-0.072l-1.404,0.527l-0.513-0.151
	v-12.021h-6.167v12.535l-0.791,0.106l-1.509-0.029l-0.034,0.026v-0.891h-4.5v-1.917H3840v4.291v0.577v2.914v0.218V1080h1920V815.356
	L5758.579,816.701z M4437.328,761.602l1.033,0.401v2.665h-1.033V761.602z M4439.361,762.392l0.639,0.249v2.027h-0.639V762.392z
	 M4441,763.029l1.375,0.535v1.104H4441V763.029z"/>
<polyline fill="none" stroke="#0B2159" stroke-width="0.25" stroke-miterlimit="10" points="5983.4,776.52 5984.672,771.774 
	5985.943,776.52 "/>
<path fill="#0B2159" d="M6493.833,845.645h-2.086c0.074-0.286,0.125-0.588,0.125-0.897c0-2.019-1.633-3.648-3.648-3.648
	c-2.015,0-3.646,1.636-3.646,3.648c0,0.312,0.051,0.611,0.125,0.897h-0.284v-4.229h-3.604v3.238l-0.584-0.321v-7.083h-7.062v-4.417
	h-7.792V827H6460v6.207l-2.5-1.375l-0.5-0.132V828h-1.137c0.001-0.039,0.012-0.076,0.012-0.116c0-2.329-1.888-4.218-4.218-4.218
	c-2.025,0-3.714,1.43-4.121,3.334h-4.619v-3.166h-7.417v-1.917h-2.413c0.011-0.104,0.031-0.205,0.031-0.312
	c0-1.622-1.315-2.938-2.938-2.938c-1.622,0-2.937,1.315-2.937,2.938c0,0.478,0.123,0.916,0.323,1.312h-2.216v-1h-7.851v-2.25h-7.5
	v-1.501h-7.225c-0.376-2.354-2.702-4.166-5.523-4.166c-2.111,0-3.948,1.015-4.896,2.511c-1.395-1.514-3.758-2.511-6.438-2.511
	c-2.3,0-4.36,0.737-5.779,1.9c-1.168-1.441-3.216-2.4-5.554-2.4c-1.196,0-2.312,0.254-3.28,0.691
	c-1.162-1.441-2.88-2.358-4.803-2.358c-1.11,0-2.153,0.307-3.06,0.842c-1.394-1.43-3.499-2.342-5.857-2.342
	c-1.336,0-2.589,0.295-3.68,0.808c-1.363-2.262-4.09-3.808-7.237-3.808c-1.77,0-3.403,0.493-4.74,1.322
	c-1.272-1.791-3.561-2.989-6.177-2.989c-1.862,0-3.555,0.61-4.839,1.604c-1.761-1.195-4.13-1.938-6.744-1.938
	c-2.677,0-5.101,0.771-6.874,2.021c-1.322-1.146-3.13-1.854-5.126-1.854c-2.584,0-4.852,1.188-6.158,2.978
	c-1.272-1.116-3.01-1.811-4.926-1.811c-2.261,0-4.271,0.963-5.566,2.457c-1.685-2.094-4.382-3.457-7.434-3.457
	c-3.624,0-6.752,1.919-8.271,4.707c-2.021-1.663-4.882-2.707-8.062-2.707c-3.2,0-6.075,1.057-8.098,2.736
	c-1.303-1.649-3.193-2.695-5.312-2.695c-1.891,0-3.604,0.836-4.876,2.19c-1.761-2.303-4.755-3.815-8.155-3.815
	c-2.338,0-4.479,0.719-6.167,1.914c-1.671-2.966-5.453-5.039-9.861-5.039c-4.114,0-7.688,1.805-9.505,4.457
	c-1.289-1.876-3.729-3.146-6.526-3.146c-0.69,0-1.355,0.083-1.99,0.229c-0.394-3.155-3.153-5.604-6.51-5.604
	c-2.175,0-4.097,1.032-5.291,2.615c-0.69-0.607-1.56-0.99-2.521-0.99c-1.41,0-2.646,0.791-3.356,1.979
	c-0.594-0.488-1.332-0.792-2.144-0.792c-0.822,0-1.568,0.312-2.166,0.812c-0.756-0.573-1.729-0.937-2.806-0.937
	c-1.079,0-2.053,0.361-2.806,0.938c-0.817-0.867-2.053-1.438-3.455-1.438c-1.338,0-2.524,0.517-3.341,1.318
	c-1.047-1.436-3.021-2.401-5.284-2.401c-2.778,0-5.116,1.456-5.844,3.442c-0.869-0.569-2.212-0.942-3.739-0.942
	c-0.722,0-1.399,0.088-2.012,0.235c-0.533-1.019-1.834-1.735-3.363-1.735c-1.654,0-3.034,0.846-3.469,1.994
	c0.001-0.026,0.01-0.052,0.01-0.077c0-1.657-1.791-3-4-3c-1.396,0-2.622,0.538-3.337,1.351c-0.786-1.479-2.595-2.518-4.704-2.518
	c-1.977,0-3.672,0.92-4.527,2.252c-0.961-1.468-3.254-2.502-5.932-2.502c-1.771,0-3.375,0.452-4.536,1.183l-0.129-7.93l-10.167-0.25
	l-1.75,0.916l-0.057,4.847l-4.101-1.523c0.205-0.492,0.321-1.021,0.321-1.569c0-2.67-2.612-4.834-5.833-4.834
	c-2.254,0-4.206,1.062-5.177,2.612l-5.505-1.589l-8.519-1.229l-10.78-0.203l-8.325-1.213c-0.646-2.713-3.472-4.756-6.86-4.756
	c-1.421,0-2.742,0.361-3.846,0.979l-1.049-0.532c-0.451-1.263-1.998-2.195-3.855-2.195c-0.416,0-0.809,0.061-1.186,0.146
	l-1.015-0.339c-0.633-1.4-2.735-2.435-5.237-2.435c-0.988,0-1.912,0.163-2.711,0.444l-1.422-0.292
	c-0.334-1.146-2.264-2.027-4.617-2.027c-1.504,0-2.828,0.365-3.687,0.924l-5.294-0.467l-6.833,0.334l-3.911-0.435
	c-0.643-1.267-2.252-2.166-4.152-2.166c-1.507,0-2.834,0.566-3.641,1.435H5998h-14.833l-15.167,1h-12.865
	c-0.428-1.28-1.527-2.197-2.828-2.197c-1.601,0-2.896,1.391-3.005,3.141l-10.801,1.894l-1.28,0.71
	c-0.259-0.339-0.586-0.619-0.992-0.793c-1.397-0.597-3.078,0.206-3.756,1.794c-0.252,0.589-0.328,1.202-0.256,1.771l-0.229,0.127
	c-0.353-0.114-0.721-0.192-1.112-0.192c-1.153,0-2.169,0.549-2.833,1.389c-0.547-0.979-1.531-1.639-2.667-1.639
	c-1.726,0-3.125,1.511-3.125,3.375c0,0.199,0.022,0.393,0.054,0.581c-0.41-0.124-0.845-0.206-1.304-0.206c-2.209,0-4,1.567-4,3.5
	c0,0.05,0.015,0.096,0.017,0.146c-0.365-0.085-0.744-0.146-1.142-0.146c-2.396,0-4.337,1.651-4.369,3.699
	c-0.319-0.117-0.653-0.199-1.006-0.199c-1.696,0-3.108,1.465-3.431,3.409c-0.596-0.263-1.252-0.409-1.944-0.409
	c-2.513,0-4.558,1.908-4.821,4.352c-0.343-0.062-0.693-0.102-1.054-0.102c-2.592,0-4.781,1.715-5.5,4.072l-0.571,0.207
	c-0.906-0.496-1.947-0.779-3.055-0.779c-2.693,0-4.993,1.674-5.926,4.035l-2.199,0.793l-2.311,0.229
	c-0.616-1.502-2.09-2.562-3.814-2.562c-2.009,0-3.68,1.438-4.046,3.34l-3.33,0.329l-0.958-0.104
	c-0.889-1.523-2.521-2.562-4.416-2.562c-1.5,0-2.837,0.656-3.773,1.684l-1.685-0.182l-6.711-0.133
	c-0.836-1.693-2.563-2.869-4.581-2.869c-1.943,0-3.615,1.096-4.482,2.688l-0.894-0.018l-21.501,3.587l-9.043,1.693
	c-1.068-1.91-3.109-3.203-5.454-3.203c-2.129,0-4.007,1.063-5.135,2.692l-5.875-1.901l-3.415-1.438
	c-1.112-3.396-4.305-5.854-8.075-5.854c-3.593,0-6.659,2.23-7.901,5.384l-0.14,0.034l-6.299,0.938
	c-1.265-1.146-2.94-1.854-4.785-1.854c-1.222,0-2.37,0.309-3.375,0.85V1080h996.607l-266.395-229.334h3.619V845.645z
	 M6296.366,817.934c0.009-0.017,0.018-0.031,0.024-0.052c0.019,0.013,0.031,0.026,0.05,0.039L6296.366,817.934z M6473.167,840.449
	l-0.081-0.045h0.081V840.449z"/>
<polygon fill="#0B2159" points="5984.672,771.774 5983.855,774.823 5985.488,774.823 "/>
<path fill="#09174D" d="M6652.667,866.667l-7.667-11l-6-9l-10-6.282l-8.66-7.161c-1.143-2.146-3.533-4.12-6.641-5.197
	c-3.147-1.098-6.288-1.019-8.521-0.01L6602,827h-3.35c-0.855-2.132-3.208-3.666-5.983-3.666c-2.805,0-5.18,1.565-6.012,3.732
	l-3.546,0.679c-0.999-1.028-2.788-1.355-4.499-0.68c-0.702,0.273-1.288,0.69-1.753,1.18c-0.62-1.218-2.111-2.078-3.856-2.078
	c-1.383,0-2.599,0.545-3.357,1.375c-0.627-0.345-1.319-0.542-2.06-0.542c-1.98,0-3.682,1.392-4.461,3.393
	c-1.19-1.455-3.04-2.393-5.123-2.393c-2.721,0-5.048,1.597-6.017,3.859c-1.357-2.316-3.75-3.859-6.483-3.859
	c-2.688,0-5.05,1.492-6.418,3.746c-1.274-0.986-2.896-1.58-4.665-1.58c-2.703,0-5.061,1.386-6.357,3.449
	c-1.354-2.353-4.045-3.949-7.143-3.949c-2.59,0-4.891,1.122-6.37,2.861c-0.917-0.23-1.88-0.361-2.88-0.361
	c-5.479,0-9.972,3.698-10.452,8.415c-0.595-0.113-1.211-0.177-1.845-0.177c-4.558,0-8.292,3.089-8.666,7.019l-22.038,3.994
	l-51,24.417l-37.25,47.666l304.833-22.167L6652.667,866.667z"/>
<path fill="#09174D" d="M7135.104,891.166L7085,876.938l-51.925-21.851L6996.5,838l-16-10.5l-12.608-8.405
	c0.311-0.686,0.483-1.421,0.483-2.188c0-3.592-3.638-6.5-8.125-6.5c-1.554,0-3,0.354-4.234,0.96l-2.639-1.617
	c0.4-0.771,0.623-1.612,0.623-2.497c0-3.59-3.638-6.5-8.125-6.5c-2.074,0-3.96,0.627-5.396,1.649L6933,799l-0.035-0.01
	c-1.102-1.561-3.248-2.615-5.715-2.615c-0.88,0-1.718,0.136-2.483,0.38L6922,796l-13,0.5l-6.697-2.87
	c0.128-0.567,0.197-1.154,0.197-1.755c0-4.901-4.488-8.875-10.024-8.875c-2.159,0-4.151,0.61-5.79,1.639
	c-1.358-4.029-6.104-7.014-11.766-7.014c-4.975,0-9.244,2.302-11.132,5.596L6854,785l-22,1l-14-0.5l-1.471,0.227
	c-0.733-2.144-3.266-3.727-6.279-3.727c-3.59,0-6.5,2.238-6.5,5c0,0.232,0.027,0.458,0.067,0.682l-5.317,0.818l-14.5,3l-30.5,14
	L6733,827l-83.5,45.858l261.859,48.547L7238.25,925L7135.104,891.166z"/>
<path fill="#03082B" d="M9585.004,150.709c0-0.026,0.004-0.052,0.004-0.078c0-3.078-2.495-5.573-5.572-5.573
	c-2.781,0-5.084,2.042-5.5,4.708l-21.211-1.808c-0.475-0.838-1.362-1.409-2.396-1.409c-0.861,0-1.623,0.404-2.13,1.023
	l-10.662-0.908c0.01-0.102,0.029-0.197,0.029-0.3c0-1.952-1.582-3.534-3.533-3.534c-0.417,0-0.812,0.085-1.187,0.218
	c-0.485-1.868-2.173-3.253-4.19-3.253c-1.356,0-2.557,0.634-3.354,1.607c-0.728-1.752-2.45-2.986-4.465-2.986
	c-1.779,0-3.317,0.973-4.156,2.405c-1.006-1.452-2.683-2.405-4.583-2.405c-1.854,0-3.49,0.909-4.505,2.302
	c-0.838-2.082-2.873-3.554-5.256-3.554c-1.979,0-3.72,1.016-4.729,2.554c-1.264-2.05-3.521-3.421-6.104-3.421
	c-3.646,0-6.646,2.725-7.104,6.247l-0.473-0.071c0.266-0.846,0.405-1.744,0.405-2.678c0-4.969-4.029-8.998-8.998-8.998
	c-2.834,0-5.359,1.313-7.01,3.36c-0.069-6.761-5.566-12.222-12.347-12.222c-3.899,0-7.375,1.812-9.64,4.64
	c-1.778-1.89-4.296-3.075-7.095-3.075c-3.803,0-7.088,2.182-8.694,5.357c-2.134-2.56-5.341-4.188-8.931-4.188
	c-4.36,0-8.155,2.405-10.146,5.958c-1.04-4.486-5.052-7.833-9.854-7.833c-2.721,0-5.188,1.079-7.006,2.826
	c-0.743-4.789-4.872-8.459-9.869-8.459c-3.404,0-6.408,1.706-8.215,4.307c-1.521-2.571-4.313-4.307-7.521-4.307
	c-2.552,0-4.839,1.101-6.437,2.844c-1.665-3.102-4.938-5.211-8.704-5.211c-5.123,0-9.334,3.901-9.824,8.896
	c-1.081-0.343-2.229-0.526-3.426-0.526c-4.396,0-8.2,2.497-10.098,6.146l-0.467-0.322c1.793-1.469,2.938-3.696,2.938-6.192
	c0-4.418-3.582-8-8-8c-1.459,0-2.822,0.397-4.001,1.08c-1.282-3.849-4.907-6.627-9.188-6.627c-5.231,0-9.484,4.152-9.671,9.341
	c-2.144-2.328-5.206-3.795-8.618-3.795c-5.537,0-10.166,3.841-11.396,9c-1.894-1.172-4.114-1.859-6.503-1.859
	c-3.613,0-6.854,1.561-9.117,4.027c0.151-0.575,0.242-1.177,0.242-1.8c0-3.866-3.136-7-7-7c-1.798,0-3.431,0.683-4.668,1.794
	c-1.466-2.487-4.164-4.161-7.262-4.161c-2.811,0-5.29,1.379-6.819,3.492c-1.416-3.295-4.688-5.604-8.501-5.604
	c-2.272,0-4.354,0.823-5.965,2.188c-2.722-4.183-7.427-6.955-12.785-6.955c-6.773,0-12.511,4.421-14.497,10.532
	c-1.188-0.812-2.624-1.284-4.171-1.284c-2.729,0-5.104,1.476-6.396,3.667c-0.733-0.211-1.512-0.331-2.312-0.331
	c-2.809,0-5.286,1.387-6.808,3.507c-1.636-2.98-4.804-5.007-8.442-5.007c-2.886,0-5.468,1.275-7.229,3.286
	c-1.119-1.961-3.227-3.286-5.646-3.286c-1.016,0-1.972,0.238-2.824,0.652c-1.494-3.378-4.869-5.736-8.801-5.736
	c-0.256,0-0.509,0.019-0.761,0.038c-1.382-2.785-4.245-4.704-7.565-4.704c-1.301,0-2.525,0.302-3.627,0.826
	c-1.51-3.43-4.935-5.826-8.922-5.826c-2.898,0-5.494,1.271-7.28,3.281c-1.578-3.893-5.389-6.638-9.845-6.638
	c-3.922,0-7.34,2.133-9.181,5.294c-1.9-3.168-5.357-5.294-9.319-5.294c-4.111,0-7.688,2.283-9.537,5.65
	c-2.119-3.643-6.057-6.097-10.572-6.097c-5.31,0-9.812,3.386-11.508,8.109l-1.256-0.068c-1.828-2.239-4.608-3.67-7.729-3.67
	c-2.718,0-5.18,1.09-6.979,2.853l-2.897-0.159c-1.817-1.758-4.293-2.844-7.021-2.844c-2.323,0-4.46,0.792-6.169,2.109l-1.228-0.068
	c-1.589-2.341-4.271-3.88-7.312-3.88c-1.801,0-3.473,0.541-4.866,1.465c-1.438-3.591-4.942-6.131-9.05-6.131
	c-2.18,0-4.188,0.726-5.812,1.935c-0.603-6.411-5.992-11.435-12.562-11.435c-3.438,0-6.553,1.379-8.829,3.609
	c-2.278-2.607-5.622-4.265-9.354-4.265c-3.603,0-6.832,1.537-9.104,3.981c-3.013-2.487-6.873-3.981-11.084-3.981
	c-3.54,0-6.828,1.062-9.577,2.877c-2.861-3.104-6.949-5.06-11.505-5.06c-3.354,0-6.452,1.062-9,2.854
	c-1.35-1.056-3.041-1.688-4.887-1.688c-0.702,0-1.381,0.102-2.029,0.271c-2.955-3.23-7.192-5.271-11.918-5.271
	c-5.866,0-10.989,3.137-13.821,7.812c-1.421-1.125-3.212-1.802-5.162-1.802c-2.529,0-4.794,1.134-6.319,2.915
	c-1.34-1.389-3.241-2.262-5.36-2.262c-2.188,0-4.152,0.934-5.497,2.406c-1.407-2.428-4.165-4.073-7.336-4.073
	c-2.392,0-4.539,0.938-6.06,2.438c-0.59-7.586-6.98-13.562-14.799-13.562c-2.183,0-4.244,0.478-6.109,1.312
	c-1.95-3.999-6.229-6.78-11.2-6.78c-6.057,0-11.082,4.119-12.125,9.549c-1.819-1.784-4.823-2.953-8.229-2.953
	c-3.441,0-6.479,1.193-8.292,3.011l-0.03-0.011l-4.666-3.333l-5.749-2.3c0.973-0.984,1.551-2.188,1.551-3.492
	c0-3.312-3.691-6-8.25-6c-2.696,0-5.084,0.945-6.589,2.4c-2.021-0.577-5.792-1.655-7.963-2.275c-3.062-0.875-5.209-0.625-8.333-1
	c-3.125-0.375-7.334-3.667-7.334-3.667s-6.416-4.333-11.999-5.666c-3.825-0.913-13.517-1.514-19.239-1.802V51.74l-1.751-3.083v-18.5
	l-1.412-3.16l-1.417,3.167v18.5l-1.751,3.166v1.141c-3.039,0.489-9.012,1.45-12.592,2.026c-4.948,0.796-14.114,5.065-18.5,7
	c-1.922,0.849-6.19,2.562-10.383,4.222c-0.187-3.88-3.433-6.972-7.42-6.972c-4.107,0-7.438,3.273-7.438,7.312
	c0,1.272,0.334,2.475,0.918,3.519l-20.989-1.921c0.283-0.883,0.446-1.834,0.446-2.833c0-4.461-3.104-8.077-6.938-8.077
	s-6.938,3.616-6.938,8.077c0,0.574,0.054,1.133,0.151,1.673h-15.922c-1.37-2.46-3.979-4.125-6.979-4.125
	c-3.043,0-5.688,1.712-7.041,4.232l-5.752,1.155c-0.353-4.158-2.967-7.391-6.146-7.391c-2.184,0-4.098,1.525-5.196,3.825
	c-1.492-1.22-3.404-1.95-5.491-1.95c-4.405,0-8.032,3.266-8.554,7.479c-1.503-0.615-3.312-0.979-5.263-0.979
	c-4.688,0-8.565,2.095-9.302,4.836c-0.676-0.136-1.393-0.211-2.135-0.211c-3.686,0-6.729,1.805-7.278,4.159
	c-1.031-0.646-2.317-1.034-3.722-1.034c-2.381,0-4.44,1.109-5.454,2.729c-1.096-2.145-4.893-3.729-9.421-3.729
	c-2.832,0-5.373,0.622-7.154,1.609c-0.859-0.974-2.259-1.609-3.846-1.609c-1.288,0-2.452,0.42-3.308,1.096
	c-0.287-2.158-2.487-3.846-5.192-3.846c-0.576,0-1.121,0.095-1.64,0.234c-0.862-2.295-3.802-3.984-7.298-3.984
	c-4.18,0-7.562,2.406-7.562,5.375c0,0.286,0.041,0.564,0.102,0.84c-2.75-0.155-5.856-0.213-8.775,0
	c-2.667-5.17-9.08-8.201-15.886-7.021c-7.229,1.254-12.449,6.833-12.69,13.047c-0.637,0.163-1.004,0.259-1.004,0.259l-23.812,6.521
	c1.933-1.421,3.15-3.478,3.15-5.771c0-4.28-4.216-7.75-9.417-7.75c-3.747,0-6.974,1.805-8.489,4.412
	c-1.838-1.516-4.624-2.479-7.743-2.479c-1.649,0-3.207,0.275-4.582,0.757c-2.462-2.053-6.104-3.354-10.187-3.354
	c-7.41,0-13.417,4.291-13.417,9.583c0,0.646,0.093,1.283,0.265,1.896c-3.514,0.611-6.229,3.096-6.688,6.182
	c-0.026,0.001-0.059,0.009-0.082,0.009c-6.25,0-23.533,2.83-35.306,4.894c-2.188-0.463-4.618-0.728-7.188-0.728
	c-7.918,0-14.562,2.449-16.548,5.775c-1.104-0.39-2.325-0.608-3.619-0.608c-4.745,0-8.594,2.906-8.661,6.51
	c-1.075-0.11-2.188-0.177-3.339-0.177c-7.604,0-13.871,2.596-14.852,5.958c-1.041-0.292-2.152-0.458-3.315-0.458
	c-0.961,0-1.888,0.115-2.77,0.318c-0.783-0.814-1.867-1.318-3.063-1.318c-2.125,0-3.885,1.591-4.255,3.688
	c-0.452-0.117-0.923-0.188-1.412-0.188c-2.998,0-5.445,2.363-5.646,5.354c-1.65-0.439-3.456-0.688-5.353-0.688
	c-7.824,0-14.167,4.143-14.167,9.25c0,0.481,0.074,0.953,0.186,1.416c-1.61-0.84-3.495-1.332-5.52-1.332
	c-4.37,0-8.121,2.261-9.771,5.493c-1.901-1.151-4.147-1.827-6.562-1.827c-6.083,0-11.126,4.229-12.137,9.79
	c-0.666-0.072-1.341-0.123-2.03-0.123c-8.376,0-15.167,5.521-15.167,12.335c0,0.433,0.028,0.857,0.081,1.276
	c-1.605-1.01-3.592-1.611-5.748-1.611c-4.635,0-8.503,2.757-9.444,6.437c-2.127-1.521-4.805-2.435-7.723-2.435
	c-5.658,0-10.434,3.411-11.974,8.087c-2.515-1.523-5.489-2.42-8.693-2.42c-7.117,0-13.146,4.368-15.307,10.428
	c-2.809-2.346-6.417-3.762-10.36-3.762c-6.16,0-11.513,3.445-14.242,8.516c-1.305-0.324-2.673-0.516-4.091-0.516
	c-4.08,0-7.78,1.452-10.548,3.807c-3.026-4.689-8.288-7.807-14.286-7.807c-7.571,0-13.979,4.952-16.181,11.791
	c-0.499-0.073-1.005-0.124-1.523-0.124c-2.394,0-4.59,0.817-6.345,2.18c-2.354-3.332-6.229-5.514-10.617-5.514
	c-6.708,0-12.227,5.081-12.923,11.604c-2.646-2.824-6.399-4.604-10.577-4.604c-6.795,0-12.479,4.681-14.054,10.989
	c-2.229-3.61-6.208-6.025-10.761-6.025c-5.234,0-9.728,3.182-11.648,7.716c-2.848-4.792-8.059-8.013-14.037-8.013
	c-9.021,0-16.333,7.312-16.333,16.333c0,0.298,0.028,0.588,0.044,0.882c-1.916-1.786-4.438-2.882-7.211-2.882
	c-4.778,0-8.826,3.229-10.266,7.705c-2.875-3.08-7.135-5.039-11.9-5.039c-6.982,0-12.896,4.193-14.918,9.982
	c-2.401-2.49-6.458-4.131-11.059-4.131c-7.377,0-13.356,4.212-13.356,9.406c0,0.438,0.058,0.862,0.14,1.283
	c-2.199-3.521-6.135-5.877-10.64-5.877c-4.445,0-8.339,2.295-10.556,5.741c-1.934-4.752-6.326-8.074-11.442-8.074
	c-6.146,0-11.246,4.794-12.292,11.104c-2.575-5.217-7.672-8.771-13.544-8.771c-6.054,0-11.271,3.784-13.765,9.267
	c-2.824-5.524-8.211-9.267-14.402-9.267c-6.922,0-12.837,4.673-15.288,11.29c-6.108,0.252-11.509,2.766-15.062,6.592
	c-3.099-7.547-10.646-12.883-19.484-12.883c-9.613,0-17.699,6.312-20.189,14.92c-4.438-4.666-10.762-7.587-17.785-7.587
	c-4.651,0-8.998,1.282-12.691,3.503v40.625V280h1920v-96.667v-31.261L9585.004,150.709z M8805.438,86.854
	c0.006-0.005,0.008-0.01,0.014-0.015c0.004,0.009,0.011,0.021,0.015,0.027L8805.438,86.854z"/>
<rect x="7680" y="257.292" fill="#03082B" width="1920" height="822.708"/>
</svg>
