<?xml version="1.0" encoding="utf-8"?>
<!-- Generator: Adobe Illustrator 16.0.5, SVG Export Plug-In . SVG Version: 6.00 Build 0)  -->
<!DOCTYPE svg PUBLIC "-//W3C//DTD SVG 1.1//EN" "http://www.w3.org/Graphics/SVG/1.1/DTD/svg11.dtd">
<svg version="1.1" id="Layer_1" xmlns="http://www.w3.org/2000/svg" xmlns:xlink="http://www.w3.org/1999/xlink" x="0px" y="0px"
	 width="1920px" height="1080px" viewBox="0 0 1920 1080" enable-background="new 0 0 1920 1080" xml:space="preserve">
<path fill="#4889c9" d="M1397.819,763.209c-0.216,0-0.421,0.039-0.617,0.095c0.003-0.032,0.011-0.062,0.011-0.094
	c0-0.858-0.766-1.555-1.71-1.555c-0.071,0-0.14,0.012-0.208,0.02c0-0.007,0.002-0.013,0.002-0.02c0-0.858-0.766-1.556-1.71-1.556
	c-0.312,0-0.603,0.082-0.854,0.217c-0.252-0.135-0.542-0.217-0.854-0.217c-0.259,0-0.501,0.057-0.721,0.149
	c-2.617-1.261-4.781-1.661-4.781-1.661s-6.212-1.101-10.375-1.467v-0.964h-3.792v0.859c-3.055,0.082-7.056,0.438-9.63,0.859
	c-0.226-0.619-0.859-1.069-1.616-1.069c-0.944,0-1.711,0.696-1.711,1.556c0,0.153,0.032,0.301,0.079,0.441
	c-1.623,0.719-3.736,1.867-5.857,2.846c-0.311-0.287-0.74-0.468-1.22-0.468c-0.945,0-1.711,0.696-1.711,1.556
	c0,0.027,0.008,0.055,0.009,0.083c-0.183,0.06-0.373,0.134-0.551,0.185c-1.86,0.528-5.691,1.035-9.017,1.406l-0.305-0.16
	l-0.906,0.161c-0.313-0.317-0.765-0.521-1.271-0.521c-0.703,0-1.306,0.388-1.569,0.938c-0.106,0.01-0.209,0.02-0.31,0.029
	l-0.203-0.057l-0.413,0.112c-0.632,0.058-1.008,0.09-1.008,0.09h-0.579v0.057l-0.213-0.046c-0.289-0.484-0.848-0.817-1.497-0.817
	c-0.807,0-1.477,0.508-1.658,1.188l-0.317-0.04l-1.419,0.119l-1.419-0.518l-0.574-0.001c-0.229-0.612-0.86-1.057-1.611-1.057
	c-0.824,0-1.513,0.53-1.674,1.235l-0.407,0.181l-1.425-0.554l-1.423,0.03l-0.185,0.063c-0.312-0.394-0.814-0.65-1.388-0.65
	c-0.465,0-0.885,0.17-1.192,0.442l-0.09-0.043l-1.431,0.261l-1.448,0.416l-1.452,0.297l-1.463-0.323l-1.471-0.659l-1.438,0.764
	l-1.451,0.334l-1.154-0.357c-0.229-1.039-1.273-1.825-2.535-1.825c-1.31,0-2.38,0.853-2.549,1.952l-1.049,0.271l-1.469-0.375
	l-1.451,0.329l-1.454,0.253l-0.614-0.204c-0.013-1.231-1.013-2.228-2.248-2.228c-1.115,0-2.034,0.815-2.212,1.881l-0.771-0.101
	l-1.446,0.68l-1.462-0.023l-1.467-0.347l-1.466-0.102l-1.113,0.57c0.007-0.076,0.021-0.148,0.021-0.227c0-1.381-1.119-2.5-2.5-2.5
	c-1.169,0-2.144,0.807-2.417,1.891l-1.062-0.187l-1.427,0.457l-1.369-0.407l-1.367-0.429l-1.398-0.002l-1.453,0.857l-1.347-0.798
	l-1.417,0.264l-1.393-0.086l-1.354-0.748l-1.396-0.117l-1.404,0.083l-1.368-0.138l-1.44,0.649l-1.359-0.289l-1.321-0.713
	l-0.421-0.034c-0.419-0.793-1.242-1.339-2.201-1.339c-1.09,0-2.007,0.701-2.35,1.675l-0.601-0.148l-1.368-0.356l-1.315-0.671
	l-1.386-0.174l-1.473,0.468l-1.277-0.929l-1.385-0.202l-1.371-0.279l-1.492,0.601l-1.312-0.738l-1.45,0.282l-1.294-0.871
	l-1.438,0.159l-1.444,0.47l-1.361-0.031l-1.397-0.405l-1.397,0.328l-1.398-0.404l-1.4-0.07l-1.396,0.443l-1.396-0.304l-1.399-0.265
	l-1.398,0.679l-1.399-0.739l-1.401-0.201l-1.4,0.842l-1.401-0.2l-1.405-0.359l-1.396,0.574l-1.394,0.04l-1.404-0.146l-1.413-0.33
	l-1.386,0.393l-1.414-0.354l-1.37,0.763l-1.396,0.059l-1.417-0.401l-1.407-0.221l-1.386,0.481l-1.397,0.126l-1.402-0.049
	l-1.427-0.595l-1.403,0.107l-1.385,0.717l-0.006-0.003v-0.17l-5.794-2.69c0.054-0.149,0.09-0.308,0.09-0.475
	c0-0.858-0.767-1.555-1.71-1.555c-0.666,0-1.237,0.35-1.521,0.854l-1.062-0.338c0.062-0.162,0.104-0.334,0.104-0.516
	c0-0.858-0.766-1.556-1.71-1.556c-0.748,0-1.377,0.439-1.608,1.047l-1.83-0.581c0.052-0.147,0.087-0.303,0.087-0.466
	c0-0.857-0.767-1.555-1.71-1.555c-0.737,0-1.359,0.426-1.602,1.021c-1.5-0.328-9.643-2.056-14.734-1.941
	c-5.625,0.125-12.562,2.312-12.562,2.312l-9.028,4.628c-0.314-0.353-0.786-0.58-1.322-0.58c-0.945,0-1.711,0.695-1.711,1.555
	c0,0.185,0.042,0.359,0.106,0.524l-0.67,0.343l-6.915,0.636l-0.882-0.236l-1.328-0.521l-1.447,0.139l-1.482,0.402l-1.405-0.122
	l-1.352-0.483l-1.369-0.383l-1.36-0.44l-1.374-0.338l-1.521,0.646l-1.39-0.261l-1.364-0.415l-1.354-0.484l-1.434,0.04l-1.28-0.976
	l-1.506,0.545l-1.312-0.762l-1.43,0.009l-1.444,0.121l-1.438,0.074l-1.381-0.333l-1.417-0.067l-1.257-1.18l-1.533,0.672
	l-1.385-0.162l-1.389-0.389l-1.395-0.77l-1.448,0.418l-1.453,0.488l-1.386-0.943l-1.469,0.734l-1.387-1l-1.464,0.67l-1.409-0.473
	l-1.417-0.312l-1.462,0.577l-1.405-0.604l-1.434,0.018l-1.433-0.021l-1.414-0.465l-1.467,0.661l-1.414-0.422l-1.459,0.509
	l-1.394-0.934l-1.434,0.048l-1.462,0.624l-1.394-0.931l-1.446,0.256l-1.455,0.393l-1.447,0.212l-1.398-0.805l-1.461,0.452
	l-1.397-0.897l-1.456,0.122l-1.418,0.779l-1.428-0.765l-1.423-0.068l-1.418,0.266l-1.422-0.338l-1.41,0.578l-1.416,0.225
	l-1.418,0.036l-1.425-0.391l-1.416,0.567l-1.424-0.265l-1.415,0.338l-1.421-0.062l-1.424-0.086l-1.423-0.062l-1.429-0.619
	l-1.417,0.429l-1.421,0.147l-1.429-0.539l-1.415,0.806l-1.43-0.736l-1.422,0.34l-1.425-0.359l-1.417,0.293l-1.429-0.323
	l-1.417,0.448l-1.427-0.153l-1.418,0.704l-1.433-0.718l-1.422,0.48l-1.437-0.646l-1.425,0.986l-1.431-0.937l-1.438,0.351
	l-1.438-0.054l-1.438-0.199l-1.447,0.561l-1.438-0.097l-1.439,0.289L993,756.207l-1.435-0.384l-1.44,0.239l-1.436-0.518
	l-1.444,0.174l-1.437-0.266l-1.444,0.554l-1.44,0.154l-1.441-0.131l-1.435-0.641l-1.447,0.625l-1.434-0.8l-1.445,0.182l-1.446,0.433
	l-1.438-0.555l-1.441,0.012l-1.45,0.573l-1.438-0.23l-1.444,0.463l-1.442-0.141l-1.438-0.596l-1.447,0.282l-1.447,0.248
	l-1.438-0.424L958.4,755.4l-1.452,0.225l-1.455,0.43l-1.453-0.642l-1.454-0.468l-1.47,0.861l-1.453-0.642l-1.459-0.286l-1.475,0.843
	l-1.46-0.185l-1.463,0.016l-1.455-0.512l-1.468,0.183l-1.467,0.231l-1.458-0.378l-1.463-0.109l-1.464-0.129l-1.476,0.867
	l-1.462-0.306l-1.461-0.296l-1.464-0.199l-1.47,0.631l-1.46-0.187l-1.461-0.442l-1.468,0.236l-1.46-0.538l-1.472,0.261l-1.472,0.5
	l-1.462-0.637l-1.471-0.1l-1.477,0.477l-1.412,0.148l-1.431-0.448l-1.412,0.269l-1.403,0.547l-1.427-0.513l-1.414-0.03l-1.408,0.374
	l-1.414,0.212l-1.431-0.474l-1.41,0.352l-1.414,0.136l-1.419-0.05l-1.416,0.2l-1.43-0.431l-1.417,0.068l-1.416,0.186l-1.425-0.143
	l-1.412,0.327l-1.427-0.227l-1.426-0.229l-1.41,0.541l-1.422-0.182l-1.427-0.408l-1.407,0.672l-1.425-0.2l-1.434-0.508l-1.405,0.86
	l-1.419,0.109l-1.44-0.67l-1.415,0.559l-1.433,0.089l-1.438-0.147l-1.425-0.208l-1.438,0.2l-1.409-0.617l-1.421-0.257l-1.438,0.186
	l-1.458,0.697l-1.424-0.327l-1.414-0.559l-1.445,0.403l-1.44,0.215l-1.401-0.974l-1.445,0.312l-1.454,0.586l-1.436-0.001
	l-1.429-0.207l-1.431-0.113l-1.412-0.713l-1.44,0.144l-1.46,0.688l-1.396-1.024l-1.466,0.926l-1.419-0.53L836.121,755l-1.41-0.791
	l-1.466,0.779l-1.433-0.122l-1.443,0.096l-1.42-0.639l-1.453,0.312l-1.416-0.211l-1.431,0.185l-1.419-0.148l-1.418-0.253
	l-1.416-0.303l-1.441,0.239l-1.434,0.116l-1.4-0.697l-1.421-0.126l-1.456,0.713l-1.402-0.657l-1.426-0.105l-1.467,0.893
	l-1.417-0.306l-1.427-0.074l-1.424-0.129l-1.41-0.557l-1.438,0.198l-1.408-0.56l-1.473,1.043l-1.395-0.967l-1.455,0.588
	l-1.417-0.382l-1.444,0.322l-1.433-0.062l-1.408-0.53l-1.436,0.182l-1.411-0.587l-1.447,0.376l-1.445,0.303l-1.408-0.691
	l-1.425-0.21l-1.45,0.331l-1.431-0.19l-1.439,0.044l-1.402-0.353l-1.473,0.438l-1.383-0.593l-1.478,0.474l-1.423-0.173l-1.36-0.894
	l-1.479,0.467l-1.44,0.035l-1.398-0.432l-1.399-0.458l-1.471,0.355l-1.434-0.042l-1.454,0.162l-1.383-0.655l-1.382-0.653
	l-1.507,0.762l-1.406-0.38l-1.457,0.177l-1.381-0.651l-1.4-0.409l-1.439-0.029l-1.459,0.221l-1.467,0.296l-1.393-0.579l-1.442,0.018
	l-1.449,0.042l-1.414-0.372l-1.469,0.192l-1.372-0.799l-1.438-0.173l-1.491,0.267l-1.37-0.795l-1.502,0.333l-1.444-0.151
	l-1.492,0.278l-1.361-0.859l-1.502,0.335l-1.408-0.481l-1.389-0.631l-1.468,0.036l-1.459-0.049l-1.417-0.404l-1.515,0.438
	l-1.459-0.044l-1.369-0.833l-1.535,0.638l-1.446-0.121l-1.428-0.338l-1.433-0.268l-1.41-0.485l-1.501,0.291l-1.427-0.326
	l-1.475,0.06l-1.34-1.144l-1.54,0.659l-1.375-0.897l-1.464,0.298l-1.432-0.221l-1.432-0.248l-1.495,0.731l-1.391-0.831l-1.46,0.203
	l-1.438-0.162l-1.467,0.295l-1.39-0.861l-1.466,0.258l-1.482,0.498l-1.403-0.65l-1.477,0.389l-1.4-0.714l-1.446-0.058l-1.482,0.538
	l-1.391-0.823l-1.478,0.4l-1.397-0.769l-1.443-0.099l-1.455,0.047l-1.465,0.218l-1.439-0.201l-1.472,0.242l-1.408-0.803
	l-1.441,0.196l-1.425-0.087l-1.427-0.001l-1.412-0.438l-1.441,0.443l-1.418-0.283l-1.437,0.455l-1.417-0.153l-1.407-0.454
	l-1.415-0.278l-1.459,0.941l-1.42-0.289l-1.425-0.058l-1.409-0.47l-1.446,0.607l-1.417-0.236l-1.417-0.285l-1.414-0.421
	l-1.432,0.053l-1.438,0.307l-1.433,0.156l-1.423-0.124l-1.414-0.45l-1.451,0.641l-1.402-0.736l-1.435,0.15l-1.43-0.033l-1.431,0.005
	l-1.418-0.357l-1.434,0.122l-1.434,0.062l-1.427-0.029l-1.42-0.22l-1.424-0.237l-1.454,0.703l-1.401-0.851l-1.455,0.632
	l-1.411-0.594l-1.457,0.656l-1.412-0.756l-1.443-0.266l-1.43,0.829l-1.497-0.853l-1.409,0.984l-1.485-0.628l-1.432,0.526
	l-1.437,0.38l-1.49-0.729l-1.442,0.278l-1.426,0.507l-1.463-0.274l-1.427,0.492l-1.452,0.033l-1.494-0.823l-1.447,0.237
	l-1.458-0.047l-1.411,0.886l-1.455-0.038l-1.46-0.146l-1.469-0.305l-1.456,0.011l-1.418,0.828l-1.476-0.418l-1.422,0.717
	l-1.449,0.119l-1.481-0.476l-1.429,0.612l-1.463-0.136l-1.489-0.646l-1.413,0.955l-1.469-0.227l-1.445,0.293l-1.499-0.854
	l-1.431,0.608l-1.428,0.604l-1.486-0.642l-1.457,0.079l-1.449,0.197l-1.459,0.001l-1.466-0.094l-1.422,0.782l-1.507-0.907
	l-1.449,0.352l-1.462-0.188l-1.433,0.257l-1.442,0.742l-1.443-0.916l-1.444,0.107l-1.443-0.088l-1.445,0.561l-1.445-0.669
	l-1.443,0.404l-1.444,0.248l-1.443,0.273l-1.444-0.679l-1.439,0.742l-1.438-0.427l-1.44,0.446l-1.441-0.444l-1.444-0.187
	l-1.447-0.194l-1.443,0.386l-1.443,0.08l-1.442-0.325l-1.441-0.098l-1.443,0.062l-1.445-0.024l-1.447,0.294l-1.445-0.188
	l-1.444,0.514l-1.444-0.608l-1.447,0.648l-1.447-0.41l-1.445,0.244l-1.446,0.069l-1.448-0.528l-1.447-0.264l-1.447-0.034
	l-1.447,0.265l-1.449-0.028l-1.445-0.196l-1.444,0.837l-1.45-0.888l-1.447,0.419l-1.449,0.206l-1.45-0.554l-1.449,0.752
	l-1.452-0.281l-1.454-0.26l-1.45-0.3l-1.438,0.568l-1.427-0.24l-1.441,0.517l-1.427-0.257l-1.439,0.307l-1.414-1.024l-1.443,0.584
	l-1.436,0.125l-1.416-0.841l-1.436,0.17l-1.432,0.186l-1.427-0.002l-1.43,0.077l-1.438,0.396l-1.434,0.052l-1.431-0.208
	l-1.429-0.237l-1.421-0.521l-1.446,0.82l-1.423-0.373l-1.435,0.138l-1.438,0.166l-1.427-0.412l-1.438,0.315l-1.433-0.028
	l-1.429-0.22l-1.432-0.19l-1.435-0.037l-1.43-0.223l-1.439,0.205l-1.437,0.033l-1.427-0.412l-1.438,0.114l-1.437,0.071l-1.44,0.188
	l-1.425-0.428l-1.442,0.482l-1.426-0.605l-1.434-0.053l-1.444,0.325l-1.446,0.357l-1.429-0.395l-1.437-0.278l-1.447,0.279
	l-1.429-0.611l-1.436,0.007l-1.446,0.166l-1.442,0.029l-1.426-0.535l-1.464,0.671l-1.429-0.337l-1.45,0.24l-1.447,0.127
	l-1.412-0.943l-1.441-0.027l-1.468,0.762l-1.44-0.137l-1.432-0.351l-1.429-0.463l-1.446,0.054l-1.47,0.735l-1.412-0.877
	l-1.455,0.419l-1.452,0.151l-1.428-0.452l-1.439-0.178l-1.453,0.168l-1.453,0.232l-1.445-0.09l-1.441-0.301l-1.464,0.521
	l-1.433,0.058l-1.429-0.58l-1.438,0.202l-1.429-0.379l-1.443,0.588l-1.431-0.438l-1.441,0.278l-1.429-0.444l-1.435-0.193
	l-1.434-0.302l-1.443,0.457l-1.432-0.405l-1.438-0.062l-1.453,0.949l-1.425-0.629l-1.433-0.163l-1.446,0.434l-1.429-0.58
	l-1.438-0.075l-1.444,0.294l-1.44,0.066l-1.449,0.513l-1.444,0.009l-1.428-0.955l-1.436,0.149l-1.424-0.391l-1.447,0.282
	l-1.443,0.062l-1.432-0.208l-1.458,0.644l-1.428-0.255l-1.428-0.295l-1.427-0.326l-1.456,0.497l-1.44,0.014l-1.415-0.768
	l-1.438-0.007l-1.435-0.124l-1.461,0.6l-1.417-0.752l-1.438-0.051l-1.445,0.147l-1.457,0.455l-1.433-0.271l-1.44-0.051l-1.449,0.231
	l-1.449,0.183l-1.422-0.522l-1.425-0.45l-1.466,0.684l-1.448,0.225l-1.44-0.111l-1.412-1.057l-1.467,0.779l-1.427-0.629
	l-1.447-0.036l-1.449,0.403l-1.354,0.506l-1.521-0.615l-1.427,0.072l-1.323,0.836l-1.478-0.283l-1.369,0.526l-1.443,0.011
	l-1.326,0.849l-1.511-0.519l-1.347,0.672l-1.469-0.211l-1.438,0.019l-1.395,0.348l-1.358,0.63l-1.444-0.012l-1.383,0.428
	l-1.413,0.213l-1.402,0.312l-1.442,0.017l-1.507-0.474l-1.316,0.938l-1.484-0.279l-1.442,0.019l-1.328,0.859l-1.474-0.219
	l-1.387,0.438l-1.395,0.349l-1.387,0.398l-1.509-0.448l-1.343,0.737l-1.421,0.187l-1.499-0.37l-1.455-0.062l-1.318,0.955
	l-1.435,0.131l-1.487-0.476l-1.428,0.403l-1.445-0.237l-1.45,0.068l-1.442-0.392l-1.46,0.66l-1.431-0.719l-1.457,0.792l-1.443-0.112
	l-1.435-0.711l-1.449-0.009l-1.464,0.769l-1.45,0.039l-1.443-0.206l-1.44-0.38l-1.443-0.215l-1.45,0.104l-1.447-0.196l-1.462,0.639
	l-1.445-0.285l-1.454,0.324l-1.432-1.036l-1.458,0.41l-1.446-0.292l-1.454,0.222l-1.448-0.175l-1.448-0.279l-1.462,0.615
	l-1.452-0.075l-1.45-0.127l-1.457,0.229l-1.449-0.046l-1.453,0.201l-1.453-0.068l-1.447-0.253l-1.459,0.324l-1.455-0.036
	l-1.454,0.045l-1.454-0.183l-1.443-0.923l-1.448,0.097l-1.456,0.108l-1.504,0.576l-1.371-1.051l-1.443-0.136l-1.497,0.527
	l-1.387-0.854l-1.466,0.105l-1.444-0.188l-1.439-0.233l-1.459,0.034l-1.433-0.306l-1.512,0.661l-1.458-0.017l-1.458,0.019
	l-1.367-1.146l-1.45-0.135l-1.519,0.74l-1.447-0.171l-1.41-0.623l-1.468,0.076l-1.431-0.322l-1.493,0.448l-1.464,0.021l-1.424-0.437
	l-1.416-0.568l-1.507,0.551l-1.422-0.485l-1.49,0.314l-1.452-0.189l-1.43-0.495l-1.469,0.028l-1.468,0.127l-1.466-0.618
	l-1.468,0.272l-1.467,0.801l-1.469-0.781l-1.465,0.593l-1.464,0.12l-1.47-0.295l-1.467-0.512L120.86,741l-1.471-0.024l-1.468-0.141
	l-1.472,0.6l-1.474-0.006l-1.473-0.376l-1.443-0.213l-1.419,0.218l-1.414,0.281l-1.455-0.479l-1.417,0.215l-1.402,0.524
	l-1.428,0.063l-1.43,0.055l-1.436-0.084l-1.453-0.419l-1.368,1.16l-1.466-0.603l-1.447-0.259l-1.392,0.736l-1.44-0.13l-1.401,0.62
	l-1.457-0.455l-1.399,0.662l-1.466-0.597l-1.442-0.132l-1.414,0.312l-1.414,0.323l-1.469-0.617l-1.375,1.069l-1.454-0.341
	l-1.463-0.488l-1.377,1.073l-1.449-0.193l-1.429,0.214l-1.464-0.494l-1.391,0.709l-1.443-0.916l-1.393,0.896l-1.411,0.225
	l-1.428-0.436l-1.419-0.193l-1.418-0.12l-1.39,0.905l-1.44-0.756l-1.418,0.041l-1.415,0.088l-1.408,0.295l-1.413,0.149l-1.409,0.357
	l-1.44-0.732l-1.41,0.256l-1.429-0.33l-1.391,1.032l-1.438-0.623l-1.426-0.197l-1.396,0.822l-1.416,0.182l-1.419-0.056l-1.423-0.189
	l-1.415,0.263l-1.436-0.578l-1.406,0.513l-1.415,0.287l-1.423-0.057l-1.424,0.027l-1.453-0.897l-1.431,0.168l-1.44,0.147
	l-1.389,0.745l-1.475-0.421l-1.394,0.664l-1.455-0.155l-1.434,0.156l-1.461-0.238l-1.414,0.428l-1.438,0.078l-1.457-0.142
	l-1.441,0.015l-1.428,0.191L6.6,746.258l-1.419,0.335l-1.457-0.134l-1.466-0.256l-1.451-0.079L0,746.371v50.79l579-26.494
	L598.361,770l33.307-2.166l24.666-1.584l23.666-0.5l18.167,0.49l27.334,1.26L755,768h54.667l42-0.667L898,769h27.667L977,768.5
	l76-2.166l40.334,1.666l31.666,1.418v0.088l13,0.582l23,1h30V771h1l25-1l25,1h21l14.5-0.75l17.5-0.75l22,0.5h17.421v0.005h2.079
	l12.5-2l16.5-1h12.5h15l4.819-0.032l-0.002-0.005h0.002c1.143,0,2.067-0.842,2.067-1.879
	C1399.888,764.051,1398.962,763.209,1397.819,763.209z"/>
<linearGradient id="SVGID_1_" gradientUnits="userSpaceOnUse" x1="601.2041" y1="-101.4727" x2="636.1622" y2="-81.2895" gradientTransform="matrix(1 0 0 -1 -298 693)">
	<stop  offset="0.4996" style="stop-color:#1b4787"/>
	<stop  offset="1" style="stop-color:#4889c9"/>
</linearGradient>
<path fill="url(#SVGID_1_)" d="M341.502,781.027l-0.027-1c-0.112,0.003-5.257,0.158-12.375,0.973
	c-0.856-0.593-6.386-1.606-11.266-0.332c-3.923,1.024-6.588,2.787-7.269,3.605c-5.133,1.111-6.499,1.689-11.014,3.643l0.396,0.918
	c4.111-1.777,6.286-2.57,10.968-3.637v1.511h1v-1.731c5.086-1.108,12.631-2.442,16.978-2.946v1.471h1v-1.585
	C336.607,781.175,341.394,781.03,341.502,781.027z"/>
</svg>
