<?xml version="1.0" encoding="utf-8"?>
<!-- Generator: Adobe Illustrator 16.0.5, SVG Export Plug-In . SVG Version: 6.00 Build 0)  -->
<!DOCTYPE svg PUBLIC "-//W3C//DTD SVG 1.1//EN" "http://www.w3.org/Graphics/SVG/1.1/DTD/svg11.dtd">
<svg version="1.1" id="Layer_1" xmlns="http://www.w3.org/2000/svg" xmlns:xlink="http://www.w3.org/1999/xlink" x="0px" y="0px"
	 width="1920px" height="1280px" viewBox="0 0 1920 1280" enable-background="new 0 0 1920 1280" xml:space="preserve">
<path fill="#03082B" d="M1919.995,1060.5v-77.167v-31.261l-15.991-1.363c0-0.026,0.004-0.052,0.004-0.078
	c0-3.078-2.495-5.573-5.573-5.573c-2.781,0-5.083,2.042-5.499,4.708l-21.211-1.808c-0.475-0.838-1.363-1.409-2.396-1.409
	c-0.861,0-1.623,0.404-2.13,1.023l-10.662-0.908c0.01-0.102,0.029-0.197,0.029-0.3c0-1.952-1.582-3.534-3.533-3.534
	c-0.417,0-0.812,0.085-1.186,0.218c-0.486-1.868-2.173-3.253-4.191-3.253c-1.356,0-2.556,0.634-3.354,1.607
	c-0.728-1.752-2.45-2.986-4.465-2.986c-1.779,0-3.317,0.973-4.156,2.405c-1.006-1.452-2.683-2.405-4.583-2.405
	c-1.854,0-3.491,0.909-4.505,2.302c-0.838-2.082-2.873-3.554-5.256-3.554c-1.979,0-3.72,1.016-4.73,2.554
	c-1.263-2.05-3.52-3.421-6.103-3.421c-3.646,0-6.647,2.725-7.104,6.247l-0.472-0.071c0.265-0.846,0.405-1.744,0.405-2.678
	c0-4.969-4.029-8.998-8.998-8.998c-2.834,0-5.359,1.313-7.01,3.36c-0.069-6.761-5.566-12.222-12.346-12.222
	c-3.9,0-7.375,1.812-9.64,4.64c-1.778-1.89-4.296-3.075-7.095-3.075c-3.803,0-7.088,2.182-8.694,5.357
	c-2.134-2.56-5.341-4.188-8.931-4.188c-4.36,0-8.155,2.405-10.146,5.958c-1.04-4.486-5.052-7.833-9.854-7.833
	c-2.721,0-5.188,1.079-7.006,2.826c-0.743-4.789-4.872-8.459-9.869-8.459c-3.404,0-6.408,1.706-8.215,4.307
	c-1.521-2.571-4.313-4.307-7.521-4.307c-2.552,0-4.839,1.101-6.437,2.844c-1.665-3.102-4.938-5.211-8.704-5.211
	c-5.123,0-9.334,3.901-9.824,8.896c-1.081-0.343-2.23-0.526-3.426-0.526c-4.396,0-8.2,2.497-10.097,6.146l-0.467-0.322
	c1.793-1.469,2.938-3.696,2.938-6.192c0-4.418-3.582-8-8-8c-1.459,0-2.822,0.397-4.001,1.08c-1.282-3.849-4.907-6.627-9.188-6.627
	c-5.232,0-9.485,4.152-9.671,9.341c-2.144-2.328-5.206-3.795-8.618-3.795c-5.537,0-10.166,3.841-11.396,9
	c-1.893-1.172-4.114-1.859-6.503-1.859c-3.613,0-6.854,1.561-9.117,4.027c0.152-0.575,0.242-1.177,0.242-1.8c0-3.866-3.135-7-7-7
	c-1.797,0-3.43,0.683-4.668,1.794c-1.465-2.487-4.164-4.161-7.261-4.161c-2.811,0-5.29,1.379-6.82,3.492
	c-1.416-3.295-4.688-5.604-8.501-5.604c-2.272,0-4.354,0.823-5.965,2.188c-2.721-4.183-7.426-6.955-12.785-6.955
	c-6.773,0-12.511,4.421-14.497,10.532c-1.188-0.812-2.624-1.284-4.171-1.284c-2.729,0-5.104,1.476-6.395,3.667
	c-0.734-0.211-1.512-0.331-2.312-0.331c-2.808,0-5.286,1.387-6.807,3.507c-1.636-2.98-4.804-5.007-8.443-5.007
	c-2.886,0-5.467,1.275-7.229,3.286c-1.119-1.961-3.227-3.286-5.646-3.286c-1.015,0-1.971,0.238-2.824,0.652
	c-1.494-3.378-4.869-5.736-8.801-5.736c-0.256,0-0.509,0.019-0.761,0.038c-1.381-2.785-4.245-4.704-7.565-4.704
	c-1.301,0-2.525,0.302-3.627,0.826c-1.51-3.43-4.935-5.826-8.922-5.826c-2.898,0-5.494,1.271-7.28,3.281
	c-1.578-3.893-5.389-6.638-9.845-6.638c-3.922,0-7.34,2.133-9.181,5.294c-1.9-3.168-5.357-5.294-9.319-5.294
	c-4.111,0-7.688,2.283-9.537,5.65c-2.119-3.643-6.057-6.097-10.572-6.097c-5.31,0-9.812,3.386-11.508,8.109l-1.256-0.068
	c-1.828-2.239-4.608-3.67-7.729-3.67c-2.718,0-5.18,1.09-6.979,2.853l-2.897-0.159c-1.818-1.758-4.293-2.844-7.021-2.844
	c-2.323,0-4.46,0.792-6.169,2.109l-1.227-0.068c-1.589-2.341-4.271-3.88-7.313-3.88c-1.801,0-3.473,0.541-4.866,1.465
	c-1.438-3.591-4.943-6.131-9.05-6.131c-2.18,0-4.188,0.726-5.812,1.935c-0.603-6.411-5.993-11.435-12.563-11.435
	c-3.438,0-6.553,1.379-8.829,3.609c-2.278-2.607-5.622-4.265-9.355-4.265c-3.602,0-6.832,1.537-9.104,3.981
	c-3.013-2.487-6.873-3.981-11.084-3.981c-3.54,0-6.828,1.062-9.577,2.877c-2.861-3.104-6.949-5.06-11.505-5.06
	c-3.354,0-6.452,1.062-9,2.854c-1.35-1.056-3.041-1.688-4.887-1.688c-0.702,0-1.381,0.102-2.029,0.271
	c-2.955-3.23-7.192-5.271-11.918-5.271c-5.866,0-10.989,3.137-13.821,7.812c-1.421-1.125-3.212-1.802-5.162-1.802
	c-2.53,0-4.794,1.134-6.32,2.915c-1.34-1.389-3.241-2.262-5.36-2.262c-2.189,0-4.152,0.934-5.497,2.406
	c-1.407-2.428-4.165-4.073-7.336-4.073c-2.392,0-4.539,0.938-6.06,2.438c-0.589-7.586-6.98-13.562-14.798-13.562
	c-2.183,0-4.245,0.478-6.11,1.312c-1.95-3.999-6.228-6.78-11.2-6.78c-6.057,0-11.082,4.119-12.125,9.549
	c-1.819-1.784-4.823-2.953-8.229-2.953c-3.441,0-6.479,1.193-8.292,3.011l-0.03-0.011l-4.666-3.333l-5.749-2.3
	c0.973-0.984,1.551-2.188,1.551-3.492c0-3.312-3.692-6-8.25-6c-2.696,0-5.084,0.945-6.589,2.4c-2.021-0.577-5.792-1.655-7.963-2.275
	c-3.062-0.875-5.209-0.625-8.333-1c-3.125-0.375-7.334-3.667-7.334-3.667s-6.416-4.333-11.999-5.666
	c-3.825-0.913-13.517-1.514-19.239-1.802v-1.115l-1.751-3.083v-18.5l-1.412-3.16l-1.417,3.167v18.5l-1.751,3.166v1.141
	c-3.039,0.489-9.012,1.45-12.592,2.026c-4.948,0.796-14.114,5.065-18.5,7c-1.922,0.849-6.191,2.562-10.383,4.222
	c-0.186-3.88-3.433-6.972-7.42-6.972c-4.107,0-7.438,3.273-7.438,7.312c0,1.272,0.334,2.475,0.918,3.519l-20.99-1.921
	c0.284-0.883,0.447-1.834,0.447-2.833c0-4.461-3.104-8.077-6.938-8.077s-6.938,3.616-6.938,8.077c0,0.574,0.053,1.133,0.151,1.673
	H916.48c-1.37-2.46-3.979-4.125-6.979-4.125c-3.043,0-5.688,1.712-7.041,4.232l-5.752,1.155c-0.352-4.158-2.967-7.391-6.145-7.391
	c-2.184,0-4.098,1.525-5.197,3.825c-1.492-1.22-3.404-1.95-5.491-1.95c-4.405,0-8.032,3.266-8.554,7.479
	c-1.503-0.615-3.312-0.979-5.262-0.979c-4.688,0-8.566,2.095-9.302,4.836c-0.676-0.136-1.393-0.211-2.135-0.211
	c-3.685,0-6.729,1.805-7.278,4.159c-1.031-0.646-2.317-1.034-3.722-1.034c-2.381,0-4.44,1.109-5.454,2.729
	c-1.096-2.145-4.892-3.729-9.421-3.729c-2.832,0-5.373,0.622-7.154,1.609c-0.859-0.974-2.259-1.609-3.846-1.609
	c-1.288,0-2.452,0.42-3.307,1.096c-0.287-2.158-2.488-3.846-5.193-3.846c-0.576,0-1.121,0.095-1.639,0.234
	c-0.863-2.295-3.802-3.984-7.298-3.984c-4.18,0-7.562,2.406-7.562,5.375c0,0.286,0.041,0.564,0.102,0.84
	c-2.75-0.155-5.857-0.213-8.776,0c-2.667-5.17-9.08-8.201-15.885-7.021c-7.23,1.254-12.45,6.833-12.691,13.047
	c-0.637,0.163-1.004,0.259-1.004,0.259l-23.812,6.521c1.932-1.421,3.15-3.478,3.15-5.771c0-4.28-4.216-7.75-9.417-7.75
	c-3.747,0-6.973,1.805-8.489,4.412c-1.838-1.516-4.624-2.479-7.743-2.479c-1.65,0-3.207,0.275-4.582,0.757
	c-2.462-2.053-6.105-3.354-10.187-3.354c-7.41,0-13.417,4.291-13.417,9.583c0,0.646,0.093,1.283,0.265,1.896
	c-3.514,0.611-6.229,3.096-6.688,6.182c-0.026,0.001-0.058,0.009-0.082,0.009c-6.25,0-23.533,2.83-35.305,4.894
	c-2.189-0.463-4.619-0.728-7.189-0.728c-7.918,0-14.562,2.449-16.548,5.775c-1.104-0.39-2.325-0.608-3.619-0.608
	c-4.745,0-8.594,2.906-8.661,6.51c-1.075-0.11-2.188-0.177-3.339-0.177c-7.604,0-13.871,2.596-14.851,5.958
	c-1.041-0.292-2.153-0.458-3.316-0.458c-0.961,0-1.888,0.115-2.769,0.318c-0.784-0.814-1.868-1.318-3.064-1.318
	c-2.125,0-3.885,1.591-4.255,3.688c-0.452-0.117-0.923-0.188-1.412-0.188c-2.998,0-5.445,2.363-5.646,5.354
	c-1.651-0.439-3.456-0.688-5.353-0.688c-7.824,0-14.167,4.143-14.167,9.25c0,0.481,0.074,0.953,0.186,1.416
	c-1.611-0.84-3.495-1.332-5.52-1.332c-4.37,0-8.121,2.261-9.77,5.493c-1.902-1.151-4.148-1.827-6.563-1.827
	c-6.083,0-11.126,4.229-12.137,9.79c-0.666-0.072-1.34-0.123-2.03-0.123c-8.376,0-15.167,5.521-15.167,12.335
	c0,0.433,0.028,0.857,0.081,1.276c-1.605-1.01-3.592-1.611-5.748-1.611c-4.635,0-8.503,2.757-9.444,6.437
	c-2.127-1.521-4.805-2.435-7.723-2.435c-5.658,0-10.433,3.411-11.973,8.087c-2.515-1.523-5.49-2.42-8.694-2.42
	c-7.117,0-13.146,4.368-15.306,10.428c-2.809-2.346-6.417-3.762-10.361-3.762c-6.16,0-11.513,3.445-14.242,8.516
	c-1.305-0.324-2.673-0.516-4.091-0.516c-4.08,0-7.78,1.452-10.548,3.807c-3.026-4.689-8.288-7.807-14.286-7.807
	c-7.571,0-13.979,4.952-16.18,11.791c-0.499-0.073-1.005-0.124-1.524-0.124c-2.393,0-4.59,0.817-6.345,2.18
	c-2.354-3.332-6.229-5.514-10.617-5.514c-6.708,0-12.226,5.081-12.923,11.604c-2.646-2.824-6.399-4.604-10.577-4.604
	c-6.795,0-12.479,4.681-14.054,10.989c-2.229-3.61-6.207-6.025-10.76-6.025c-5.235,0-9.728,3.182-11.649,7.716
	c-2.847-4.792-8.059-8.013-14.037-8.013c-9.021,0-16.333,7.312-16.333,16.333c0,0.298,0.029,0.588,0.044,0.882
	c-1.916-1.786-4.438-2.882-7.211-2.882c-4.778,0-8.826,3.229-10.266,7.705c-2.874-3.08-7.134-5.039-11.9-5.039
	c-6.983,0-12.896,4.193-14.918,9.982c-2.401-2.49-6.458-4.131-11.058-4.131c-7.377,0-13.357,4.212-13.357,9.406
	c0,0.438,0.058,0.862,0.14,1.283c-2.2-3.521-6.135-5.877-10.64-5.877c-4.445,0-8.339,2.295-10.556,5.741
	c-1.933-4.752-6.326-8.074-11.442-8.074c-6.146,0-11.246,4.794-12.292,11.104c-2.575-5.217-7.672-8.771-13.544-8.771
	c-6.053,0-11.271,3.784-13.765,9.267c-2.823-5.524-8.21-9.267-14.402-9.267c-6.921,0-12.837,4.673-15.288,11.29
	c-6.108,0.252-11.508,2.766-15.061,6.592c-3.099-7.547-10.647-12.883-19.485-12.883c-9.613,0-17.699,6.312-20.19,14.92
	c-4.438-4.666-10.761-7.587-17.784-7.587c-4.652,0-8.998,1.282-12.692,3.503v21.667v18.958V1080v200H1920v-219.5H1919.995z
	 M1124.45,886.839c0.004,0.009,0.011,0.021,0.015,0.027l-0.027-0.013C1124.443,886.849,1124.445,886.844,1124.45,886.839z"/>
</svg>
