<?xml version="1.0" encoding="utf-8"?>
<!-- Generator: Adobe Illustrator 16.0.5, SVG Export Plug-In . SVG Version: 6.00 Build 0)  -->
<!DOCTYPE svg PUBLIC "-//W3C//DTD SVG 1.1//EN" "http://www.w3.org/Graphics/SVG/1.1/DTD/svg11.dtd">
<svg version="1.1" id="Layer_1" xmlns="http://www.w3.org/2000/svg" xmlns:xlink="http://www.w3.org/1999/xlink" x="0px" y="0px"
	 width="1920px" height="1080px" viewBox="0 0 1920 1080" enable-background="new 0 0 1920 1080" xml:space="preserve">
<path fill="#5090cc" d="M1920,774.729l-0.775,0.354l-1.818-0.93l-1.582,1.356l-1.803-0.735l-1.604,1.146l-1.466,0.34
	c-0.24-1.699-1.688-3.012-3.451-3.012c-1.884,0-3.408,1.492-3.485,3.354l-0.14,0.039l-1.8-0.737l-1.604,1.19l-1.722,0.08
	l-1.75-0.174l-1.711-0.689l-1.714,0.498l-1.712,0.83l-1.717-0.878l-1.713,0.516l-1.709-1.056l-1.715,0.415l-1.711-0.188
	l-1.714,0.923l-0.906-0.068c-0.551-1.21-1.765-2.056-3.181-2.056c-1.212,0-2.28,0.617-2.908,1.554l-1.621,0.711l-1.625-1.032
	l-1.642-0.623l-1.854,1.217l-1.595-1.029l-1.65-0.524l-1.71-0.021l-1.643-0.617l-1.793,0.7l-1.618-0.852l-1.771,0.521l-1.54-1.099
	c-0.867-1.148-2.231-1.902-3.781-1.902c-1.6,0-3.006,0.796-3.867,2.008l-1.187-0.104l-1.729-0.744l-1.758-0.211l-1.808,0.492
	l-1.766-0.156l-1.75-0.407l-1.771-0.079l-1.786,0.146l-1.774-0.091l-1.751-0.474l-1.791,0.102l-1.741-0.521l-1.77,0.617
	l-1.767,0.474l-1.729-0.684l-1.732-0.521l-1.769,0.583l-1.77,0.577l-1.748-0.135l-1.724-0.921l-1.74-0.396l-1.749-0.077
	l-1.771,0.608l-1.777,0.721l-1.72-1.249l-1.758,0.158l-1.774,0.867l-1.716-1.437l-1.78,1.213l-1.749,0.021l-1.747-0.138
	l-1.748-0.027l-1.741-0.806l-1.746-0.339l-1.707,0.684l-1.71,0.521l-1.722,0.295l-1.729-0.114l-1.761-0.692l-1.678,1.174
	l-1.728,0.057l-1.769-0.671l-1.703,0.543l-1.743-0.258l-1.722,0.346l-1.728,0.173l-1.771-0.646l-1.734-0.002l-1.743-0.097
	l-1.659,1.509l-1.771-0.638l-1.704,0.663l-0.87,0.125c-1.221-2.68-3.915-4.545-7.051-4.545c-3.188,0-5.926,1.927-7.114,4.678
	l-0.476-0.077l-1.711,0.193l-1.72-0.477l-1.709,0.153l-1.722-0.516l-1.716-0.143l-1.694,1.222l-1.716-0.092l-1.713,0.052
	l-1.732-1.151l-1.699,1.021l-1.721-0.774l-1.718-0.104l-1.693,1.347l-1.717-0.099l-1.715,0.149l-1.713,0.1l-1.721-0.183
	l-1.736-0.939l-1.719-0.219l-1.687,1.281l-1.671-1.376l-1.688,0.058l-1.689,0.761l-0.605,0.023c-0.062-2.709-2.267-4.89-4.988-4.89
	c-2.762,0-5,2.236-5,5c0,0.061,0.016,0.115,0.018,0.176l-1.226-0.345l-1.689,0.173l-1.688-0.394l-1.695,0.742l-1.688-0.159
	l-1.691,0.1l-1.691-0.29l-1.688-0.201l-1.688-0.76l-1.689,0.557l-1.689-0.499l-1.692-0.229l-1.695-0.006l-1.666,0.883l-1.767,0.563
	l-1.674-1.021l-1.785,0.646l-1.629-1.351l-1.829,1.245l-1.729-0.074l-1.646-1.322l-1.771,0.649l-1.728-0.062l-1.71-0.582
	l-1.734-0.189l-1.739,0.092l-1.733,0.27l-1.756-0.652l-1.635,1.001l-1.733-0.936l-1.647,0.475l-1.575,1.108l-1.722-0.395
	l-1.729-0.312l-1.69,0.027l-0.56,0.127c-0.98-0.666-2.163-1.056-3.438-1.056c-1.975,0-3.726,0.938-4.846,2.389l-1.098,0.25
	l-1.655,0.279l-1.618,0.45l-1.655,0.248l-1.531,0.408l-1.646,0.051l-1.682-0.468l-1.771,0.399l-1.767,0.363l-1.586-1.364
	l-1.762,0.319l-1.738,0.102l-1.714-0.158l-1.755,0.242l-1.729-0.007l-1.635-1.077l-1.777,0.497l-1.677-0.626l-1.695-0.43
	l-1.728-0.018l-1.766,0.709l-1.673-0.078l-1.673-1.294l-1.7,1.079l-1.688,0.334l-1.689-0.396l-1.683,0.459l-1.708-1.146
	l-1.677,1.071l-1.688,0.173l-1.692-0.158l-1.704-0.453l-1.709-0.618l-1.675,0.989l-1.691,0.127l-1.688,0.37l-1.728-1.269
	l-1.695,0.129l-1.675,0.883l-1.693,0.242l-1.713-0.457l-1.717-0.73l-0.044,0.039c-0.792-1.121-2.093-1.858-3.57-1.858
	c-1.895,0-3.491,1.212-4.101,2.896l-0.731-0.247l-1.118-0.32c-0.598-1.369-1.959-2.328-3.55-2.328c-1.979,0-3.592,1.488-3.827,3.402
	l-0.006,0.002l-1.711-0.546l-1.701,0.299l-1.71-0.471l-1.698,0.531l-1.714-0.647l-1.707-0.146l-1.707-0.074l-1.686,1.089
	l-1.71-0.235l-1.709-0.381l-1.709-0.236l-1.705,0.22l-1.7,0.406l-1.7,0.629l-1.728-1.093l-1.688,1.074l-1.771-0.586l-1.722,0.617
	l-1.771-0.378l-1.712,0.901l-1.778-0.573l-1.767-0.264l-1.741,0.241l-1.769-0.274l-1.712,0.89l-1.098-0.035
	c-0.357-1.912-2.031-3.358-4.048-3.358c-1.91,0-3.502,1.305-3.971,3.065l-1.377,0.952l-1.748,0.228l-1.824-1.318l-1.735,0.362
	l-1.69,0.479l-1.711,0.048l-1.709-0.374l-1.709,0.137l-1.722-0.415l-1.693,0.679l-1.725-0.336l-1.685,0.895l-1.715-0.075
	l-1.745-0.548l-1.715,0.122l-1.673-0.106l-1.621,0.699l-1.688-0.316l-1.623,0.689l-1.718-0.727l-1.616,0.76l-1.688-0.256
	l-1.661,0.146l-1.64,0.438l-1.642,0.372l-1.732-0.883l-0.698,0.398c-0.871-1.691-2.615-2.861-4.65-2.861
	c-2.897,0-5.25,2.351-5.25,5.25c0,0.522,0.102,1.02,0.243,1.497l-0.964,0.504l-2.061-0.077l-1.686,0.711l-1.435,1.483l-1.933-0.12
	l-1.876,0.072l-1.448,1.505l-1.92-0.068l-1.591,1.05l-1.737,0.325l-1.527,0.918l-1.36,1.287l-1.688,0.799l-1.655,0.855l-1.733,0.745
	l-1.685,1.327l2.091,0.438l1.687-0.472l0.053-0.03h38.601l50.827-1.737l44.518,0.706l12.616,1.24l55.377,5.444l24.526,1.663
	l106.681,4.455l92.094,3.981l87.741,1.97V774.729z"/>
</svg>
