<?xml version="1.0" encoding="utf-8"?>
<!-- Generator: Adobe Illustrator 16.0.5, SVG Export Plug-In . SVG Version: 6.00 Build 0)  -->
<!DOCTYPE svg PUBLIC "-//W3C//DTD SVG 1.1//EN" "http://www.w3.org/Graphics/SVG/1.1/DTD/svg11.dtd">
<svg version="1.1" id="Layer_1" xmlns="http://www.w3.org/2000/svg" xmlns:xlink="http://www.w3.org/1999/xlink" x="0px" y="0px"
	 width="1920px" height="1080px" viewBox="0 0 1920 1080" enable-background="new 0 0 1920 1080" xml:space="preserve">
<path fill="#68AFAF" d="M144.16,150.912c-1.163-0.605-3.83-1.068-5.697-1.068c0,0-10.858,0.138-19.941,0.264
	c-1.852-0.693-3.715-1.462-4.34-1.72c-1.294-0.533-3.712-1.037-3.712-1.037s2.708,1.558,4.825,2.802
	c-4.845,0.069-8.606,0.128-8.9,0.15c-0.872,0.063-1.6-0.206-2.139-0.617c0,0-5.317-5.176-5.587-5.445
	c-0.27-0.269-0.792-0.649-1.155-0.697c-0.364-0.047-1.71-0.095-1.71-0.095l3.265,7.95c-0.891-0.226-2.546-0.646-2.702-0.689
	c-0.213-0.059-1.365,0-1.365,0l2.439,1.096l-1.494,0.269l-0.031,0.38c0,0,7.566,2.58,14.182,2.58c2.873,0,8.943-0.06,14.893-0.127
	c0.011,0.081,0.018,0.127,0.018,0.127l0.206,0.143v0.696c0,0,1.092,0.285,2.39,0.316c1.299,0.032,1.916-0.285,1.916-0.285
	l0.043-1.052c5.902-0.071,10.736-0.136,10.736-0.136s6.414-0.221,6.414-1.373C146.713,152.598,145.09,151.396,144.16,150.912z"/>
<linearGradient id="SVGID_1_" gradientUnits="userSpaceOnUse" x1="607.9531" y1="-141.6489" x2="706.4702" y2="-141.6489" gradientTransform="matrix(1 0 0 1 -596 289)">
	<stop  offset="0" style="stop-color:#FFFFFF;stop-opacity:0"/>
	<stop  offset="1" style="stop-color:#FFFFFF;stop-opacity:0.4"/>
</linearGradient>
<rect x="11.953" y="146.851" fill="url(#SVGID_1_)" width="98.517" height="1"/>
</svg>
