<?xml version="1.0" encoding="utf-8"?>
<!-- Generator: Adobe Illustrator 16.0.5, SVG Export Plug-In . SVG Version: 6.00 Build 0)  -->
<!DOCTYPE svg PUBLIC "-//W3C//DTD SVG 1.1//EN" "http://www.w3.org/Graphics/SVG/1.1/DTD/svg11.dtd">
<svg version="1.1" id="Layer_1" xmlns="http://www.w3.org/2000/svg" xmlns:xlink="http://www.w3.org/1999/xlink" x="0px" y="0px"
	 width="1920px" height="1080px" viewBox="0 0 1920 1080" enable-background="new 0 0 1920 1080" xml:space="preserve">
<path fill="#09174d" d="M892.667,866.667l-7.667-11l-6-9l-10-6.282l-8.66-7.161c-1.143-2.146-3.533-4.12-6.641-5.199
	c-3.147-1.096-6.288-1.017-8.521-0.008L842,827h-3.35c-0.855-2.132-3.208-3.666-5.983-3.666c-2.805,0-5.18,1.565-6.012,3.732
	l-3.546,0.679c-0.999-1.028-2.788-1.355-4.499-0.68c-0.702,0.275-1.288,0.692-1.753,1.18c-0.62-1.218-2.111-2.078-3.856-2.078
	c-1.383,0-2.599,0.545-3.357,1.375c-0.627-0.345-1.321-0.542-2.06-0.542c-1.98,0-3.682,1.392-4.461,3.393
	c-1.19-1.455-3.04-2.393-5.123-2.393c-2.721,0-5.048,1.597-6.017,3.859c-1.357-2.316-3.75-3.859-6.483-3.859
	c-2.688,0-5.05,1.492-6.418,3.746c-1.274-0.986-2.896-1.58-4.665-1.58c-2.703,0-5.061,1.386-6.357,3.449
	c-1.355-2.351-4.045-3.949-7.143-3.949c-2.59,0-4.891,1.122-6.37,2.861c-0.917-0.23-1.88-0.361-2.88-0.361
	c-5.479,0-9.972,3.698-10.452,8.415c-0.595-0.113-1.211-0.177-1.845-0.177c-4.558,0-8.292,3.089-8.666,7.019l-22.038,3.994
	l-51,24.417l-37.25,47.666l304.833-22.167L892.667,866.667z"/>
</svg>
