<?xml version="1.0" encoding="utf-8"?>
<!-- Generator: Adobe Illustrator 16.0.5, SVG Export Plug-In . SVG Version: 6.00 Build 0)  -->
<!DOCTYPE svg PUBLIC "-//W3C//DTD SVG 1.1//EN" "http://www.w3.org/Graphics/SVG/1.1/DTD/svg11.dtd">
<svg version="1.1" id="logo-big" xmlns="http://www.w3.org/2000/svg" xmlns:xlink="http://www.w3.org/1999/xlink" x="0px" y="0px"
	 width="340px" height="326.49px" viewBox="0 111.76 340 326.49" enable-background="new 0 111.76 340 326.49" xml:space="preserve"
	>
<path fill="#00467F" d="M0,160.418l48.658-48.658H340v277.771l-48.759,48.757H0.201L0,160.418"/>
<path fill="#FFFFFF" d="M51.869,362.056h1.407v-9.047h3.016v-1.307h-7.64v1.407h3.217v9.047 M58.704,355.02
	c-1.709,0-3.016,1.508-3.016,3.518c0,1.81,1.005,3.619,3.016,3.619c0.895,0.076,1.788-0.174,2.513-0.703v-1.408
	c-0.627,0.508-1.405,0.791-2.211,0.805c-1.11,0-2.01-0.9-2.01-2.011h4.322c0-2.513-1.005-3.72-2.613-3.72V355.02z M57.096,358.035
	c-0.111-0.882,0.513-1.686,1.395-1.797c0.071-0.01,0.142-0.014,0.214-0.013c0.831,0.048,1.466,0.761,1.418,1.592
	c-0.002,0.039-0.006,0.078-0.011,0.117h-3.016V358.035z M72.877,351.702h-1.207l-2.613,7.036l-2.513-7.036h-1.206l3.619,10.354
	h0.301l3.016-8.343l3.016,8.343h0.201l3.719-10.354h-1.407l-2.513,7.036l-2.513-7.036 M85.945,362.056v-4.222
	c0-1.81-1.005-2.715-2.01-2.715c-0.728,0.031-1.398,0.404-1.81,1.006v-4.322h-1.206v10.253h1.206v-5.026
	c0.314-0.555,0.874-0.928,1.508-1.005c0.704,0,1.207,0.704,1.207,1.709v4.222h1.206L85.945,362.056z M89.966,358.336
	c-1.005,0.402-2.011,0.805-2.011,2.011c-0.112,0.825,0.465,1.585,1.291,1.698c0.039,0.005,0.078,0.008,0.117,0.011
	c0.555-0.028,1.085-0.241,1.508-0.603c0.094,0.434,0.522,0.709,0.956,0.615c0.017-0.004,0.033-0.008,0.049-0.013
	c0.38-0.057,0.732-0.232,1.005-0.503v-0.804c-0.159,0.188-0.368,0.327-0.603,0.401c-0.201,0-0.302,0-0.302-0.301v-3.418
	c0.117-1.104-0.683-2.094-1.787-2.211c-0.142-0.016-0.284-0.016-0.425,0c-0.795-0.018-1.547,0.359-2.01,1.005v1.407
	c0.463-0.646,1.215-1.021,2.01-1.006c0.555,0,1.005,0.451,1.005,1.006v0.502L89.966,358.336z M90.971,360.648
	c-0.258,0.291-0.618,0.471-1.005,0.502c-0.409-0.076-0.728-0.395-0.804-0.804c0-0.804,0.804-1.206,2.01-1.608v2.011L90.971,360.648z
	 M94.891,355.221v6.734h1.207v-3.619c0-1.005,0.704-2.01,1.508-2.01c0.459,0.057,0.885,0.27,1.206,0.604l0.603-1.006
	c-0.293-0.529-0.811-0.899-1.407-1.005c-0.603,0-1.005,0.603-1.81,1.81v-1.609h-1.206L94.891,355.221z M103.234,355.02
	c-1.709,0-3.016,1.508-3.016,3.518c0,1.81,1.005,3.619,3.016,3.619c0.895,0.076,1.788-0.174,2.513-0.703v-1.408
	c-0.573,0.467-1.274,0.748-2.011,0.805c-1.11,0-2.01-0.9-2.01-2.011h4.021c0-2.513-1.005-3.72-2.513-3.72V355.02z M101.626,358.035
	c-0.113-0.881,0.509-1.688,1.39-1.801c0.106-0.014,0.212-0.017,0.319-0.009c0.832,0.048,1.466,0.761,1.418,1.592
	c-0.002,0.039-0.006,0.078-0.011,0.117h-3.016L101.626,358.035z M117.408,351.702h-1.206l-2.614,7.036l-2.513-7.036h-1.307
	l3.82,10.354h0.201l3.016-8.343l3.016,8.343h0.301l3.719-10.354h-1.206l-2.613,7.036L117.408,351.702 M126.153,358.336
	c-1.005,0.402-2.01,0.805-2.01,2.011c-0.112,0.825,0.465,1.585,1.291,1.698c0.039,0.005,0.078,0.008,0.117,0.011
	c0.592,0.003,1.165-0.212,1.608-0.603c0.094,0.434,0.522,0.709,0.957,0.615c0.016-0.004,0.033-0.008,0.049-0.013
	c0.38-0.057,0.732-0.232,1.005-0.503v-0.804c-0.162,0.185-0.37,0.323-0.603,0.401c0,0-0.201,0-0.201-0.301v-3.418
	c0.118-1.104-0.683-2.094-1.787-2.211c-0.141-0.016-0.284-0.016-0.425,0c-0.799-0.035-1.559,0.345-2.01,1.005v1.407
	c0.463-0.646,1.216-1.021,2.01-1.006c0.555,0,1.005,0.451,1.005,1.006v0.502L126.153,358.336z M127.158,360.648
	c-0.258,0.291-0.618,0.471-1.005,0.502c-0.408-0.076-0.728-0.395-0.804-0.804c0-0.804,1.005-1.206,2.011-1.608v2.011
	L127.158,360.648z M136.205,362.056v-4.222c0-2.011-1.005-2.715-2.01-2.715c-0.799-0.035-1.56,0.346-2.011,1.006v-0.805h-1.005
	v6.735h1.005v-5.026c0.334-0.582,0.938-0.959,1.608-1.005c0.804,0,1.307,0.704,1.307,1.709v4.222h1.207L136.205,362.056z
	 M140.125,358.336c-1.005,0.402-2.011,0.805-2.011,2.011c-0.06,0.854,0.559,1.604,1.408,1.709c0.625,0.019,1.234-0.196,1.708-0.603
	c0.094,0.434,0.522,0.709,0.957,0.615c0.017-0.004,0.033-0.008,0.049-0.013c0.38-0.057,0.732-0.232,1.005-0.503v-0.804
	c-0.163,0.185-0.371,0.323-0.604,0.401c-0.301,0-0.301,0-0.301-0.301v-3.418c0.117-1.104-0.683-2.094-1.787-2.211
	c-0.141-0.016-0.283-0.016-0.424,0c-0.795-0.018-1.547,0.359-2.011,1.005v1.407c0.464-0.646,1.216-1.021,2.011-1.006
	c0.555,0,1.005,0.451,1.005,1.006v0.502L140.125,358.336z M141.13,360.648c-0.258,0.291-0.618,0.471-1.005,0.502
	c-0.409-0.076-0.728-0.395-0.804-0.804c0-0.804,1.005-1.206,2.01-1.608v2.011L141.13,360.648z M150.077,362.056v-4.222
	c0-2.011-1.005-2.715-2.01-2.715c-0.728,0.031-1.398,0.404-1.81,1.006v-0.805h-1.206v6.735h1.206v-5.026
	c0.315-0.555,0.875-0.928,1.508-1.005c0.704,0,1.207,0.704,1.207,1.709v4.222h1.206L150.077,362.056z M157.415,355.221h-2.614
	c-1.608,0-2.613,1.005-2.613,2.312c0.005,0.466,0.145,0.919,0.402,1.307c0.252,0.358,0.601,0.637,1.005,0.804
	c-0.555,0-1.005,0.451-1.005,1.006c-0.035,0.43,0.208,0.834,0.603,1.006c-0.883,0.097-1.564,0.82-1.608,1.708
	c0,1.206,1.207,2.011,2.815,2.011c1.809,0,3.016-0.805,3.016-2.011c0-1.11-0.9-2.011-2.011-2.011
	c-1.005-0.201-1.708-0.401-1.708-0.804c0-0.804,1.508-0.302,2.312-1.307c0.356-0.426,0.567-0.954,0.603-1.508
	c-0.006-0.581-0.263-1.13-0.704-1.508h1.206v-1.005H157.415z M154.198,362.257c0.704,0,2.01,0.201,2.01,1.005
	c0,0.704-0.603,1.006-1.708,1.006c-1.106,0-1.709-0.302-1.709-1.006c0.1-0.658,0.715-1.111,1.374-1.011
	C154.176,362.253,154.187,362.255,154.198,362.257z M154.5,358.839c-0.537,0.144-1.087-0.177-1.23-0.712
	c-0.052-0.196-0.043-0.404,0.024-0.595c0-0.666,0.54-1.206,1.207-1.206c0.666,0,1.206,0.54,1.206,1.206
	c0.058,0.663-0.433,1.249-1.097,1.307c-0.07,0.007-0.14,0.007-0.21,0H154.5z M160.631,358.336c-1.005,0.402-2.01,0.805-2.01,2.011
	c-0.06,0.854,0.559,1.604,1.407,1.709c0.59-0.006,1.16-0.22,1.608-0.603c0.094,0.434,0.522,0.709,0.957,0.615
	c0.016-0.004,0.033-0.008,0.049-0.013c0.38-0.057,0.732-0.232,1.005-0.503v-0.804c-0.162,0.185-0.37,0.323-0.603,0.401
	c0,0-0.201,0-0.201-0.301v-3.418c0.117-1.104-0.683-2.094-1.787-2.211c-0.141-0.016-0.284-0.016-0.425,0
	c-0.794-0.018-1.547,0.359-2.01,1.005v1.407c0.463-0.646,1.216-1.021,2.01-1.006c0.555,0,1.005,0.451,1.005,1.006v0.502
	L160.631,358.336z M161.637,360.648c-0.258,0.291-0.618,0.471-1.005,0.502c-0.485,0.01-0.908-0.328-1.005-0.804
	c0-0.804,1.005-1.206,2.01-1.608v2.011V360.648z M172.895,362.056c1.94,0.11,3.604-1.372,3.714-3.312
	c0.111-1.939-1.372-3.603-3.312-3.713c-1.939-0.111-3.603,1.371-3.713,3.311c-0.003,0.065-0.005,0.131-0.006,0.195
	c-0.167,1.824,1.176,3.439,3,3.606c0.072,0.007,0.145,0.011,0.217,0.013L172.895,362.056z M172.895,356.326
	c1.111-0.006,2.016,0.89,2.021,2c0,0.07-0.004,0.141-0.011,0.211c0.222,1.088-0.479,2.15-1.567,2.373
	c-0.146,0.029-0.294,0.043-0.443,0.04c-1.307,0-2.01-1.005-2.01-2.513c-0.111-1.105,0.694-2.091,1.799-2.202
	c0.07-0.007,0.141-0.011,0.211-0.01V356.326z M184.957,362.056v-9.047h3.016v-1.307h-7.639v1.407h3.217v9.047h1.307
	 M189.682,358.336c-1.005,0.402-2.01,0.805-2.01,2.011c-0.061,0.854,0.559,1.604,1.406,1.709c0.625,0.019,1.234-0.196,1.709-0.603
	c0.095,0.434,0.523,0.709,0.957,0.615c0.016-0.004,0.033-0.008,0.049-0.013c0.38-0.057,0.732-0.232,1.005-0.503v-0.804
	c-0.134,0.171-0.306,0.309-0.503,0.401c-0.201,0-0.301,0-0.301-0.301v-3.418c0.117-1.104-0.684-2.094-1.787-2.211
	c-0.141-0.016-0.283-0.016-0.425,0c-0.794-0.018-1.547,0.359-2.011,1.005v1.407c0.464-0.646,1.217-1.021,2.011-1.006
	c0.556,0,1.005,0.451,1.005,1.006v0.502L189.682,358.336z M190.688,360.648c-0.258,0.291-0.618,0.471-1.006,0.502
	c-0.408-0.076-0.729-0.395-0.804-0.804c0-0.804,0.804-1.206,1.81-1.608v2.011V360.648z M203.855,362.056v-4.322
	c0-1.608-0.805-2.614-2.011-2.614c-0.843,0.085-1.591,0.572-2.011,1.308c-0.314-0.722-1.021-1.193-1.809-1.206
	c-0.72,0.059-1.379,0.426-1.81,1.005v-0.804h-1.206v6.734h1.206v-5.025c0.323-0.52,0.897-0.825,1.508-0.805
	c0.603,0,1.005,0.502,1.005,1.608v4.021h1.307v-4.926c0.312-0.43,0.782-0.719,1.307-0.804c0.776,0.048,1.367,0.714,1.319,1.49
	c-0.003,0.04-0.007,0.079-0.013,0.118v4.021h1.207V362.056z M208.077,358.336c-1.005,0.402-2.011,0.805-2.011,2.011
	c-0.113,0.825,0.464,1.586,1.289,1.699c0.105,0.015,0.213,0.019,0.319,0.01c0.591-0.006,1.16-0.22,1.608-0.603
	c0.094,0.434,0.522,0.709,0.957,0.615c0.016-0.004,0.032-0.008,0.049-0.013c0.379-0.057,0.731-0.232,1.005-0.503v-0.804
	c-0.163,0.185-0.37,0.323-0.604,0.401c0,0-0.2,0-0.2-0.301v-3.418c0.117-1.104-0.684-2.094-1.787-2.211
	c-0.142-0.016-0.283-0.016-0.425,0c-0.795-0.018-1.547,0.359-2.011,1.005v1.407c0.464-0.646,1.216-1.021,2.011-1.006
	c0.556,0,1.005,0.451,1.005,1.006v0.502L208.077,358.336z M209.283,360.648c-0.258,0.291-0.617,0.471-1.005,0.502
	c-0.485,0.01-0.908-0.328-1.005-0.804c0-0.804,1.005-1.206,2.01-1.608v2.011V360.648z M217.525,355.221l-2.713,3.316l3.016,3.418
	h1.709l-3.217-3.518l2.613-3.318h-1.408 M213.605,351.702h1.207v10.354h-1.207V351.702z"/>
<ellipse fill="#FFFFFF" cx="221.849" cy="353.21" rx="0.704" ry="0.804"/>
<path fill="#FFFFFF" d="M221.145,355.221h1.307v6.734h-1.307V355.221z M239.037,362.056v-10.354h-1.206l-3.016,4.222l-3.016-4.322
	h-1.307v10.454h1.307v-8.042l2.814,4.021h0.302l2.814-4.021v8.042H239.037 M243.561,358.336c-1.005,0.402-2.01,0.805-2.01,2.011
	c-0.058,0.887,0.615,1.651,1.501,1.708c0.003,0.001,0.005,0.001,0.007,0.001c0.592,0.003,1.164-0.212,1.607-0.603
	c0.095,0.434,0.523,0.709,0.957,0.615c0.016-0.004,0.033-0.008,0.049-0.013c0.38-0.057,0.732-0.232,1.005-0.503v-0.804
	c-0.162,0.185-0.37,0.323-0.603,0.401c0,0-0.201,0-0.201-0.301v-3.418c0.117-1.104-0.684-2.094-1.787-2.211
	c-0.141-0.016-0.283-0.016-0.425,0c-0.794-0.018-1.547,0.359-2.011,1.005v1.407c0.464-0.646,1.217-1.021,2.011-1.006
	c0.556,0,1.005,0.451,1.005,1.006v0.502L243.561,358.336z M244.566,360.648c-0.258,0.291-0.618,0.471-1.006,0.502
	c-0.408-0.076-0.729-0.395-0.804-0.804c0-0.804,1.005-1.206,2.011-1.608v2.011L244.566,360.648z M252.909,355.221l-2.714,3.316
	l3.016,3.418h1.608l-3.016-3.518l2.412-3.318h-1.407 M248.988,351.702h1.207v10.354h-1.307L248.988,351.702z M256.326,356.024v1.407
	c0.422-0.59,1.086-0.959,1.811-1.005c0.555,0,1.005,0.45,1.005,1.005v0.503l-1.005,0.302c-1.006,0.402-2.011,0.804-2.011,2.01
	c-0.112,0.881,0.511,1.687,1.392,1.799c0.039,0.005,0.077,0.009,0.116,0.011c0.591-0.006,1.159-0.22,1.608-0.603
	c0.051,0.404,0.396,0.706,0.804,0.703c0.45-0.012,0.881-0.191,1.206-0.502v-0.805c-0.162,0.184-0.37,0.322-0.603,0.402
	c-0.201,0-0.302,0-0.302-0.302v-3.418c0.111-1.104-0.694-2.091-1.799-2.201c-0.07-0.007-0.141-0.011-0.211-0.011
	c-0.795-0.016-1.547,0.359-2.012,1.006V356.024z M259.342,360.648c-0.257,0.291-0.617,0.471-1.004,0.502
	c-0.486,0.01-0.908-0.328-1.006-0.804c0-0.804,1.006-1.206,2.01-1.608v2.011V360.648z M268.59,362.056v-7.036h-1.205v4.824
	c-0.27,0.553-0.799,0.932-1.408,1.006c-0.661,0.078-1.261-0.396-1.339-1.057c-0.018-0.151-0.007-0.305,0.032-0.451v-4.322h-1.307
	v4.222c0,1.709,1.006,2.613,2.211,2.613c0.721-0.06,1.379-0.426,1.811-1.005v1.005h1.205V362.056z M271.605,355.221v6.734h1.207
	v-3.619c0-1.005,0.604-2.01,1.508-2.01c0.387,0.097,0.737,0.307,1.005,0.604l0.603-1.006c-0.293-0.529-0.811-0.899-1.406-1.005
	c-0.604,0-1.006,0.603-1.81,1.708v-1.508h-1.206L271.605,355.221z M279.647,358.336c-1.005,0.402-2.011,0.805-2.011,2.011
	c-0.06,0.854,0.559,1.604,1.408,1.709c0.592,0.003,1.164-0.212,1.607-0.603c0.095,0.434,0.523,0.709,0.957,0.615
	c0.016-0.004,0.033-0.008,0.049-0.013c0.38-0.057,0.732-0.232,1.005-0.503v-0.804c-0.134,0.171-0.306,0.309-0.503,0.401
	c-0.201,0-0.301,0-0.301-0.301v-3.418c0.117-1.104-0.684-2.094-1.787-2.211c-0.141-0.016-0.283-0.016-0.425,0
	c-0.794-0.018-1.547,0.359-2.011,1.005v1.407c0.464-0.646,1.217-1.021,2.011-1.006c0.556,0,1.005,0.451,1.005,1.006v0.502
	L279.647,358.336z M280.652,360.648c-0.258,0.291-0.617,0.471-1.005,0.502c-0.408-0.076-0.728-0.395-0.804-0.804
	c0-0.804,1.005-1.206,2.01-1.608v2.011L280.652,360.648z M290.002,362.056v-7.036h-1.207v4.824
	c-0.268,0.553-0.798,0.932-1.407,1.006c-0.661,0.078-1.261-0.396-1.339-1.057c-0.018-0.151-0.007-0.305,0.032-0.451v-4.322h-1.206
	v4.222c0,1.709,0.804,2.613,2.01,2.613c0.72-0.06,1.379-0.426,1.81-1.005v1.005h1.206L290.002,362.056z M124.344,353.512h3.518
	v0.703h-3.518V353.512z M187.973,353.512h3.519v0.703h-3.519V353.512z M94.791,302.949h-7.036v-5.025h6.735v-3.016h-6.735v-4.624
	h6.735v-3.016h-9.65v18.597h10.052v-2.814 M179.932,290.284v-3.016h-9.65v18.597h10.053v-2.814h-7.037v-5.026h6.434v-3.016h-6.534
	v-4.624h6.835 M68.354,298.024h8.544v7.841h3.016V287.47h-3.016v7.739h-8.544v-7.739h-3.016v18.294h3.016V298.024 M112.583,306.066
	c2.11,0.188,4.199-0.545,5.729-2.011c1.29-1.543,1.938-3.522,1.809-5.528V287.47h-3.016v10.555c0,2.011-0.201,3.016-0.804,3.72
	c-0.928,0.924-2.212,1.4-3.519,1.307c-1.266,0.08-2.495-0.441-3.317-1.408c-0.704-0.804-1.005-1.607-1.005-3.518v-10.856h-3.016
	v11.46c-0.064,2.09,0.779,4.105,2.312,5.527C109.08,305.448,110.804,306.095,112.583,306.066z M139.924,305.764v-18.395h-2.814
	v13.067l-10.454-13.067h-2.312v18.395h2.814v-13.066l10.253,13.066H139.924z M166.562,287.369h-3.016l-4.624,12.062l-4.523-12.062
	h-3.016l7.237,18.596h1.005L166.562,287.369z M195.311,305.764h3.519l-0.401-0.603l-2.011-3.317l-1.81-2.814
	c-0.424-0.665-0.93-1.273-1.508-1.809c1.609-0.878,2.584-2.592,2.514-4.424c0.096-1.494-0.453-2.958-1.508-4.021
	c-1.131-0.923-2.564-1.39-4.021-1.307h-4.423v18.294h3.016v-7.639h0.503c1.005,0,2.01,0.301,4.021,4.021L195.311,305.764z
	 M192.496,292.697c0.02,0.624-0.196,1.233-0.603,1.708c-0.646,0.61-1.529,0.905-2.413,0.804h-1.005v-5.025h1.005
	c2.011,0,3.016,0.703,3.016,2.312V292.697z M206.066,290.284c1.442,0.042,2.797,0.7,3.72,1.81l0.401,0.402h0.201v-3.72
	c-1.096-0.841-2.438-1.3-3.819-1.307c-1.411-0.066-2.789,0.441-3.819,1.407c-0.961,0.994-1.47,2.339-1.408,3.719
	c0,2.613,1.81,4.021,3.619,5.228l0.402,0.201l0.804,0.603c0.362,0.308,0.698,0.644,1.005,1.006c0.6,0.501,0.965,1.229,1.006,2.01
	c-0.105,1.105-1.086,1.916-2.191,1.812c-0.007-0.001-0.014-0.001-0.02-0.002c-1.656-0.091-3.162-0.994-4.021-2.412l-0.502-0.704
	v-0.201v4.523c1.311,1.132,2.992,1.74,4.724,1.709c1.298-0.012,2.534-0.557,3.418-1.508c0.899-0.991,1.4-2.279,1.407-3.619
	c0-3.016-2.01-4.523-3.619-5.729l-1.206-0.704c-0.351-0.247-0.687-0.516-1.005-0.804c-0.602-0.412-0.975-1.082-1.006-1.811
	c0.104-1.03,0.975-1.814,2.011-1.809L206.066,290.284z M244.265,305.764h2.814v-9.549l6.333-8.846h-3.519l-4.021,6.031l-4.322-6.031
	h-3.519l6.232,8.846v9.65V305.764z M144.75,287.369h3.015v18.395h-3.015V287.369z M216.119,287.369h2.814v18.395h-3.016
	L216.119,287.369z M54.583,305.764h3.016v-15.479h5.529v-3.016H49.054v3.016h5.529V305.764 M228.182,305.764h3.016v-15.479h5.629
	v-3.016h-14.073v3.016h5.528v15.479 M283.467,297.421h6.031v-3.016h-6.031v-4.021h6.031v-3.016h-9.047v18.395h3.016V297.421
	 M268.088,306.066c2.486,0.069,4.877-0.961,6.533-2.814c3.136-3.793,3.136-9.277,0-13.068c-3.353-3.553-8.951-3.715-12.504-0.361
	c-0.125,0.117-0.245,0.237-0.362,0.361c-3.218,3.762-3.218,9.307,0,13.068C263.365,305.053,265.672,306.077,268.088,306.066z
	 M264.066,291.993c1.057-1.088,2.506-1.704,4.021-1.709c3.418,0,6.031,2.714,6.031,6.433c0.008,1.717-0.64,3.37-1.81,4.625
	c-2.14,2.331-5.764,2.487-8.095,0.348c-0.121-0.111-0.238-0.227-0.35-0.348c-2.31-2.65-2.31-6.599,0-9.248L264.066,291.993z
	 M211.797,313.203h-3.519l-12.062,31.562h5.026l3.518-9.047h10.856l3.618,9.047h5.328L211.797,313.203z M206.771,330.895
	c0-0.302,3.016-8.344,3.216-9.047c0,0.703,3.418,8.745,3.52,9.047h-7.037H206.771z M191.692,339.74h-12.364v-26.336h-5.025v31.361
	h17.39V339.74 M57.498,335.92h11.057l3.519,8.846h5.026l-12.464-31.562h-3.519l-12.062,31.562h5.026l3.417-9.047V335.92z
	 M62.825,321.848l3.518,9.047h-6.835C59.508,330.492,62.523,322.451,62.825,321.848z M136.909,342.253v-6.03h-0.201l-0.704,0.502
	c-2.593,2.04-5.752,3.233-9.047,3.418c-2.89,0.131-5.701-0.964-7.74-3.016c-2.048-2.165-3.135-5.064-3.016-8.042
	c-0.023-2.901,1.054-5.703,3.016-7.841c1.918-2.068,4.617-3.235,7.438-3.217c3.248,0.086,6.397,1.137,9.047,3.016l0.704,0.503h0.201
	l-0.301-6.031c-4.021-1.709-6.835-2.513-9.65-2.513c-9.047,0-15.48,7.036-15.48,16.586c0.087,3.732,1.393,7.333,3.719,10.253
	c2.814,3.478,7.087,5.447,11.56,5.327c3.669,0.011,7.264-1.037,10.354-3.016L136.909,342.253z M154.098,328.281l12.364-14.877
	h-6.333l-10.655,12.866v-12.866h-5.026v31.361h5.026v-14.072l13.068,14.072h7.036L154.098,328.281z M287.488,318.43
	c-2.82-3.321-7.004-5.172-11.359-5.025h-11.057v31.361h11.057c4.215,0.092,8.258-1.672,11.058-4.824
	c2.601-3.019,4.028-6.872,4.021-10.856c0.031-3.858-1.244-7.614-3.618-10.655H287.488z M275.727,339.941h-5.729v-21.612h5.528
	c3.021-0.154,5.96,1.021,8.042,3.217c1.779,2.101,2.711,4.788,2.613,7.539c0,4.021-2.212,10.756-10.455,10.756V339.941z
	 M92.68,345.168c4.021,0,7.338-1.206,9.549-3.518c2.211-2.312,3.016-5.428,3.016-9.349v-18.897h-5.026v18.094
	c0,3.316-0.302,5.025-1.508,6.332c-1.595,1.576-3.795,2.383-6.031,2.211c-2.077,0.037-4.063-0.846-5.428-2.412
	c-1.206-1.307-1.508-2.714-1.508-6.031v-18.295h-5.026v19.602c0,3.82,1.307,7.037,3.719,9.349c2.271,2.005,5.214,3.081,8.243,3.016
	V345.168z M252.004,335.92l-17.791-22.617h-4.021v31.363h5.026V322.35l17.39,22.316h4.021v-31.363h-4.725v22.617H252.004z
	 M59.005,385.477l-7.64-9.047h-2.01v12.867h2.413v-9.047l7.64,9.047h2.01v-12.666h-2.312v9.047 M76.898,383.768h5.529v-2.01h-5.529
	v-3.317h5.83v-2.011h-8.343v12.867h8.443v-1.81h-6.031v-3.618 M108.562,384.472l-3.418-8.042h-2.01l-3.417,8.042L96.5,376.43h-2.513
	l5.227,13.068h0.804l4.021-9.55l4.021,9.55h1.005l5.227-13.068h-2.513L108.562,384.472 M151.786,376.531h-11.258v2.01h7.037
	l-7.539,10.756h11.861v-1.81h-7.438l7.438-10.856 M166.361,383.768h5.528v-2.01h-5.528v-3.317h5.83v-2.011h-8.343v12.867h8.444
	v-1.81h-6.031v-3.618 M188.677,376.531l-5.228,12.766h2.613l1.308-3.016h5.729l1.307,3.016h2.613l-5.729-12.666h-2.513
	L188.677,376.531z M187.973,384.371l2.011-5.025l2.011,5.025H187.973z M211.093,376.531h-2.513v12.665h8.645v-1.81h-6.031v-10.855
	 M233.207,376.531l-5.428,12.766h2.613l1.206-3.016h5.729l1.408,3.016h2.613l-5.629-12.666h-2.614L233.207,376.531z
	 M232.402,384.371l2.012-5.025l2.01,5.025H232.402z M262.76,385.477l-7.639-9.047h-2.212v12.867h2.413v-9.047l7.639,9.047h2.212
	v-12.666h-2.413v9.047 M287.086,377.335c-1.12-0.565-2.364-0.842-3.619-0.804h-5.327v12.665h5.228
	c1.211,0.033,2.413-0.207,3.518-0.704c1.036-0.476,1.91-1.244,2.514-2.211c0.619-0.962,0.967-2.074,1.005-3.217
	c-0.025-1.177-0.373-2.324-1.005-3.317c-0.57-0.982-1.406-1.784-2.412-2.312L287.086,377.335z M286.482,386.181
	c-0.896,0.835-2.094,1.271-3.316,1.206h-2.715v-9.047h2.614c1.271-0.053,2.507,0.42,3.417,1.307
	C288.182,381.493,288.182,384.334,286.482,386.181z M49.255,370.098h241.651v1.307H49.255V370.098z M121.328,160.512v49.255
	c0,11.66,8.645,45.234,48.25,61.92l0.604,0.301l0.704-0.201c39.504-16.485,48.25-50.26,48.25-61.82v-49.255h-97.807V160.512z"/>
<path fill="#00467F" d="M131.682,193.182l-0.201-0.201c-2.256-1.321-4.824-2.015-7.438-2.01c-0.134-0.007-0.268-0.007-0.402,0
	h-0.201v18.797c0,0.402,1.307,40.71,46.742,59.81c45.435-19.099,46.742-59.307,46.742-59.81v-18.597h-0.603
	c-2.615-0.004-5.183,0.69-7.439,2.011c-4.914,2.837-10.968,2.837-15.882,0c-4.603-2.658-10.274-2.658-14.877,0
	c-4.914,2.837-10.968,2.837-15.882,0v-0.201c-4.603-2.658-10.274-2.658-14.877,0h-0.201c-4.75,2.71-10.56,2.787-15.379,0.201
	H131.682z"/>
<path fill="#00467F" d="M137.11,169.258c1.267-1.455,3.097-2.297,5.026-2.312c7.237-0.302,10.856,5.026,10.756,9.449
	c0,5.026-3.82,6.031-4.323,6.333c0.009,0.885,0.252,1.752,0.704,2.513c0.118,0.147,0.118,0.356,0,0.503
	c0.008,0.134,0.008,0.268,0,0.402c-0.056,0.128-0.056,0.274,0,0.402c0.038,0.44-0.108,0.876-0.402,1.206
	c-0.125,0.664-0.125,1.346,0,2.01c0,0.201,0,0.201,0,0c-0.501-0.454-0.852-1.05-1.005-1.708c-0.967,0.464-1.747,1.245-2.211,2.211
	c0,0-0.201,0.201-0.201,0c-0.067-1.02,0.387-2.003,1.206-2.614c-0.697-0.146-1.423,0-2.01,0.402c0,0-0.201,0,0,0
	c0,0,0.402-1.005,2.211-1.307c0.231-0.386,0.433-0.789,0.603-1.206c-0.11-0.849-0.383-1.668-0.804-2.413
	c-0.879,0.117-1.711,0.463-2.413,1.005c-0.111,0.063-0.186,0.175-0.201,0.301v0.402c-0.03,0.285-0.229,0.523-0.503,0.603
	l-2.413,1.005c-0.473,0.24-0.885,0.583-1.206,1.005c-0.263,0.348-0.608,0.625-1.005,0.804c-0.276,0.1-0.519,0.274-0.704,0.503
	c-0.181,0.22-0.382,0.422-0.603,0.603c-0.437,0.347-0.782,0.795-1.005,1.307c0,0,0,0.201,0,0v-0.603
	c0.127-0.566,0.405-1.087,0.804-1.508c-0.066,0.01-0.134,0.01-0.201,0c-1.182-0.102-2.372,0-3.519,0.302c0,0-0.201,0,0,0
	c0-0.302,0.503-1.408,3.016-1.408c-0.454-0.452-1.068-0.705-1.708-0.704v-0.603c0.897-0.322,1.899-0.129,2.613,0.502
	c0.451-0.19,0.924-0.326,1.407-0.402c0.757-0.725,1.563-1.396,2.413-2.01c-0.03-0.2-0.03-0.403,0-0.604
	c-0.552-0.907-0.831-1.954-0.804-3.016c-1.505-0.355-2.828-1.249-3.719-2.513c-1.923-0.27-3.564-1.529-4.322-3.317
	c-3.619,2.714-6.031,7.438-6.232,7.64h-0.201c-0.338-0.685-0.443-1.461-0.301-2.211c1.082-2.526,2.502-4.893,4.222-7.037
	c-0.704-4.021,3.016-5.227,4.523-5.227c1.048,0.034,2.034,0.508,2.714,1.307H137.11z"/>
<path fill="#FFFFFF" d="M144.347,169.861c0.346-0.355,0.812-0.57,1.307-0.603c-1.151-0.516-2.467-0.516-3.619,0
	c0.266-0.398,0.607-0.74,1.005-1.005c-1.097-0.06-2.175,0.299-3.016,1.005c0.163-0.38,0.403-0.722,0.704-1.005
	c-2.01,0-3.82,2.814-3.82,2.814c-0.235-1.152-1.237-1.987-2.413-2.01c-1.407-0.201-4.724,1.81-3.417,4.423
	c-0.603,1.005-2.513,2.714-4.021,6.031v0.201c1.407-2.011,3.519-4.725,5.629-6.031c0.201,0.201,1.407,3.417,4.322,3.619
	c0.302,0.201,1.709,2.613,4.222,2.312c-0.002,1.125,0.167,2.243,0.503,3.317c0.841-0.691,1.792-1.234,2.814-1.608
	c0.191-0.699,0.46-1.373,0.804-2.011c2.142-0.416,3.72-2.243,3.82-4.423C149.172,172.374,146.961,169.559,144.347,169.861
	L144.347,169.861z M132.285,172.876c-0.329,0.051-0.638-0.173-0.689-0.502c-0.052-0.329,0.173-0.638,0.502-0.689
	c0.329-0.051,0.638,0.174,0.689,0.503c0.009,0.062,0.009,0.125,0,0.187c0.004,0.297-0.209,0.553-0.503,0.603V172.876z"/>
<path fill="#00467F" d="M167.668,169.258c1.267-1.455,3.097-2.297,5.025-2.312c7.238-0.302,11.058,5.026,10.756,9.449
	c0,5.026-4.021,6.031-4.422,6.333c0.098,0.914,0.445,1.783,1.004,2.513c0.118,0.147,0.118,0.356,0,0.503
	c-0.09,0.142-0.189,0.276-0.301,0.402c-0.057,0.128-0.057,0.274,0,0.402c0.094,0.413,0.021,0.846-0.201,1.206
	c-0.125,0.664-0.125,1.346,0,2.01c0,0.201,0,0.201,0,0c-0.507-0.449-0.858-1.047-1.006-1.708c-0.971,0.458-1.753,1.24-2.211,2.211
	c0,0-0.301,0.201-0.301,0c-0.066-1.02,0.387-2.003,1.205-2.614c-0.696-0.146-1.422,0-2.01,0.402c0,0-0.201,0,0,0
	c0,0,0.402-1.005,2.312-1.307c0.229-0.387,0.431-0.79,0.603-1.206c-0.107-0.849-0.381-1.669-0.804-2.413
	c-0.844,0.133-1.64,0.479-2.312,1.005c-0.15,0.035-0.268,0.151-0.301,0.301v0.402c-0.03,0.285-0.229,0.523-0.504,0.603l-2.412,1.005
	c-0.475,0.237-0.887,0.581-1.206,1.005c-0.263,0.348-0.608,0.625-1.005,0.804c-0.312,0.083-0.592,0.258-0.804,0.503
	c-0.18,0.221-0.382,0.423-0.603,0.603c-0.437,0.347-0.782,0.795-1.005,1.307c0,0,0,0.201,0,0v-0.603
	c0.127-0.566,0.405-1.087,0.804-1.508c-0.067,0.01-0.135,0.01-0.201,0c-1.182-0.102-2.372,0-3.519,0.302c0,0-0.201,0,0,0
	c0-0.302,0.503-1.408,3.016-1.408c-0.478-0.478-1.134-0.732-1.809-0.704v-0.603c0.868-0.283,1.82-0.092,2.513,0.502
	c0.451-0.19,0.923-0.326,1.407-0.402c0.759-0.723,1.564-1.395,2.412-2.01c-0.03-0.2-0.03-0.403,0-0.604
	c-0.547-0.909-0.826-1.955-0.805-3.016c-1.504-0.355-2.827-1.249-3.719-2.513c-1.81-0.365-3.318-1.609-4.021-3.317
	c-3.82,2.714-6.232,7.438-6.333,7.64h-0.201c-0.366-0.676-0.506-1.45-0.402-2.211c1.114-2.531,2.568-4.899,4.322-7.037
	c-0.704-4.021,3.016-5.227,4.423-5.227c1.053-0.046,2.076,0.355,2.815,1.106L167.668,169.258z"/>
<path fill="#FFFFFF" d="M174.905,169.861c0.356-0.341,0.816-0.553,1.307-0.603c-1.122-0.487-2.396-0.487-3.519,0
	c0.266-0.398,0.607-0.74,1.006-1.005c-1.097-0.06-2.175,0.299-3.016,1.005c0.192-0.389,0.467-0.732,0.805-1.005
	c-2.312,0-4.021,2.814-4.021,2.814c-0.235-1.152-1.237-1.987-2.413-2.01c-1.407-0.201-4.724,1.81-3.417,4.423
	c-0.603,1.005-2.513,2.714-4.021,6.031c-0.006,0.067-0.006,0.134,0,0.201c1.408-2.011,3.519-4.725,5.629-6.031
	c0.201,0.201,1.508,3.417,4.322,3.619c0.302,0.201,1.709,2.613,4.222,2.312c-0.035,1.12,0.102,2.238,0.402,3.317
	c0.908-0.677,1.929-1.188,3.016-1.508c0.192-0.698,0.463-1.372,0.805-2.01c2.146-0.365,3.766-2.15,3.92-4.322
	C179.932,172.374,177.52,169.559,174.905,169.861z M162.843,172.876c-0.329,0.051-0.638-0.173-0.689-0.502s0.173-0.638,0.502-0.689
	c0.329-0.051,0.638,0.174,0.689,0.503c0.01,0.062,0.01,0.125,0,0.187c0,0.333-0.27,0.603-0.604,0.603l0,0L162.843,172.876z"/>
<path fill="#00467F" d="M198.025,169.258c1.267-1.455,3.097-2.297,5.025-2.312c7.338-0.302,11.058,5.026,10.856,9.449
	c-0.201,5.026-4.021,6.031-4.423,6.333c0.039,0.894,0.316,1.762,0.805,2.513c0.117,0.147,0.117,0.356,0,0.503
	c-0.059,0.138-0.125,0.273-0.201,0.402c-0.057,0.128-0.057,0.274,0,0.402c0.064,0.426-0.044,0.861-0.302,1.206
	c-0.058,0.677,0.011,1.358,0.2,2.01c0,0.201-0.2,0.201-0.301,0c-0.507-0.449-0.858-1.047-1.006-1.708
	c-0.967,0.464-1.746,1.245-2.211,2.211c0,0-0.201,0.201-0.201,0c-0.066-1.02,0.388-2.003,1.207-2.614
	c-0.697-0.146-1.424,0-2.012,0.402c0,0-0.2,0,0,0c0,0,0.303-1.005,2.212-1.307c0.231-0.386,0.433-0.79,0.604-1.206
	c-0.167-0.864-0.509-1.686-1.005-2.413c-0.809,0.149-1.568,0.495-2.212,1.005c-0.039,0.097-0.039,0.205,0,0.301v0.402
	c-0.042,0.314-0.289,0.561-0.603,0.603l-2.413,1.005c-0.473,0.24-0.885,0.583-1.206,1.005c-0.266,0.345-0.611,0.621-1.006,0.804
	c-0.312,0.083-0.592,0.258-0.804,0.503c-0.181,0.22-0.383,0.422-0.603,0.603c-0.438,0.347-0.782,0.795-1.006,1.307c0,0,0,0.201,0,0
	c-0.01-0.201-0.01-0.402,0-0.603c0.117-0.57,0.396-1.093,0.805-1.508c-0.066,0.01-0.135,0.01-0.201,0
	c-1.182-0.102-2.371,0-3.519,0.302c0,0-0.201,0,0,0c0-0.302,0.503-1.408,3.016-1.408c-0.478-0.478-1.134-0.732-1.81-0.704v-0.603
	c0.868-0.283,1.82-0.092,2.514,0.502c0.451-0.19,0.924-0.326,1.406-0.402c0.758-0.725,1.563-1.397,2.413-2.01
	c-0.03-0.2-0.03-0.403,0-0.604c-0.547-0.909-0.825-1.955-0.804-3.016c-1.506-0.355-2.828-1.249-3.72-2.513
	c-1.81-0.365-3.318-1.609-4.021-3.317c-3.82,2.714-6.232,7.438-6.333,7.64h-0.201c-0.331-0.687-0.437-1.461-0.302-2.211
	c1.08-2.527,2.501-4.894,4.223-7.037c-0.805-4.021,3.016-5.227,4.422-5.227c1.021-0.03,2.006,0.371,2.715,1.106V169.258z"/>
<path fill="#FFFFFF" d="M205.363,169.861c0.346-0.355,0.812-0.57,1.307-0.603c-1.123-0.487-2.396-0.487-3.519,0
	c0.266-0.398,0.607-0.74,1.005-1.005c-1.096-0.06-2.174,0.299-3.016,1.005c0.244-0.416,0.59-0.762,1.006-1.005
	c-2.412,0-4.021,2.814-4.021,2.814c-0.242-1.189-1.299-2.035-2.512-2.01c-1.408-0.201-4.625,1.81-3.418,4.423
	c-0.503,1.005-2.413,2.714-4.021,6.031v0.201c1.508-2.011,3.619-4.725,5.73-6.031c0.201,0.201,1.508,3.417,4.322,3.619
	c0.301,0.201,1.709,2.613,4.221,2.312c-0.006,1.125,0.163,2.245,0.504,3.317c0.908-0.675,1.93-1.186,3.016-1.508
	c0.189-0.699,0.459-1.373,0.804-2.01c2.103-0.456,3.631-2.274,3.72-4.423c0-2.714-2.312-5.529-5.027-5.227L205.363,169.861z
	 M193.301,172.876c-0.329,0.051-0.638-0.173-0.689-0.502c-0.051-0.329,0.174-0.638,0.503-0.689c0.329-0.051,0.638,0.174,0.688,0.503
	c0.01,0.062,0.01,0.125,0,0.187c0,0.333-0.27,0.603-0.603,0.603l0,0L193.301,172.876z M173.9,239.923l-0.604,0.402l0.805,0.301
	c0.722,0.415,0.971,1.336,0.557,2.059c-0.261,0.454-0.738,0.74-1.261,0.756h-6.534c-0.819-0.148-1.363-0.933-1.215-1.752
	c0.07-0.388,0.29-0.734,0.612-0.962l0.804-0.402l-0.704-0.503c-1.479-1.023-3.228-1.583-5.026-1.608
	c-1.777-0.035-3.525,0.455-5.026,1.407c-1.777,1.189-3.898,1.755-6.031,1.608c-3.22,0.088-6.35-1.063-8.745-3.217h-1.81
	c-0.231,0.323-0.608,0.511-1.005,0.502c-0.611,0-1.106-0.495-1.106-1.105c0-0.611,0.495-1.106,1.106-1.106
	c0.417,0.014,0.797,0.242,1.005,0.603v0.201h2.011v-2.413h-2.011v0.201c-0.252,0.285-0.625,0.435-1.005,0.402
	c-0.555,0-1.005-0.45-1.005-1.005s0.45-1.005,1.005-1.005c0.363-0.058,0.733,0.053,1.005,0.302v0.201h2.011v-2.312h-2.011v0.201
	c-0.252,0.286-0.625,0.435-1.005,0.402c-0.611,0-1.106-0.495-1.106-1.106s0.495-1.105,1.106-1.105
	c0.397-0.008,0.773,0.18,1.005,0.502v0.201h2.011v-2.211h-2.011c-0.231,0.323-0.608,0.511-1.005,0.502
	c-0.555,0-1.005-0.45-1.005-1.005s0.45-1.005,1.005-1.005c0.363-0.058,0.733,0.053,1.005,0.301v0.201h2.011v-2.312h-2.011
	c-0.208,0.361-0.588,0.589-1.005,0.603c-0.611,0-1.106-0.495-1.106-1.105c0-0.611,0.495-1.106,1.106-1.106
	c0.397-0.008,0.773,0.18,1.005,0.503v0.201h2.011v-2.312h-2.011v0.201c-0.252,0.285-0.625,0.435-1.005,0.402
	c-0.611,0-1.106-0.495-1.106-1.106s0.495-1.105,1.106-1.105c0.397-0.009,0.773,0.18,1.005,0.502v0.201h2.011v-2.614h-2.011v0.302
	c-0.252,0.285-0.625,0.434-1.005,0.402c-0.555,0-1.005-0.45-1.005-1.005c0-0.555,0.45-1.005,1.005-1.005
	c0.363-0.058,0.733,0.053,1.005,0.302v0.201h1.608l1.608-0.804v21.109l0.201,0.302c4.423,2.814,8.745,3.016,12.666,0.804
	c4.222-2.312,10.052-2.413,13.47,2.513h-1.709c-0.277,0-0.502,0.225-0.502,0.503c0,0.277,0.225,0.502,0.502,0.502h5.026
	c0.277,0,0.502-0.225,0.502-0.502c0-0.278-0.225-0.503-0.502-0.503h-1.508c3.518-5.026,9.348-4.523,13.469-2.513
	c3.619,2.01,7.842,1.608,12.566-0.704l0.401-0.503v-21.109l1.608,1.005h1.407l0.201-0.302c0.253-0.285,0.626-0.434,1.005-0.402
	c0.555,0,1.006,0.45,1.006,1.005s-0.451,1.005-1.006,1.005c-0.363,0.058-0.733-0.053-1.005-0.301l-0.201-0.201h-1.81v2.413h2.011
	c0.208-0.361,0.589-0.589,1.005-0.603c0.611,0,1.105,0.495,1.105,1.105s-0.494,1.106-1.105,1.106
	c-0.379,0.032-0.752-0.117-1.005-0.402l-0.201-0.201h-1.81v2.312h1.81l0.201-0.201c0.253-0.286,0.626-0.435,1.005-0.402
	c0.639,0,1.156,0.518,1.156,1.156c0,0.638-0.518,1.156-1.156,1.156c-0.397,0.008-0.773-0.18-1.005-0.502h-2.011v2.211h1.81
	l0.201-0.201c0.253-0.285,0.626-0.435,1.005-0.402c0.555,0,1.006,0.45,1.006,1.005s-0.451,1.005-1.006,1.005
	c-0.363,0.058-0.733-0.053-1.005-0.302h-2.011v2.312h1.81l0.201-0.201c0.253-0.286,0.626-0.435,1.005-0.402
	c0.611,0,1.105,0.495,1.105,1.105c0,0.611-0.494,1.106-1.105,1.106c-0.379,0.032-0.752-0.117-1.005-0.402v-0.201h-2.011v2.312h2.011
	v-0.201c0.253-0.285,0.626-0.435,1.005-0.402c0.555,0,1.006,0.45,1.006,1.005s-0.451,1.005-1.006,1.005
	c-0.379,0.032-0.752-0.117-1.005-0.402h-2.011v2.211h2.011v-0.201c0.253-0.286,0.626-0.435,1.005-0.402
	c0.555,0,1.006,0.45,1.006,1.005s-0.451,1.005-1.006,1.005c-0.363,0.058-0.733-0.053-1.005-0.302v-0.302h-1.709l-0.201,0.201
	c-2.431,2.072-5.554,3.149-8.745,3.016c-2.121,0.169-4.239-0.36-6.031-1.508c-3.043-2.033-7.01-2.033-10.053,0L173.9,239.923z"/>
<path fill="#FFFFFF" d="M145.252,237.008c3.317,1.709,6.031,2.211,10.655-0.301c4.567-2.426,10.181-1.612,13.872,2.01v1.608
	c-3.82-5.026-10.052-4.825-14.375-2.413c-3.518,2.01-7.438,1.81-11.358-0.603v-21.109l1.005-0.603v21.109L145.252,237.008z"/>
<path fill="#FFFFFF" d="M146.056,236.204v-21.109c3.365,0.856,6.923,0.5,10.052-1.005c4.523-2.011,9.047-1.307,13.57,1.709v21.612
	c-2.344-1.948-5.295-3.014-8.343-3.016c-2.028-0.009-4.029,0.474-5.83,1.407C151.183,238.014,148.871,237.812,146.056,236.204z
	 M184.354,236.707c4.825,2.513,7.438,2.01,10.755,0.301h0.303v-21.411l1.004,0.603v21.109c-4.221,2.01-8.041,2.312-11.357,0.704
	c-4.323-2.211-10.354-2.814-14.274,2.211v-1.608c3.655-3.529,9.153-4.338,13.671-2.01L184.354,236.707z"/>
<path fill="#FFFFFF" d="M170.684,237.411v-21.512c4.523-3.016,9.047-3.719,13.47-1.809c3.128,1.505,6.688,1.861,10.052,1.005v21.109
	c-2.714,1.508-5.025,1.81-9.348-0.402c-4.637-2.446-10.298-1.808-14.274,1.608H170.684z M194.607,211.275l-5.729-4.323l-5.931,4.323
	l2.211-6.835l-6.031-4.323h7.338l2.212-7.036l2.011,7.036h7.338l-6.031,4.222l2.312,6.835 M157.214,211.275l-5.729-4.222
	l-5.73,4.222l2.211-6.835l-6.031-4.323h7.338l2.212-7.036l2.211,7.036h7.237l-6.031,4.222l2.211,7.036 M164.451,265.254l2.211-6.835
	l-6.031-4.423h7.338l2.312-7.036l2.211,7.036h7.339l-6.031,4.323l2.212,6.735l-5.73-4.323l-5.729,4.323"/>
</svg>
