<svg xmlns="http://www.w3.org/2000/svg" width="340" height="326.5" viewBox="0 111.8 340 326.5"><path fill="#00467F" d="M0 160.4l48.7-48.6H340v277.7l-48.8 48.8H.2L0 160.4"/><path fill="#FFF" d="M51.9 362h1.4v-9h3v-1.3h-7.6v1.4h3.2v9m6.8-7c-1.7 0-3 1.4-3 3.4 0 1.8 1 3.7 3 3.7.9 0 1.8-.2 2.5-.7V360c-.6.6-1.4.8-2.2.9a2 2 0 0 1-2-2h4.3c0-2.6-1-3.8-2.6-3.8zm-1.6 3a1.6 1.6 0 0 1 1.6-1.9 1.5 1.5 0 0 1 1.4 1.7h-3v.1zm15.8-6.4h-1.2l-2.6 7-2.6-7h-1.2l3.7 10.4h.3l3-8.4 3 8.4h.2l3.7-10.4h-1.4l-2.5 7-2.5-7m13.1 10.4v-4.3c0-1.8-1-2.7-2-2.7-.7 0-1.4.4-1.8 1v-4.3H81v10.3h1.2v-5c.3-.6.9-1 1.5-1 .7 0 1.2.6 1.2 1.6v4.3H86zm4-3.8c-1 .4-2 .8-2 2a1.5 1.5 0 0 0 1.5 1.8c.5 0 1-.3 1.5-.6a.8.8 0 0 0 1 .6l1-.5v-.9c-.2.2-.4.4-.6.4-.2 0-.3 0-.3-.3v-3.4a2 2 0 0 0-2.2-2.2c-.8 0-1.6.4-2 1v1.4c.4-.6 1.2-1 2-1 .5 0 1 .5 1 1v.5l-.8.2zm1 2.3c-.2.3-.5.5-1 .6a1 1 0 0 1-.7-.9c0-.8.8-1.2 2-1.6v2H91zm4-5.4v6.8H96v-3.7c0-1 .7-2 1.5-2 .5 0 .9.3 1.2.6l.6-1a2 2 0 0 0-1.4-1c-.6 0-1 .6-1.8 1.8v-1.6H95l-.1.1zm8.3-.2c-1.7 0-3 1.5-3 3.5 0 1.8 1 3.7 3 3.7 1 0 1.8-.2 2.5-.7V360c-.5.5-1.2.8-2 .9a2 2 0 0 1-2-2h4c0-2.6-1-3.8-2.5-3.8zm-1.6 3a1.6 1.6 0 0 1 1.7-1.8 1.5 1.5 0 0 1 1.4 1.7h-3v.1zm15.8-6.3h-1.2l-2.6 7-2.5-7h-1.3l3.8 10.4h.2l3-8.4 3 8.4h.3l3.7-10.4h-1.2l-2.6 7-2.6-7m8.8 6.6c-1 .4-2 .8-2 2a1.5 1.5 0 0 0 1.4 1.8c.5 0 1.1-.3 1.6-.6 0 .4.5.7 1 .6l1-.5v-.9c-.2.2-.4.4-.6.4 0 0-.2 0-.2-.3v-3.4a2 2 0 0 0-2.2-2.2c-.8 0-1.6.4-2 1v1.4c.4-.6 1.2-1 2-1 .5 0 1 .5 1 1v.5l-1 .2zm1 2.3c-.3.3-.7.5-1 .6a1 1 0 0 1-.9-.9c0-.8 1-1.2 2-1.6v2h-.1zm9 1.5v-4.3c0-2-1-2.7-2-2.7-.8 0-1.6.4-2 1v-.8h-1v6.8h1v-5c.3-.7 1-1 1.6-1 .8 0 1.3.6 1.3 1.6v4.3h1.2zm4-3.8c-1 .4-2 .8-2 2-.1.9.5 1.7 1.3 1.8.6 0 1.3-.2 1.7-.6a.8.8 0 0 0 1 .6l1-.5v-.9c-.1.2-.3.4-.6.4s-.3 0-.3-.3v-3.4a2 2 0 0 0-2.2-2.2c-.8 0-1.5.4-2 1v1.4c.5-.6 1.2-1 2-1 .6 0 1 .5 1 1v.5l-1 .2zm1 2.3c-.3.3-.7.5-1 .6a1 1 0 0 1-.9-.9c0-.8 1-1.2 2-1.6v2h-.2zm8.9 1.5v-4.3c0-2-1-2.7-2-2.7-.8 0-1.4.4-1.8 1v-.8H145v6.8h1.2v-5c.3-.6.8-1 1.5-1s1.2.6 1.2 1.6v4.3h1.2-.1zm7.3-6.9h-2.6c-1.6 0-2.6 1-2.6 2.3 0 .5.1 1 .4 1.3.2.4.6.7 1 .8a1 1 0 0 0-1 1c0 .5.2.9.6 1-.9.2-1.6.9-1.6 1.8 0 1.2 1.2 2 2.8 2 1.8 0 3-.8 3-2a2 2 0 0 0-2-2c-1-.2-1.7-.4-1.7-.9 0-.8 1.5-.3 2.3-1.3.4-.4.6-1 .6-1.5a2 2 0 0 0-.7-1.5h1.2v-1h.3zm-3.2 7c.7 0 2 .3 2 1 0 .8-.6 1-1.7 1s-1.7-.2-1.7-1c0-.6.7-1 1.4-1zm.3-3.4a1 1 0 0 1-1.2-1.3 1.2 1.2 0 0 1 2.4 0 1.2 1.2 0 0 1-1.3 1.3h.1zm6.1-.5c-1 .4-2 .8-2 2 0 .9.6 1.7 1.4 1.8.6 0 1.2-.3 1.6-.6.1.4.6.7 1 .6l1-.5v-.9c-.1.2-.3.4-.6.4 0 0-.2 0-.2-.3v-3.4a2 2 0 0 0-2.2-2.2c-.8 0-1.5.4-2 1v1.4c.5-.6 1.2-1 2-1 .6 0 1 .5 1 1v.5l-1 .2zm1 2.3c-.2.3-.6.5-1 .6a1 1 0 0 1-1-.9c0-.8 1-1.2 2-1.6v2zm11.3 1.5a3.5 3.5 0 1 0-3.3-3.6 3.3 3.3 0 0 0 3.2 3.7v-.1zm0-5.8a2 2 0 0 1 2 2.2 2 2 0 0 1-2 2.5c-1.3 0-2-1-2-2.6a2 2 0 0 1 2-2.2v.1zm12 5.8v-9h3v-1.4h-7.6v1.4h3.3v9h1.3m4.8-3.8c-1 .4-2 .8-2 2 0 .9.5 1.7 1.4 1.8.6 0 1.2-.2 1.7-.6 0 .4.5.7 1 .6l1-.5v-.9c-.1.2-.3.4-.5.4s-.3 0-.3-.3v-3.4a2 2 0 0 0-2.2-2.2c-.8 0-1.6.4-2 1v1.4c.4-.6 1.2-1 2-1 .5 0 1 .5 1 1v.5l-1.1.2zm1 2.3c-.3.3-.6.5-1 .6a1 1 0 0 1-.8-.9c0-.8.8-1.2 1.8-1.6v2zm13.2 1.5v-4.4c0-1.6-.9-2.6-2-2.6-.9.1-1.6.6-2 1.3a2 2 0 0 0-1.9-1.2c-.7 0-1.4.4-1.8 1v-.8H195v6.8h1.2v-5c.3-.6 1-.9 1.5-.9.6 0 1 .5 1 1.6v4h1.3V357a2 2 0 0 1 1.3-.8 1.4 1.4 0 0 1 1.3 1.6v4h1.3v.3zm4.2-3.8c-1 .4-2 .8-2 2a1.5 1.5 0 0 0 1.6 1.8c.6 0 1.1-.3 1.6-.6 0 .4.5.7 1 .6l1-.5v-.9c-.2.2-.4.4-.6.4 0 0-.2 0-.2-.3v-3.4a2 2 0 0 0-2.2-2.2c-.8 0-1.6.4-2 1v1.4c.4-.6 1.2-1 2-1 .5 0 1 .5 1 1v.5l-1.2.2zm1.2 2.3c-.3.3-.6.5-1 .6a1 1 0 0 1-1-.9c0-.8 1-1.2 2-1.6v2zm8.2-5.4l-2.7 3.3 3 3.5h1.7l-3.2-3.6 2.6-3.3h-1.4m-3.9-3.4h1.2v10.4h-1.2v-10.4z"/><ellipse fill="#FFF" cx="221.8" cy="353.2" rx=".7" ry=".8"/><path fill="#FFF" d="M221.1 355.2h1.4v6.8H221v-6.8zm18 6.9v-10.4h-1.3l-3 4.2-3-4.3h-1.3v10.5h1.3v-8l2.8 4h.3l2.8-4v8h1.3m4.6-3.8c-1 .4-2 .8-2 2a1.6 1.6 0 0 0 1.5 1.8c.6 0 1.1-.3 1.6-.6 0 .4.5.7 1 .6l1-.5v-.9c-.2.2-.4.4-.6.4 0 0-.2 0-.2-.3v-3.4a2 2 0 0 0-2.2-2.2c-.8 0-1.6.4-2 1v1.4c.4-.6 1.2-1 2-1 .5 0 1 .5 1 1v.5l-1.1.2zm1 2.3c-.3.3-.7.5-1 .6a1 1 0 0 1-.8-.9c0-.8 1-1.2 2-1.6v2h-.2zm8.3-5.4l-2.7 3.3 3 3.5h1.6l-3-3.6 2.4-3.3h-1.4m-3.8-3.4h1.2v10.4h-1.3v-10.4zm7.3 4.3v1.4c.4-.6 1.1-1 1.8-1 .6 0 1 .5 1 1v.5l-1 .3c-1 .4-2 .8-2 2a1.6 1.6 0 0 0 1.5 1.9c.6 0 1.2-.3 1.6-.6 0 .4.4.7.8.7.5 0 1-.2 1.3-.5v-.9l-.7.5c-.2 0-.3 0-.3-.4v-3.4a2 2 0 0 0-2-2.2c-.8 0-1.5.4-2 1v-.3zm3 4.6c-.2.3-.6.5-1 .6a1 1 0 0 1-1-.9c0-.8 1-1.2 2-1.6v2zm9.3 1.5v-7h-1.2v4.7c-.3.6-.8 1-1.4 1a1.2 1.2 0 0 1-1.3-1.5V355h-1.3v4.2c0 1.8 1 2.7 2.2 2.7.7-.1 1.4-.5 1.8-1v1h1.2v.2zm3-6.9v6.8h1.2v-3.7c0-1 .6-2 1.5-2 .4.1.8.3 1 .6l.6-1a2 2 0 0 0-1.4-1c-.6 0-1 .6-1.8 1.7v-1.5h-1.2l.1.1zm8 3.1c-1 .4-2 .8-2 2 0 .9.6 1.7 1.4 1.8.6 0 1.2-.3 1.7-.6 0 .4.5.7 1 .6l1-.5v-.9c-.2.2-.3.4-.5.4s-.3 0-.3-.3v-3.4a2 2 0 0 0-2.3-2.2c-.7 0-1.5.4-2 1v1.4c.5-.6 1.3-1 2-1 .6 0 1 .5 1 1v.5l-1 .2zm1 2.3c-.2.3-.6.5-1 .6a1 1 0 0 1-.8-.9c0-.8 1-1.2 2-1.6v2h-.1zm9.4 1.5v-7h-1.2v4.7c-.3.6-.8 1-1.4 1a1.2 1.2 0 0 1-1.3-1.5V355h-1.2v4.2c0 1.8.8 2.7 2 2.7.7-.1 1.4-.5 1.8-1v1h1.2l.1.2zm-165.7-8.6h3.6v.7h-3.6v-.7zm63.7 0h3.5v.7H188v-.7zM94.8 303h-7v-5h6.7v-3h-6.7v-4.6h6.7v-3h-9.7v18.6h10V303m85.1-12.8v-3h-9.6v18.6h10V303h-7v-5h6.4v-3h-6.5v-4.7h6.8M68.4 298h8.5v7.9h3v-18.4h-3v7.7h-8.5v-7.7h-3v18.3h3V298m44.2 8c2 .3 4.2-.5 5.7-2 1.3-1.5 2-3.5 1.8-5.5v-11h-3V298c0 2-.2 3-.8 3.7-1 1-2.2 1.4-3.5 1.4a4 4 0 0 1-3.3-1.5c-.7-.8-1-1.6-1-3.5v-10.8h-3v11.4a7 7 0 0 0 7.1 7.3zm27.3-.2v-18.4h-2.8v13l-10.4-13h-2.4v18.4h2.9v-13.1l10.2 13h2.5zm26.7-18.4h-3l-4.7 12-4.5-12h-3l7.2 18.6h1l7-18.6zm28.7 18.4h3.5l-.4-.6-2-3.4-1.8-2.8-1.5-1.8a4.8 4.8 0 0 0 2.5-4.4c.1-1.5-.4-3-1.5-4a5.8 5.8 0 0 0-4-1.3h-4.4v18.3h3V298h.5c1 0 2 .3 4 4l2.1 3.7zm-2.8-13.1c0 .6-.2 1.2-.6 1.7a3 3 0 0 1-2.4.8h-1v-5h1c2 0 3 .7 3 2.3v.2zm13.6-2.4a5 5 0 0 1 3.7 1.8l.4.4h.2v-3.7a6.3 6.3 0 0 0-3.8-1.3c-1.4-.1-2.8.4-3.8 1.4a5 5 0 0 0-1.5 3.7c0 2.6 1.9 4 3.7 5.2l.4.2.8.6 1 1c.6.5 1 1.3 1 2a2 2 0 0 1-2.2 1.9 5 5 0 0 1-4-2.5l-.6-.7v-.2 4.6a7 7 0 0 0 4.8 1.7c1.3 0 2.5-.6 3.4-1.5.9-1 1.4-2.3 1.4-3.7 0-3-2-4.5-3.6-5.7l-1.2-.7-1-.8c-.6-.4-1-1-1-1.8a2 2 0 0 1 2-1.8l-.1-.1zm38.2 15.5h2.8v-9.6l6.3-8.8H250l-4 6-4.4-6H238l6.3 8.8v9.7-.1zm-99.6-18.4h3v18.4h-3v-18.4zm71.4 0h2.8v18.4h-3l.2-18.4zM54.6 305.8h3v-15.5h5.5v-3h-14v3h5.5v15.5m173.6 0h3v-15.5h5.6v-3h-14v3h5.5v15.5m55.2-8.4h6v-3h-6v-4h6v-3h-9v18.4h3v-8.4m-15.4 8.7c2.5 0 4.9-1 6.5-2.8 3.2-3.8 3.2-9.3 0-13.1a8.8 8.8 0 0 0-12.8 0 10 10 0 0 0 0 13c1.6 1.9 3.9 2.9 6.3 2.9zm-4-14.1c1-1.1 2.5-1.7 4-1.7 3.4 0 6 2.7 6 6.4 0 1.7-.6 3.4-1.8 4.6a5.7 5.7 0 0 1-8.4 0 7 7 0 0 1 0-9.2l.2-.1zm-52.3 21.2h-3.5l-12 31.6h5l3.5-9h10.8l3.6 9h5.4l-12.8-31.6zm-5 17.7c0-.3 3-8.3 3.2-9 0 .7 3.4 8.7 3.5 9h-7 .3zm-15.1 8.8h-12.4v-26.3h-5v31.4h17.4v-5m-134.2-3.9h11l3.6 8.9h5l-12.5-31.6h-3.5l-12 31.6h5l3.4-9v.1zm5.3-14l3.5 9h-6.8c0-.4 3-8.4 3.3-9zm74.1 20.4v-6h-.2l-.7.4a16 16 0 0 1-9 3.4c-3 .2-5.7-1-7.8-3a11 11 0 0 1-3-8c0-3 1-5.7 3-7.9 2-2 4.6-3.2 7.5-3.2 3.2.1 6.4 1.2 9 3l.7.5h.2l-.3-6c-4-1.7-6.8-2.5-9.6-2.5-9 0-15.5 7-15.5 16.6 0 3.7 1.4 7.3 3.7 10.2 2.8 3.5 7 5.5 11.6 5.4 3.6 0 7.2-1 10.3-3h.1zm17.2-14l12.4-14.9H160l-10.6 12.9v-12.9h-5v31.4h5v-14.1l13 14h7l-15.4-16.4zm133.4-9.9c-2.8-3.3-7-5.1-11.4-5h-11v31.4h11c4.2 0 8.3-1.7 11-4.9 2.7-3 4.1-6.8 4.1-10.8a17 17 0 0 0-3.6-10.7h-.1zM275.7 340H270v-21.6h5.5c3-.1 6 1 8 3.2a11 11 0 0 1 2.7 7.6c0 4-2.2 10.7-10.5 10.7v.1zm-183 5.3c4 0 7.3-1.2 9.5-3.5 2.2-2.4 3-5.5 3-9.4v-18.9h-5v18.1c0 3.3-.3 5-1.5 6.3a7.7 7.7 0 0 1-6 2.2c-2.1 0-4-.8-5.4-2.4-1.3-1.3-1.6-2.7-1.6-6v-18.3h-5v19.6c0 3.8 1.3 7 3.7 9.4 2.3 2 5.3 3 8.3 3v-.1zm159.3-9.3l-17.8-22.6h-4v31.4h5v-22.3l17.4 22.3h4v-31.4H252v22.6h.1zM59 385.5l-7.6-9h-2v12.8h2.4v-9l7.6 9h2v-12.7h-2.3v9m17.8-1.8h5.5v-2H77v-3.4h5.8v-2h-8.3v12.9h8.4v-1.8h-6v-3.6m31.8.6l-3.5-8h-2l-3.4 8-3.2-8H94l5.2 13h.8l4-9.6 4 9.6h1l5.3-13h-2.5l-3.2 8m43.2-8h-11.3v2h7l-7.5 10.8H152v-1.8h-7.5l7.5-10.9m14.5 7.2h5.5v-2h-5.5v-3.4h5.8v-2h-8.4v12.9h8.5v-1.8h-6v-3.6m22.4-7.4l-5.3 12.8h2.7l1.3-3h5.7l1.3 3h2.6l-5.7-12.7h-2.6zm-.7 7.9l2-5 2 5h-4zm23-7.9h-2.4v12.7h8.6v-1.8h-6v-10.9m22 0l-5.4 12.8h2.6l1.2-3h5.7l1.4 3h2.6l-5.6-12.7h-2.6.1zm-.8 7.9l2-5 2 5h-4zm30.4 1l-7.7-9H253v12.9h2.4v-9l7.7 9h2.2v-12.7h-2.4v9m24.3-8.3a7.5 7.5 0 0 0-3.6-.8H278v12.7h5.3a8 8 0 0 0 3.5-.7c1-.5 1.9-1.3 2.5-2.2.6-1 1-2 1-3.2 0-1.2-.4-2.4-1-3.4a6 6 0 0 0-2.4-2.3zm-.6 8.9c-1 .8-2.1 1.3-3.3 1.2h-2.7v-9h2.6c1.2-.1 2.5.4 3.4 1.2a4.8 4.8 0 0 1 0 6.6zM49.3 370h241.6v1.3H49.3v-1.3zm72-209.6v49.3c0 11.6 8.7 45.2 48.3 61.9l.6.3.7-.2c39.5-16.5 48.2-50.3 48.2-61.8v-49.3h-97.8v-.2z"/><path fill="#00467F" d="M131.7 193.2l-.2-.2a14.7 14.7 0 0 0-7.9-2h-.2v18.8c0 .4 1.3 40.7 46.8 59.8 45.4-19.1 46.7-59.3 46.7-59.8v-18.6h-.6c-2.6 0-5.2.7-7.4 2-5 2.8-11 2.8-15.9 0a14.9 14.9 0 0 0-14.9 0c-4.9 2.8-11 2.8-15.9 0v-.2a14.9 14.9 0 0 0-14.8 0h-.2a15.9 15.9 0 0 1-15.4.2h-.1z"/><path fill="#00467F" d="M137.1 169.3a6.7 6.7 0 0 1 5-2.4c7.3-.3 10.9 5 10.8 9.5 0 5-3.8 6-4.3 6.3 0 1 .2 1.8.7 2.5v1.3c0 .5-.1 1-.4 1.3-.2.6-.2 1.3 0 2 0 .2 0 .2 0 0-.5-.5-.9-1-1-1.7-1 .4-1.8 1.2-2.2 2.2 0 0-.2.2-.2 0-.1-1 .3-2 1.2-2.6-.7-.2-1.5 0-2 .4 0 0-.3 0 0 0 0 0 .4-1 2.2-1.4l.6-1.2c-.1-.8-.4-1.6-.8-2.4a5 5 0 0 0-2.5 1l-.2.3v.4c0 .3-.2.6-.5.6l-2.4 1c-.4.3-.9.6-1.2 1-.2.4-.6.7-1 .9-.3 0-.5.2-.7.5l-.6.6c-.4.3-.8.8-1 1.3 0 0 0 .2 0 0v-.6c.1-.6.4-1.1.8-1.5h-.2c-1.2-.1-2.4 0-3.5.3 0 0-.2 0 0 0 0-.3.5-1.5 3-1.5-.4-.4-1-.7-1.7-.7v-.6c.9-.3 1.9 0 2.6.5a6 6 0 0 1 1.4-.4l2.4-2v-.6c-.5-.9-.8-2-.8-3a6.3 6.3 0 0 1-3.7-2.5c-2-.3-3.6-1.5-4.3-3.3-3.6 2.7-6 7.4-6.2 7.6h-.2c-.4-.7-.5-1.4-.3-2.2 1-2.5 2.5-4.9 4.2-7-.7-4 3-5.3 4.5-5.3 1 0 2 .6 2.7 1.4h-.2z"/><path fill="#FFF" d="M144.3 169.9a2 2 0 0 1 1.4-.6 4.4 4.4 0 0 0-3.7 0c.3-.4.6-.8 1-1-1-.1-2.1.3-3 1 .2-.4.4-.8.7-1-2 0-3.8 2.8-3.8 2.8-.2-1.2-1.2-2-2.4-2-1.4-.2-4.7 1.8-3.4 4.4-.6 1-2.5 2.7-4 6v.2a23 23 0 0 1 5.6-6c.2.2 1.4 3.4 4.3 3.6.3.2 1.7 2.6 4.2 2.3 0 1.1.2 2.3.5 3.3.9-.7 1.8-1.2 2.8-1.6.2-.7.5-1.4.9-2a4.7 4.7 0 0 0 3.8-4.4c0-2.5-2.2-5.3-4.9-5zm-12 3a.6.6 0 1 1 .5-.5c0 .3-.2.5-.5.6v-.1z"/><path fill="#00467F" d="M167.7 169.3a6.7 6.7 0 0 1 5-2.4c7.2-.3 11 5 10.7 9.5 0 5-4 6-4.4 6.3a5 5 0 0 0 1 2.5v.5c0 .2-.2.3-.3.4v.4c.1.5 0 .9-.2 1.3v2c0 .2 0 .2 0 0-.5-.5-.8-1-1-1.7-1 .4-1.7 1.2-2.2 2.2 0 0-.3.2-.3 0 0-1 .4-2 1.2-2.6-.7-.2-1.4 0-2 .4 0 0-.2 0 0 0 0 0 .4-1 2.3-1.4l.6-1.2c0-.8-.4-1.6-.8-2.4a5 5 0 0 0-2.3 1l-.3.3v.4c0 .3-.2.6-.5.6l-2.4 1c-.5.3-.9.6-1.2 1-.3.4-.6.7-1 .9-.3 0-.6.2-.8.5l-.6.6c-.5.3-.8.8-1 1.3 0 0 0 .2 0 0v-.6c0-.6.4-1.1.8-1.5h-.2c-1.2-.1-2.4 0-3.6.3 0 0-.2 0 0 0 0-.3.6-1.5 3-1.5-.4-.4-1-.7-1.7-.7v-.6c.8-.2 1.8 0 2.5.5a6 6 0 0 1 1.4-.4c.7-.7 1.5-1.4 2.4-2v-.6c-.6-.9-.8-2-.8-3a6.3 6.3 0 0 1-3.7-2.5 5.5 5.5 0 0 1-4-3.3 23.6 23.6 0 0 0-6.4 7.6h-.2c-.4-.7-.5-1.4-.4-2.2 1.1-2.5 2.6-4.9 4.3-7-.7-4 3-5.3 4.5-5.3 1 0 2 .4 2.8 1.2l-.2.2z"/><path fill="#FFF" d="M175 169.9c.3-.4.7-.6 1.2-.6a4.4 4.4 0 0 0-3.5 0c.3-.4.6-.8 1-1-1.1-.1-2.2.3-3 1 .2-.4.5-.8.8-1-2.3 0-4 2.8-4 2.8-.3-1.2-1.3-2-2.4-2-1.5-.2-4.8 1.8-3.5 4.4-.6 1-2.5 2.7-4 6v.2a23 23 0 0 1 5.6-6c.2.2 1.6 3.4 4.4 3.6.3.2 1.7 2.6 4.2 2.3 0 1.1 0 2.3.4 3.3.9-.6 2-1.2 3-1.5l.8-2a4.7 4.7 0 0 0 4-4.3c0-2.7-2.5-5.5-5-5.2zm-12.2 3a.6.6 0 1 1 .5-.5c0 .3-.2.6-.6.6l.1-.1z"/><path fill="#00467F" d="M198 169.3a6.7 6.7 0 0 1 5-2.4c7.4-.3 11.1 5 11 9.5-.3 5-4.1 6-4.5 6.3 0 1 .3 1.8.8 2.5v.5l-.2.4v.4c0 .5 0 1-.3 1.3 0 .6 0 1.3.2 2 0 .2-.2.2-.3 0-.5-.5-.9-1-1-1.7-1 .4-1.8 1.2-2.2 2.2 0 0-.2.2-.2 0-.1-1 .4-2 1.2-2.6-.7-.2-1.5 0-2 .4 0 0-.2 0 0 0 0 0 .3-1 2.2-1.4l.6-1.2c-.2-.8-.5-1.6-1-2.4a5 5 0 0 0-2.2 1v.7c0 .4-.3.6-.6.6l-2.5 1-1.2 1c-.2.4-.6.7-1 .9-.3 0-.6.2-.8.5l-.6.6c-.4.3-.8.8-1 1.3 0 0 0 .2 0 0v-.6c.1-.6.4-1.1.8-1.5h-.2c-1.2-.1-2.3 0-3.5.3 0 0-.2 0 0 0 0-.3.5-1.5 3-1.5-.5-.4-1.1-.7-1.8-.7v-.6c.9-.2 1.8 0 2.5.5a6 6 0 0 1 1.4-.4l2.4-2v-.6c-.5-.9-.8-2-.8-3a6.3 6.3 0 0 1-3.7-2.5 5.5 5.5 0 0 1-4-3.3 23.6 23.6 0 0 0-6.3 7.6h-.2c-.4-.7-.5-1.4-.3-2.2 1-2.5 2.5-4.9 4.2-7-.8-4 3-5.3 4.4-5.3 1 0 2 .4 2.7 1.2v.2z"/><path fill="#FFF" d="M205.4 169.9a2 2 0 0 1 1.3-.6 4.4 4.4 0 0 0-3.5 0c.2-.4.6-.8 1-1-1.1-.1-2.2.3-3 1 .2-.5.5-.8 1-1-2.5 0-4 2.8-4 2.8-.3-1.2-1.4-2-2.6-2-1.4-.2-4.6 1.8-3.4 4.4-.5 1-2.4 2.7-4 6v.2c1.5-2 3.6-4.7 5.7-6 .2.2 1.5 3.4 4.3 3.6.3.2 1.7 2.6 4.2 2.3 0 1.1.2 2.3.6 3.3.9-.6 1.9-1.2 3-1.5.2-.7.4-1.4.8-2a4.7 4.7 0 0 0 3.7-4.4c0-2.7-2.3-5.5-5-5.2h-.1zm-12.1 3a.6.6 0 1 1 .5-.5c0 .3-.3.6-.6.6l.1-.1zm-19.4 67l-.6.4.8.3a1.5 1.5 0 0 1-.7 2.8h-6.5a1.5 1.5 0 0 1-.6-2.7l.8-.4-.7-.5a9 9 0 0 0-10-.2 9.7 9.7 0 0 1-6.1 1.6c-3.2.1-6.4-1-8.8-3.2h-1.8c-.2.3-.6.5-1 .5a1.1 1.1 0 1 1 0-2.2c.4 0 .8.2 1 .6v.2h2v-2.4h-2v.2c-.2.3-.6.4-1 .4a1 1 0 0 1 0-2c.4 0 .7 0 1 .3v.2h2v-2.3h-2v.2c-.2.3-.6.4-1 .4a1.1 1.1 0 1 1 0-2.2c.4 0 .8.1 1 .5v.2h2v-2.2h-2c-.2.3-.6.5-1 .5a1 1 0 0 1 0-2c.4-.1.7 0 1 .3v.2h2V225h-2c-.2.4-.6.6-1 .6a1.1 1.1 0 1 1 0-2.2c.4 0 .8.2 1 .5v.2h2v-2.3h-2v.2c-.2.3-.6.5-1 .4a1.1 1.1 0 1 1 0-2.2c.4 0 .8.2 1 .5v.2h2v-2.6h-2v.3c-.2.3-.6.4-1 .4a1 1 0 0 1 0-2c.4 0 .7 0 1 .3v.2h1.6l1.6-.8v21.1l.2.3c4.5 2.8 8.8 3 12.7.8 4.2-2.3 10-2.4 13.5 2.5h-1.7a.5.5 0 0 0 0 1h5a.5.5 0 0 0 0-1H171c3.5-5 9.3-4.5 13.5-2.5 3.6 2 7.8 1.6 12.5-.7l.4-.5v-21.1l1.6 1h1.4l.2-.3c.3-.3.7-.4 1-.4a1 1 0 1 1 0 2c-.3 0-.7 0-1-.3l-.2-.2h-1.8v2.4h2c.2-.3.6-.6 1-.6a1.1 1.1 0 1 1 0 2.2c-.3 0-.7 0-1-.4l-.2-.2h-1.8v2.3h1.8l.2-.2c.3-.2.7-.4 1-.4a1.2 1.2 0 1 1 0 2.3c-.4 0-.7-.1-1-.5h-2v2.3h1.8l.2-.2c.3-.3.7-.5 1-.4a1 1 0 1 1 0 2c-.3 0-.7 0-1-.3h-2v2.3h1.8l.2-.2c.3-.3.7-.5 1-.4a1.1 1.1 0 1 1 0 2.2c-.3 0-.7-.1-1-.4v-.2h-2v2.3h2v-.2c.3-.3.7-.4 1-.4a1 1 0 1 1 0 2c-.3 0-.7-.1-1-.4h-2v2.2h2v-.2c.3-.3.7-.4 1-.4a1 1 0 1 1 0 2c-.3 0-.7 0-1-.3v-.3H199l-.2.2c-2.4 2-5.5 3.2-8.7 3-2.1.2-4.3-.3-6-1.5-3-2-7-2-10.1 0h-.1z"/><path fill="#FFF" d="M145.3 237c3.3 1.7 6 2.2 10.6-.3a11.9 11.9 0 0 1 13.9 2v1.6c-3.8-5-10-4.8-14.4-2.4-3.5 2-7.4 1.8-11.4-.6v-21.1l1-.6v21.1l.3.3z"/><path fill="#FFF" d="M146 236.2v-21.1c3.4.9 7 .5 10.1-1 4.5-2 9-1.3 13.6 1.7v21.6a13 13 0 0 0-14.2-1.6c-4.3 2.2-6.6 2-9.4.4zm38.4.5c4.8 2.5 7.4 2 10.7.3h.3v-21.4l1 .6v21.1c-4.2 2-8 2.3-11.3.7-4.4-2.2-10.4-2.8-14.3 2.2v-1.6c3.6-3.5 9.1-4.3 13.7-2l-.1.1z"/><path fill="#FFF" d="M170.7 237.4V216c4.5-3 9-3.7 13.5-1.8 3 1.5 6.6 1.9 10 1v21.1c-2.7 1.5-5 1.8-9.3-.4a12.8 12.8 0 0 0-14.3 1.6zm24-26.1l-5.8-4.3-6 4.3 2.3-6.9-6-4.3h7.3l2.2-7 2 7h7.3l-6 4.2 2.3 6.9m-37 0l-5.8-4.1-5.7 4.2 2.2-6.9-6-4.3h7.3l2.2-7 2.2 7h7.2l-6 4.2 2.2 7m7.4 54l2.2-6.9-6-4.4h7.3l2.3-7 2.2 7h7.3l-6 4.3 2.2 6.8-5.7-4.4-5.7 4.4"/></svg>