<?xml version="1.0" encoding="utf-8"?>
<!-- Generator: Adobe Illustrator 16.0.5, SVG Export Plug-In . SVG Version: 6.00 Build 0)  -->
<!DOCTYPE svg PUBLIC "-//W3C//DTD SVG 1.1//EN" "http://www.w3.org/Graphics/SVG/1.1/DTD/svg11.dtd">
<svg version="1.1" id="Layer_1" xmlns="http://www.w3.org/2000/svg" xmlns:xlink="http://www.w3.org/1999/xlink" x="0px" y="0px"
	 width="236.667px" height="233.333px" viewBox="-37.667 -23.423 236.667 233.333"
	 enable-background="new -37.667 -23.423 236.667 233.333" xml:space="preserve">
<rect x="-37.667" y="-23.423" fill="#FFFFFF" width="236.667" height="233.333"/>
<g>
	<path fill="#005DAA" d="M120.324,135.355c-8.447,13.542-23.412,22.021-39.656,22.021c-15.768,0-30.317-7.99-38.887-20.84
		l-1.242-1.98c-0.901-1.509-1.748-3.062-2.482-4.691c-1.765-4.029-3.317-6.156-4.893-6.686c-1.146-0.384-2.041,0.124-2.695,0.489
		l-0.269,0.147l-5.849,2.742l-0.522,0.244c-0.688-2.084-1.025-3.925-1.072-5.997c-0.04-1.854,0.063-3.631,0.311-5.28l-1.069-0.667
		c-1.672,1.151-3.92,1.854-6.097,2.535c-3.11,0.975-6.046,1.891-7.506,4.062l-0.056,0.085l-0.031,0.098
		c-0.61,1.985-0.934,4.234-0.934,6.498c0,7.661,3.681,13.892,8.204,13.892c0.565,0,1.132-0.121,1.661-0.333l0.744-0.377l5.533-2.8
		c10.566,21.571,32.882,35.719,57.151,35.719c24.273,0,46.592-14.153,57.15-35.716l5.533,2.799l0.736,0.372
		c0.531,0.213,1.1,0.336,1.668,0.336c4.523,0,8.203-6.229,8.203-13.892c0-2.264-0.322-4.51-0.936-6.498l-0.027-0.098l-0.059-0.085
		c-1.459-2.168-4.395-3.087-7.508-4.062c-2.174-0.681-4.424-1.384-6.098-2.535l-1.066,0.667c0.246,1.656,0.352,3.435,0.311,5.28
		c-0.049,2.305-0.338,3.986-1.025,6.016l-0.58-0.27l-5.838-2.735l-0.268-0.147c-0.654-0.365-1.547-0.873-2.697-0.489
		c-1.572,0.526-3.127,2.655-4.895,6.692c-0.73,1.625-1.576,3.179-2.479,4.685"/>
	<path fill="#FFFFFF" d="M21.375,120.032c0-1.175,0.125-2.265,0.237-3.362c-1.619,0.866-3.479,1.465-5.302,2.035
		c-2.833,0.887-5.503,1.733-6.715,3.453c-0.549,1.831-0.847,3.891-0.847,5.977c0,6.786,3.128,12.519,6.83,12.519
		c0.391,0,0.784-0.094,1.156-0.243l0.44-0.223c0.281-0.167,0.542-0.358,0.744-0.595c0.295-0.35,0.621-0.932,0.491-1.729
		c-0.072-0.438-0.143-0.782-0.212-1.07c-0.147-0.612-0.286-0.939-0.404-1.211l-0.084-0.215l-0.125-0.363
		c-0.482-1.398-0.865-2.865-0.615-4.001c0.009-0.05,0.023-0.097,0.037-0.145c0.013-0.033,0.02-0.072,0.033-0.106
		c0.187-0.537,0.552-0.994,1.156-1.334c0.012-0.005,0.019-0.015,0.03-0.02c0.01-0.005,0.015-0.009,0.024-0.014l4.327-2.002
		c-0.768-2.28-1.14-4.279-1.192-6.546C21.378,120.567,21.375,120.301,21.375,120.032"/>
	<path fill="#FFFFFF" d="M18.249,129.385c-0.009,0.005-0.017,0.009-0.024,0.016c-0.012,0.005-0.021,0.013-0.03,0.018
		c-0.607,0.34-0.969,0.797-1.159,1.334c-0.011,0.034-0.019,0.07-0.031,0.108c-0.014,0.046-0.03,0.093-0.04,0.143
		c-0.248,1.136,0.136,2.603,0.616,4.001l0.127,0.363l0.083,0.215c0.12,0.271,0.258,0.599,0.405,1.211
		c0.07,0.285,0.141,0.631,0.21,1.07c0.131,0.801-0.194,1.384-0.489,1.729c-0.201,0.238-0.464,0.43-0.744,0.595l-0.442,0.223
		c-0.37,0.149-0.766,0.243-1.154,0.243c-3.704,0-6.832-5.731-6.832-12.517c0-2.088,0.299-4.146,0.847-5.979
		c1.214-1.72,3.882-2.566,6.717-3.453c1.822-0.57,3.683-1.172,5.302-2.035c-0.113,1.099-0.236,2.188-0.236,3.362
		c0,0.269,0,0.534,0.007,0.805c0.051,2.267,0.424,4.266,1.188,6.546L18.249,129.385z"/>
	<path fill="#FFFFFF" d="M19.723,138.897c0.083-0.407,0.111-0.827,0.04-1.255c-0.049-0.292-0.096-0.539-0.143-0.771
		c-0.208-0.994-0.412-1.475-0.568-1.835l-0.138-0.344c-0.695-2.016-0.768-2.978-0.574-3.505c0.119-0.384,0.353-0.493,0.5-0.563
		c0,0,0.017-0.007,0.021-0.01c0.005-0.005,0.012-0.01,0.016-0.012c0.042-0.021,0.076-0.032,0.11-0.046
		c0.218-0.094,0.37-0.073,0.473-0.034c0.335,0.126,1.021,0.682,1.867,3.009c0.134,0.347,0.281,0.685,0.419,1.024
		c0.311,0.768,0.636,1.521,0.976,2.271c0.067,0.15,0.136,0.3,0.204,0.451L19.723,138.897z"/>
	<path fill="#FFFFFF" d="M138.713,133.064c-0.193,0.502-0.654,1.596-0.861,2.091h0.002c-9.717,22.641-32.412,37.708-57.188,37.708
		c-24.162,0-46.346-14.335-56.446-36.062c-0.344-0.74-0.674-1.487-0.989-2.245c-0.209-0.499-0.419-0.999-0.616-1.506
		c-0.587-1.613-1.197-2.688-1.876-3.304c1.062-0.491,2.337-1.083,3.198-1.485c0.122-0.055,0.229-0.105,0.334-0.151
		c0.393-0.185,0.648-0.301,0.648-0.301l5.92-2.773l0.306-0.17c0.629-0.355,1.053-0.56,1.584-0.382
		c0.788,0.262,2.133,1.506,4.07,5.938c0.643,1.426,1.375,2.794,2.146,4.134c0.312,0.525,0.672,1.222,1.184,2.008
		c8.755,13.668,24.007,22.187,40.537,22.187c17.016,0,32.654-9.046,41.268-23.419l0.457-0.774c0.77-1.337,1.498-2.703,2.141-4.125
		c1.941-4.441,3.287-5.687,4.074-5.947c0.531-0.178,0.955,0.025,1.584,0.383l0.305,0.167c0,0.002,5.908,2.77,5.908,2.77l4.191,1.944
		C139.916,130.362,139.305,131.441,138.713,133.064"/>
	<path fill="#FFFFFF" d="M141.611,138.897c-0.084-0.407-0.109-0.827-0.041-1.255c0.049-0.292,0.096-0.539,0.143-0.771
		c0.209-0.994,0.414-1.475,0.57-1.835l0.139-0.344c0.693-2.016,0.766-2.978,0.568-3.505c-0.117-0.384-0.352-0.493-0.498-0.563
		c0,0-0.016-0.007-0.021-0.01c-0.006-0.005-0.012-0.01-0.016-0.012c-0.043-0.021-0.074-0.032-0.111-0.046
		c-0.217-0.094-0.369-0.073-0.473-0.034c-0.334,0.126-1.021,0.682-1.865,3.009c-0.135,0.347-0.281,0.685-0.42,1.024
		c-0.311,0.768-0.637,1.521-0.977,2.271c-0.066,0.15-0.135,0.3-0.203,0.451L141.611,138.897z"/>
	<path fill="#FFFFFF" d="M140.002,120.035c0-1.175-0.125-2.265-0.238-3.365c1.621,0.866,3.479,1.465,5.301,2.035
		c2.836,0.887,5.502,1.733,6.717,3.455c0.551,1.829,0.848,3.889,0.848,5.977c0,6.784-3.129,12.517-6.828,12.517
		c-0.391,0-0.787-0.094-1.156-0.241l-0.441-0.228c-0.281-0.162-0.543-0.354-0.744-0.592c-0.295-0.347-0.619-0.93-0.49-1.728
		c0.074-0.44,0.145-0.783,0.215-1.071c0.145-0.614,0.283-0.941,0.4-1.213l0.088-0.216l0.123-0.364
		c0.48-1.396,0.863-2.863,0.615-3.999c-0.008-0.048-0.025-0.097-0.037-0.143c-0.012-0.038-0.021-0.074-0.031-0.108
		c-0.189-0.537-0.553-0.991-1.158-1.334c-0.01-0.007-0.02-0.013-0.029-0.018c-0.01-0.004-0.016-0.011-0.023-0.014l-4.324-2.006
		c0.766-2.275,1.137-4.277,1.188-6.544C139.996,120.567,140.002,120.298,140.002,120.035"/>
	<path fill="#FFFFFF" d="M143.127,129.385c0.01,0.005,0.018,0.009,0.023,0.016c0.012,0.005,0.021,0.013,0.029,0.018
		c0.607,0.343,0.969,0.8,1.158,1.334c0.012,0.036,0.021,0.07,0.033,0.108c0.012,0.046,0.023,0.093,0.037,0.143
		c0.248,1.139-0.137,2.603-0.615,4.001l-0.127,0.363l-0.082,0.215c-0.121,0.271-0.26,0.599-0.404,1.211
		c-0.07,0.288-0.141,0.633-0.213,1.07c-0.131,0.801,0.195,1.384,0.49,1.729c0.201,0.238,0.463,0.43,0.742,0.595l0.441,0.223
		c0.371,0.149,0.768,0.243,1.154,0.243c3.703,0,6.832-5.731,6.832-12.517c0-2.088-0.299-4.146-0.848-5.977
		c-1.215-1.722-3.883-2.568-6.717-3.455c-1.822-0.57-3.684-1.169-5.303-2.035c0.113,1.099,0.238,2.188,0.238,3.363
		c0,0.268-0.004,0.533-0.008,0.804c-0.053,2.27-0.424,4.266-1.189,6.546L143.127,129.385z"/>
	<path fill="#005DAA" d="M135.07,12.252H25.573v65.099c0,11.27,2.348,27.996,13.526,43.708c6.521,9.16,11.698,14.657,19.11,20.275
		c7.458,5.656,16.551,9.994,22.25,11.779l0.207,0.066l0.206-0.066c5.7-1.785,14.792-6.125,22.251-11.779
		c7.408-5.616,12.59-11.113,19.107-20.275c11.182-15.712,13.527-32.438,13.527-43.708V12.252H135.07z"/>
	<path fill="#FFFFFF" d="M80.665,13.628h53.714v63.723c0,11.067-2.303,27.498-13.268,42.913
		c-6.518,9.153-11.441,14.378-18.82,19.977c-7.244,5.492-16.029,9.703-21.626,11.492c-5.599-1.789-14.381-6-21.625-11.492
		c-7.383-5.601-12.306-10.827-18.82-19.977c-10.968-15.415-13.271-31.846-13.271-42.913V13.628H80.665z"/>
	<path fill="#005DAA" d="M117.924,21.987c-1.469-1.317-3.336-2.059-5.32-2.059c-1.98,0-3.848,0.74-5.32,2.059
		c-1.469-1.312-3.334-2.056-5.318-2.056c-1.986,0-3.854,0.743-5.322,2.056c-1.469-1.312-3.338-2.056-5.32-2.056
		s-3.852,0.743-5.32,2.056c-1.471-1.312-3.342-2.056-5.323-2.056c-1.984,0-3.851,0.743-5.32,2.056
		c-1.473-1.312-3.339-2.056-5.321-2.056c-1.985,0-3.853,0.743-5.322,2.056c-1.469-1.312-3.336-2.056-5.32-2.056
		c-1.984,0-3.853,0.743-5.322,2.056c-1.469-1.317-3.337-2.059-5.32-2.059c-1.982,0-3.851,0.74-5.32,2.059
		c-1.47-1.317-3.339-2.059-5.323-2.059c-1.324,0-2.575,0.306-3.717,0.907l-0.099,0.053l-0.051,0.098
		c-0.613,1.141-0.924,2.386-0.924,3.699c0,1.962,0.742,3.81,2.054,5.264c-1.313,1.455-2.054,3.305-2.054,5.265
		c0,1.962,0.742,3.811,2.057,5.266c-1.315,1.453-2.057,3.302-2.057,5.266c0,1.963,0.742,3.809,2.057,5.264
		c-1.315,1.456-2.057,3.304-2.057,5.267c0,1.961,0.742,3.81,2.057,5.266c-1.315,1.453-2.057,3.301-2.057,5.264
		c0,1.965,0.742,3.815,2.057,5.271c-1.289,1.447-2.012,3.272-2.012,5.211c0,0.024,0,0.049,0,0.07
		c0.016,1.983,0.784,3.847,2.139,5.296c-0.856,1.302-1.341,2.778-1.341,4.311c0,0.411,0.033,0.822,0.099,1.235
		c0.31,1.955,1.341,3.682,2.888,4.914c-0.515,1.076-0.805,2.222-0.805,3.387c0,0.764,0.112,1.53,0.337,2.277
		c0.574,1.901,1.837,3.477,3.545,4.49c-0.192,0.698-0.328,1.407-0.328,2.117c0,1.218,0.285,2.429,0.849,3.544
		c0.895,1.767,2.406,3.092,4.254,3.791c-0.022,0.232-0.042,0.468-0.042,0.699c0,1.727,0.561,3.396,1.624,4.78
		c1.198,1.56,2.911,2.573,4.833,2.928c-0.002,0.106-0.012,0.213-0.012,0.317c0,1.852,0.641,3.626,1.839,5.055
		c1.275,1.521,3.053,2.468,5.021,2.728c0.364,1.952,1.404,3.677,2.99,4.869c1.58,1.184,3.514,1.716,5.474,1.531
		c0.538,1.892,1.718,3.502,3.389,4.542c1.666,1.04,3.626,1.385,5.559,1.037c0.538,1.885,1.715,3.49,3.38,4.53l1.65,0.808
		l0.087-0.078l1.514-0.729c1.666-1.04,2.844-2.647,3.385-4.53c1.932,0.348,3.891,0,5.557-1.037c1.672-1.037,2.85-2.65,3.391-4.542
		c1.961,0.185,3.895-0.349,5.477-1.531c1.584-1.192,2.625-2.917,2.986-4.869c1.969-0.26,3.748-1.208,5.021-2.728
		c1.195-1.429,1.84-3.201,1.84-5.055c0-0.104-0.01-0.211-0.012-0.317c1.924-0.354,3.635-1.368,4.832-2.924
		c1.062-1.388,1.627-3.056,1.627-4.787c0-0.23-0.023-0.467-0.043-0.696c1.848-0.699,3.357-2.024,4.252-3.791
		c0.564-1.115,0.852-2.323,0.852-3.544c0-0.71-0.135-1.419-0.33-2.117c1.709-1.015,2.973-2.587,3.545-4.49
		c0.229-0.747,0.338-1.515,0.338-2.277c0-1.162-0.287-2.311-0.803-3.387c1.545-1.232,2.576-2.959,2.885-4.914
		c0.064-0.411,0.1-0.822,0.1-1.233c0-1.53-0.482-3.009-1.338-4.312c1.352-1.449,2.119-3.312,2.137-5.296v-0.072
		c0-1.937-0.725-3.762-2.014-5.21c1.312-1.455,2.057-3.304,2.057-5.271c0-1.963-0.74-3.811-2.055-5.264
		c1.314-1.453,2.055-3.303,2.055-5.266c0-1.965-0.74-3.812-2.055-5.267c1.314-1.453,2.055-3.301,2.055-5.264
		c0-1.964-0.74-3.812-2.055-5.266c1.314-1.453,2.055-3.301,2.055-5.266c0-1.963-0.74-3.812-2.055-5.265
		c1.314-1.452,2.055-3.302,2.055-5.264c0-1.315-0.312-2.562-0.926-3.699l-0.051-0.098l-0.1-0.053
		c-1.143-0.602-2.393-0.907-3.717-0.907C121.262,19.929,119.395,20.669,117.924,21.987"/>
	<path fill="#FFFFFF" d="M69.738,76.439c-0.248,0.291-0.31,0.791-0.382,1.125c-0.122,0.566,0.215,1.576-0.431,2.48
		c-0.697,0.972-2.539-1.16-2.913,0.215c-0.309,1.143,0.978,3.368-0.322,3.992c-1.236,0.589-2.211,1.186-2.158,2.426
		c-0.161,0.268-0.487,0.053-0.648-0.055c-0.646-0.486-0.982-1.24-0.753-1.834c0.229-0.593,1.635-0.975,1.13-2.049
		c-0.796-1.691-1.158-3.459-0.969-4.205c0.054-0.221,0.605-0.082,1.804,0.195c0.749,0.174,1.752,0.549,1.755-0.089
		c0.004-1.615,0.431-3.181,1.132-3.665c0.397-0.275,0.674-0.432,1.002-0.347L69.738,76.439"/>
	<path fill="#FFFFFF" d="M91.639,76.446c0.25,0.29,0.311,0.79,0.381,1.124c0.121,0.566-0.215,1.578,0.432,2.48
		c0.697,0.969,2.539-1.162,2.916,0.215c0.311,1.143-0.979,3.368,0.32,3.989c1.236,0.592,2.215,1.188,2.156,2.429
		c0.162,0.271,0.488,0.053,0.652-0.055c0.645-0.486,0.979-1.24,0.752-1.834c-0.229-0.596-1.637-0.977-1.135-2.05
		c0.795-1.69,1.162-3.459,0.971-4.204c-0.055-0.221-0.605-0.08-1.801,0.195c-0.75,0.175-1.754,0.546-1.756-0.089
		c-0.002-1.615-0.432-3.181-1.133-3.667c-0.396-0.275-0.678-0.438-1.01-0.354L91.639,76.446"/>
	<path fill="#FFFFFF" d="M80.681,60.857c-4.757,0-8.82,1.161-10.086,2.379c-0.143-0.599-0.348-1.528-0.51-2.096
		c-0.264-0.937-0.18-0.77-0.412-1.428c0.917-1.341,4.036-2.391,6.06-2.645c0.272-0.055,0.634-0.104,0.919-0.14
		c-0.011-1.412-0.011-13.688-1.987-22.318c-0.268-1.081-1.003-0.862-1.663-0.093c-2.688,2.326-4.407,4.117-6.445,6.562
		c0,0-0.73,0.698-0.484,1.088c0.107,0.171,0.647-0.333,0.812-0.578c1.942-2.319,3.979-3.918,6.532-6.099
		c1.342,3.443,2.119,16.579,2.36,20.369c-0.201,0.037-0.339,0.037-0.882,0.119c-2.019,0.384-4.617,1.259-5.669,2.497
		c-1.848-5.724-3.234-9.308-6.402-14.59c-0.514-0.861-0.741-1.725-0.269-2.696c2.264-3.992,9.642-11.634,18.125-15.854
		c8.486,4.22,15.863,11.861,18.126,15.854c0.473,0.972,0.246,1.835-0.27,2.696c-3.168,5.283-4.551,8.867-6.4,14.59
		c-1.053-1.238-3.65-2.113-5.668-2.497c-0.545-0.082-0.715-0.082-0.883-0.119c0.24-3.79,1.018-16.925,2.361-20.369
		c2.551,2.181,4.59,3.779,6.531,6.099c0.164,0.245,0.703,0.75,0.812,0.578c0.246-0.39-0.484-1.088-0.484-1.088
		c-2.037-2.444-3.754-4.236-6.445-6.562c-0.662-0.77-1.395-0.987-1.664,0.093c-1.975,8.63-1.975,20.891-2.004,22.318
		c0.252,0.019,0.646,0.085,0.922,0.14c2.021,0.254,5.16,1.304,6.074,2.645c-0.232,0.658-0.146,0.491-0.41,1.428
		c-0.162,0.566-0.367,1.497-0.512,2.096C89.502,62.018,85.439,60.857,80.681,60.857"/>
	<path fill="#FFFFFF" d="M85.457,67.177c-1.426,0.178-3.178,0.399-4.77,0.399c-1.821,0-2.569-0.109-3.136-0.208
		c-0.505-0.073-0.978-0.107-1.659-0.23c-0.465-0.107-0.384,0.121-0.829,0.578c-0.444,0.459-0.116,1.807-0.322,2.429
		c-0.2,0.592-0.352,0.679-0.648,0.82l-2.166-2.159c-0.103-0.841-0.185-1.851,0.5-2.486c-0.505-0.222-0.944-0.423-1.144-0.729
		c-0.283-0.237-0.316-0.494-0.354-0.701c0.274-1.364,2.221-1.632,4.523-2.2c2.426-0.602,8.925-0.706,12.474,0.435
		c-1.896,0.442-4.234,0.58-6.58,0.597c-0.289,0.007-0.458,0.904-0.156,0.893c1.383,0.08,6.664-0.256,8.203-0.932
		c0.396,0.145,0.229,0.066,0.691,0.51c-0.41,0.546-2.094,0.836-4.062,1.093c-1.711,0.229-4.703,0.379-7.493,0.232
		c0,0-0.409-0.007-0.73-0.037c-0.594-0.048-0.435,0.464-0.435,0.464c0,0.58,0.377,0.459,1.272,0.53
		c4.435,0.119,5.88-0.021,8.642-0.413c1.832-0.261,2.604-0.604,3.16-1.033c-0.057,0.322-0.285,0.418-0.279,0.534
		c-0.309,0.288-0.66,0.516-1.258,0.745c0.688,0.631,0.643,1.796,0.541,2.637l-2.17,2.161c-0.295-0.142-0.488-0.384-0.686-0.978
		c-0.207-0.621,0.121-1.967-0.322-2.427C85.822,67.242,85.895,67.126,85.457,67.177"/>
	<polygon fill="#FFFFFF" points="60.036,67.54 58.315,69.251 56.053,66.941 53.919,69.034 56.183,71.344 54.48,73.01 52.216,70.702 
		50.084,72.792 52.349,75.105 50.617,76.8 45.608,71.695 48.987,68.385 50.376,69.804 53.058,67.177 51.664,65.758 53.928,63.537 
		51.827,61.421 49.577,63.628 48.184,62.209 45.505,64.837 46.898,66.256 43.52,69.566 38.511,64.46 40.18,62.821 42.446,65.132 
		44.567,63.05 42.303,60.74 44.139,58.94 46.418,61.238 48.538,59.156 46.271,56.849 47.943,55.209 	"/>
	<path fill="#FFFFFF" d="M85.178,81.493l9.979-10.178c0.904,0.089,1.672-0.411,2.328-1.058c0.754-0.74,1.133-1.138,1.133-1.138
		l-0.643-0.639l2.404-2.449l12.102-12.304l1.496-1.531c-0.885-0.887,0.262-1.314,1.016-1.517c0.404-0.094,0.785-0.312,1.098-0.631
		c0.881-0.891,0.867-2.328-0.027-3.208c-0.891-0.877-2.328-0.866-3.209,0.03c-0.283,0.29-0.473,0.642-0.568,1.012
		c-0.188,0.759-0.656,1.983-1.557,1.115L94.723,65.294c-0.432-0.431-0.639-0.617-0.639-0.617s-0.795,0.825-1.113,1.149
		c-0.637,0.646-1.119,1.423-1.027,2.308l-9.932,10.124L85.178,81.493"/>
	<path fill="#FFFFFF" d="M79.516,87.21l-2.097,2.143c0.112,0.907-0.172,1.893-0.824,2.552c-0.645,0.658-1.656,0.979-2.559,0.888
		l-3.561,3.617c0.112,0.906-0.176,1.979-0.828,2.644c-0.558-1.04-1.271-1.999-2.156-2.872c-0.835-0.818-1.785-1.485-2.769-2.011
		c0.641-0.653,1.496-0.911,2.391-0.827c1.782-1.814,1.644-1.651,3.767-3.809c-0.094-0.888,0.188-1.791,0.821-2.438
		c0.641-0.654,1.527-0.931,2.421-0.848c0,0,2.226-2.259,2.209-2.273C76.317,83.961,79.516,87.21,79.516,87.21"/>
	<polygon fill="#FFFFFF" points="101.547,67.54 103.266,69.251 105.531,66.941 107.662,69.034 105.396,71.344 107.1,73.01 
		109.367,70.702 111.496,72.792 109.232,75.105 110.965,76.8 115.973,71.695 112.596,68.385 111.203,69.804 108.525,67.177 
		109.918,65.758 107.654,63.537 109.756,61.421 112.008,63.628 113.398,62.209 116.076,64.837 114.684,66.256 118.062,69.566 
		123.072,64.46 121.402,62.821 119.135,65.132 117.014,63.05 119.281,60.74 117.441,58.94 115.166,61.238 113.045,59.156 
		115.309,56.849 113.637,55.209 	"/>
	<path fill="#FFFFFF" d="M51.457,107.629c-0.025-0.082-0.067-0.184-0.131-0.247c-0.077-0.08-0.173-0.118-0.271-0.145l-3.094-0.716
		c-1.485-0.34-2.436-0.865-2.431-1.453c0.005-0.584,0.953-1.092,2.419-1.408l2.946-0.643c0.144,0,0.306-0.053,0.418-0.165
		c0.084-0.082,0.159-0.217,0.181-0.324c0.371-0.979,0.966-1.919,1.759-2.702c0.781-0.767,1.661-1.364,2.786-1.704
		c0.083-0.025,0.159-0.073,0.225-0.136c0.079-0.077,0.119-0.174,0.145-0.27l0.713-3.097c0.342-1.484,0.864-2.438,1.453-2.432
		c0.583,0.005,1.09,0.953,1.411,2.417l0.641,2.945c0,0.147,0.056,0.309,0.167,0.423c0.081,0.082,0.199,0.146,0.304,0.167
		c0.992,0.37,1.93,0.969,2.721,1.772c0.791,0.805,1.357,1.767,1.71,2.763c0.025,0.082,0.065,0.183,0.13,0.247
		c0.078,0.077,0.174,0.121,0.272,0.146l3.093,0.713c1.486,0.344,2.436,0.866,2.433,1.453c-0.007,0.585-0.954,1.091-2.418,1.41
		l-2.949,0.643c-0.145-0.002-0.306,0.055-0.418,0.167c-0.084,0.08-0.147,0.191-0.171,0.297c-0.367,1.001-0.959,1.934-1.769,2.729
		c-0.812,0.797-1.768,1.361-2.775,1.713c-0.082,0.028-0.171,0.063-0.236,0.128c-0.077,0.078-0.119,0.173-0.143,0.271l-0.716,3.093
		c-0.342,1.485-0.865,2.438-1.452,2.433c-0.585-0.006-1.091-0.953-1.411-2.421l-0.641-2.944c0-0.146-0.057-0.307-0.167-0.42
		c-0.082-0.085-0.197-0.148-0.304-0.169c-0.989-0.37-1.931-0.968-2.721-1.771C52.377,109.589,51.808,108.627,51.457,107.629"/>
	<path fill="#FFFFFF" d="M50.597,102.031c0.4-1.044,1.018-1.987,1.875-2.83c0.86-0.849,1.851-1.516,3.05-2.026l0.653-2.93
		c-2.281,0.447-4.015,1.46-5.518,2.938c-1.509,1.487-2.503,3.007-3.079,5.504L50.597,102.031"/>
	<path fill="#FFFFFF" d="M55.38,113.058c-1.046-0.396-1.991-1.013-2.839-1.867c-0.849-0.857-1.516-1.846-2.032-3.043l-2.933-0.645
		c0.455,2.28,1.473,4.01,2.958,5.511c1.486,1.502,3.012,2.493,5.51,3.06L55.38,113.058"/>
	<path fill="#FFFFFF" d="M66.378,108.275c-0.397,1.047-1.014,1.992-1.868,2.835c-0.858,0.852-1.845,1.521-3.043,2.034l-0.646,2.935
		c2.279-0.455,4.007-1.473,5.507-2.957c1.507-1.484,2.496-3.012,3.065-5.51L66.378,108.275"/>
	<path fill="#FFFFFF" d="M61.616,97.282c1.049,0.394,1.993,1.009,2.84,1.859c0.852,0.857,1.524,1.842,2.045,3.037l2.932,0.64
		c-0.46-2.279-1.483-4.008-2.972-5.504c-1.49-1.499-3.017-2.485-5.517-3.048L61.616,97.282"/>
	<path fill="#FFFFFF" d="M61.203,66.034l2.402,2.448l-0.638,0.639c0,0,0.377,0.395,1.131,1.138c0.657,0.647,1.427,1.148,2.327,1.058
		l17.737,18.038c-0.109,0.905,0.174,1.891,0.824,2.553c0.646,0.655,1.656,0.977,2.561,0.885l3.531,3.648
		c-0.111,0.907,0.174,1.979,0.824,2.645c0.559-1.042,1.271-2.002,2.156-2.872c0.836-0.82,1.787-1.485,2.77-2.015
		c-0.641-0.649-1.496-0.908-2.391-0.823c-1.781-1.814-1.611-1.685-3.736-3.841c0.094-0.885-0.186-1.795-0.82-2.438
		c-0.641-0.651-1.527-0.931-2.418-0.848L69.639,68.134c0.092-0.887-0.395-1.663-1.027-2.308c-0.32-0.327-1.116-1.149-1.116-1.149
		s-0.201,0.188-0.639,0.617l-16-16.291c-0.903,0.868-1.369-0.358-1.558-1.117c-0.098-0.368-0.283-0.722-0.571-1.015
		c-0.879-0.895-2.313-0.904-3.208-0.025c-0.894,0.878-0.905,2.315-0.028,3.208c0.311,0.315,0.695,0.532,1.097,0.629
		c0.756,0.198,1.9,0.63,1.016,1.518l1.5,1.532L61.203,66.034"/>
	<path fill="#FFFFFF" d="M95.852,107.629c-0.023-0.082-0.066-0.184-0.129-0.247c-0.078-0.08-0.174-0.118-0.271-0.145l-3.09-0.716
		c-1.488-0.34-2.439-0.865-2.434-1.453c0.004-0.584,0.951-1.092,2.418-1.408l2.945-0.643c0.145,0,0.309-0.053,0.42-0.165
		c0.082-0.082,0.158-0.217,0.178-0.324c0.373-0.979,0.967-1.919,1.76-2.702c0.781-0.767,1.66-1.364,2.785-1.704
		c0.084-0.025,0.16-0.073,0.227-0.136c0.076-0.077,0.121-0.174,0.146-0.27l0.713-3.097c0.346-1.484,0.865-2.438,1.455-2.432
		c0.582,0.005,1.088,0.953,1.408,2.417l0.641,2.945c0,0.147,0.059,0.309,0.166,0.423c0.082,0.082,0.197,0.146,0.305,0.167
		c0.992,0.37,1.932,0.969,2.723,1.772c0.793,0.805,1.357,1.767,1.713,2.763c0.025,0.082,0.064,0.183,0.129,0.247
		c0.076,0.077,0.17,0.121,0.271,0.146l3.094,0.713c1.484,0.344,2.438,0.866,2.43,1.453c-0.006,0.585-0.951,1.091-2.416,1.41
		l-2.947,0.643c-0.148-0.002-0.309,0.055-0.42,0.167c-0.084,0.08-0.146,0.191-0.17,0.297c-0.367,1.001-0.959,1.934-1.77,2.729
		c-0.812,0.797-1.77,1.361-2.775,1.713c-0.082,0.028-0.17,0.063-0.236,0.128c-0.076,0.078-0.117,0.173-0.145,0.271l-0.713,3.093
		c-0.344,1.485-0.867,2.438-1.453,2.433c-0.584-0.006-1.092-0.953-1.412-2.421l-0.641-2.944c0-0.146-0.055-0.307-0.166-0.42
		c-0.082-0.085-0.197-0.148-0.305-0.169c-0.988-0.37-1.934-0.968-2.725-1.771C96.771,109.589,96.203,108.627,95.852,107.629"/>
	<path fill="#FFFFFF" d="M94.992,102.031c0.398-1.044,1.018-1.987,1.875-2.83c0.861-0.849,1.852-1.516,3.051-2.026l0.65-2.93
		c-2.279,0.447-4.01,1.46-5.514,2.938c-1.512,1.487-2.504,3.007-3.082,5.504L94.992,102.031"/>
	<path fill="#FFFFFF" d="M99.775,113.058c-1.047-0.396-1.99-1.013-2.836-1.867c-0.852-0.857-1.52-1.846-2.035-3.043l-2.932-0.645
		c0.457,2.28,1.473,4.01,2.957,5.511c1.488,1.502,3.012,2.493,5.508,3.06L99.775,113.058"/>
	<path fill="#FFFFFF" d="M110.773,108.275c-0.396,1.047-1.014,1.992-1.869,2.835c-0.855,0.852-1.844,1.521-3.041,2.034l-0.646,2.935
		c2.281-0.455,4.008-1.473,5.51-2.957c1.504-1.484,2.494-3.012,3.064-5.51L110.773,108.275"/>
	<path fill="#FFFFFF" d="M106.01,97.282c1.049,0.394,1.996,1.009,2.844,1.859c0.852,0.857,1.521,1.842,2.041,3.037l2.936,0.64
		c-0.465-2.279-1.486-4.008-2.971-5.504c-1.494-1.499-3.02-2.485-5.518-3.048L106.01,97.282"/>
	<polygon fill="#005DAA" points="54.432,164.171 60.644,167.07 61.395,165.462 60.672,165.124 60.289,165.943 57.36,164.577 
		58.704,161.69 61.113,162.814 60.719,163.654 61.442,163.992 62.471,161.783 61.751,161.445 61.388,162.222 58.981,161.1 
		60.104,158.694 62.86,159.979 62.486,160.775 63.209,161.113 63.948,159.525 57.909,156.713 57.606,157.369 58.49,157.781 
		55.623,163.929 54.739,163.515 	"/>
	<path fill="#005DAA" d="M72.956,165.66c0.419-2.156-0.879-4.46-3.567-4.982c-2.688-0.521-4.754,1.131-5.173,3.285
		c-0.422,2.157,0.877,4.462,3.565,4.982C70.471,169.47,72.538,167.817,72.956,165.66 M70.895,165.261
		c-0.616,3.164-2.244,3.268-3.005,3.116c-0.757-0.145-2.229-0.851-1.616-4.016c0.616-3.161,2.246-3.263,3.004-3.112
		C70.036,161.395,71.511,162.099,70.895,165.261"/>
	<polygon fill="#005DAA" points="78.064,170.448 84.91,170.091 84.816,168.32 84.021,168.363 84.068,169.266 80.839,169.435 
		80.671,166.252 83.324,166.115 83.371,167.043 84.17,167.002 84.039,164.566 83.244,164.608 83.289,165.464 80.635,165.604 
		80.499,162.951 83.535,162.793 83.582,163.673 84.377,163.629 84.285,161.882 77.634,162.232 77.671,162.955 78.646,162.902 
		79.003,169.677 78.027,169.728 	"/>
	<polygon fill="#005DAA" points="89.326,169.702 93.07,169.042 92.947,168.331 91.982,168.498 90.83,161.961 92.861,161.605 
		93.027,162.53 93.809,162.394 93.496,160.607 86.043,161.925 86.359,163.705 87.143,163.57 86.98,162.643 89.01,162.283 
		90.164,168.82 89.203,168.987 	"/>
	<path fill="#005DAA" d="M104.123,159.391c-0.672-1.51-2.312-1.81-4.021-1.051l-3.195,1.424l0.293,0.662l0.895-0.397l2.758,6.194
		l-0.895,0.397l0.295,0.661l3.637-1.621l-0.293-0.657l-1.061,0.468l-0.936-2.104l0.615-0.276
		C103.895,162.343,104.807,160.922,104.123,159.391 M102.463,160.195c0.391,0.883,0.289,1.869-0.76,2.333l-0.396,0.177l-1.527-3.429
		l0.332-0.147C101.139,158.674,102.006,159.169,102.463,160.195"/>
	<path fill="#005DAA" d="M37.5,139.337h1c-0.129-0.287-0.3-0.592-0.513-0.884l-2.168-2.986l-0.587,0.425l0.576,0.791l-3.657,2.654
		l-1.833,1.332l-0.574-0.79l-0.587,0.425l2.237,3.075l0.585-0.427l-0.574-0.791l2.029-1.477l0.072,0.099
		c0.147,0.205,0,0.493-0.275,1.143l-0.611,1.396c-0.478,1.107-0.453,1.286,0.107,2.057c0.248,0.343,0.658,0.807,0.822,0.969
		l0.587-0.425c-0.067-0.073-0.132-0.145-0.189-0.219c-0.244-0.334-0.154-0.562,0.047-1.063l0.895-2.321
		c0.704,0.515,1.787,0.979,2.854,0.208c1.06-0.771,1.241-1.989,0.759-3.167L37.5,139.337c0.118,0.661-0.215,1.238-0.815,1.678
		c-0.821,0.592-1.75,0.628-2.504-0.409l-0.217-0.302l1.329-0.967l1.601-1.162l0.219,0.304
		C37.328,138.777,37.453,139.066,37.5,139.337"/>
	<path fill="#005DAA" d="M48.457,159.9l-0.396-0.234l2.869-4.771l0.626-1.044l0.321,0.191c0.424,0.259,0.756,0.539,1.001,0.844
		l1.352,0.009c-0.348-0.391-0.792-0.759-1.329-1.081l-3.393-2.038l-0.374,0.622l0.837,0.505l-1.198,1.992l-2.295,3.82l-0.837-0.505
		l-0.373,0.619l3.393,2.04c2.337,1.404,4.639,0.764,5.863-1.277c0.995-1.651,0.885-3.353-0.295-4.692l-1.352-0.005
		c0.8,0.987,0.675,2.236-0.171,3.646C51.925,159.848,50.483,161.12,48.457,159.9"/>
	<path fill="#005DAA" d="M115.096,159.608l-0.361-0.629l-0.691,0.397l-6.105-4.484l-0.498-0.366l-0.637,0.366l-0.428,0.249
		l1.076,8.047l-0.576,0.331l0.363,0.626l2.068-1.193l-0.361-0.628l-0.809,0.463l-0.199-1.581l3.08-1.777l1.305,0.948l-0.814,0.471
		l0.361,0.626L115.096,159.608z M110.396,158.95l-2.57,1.484l-0.531-3.817L110.396,158.95"/>
	<polygon fill="#005DAA" points="119.68,155.49 119.207,154.944 118.469,155.585 117.867,154.893 114.115,150.576 115.67,149.222 
		116.289,149.935 116.889,149.411 115.701,148.045 109.992,153.007 111.182,154.376 111.783,153.853 111.164,153.142 
		112.721,151.787 115.42,154.893 117.076,156.8 116.338,157.438 116.812,157.986 	"/>
	<path fill="#005DAA" d="M44.045,146.06c-1.834-2.034-4.478-1.961-6.109-0.491c-1.633,1.475-1.983,4.093-0.152,6.127
		c1.834,2.036,4.478,1.961,6.112,0.492C45.526,150.718,45.877,148.095,44.045,146.06 M42.49,150.627
		c-2.394,2.153-3.758,1.256-4.275,0.683c-0.517-0.576-1.268-2.021,1.125-4.181c2.396-2.157,3.757-1.255,4.275-0.685
		C44.132,147.022,44.885,148.472,42.49,150.627"/>
	<path fill="#005DAA" d="M127.543,146.786l-0.562-0.457c-0.051,0.082-0.104,0.166-0.162,0.241c-0.258,0.317-0.5,0.292-1.041,0.229
		l-2.475-0.266c0.318-0.813,0.49-1.98-0.535-2.809c-1.283-1.04-2.896-0.546-3.996,0.815l-2.324,2.867l0.561,0.456l0.615-0.761
		l5.271,4.271l-0.613,0.761l0.562,0.452l2.393-2.954l-0.564-0.454l-0.615,0.758l-1.951-1.578l0.078-0.094
		c0.158-0.197,0.477-0.126,1.172-0.027l1.51,0.227c1.191,0.176,1.357,0.104,1.959-0.638
		C127.088,147.503,127.43,146.987,127.543,146.786 M121.836,147.661l-0.238,0.29l-2.812-2.28l0.236-0.29
		c0.791-0.977,1.74-0.902,2.557-0.242C122.367,145.775,122.639,146.667,121.836,147.661"/>
	<polygon fill="#005DAA" points="130.957,141.942 130.363,141.528 129.801,142.328 125.535,139.337 124.246,138.438 
		124.809,137.638 124.217,137.222 122.73,139.337 122.035,140.333 122.627,140.752 123.186,139.948 128.742,143.841 
		128.182,144.643 128.775,145.056 	"/>
	<path fill="#005DAA" d="M136.502,132.339l-0.627-0.361l-0.4,0.69l-8.146-0.9l-0.613,1.064l4.953,6.43l-0.043,0.078l-0.287,0.495
		l0.625,0.362l0.496-0.857l0.701-1.211l-0.627-0.361l-0.469,0.805l-0.965-1.271l1.779-3.082l1.602,0.171l-0.471,0.815l0.625,0.36
		L136.502,132.339z M132.102,134.119l-1.482,2.571l-2.371-3.043L132.102,134.119"/>
	<path fill="#005DAA" d="M33.888,131.519l-1.693-3.062l-0.634,0.352l0.472,0.854l-5.93,3.287l-0.476-0.856l-0.631,0.353l1.931,3.484
		l0.631-0.353l-0.562-1.013l2.017-1.12l0.328,0.593c0.891,1.605,2.387,2.391,3.854,1.576
		C34.64,134.812,34.796,133.15,33.888,131.519 M33.104,131.592c0.545,0.981,0.125,1.895-0.858,2.436
		c-0.845,0.47-1.832,0.45-2.391-0.551l-0.209-0.379l3.283-1.821L33.104,131.592"/>
	<polygon fill="#005DAA" points="58.477,98.291 57.459,99.975 57.446,101.716 55.031,101.716 55.035,104.156 53.302,104.167 
		51.603,105.152 53.286,106.164 55.035,106.176 55.026,108.579 57.459,108.57 57.459,110.359 58.447,112.062 59.462,110.377 
		59.46,108.567 61.891,108.584 61.891,106.146 63.674,106.15 65.373,105.148 63.69,104.133 61.891,104.145 61.898,101.721 
		59.467,101.716 59.462,99.99 	"/>
	<polygon fill="#005DAA" points="102.873,98.291 101.859,99.975 101.844,101.716 99.428,101.716 99.432,104.156 97.699,104.167 
		96,105.152 97.684,106.164 99.432,106.176 99.422,108.579 101.855,108.57 101.859,110.359 102.842,112.062 103.861,110.377 
		103.855,108.567 106.289,108.584 106.287,106.146 108.07,106.15 109.77,105.148 108.086,104.133 106.287,104.145 106.293,101.721 
		103.863,101.716 103.861,99.99 	"/>
</g>
</svg>
