<svg xmlns="http://www.w3.org/2000/svg" width="236.7" height="233.3" viewBox="-37.7 -23.4 236.7 233.3"><path fill="#FFF" d="M-37.7-23.4H199v233.3H-37.7z"/><path fill="#005DAA" d="M120.3 135.4a46.8 46.8 0 0 1-78.5 1.1l-1.3-2c-.9-1.5-1.7-3-2.4-4.6-1.8-4-3.4-6.2-5-6.7-1-.4-2 .1-2.6.5l-.3.1-5.8 2.8-.6.2c-.7-2-1-4-1-6 0-1.9 0-3.6.3-5.3L22 115c-1.7 1.1-4 1.8-6.1 2.5-3.1 1-6 1.9-7.5 4v.2c-.7 2-1 4.3-1 6.5 0 7.7 3.7 14 8.2 14 .5 0 1.1-.2 1.6-.4l.8-.4 5.5-2.8a64 64 0 0 0 57.2 35.7 64 64 0 0 0 57.1-35.7l5.6 2.8.7.4c.5.2 1 .3 1.7.3 4.5 0 8.2-6.2 8.2-13.9 0-2.2-.4-4.5-1-6.5v-.1c-1.5-2.2-4.5-3.1-7.6-4.1-2.1-.7-4.4-1.4-6-2.5l-1.1.6c.2 1.7.3 3.5.3 5.3 0 2.3-.4 4-1 6l-.6-.3-5.9-2.7-.2-.1c-.7-.4-1.6-1-2.7-.5-1.6.5-3.2 2.6-5 6.7a45 45 0 0 1-2.4 4.7"/><path fill="#FFF" d="M21.4 120l.2-3.3c-1.6.8-3.5 1.4-5.3 2-2.8.9-5.5 1.7-6.7 3.5a21 21 0 0 0-.9 6c0 6.7 3.2 12.5 6.9 12.5.4 0 .8-.1 1.1-.3l.5-.2.7-.6c.3-.4.6-1 .5-1.7a15 15 0 0 0-.6-2.3v-.2l-.2-.4a8 8 0 0 1-.6-4v-.1-.1c.2-.6.6-1 1.2-1.4l4.4-2a21.1 21.1 0 0 1-1.2-7.4"/><path fill="#FFF" d="M18.2 129.4c-.6.4-1 .8-1.2 1.4v.2c-.3 1.1.1 2.6.6 4l.1.4v.2l.5 1.2.2 1a2 2 0 0 1-.5 1.8l-.7.6-.5.2c-.3.2-.7.3-1.1.3-3.7 0-6.9-5.8-6.9-12.6 0-2 .3-4.1.9-6 1.2-1.7 3.9-2.5 6.7-3.4 1.8-.6 3.7-1.2 5.3-2l-.2 3.3v.8c0 2.3.4 4.3 1.2 6.6l-4.4 2z"/><path fill="#FFF" d="M19.7 138.9v-1.3a22.8 22.8 0 0 0-.6-2.6l-.2-.3c-.7-2-.8-3-.6-3.5.2-.4.4-.5.5-.6h.7c.3 0 1 .6 1.8 3l.4 1 1 2.2.2.5-3.2 1.6zM138.7 133l-.8 2.2a62.6 62.6 0 0 1-57.2 37.7 62.6 62.6 0 0 1-57.5-38.3l-.6-1.6a8.3 8.3 0 0 0-1.9-3.3l3.2-1.4.4-.2.6-.3 6-2.8.2-.1c.7-.4 1.1-.6 1.6-.4.8.2 2.2 1.5 4.1 6l2.1 4 1.2 2a48.2 48.2 0 0 0 81.8-1.2l.5-.7c.8-1.4 1.5-2.7 2.1-4.2 2-4.4 3.3-5.7 4.1-6 .5 0 1 .1 1.6.5l.3.1 5.9 2.8 4.2 2c-.7.6-1.3 1.6-1.9 3.3M141.6 138.9v-1.3a22.8 22.8 0 0 1 .7-2.6l.1-.3c.7-2 .8-3 .6-3.5-.1-.4-.4-.5-.5-.6h-.2c-.2-.1-.3-.1-.4 0-.4 0-1 .6-1.9 3l-.4 1-1 2.2-.2.5 3.2 1.6z"/><path fill="#FFF" d="M140 120l-.2-3.3a31 31 0 0 0 5.3 2c2.8.9 5.5 1.7 6.7 3.5.5 1.8.8 3.8.8 6 0 6.7-3.1 12.5-6.8 12.5l-1.2-.3-.4-.2-.7-.6a2 2 0 0 1-.5-1.7 15.1 15.1 0 0 1 .6-2.3v-.2l.2-.4c.5-1.4.9-2.9.6-4v-.1-.1a2.4 2.4 0 0 0-1.2-1.4l-4.4-2c.8-2.3 1.1-4.3 1.2-6.6v-.8"/><path fill="#FFF" d="M143.1 129.4c.7.4 1 .8 1.2 1.4l.1.2c.3 1.1-.1 2.6-.6 4l-.1.4-.1.2a14.5 14.5 0 0 0-.6 2.3 2 2 0 0 0 .5 1.7l.7.6.4.2 1.2.3c3.7 0 6.8-5.8 6.8-12.6 0-2-.3-4.1-.8-6-1.2-1.7-4-2.5-6.7-3.4-1.9-.6-3.7-1.2-5.3-2l.2 3.3v.8c0 2.3-.4 4.3-1.2 6.6l4.3 2z"/><path fill="#005DAA" d="M135 12.3H25.7v65c0 11.3 2.3 28 13.5 43.8a81 81 0 0 0 41.4 32h.4a81 81 0 0 0 41.3-32 75.1 75.1 0 0 0 13.6-43.7V12.3h-.7z"/><path fill="#FFF" d="M80.7 13.6h53.7v63.8c0 11-2.3 27.4-13.3 42.9a82.3 82.3 0 0 1-40.4 31.4 79.7 79.7 0 0 1-40.5-31.4 73.8 73.8 0 0 1-13.3-43V13.7h53.8z"/><path fill="#005DAA" d="M118 22a8 8 0 0 0-10.7 0 8 8 0 0 0-10.7 0A8 8 0 0 0 86 22a8 8 0 0 0-10.6 0 8 8 0 0 0-10.7 0 8 8 0 0 0-10.6 0 8 8 0 0 0-10.7 0 8 8 0 0 0-9-1.2h-.1v.2a7.7 7.7 0 0 0 1 9 7.8 7.8 0 0 0 0 10.5 7.8 7.8 0 0 0 0 10.5 7.8 7.8 0 0 0 0 10.5 7.8 7.8 0 0 0 0 10.6 7.8 7.8 0 0 0-2 5.2c0 2 .9 4 2.2 5.4a7.8 7.8 0 0 0-1.2 5.5c.3 2 1.3 3.7 2.9 5a7.8 7.8 0 0 0-.5 5.6 7.8 7.8 0 0 0 3.5 4.5 7.8 7.8 0 0 0 4.8 9.5 7.5 7.5 0 0 0 1.6 5.4c1.2 1.6 2.9 2.6 4.8 3v.2a7.8 7.8 0 0 0 6.9 7.8 7.8 7.8 0 0 0 8.4 6.4 7.8 7.8 0 0 0 9 5.6 7.8 7.8 0 0 0 3.4 4.5l1.6.8h.1l1.5-.8c1.7-1 2.9-2.6 3.4-4.5a7.8 7.8 0 0 0 9-5.6 7.9 7.9 0 0 0 8.4-6.4 7.8 7.8 0 0 0 6.9-7.8v-.3a7.8 7.8 0 0 0 6.4-7.7v-.7a7.8 7.8 0 0 0 4.7-9.4 7.8 7.8 0 0 0 3.1-10.2 7.8 7.8 0 0 0 1.7-10.4 7.8 7.8 0 0 0 2.1-5.3v-.1c0-2-.7-3.8-2-5.2a7.8 7.8 0 0 0 0-10.6 7.8 7.8 0 0 0 0-10.5 7.8 7.8 0 0 0 0-10.5 7.8 7.8 0 0 0 0-10.6 7.8 7.8 0 0 0 1.1-9h-.1c-1.2-.7-2.4-1-3.7-1a8 8 0 0 0-5.4 2"/><path fill="#FFF" d="M69.7 76.4c-.2.3-.3.8-.3 1.2-.2.5.2 1.5-.5 2.4-.7 1-2.5-1.1-2.9.3-.3 1.1 1 3.3-.3 4-1.2.5-2.2 1.1-2.2 2.4-.1.2-.5 0-.6 0-.7-.6-1-1.3-.8-2 .3-.5 1.7-.9 1.2-2-.8-1.7-1.2-3.4-1-4.2 0-.2.6 0 1.8.2.7.2 1.7.6 1.8 0 0-1.7.4-3.2 1-3.7.5-.3.8-.5 1-.4l1.8 1.8M91.6 76.4c.3.3.4.8.4 1.2.1.5-.2 1.5.5 2.4.6 1 2.5-1.1 2.9.3.3 1.1-1 3.3.3 4 1.2.5 2.2 1.1 2.1 2.4.2.3.5 0 .7 0 .6-.6 1-1.3.7-2-.2-.5-1.6-.9-1-2 .7-1.6 1-3.4.9-4.2 0-.2-.6 0-1.8.2-.8.2-1.8.6-1.8 0 0-1.7-.4-3.2-1.1-3.7-.4-.3-.7-.5-1-.4l-1.8 1.8M80.7 60.9c-4.8 0-8.8 1.1-10.1 2.3l-.5-2-.4-1.5c.9-1.3 4-2.4 6-2.6l1-.2c0-1.4 0-13.7-2-22.3-.3-1-1-.9-1.7 0a51.6 51.6 0 0 0-6.4 6.5s-.8.7-.5 1c0 .2.6-.3.8-.5 2-2.3 4-4 6.5-6.1 1.4 3.4 2.1 16.6 2.4 20.4h-1c-2 .5-4.5 1.3-5.6 2.6a61.3 61.3 0 0 0-6.4-14.6c-.5-.9-.7-1.7-.2-2.7a49 49 0 0 1 18-15.9 48.9 48.9 0 0 1 18.2 15.9c.5 1 .3 1.8-.3 2.7a61.4 61.4 0 0 0-6.4 14.6c-1-1.3-3.6-2.1-5.6-2.5l-1-.1c.3-3.8 1.1-17 2.4-20.4 2.6 2.2 4.6 3.8 6.6 6 .1.3.7.8.8.7.2-.4-.5-1.1-.5-1.1-2-2.5-3.7-4.3-6.4-6.6-.7-.8-1.4-1-1.7.1-2 8.6-2 20.9-2 22.3l1 .2c2 .2 5 1.3 6 2.6l-.4 1.4-.5 2.1C89.5 62 85.4 61 80.7 61"/><path fill="#FFF" d="M85.5 67.2c-1.5.2-3.2.4-4.8.4-1.8 0-2.6-.1-3.1-.2l-1.7-.3c-.5 0-.4.2-.8.6-.5.5-.2 1.8-.4 2.4-.2.6-.3.7-.6.9l-2.2-2.2c0-.8-.2-1.8.5-2.5-.5-.2-1-.4-1.1-.7-.3-.2-.3-.5-.4-.7.3-1.4 2.2-1.6 4.6-2.2 2.4-.6 8.9-.7 12.4.4-1.9.5-4.2.6-6.6.6-.2 0-.4 1-.1 1a31 31 0 0 0 8.2-1c.4.1.2 0 .7.5-.4.5-2.1.8-4 1-1.8.3-4.8.5-7.6.3h-.7c-.6 0-.4.4-.4.4 0 .6.3.5 1.2.6 4.5 0 6 0 8.7-.4 1.8-.3 2.6-.6 3.1-1 0 .3-.2.3-.2.5-.3.3-.7.5-1.3.7.7.6.6 1.8.5 2.6l-2.1 2.2c-.3-.1-.5-.4-.7-1-.2-.6.1-2-.3-2.4-.5-.5-.4-.6-.8-.5M60 67.5l-1.7 1.8-2.2-2.4-2.2 2.1 2.3 2.3-1.7 1.7-2.3-2.3-2.1 2 2.2 2.4-1.7 1.7-5-5.1 3.4-3.3 1.4 1.4 2.7-2.6-1.4-1.4 2.2-2.3-2-2-2.3 2.1-1.4-1.4-2.7 2.6 1.4 1.5-3.4 3.3-5-5.1 1.7-1.7 2.2 2.3 2.2-2-2.3-2.4 1.8-1.8 2.3 2.3 2.1-2-2.2-2.4 1.6-1.6zM85.2 81.5l10-10.2c.9.1 1.6-.4 2.3-1l1.1-1.2-.6-.6 2.4-2.5 12-12.3 1.6-1.5c-1-.9.2-1.3 1-1.5.4-.1.8-.3 1-.7a2.3 2.3 0 1 0-3.7-2.1c-.2.7-.7 2-1.6 1.1l-16 16.3-.6-.6-1.1 1.1c-.7.7-1.1 1.4-1 2.3L82 78.3l3.2 3.2M79.5 87.2l-2 2.2c0 .9-.3 1.8-.9 2.5-.6.7-1.7 1-2.6.9l-3.5 3.6c0 1-.2 2-.9 2.7a12 12 0 0 0-4.9-5c.7-.6 1.5-.8 2.4-.8l3.8-3.8c-.1-.9.2-1.8.8-2.4a3 3 0 0 1 2.4-.9l2.2-2.2 3.2 3.2M101.5 67.5l1.8 1.8 2.2-2.4 2.2 2.1-2.3 2.3 1.7 1.7 2.3-2.3 2.1 2-2.3 2.4 1.8 1.7 5-5.1-3.4-3.3-1.4 1.4-2.7-2.6 1.4-1.4-2.2-2.3 2-2 2.3 2.1 1.4-1.4 2.7 2.6-1.4 1.5 3.4 3.3 5-5.1-1.7-1.7-2.3 2.3-2-2 2.2-2.4-1.9-1.8-2.2 2.3-2.2-2 2.3-2.4-1.7-1.6zM51.5 107.6l-.2-.2-.2-.2-3.1-.7c-1.5-.3-2.5-.8-2.5-1.4 0-.6 1-1.1 2.4-1.4l3-.7.4-.1.2-.4c.4-1 1-1.9 1.8-2.7.7-.7 1.6-1.3 2.7-1.7l.3-.1.1-.3.7-3c.4-1.6.9-2.5 1.5-2.5s1 1 1.4 2.4l.6 3c0 .1 0 .3.2.4l.3.1a7.5 7.5 0 0 1 4.6 4.8l.2.2 3.1.7c1.5.3 2.5.8 2.5 1.4 0 .6-1 1.1-2.5 1.4l-3 .7s-.2 0-.3.2c-.1 0-.2.1-.2.3a7.4 7.4 0 0 1-4.5 4.4l-.3.1-.1.3-.7 3c-.4 1.6-.9 2.5-1.5 2.5s-1-1-1.4-2.4l-.6-3-.2-.4-.3-.1a7.5 7.5 0 0 1-4.4-4.6"/><path fill="#FFF" d="M50.6 102c.4-1 1-2 1.9-2.8.8-.8 1.8-1.5 3-2l.7-3c-2.3.5-4 1.5-5.5 3-1.6 1.5-2.5 3-3.1 5.5l3-.7M55.4 113c-1-.3-2-1-2.9-1.8a9.7 9.7 0 0 1-2-3l-3-.7c.5 2.3 1.5 4 3 5.5s3 2.5 5.5 3l-.6-3M66.4 108.3c-.4 1-1 2-1.9 2.8-.8.9-1.8 1.5-3 2l-.7 3c2.3-.5 4-1.5 5.5-3s2.5-3 3-5.5l-3 .7M61.6 97.3c1 .4 2 1 2.9 1.8.8.9 1.5 1.9 2 3l3 .7c-.5-2.3-1.5-4-3-5.5s-3-2.5-5.6-3l.7 3M61.2 66l2.4 2.5-.6.6 1.1 1.2c.7.6 1.4 1.1 2.3 1l17.8 18c-.1 1 .1 2 .8 2.6.6.7 1.6 1 2.5.9l3.6 3.6c-.1 1 .2 2 .8 2.7a11.9 11.9 0 0 1 5-4.9c-.7-.7-1.6-1-2.5-.8l-3.7-3.9a3 3 0 0 0-.8-2.4 3 3 0 0 0-2.4-.9l-17.9-18c.1-1-.4-1.7-1-2.4l-1.1-1.1-.6.6-16-16.3c-1 .9-1.4-.4-1.6-1.1-.1-.4-.3-.7-.6-1a2.3 2.3 0 1 0-3.2 3.2c.3.3.7.5 1 .6.8.2 2 .6 1.1 1.5l1.5 1.5L61.2 66M95.9 107.6l-.2-.2-.2-.2-3.1-.7c-1.5-.3-2.5-.8-2.5-1.4 0-.6 1-1.1 2.4-1.4l3-.7.4-.1.2-.4c.4-1 1-1.9 1.7-2.7.8-.7 1.7-1.3 2.8-1.7l.3-.1.1-.3.7-3c.4-1.6.9-2.5 1.5-2.5s1 1 1.4 2.4l.6 3c0 .1 0 .3.2.4l.3.1a7.5 7.5 0 0 1 4.6 4.8l.2.2 3.1.7c1.5.3 2.5.8 2.5 1.4 0 .6-1 1.1-2.5 1.4l-3 .7s-.2 0-.3.2c-.1 0-.2.1-.2.3a7.4 7.4 0 0 1-4.5 4.4l-.3.1-.1.3-.7 3c-.4 1.6-.9 2.5-1.5 2.5s-1-1-1.4-2.4l-.6-3-.2-.4-.3-.1a7.6 7.6 0 0 1-4.4-4.6"/><path fill="#FFF" d="M95 102c.4-1 1-2 1.9-2.8.8-.8 1.8-1.5 3-2l.7-3c-2.3.5-4 1.5-5.5 3-1.6 1.5-2.5 3-3.1 5.5l3-.7M99.8 113c-1-.3-2-1-2.9-1.8a9.6 9.6 0 0 1-2-3l-3-.7c.5 2.3 1.5 4 3 5.5s3 2.5 5.5 3l-.6-3M110.8 108.3a9.5 9.5 0 0 1-5 4.9l-.6 2.9c2.3-.5 4-1.5 5.5-3s2.5-3 3-5.5l-3 .7M106 97.3c1 .4 2 1 2.9 1.8.8.9 1.5 1.9 2 3l3 .7c-.5-2.3-1.6-4-3-5.5-1.5-1.5-3-2.5-5.6-3l.7 3"/><path fill="#005DAA" d="M54.4 164.2l6.2 2.9.8-1.6-.7-.4-.4.8-3-1.3 1.4-3 2.4 1.2-.4.9.7.3 1-2.2-.6-.4-.4.8-2.4-1.1 1.1-2.4 2.8 1.3-.4.8.7.3.7-1.6-6-2.8-.3.7.9.4-2.9 6.1-.9-.4zM73 165.7c.4-2.2-1-4.5-3.6-5-2.7-.5-4.8 1.1-5.2 3.3-.4 2.1.9 4.4 3.6 5 2.7.5 4.7-1.2 5.2-3.3m-2.1-.4c-.6 3.1-2.2 3.2-3 3-.8 0-2.2-.8-1.6-4 .6-3.1 2.2-3.2 3-3 .7 0 2.2.8 1.6 4M78 170.4l7-.3-.2-1.8H84v1l-3.2.1-.1-3.1 2.6-.2v1l.9-.1-.2-2.4h-.8v.9l-2.6.1-.1-2.6 3-.2v.9h.9l-.1-1.8-6.7.3v.8l1-.1.4 6.8h-1zM89.3 169.7l3.8-.7-.2-.7-1 .2-1-6.5 2-.4.1 1 .8-.2-.3-1.8L86 162l.4 1.8.7-.1-.1-1 2-.3 1.2 6.5-1 .2zM104.1 159.4c-.6-1.5-2.3-1.8-4-1l-3.2 1.4.3.6.9-.4 2.8 6.2-1 .4.4.7 3.6-1.6-.3-.7-1 .5-1-2.1.6-.3c1.7-.8 2.6-2.2 2-3.7m-1.7.8c.4.9.3 1.9-.8 2.3l-.4.2-1.5-3.4.3-.2c1-.4 2 0 2.4 1M37.5 139.3h1a5 5 0 0 0-.5-.8l-2.2-3-.6.4.6.8-3.6 2.6-1.9 1.4-.6-.8-.5.4 2.2 3 .6-.3-.6-.8 2-1.5h.1c.2.3 0 .6-.3 1.2l-.6 1.4c-.5 1.1-.4 1.3.1 2l.8 1 .6-.4-.2-.2c-.2-.3-.1-.6 0-1l1-2.4c.7.5 1.8 1 2.8.2 1.1-.7 1.3-2 .8-3.1h-1c.1.6-.2 1.2-.8 1.6-.8.6-1.8.6-2.5-.4l-.2-.3 1.3-1 1.6-1.1.2.3.4.8M48.5 159.9l-.4-.2 2.8-4.8.7-1 .3.1 1 .9h1.3c-.3-.4-.8-.8-1.3-1l-3.4-2.1-.4.6.9.5-1.2 2-2.3 3.8-.9-.5-.3.6 3.4 2c2.3 1.5 4.6.8 5.8-1.2 1-1.7 1-3.4-.3-4.7H53c.8 1 .7 2.2-.2 3.6-.8 1.3-2.2 2.6-4.2 1.4M115.1 159.6l-.4-.6-.7.4-6-4.5-.6-.4-.6.4-.4.2 1 8-.5.4.3.6 2.1-1.1-.4-.7-.8.5-.2-1.6 3.1-1.8 1.3 1-.8.4.4.7 3.2-1.9zm-4.7-.7l-2.6 1.5-.5-3.8 3.1 2.3M119.7 155.5l-.5-.6-.7.7-.6-.7-3.8-4.3 1.6-1.4.6.7.6-.5-1.2-1.4-5.7 5 1.2 1.4.6-.5-.6-.8 1.5-1.3 2.7 3 1.7 2-.8.6.5.6zM44 146c-1.8-2-4.4-1.9-6-.4-1.7 1.4-2 4-.2 6.1 1.8 2 4.5 2 6.1.5 1.6-1.5 2-4.1.1-6.1m-1.5 4.5c-2.4 2.2-3.8 1.3-4.3.7-.5-.6-1.3-2 1.1-4.2 2.4-2.1 3.8-1.2 4.3-.7.5.6 1.3 2-1.1 4.2M127.5 146.8l-.5-.5-.2.3c-.2.3-.5.3-1 .2l-2.5-.3c.3-.8.5-2-.5-2.8-1.3-1-3-.5-4 .8l-2.4 3 .6.4.6-.8 5.3 4.3-.6.7.5.5 2.4-3-.5-.4-.6.7-2-1.5v-.1c.2-.2.6-.2 1.3 0l1.5.2c1.2.1 1.3 0 2-.7l.6-1m-5.7.9l-.2.3-2.8-2.3.2-.3c.8-1 1.8-1 2.6-.3s1 1.6.2 2.6M131 142l-.6-.5-.6.8-4.3-3-1.3-.9.6-.8-.6-.4-1.5 2.1-.7 1 .6.5.6-.9 5.5 4-.5.7.6.5zM136.5 132.3l-.6-.3-.4.7-8.2-1-.6 1.1 5 6.5-.4.5.7.4.5-.9.7-1.2-.7-.3-.4.8-1-1.3 1.8-3h1.6l-.5 1 .6.3 1.9-3.3zm-4.4 1.8l-1.5 2.6-2.4-3 3.9.4M33.9 131.5l-1.7-3-.6.3.4.9-5.9 3.3-.5-1-.6.4 2 3.5.6-.3-.6-1 2-1.2.3.6c1 1.6 2.4 2.4 3.9 1.6 1.4-.8 1.6-2.4.7-4m-.8 0c.5 1 .1 1.9-.9 2.4-.8.5-1.8.5-2.3-.5l-.3-.4 3.3-1.8.2.3M58.5 98.3l-1 1.7v1.7H55v2.5h-1.7l-1.7 1 1.7 1H55v2.4h2.5v1.8l1 1.7 1-1.7v-1.8h2.4V106h1.8l1.7-1-1.7-1h-1.8v-2.4h-2.4V100zM102.9 98.3l-1 1.7v1.7h-2.5v2.5h-1.7l-1.7 1 1.7 1h1.7v2.4h2.5v1.8l1 1.7 1-1.7v-1.8h2.4V106h1.8l1.7-1-1.7-1h-1.8v-2.4h-2.4V100z"/></svg>