<svg xmlns="http://www.w3.org/2000/svg" width="1920" height="611" viewBox="0 0 1920 611"><path fill="#040a33" d="M1920 0L-.28-.28l.35 297.26 6.73 3.6 7.28 1.76 7.5.9 7.12 2.36 6.78 3.47 7.9.63.47 9.1.7 8.83 2.33 8.6.74 9.05 7.17 1.57 6.8 1.83 7.07.9 6.4 2.26 7.26-1.17 7.78.73 7.63-.36 7.5-1.14 7.38-2.1 7.4-2.02 7.7.5 8.1-1.05 8.22.94 8.18-1.15 8.2-.75 8.23 1.54 8.17-1.3 8.33.6 7.4-4.18 8.25.24 7.7-2.2 7.48-3.32 8.12-.37 7.64-2.54 7.87-1.5 8.06-.63 7.64-2.52 7.88-1.5 7.55-2.92 7.9-1.4 8.2-.65 4.8-6.3 6.35-4.57 4.84-6.12 6.1-4.8 5.1-5.86 5.47-5.7 7.54-2.95 7.87-1.8 7.45-2.77 7.37-2.96 6.26-5.5 8.02-1.46 6.9-2.87 7.5 3.5 7.18 4.86 8-.43 7.92.74 7.94.24 7.85 1.8 7.92.46 7.93.46 8-1 7.9 1.28 8.03-.15 7.07 4.5 8.4 1.2 7.24 3.97 7.54 3.23 7.55 3.23 8 2.47 4.5 6.8 5.94 5.56 3.67 7.3 4.97 6.32 5.78 5.68 4.52 6.66 4.4 6.75 4.83 6.5 8.03 4.02 8.52 2.9 7.74 3.76 7.65.1 7.78-1.23 7.58-2.32 7.67-1.95 7.66-.36 6 5.7 7.35-.26 7.82-1.38 7.13-3.9 7.8-1.48 7.22-3.6 8.26.22 7.63-1.7 7.94-.77 7.88-2.9 8.03-1.12 8.32 2.2 8.06-.77 7.98-1.77 8.1-.22 8.1-1.9 4.37 1.08c-.22.33-.44.65-.68.95l-.84 1.04c-.28.33-.5.67-.78.92l-1.77 1.76 1.98-1.53c.33-.22.6-.53.9-.82l1-.95c.37-.35.72-.74 1.07-1.15l2.35.58c-.02.06-.05.1-.08.15-.32.6-.7 1.14-1.02 1.68l-1.08 1.5-1.08 1.24-1.02.96c-.3.3-.6.48-.85.66l-.78.55.82-.48c.25-.17.6-.32.9-.6l1.14-.87 1.2-1.17 1.25-1.42c.4-.52.8-1.05 1.2-1.6l.24-.37 2.75 1c-.1.26-.17.52-.26.77-.3.8-.6 1.63-.93 2.4-.3.8-.65 1.57-1 2.3-.33.75-.72 1.44-1.07 2.1-.34.66-.74 1.24-1.1 1.8-.32.55-.7 1-1.04 1.42l-.46.58c-.15.18-.3.3-.45.45l-.85.83.92-.77c.15-.12.32-.24.5-.4.14-.18.3-.36.5-.56.35-.4.78-.83 1.16-1.37.4-.53.84-1.1 1.23-1.74.4-.63.84-1.3 1.23-2.03.4-.72.8-1.47 1.18-2.25.4-.77.75-1.58 1.1-2.38.12-.25.22-.5.33-.76l2.36.88-.3 1.76c-.2.8-.3 1.65-.52 2.42-.27.74-.45 1.5-.78 2.2-.33.7-.6 1.4-.97 2-.37.6-.7 1.2-1.08 1.68-.34.52-.7.97-1 1.36-.33.4-.62.73-.86 1l-.74.88.8-.82c.26-.25.58-.56.92-.94.36-.36.74-.8 1.13-1.3.42-.46.8-1.03 1.2-1.62.45-.58.76-1.28 1.17-1.97.38-.7.65-1.5 1-2.27.26-.78.44-1.6.68-2.4l.4-1.6.73.28-.05.46c0 .58-.03 1.16-.05 1.74-.16.28-.32.55-.43.85l-.64 1.48-.6 1.38-.4 1.28-.83 2.64 1.12-2.52.54-1.22.75-1.28.48-.84c0 2.3.06 4.5.1 6.24l.03.55-.4.88c-1.18 2.46-2.07 4.05-2.07 4.05s1-1.52 2.33-3.9l.16-.3.06 2.2.15-2.58c.23-.4.44-.82.68-1.26.38-.7.73-1.45 1.1-2.22.4-.76.72-1.6 1.1-2.43.37-.83.62-1.7.94-2.55.1-.3.16-.57.24-.86l.83.36-.3.55c-.3.62-.54 1.3-.83 1.97-.25.68-.5 1.38-.7 2.08-.2.72-.4 1.42-.56 2.12-.12.7-.3 1.4-.4 2.08l-.24 1.95c-.06.63-.1 1.22-.13 1.76-.1 1.1-.04 2-.06 2.64v1l.1-1c.06-.63.08-1.53.27-2.6.1-.53.16-1.1.27-1.72.15-.6.3-1.24.43-1.9.16-.65.38-1.3.57-2 .2-.66.47-1.32.7-2 .27-.65.57-1.3.85-1.93.34-.62.6-1.25.97-1.8l.4-.65.47.2c-.05.07-.1.13-.12.2-.3.64-.62 1.3-.85 2.02-.28.7-.48 1.46-.68 2.22-.23.74-.33 1.54-.5 2.3-.16.8-.2 1.58-.3 2.35-.13.77-.13 1.54-.2 2.27-.03.74-.07 1.45-.05 2.13v1.9c0 .58.05 1.12.07 1.6l.07 1.23.06 1.07.03-1.07.03-1.23c.02-.48 0-1.02.05-1.6.06-.58.1-1.2.16-1.88.04-.67.13-1.37.23-2.1.1-.7.17-1.46.34-2.2.17-.74.27-1.5.5-2.25.22-.73.36-1.5.65-2.2.24-.7.48-1.4.8-2.03.27-.67.6-1.25.93-1.8l.02-.06-.14 2.25-.08.18c-.42.94-.8 1.9-1.1 2.8-.32.92-.56 1.8-.7 2.55-.1.37-.12.73-.16 1.04-.04.3-.06.58-.05.8 0 .45.02.7.02.7l.07-.7c0-.2.06-.47.14-.77.08-.3.14-.64.28-1 .23-.7.56-1.52.98-2.37l.5-1c0 .7 0 1.38-.03 2.03-.02.6.03 1.17.03 1.72v.15c-.05.22-.1.44-.17.64l-.26.95c-.1.3-.12.57-.18.8-.05.26-.1.47-.12.65l-.1.54.18-.52.2-.6c.1-.23.17-.5.3-.76l.2-.42v.1c0 .48.1.92.12 1.3.05.38.1.72.12 1l.1.85-.02-.87c0-.27 0-.6-.02-1 0-.38-.04-.8 0-1.28l.07-.94c.1-.2.18-.4.3-.6.35-.68.7-1.4 1.1-2.1.4-.7.78-1.4 1.18-2.04l1.08-1.75c.1-.18.22-.35.32-.5-.1.26-.2.56-.3.88-.26.68-.53 1.47-.8 2.32-.3.84-.56 1.76-.84 2.67-.28.9-.5 1.85-.74 2.7-.12.43-.2.86-.3 1.26-.07.4-.15.78-.23 1.13-.1.35-.1.68-.15.97l-.1.74-.08.65.17-.65c.05-.2.1-.44.2-.72.07-.27.12-.6.26-.92.1-.33.24-.7.38-1.07.14-.38.26-.8.44-1.2.35-.8.68-1.68 1.08-2.54.4-.87.77-1.73 1.16-2.52l.1-.2c-1.38 3.77-2.72 7.88-3.9 12.3-.8 3.02-1.52 6.2-2.13 9.5-1.28.73-2.67 1.52-4.2 2.36-2.24 1.2-4.7 2.58-7.44 3.95-1.37.7-2.8 1.4-4.27 2.16l-4.65 2.24c-3.18 1.58-6.66 3.05-10.28 4.7l-5.65 2.37c-1.93.82-3.9 1.64-5.96 2.4l-.48.17c-.54-.82-1.16-1.72-1.88-2.7-1.04-1.42-2.24-3-3.66-4.6-.7-.83-1.45-1.67-2.27-2.5-.4-.42-.8-.86-1.23-1.28l-1.33-1.26c-1.8-1.7-3.87-3.33-6.08-4.9-1.15-.73-2.3-1.48-3.53-2.16l-1.9-.96c-.3-.16-.62-.33-.94-.48l-1-.4-2-.8-.26-.1-.17-.05-.06-.02-.12-.03-.5-.13-1-.27c-.67-.17-1.3-.38-2.02-.5l-2.2-.34c-1.48-.28-2.88-.3-4.3-.38-1.42-.13-2.82 0-4.2-.02-2.8.1-5.5.34-8.1.7-1.3.13-2.57.37-3.82.57-1.24.2-2.45.44-3.62.68-1.18.23-2.32.48-3.4.74-1.1.25-2.17.5-3.17.76-2.03.5-3.87 1.03-5.5 1.5-1.6.47-3.02.9-4.18 1.28-2.3.75-3.6 1.23-3.6 1.23s1.32-.38 3.67-.97c1.18-.3 2.6-.63 4.26-1 1.64-.36 3.5-.75 5.55-1.1 1-.2 2.08-.37 3.18-.55 1.1-.2 2.24-.36 3.42-.5 1.17-.16 2.38-.32 3.62-.42 1.23-.12 2.5-.27 3.78-.32 2.56-.17 5.22-.23 7.9-.14 1.33.1 2.68.08 4 .3 1.33.17 2.7.27 3.94.6l1.88.4c.63.16 1.3.43 1.95.64l.98.33.5.17.12.04h.05-.06.04l.22.1 1.76.86.87.4.83.5 1.64 1c1.07.68 2.08 1.45 3.07 2.17 1.93 1.58 3.7 3.2 5.26 4.88.4.4.77.83 1.15 1.23.37.43.7.86 1.06 1.27.7.8 1.35 1.64 1.95 2.44 1.2 1.6 2.22 3.13 3.1 4.5l1.02 1.7-.43.15c-2.14.78-4.34 1.5-6.56 2.28-1.12.4-2.24.77-3.38 1.16-1.13.38-2.3.7-3.45 1.07l-7.1 2.16-7.35 1.94-3.75.98-3.83.83c-2.57.56-5.17 1.1-7.8 1.68-2.63.44-5.3.9-8 1.34l-2 .35-1.03.17-.14.02s-.15.02-.06 0l-.26.04-.52.07-4.2.53-4.2.54c-1.42.2-2.83.36-4.2.47-2.8.26-5.62.52-8.44.8-2.85.16-5.7.32-8.57.5-2.86.13-5.73.1-8.62.18-1.45.05-2.9-.03-4.33-.06l-4.34-.13c-2.88-.14-5.75-.43-8.64-.64l-4.3-.56c-1.43-.2-2.87-.36-4.28-.66l-4.26-.8c-1.42-.26-2.8-.66-4.2-1-2.84-.6-5.56-1.55-8.33-2.36-5.46-1.87-10.8-4.03-16-6.52-5.2-2.5-10.28-5.16-15.3-7.9l-.94-.5-.17-.1c-.1-.28-.23-.6-.35-.97-.24-.7-.52-1.56-.76-2.56-.28-1-.5-2.12-.7-3.37-.14-1.24-.3-2.6-.23-4 0-1.44.23-2.92.62-4.4l.34-1.1c.12-.35.3-.7.47-1.05l.25-.53.03-.08c.03-.05 0 0-.03.03l.02-.03.1-.13.16-.28.7-1.1c.96-1.2 2.1-2.46 3.46-3.5 1.3-1.1 2.77-2 4.26-2.83.74-.43 1.52-.76 2.27-1.14.76-.33 1.54-.63 2.3-.94l2.28-.75 2.25-.56 2.16-.37c.7-.1 1.4-.14 2.05-.2.65-.1 1.28-.04 1.88-.05.6-.03 1.17.03 1.7.1 1.08.05 1.98.28 2.74.45.38.06.7.2.98.3.28.1.52.2.72.26l.6.2-.58-.25-.7-.32c-.3-.12-.6-.27-.98-.37-.75-.22-1.65-.52-2.74-.66-.54-.1-1.1-.2-1.72-.2-.6-.04-1.26-.14-1.93-.1-.67.02-1.38 0-2.1.06l-2.24.23-2.35.4-2.42.62c-.8.27-1.63.5-2.45.8-.8.34-1.65.63-2.45 1.02-1.62.76-3.25 1.6-4.74 2.68-1.55 1-2.92 2.3-4.23 3.76l-.77 1.05-.2.26-.1.12-.02.03-.06.1-.05.08-.33.6c-.22.43-.47.82-.64 1.24l-.5 1.27c-.6 1.7-.97 3.4-1.1 5.03-.17 1.62-.12 3.15-.05 4.55.12 1.4.28 2.68.5 3.8l.08.5c-.74-.35-1.48-.68-2.2-1-2.7-1.08-5.38-2.08-8.1-2.9-10.8-3.4-21.5-5.23-31.68-6.5l-.9-.1c.03-.14.08-.3.13-.45.2-.7.43-1.53.66-2.5.2-.97.42-2.07.58-3.3.14-1.2.26-2.53.26-3.93 0-.7 0-1.43-.08-2.16l-.1-1.12c-.05-.37-.1-.75-.18-1.13-.22-1.52-.67-3.05-1.25-4.56-.3-.75-.7-1.46-1.04-2.2l-1.1-2.1c-.68-1.4-1.35-2.84-1.84-4.3-.54-1.46-.9-2.94-1.16-4.4-.24-1.44-.3-2.87-.26-4.22.03-.67.1-1.33.18-1.96.13-.63.2-1.25.37-1.82.3-1.15.66-2.18 1.05-3.06.37-.9.77-1.64 1.1-2.24.33-.62.65-1.07.84-1.4l.3-.47-.32.48c-.2.32-.54.75-.9 1.35-.35.6-.78 1.33-1.2 2.22-.4.87-.83 1.9-1.17 3.05-.2.57-.3 1.2-.45 1.83-.1.63-.2 1.3-.27 2-.1 1.37-.07 2.84.12 4.34.2 1.5.52 3.04 1 4.55.45 1.53 1.06 3 1.7 4.5l1.05 2.16c.3.72.65 1.4.9 2.12.48 1.43.85 2.9 1 4.33.05.36.1.72.13 1.07l.04 1.06c.05.7.02 1.38 0 2.05-.05 1.34-.2 2.6-.4 3.74-.2 1.14-.43 2.18-.67 3.1-.25.9-.5 1.7-.7 2.34l-.3.82c-9.14-1-17.83-1.48-25.9-1.64-4.58-.1-8.96-.08-13.12 0l-.17-.17c-.4-.43-.96-1.04-1.73-1.77-.38-.37-.8-.78-1.3-1.2-.46-.44-1-.88-1.58-1.34-.56-.5-1.25-.9-1.95-1.38-.74-.38-1.6-.85-2.5-1-1.86-.36-3.77-.48-5.78-.86-2-.36-4.1-.93-6-2.05-1.88-1.1-3.43-2.87-4.3-5l-.33-.8c-.07-.24-.13-.57-.2-.85l-.22-.87c-.07-.3-.07-.57-.1-.86l-.08-.86c0-.3.02-.6.03-.88l.04-.88.15-.87c.42-2.32 1.46-4.52 2.82-6.4 1.38-1.9 3.1-3.5 5.05-4.58.98-.5 2.02-.82 3.1-.65l3.14.4c2.05.25 4 .4 5.8.42 3.6.06 6.67-.47 8.48-1.6.9-.53 1.47-1.18 1.77-1.65.16-.23.23-.43.3-.56l.1-.2-.1.2c-.07.13-.15.34-.32.56-.3.47-.86 1.1-1.77 1.63-1.8 1.1-4.86 1.57-8.45 1.46-1.8-.04-3.74-.22-5.78-.5l-3.14-.43c-1.1-.2-2.27.13-3.28.64-2.02 1.08-3.8 2.7-5.23 4.6-1.42 1.93-2.52 4.17-2.98 6.57l-.17.9-.06.92c0 .3-.04.6-.04.9l.08.94c.03.3.04.62.1.92l.2.87c.08.3.1.55.23.87l.33.85c.88 2.25 2.5 4.2 4.5 5.38 2 1.2 4.16 1.82 6.2 2.22 2.03.4 4.04.57 5.7.9l.64.18c.1.03.25.06.3.1l.26.14c.36.18.73.33 1.07.54.65.46 1.3.85 1.84 1.33.57.45 1.1.9 1.54 1.33.47.4.88.82 1.24 1.18.5.5.92.95 1.26 1.3-11.48.3-21.2 1.2-28.57 2.18-5.15.7-9.17 1.4-11.9 1.95L399 386l4.2-.74c2.74-.44 6.77-1.02 11.93-1.53 5.72-.56 12.83-1.03 21.05-1.16.1.32.2.8.32 1.4.1.57.2 1.26.24 2 .05.75.02 1.55-.07 2.34-.07.4-.1.8-.2 1.18-.1.38-.2.76-.34 1.1-.12.36-.26.7-.43 1-.15.3-.3.6-.47.84-.18.25-.33.48-.47.7l-.43.47-.37.4.4-.38.47-.45.52-.66c.2-.22.37-.5.56-.8.2-.3.37-.64.52-1 .18-.34.3-.73.43-1.1.14-.4.2-.8.3-1.2.17-.82.26-1.65.27-2.43.03-.78-.02-1.5-.08-2.13-.06-.5-.13-.94-.2-1.3 6.36-.07 13.34.04 20.85.45 8.84.47 18.42 1.36 28.43 2.9.23.05.47.1.7.13-1.57.4-3.26.98-5 1.8-2.1.98-4.26 2.26-6.28 3.94-2.03 1.68-3.94 3.72-5.6 6.04-1.65 2.34-3.05 4.94-4.2 7.7-1.18 2.8-1.5 5.94-1.3 8.97.2 3.04 1 6.04 2.35 8.7 1.38 2.67 3.4 5 5.85 6.46 1.2.77 2.56 1.23 3.77 1.76 1.2.54 2.35 1.17 3.4 1.87 2.13 1.4 3.9 3.05 5.25 4.8 1.22 1.6 2.06 3.27 2.53 4.87l-.16.1c-.86.48-1.73.93-2.62 1.35-.88.43-1.78.82-2.68 1.2-.45.2-.9.37-1.37.55-.46.18-.92.34-1.4.5-.46.14-.92.32-1.4.44l-1.42.37-1.44.3c-.47.1-.96.16-1.45.22-.5.03-.98.13-1.47.12l-1.48.03 1.48.03c.5.03 1-.05 1.48-.08.5-.03 1-.07 1.48-.17.48-.08.98-.14 1.46-.24l1.45-.34c.5-.1.96-.26 1.44-.4.46-.13.94-.26 1.4-.43.47-.17.95-.32 1.4-.5.94-.35 1.86-.7 2.77-1.1.9-.4 1.8-.83 2.7-1.28 0 0 .02 0 .03-.02.4 1.68.4 3.23.18 4.46-.22 1.27-.62 2.23-.94 2.85-.3.62-.5.94-.5.94s.2-.33.52-.94c.33-.62.75-1.57 1-2.86.26-1.25.3-2.83-.1-4.56 1.72-.86 3.38-1.78 5-2.83h.02l.04-.03c1.2-1.04 2.5-2.02 3.8-2.93 1.33-.9 2.7-1.77 4.1-2.54.7-.4 1.4-.77 2.12-1.1.7-.37 1.44-.68 2.17-1 1.48-.62 3-1.12 4.5-1.54.78-.2 1.55-.34 2.32-.5.77-.14 1.52-.2 2.28-.32l2.43-.08 2.4.04c1.62.02 3.26.02 4.9 0 1.64-.05 3.3-.1 4.93-.25.83-.04 1.65-.15 2.47-.24.83-.07 1.65-.18 2.47-.33 1.64-.23 3.26-.6 4.9-.96 1.6-.43 3.22-.85 4.78-1.43.8-.26 1.6-.54 2.35-.88.77-.34 1.55-.64 2.32-.98 1.48-.76 3.03-1.43 4.45-2.32.72-.42 1.46-.82 2.16-1.27l2.1-1.4 1.03-.7 1-.76 2-1.56c.7-.55 1.35-1.1 2-1.68l.54.2c2.87.97 5.72 2.05 8.66 2.8 1.47.4 2.92.87 4.4 1.2l4.46 1c1.48.36 2.98.6 4.48.84l4.5.75c3 .33 6 .74 9 .98 1.52.1 3.02.2 4.52.28 1.5.1 3 .22 4.5.22 2.03.02 4.06.08 6.1.1-.2.5-.38 1.04-.6 1.62-.32.96-.83 1.96-1.3 3.1-.54 1.08-1.14 2.26-1.83 3.5-.76 1.18-1.45 2.53-2.43 3.8l-1.42 1.98c-.53.65-1.1 1.3-1.66 1.96-1.08 1.38-2.43 2.6-3.76 3.95-.65.68-1.43 1.25-2.18 1.88l-2.3 1.9c-.84.55-1.68 1.13-2.54 1.7-.86.57-1.7 1.22-2.66 1.7l-2.83 1.53c-.48.27-.94.55-1.44.78l-1.5.65c-2.05.86-4.1 1.84-6.32 2.45l-.46.15c-.23-.22-.5-.46-.83-.73-.6-.44-1.3-.95-2.2-1.4-.86-.46-1.88-.86-3-1.23-.56-.17-1.16-.32-1.77-.48-.62-.12-1.25-.26-1.9-.36-.66-.07-1.34-.17-2.03-.23-.68-.02-1.4-.06-2.1-.1-.7.02-1.44.02-2.17.03l-2.2.15c-.72.04-1.44.1-2.17.13l-1.1.08-1.07-.03c-1.43 0-2.88-.17-4.3-.36-.7-.14-1.4-.25-2.1-.4l-2-.5c-.67-.2-1.3-.4-1.94-.58-.63-.22-1.23-.45-1.82-.67-1.17-.46-2.27-.94-3.26-1.43-1-.48-1.88-.96-2.65-1.42-.78-.44-1.44-.87-1.98-1.23-1.07-.7-1.65-1.17-1.65-1.17s.55.5 1.58 1.28c.5.4 1.15.87 1.9 1.36.75.5 1.62 1.05 2.6 1.6.95.56 2.03 1.1 3.2 1.66.58.26 1.17.54 1.8.8l1.93.72c.68.2 1.36.42 2.05.64.7.2 1.42.35 2.14.53 1.44.3 2.92.56 4.45.65l1.15.1h1.1l2.23.02c.72 0 1.42-.02 2.12 0 .7.02 1.38.06 2.05.1l1.97.2c.64.1 1.25.24 1.85.34.6.14 1.16.3 1.7.44.55.18 1.06.35 1.55.53.96.4 1.82.78 2.5 1.22.45.24.8.5 1.13.76-1 .32-2.02.6-3.04.9-2.3.64-4.6 1.3-6.94 2.06l-3.5 1.1-3.45 1.22c-4.63 1.58-9.15 3.46-13.55 5.42-2.17 1.03-4.33 2.05-6.42 3.15-2.07 1.16-4.15 2.2-6.08 3.44l-.36.22c-2.3-1.14-4.53-2.36-6.62-3.67-2.97-1.94-5.8-4-7.7-6.57-.87-1.35-1.66-2.77-2.82-3.94-.52-.62-1.16-1.07-1.72-1.6-.58-.48-1.2-.88-1.8-1.32-2.43-1.6-4.88-2.67-7.06-3.52-2.2-.84-4.16-1.42-5.78-1.85-1.63-.42-2.92-.7-3.8-.86-.88-.18-1.36-.25-1.36-.25s.47.07 1.35.28c.88.2 2.16.52 3.76 1 1.62.48 3.55 1.12 5.7 2.02 2.14.9 4.52 2.06 6.85 3.7.56.44 1.16.85 1.7 1.34.53.5 1.13.98 1.6 1.56 1 1.07 1.76 2.5 2.63 3.95 1.96 2.83 4.8 5 7.76 7.1 1.85 1.24 3.8 2.4 5.83 3.52l-1.06.64c-.92.64-1.84 1.26-2.76 1.88-1.85 1.2-3.54 2.55-5.22 3.8-1.7 1.24-3.2 2.6-4.74 3.85-1.5 1.28-2.87 2.6-4.23 3.82-2.63 2.54-4.98 4.92-6.95 7.13-.5.55-1 1.08-1.46 1.6-.45.5-.88 1.02-1.3 1.5-.82 1-1.6 1.88-2.27 2.7-1.35 1.64-2.37 2.96-3.08 3.85l-1.1 1.37 1.13-1.33c.74-.87 1.8-2.16 3.2-3.76l2.36-2.6 1.33-1.47 1.5-1.53c2.04-2.14 4.46-4.44 7.14-6.88 1.4-1.17 2.8-2.43 4.32-3.65 1.56-1.18 3.1-2.5 4.8-3.67 1.7-1.18 3.42-2.45 5.3-3.58l2.78-1.76 1.86-1.04c4.12 2.14 8.5 4 13 5.57 7.33 2.5 15 4.22 22.36 4.52.92.03 1.84.07 2.75.05.9 0 1.8-.03 2.7-.1 1.77-.08 3.6-.34 5.2-.62 1.6-.27 3.18-.53 4.7-.8.77-.1 1.5-.24 2.24-.36.7-.14 1.43-.25 2.13-.3 2.8-.23 5.38-.55 7.62-.45 2.27-.1 4.16.22 5.7.4l1.6.4c-2.07 3.14-4.02 6.38-5.54 9.85-1 1.98-1.7 4.1-2.5 6.14l-1 3.16c-.35 1.04-.62 2.1-.87 3.17-.6 2.28-1.04 4.57-1.4 6.87-.1.1-.22.18-.34.27-.8.6-1.78 1.3-2.93 2.07-1.14.77-2.46 1.6-3.92 2.45-1.47.86-3.1 1.72-4.84 2.57l-2.72 1.2-2.92 1.13-3.08.97c-1.06.25-2.13.5-3.2.77-1.1.2-2.22.34-3.33.52-1.12.1-2.25.14-3.37.2-1.13.03-2.26-.07-3.38-.1-1.1-.07-2.24-.3-3.34-.46-1.1-.2-2.14-.54-3.2-.8-1.02-.37-2.03-.75-3-1.2l-1.37-.75-.7-.4-.6-.44-1.23-.9-1.07-1c-.75-.64-1.27-1.44-1.88-2.13-.26-.37-.5-.76-.73-1.13-.25-.37-.5-.73-.66-1.12-.2-.38-.37-.76-.55-1.12-.18-.37-.3-.75-.44-1.1-.3-.73-.44-1.45-.62-2.12-.17-.67-.24-1.32-.34-1.9-.04-.6-.1-1.15-.1-1.65 0-1 .1-1.78.2-2.3l.2-.8-.22.8c-.1.5-.22 1.3-.23 2.3 0 .5.06 1.04.08 1.64.1.6.16 1.24.3 1.92.2.67.33 1.4.62 2.13.13.35.25.74.4 1.1.2.38.37.76.55 1.15.17.4.4.77.64 1.14s.47.77.73 1.15c.6.7 1.12 1.52 1.86 2.17l1.08 1.04c.4.3.82.6 1.23.92l.63.47.68.4 1.4.78c.96.46 1.98.87 3 1.26 1.08.27 2.15.64 3.26.85 1.1.16 2.2.4 3.35.5 1.14.05 2.3.16 3.43.16 1.15-.05 2.3-.07 3.43-.16 1.14-.17 2.27-.3 3.38-.5 1.1-.23 2.2-.48 3.28-.72l3.13-.94 2.96-1.1 2.78-1.2c1.78-.83 3.43-1.67 4.93-2.52 1.5-.85 2.84-1.66 4-2.43 1-.64 1.85-1.23 2.6-1.76-.23 1.55-.42 3.1-.56 4.65-.4 4.27-.5 8.5-.47 12.67v1.54l.02.78v.7c-.02.52-.03 1.04-.08 1.45l-.07.65-.1.7c-.33 1.82-.93 3.6-1.74 5.3-1.62 3.4-4 6.45-6.56 9.18-2.6 2.7-5.42 5.14-8.3 7.34-5.78 4.4-11.72 7.96-17.3 11.02l-3.3 1.74-.25-.8c-.17-.5-.4-1.12-.7-1.8-.33-.67-.72-1.42-1.23-2.2-.5-.76-1.1-1.56-1.83-2.32-.35-.4-.77-.75-1.18-1.12-.4-.4-.86-.7-1.33-1.04-.24-.17-.47-.35-.7-.5l-.78-.43-.77-.44c-.27-.13-.55-.24-.83-.36-1.08-.5-2.26-.8-3.43-1.13-1.2-.2-2.4-.45-3.57-.52-.6-.06-1.17-.1-1.75-.1-.6 0-1.16-.07-1.73-.03-.56.04-1.1.05-1.65.1l-1.58.2c-.5.13-1 .22-1.47.35-.46.16-.92.28-1.33.46-.84.35-1.58.73-2.16 1.18-.6.43-1.04.9-1.4 1.3-.65.8-.83 1.4-.83 1.4s.2-.58.88-1.38c.36-.38.8-.84 1.4-1.24.6-.43 1.34-.78 2.17-1.1.4-.17.87-.28 1.33-.42l1.46-.3c.5-.06 1.02-.1 1.56-.17.53-.05 1.08-.04 1.64-.06.56-.02 1.12.04 1.7.06.56.02 1.14.08 1.73.16 1.17.1 2.3.36 3.47.6 1.13.34 2.27.66 3.3 1.2.27.1.54.22.8.35l.73.44.72.44c.23.15.45.33.67.5.43.32.86.64 1.23 1.02.4.36.77.7 1.1 1.1.66.74 1.22 1.52 1.67 2.26.47.74.82 1.46 1.1 2.1.3.66.5 1.25.64 1.73.13.4.2.72.26.97-9.5 4.88-17.8 8.3-23.87 10.7C521.07 587.7 517 589 517 589s4.1-1.17 11.18-3.63c7.04-2.5 17.1-6.22 28.63-11.93 2.93-1.47 5.96-3.06 9.03-4.84.2.28.4.6.66 1.05.34.6.75 1.32 1.16 2.2.42.87.85 1.87 1.23 3 .4 1.1.72 2.36 1 3.7.14.66.22 1.36.33 2.06.04.73.12 1.45.14 2.2 0 1.48-.07 3.02-.35 4.56-.15.78-.25 1.54-.5 2.3-.22.78-.42 1.56-.72 2.3-.27.74-.54 1.5-.9 2.2l-.48 1.1-.55 1.04c-.36.7-.76 1.37-1.17 2.02-.4.67-.84 1.3-1.27 1.9-.86 1.23-1.78 2.36-2.7 3.4-.9 1.03-1.82 1.96-2.7 2.78-.88.82-1.73 1.53-2.5 2.13-.78.6-1.48 1.08-2.08 1.45-.6.35-1.08.64-1.43.78l-.52.24.53-.23c.35-.13.84-.4 1.45-.76.6-.34 1.3-.82 2.1-1.4s1.66-1.28 2.56-2.08c.9-.8 1.84-1.73 2.78-2.74.93-1.03 1.88-2.15 2.77-3.37.43-.6.9-1.22 1.3-1.88.43-.65.85-1.32 1.23-2.03l.58-1.05.53-1.1c.36-.7.66-1.47.95-2.23.32-.76.53-1.53.76-2.3.27-.75.4-1.58.57-2.35.32-1.57.44-3.15.45-4.68 0-.77-.06-1.52-.1-2.26-.1-.73-.17-1.45-.3-2.14-.25-1.37-.56-2.66-.95-3.82-.38-1.17-.8-2.2-1.22-3.12-.4-.9-.82-1.67-1.17-2.3-.23-.42-.44-.77-.63-1.05 2.7-1.57 5.4-3.3 8.1-5.2 3.03-2.14 6.03-4.53 8.87-7.3 2.8-2.76 5.47-5.9 7.45-9.67.96-1.88 1.75-3.92 2.2-6.1l.17-.8.12-.86v-.02l.68.28 1.42.65 1.62.86 1.8 1.1c.6.42 1.24.85 1.88 1.34 1.27 1 2.6 2.17 3.8 3.57.6.7 1.26 1.4 1.77 2.23l.83 1.22c.28.4.48.87.73 1.3l.72 1.37c.2.48.38.96.57 1.45.18.5.4.97.56 1.47l.4 1.54.4 1.57.2 1.62.2 1.63.02.08c-.7.47-2.02 1.4-3.7 2.7-1.22.98-2.62 2.15-4.02 3.52-1.38 1.4-2.83 2.93-3.77 4.9-.4.92-.65 2.02-.8 3.02-.12 1.03-.16 2.04-.17 3 0 1 .05 1.93.12 2.82.07.88.16 1.72.26 2.5.42 3.08.9 5.1.9 5.1s-.42-2.03-.73-5.12c-.07-.77-.14-1.6-.18-2.5-.05-.9-.07-1.82-.05-2.8.04-.95.1-1.95.27-2.94.17-1 .4-1.95.85-2.9.46-.87 1.05-1.73 1.72-2.47.64-.77 1.35-1.46 2.05-2.12 1.4-1.3 2.83-2.4 4.07-3.33 1.4-1.02 2.54-1.8 3.3-2.3l.04.53c.1 1.12.2 2.23.4 3.37.14 1.12.3 2.25.55 3.34l.35 1.64c.14.54.3 1.07.43 1.6.26 1.07.65 2.1 1 3.1.75 2 1.63 3.88 2.7 5.53 1 1.67 2.18 3.1 3.32 4.37 1.15 1.25 2.28 2.32 3.3 3.22 1.04.92 1.96 1.68 2.72 2.3l2.38 1.98-2.3-2.07c-.73-.66-1.62-1.46-2.6-2.4-1-.95-2.06-2.06-3.15-3.34-1.06-1.3-2.16-2.75-3.08-4.43-.97-1.64-1.74-3.5-2.4-5.48-.3-1-.64-2-.84-3.07l-.36-1.57c-.1-.54-.17-1.07-.26-1.6-.2-1.1-.3-2.2-.4-3.28-.14-1.1-.2-2.22-.24-3.34l-.1-1.67-.15-1.72-.14-1.72-.35-1.7c-.1-.55-.23-1.1-.34-1.66-.17-.54-.36-1.07-.54-1.6-.2-.54-.37-1.07-.55-1.6-.24-.5-.48-1-.7-1.5-.26-.47-.46-1-.75-1.44l-.84-1.36c-.52-.93-1.2-1.7-1.82-2.5-1.26-1.58-2.64-2.9-3.97-4.05-.68-.57-1.36-1.06-2-1.55l-1.88-1.27-1.73-1c-.56-.3-1.07-.55-1.53-.78-.66-.3-1.22-.56-1.7-.75l.02-.1.03-1.54c.14-4.08.36-8.2.92-12.27.53-4.08 1.27-8.16 2.46-12.1.28-1 .56-2 .93-2.95l1.03-2.9c.84-1.9 1.55-3.82 2.55-5.62 1.8-3.7 4.13-7.12 6.53-10.44l1.94-2.38c.65-.8 1.28-1.6 2-2.32 1.4-1.48 2.74-3.05 4.24-4.37 1.48-1.37 2.87-2.75 4.54-4.07l2.4-2 .6-.5.07-.06s.13-.1 0 0l.16-.1.3-.2 1.15-.85c3.15-2.2 6.58-4 10.08-5.54 1.65-.7 3.3-1.35 4.98-1.95.2.16.44.3.7.47 1.68 1.14 3.96 2.8 6.48 4.98-.63.22-1.33.5-2.08.88-.5.23-1.02.5-1.54.83-.54.3-1.07.68-1.62 1.07-1.1.78-2.18 1.76-3.23 2.88-.53.56-1 1.2-1.5 1.82-.48.64-.9 1.34-1.36 2.02-.4.7-.78 1.47-1.17 2.2-.38.77-.66 1.58-1 2.37-.34.8-.52 1.65-.8 2.47-.1.42-.25.8-.35 1.27l-.25 1.25c-.17.8-.35 1.63-.42 2.52-.06.86-.23 1.73-.2 2.57-.08 1.7 0 3.36.2 4.96l.28 1.82c-.3.04-.7.1-1.22.2s-1.15.26-1.87.46c-.72.2-1.5.47-2.36.8-.84.38-1.73.8-2.6 1.4-.45.3-.9.6-1.3.97-.2.2-.44.36-.63.57l-.57.64c-.4.43-.67.97-1 1.45-.24.55-.56 1.07-.7 1.66-.16.6-.32 1.18-.44 1.76l-.2.87-.26.84c-.16.56-.36 1.1-.58 1.66-.2.55-.44 1.1-.67 1.62-.48 1.07-1 2.1-1.53 3.08s-1.07 1.9-1.6 2.78c-.53.9-1.06 1.7-1.55 2.45-1.97 2.97-3.47 4.83-3.47 4.83s1.54-1.8 3.6-4.75c.5-.73 1.06-1.53 1.6-2.4.57-.85 1.14-1.77 1.7-2.75.56-.97 1.1-2 1.6-3.05.26-.53.52-1.07.73-1.63.24-.55.46-1.1.64-1.7.2-.56.37-1.14.5-1.72.14-.58.32-1.15.47-1.68.14-.55.45-1.03.67-1.53.34-.44.6-.93.98-1.3.2-.2.37-.4.55-.6.2-.18.4-.33.6-.5.4-.35.83-.62 1.24-.9.85-.52 1.7-.9 2.52-1.23.82-.3 1.58-.55 2.27-.73.7-.16 1.3-.28 1.8-.37.57-.1.98-.15 1.25-.18.14.6.27 1.2.43 1.75.23.7.42 1.4.66 2.04.25.64.48 1.27.73 1.85.5 1.16 1.04 2.2 1.55 3.1.52.9 1 1.66 1.43 2.27.86 1.2 1.44 1.83 1.44 1.83s-.55-.65-1.33-1.9c-.4-.63-.84-1.4-1.3-2.32-.46-.92-.93-1.98-1.37-3.16-.22-.6-.4-1.22-.62-1.86-.2-.65-.34-1.34-.52-2.03-.16-.7-.26-1.43-.4-2.17-.1-.75-.16-1.52-.24-2.3-.1-1.55-.1-3.16.08-4.8.02-.8.22-1.6.34-2.4.1-.8.32-1.62.54-2.44l.32-1.23c.08-.35.26-.77.4-1.14.3-.77.5-1.57.87-2.3.35-.7.65-1.45 1.04-2.14.4-.67.78-1.35 1.2-1.98.46-.6.88-1.22 1.34-1.78.5-.52.94-1.08 1.45-1.55 1-.94 2-1.75 3-2.4.5-.3 1-.6 1.48-.84.48-.26.95-.48 1.4-.66.87-.38 1.67-.62 2.33-.8.45-.12.83-.2 1.13-.25 2.68 2.6 5.48 5.77 7.8 9.56 1.3 2.2 2.45 4.58 3.26 7.12.42 1.27.7 2.58.95 3.9.2 1.32.35 2.75.5 4.15.33 2.8.6 5.6 1.04 8.36.43 2.76.8 5.48 1.3 8.08.46 2.62.88 5.14 1.37 7.52.47 2.38.9 4.63 1.34 6.7 1.74 8.28 3.1 13.75 3.1 13.75s-1.1-5.52-2.47-13.87c-.37-2.08-.7-4.35-1.05-6.74-.38-2.4-.7-4.92-1.03-7.54-.38-2.6-.63-5.32-.92-8.06-.33-2.73-.47-5.56-.67-8.37-.1-1.42-.18-2.8-.32-4.28-.2-1.44-.45-2.88-.85-4.26-.76-2.8-1.88-5.4-3.18-7.8-2.64-4.8-5.97-8.7-9.02-11.78-2.36-2.35-4.57-4.22-6.4-5.65 4.03-1.24 8.04-2.24 11.96-3.1 7.02-1.47 13.78-2.46 20.04-3.2 12.54-1.4 23.1-1.77 30.46-1.9h.04l-2.57 3.58-.72 1.03-.65 1.1c-.44.7-.88 1.44-1.32 2.17l-1.32 2.2-.15.27-.04.07c-.22.4-.07.15-.13.26l-.07.14-.26.54-.53 1.1-1.05 2.2c-.34.75-.72 1.4-1.04 2.28l-1.93 5.04c-2.24 6.65-3.65 13.52-4.47 20.4-.83 6.87-1.03 13.72-1.02 20.38 0 6.67.2 13.17.13 19.37-.02 3.1-.17 6.1-.5 9-.06.75-.2 1.44-.33 2.14l-.38 2.07-1.05 4.25c0 .06-.02.1-.04.17l-1.88.87c-1.8.8-4.4 1.92-7.62 3.03-3.2 1.12-7 2.23-11.18 2.98-4.15.73-8.7 1.07-13.1.3-2.2-.4-4.34-1.07-6.26-2.1-.48-.27-.96-.53-1.4-.86-.46-.3-.88-.58-1.3-.95-.84-.7-1.74-1.37-2.5-2.1-1.55-1.43-3-2.92-4.18-4.47-.3-.38-.6-.76-.88-1.14l-.77-1.17c-.53-.76-.94-1.56-1.34-2.3-.43-.75-.7-1.52-1.04-2.23-.24-.74-.54-1.42-.7-2.1-.4-1.33-.58-2.54-.7-3.53-.2-2 0-3.14 0-3.14s-.25 1.14-.13 3.15c.08 1 .2 2.23.56 3.6.13.7.4 1.4.62 2.15.3.73.56 1.52.95 2.3.38.78.76 1.6 1.27 2.4l.73 1.22.85 1.2c1.16 1.63 2.56 3.2 4.1 4.75.77.8 1.62 1.47 2.44 2.22.4.37.9.73 1.34 1.07.46.36.95.66 1.46.96 2 1.2 4.26 2.02 6.56 2.52 1.78.4 3.57.6 5.36.68-.68.23-1.4.5-2.17.78-2.13.82-4.6 1.86-7.1 3.28-1.25.7-2.5 1.5-3.7 2.43-1.2.95-2.34 2-3.22 3.3-.9 1.25-1.5 2.8-1.6 4.3-.1.73-.2 1.46-.32 2.2-.1.7-.1 1.45-.16 2.16-.13 1.43-.12 2.8-.1 4.1-.04 1.32.08 2.56.12 3.7.05 1.13.18 2.17.25 3.1l.27 2.38.3 2.06s-.1-.75-.26-2.07c-.06-.66-.15-1.46-.22-2.38-.05-.93-.16-1.97-.2-3.1 0-1.14-.1-2.37-.04-3.68.02-1.3.04-2.67.2-4.08.06-.7.08-1.43.2-2.16.1-.72.24-1.45.36-2.18.15-1.5.73-2.87 1.6-4.07.87-1.22 2-2.22 3.17-3.1.36-.28.73-.5 1.1-.76.25.1 1.33.5 2.84 1.12 1.72.7 4 1.72 6.23 2.87 1.1.6 2.2 1.2 3.17 1.84.48.33.97.6 1.4.95.4.33.83.62 1.17.95.34.32.67.6.9.9.24.3.5.52.6.77l.44.75-.38-.8c-.1-.24-.36-.48-.58-.8-.2-.3-.54-.6-.87-.94-.32-.36-.73-.67-1.14-1.02-.4-.36-.88-.68-1.35-1.04-.96-.68-2.03-1.35-3.1-2-3.36-1.97-6.88-3.57-8.33-4.2.52-.33 1.05-.64 1.57-.92 2.5-1.34 4.95-2.32 7.08-3.08 1.98-.7 3.67-1.2 4.92-1.55 1.8-.06 3.6-.2 5.32-.44 4.33-.6 8.3-1.58 11.64-2.6 3.27-.98 5.95-2 7.84-2.74-1.07 4.2-2.13 8.2-3.2 11.9-2.8 9.64-5.8 17.44-8.4 22.7-1.3 2.6-2.46 4.6-3.3 5.92L671 599l1.46-1.92c.93-1.27 2.23-3.2 3.73-5.73 1.47-2.55 3.12-5.73 4.83-9.47 1.7-3.74 3.45-8.03 5.2-12.78 1.75-4.74 3.5-9.93 5.27-15.44l1.33-4.18.6-2.27c.18-.76.4-1.53.5-2.3.6-3.1.96-6.24 1.2-9.42.37-4.28.6-8.63.85-13 .43.48.9 1.02 1.35 1.64.44.55.88 1.15 1.3 1.8.48.65.9 1.36 1.36 2.1.9 1.48 1.77 3.15 2.62 4.96.43.9.8 1.87 1.2 2.83.4 1 .75 2 1.14 3.03.7 2.08 1.36 4.24 1.9 6.48.14.56.32 1.14.42 1.68l.33 1.72.35 1.74c.1.57.14 1.15.22 1.73.33 2.3.44 4.64.5 6.95-.02 1.15 0 2.3-.04 3.43l-.2 3.34c-.1 1.1-.22 2.16-.33 3.22-.14 1.05-.3 2.07-.46 3.07-.34 1.98-.7 3.86-1.12 5.57-.4 1.72-.82 3.3-1.23 4.66-.4 1.38-.8 2.57-1.15 3.54-.68 1.95-1.15 3.03-1.15 3.03s.5-1.07 1.23-3c.36-.97.8-2.14 1.23-3.5.45-1.38.9-2.94 1.36-4.65.46-1.7.9-3.6 1.28-5.58.17-1 .37-2.02.54-3.08l.43-3.25.3-3.37c.06-1.14.07-2.3.1-3.47 0-2.32-.04-4.7-.3-7.07-.07-.6-.1-1.2-.2-1.78l-.28-1.74-.3-1.72c-.1-.62-.26-1.16-.38-1.74-.5-2.3-1.1-4.5-1.77-6.64-.36-1.06-.68-2.1-1.06-3.1-.4-1-.77-2-1.18-2.94-.83-1.88-1.68-3.63-2.58-5.2-.45-.77-.87-1.53-1.34-2.2-.44-.7-.88-1.35-1.32-1.94-.86-1.2-1.72-2.16-2.43-2.96l-.22-.22.24-3.75c.45-6.53 1.1-13.1 2.34-19.48.42-2.16.9-4.3 1.43-6.4 2.44.9 5.8 2.26 9.6 4.28 3.98 2.1 8.45 4.93 12.58 8.7.5.44 1 .9 1.47 1.38-.38.62-.82 1.33-1.3 2.16l-1.18 2.13c-.4.77-.85 1.57-1.24 2.43-.4.85-.82 1.73-1.2 2.66-.4.9-.73 1.85-1.07 2.8-.38.93-.62 1.92-.92 2.86-.27.95-.44 1.9-.66 2.83-.15.93-.27 1.84-.38 2.7l-.1 2.42c.05.75.12 1.44.17 2.04.02.62.2 1.14.3 1.56.18.85.3 1.34.3 1.34l-.22-1.35c-.06-.43-.2-.94-.2-1.55l-.02-2.03.24-2.38c.17-.84.34-1.72.54-2.62.27-.88.5-1.8.82-2.72.35-.9.64-1.85 1.06-2.74.4-.9.8-1.8 1.23-2.67.42-.88.88-1.7 1.33-2.52.43-.82.92-1.57 1.34-2.3.46-.7.9-1.38 1.28-2 .42-.64.82-1.2 1.17-1.7 1.04 1.13 2.05 2.32 2.97 3.6 1.73 2.32 3.17 4.94 4.25 7.66.52 1.45 1.14 2.93 1.6 4.37.45 1.45.98 2.86 1.36 4.34.85 2.93 1.57 5.85 2.17 8.7 1.2 5.7 2 11.12 2.52 15.78s.78 8.57.9 11.3c.14 2.75.15 4.32.15 4.32s.12-1.56.2-4.3c.1-2.76.14-6.7 0-11.4-.15-4.73-.5-10.24-1.27-16.12-.07-.56-.17-1.14-.25-1.7.87-.16 2.15-.37 3.72-.57.76-.06 1.57-.17 2.44-.24.87-.06 1.8-.14 2.74-.17.95-.06 1.94-.07 2.94-.07 1-.03 2 .06 3.02.1 1.02.05 2.03.17 3.02.26 1 .15 1.97.27 2.9.46.93.23 1.84.4 2.67.65.83.3 1.63.52 2.34.8l1.9.82c.6.23 1.02.56 1.42.77l1.2.7-1.2-.74c-.38-.22-.8-.57-1.38-.82l-1.9-.9c-.7-.3-1.5-.54-2.32-.85-.83-.3-1.74-.5-2.67-.74-.94-.22-1.92-.38-2.9-.57-1-.13-2.03-.28-3.05-.37-1.02-.07-2.04-.18-3.05-.2-1-.02-2-.05-2.97-.02-.96 0-1.9.06-2.77.1-.9.04-1.72.12-2.5.18-1.57.14-2.86.3-3.76.45-.32-2.1-.67-4.24-1.1-6.4-.3-1.54-.73-3.1-1.08-4.66-.37-1.57-.85-3.03-1.28-4.55-.98-3.2-2.36-6.24-4.1-9.03-1.7-2.8-3.7-5.33-5.82-7.6-2.26-2.4-4.63-4.5-6.98-6.36.66-1.18 1.58-2.68 2.8-4.37 1.42-1.96 3.24-4.16 5.53-6.14 2.28-1.97 5.07-3.7 8.18-4.46l.32-.07c-.05.4-.1.9-.1 1.46 0 .73.03 1.6.2 2.5.06.45.17.9.3 1.37.1.47.28.92.43 1.38.18.46.37.9.56 1.34l.65 1.23.7 1.1c.24.33.5.63.7.9.43.6.87 1 1.14 1.32l.44.47-.4-.5c-.27-.34-.68-.78-1.06-1.38-.2-.3-.43-.6-.63-.97l-.62-1.1c-.2-.4-.38-.83-.57-1.25l-.46-1.33c-.1-.45-.26-.9-.33-1.35-.1-.45-.17-.9-.2-1.33-.1-.87-.08-1.7-.03-2.37.04-.7.16-1.26.24-1.64 0-.02 0-.03.02-.05 1.13-.17 2.27-.22 3.4-.14l.57.03.6.08 1.2.2c.8.1 1.58.23 2.36.34.78.1 1.5.28 2.23.47l2.1.52c.7.15 1.34.4 1.97.64l1.82.67c1.13.5 2.15 1.02 3.04 1.5.82.56 1.6.97 2.15 1.47l.75.6.5.52c.15.14.25.25.3.33l.1.12-.08-.13c-.06-.08-.15-.2-.3-.34-.1-.15-.28-.33-.46-.54-.2-.2-.46-.4-.73-.66-.5-.53-1.28-1-2.1-1.6-.86-.54-1.86-1.13-3-1.7l-1.8-.78c-.62-.27-1.26-.57-1.96-.76l-2.13-.67c-.73-.24-1.48-.48-2.25-.6l-2.34-.5-1.2-.25-.6-.12-.64-.08c-1.7-.22-3.46-.17-5.17.16-3.45.65-6.6 2.37-9.14 4.34-2.56 2-4.62 4.2-6.24 6.2-1.3 1.6-2.3 3.02-3.06 4.2-1.28-.93-2.54-1.78-3.75-2.56-4.15-2.63-7.82-4.46-10.44-5.65l-.37-.17c.54-1.55 1.1-3.07 1.73-4.56l1.88-4.05c.26-.65.75-1.4 1.13-2.1l1.2-2.1.6-1.06.3-.53.1-.13c-.05.06.12-.24-.08.12l.03-.05.16-.22 1.3-1.84c.4-.6.84-1.22 1.26-1.82l.64-.9.7-.86 2.8-3.4c.96-1.1 2-2.1 2.98-3.16l1.46-1.55 1.56-1.45 3.04-2.84 3.12-2.64 1.52-1.27 1.57-1.2 3.03-2.35 3.02-2.14c1.95-1.44 3.94-2.66 5.77-3.9 1.86-1.18 3.65-2.28 5.34-3.3 2.48-1.45 4.73-2.73 6.75-3.82.1.3.23.6.35.9 1.65 4.25 3.56 8.4 5.65 12.45 4.15 8.12 9.05 15.8 14.2 23.14 4.62 6.54 9.46 12.8 14.23 18.86-1.32 1.5-2.86 3.4-4.47 5.65-2.24 3.17-4.63 7.08-6.48 11.6-.26.63-.5 1.27-.74 1.92-.75-.1-1.74-.23-2.93-.34-1.33-.1-2.9-.22-4.56-.2-1.68-.02-3.46.1-5.22.27-.9.13-1.77.2-2.63.38-.85.2-1.7.3-2.5.56-.8.23-1.6.4-2.3.7-.7.26-1.4.45-2 .76l-1.63.77c-.47.25-.86.5-1.2.7l-1.02.63 1.07-.55c.35-.17.75-.4 1.24-.62.5-.2 1.07-.4 1.68-.65.6-.25 1.3-.4 2-.62.73-.23 1.5-.34 2.3-.5.8-.2 1.65-.26 2.5-.38.84-.1 1.7-.12 2.58-.2 1.73-.04 3.47-.02 5.1.1 1.6.1 3.1.33 4.4.52 1 .16 1.84.33 2.52.47-1.1 3.55-1.78 7.36-1.75 11.2.02.66.03 1.32.06 1.97l.18 1.97.6 3.7.82 3.68 1.03 3.5 1.2 3.3c.46 1.05.87 2.1 1.33 3.1.94 1.96 1.9 3.78 2.9 5.4.97 1.63 1.94 3.07 2.86 4.3.9 1.25 1.76 2.28 2.5 3.1 1.43 1.67 2.38 2.5 2.38 2.5s-.9-.88-2.23-2.63c-.66-.87-1.45-1.94-2.27-3.23-.84-1.27-1.7-2.76-2.57-4.42-.87-1.66-1.7-3.5-2.5-5.5-.4-1-.73-2.03-1.1-3.08l-.98-3.3-.78-3.44-.37-2.27c.68-.07 1.67-.16 2.9-.23 1.17-.06 2.55-.1 4.03-.05.73.04 1.5.05 2.27.13.77.05 1.56.14 2.34.26.78.1 1.55.27 2.3.42.78.14 1.5.4 2.2.58.7.23 1.37.5 2 .75.62.3 1.18.6 1.7.87.5.3.94.65 1.34.92.42.25.68.58.94.82l.78.76-.75-.8c-.25-.24-.5-.58-.9-.86s-.82-.64-1.32-.97c-.52-.3-1.08-.64-1.7-.96-.62-.27-1.27-.58-1.98-.84-.7-.2-1.44-.5-2.2-.67-.77-.2-1.54-.4-2.33-.52-.8-.14-1.58-.26-2.36-.34-.78-.1-1.56-.16-2.3-.22-1.5-.1-2.9-.12-4.1-.1-1.27 0-2.3.07-3.02.12l-.05-.3-.37-3.73-.06-1.77c0-.6.04-1.2.05-1.82.27-4.83 1.74-9.52 3.72-13.6 1.98-4.1 4.44-7.6 6.73-10.44 1.43-1.77 2.8-3.27 4-4.5 4.9 6.2 9.68 12.27 13.72 18.35 2.15 3.28 4.1 6.57 5.54 9.88.3.82.7 1.66.94 2.46l.87 2.76c.48 1.75.96 3.43 1.32 5.22 1.55 7.04 1.92 13.96 1.65 20.34-.1 2-.26 3.93-.47 5.82-2.7.56-8.22 1.84-13.54 3.83-1.85.7-3.67 1.47-5.33 2.3-1.65.84-3.13 1.75-4.32 2.65-.6.45-1.1.9-1.54 1.32-.4.43-.77.8-1.03 1.15-.28.32-.45.62-.58.8l-.2.3.2-.28c.13-.2.3-.48.6-.8.27-.34.64-.7 1.07-1.12.45-.4.97-.82 1.57-1.25 1.2-.85 2.7-1.7 4.37-2.5 1.68-.77 3.5-1.48 5.37-2.1 3.72-1.27 7.55-2.2 10.44-2.8 1.1-.2 2.07-.4 2.84-.53l-.3 2.35c-.46 2.9-1 5.64-1.6 8.2-1.25 5.1-2.72 9.47-4.1 13-1.37 3.54-2.64 6.26-3.56 8.08-.92 1.8-1.48 2.75-1.48 2.75s.65-.88 1.74-2.6c1.1-1.74 2.63-4.33 4.36-7.76 1.72-3.43 3.63-7.7 5.38-12.8.87-2.54 1.7-5.3 2.44-8.23.72-2.94 1.36-6.08 1.84-9.4l.06-.45.75 1.4c.56 1 1.17 2.05 1.84 3.1.7 1.02 1.4 2.12 2.2 3.14.4.5.8 1.03 1.2 1.55l1.28 1.5c.83 1.03 1.78 1.95 2.7 2.87.87.96 1.9 1.74 2.8 2.57.9.83 1.9 1.48 2.8 2.17.87.7 1.78 1.27 2.62 1.78.83.5 1.57 1.03 2.28 1.4l1.83.93 1.6.82-1.53-.93-1.75-1.07c-.67-.4-1.37-.97-2.16-1.54-.78-.57-1.64-1.18-2.46-1.94-.82-.74-1.76-1.44-2.58-2.34-.83-.88-1.77-1.7-2.56-2.7-.82-.96-1.68-1.92-2.4-2.97l-.72-.94.4-.37c.58-.57 1.45-1.35 2.58-2.2.56-.43 1.2-.85 1.86-1.3.67-.45 1.4-.88 2.17-1.32.8-.4 1.57-.86 2.43-1.2l1.28-.57 1.33-.47c.87-.35 1.78-.57 2.68-.8.9-.3 1.8-.4 2.67-.57.87-.2 1.73-.2 2.54-.3.8-.1 1.56-.08 2.27-.08.7.02 1.37-.02 1.94.04l1.5.15 1.3.13-1.3-.18-1.48-.2c-.57-.08-1.23-.05-1.94-.1-.72-.02-1.5-.06-2.3.02-.82.07-1.7.04-2.58.2-.88.16-1.8.23-2.7.48-.93.22-1.87.4-2.77.74l-1.36.44c-.44.17-.9.35-1.32.53-.9.32-1.7.77-2.52 1.15-.8.42-1.56.83-2.26 1.27-.7.43-1.36.85-1.95 1.27-1.18.83-2.1 1.6-2.74 2.16l-.3.28-.92-1.4c-.7-1.03-1.28-2.13-1.9-3.17-.55-1.06-1.07-2.1-1.54-3.08-.44-1-.87-1.94-1.2-2.84-.44-1.1-.78-2.07-1.05-2.9.37-5.03.35-10.37-.32-15.9-.2-1.93-.56-3.94-.9-5.94l-.62-2.84c-.23-1.1-.53-2.08-.8-3.14-.7-2.26-1.53-4.45-2.47-6.6.76.1 1.58.2 2.45.35 1.2.2 2.47.4 3.8.67l2.08.4 2.15.5c1.46.3 2.94.76 4.46 1.15 1.5.44 3 .93 4.53 1.43 1.5.57 3 1.06 4.45 1.7 1.43.64 2.9 1.17 4.2 1.9 1.32.7 2.66 1.28 3.8 2.04l1.72 1.03c.55.34 1.1.66 1.56 1.03l2.65 1.93c.78.6 1.38 1.2 1.92 1.64l1.65 1.47-1.6-1.52c-.5-.47-1.1-1.1-1.85-1.73l-2.58-2.05c-.46-.4-1-.73-1.53-1.1l-1.67-1.1c-1.13-.8-2.45-1.45-3.76-2.2-1.3-.8-2.74-1.4-4.16-2.1-1.42-.7-2.94-1.25-4.43-1.9-1.5-.55-3.03-1.1-4.53-1.6-1.53-.47-3-.98-4.48-1.35l-2.15-.6c-.7-.15-1.4-.32-2.07-.48-1.35-.34-2.64-.57-3.83-.82-1.34-.26-2.54-.47-3.6-.64-.5-1.07-1.02-2.15-1.56-3.22-3.85-7.57-8.4-14.84-12.87-22.17-4.5-7.3-8.97-14.68-13.03-22.14-4.03-7.47-7.68-15.03-10.48-22.6-1.42-3.77-2.64-7.55-3.6-11.3-.54-1.92-.84-3.53-1.27-5.4l-.6-3.06-.07-.38-.03-.2.03.12v-.08l-.1-.66c-.07-.43-.15-.86-.2-1.3-.87-6.94-.5-13.8.63-20.2.76-4.37 1.88-8.53 3.2-12.45.76 1.34 1.6 2.72 2.5 4.12 3.66 5.6 8.46 11.74 15.32 17.03 3.43 2.62 7.4 4.96 11.84 6.67l.5.2.36.12.73.25c.5.17.97.34 1.56.52l1.7.55c.55.15 1.1.3 1.65.47 2.23.6 4.5 1.13 6.83 1.52 8 1.44 16.5 1.57 25.03.54 1.2.23 2.54.5 4.02.9 3.23.83 7.1 2.1 11.12 4.22.52.24 1 .55 1.5.85.5.3 1.02.6 1.5.92.66.48 1.36.94 2.03 1.45.06.5.12 1.02.17 1.62.25 2.95.42 7.25-.34 12.27-.4 2.5-1.02 5.18-2.08 7.86-.52 1.35-1.15 2.7-1.9 4-.35.58-.83 1.36-1.24 1.96-.4.63-.88 1.27-1.36 1.9-2.7 3.54-6.27 6.73-10.4 9.04-.35-.02-.88-.06-1.57-.13-1.3-.13-3.17-.34-5.38-.73-2.22-.4-4.8-.96-7.4-1.9l-.03-.02c-.07-.18-.13-.4-.2-.66-.2-.72-.48-1.75-.73-3-.12-.63-.24-1.32-.32-2.04-.1-.73-.17-1.5-.2-2.3 0-.4 0-.8.02-1.2 0-.4.05-.8.1-1.22.1-.83.34-1.63.66-2.4.2-.35.38-.74.64-1.05.27-.32.54-.67.84-.93.58-.58 1.28-1.06 1.94-1.5.7-.4 1.38-.77 2.05-1.07.66-.3 1.32-.55 1.93-.75 2.45-.82 4.17-1.05 4.17-1.05s-1.73.17-4.22.9c-.62.2-1.3.42-1.98.7-.7.27-1.4.6-2.12 1-.7.43-1.4.88-2.05 1.5-.35.27-.62.6-.9.92-.3.35-.5.74-.75 1.13-.37.8-.66 1.66-.78 2.52-.08.43-.15.86-.16 1.28-.04.43-.06.84-.06 1.25-.02.83.03 1.62.1 2.37s.17 1.45.27 2.1c.2 1.27.43 2.32.6 3.06-.9-.4-1.8-.85-2.65-1.4-1.2-.8-2.22-1.77-2.77-3.13-.35-.7-.58-1.37-.85-2.06-.22-.7-.46-1.4-.65-2.14-.4-1.43-.75-2.86-1.12-4.24-.35-1.38-.73-2.72-1.18-3.96-.2-.63-.47-1.2-.7-1.8-.27-.54-.52-1.1-.8-1.6-.6-1-1.23-1.83-1.86-2.5l-.95-.92-.9-.64c-.26-.2-.52-.35-.75-.46l-.6-.3-.48-.24.48.26c.15.1.35.2.57.32.23.12.48.27.74.5l.86.66.9.93c.6.7 1.2 1.56 1.72 2.56.26.5.48 1.05.73 1.6.2.58.44 1.16.62 1.8.37 1.23.7 2.56 1 3.95.3 1.4.6 2.84.95 4.3.16.75.38 1.48.58 2.22.24.74.48 1.5.8 2.2l.2.52.3.56c.2.36.46.7.73 1 .52.63 1.14 1.13 1.77 1.6 1.27.9 2.64 1.6 3.98 2.16 2.7 1.12 5.34 1.8 7.6 2.3 1.58.35 2.98.6 4.14.78-.78.33-1.58.62-2.4.88-3.24 1.06-6.67 1.54-10.03 1.4-3.35-.14-6.68-.86-9.63-2.12-2.95-1.28-5.52-3.15-7.72-5.17s-4.07-4.18-5.7-6.23c-3.25-4.13-5.64-7.83-7.4-10.35-1.73-2.54-2.78-3.95-2.78-3.95s1 1.44 2.66 4.03c1.68 2.58 3.94 6.35 7.08 10.6 1.6 2.13 3.4 4.36 5.58 6.5 2.2 2.12 4.77 4.15 7.83 5.6 2.17 1 4.5 1.72 6.94 2.17-1.1.38-2.48.9-3.98 1.67-1.96 1-4.2 2.4-6.05 4.5-.92 1.03-1.73 2.24-2.3 3.6-.6 1.33-.9 2.8-.96 4.3v1.1l.1 1.1.2 2.13.1 1.07c.05.35.14.7.2 1.04l.4 2.06.2 1c.1.32.2.63.28.95l.55 1.85.27.9c.1.27.2.55.32.83l.6 1.58c.4 1.03.87 1.9 1.23 2.72.37.8.76 1.46 1.06 2.02.63 1.1 1.04 1.7 1.04 1.7s-.4-.6-1-1.72c-.3-.57-.67-1.24-1.03-2.04-.34-.82-.8-1.7-1.16-2.74l-.56-1.6-.3-.83c-.1-.3-.17-.6-.25-.9l-.52-1.83c-.08-.32-.18-.63-.25-.96l-.18-1-.36-2c-.07-.36-.14-.7-.18-1.05l-.08-1.06-.15-2.15-.1-1.08.03-1.06c.1-1.42.42-2.82 1-4.1.57-1.26 1.37-2.4 2.28-3.36 1.82-1.96 4-3.27 5.92-4.2 1.94-.92 3.65-1.47 4.85-1.8.42-.13.77-.22 1.06-.28l.78.07c3.04.26 6.16.02 9.2-.68l.8.94c.7.87 1.7 2.14 2.76 3.75 1.03 1.56 2.14 3.43 3.07 5.54-1.5.54-5.15 1.94-8.6 3.82-1.12.6-2.23 1.24-3.2 1.92-.5.32-.96.67-1.4 1-.43.34-.8.7-1.16 1.02-.36.3-.64.64-.9.94-.25.3-.47.54-.6.8l-.46.73.5-.72c.15-.23.38-.48.65-.75.26-.28.55-.6.93-.9.36-.3.75-.62 1.2-.92.44-.32.9-.64 1.42-.93 1-.63 2.12-1.2 3.25-1.75 2.26-1.1 4.62-1.98 6.4-2.6 1.02-.35 1.84-.6 2.36-.77.15.34.3.68.4 1.04.2.58.4 1.17.54 1.78l.23.92.15.94c.13.63.13 1.26.16 1.9l.03.45-.02.5-.06.97c-.06.64-.2 1.24-.28 1.87l-.45 1.82c-.2.6-.38 1.2-.6 1.75-.84 2.3-1.9 4.32-2.92 6-1 1.68-1.97 3-2.66 3.93s-1.13 1.4-1.13 1.4.45-.47 1.18-1.35c.74-.88 1.76-2.17 2.86-3.8 1.1-1.66 2.28-3.65 3.25-5.94.24-.56.44-1.16.67-1.76.2-.6.38-1.24.56-1.87.13-.65.3-1.32.4-1.97l.1-.98.05-.5v-.52c0-.68.03-1.36-.08-2.03l-.1-1-.2-.98c-.12-.67-.3-1.3-.48-1.92-.17-.63-.4-1.23-.6-1.82-.9-2.36-2-4.44-3.03-6.15-1.04-1.7-2-3.08-2.7-4.02-.1-.1-.17-.2-.24-.3 3.27-1 6.4-2.5 9.18-4.4 2.96-2.02 5.57-4.43 7.75-7.06.53-.66 1.05-1.32 1.55-2.02l.1-.14h.2c.97.07 2.36.2 4 .5.83.13 1.7.34 2.63.6.9.3 1.86.63 2.76 1.13.92.46 1.78 1.1 2.44 1.93.15.2.35.4.46.63l.4.74c.2.5.43 1 .56 1.54.34 1.06.46 2.18.58 3.27.07 1.1.1 2.2.03 3.26-.05 1.05-.15 2.07-.3 3.02-.14.96-.32 1.86-.52 2.68-.2.83-.42 1.57-.62 2.23-.22.64-.42 1.2-.62 1.66-.17.46-.36.8-.47 1.05-.1.25-.17.37-.17.37l.18-.36c.12-.22.3-.56.5-1.02.2-.45.43-1 .66-1.66.23-.65.48-1.4.7-2.22.2-.82.42-1.72.6-2.68.17-.96.3-1.98.38-3.04.1-1.06.1-2.17.06-3.3-.08-1.1-.18-2.26-.5-3.37-.12-.55-.35-1.1-.56-1.64l-.37-.76c-.15-.28-.34-.5-.5-.73-.7-.93-1.63-1.65-2.58-2.17-.94-.56-1.93-.93-2.86-1.26-.93-.3-1.83-.54-2.68-.7-1.5-.33-2.76-.5-3.73-.58l.64-1c.9-1.4 1.64-2.86 2.26-4.3 1.27-2.9 2.05-5.8 2.57-8.47.78-4.16.95-7.8.9-10.7l.36.4.6.72c.4.45.8 1.02 1.17 1.58 1.56 2.23 2.84 4.8 3.9 7.72 1.1 2.9 2 6.13 3.04 9.5 1.05 3.4 2.2 6.93 3.74 10.42.78 1.73 1.56 3.5 2.5 5.2l.68 1.3.17.32.1.18.04.07.1.16.36.6c.5.82.97 1.62 1.5 2.44 2.37 3.5 5.1 6.52 8.33 9.22 2.2 1.87 4.67 3.43 7.28 4.74l-.1.3c-.47 1.57-1.05 3.82-1.52 6.56-.47 2.74-.82 5.97-.87 9.44 0 1.73.03 3.52.2 5.33.13 1.8.4 3.63.72 5.44.35 1.8.76 3.6 1.3 5.34.25.86.5 1.72.83 2.55.3.84.6 1.65.94 2.44.32.8.66 1.57 1.04 2.3.35.75.7 1.48 1.1 2.17.7 1.4 1.5 2.64 2.23 3.8.8 1.13 1.48 2.18 2.17 3.05.7.85 1.25 1.64 1.8 2.23l1.63 1.88-1.54-1.95c-.5-.6-1.02-1.43-1.67-2.33-.65-.9-1.27-1.97-2-3.12-.64-1.2-1.37-2.47-2-3.88-.36-.7-.66-1.42-.97-2.18-.33-.74-.62-1.52-.9-2.3-.3-.8-.56-1.62-.8-2.45l-.3-1.03.5-.2c.34-.1.73-.25 1.2-.37.46-.14 1-.26 1.57-.4s1.22-.22 1.9-.3c.68-.1 1.4-.18 2.14-.2.75-.06 1.52-.04 2.3-.03.8 0 1.6.1 2.4.16.78.1 1.57.24 2.35.36l2.25.5 2.07.66c.67.2 1.26.48 1.82.7.56.2 1.1.4 1.52.63l1.15.55c.64.3 1 .5 1 .5l-.97-.54c-.32-.15-.7-.36-1.13-.6-.42-.24-.94-.45-1.5-.7-.55-.23-1.14-.53-1.8-.76l-2.06-.73-2.27-.6c-.78-.16-1.58-.33-2.38-.46-.82-.08-1.62-.23-2.42-.26-.8-.05-1.6-.1-2.36-.06-.77 0-1.5.06-2.2.1-.7.08-1.37.16-1.97.27-.6.1-1.17.2-1.65.33-.5.1-.9.24-1.26.34l-.45.15-.16-.56c-.43-1.7-.73-3.48-1-5.25-.2-1.77-.37-3.55-.4-5.3-.1-1.76-.02-3.5.07-5.16.23-3.34.72-6.42 1.3-9.02.6-2.58 1.25-4.7 1.77-6.14.32.14.64.28.96.4 7.9 3.2 16.56 3.76 24.83 3.08 1.05-.04 2.08-.2 3.1-.34l3.1-.43c2.04-.34 4.05-.82 6.07-1.2 2-.5 3.97-1.06 5.95-1.58 1.9-.5 3.88-1.08 5.74-1.48 1.03-.23 2.05-.44 3.08-.64.07.6.16 1.33.4 2.15.2.54.38 1.15.67 1.74.25.6.58 1.2.93 1.83.35.63.8 1.22 1.2 1.85.5.57.93 1.2 1.47 1.73.53.55 1.02 1.13 1.6 1.6.58.47 1.1 1 1.7 1.4.56.4 1.1.8 1.64 1.17l1.58.94c.47.3.93.56 1.34.75l1.06.53.93.46-.9-.5-1.03-.57c-.4-.2-.85-.47-1.3-.8-.48-.3-1-.64-1.52-1-.52-.38-1.04-.8-1.6-1.23-.56-.4-1.05-.96-1.6-1.44s-1-1.08-1.5-1.62c-.5-.55-.9-1.18-1.36-1.75-.38-.62-.8-1.2-1.1-1.83-.3-.6-.6-1.2-.82-1.8-.25-.58-.38-1.17-.55-1.68-.2-.8-.3-1.5-.37-2.08 6.37-1.18 12.8-1.8 19.06-2.15 4.2-.23 8.34-.3 12.4-.26-.16.3-.32.62-.46 1.02-.22.5-.36 1.1-.54 1.76-.12.66-.28 1.38-.3 2.15-.1.77 0 1.57.03 2.4.05.42.13.84.2 1.26.06.43.13.85.27 1.27l.37 1.26c.1.43.3.82.47 1.23l.52 1.2c.2.4.4.77.62 1.15l.62 1.12.72 1.03c.48.66.88 1.35 1.4 1.9l1.36 1.62c.4.5.86.9 1.23 1.3l.97.97.85.83-.82-.87-.93-1c-.36-.4-.8-.82-1.18-1.34l-1.3-1.66c-.5-.56-.86-1.26-1.32-1.93l-.66-1.04c-.2-.4-.4-.76-.58-1.14-.2-.38-.4-.76-.58-1.15l-.46-1.2c-.14-.4-.33-.8-.43-1.2l-.3-1.24c-.12-.4-.18-.82-.22-1.23-.05-.4-.12-.8-.15-1.2 0-.8-.06-1.58.06-2.3.03-.73.2-1.4.34-2 .2-.6.34-1.17.56-1.63.2-.48.42-.86.58-1.2l.1-.14c2.84.03 5.65.1 8.38.24 6.94.36 13.5 1 19.5 1.83 12.03 1.7 21.9 4.28 28.4 7.14 3.23 1.42 5.6 2.94 7.02 4.2.36.3.67.6.94.83l.58.7c.3.4.47.58.47.58l-.45-.6c-.16-.18-.34-.43-.57-.7l-.9-.9c-1.4-1.3-3.73-2.9-6.96-4.42-6.45-3.1-16.3-5.98-28.34-8.06-3.68-.63-7.58-1.18-11.64-1.65l.05-.13c.16-.3.33-.7.58-1.13.23-.44.52-.9.87-1.4.33-.5.75-1.02 1.18-1.56.48-.52.95-1.08 1.53-1.58.53-.54 1.17-1 1.8-1.5.64-.5 1.36-.87 2.04-1.32.73-.35 1.45-.75 2.2-1.06.75-.28 1.48-.6 2.22-.82l2.13-.56c.7-.15 1.36-.23 1.97-.34.6-.1 1.17-.2 1.67-.2l1.3-.1 1.14-.07-1.13.02c-.36 0-.8.03-1.3.04-.5 0-1.08.06-1.7.15-.6.1-1.28.15-1.98.27l-2.2.5c-.75.2-1.5.48-2.3.73-.75.3-1.5.67-2.27 1-.7.43-1.47.8-2.14 1.28-.68.48-1.35.94-1.93 1.48-.62.5-1.13 1.05-1.64 1.57-.48.54-.94 1.06-1.3 1.57-.38.5-.7 1-.97 1.44-.28.43-.48.84-.65 1.17l-.2.43c-2.26-.25-4.56-.5-6.92-.68-7-.55-14.4-.85-22.05-.7-7.67.2-15.6.76-23.6 2.32-2.07.37-3.94.87-5.96 1.34-1.93.45-3.86.94-5.8 1.34-1.96.32-3.92.72-5.88.98l-2.97.32c-.98.1-1.97.23-2.95.23-3.22.17-6.44.12-9.6-.2.2-.8.5-1.77.93-2.86.28-.74.63-1.53 1-2.36.4-.83.85-1.68 1.33-2.56.53-.84 1.02-1.76 1.66-2.6l.9-1.28 1.05-1.22c.66-.85 1.45-1.57 2.2-2.3l.55-.57.6-.48 1.18-.97c.38-.33.78-.62 1.2-.88.4-.27.8-.53 1.17-.8.75-.53 1.54-.9 2.24-1.3.7-.35 1.34-.75 1.96-.98l1.57-.65 1.37-.55-1.4.52-1.58.6c-.63.2-1.26.58-2 .92-.72.37-1.53.72-2.3 1.25-.4.23-.8.5-1.2.75-.42.25-.84.52-1.23.85l-1.23.94-.63.48-.58.55c-.77.73-1.6 1.44-2.3 2.27l-1.07 1.22-1 1.28c-.67.83-1.2 1.74-1.76 2.6-.52.87-1 1.72-1.43 2.56-.4.84-.78 1.64-1.08 2.4-.5 1.17-.85 2.22-1.1 3.06-4.25-.5-8.38-1.47-12.18-3.16-3.44-1.52-6.67-3.42-9.38-5.9-2.72-2.4-5.1-5.25-6.94-8.1-3.13-5.17-5.27-10.52-6.92-15.92.2-.16.44-.32.68-.48.96-.68 2.15-1.46 3.54-2.33l2.24-1.33 2.54-1.38c1.8-.92 3.76-1.9 5.9-2.76 1.05-.48 2.17-.87 3.3-1.28.58-.2 1.16-.4 1.74-.62l1.8-.53c1.2-.35 2.43-.74 3.7-.97.64-.14 1.28-.28 1.92-.4l.96-.22.98-.14c1.32-.16 2.63-.38 3.97-.5 1.34-.05 2.68-.1 4.02-.17 1.33.02 2.68.13 4 .2l1.02.04 1 .17 1.96.3c.65.1 1.3.2 1.94.32l1.93.44 3.77.9c1.24.3 2.47.56 3.65.88l3.44 1c1.13.3 2.22.63 3.27.93 1.04.36 2.04.7 3 1.05.95.35 1.88.64 2.74 1 .86.35 1.67.7 2.43 1.02 1.55.6 2.78 1.36 3.84 1.9.52.28.95.6 1.34.83.4.24.73.47.96.68.5.4.73.65.73.65s-.23-.26-.72-.66c-.24-.22-.55-.46-.94-.7-.4-.26-.8-.58-1.33-.9-1.04-.53-2.26-1.33-3.8-1.96l-2.4-1.1c-.85-.37-1.78-.68-2.73-1.05l-2.98-1.1-3.26-1.03c-1.12-.35-2.27-.7-3.44-1.08-1.18-.36-2.4-.65-3.62-.98l-3.76-.98-1.9-.5-2-.36-2-.36-1-.2-1.02-.06c-1.36-.1-2.73-.23-4.1-.3l-4.1.1c-1.38.08-2.73.28-4.07.4l-1 .13-1 .18-1.96.37c-1.3.2-2.56.58-3.8.9-.63.18-1.25.34-1.86.5l-1.77.6c-1.17.4-2.33.77-3.4 1.23-2.22.84-4.24 1.78-6.1 2.67-.9.48-1.8.93-2.62 1.36-.8.47-1.6.9-2.32 1.32-1.43.85-2.68 1.62-3.68 2.3l-.18.12c-.16-.58-.33-1.15-.48-1.73-.92-3.3-1.74-6.65-2.85-9.93-1.1-3.28-2.54-6.5-4.4-9.32-.45-.7-.9-1.4-1.45-2.1l-.8-1c-.26-.32-.54-.7-.78-.94-.5-.52-1-1.05-1.47-1.57l-.18-.2-.1-.1-.15-.15-.05-.05-.44-.4c-.28-.25-.57-.5-.85-.77-1.12-1.07-2.34-1.9-3.5-2.8-.57-.4-1.17-.77-1.76-1.15-.58-.37-1.15-.74-1.75-1.05-1.15-.66-2.3-1.24-3.4-1.78 6.08-1.65 12.1-3.82 17.95-6.4 9.44-4.14 18.5-9.35 26.98-15.35.2-.14.4-.3.6-.43l1.54.65c1.34.57 3 1.23 4.88 1.97l3.03 1.14 3.4 1.2c2.36.78 4.93 1.63 7.7 2.4l2.07.6c.72.2 1.44.37 2.17.56 1.45.37 2.93.77 4.47 1.08 3.05.7 6.24 1.26 9.48 1.76l4.92.6c1.66.1 3.33.2 5 .32 1.66.05 3.34.02 5 .03.83.03 1.66-.07 2.5-.12l2.46-.2 1.23-.1h.06c.07.1.14.17.23.27.5.56 1.26 1.37 2.25 2.25.97.88 2.15 1.86 3.5 2.8.65.5 1.35.97 2.08 1.43.7.48 1.5.9 2.24 1.33.76.43 1.55.8 2.3 1.2.8.36 1.57.68 2.3 1 .77.33 1.52.58 2.2.84.7.28 1.4.45 2.02.64.62.18 1.18.4 1.7.5.52.1.96.22 1.33.3l1.17.27-1.16-.3-1.32-.36c-.5-.12-1.06-.34-1.68-.54-.6-.22-1.3-.4-1.98-.7-.68-.3-1.4-.58-2.15-.9-.72-.37-1.48-.72-2.24-1.1-.74-.43-1.5-.8-2.24-1.27-.73-.46-1.48-.9-2.16-1.4-.7-.47-1.38-.96-2-1.46-1.3-.98-2.4-2-3.33-2.9-.83-.78-1.47-1.5-1.95-2.05h.03l2.38-.37c1.56-.2 3.13-.6 4.66-.9 3.06-.7 5.94-1.58 8.6-2.58 1.36-.47 2.6-1.1 3.85-1.6 1.2-.6 2.34-1.2 3.44-1.8 2.14-1.25 4.06-2.5 5.62-3.77 1.6-1.23 2.85-2.48 3.85-3.5 1-1.08 1.7-1.96 2.14-2.6.46-.62.65-.98.65-.98s-.22.35-.7.95c-.47.62-1.23 1.46-2.24 2.47-1.05.98-2.34 2.15-3.98 3.3-1.6 1.18-3.55 2.32-5.7 3.45-1.12.52-2.27 1.06-3.48 1.58-1.25.44-2.5 1-3.84 1.4-2.66.85-5.53 1.6-8.52 2.1-1.5.24-3 .57-4.6.68-.78.1-1.58.17-2.38.25l-1.17.13-1.2.03-2.4.07c-.8.02-1.6.08-2.4 0-1.62-.07-3.24-.12-4.85-.24-1.6-.2-3.22-.38-4.83-.56l-.88-.15c0-.07.02-.12.03-.2.22-1 .56-2.42 1.1-4.1 1.06-3.36 2.9-7.76 5.66-11.6.68-.97 1.42-1.88 2.18-2.76.78-.88 1.6-1.68 2.4-2.44.42-.36.83-.7 1.23-1.06l1.25-.95c.83-.6 1.63-1.13 2.4-1.56.76-.47 1.5-.8 2.15-1.13.66-.27 1.24-.53 1.72-.72l1.54-.54-1.56.5c-.5.17-1.07.42-1.75.7-.66.3-1.42.62-2.2 1.06-.8.42-1.6.93-2.46 1.5l-1.28.92-1.27 1.05c-.85.74-1.7 1.53-2.5 2.4-.8.86-1.57 1.77-2.27 2.74-2.9 3.83-4.9 8.24-6.06 11.63-.64 1.84-1.04 3.37-1.28 4.4l-2.94-.5c-3.13-.63-6.2-1.32-9.13-2.14-1.48-.38-2.9-.84-4.3-1.27l-2.1-.64-2-.7c-2.65-.88-5.12-1.83-7.4-2.7-1.12-.47-2.2-.9-3.23-1.32l-2.9-1.25c-1.4-.63-2.66-1.2-3.75-1.72 6.58-5.05 12.75-10.6 18.27-16.7.86-.94 1.7-1.9 2.52-2.9l2.4-2.86c1.5-1.78 3.14-3.55 4.82-5.2 1.57-1.58 3.2-3.06 4.87-4.48.88-.3 1.88-.65 3.04-1 3.83-1.2 9.08-2.5 14.43-3.05 1.33-.1 2.67-.2 4-.22 1.32-.03 2.62.02 3.87.12 1.26.1 2.46.28 3.6.5 1.13.24 2.18.53 3.14.86.95.35 1.82.7 2.54 1.08.75.35 1.34.77 1.85 1.07.5.33.84.64 1.1.83l.4.3-.38-.33c-.24-.2-.57-.53-1.05-.9-.5-.33-1.06-.8-1.8-1.2-.7-.45-1.55-.86-2.5-1.28-.94-.4-2-.77-3.14-1.1-1.14-.3-2.36-.57-3.64-.76-1.3-.2-2.62-.34-3.98-.4-1.36-.08-2.74-.07-4.12-.05-4.35.15-8.66.78-12.27 1.5.26-.18.5-.38.77-.56 7.53-5.44 15.6-9.67 23.57-12.83 8-3.16 15.9-5.3 23.3-6.58 7.43-1.3 14.36-1.77 20.5-1.63 6.13.1 11.47.83 15.78 1.78 4.3.94 7.6 2.12 9.8 3.03 1.1.46 1.92.84 2.47 1.1.55.28.84.4.84.4l-.82-.43c-.54-.3-1.35-.7-2.43-1.22-2.14-1-5.4-2.35-9.7-3.5-4.3-1.16-9.66-2.15-15.87-2.55-6.2-.43-13.27-.27-20.9.7-7.62.97-15.8 2.76-24.17 5.64-3.38 1.16-6.78 2.5-10.18 4.04-.1-.2-.2-.44-.28-.7-.3-.8-.64-1.8-.85-3-.22-1.17-.34-2.53-.1-3.97.2-1.4.86-2.93 1.98-4.1.32-.3.64-.62.97-.9.36-.22.7-.48 1.07-.7.77-.42 1.6-.77 2.5-1.02 3.6-1.02 7.75-.76 11.76-1.65l1.5-.42c.47-.2.97-.33 1.42-.6.93-.44 1.76-1 2.57-1.6 1.63-1.2 3.13-2.46 4.52-3.77 1.4-1.3 2.7-2.62 3.85-3.92 1.17-1.28 2.2-2.58 3.1-3.8.45-.6.85-1.23 1.24-1.8l1.02-1.7.77-1.54.53-1.38c.23-.85.43-1.53.43-2l.06-.73-.08.72c0 .48-.22 1.15-.46 2l-.55 1.36-.8 1.53-1.03 1.67c-.4.56-.8 1.17-1.27 1.77-.93 1.2-1.96 2.48-3.16 3.75-1.16 1.28-2.47 2.57-3.87 3.85-1.4 1.27-2.92 2.52-4.54 3.66-.8.58-1.66 1.13-2.55 1.55-.43.25-.92.37-1.38.56-.48.14-.96.26-1.45.38-3.92.82-8.05.5-11.83 1.48-.95.25-1.85.6-2.7 1.05-.4.22-.8.52-1.2.77-.35.3-.66.6-1 .88-1.3 1.34-2.03 2.98-2.3 4.55-.27 1.57-.16 3.02.05 4.27.2 1.26.54 2.32.85 3.17.1.3.2.55.3.8-4.73 2.17-9.42 4.72-14 7.72-4.06 2.67-8.03 5.67-11.77 9.06-1.87 1.7-3.68 3.45-5.46 5.36l-2.5 2.74c-.8.9-1.64 1.76-2.5 2.63-2.94 2.97-6.08 5.8-9.36 8.48-.65-.85-1.44-1.9-2.26-3.15-.42-.62-.84-1.3-1.26-2.02-.45-.7-.84-1.5-1.27-2.3-.42-.82-.76-1.7-1.18-2.6-.3-.9-.73-1.85-1-2.84-.12-.5-.26-1-.4-1.5-.14-.53-.2-1.05-.3-1.58-.24-1.06-.23-2.13-.32-3.24.05-2.2.23-4.46 1.1-6.7.38-.94.95-2.05 1.6-3.06.3-.52.67-1 1-1.52.4-.5.76-1 1.16-1.47 3.23-3.87 7.28-7.2 11.14-10.2 3.88-3 7.63-5.7 10.75-8.13 1.57-1.22 2.98-2.37 4.18-3.45 1.2-1.1 2.2-2.07 2.94-2.96.4-.44.68-.86.96-1.22l.62-.96.44-.84-.52.8c-.17.25-.42.55-.68.9-.3.32-.63.72-1.05 1.1-.8.83-1.87 1.7-3.13 2.68-1.27.97-2.75 2-4.4 3.06-3.3 2.15-7.24 4.5-11.4 7.2-4.15 2.72-8.57 5.75-12.45 9.66-.5.5-.94 1.02-1.42 1.52-.44.55-.9 1.07-1.3 1.64-.43.57-.85 1.14-1.22 1.76-.38.58-.73 1.27-1.07 1.95-.14.27-.22.47-.3.68l-1.5.27c-1.78.28-4.33.65-7.4.9-1.53.1-3.2.18-4.94.17-1.74 0-3.6-.1-5.43-.4-1.85-.28-3.72-.76-5.3-1.68-.18-.12-.38-.23-.56-.36l-.26-.2-.13-.1-.06-.06-.05-.02-1.06-1.1c-.6-.77-1.18-1.45-1.7-2.36l-.46-.83.18-1.6c.15-1.22.4-2.96.75-5.03.37-2.06.85-4.47 1.6-6.97.37-1.25.82-2.52 1.4-3.73.6-1.17 1.3-2.4 2.44-2.9.33-.15.64-.3.95-.37.3-.1.6-.2.94-.25.33-.06.66-.14 1-.18l1-.1c1.36-.03 2.72 0 4 .24 1.3.2 2.52.53 3.67.9.55.22 1.1.4 1.62.64.5.26 1 .47 1.45.75.9.5 1.68 1.1 2.33 1.65l.84.85c.25.28.43.57.62.8.4.5.55.96.72 1.24l.23.46-.22-.47c-.16-.3-.3-.77-.67-1.27-.17-.25-.34-.55-.58-.84l-.82-.9c-.63-.6-1.38-1.23-2.3-1.8-.43-.3-.94-.54-1.44-.82-.52-.27-1.07-.5-1.63-.74-1.16-.42-2.4-.83-3.72-1.07-1.3-.3-2.7-.42-4.12-.43l-1.07.05c-.35.02-.7.1-1.08.13-.35.04-.73.16-1.1.25-.4.1-.72.23-1.03.38-.74.25-1.4.84-1.87 1.4-.48.6-.87 1.22-1.22 1.85-.67 1.27-1.2 2.58-1.64 3.85-.88 2.55-1.48 4.98-1.94 7.06-.33 1.47-.58 2.76-.78 3.83-.2-.5-.4-1-.58-1.52-.32-.96-.67-1.9-.9-2.87l-.4-1.43-.3-1.44c-.24-.93-.4-1.87-.53-2.8-.17-.92-.25-1.83-.34-2.72-.13-.9-.15-1.75-.2-2.6-.06-.84-.03-1.65-.03-2.43 0-.78.04-1.52.1-2.23.06-.7.1-1.4.2-2l.3-1.77.35-1.47c.18-.9.5-1.55.64-2.02l.26-.7-.3.68c-.17.46-.53 1.1-.77 2l-.45 1.44c-.13.54-.24 1.13-.38 1.76-.16.63-.24 1.3-.33 2.02-.12.72-.22 1.47-.25 2.26-.06.8-.13 1.62-.12 2.47 0 .85-.03 1.73.03 2.64.04.9.07 1.84.18 2.8.1.94.2 1.92.36 2.9l.23 1.5c.1.48.2.98.32 1.48.18 1.02.5 2 .75 3.03.62 2 1.32 4.05 2.37 5.98.45.96 1.16 1.96 1.8 2.85l1.03 1.2.07.07.02.02.03.03.1.08.15.14.34.3c.23.2.47.35.7.52 1.94 1.3 4.05 1.93 6.06 2.38 2.02.44 3.98.64 5.83.77 1.86.1 3.6.13 5.2.1 3.08-.04 5.63-.25 7.48-.43-.1.42-.16.85-.22 1.28-.08.7-.22 1.37-.25 2.05 0 1.35-.1 2.7.07 4 .07.64.1 1.3.2 1.9l.34 1.85c.23 1.22.6 2.34.9 3.46l.2.63c-.28.2-.6.44-.94.67-.7.45-1.48.94-2.38 1.42-.9.47-1.88.95-2.97 1.36-1.07.42-2.23.8-3.47 1.06l-.94.2-.97.12c-.32.04-.65.1-.98.12l-1 .03c-.65.06-1.32 0-2-.04-.67 0-1.32-.13-2-.23-1.36-.2-2.66-.55-3.94-.96-.62-.23-1.24-.47-1.84-.72-.6-.3-1.2-.54-1.73-.88-1.12-.6-2.12-1.34-3.03-2.08-.45-.4-.85-.8-1.25-1.17-.37-.4-.76-.77-1.08-1.18-.65-.78-1.2-1.55-1.63-2.26-.45-.72-.77-1.37-1.03-1.9-.24-.55-.42-1-.53-1.3-.1-.3-.17-.45-.17-.45l.16.46c.1.32.27.76.52 1.3.24.56.55 1.22.98 1.94.4.73.95 1.5 1.6 2.3.3.43.7.8 1.05 1.23.4.4.8.8 1.25 1.2.9.76 1.9 1.53 3.02 2.18.54.35 1.15.6 1.74.93.6.27 1.24.53 1.88.77 1.27.45 2.63.84 3.98 1.07.67.1 1.35.26 2.05.3.7.05 1.4.12 2.07.1l1.02-.03 1-.1 1-.1.96-.2c1.3-.23 2.5-.6 3.62-1 1.13-.4 2.16-.87 3.1-1.33.92-.48 1.75-.96 2.47-1.4.28-.2.53-.36.78-.52.2.54.38 1.07.6 1.57.4.97.78 1.9 1.22 2.76.4.88.83 1.68 1.24 2.43.8 1.5 1.6 2.76 2.27 3.8l.15.2c-2.73 2.03-5.52 3.97-8.37 5.8-8.33 5.35-17.17 9.88-26.18 13.36-9 3.47-18.2 5.88-27.17 6.9-5.77.68-11.43.75-16.82.25l1.66-1.2c3.56-2.66 7.64-5.86 11.77-9.62 4.12-3.77 8.35-8.04 11.77-13.1 1.7-2.52 3.18-5.27 4.04-8.26l.32-1.13.2-1.16.1-.58v-.14l.03-.13v-.07l.02-.27.08-1.05c.04-.7.1-1.37.12-2.1v-2.16c-.13-2.84-.46-5.56-1.3-8.04-.8-2.47-1.93-4.68-3.3-6.48-1.4-1.77-2.97-3.12-4.46-4.14-.76-.48-1.46-.94-2.18-1.26-.68-.36-1.35-.62-1.94-.85-.6-.26-1.15-.4-1.62-.54-.48-.16-.9-.25-1.22-.32l-1.02-.22 1 .3c.32.1.72.24 1.17.43.45.2.98.38 1.54.68.57.28 1.2.6 1.83 1 .66.37 1.3.88 2 1.4 1.35 1.1 2.72 2.5 3.88 4.27 1.13 1.78 2 3.9 2.53 6.24.58 2.3.66 4.9.55 7.5l-.15 1.94-.05.35c-1.27-1.3-3.05-3-5.34-4.9-2.42-1.98-5.36-4.2-8.97-5.9-1.8-.82-3.8-1.5-5.98-1.66-.54-.04-1.1-.03-1.64 0-.27.02-.54.1-.82.13l-.75.13-1.5.27c-.5.08-1 .13-1.48.2-1.97.25-4.02.37-6 .47-2 .1-3.97.14-5.88.16h-2.05c-.34-.23-.72-.47-1.1-.78l-1.5-1.15c-.55-.4-1.08-.85-1.63-1.33-.55-.48-1.15-.95-1.68-1.5-.53-.54-1.1-1.05-1.6-1.64-.5-.58-1.06-1.12-1.5-1.74l-.66-.9.68-.6c.44.66.9 1.3 1.36 1.88.6.76 1.2 1.44 1.75 1.97.26.3.55.5.78.7.24.22.45.38.65.5l.6.37-.55-.45c-.18-.13-.37-.32-.57-.55-.2-.22-.46-.46-.68-.77-.48-.58-.98-1.3-1.46-2.12-.3-.46-.57-.97-.84-1.48l.96.65c.48.34 1 .62 1.46.9.46.3.9.55 1.3.8.4.26.82.42 1.16.6l.9.44.77.37-.22-.14c-.05-.08-.4-.57-.96-1.3-.26-.43-.56-.92-.9-1.44-.3-.55-.6-1.13-.92-1.7-.44-.9-.87-1.78-1.22-2.55l2.1-2.95.23.33c.43.63.92 1.28 1.4 1.94.48.66 1 1.3 1.47 1.9.23.3.5.56.72.83l.65.73c.2.24.42.42.6.6l.46.43.4.38-.34-.44-.4-.5c-.14-.2-.33-.4-.48-.66l-.53-.82c-.2-.3-.4-.6-.58-.92-.36-.66-.78-1.35-1.15-2.06-.36-.72-.74-1.42-1.06-2.1-.16-.34-.3-.66-.46-.97l.3-.44c.1.1.16.2.24.28.55.72 1.18 1.44 1.8 2.17.6.74 1.26 1.43 1.85 2.1.3.34.6.63.9.92l.8.8c.25.27.53.46.74.66.22.18.4.35.57.48l.5.42-.44-.48-.5-.56c-.2-.22-.42-.43-.63-.73-.2-.3-.45-.6-.7-.9-.23-.34-.5-.66-.75-1.03-.5-.74-1.05-1.5-1.55-2.3-.5-.8-1.02-1.58-1.47-2.34l-.4-.65 5.4-4.84 4.02-6.6 7.88-3.7 7.05-5.28 7.5-4.46 7.9-3.7 8.4-2.5 7.36-4.57 8.43-1.42 8.27-1.9 8.43-1.38 7.8-3.6 8.23-1.9 9-2.16 9.22-1.08 9-1.6 6.68-4.5 6.43-5.05 6.45-5.02 6.83-4.52 6.82-4.68 7.7 1.32 7.68-.13 7.6 1.3 7.65.42 7.66.3 7.63.62 7.7-.38 7.67.36 7.7-.37 7.65.74 7.97.1 7.14 5.75 8.65 2.2 6.65 6.2 8.62 1.7 7.1.52 7.36-.48 7.44.85 7.34-.7 7.23-2.65 7.02 1.76 5.8 4.74 5.4 5.64 6.76 1.6 6.88 1.48 2.7.5c.96 2.08 2 4.4 3.08 6.9.63 1.48 1.3 3.04 1.97 4.65.1.2.18.43.26.64-1 .43-1.98.84-2.95 1.3-1.87.86-3.7 1.77-5.54 2.73-.4-.13-.85-.26-1.37-.4-.73-.18-1.56-.35-2.45-.5l-.4-.8c-.38-.8-.85-1.85-1.2-2.95-.2-.55-.33-1.1-.44-1.63-.06-.27-.1-.53-.12-.78-.05-.24-.03-.47-.05-.7-.02-.2.02-.4.02-.58 0-.2.02-.34.06-.47l.1-.4-.14.4c-.05.1-.1.26-.12.44-.03.18-.08.38-.1.6 0 .22-.03.46 0 .72 0 .24 0 .5.03.8.04.54.14 1.13.26 1.7.27 1.34.7 2.62 1.02 3.48-1.04-.14-2.1-.25-3.2-.27-.62-.02-1.23 0-1.83.02-.6 0-1.2.08-1.78.1-.57.04-1.1.15-1.63.22-.53.06-1 .16-1.46.26-.9.17-1.62.38-2.13.53l-.8.23.83-.14c.52-.1 1.26-.24 2.16-.3.43-.06.92-.12 1.43-.12.52 0 1.06-.07 1.62-.04.56.03 1.14 0 1.72.07l.6.05-1.1 1c-.57.5-1.25 1.07-1.98 1.68l-2.42 1.76c-.4.28-.87.54-1.3.8-.42.28-.87.45-1.3.67-.4.2-.86.35-1.26.52-.4.17-.8.27-1.17.4-1.47.42-2.5.47-2.5.47s1.03 0 2.54-.34c.36-.1.78-.17 1.2-.32.4-.15.87-.26 1.3-.46.45-.2.95-.36 1.38-.6.45-.25.9-.45 1.36-.73l2.55-1.64 2.12-1.56c.6-.5 1.1-.92 1.46-1.2l.33-.32c1.16.15 2.3.4 3.35.64.97.25 1.87.53 2.64.8l-2 1.13c-3.12 1.8-6.15 3.8-9.04 6-.6.45-1.2.93-1.8 1.42-.72-.18-1.7-.42-2.7-.62-.97-.18-1.94-.33-2.67-.36-.38-.02-.7 0-.9.03l-.32.1.33-.06c.22.02.52.04.87.1.7.12 1.64.38 2.55.7.75.24 1.48.5 2.1.75-.56.46-1.1.93-1.64 1.4-.67.63-1.33 1.26-1.97 1.9-.4-.08-1.1-.22-1.96-.42-1.47-.34-3.4-.85-5.3-1.52-.96-.32-1.9-.7-2.75-1.08-.45-.2-.84-.4-1.23-.6-.4-.2-.72-.43-1.05-.63-.33-.2-.6-.42-.84-.6-.25-.2-.46-.36-.6-.52l-.5-.5.43.56c.15.18.33.38.56.6.23.2.47.47.77.7.3.24.62.53 1 .77.36.25.74.53 1.15.77.83.52 1.73 1 2.66 1.46.52.26 1.05.5 1.57.74-.7.27-1.64.57-2.6.8-.5.1-1.03.23-1.52.3-.5.05-.95.16-1.34.16l-1.33.08 1.34.1c.4.03.87-.02 1.37-.02.52 0 1.05-.08 1.58-.13 1.07-.1 2.14-.33 2.93-.52l.83-.23c.88.37 1.7.7 2.43.95l1 .35-.42.43-.05.06h-.02c-1.02 1.44-2.13 2.86-3.27 4.24-1.14 1.37-2.33 2.72-3.56 4.02l-.45.45c-.6-.42-1.97-1.4-3.48-2.2-.98-.55-2-1-2.83-1.2-.2-.05-.4-.1-.57-.1-.17-.02-.3-.05-.44-.03-.25 0-.4.02-.4.02h.4c.1 0 .25.06.4.1.18.02.35.08.54.16.78.27 1.73.82 2.62 1.45.9.63 1.74 1.33 2.36 1.87.3.25.52.46.7.62-.9.88-1.8 1.75-2.75 2.6l-1.03.87c-.34.3-.7.56-1.05.84-.7.6-1.46 1.08-2.2 1.6.78-.46 1.57-.9 2.3-1.42.38-.25.77-.5 1.13-.76l1.1-.8c1.44-1.1 2.85-2.25 4.2-3.46.55-.5 1.1-1.02 1.63-1.53l-.02.08s.92.12 2.34.46c.7.16 1.5.38 2.36.66l-.05.3c-.1.6-.14 1.38-.1 2.16.04.38.05.77.13 1.13l.12.5c.05.17.06.33.13.46l.37.88-.22-.92c-.04-.13-.03-.3-.05-.45l-.03-.5c-.03-.34.03-.72.04-1.08.1-.74.24-1.46.42-1.98.02-.08.04-.15.07-.2.6.2 1.2.43 1.82.7l.6.28c.25.1.48.22.7.34.43.23.86.43 1.24.68.38.24.77.46 1.1.7.34.26.68.48.95.72.58.47 1.03.88 1.32 1.2l.47.5-.4-.55c-.26-.37-.66-.84-1.18-1.4-.24-.27-.56-.53-.87-.83-.3-.3-.67-.57-1.03-.87-.23-.2-.47-.37-.72-.54.53-.04 1.15-.1 1.76-.24.8-.17 1.6-.46 2.14-.8.13-.08.23-.2.33-.26.1-.08.18-.16.23-.23l.2-.22-.22.2c-.07.06-.15.12-.26.18-.1.06-.22.15-.36.2-.54.25-1.33.4-2.13.44-.8.04-1.6 0-2.2-.08-.5-.05-.85-.12-.93-.13-.1-.05-.2-.1-.3-.17-1.72-1.04-3.58-1.85-5-2.4l-1.26-.43.74-.73c1.27-1.3 2.5-2.64 3.68-4.06l-.07.08c1.27-1.2 2.6-2.34 3.97-3.42 1.38-1.06 2.8-2.07 4.28-3.03 1.33-.86 2.7-1.67 4.08-2.44 0 .05.02.1.04.15.14.53.23 1.16.36 1.83.04.53.13 1.1.16 1.66-.2.02-.46.06-.77.12-.3.05-.67.14-1.06.23-.37.1-.77.23-1.17.36l-.58.25c-.2.1-.38.16-.55.27l-.5.3c-.14.1-.3.15-.4.26-.5.4-.8.67-.8.67l.87-.54c.12-.08.3-.12.45-.2l.5-.2c.18-.08.38-.1.57-.17l.57-.16c.4-.06.8-.14 1.17-.18.37-.03.72-.06 1.02-.06h.73v.6c.03.36 0 .72-.04 1.06l-.07 1c-.03.3-.07.6-.14.87l-.37 1.8.5-1.77c.1-.26.17-.56.2-.87.07-.33.12-.66.18-1 .05-.35.13-.7.13-1.08l.08-1.1c.06-.76-.02-1.5-.02-2.2-.07-.7-.12-1.37-.2-1.93l-.1-.45c1.42-.78 2.86-1.52 4.3-2.22 2-.95 4-1.83 6.04-2.66l.2.77.37 1.58c-.1.06-.2.1-.3.18-.4.2-.8.52-1.24.8l-.64.54c-.23.18-.46.35-.66.56l-.6.6c-.2.2-.37.42-.52.64-.3.44-.66.8-.84 1.2-.4.74-.65 1.24-.65 1.24l.78-1.16c.23-.36.6-.68.95-1.07.17-.2.36-.38.58-.55l.64-.52c.2-.18.45-.3.67-.47.23-.13.45-.28.67-.42.47-.23.87-.48 1.25-.63l.12-.05.14.62c.26 1.13.46 2.35.7 3.57l.26 1.82c.08.6.18 1.2.23 1.78l.23 3.17-.03 3.12.5-3.1.24-3.23v-.22l.07.04c.27.12.54.3.84.5.3.2.6.42.9.65l.43.38c.13.13.3.24.4.38.1.14.22.27.33.4.1.13.22.24.3.36l.5.83-.37-.92c-.05-.14-.15-.27-.24-.4l-.3-.47c-.08-.16-.22-.3-.34-.45l-.37-.46c-.3-.3-.56-.6-.83-.84-.28-.25-.54-.5-.78-.67-.2-.17-.4-.3-.53-.4v-.56c0-.62 0-1.25.02-1.9-.06-1.24-.07-2.5-.16-3.7-.08-1.18-.15-2.3-.26-3.23l-.13-1.35 1.1-.42c.98-.36 2-.7 3-1.04l.1.3 2.05 5.32 2 5.6c.63 1.92 1.27 3.87 1.9 5.84.58 1.98 1.2 3.98 1.75 6l.7 2.8c-1.18 2.06-2.82 4.7-4.9 7.7-.7 1.02-1.45 2.07-2.25 3.15l-.4.1c-1.72.34-4 .74-6.3 1l-.27-.5c-.28-.5-.7-1.16-1.15-1.78-.22-.32-.5-.6-.7-.88l-.7-.7-.58-.4-.22-.13.2.2c.1.1.3.25.48.46.16.23.37.48.56.77.17.3.37.6.53.95.34.67.63 1.35.8 1.87l.1.25c-1 .1-2 .17-2.96.2h-1.65c-.53 0-1.02-.06-1.48-.1-.45-.04-.87-.1-1.23-.2-.36-.06-.7-.1-.94-.2l-.8-.28.77.35c.25.13.56.2.93.32.35.1.77.22 1.22.3.46.1.96.2 1.5.25.52.07 1.08.14 1.66.17 1.16.1 2.4.12 3.64.12 1.96 0 3.9-.13 5.56-.27l-.43.57c-1.36 1.72-2.84 3.5-4.4 5.27-1.34.48-4.46 1.54-8.67 2.83-1.5.45-3.1.93-4.83 1.42-.4-.42-.9-.94-1.5-1.53-.72-.7-1.57-1.54-2.53-2.37-.95-.84-2-1.68-3.08-2.5-1.1-.8-2.2-1.56-3.3-2.2-.55-.3-1.06-.64-1.6-.9-.5-.24-1-.5-1.45-.7l-1.28-.52c-.38-.16-.73-.24-1-.34l-.88-.28.84.36c.27.12.6.23.96.42l1.2.63c.45.24.9.54 1.38.83.5.3.97.66 1.48 1 1 .74 2.02 1.6 3 2.46l.2.17c-1.25-.2-2.96-.46-4.7-.6-1.63-.15-3.28-.2-4.5-.08-.32.02-.6.05-.85.1-.25.04-.47.06-.64.12l-.53.16.55-.1c.17-.06.4-.07.64-.1.25-.02.53-.03.83-.03 1.22-.02 2.84.15 4.45.42 2.6.4 5.12 1.06 6 1.3.47.45.9.9 1.33 1.34.85.9 1.6 1.77 2.24 2.52.3.34.54.65.77.94-.97.26-1.95.53-2.96.78-1.8.45-3.65.93-5.55 1.32-1.88.43-3.8.78-5.7 1.1-.3-.1-.66-.24-1.06-.4-1.33-.52-3.1-1.26-4.8-2.13-.84-.44-1.68-.9-2.43-1.38-.37-.25-.74-.48-1.06-.73-.34-.24-.64-.48-.9-.72-.28-.23-.52-.45-.7-.68-.2-.22-.38-.4-.48-.58l-.35-.56.32.57c.1.2.27.4.45.63.17.24.4.48.66.73.25.27.54.53.87.8.3.27.66.53 1.03.8.73.53 1.54 1.05 2.37 1.55 1.56.93 3.17 1.75 4.44 2.35l-1.34.2c-.96.07-1.93.2-2.9.26-.94.02-1.9.1-2.83.06l-1.38-.1-.67-.04-.7-.12c-1.82-.35-3.62-.6-5.22-1.08-.8-.22-1.6-.4-2.36-.65-.76-.26-1.5-.5-2.2-.75-.7-.23-1.35-.5-1.97-.77-.63-.26-1.22-.5-1.78-.75-1.08-.54-2.05-.97-2.8-1.42-.76-.4-1.34-.77-1.73-1.02-.4-.24-.6-.4-.6-.4s.2.17.57.44c.38.28.94.67 1.68 1.13.72.5 1.66.98 2.7 1.6l1.74.87c.6.3 1.26.63 1.96.9l2.04.85c-.42.1-.9.18-1.44.3-1.8.34-4.22.8-6.64 1.15-.6.08-1.22.2-1.82.26l-1.76.2c-1.14.17-2.2.18-3.13.25-.46.04-.88.07-1.26.03l-.95-.04-.85-.05.84.08.97.1c.38.05.8.05 1.27.04.92-.02 2 .02 3.16-.1.57-.02 1.17-.07 1.77-.1.6-.03 1.22-.12 1.84-.17 2.45-.23 4.9-.57 6.72-.83 1.84-.26 3.05-.46 3.05-.46v-.03l.77.25c1.64.6 3.4.96 5.2 1.42l.7.17.74.1.68.1-1.2.8c-.82.57-1.75 1.25-2.74 2-.97.77-2 1.6-2.97 2.5-1 .87-1.92 1.8-2.74 2.74-.43.44-.77.94-1.13 1.38-.37.43-.62.9-.9 1.32-.3.4-.45.83-.65 1.18-.1.18-.17.35-.24.5l-.14.46-.3.86.34-.84c.05-.14.1-.3.17-.45l.27-.5c.2-.33.38-.74.7-1.13.3-.4.56-.85.94-1.26.37-.42.74-.9 1.18-1.3.85-.9 1.82-1.78 2.83-2.6 1-.83 2.05-1.6 3.05-2.3 1-.7 1.96-1.33 2.8-1.85 1-.6 1.8-1.08 2.3-1.35.73.04 1.46.05 2.2.08 1 0 2-.06 3.02-.1 1-.04 2-.15 3-.23 1.7-.17 3.4-.38 5.07-.63l-.17.28c-.85 1.4-2.08 3.2-3.5 4.85-.33.43-.7.8-1.07 1.2-.36.4-.76.76-1.12 1.12-.38.34-.76.65-1.12.95l-1.07.77c-.36.23-.7.4-.98.57-.3.2-.57.28-.8.37l-.7.3.74-.22c.23-.07.53-.13.83-.28.3-.13.66-.27 1.04-.45l1.2-.66 1.24-.85c.4-.32.86-.63 1.28-1 .4-.36.85-.7 1.25-1.1 1.64-1.55 3.1-3.25 4.15-4.58.52-.66.94-1.23 1.22-1.63 1.42-.24 2.8-.5 4.17-.74 3.7-.7 7.1-1.48 10.03-2.17l2.73-.68-1.26 1.26c-1 1-2.06 1.96-3.1 2.94-1.1.94-2.15 1.92-3.26 2.83-2.2 1.85-4.46 3.65-6.78 5.3l-1.72 1.25-1.74 1.17-1.73 1.16-1.73 1.08-1.72 1.07-1.72.98c-1.14.65-2.24 1.3-3.36 1.84l-2.03 1.04c-.73-.13-2.44-.42-4.7-.63l-2.5-.15c-.9-.03-1.82-.04-2.8-.02-.95.03-1.95.1-2.96.23-1 .14-2.03.33-3.02.63-1.02.26-1.93.77-2.84 1.17-.92.4-1.75 1-2.6 1.47-.8.52-1.54 1.08-2.27 1.58l-1.93 1.56c-1.16 1-2.1 1.88-2.72 2.5l-.98 1.02s.36-.36 1-.98c.66-.6 1.62-1.45 2.8-2.42l1.97-1.5c.72-.47 1.48-1 2.3-1.5.84-.43 1.65-.97 2.58-1.36.94-.37 1.84-.84 2.8-1.06.98-.27 1.98-.42 2.97-.53 1-.1 1.97-.13 2.9-.13.96 0 1.88.04 2.75.1.86.06 1.68.14 2.44.24 1.35.16 2.48.35 3.33.5-.96.47-1.9.9-2.8 1.33-2 .85-3.84 1.66-5.5 2.28-1.67.6-3.1 1.2-4.32 1.58l-3.8 1.25 3.88-1c1.24-.3 2.7-.8 4.42-1.3.48-.14.98-.3 1.48-.47-.08.4-.2.95-.34 1.5-.07.27-.17.53-.25.78-.07.26-.2.48-.27.67-.08.2-.2.33-.25.44l-.1.18.13-.14c.08-.1.23-.2.36-.38.12-.18.28-.38.42-.6.13-.24.3-.5.42-.75.46-.86.83-1.78.93-2.03l3.12-1.1c2.05-.8 4.27-1.67 6.56-2.72 1.17-.5 2.33-1.07 3.52-1.65l1.8-.88 1.82-.97 1.84-.98 1.83-1.06 1.84-1.07 1.84-1.15.9-.6c.03.23.04.45.04.7.03.77 0 1.7-.14 2.67-.12 1-.35 2.03-.67 3.04-.13.5-.36 1-.54 1.5-.2.48-.45.93-.66 1.4-.23.44-.5.85-.74 1.25-.22.4-.5.75-.74 1.08-.25.33-.45.65-.68.9l-.57.64-.5.56.56-.5.65-.6c.26-.2.5-.5.78-.8.27-.3.6-.62.88-1 .28-.4.6-.78.9-1.2.27-.46.6-.9.85-1.4.23-.48.54-.96.74-1.48.47-1.03.83-2.1 1.1-3.14.24-1.03.4-2.02.47-2.88.08-.75.08-1.4.07-1.9 1.54-1.03 3.07-2.1 4.57-3.2 1.2-.87 2.35-1.8 3.52-2.7 1.14-.94 2.28-1.86 3.4-2.8 2.2-1.92 4.32-3.84 6.3-5.8 1.98-1.95 3.83-3.9 5.53-5.82 1.7-1.9 3.24-3.76 4.63-5.5.87-1.1 1.66-2.14 2.4-3.14.1.64.22 1.28.3 1.92l.42 3.03.25 3.32c.06.6.1 1.2.13 1.8-.75.6-1.55 1.25-2.4 2-.54.5-1.12.98-1.67 1.53-.56.53-1.13 1.08-1.67 1.66-.56.57-1.08 1.16-1.58 1.76-.52.57-.97 1.2-1.42 1.78-.46.57-.8 1.2-1.2 1.76-.36.57-.62 1.16-.9 1.68-.3.5-.43 1.05-.6 1.5-.2.43-.3.84-.36 1.17l-.23 1.06.28-1.03c.08-.34.18-.74.4-1.17.2-.43.35-.95.66-1.45.3-.5.57-1.08.97-1.62s.77-1.15 1.25-1.7c.47-.56.93-1.16 1.47-1.7.52-.57 1.06-1.14 1.63-1.67.55-.55 1.14-1.07 1.7-1.57.58-.53 1.18-1 1.73-1.47.7-.56 1.37-1.07 2-1.55.07 1.22.12 2.42.2 3.64.1 4.25.14 8.48-.06 12.54-.13 3.52-.42 6.92-.77 10.18-1.2-.23-2.83-.5-4.77-.68-2.15-.2-4.68-.33-7.4-.17-.78.03-1.6.12-2.42.22-.33-.1-.84-.3-1.47-.56-1.14-.48-2.6-1.18-4-2.05-.7-.42-1.35-.9-1.95-1.37-.6-.5-1.1-.98-1.53-1.43l-.54-.64c-.17-.2-.28-.4-.38-.53l-.32-.47.28.5c.1.14.2.35.34.55.15.22.3.45.5.7.4.48.87 1.03 1.44 1.56.57.54 1.2 1.07 1.88 1.57 1.35.98 2.8 1.82 3.9 2.4.05 0 .1.03.13.05-1.4.25-2.8.6-4.2 1.1-1.35.48-2.68 1.1-3.9 1.85-1.22.77-2.28 1.63-3.3 2.53-.16.13-.3.28-.44.42l-.1-.15s-1.08.68-2.8 1.6c-1.74.92-4.1 2.06-6.53 2.98-1.22.48-2.47.87-3.65 1.17-.6.18-1.17.26-1.72.38s-1.08.15-1.57.22c-.48.08-.93.04-1.33.06-.4.03-.74 0-1.03-.05l-.9-.1.9.14c.28.06.63.1 1.03.1s.85.06 1.35 0c.5-.04 1.03-.04 1.58-.14.56-.1 1.16-.15 1.76-.3 1.2-.25 2.48-.6 3.73-1 2.94-.94 5.73-2.2 7.56-3.1-1 1.16-1.84 2.34-2.45 3.48-1.05 1.88-1.6 3.6-1.96 4.77-.36 1.2-.52 1.88-.52 1.88s.2-.67.6-1.84c.42-1.16 1.04-2.84 2.16-4.63.9-1.48 2.16-3 3.7-4.43l.58-.3-.08-.15.54-.48c1.02-.8 2.14-1.62 3.3-2.3 1.2-.67 2.5-1.2 3.8-1.6 2.67-.82 5.46-1.14 8.07-1.2 1.25 0 2.47.03 3.62.1-.13.1-.26.2-.4.28-.63.43-1.34.96-2.1 1.56-.72.6-1.5 1.28-2.2 2.02-.34.36-.7.74-1 1.13-.32.38-.6.8-.86 1.2-.28.37-.45.8-.66 1.2-.2.37-.3.78-.44 1.13-.13.36-.13.72-.2 1.02-.07.3-.04.57-.02.8l.03.68.02-.7c0-.2 0-.47.07-.77.08-.28.1-.63.25-.97.16-.33.27-.73.5-1.1.22-.35.42-.76.72-1.1.28-.38.57-.76.92-1.1.3-.38.67-.72 1.03-1.05.73-.68 1.52-1.28 2.27-1.83.76-.53 1.5-1 2.13-1.4.6-.35 1.12-.63 1.5-.83.68.06 1.33.14 1.95.23 1.96.27 3.58.6 4.75.9-.23 1.72-.44 3.42-.74 5.05l-.44 2.57c-.18.83-.35 1.65-.5 2.45-.32 1.62-.74 3.13-1.08 4.6l-.23.82c-.34.14-.74.3-1.2.52-1.3.6-3 1.46-4.58 2.5-.8.5-1.56 1.08-2.25 1.64l-.96.85-.8.83c-.2.28-.4.53-.6.76-.18.22-.3.44-.4.6l-.34.57.37-.52c.1-.17.24-.38.44-.58.2-.2.4-.45.65-.7.24-.25.52-.5.82-.78l1-.77c.7-.5 1.5-1.02 2.3-1.47 1.64-.9 3.35-1.65 4.66-2.14.2-.08.38-.15.56-.2-.2.73-.43 1.46-.63 2.16l-1.2 3.54-1.18 2.96c-.8 1.74-1.44 3.13-1.97 4l-.77 1.4.95-1.27c.65-.82 1.46-2.1 2.5-3.76.5-.85 1.03-1.8 1.6-2.82l1.7-3.4c.56-1.26 1.18-2.58 1.75-4 .25-.64.5-1.3.78-1.97.6.15 1.36.36 2.28.67.52.17 1.07.38 1.65.6.58.23 1.17.53 1.8.8.6.32 1.25.62 1.86 1 .62.36 1.26.72 1.85 1.15l.9.63.86.68c.57.44 1.08.92 1.56 1.4l.2 1.32c.03.8.16 1.56.1 2.26l-.04 1-.15.9c-.06.57-.26 1.03-.36 1.43-.12.4-.28.7-.36.9l-.12.3.14-.3c.1-.2.26-.48.4-.87.1-.4.32-.86.4-1.43l.18-.9.08-1c.08-.72-.02-1.5-.02-2.3l-.12-.98c.4.37.74.76 1.06 1.14.2.24.42.47.6.7.2.23.36.47.52.7.3.44.63.84.87 1.22.2.4.4.73.57 1l.5.88-.46-.9-.53-1.03c-.23-.4-.53-.8-.83-1.27l-.47-.73-.6-.72c-.38-.5-.8-1-1.3-1.5-.04-.34-.08-.68-.15-1.03-.2-.86-.32-1.78-.6-2.66-.24-.88-.5-1.8-.73-2.7-.13-.44-.24-.9-.3-1.35-.07-.45-.14-.9-.16-1.36-.08-.9-.07-1.8 0-2.67.06-.86.2-1.7.35-2.47.14-.77.34-1.5.55-2.16.3-1 .64-1.83.93-2.5l.1.1c2.52 2.4 5.5 4.76 8.88 6.97-.1.26-.23.55-.34.87-.25.67-.5 1.47-.67 2.34-.2.87-.32 1.8-.4 2.76-.06.94-.03 1.9.03 2.77.03.45.1.87.15 1.27.04.4.14.77.2 1.12.08.33.12.65.2.92.1.27.16.5.22.7.1.4.18.62.18.62l-.14-.62-.17-.72c-.07-.27-.1-.6-.14-.94-.05-.35-.13-.72-.14-1.12-.02-.4-.06-.8-.06-1.25 0-.87.03-1.8.16-2.7.12-.92.3-1.82.55-2.65.24-.82.52-1.57.8-2.2l.33-.7c1.9 1.22 3.88 2.37 5.97 3.45.9.47 1.8.92 2.74 1.36.14.36.3.82.55 1.38.27.7.64 1.5 1.08 2.44.46.92 1 1.95 1.62 3.05l.63 1.03c-.28.5-.8 1.43-1.43 2.66-.46.93-.98 2-1.46 3.2-.28.66-.54 1.35-.8 2.05l-1.25.45c-.94.37-2.17.92-3.34 1.58-.58.34-1.14.7-1.65 1.07-.5.38-.93.77-1.3 1.1-.16.2-.32.36-.46.5-.14.16-.23.3-.32.42l-.27.36.3-.34c.1-.1.2-.25.36-.38.16-.13.33-.28.5-.45.4-.3.86-.65 1.4-.97.52-.3 1.1-.6 1.7-.88 1.18-.54 2.43-.96 3.36-1.23l.62-.17-.22.65c-.22.65-.36 1.32-.54 1.97-.17.66-.26 1.32-.4 1.94-.1.65-.14 1.27-.2 1.85l-.06 1.66c.03.52.1.98.12 1.4 0 .4.13.76.18 1.05.14.58.2.9.2.9l-.1-.9c-.04-.3-.12-.66-.1-1.07 0-.4 0-.87.02-1.37l.18-1.6c.13-.56.23-1.15.4-1.76.17-.6.32-1.23.54-1.84.23-.62.43-1.25.7-1.86.5-1.24 1.1-2.44 1.67-3.54.58-1.1 1.17-2.1 1.7-2.96.42-.7.8-1.26 1.1-1.7.95 1.38 2 2.8 3.25 4.2.54.6 1.06 1.2 1.66 1.76.58.57 1.16 1.15 1.8 1.67l.97.8c.32.27.67.5 1 .76l1.03.74 1.06.68c1.4.9 2.8 1.8 4.2 2.6.7.4 1.37.82 2.04 1.22-.14.37-.38 1.08-.63 2-.37 1.4-.78 3.27-.94 5.17 0 .48-.07.95-.07 1.42s-.02.93 0 1.38c.03.45.04.88.1 1.28.06.4.07.8.16 1.14.1.7.25 1.28.38 1.67l.2.63-.16-.64c-.1-.4-.2-.98-.28-1.68-.06-.35-.05-.73-.08-1.13-.03-.4 0-.82 0-1.26 0-.44.05-.9.08-1.35.02-.47.1-.94.17-1.4.28-1.85.8-3.66 1.26-4.98.26-.78.5-1.38.66-1.75l1.24.74 1.88 1.3c.6.43 1.1.93 1.65 1.38.56.43.98.98 1.43 1.47.43.5.9.96 1.26 1.45l1.95 2.76 1.35 2.24 1.18 1.95-1.1-2c-.36-.63-.78-1.4-1.27-2.3l-1.86-2.84c-.35-.5-.8-.98-1.22-1.5-.44-.53-.85-1.1-1.4-1.56-.54-.48-1.06-1-1.65-1.48-.6-.45-1.23-.9-1.86-1.38l-4-2.6c-1.4-.87-2.74-1.83-4.1-2.77l-1.02-.7-.96-.74c-.32-.26-.65-.5-.95-.76l-.9-.82c-.52-.45-1-.96-1.48-1.46.47-.18 1.12-.42 1.92-.66.85-.24 1.85-.52 2.93-.72 1.1-.23 2.27-.37 3.44-.46.6 0 1.18-.07 1.76-.04.58.03 1.16.02 1.7.1.56.07 1.1.1 1.6.23.5.12.97.18 1.4.34l1.15.38c.35.13.63.27.87.37l.75.34-.73-.4c-.24-.1-.52-.26-.85-.4l-1.15-.44c-.42-.2-.9-.27-1.4-.4-.5-.17-1.03-.24-1.6-.33-.55-.12-1.13-.14-1.72-.2-.6-.06-1.2-.03-1.8-.05-1.2.02-2.42.1-3.54.28-1.12.15-2.16.38-3.04.6-1.07.25-1.92.52-2.4.7-.37-.4-.7-.8-1.04-1.2-1.93-2.36-3.44-4.8-4.58-6.96-.57-1.08-1.05-2.1-1.45-3-.32-.72-.57-1.35-.8-1.92l2.04.84c.85.3 1.7.64 2.58.92 3.47 1.15 7.18 1.98 10.97 2.04 3.77.08 7.6-.74 10.93-2.43 3.33-1.67 6.1-4.07 8.54-6.46 2.43-2.4 4.8-4.7 7.06-6.86.18-.16.35-.3.53-.48.34.16 1 .44 1.9.75.64.24 1.42.5 2.26.72.84.23 1.75.43 2.66.58.47.07.92.16 1.38.2.45.04.9.1 1.33.1.43.02.85.04 1.25.02.4 0 .77 0 1.12-.04.7-.06 1.26-.13 1.65-.22l.62-.1-.62.06c-.4.06-.97.1-1.66.1-.35.02-.72-.02-1.1-.03-.4-.02-.82-.07-1.24-.12-.43-.03-.86-.12-1.3-.2-.45-.05-.9-.17-1.34-.27-.88-.2-1.75-.46-2.56-.73-.8-.28-1.54-.57-2.17-.84-.6-.26-1.1-.5-1.45-.67 1.84-1.65 3.68-3.1 5.57-4.2 2.33-1.38 4.7-2.2 6.86-2.6 2.17-.4 4.1-.46 5.7-.4 1.58.08 2.82.27 3.67.4l1.3.2-1.3-.26c-.83-.15-2.07-.38-3.67-.5s-3.55-.14-5.76.2c-2.2.33-4.67 1.1-7.1 2.4-2.45 1.32-4.83 3.18-7.18 5.26-2.34 2.1-4.8 4.3-7.3 6.6-.07.06-.13.1-.18.16-.28-.38-.66-.96-1.07-1.73-.4-.72-.8-1.6-1.15-2.57-.15-.5-.35-1-.46-1.52-.15-.52-.26-1.06-.33-1.6-.1-.55-.14-1.1-.18-1.65-.07-.54 0-1.08-.02-1.6 0-.52.1-1.02.14-1.5.03-.47.14-.9.23-1.32.1-.4.15-.8.27-1.1l.27-.85.24-.73-.3.72-.3.82c-.14.3-.22.7-.34 1.1-.1.4-.25.84-.3 1.32-.08.48-.22.98-.23 1.5-.03.54-.12 1.1-.1 1.65.03.55.02 1.12.1 1.7.04.55.13 1.12.25 1.67.08.55.25 1.08.38 1.6.3 1.02.66 1.97 1.04 2.74.36.78.72 1.4 1 1.83l.1.17c-2.27 2-4.72 3.85-7.5 5.13-3.15 1.45-6.66 2.08-10.17 1.9-3.02-.15-6.02-.84-8.9-1.8.23-.6.56-1.47 1.02-2.47.46-1.02 1.05-2.18 1.75-3.4.35-.6.75-1.2 1.14-1.82.42-.58.83-1.2 1.3-1.78.47-.58.92-1.18 1.43-1.7.5-.55 1-1.08 1.5-1.54.52-.5 1.02-.94 1.54-1.32.5-.4.98-.8 1.46-1.07.48-.3.9-.6 1.3-.84l1.05-.53.93-.46-.93.42-1.1.48-1.32.78c-.5.26-.98.64-1.52 1-.54.37-1.06.8-1.6 1.28-.55.45-1.07.97-1.6 1.5-.54.5-1 1.1-1.52 1.66-.5.57-.93 1.2-1.4 1.78-.4.6-.85 1.2-1.23 1.8-.77 1.2-1.42 2.36-1.93 3.38-.52 1.02-.9 1.9-1.16 2.52l-.46-.16c-.82-.3-1.62-.65-2.43-.97-.8-.36-1.58-.7-2.36-1.07-1.6-.77-3.07-1.54-4.55-2.37-2.8-1.56-5.4-3.26-7.75-5 1.14-.22 2.54-.52 4.12-.97.54-.13 1.1-.32 1.66-.5.57-.17 1.16-.38 1.76-.6.6-.24 1.2-.46 1.8-.75.62-.3 1.25-.54 1.86-.9 2.47-1.28 4.98-3.05 6.84-5.43.94-1.18 1.66-2.5 2.2-3.9.24-.67.48-1.34.7-2l.26-.72.1.1s.94-.87 2.5-2.08c.76-.6 1.7-1.27 2.7-1.95.53-.32 1.04-.7 1.6-1 .56-.33 1.12-.66 1.7-.94.58-.32 1.18-.6 1.77-.84.58-.27 1.2-.45 1.76-.66.57-.22 1.15-.3 1.7-.46.54-.13 1.08-.15 1.56-.23.5-.06.94 0 1.34 0 .4-.02.74.07 1.02.12l.9.17-.9-.22c-.27-.07-.6-.17-1.02-.18-.4 0-.85-.1-1.35-.05-.5.05-1.04.05-1.6.15-.55.12-1.16.2-1.75.38-.6.18-1.22.34-1.82.6-.6.22-1.23.46-1.83.75-.6.27-1.2.57-1.77.88-.6.3-1.13.63-1.68.94-1.06.64-2.03 1.27-2.85 1.85-.67.47-1.23.9-1.66 1.22l.4-1.84.23-.96c.06-.32.07-.64.1-.95.15-1.26.3-2.44.24-3.54-.02-.54 0-1.07-.04-1.57-.06-.5-.13-.97-.2-1.4-.03-.46-.13-.86-.23-1.23-.1-.38-.2-.72-.27-1.03-.25-.6-.4-1.08-.58-1.36l-.28-.43.26.45c.18.3.3.8.52 1.38l.22 1.03c.1.37.17.77.2 1.22l.1 1.4c.05.5 0 1 0 1.55 0 1.1-.2 2.25-.4 3.48-.04.3-.07.62-.14.93l-.26.94-.52 1.9c-.05.25-.14.5-.23.74l-.12.1.06.07c-.14.34-.3.7-.42 1.04l-.8 1.97c-.56 1.25-1.3 2.48-2.22 3.54-1.83 2.16-4.26 3.73-6.67 4.86-.6.3-1.2.52-1.8.77l-.52.2c-.2-.46-.46-1.13-.74-1.98-.3-.8-.55-1.77-.8-2.8-.24-1.05-.46-2.18-.6-3.32-.06-.57-.1-1.14-.14-1.7-.04-.56-.05-1.12-.04-1.66 0-.54.02-1.06.06-1.55.02-.5.06-.96.13-1.4l.18-1.16.2-.9.16-.76-.2.77-.26.88-.22 1.16c-.1.44-.16.9-.2 1.4-.08.5-.14 1.02-.16 1.56-.03.55-.06 1.1-.04 1.68 0 .58 0 1.16.06 1.74.06 1.16.23 2.32.4 3.4.2 1.07.42 2.08.67 2.92.2.86.45 1.56.62 2.05-.1.04-.23.08-.35.1-.58.22-1.15.4-1.7.53-.57.15-1.1.3-1.63.42-2.08.5-3.85.74-5.1.88l-.7.08c-1.73-1.4-3.3-2.84-4.7-4.27-3.74-3.78-6.2-7.45-7.6-10.1-.33-.62-.6-1.17-.82-1.66.65-3.75 1.14-7.6 1.57-11.57.16-2.22.4-4.57.5-6.74l.2-3.3v-3.6c0-4.72-.46-9.3-.98-13.82-.3-2.23-.66-4.43-.98-6.62l-.63-3.4c2.33 0 5.1.05 8.23.24 2.36.13 4.92.33 7.6.62.02 0 .02.02.03.02.57.68 1.2 1.46 1.88 2.34l.9 1.2c-.5.3-1.1.72-1.8 1.2-.82.64-1.78 1.4-2.7 2.32-.5.43-.92.96-1.4 1.45-.42.54-.87 1.07-1.26 1.64-.38.6-.8 1.16-1.08 1.78-.16.3-.3.6-.47.9-.15.3-.25.6-.37.9-.1.3-.23.6-.34.9l-.23.88c-.16.57-.3 1.1-.33 1.63-.05.5-.12.96-.14 1.37 0 .42 0 .78.02 1.08 0 .6.02.92.02.92l.06-.92.08-1.06c.07-.42.18-.87.28-1.36.07-.5.26-1 .45-1.55l.3-.83.4-.82c.15-.28.27-.57.44-.84l.52-.8c.32-.57.77-1.06 1.17-1.58.4-.5.9-.97 1.33-1.43.5-.44.94-.9 1.43-1.26.95-.8 1.92-1.4 2.76-1.93.75-.44 1.4-.8 1.9-1.03l.1.12c.35.5.7 1.06 1.03 1.63.34.57.7 1.15 1 1.76.68 1.2 1.28 2.48 1.84 3.8l.78 2.04.63 2.1c.17.7.3 1.43.46 2.14.16.7.18 1.44.28 2.15l.05.54.03.23c-.23.36-.7 1.06-1.43 1.94-.52.64-1.17 1.36-1.9 2.08-.75.72-1.6 1.45-2.47 2.12-.43.36-.9.65-1.34.97-.44.33-.92.6-1.36.87-.44.28-.9.5-1.3.72-.43.23-.85.4-1.23.58-.38.17-.72.34-1.04.46l-.83.3-.72.27.73-.2c.25-.1.53-.18.86-.28.33-.1.68-.25 1.07-.4.4-.15.82-.3 1.26-.52.42-.2.9-.4 1.36-.65.46-.26.95-.5 1.42-.8.47-.3.96-.57 1.42-.9.93-.63 1.82-1.33 2.62-2.03.8-.7 1.5-1.4 2.08-2.02l.84-.95c0 .3 0 .6.02.92 0 .35-.03.7-.04 1.04-.02.7-.05 1.38-.14 2.04-.07.66-.15 1.3-.28 1.93-.1.64-.24 1.24-.4 1.8-.14.6-.35 1.14-.53 1.66-.17.53-.42 1-.62 1.47-.23.45-.45.88-.7 1.26-.47.77-.97 1.4-1.42 1.86-.9.95-1.6 1.3-1.6 1.3s.72-.3 1.7-1.2c.48-.45 1.02-1.06 1.56-1.8.26-.38.5-.8.78-1.25.23-.46.52-.93.73-1.46.23-.5.48-1.06.65-1.65.2-.58.4-1.2.53-1.83.18-.63.3-1.3.4-1.97.14-.67.23-1.37.3-2.1.02-.35.06-.7.1-1.07 0-.36.02-.72.04-1.08 0-.36.02-.73.04-1.1V342.24l-.03-.56c-.05-.75-.02-1.53-.15-2.28-.1-.77-.2-1.54-.34-2.3l-.45-1.94c.72.12 1.7.3 2.88.62 1.27.32 2.72.8 4.25 1.4.76.32 1.55.62 2.32 1.02l1.17.57 1.15.65c.78.4 1.5.92 2.22 1.4.74.45 1.38 1.02 2.05 1.5.68.5 1.23 1.07 1.82 1.56.58.5 1.07 1.02 1.53 1.5.45.5.9.9 1.24 1.33.35.43.64.8.9 1.1l.76.96-.7-1-.8-1.16c-.32-.45-.74-.9-1.16-1.43-.43-.5-.9-1.08-1.45-1.62-.56-.53-1.1-1.17-1.74-1.7-.64-.54-1.26-1.17-1.98-1.7-.7-.52-1.4-1.1-2.18-1.57l-1.13-.75-1.17-.68c-.76-.47-1.56-.84-2.3-1.23-1.55-.73-3.03-1.33-4.33-1.76-1.3-.45-2.4-.73-3.2-.9l-.8-.17c-.04-.15-.08-.3-.13-.42-.5-1.42-1.05-2.8-1.67-4.1-.28-.67-.62-1.3-.94-1.9-.3-.63-.63-1.23-.97-1.8-.65-1.14-1.33-2.2-1.96-3.15l-.3-.45c1.67.22 3.38.47 5.13.76 3 .47 6.06 1.1 9.17 1.8 3.1.73 6.23 1.53 9.3 2.5l2.33.72 2.3.8c.93.3 1.86.65 2.77 1 .7.88 1.42 1.95 2.16 3.12.35.6.75 1.22 1.1 1.88.34.65.7 1.32 1 2 .33.68.6 1.37.88 2.06.3.68.5 1.38.74 2.05.24.67.4 1.33.56 1.96.18.62.3 1.22.4 1.78.1.57.2 1.07.27 1.53.07.46.1.86.15 1.2l.12 1.02-.08-1.04-.1-1.18c-.04-.46-.13-.97-.2-1.54-.08-.56-.18-1.17-.34-1.8-.14-.64-.27-1.32-.48-2-.2-.68-.4-1.4-.66-2.1-.24-.7-.5-1.42-.8-2.12-.3-.7-.6-1.4-.95-2.07-.3-.7-.7-1.33-1.02-1.97-.46-.8-.92-1.55-1.37-2.23.12.04.24.1.36.13 2.97 1.17 5.84 2.47 8.57 3.8 1.38.68 2.7 1.4 4 2.1 1.28.7 2.5 1.45 3.72 2.16l.9.56c.03.16.07.36.1.63.1.64.2 1.58.25 2.7.06 2.25-.2 5.37-1.72 8.02-.35.66-.8 1.26-1.3 1.83-.5.54-1.03 1.05-1.62 1.45-.28.2-.57.4-.88.57-.3.18-.6.33-.9.46-.58.3-1.17.48-1.7.67-.57.14-1.07.3-1.54.37-.45.08-.84.17-1.18.2l-1.05.1 1.05-.07c.34 0 .74-.08 1.2-.14.48-.05 1-.2 1.56-.3.56-.18 1.17-.34 1.78-.62.3-.1.62-.27.93-.44.3-.15.6-.34.9-.54.63-.4 1.2-.9 1.76-1.44.52-.56 1.02-1.17 1.42-1.85.84-1.34 1.36-2.84 1.7-4.28.3-1.45.4-2.82.43-4 .02-1.08-.04-2-.1-2.66 1.63 1.05 3.18 2.1 4.6 3.15 2 1.4 3.7 2.88 5.27 4.12 1.48 1.34 2.8 2.5 3.84 3.48l3.2 3.22-2.88-3.52c-.95-1.08-2.15-2.36-3.52-3.86-1.46-1.38-3.03-3.06-4.93-4.67-1.85-1.68-3.97-3.37-6.25-5.1-1.17-.84-2.34-1.73-3.6-2.58l-.7-.47c.64-.26 1.42-.56 2.33-.88.65-.2 1.35-.45 2.1-.63.76-.22 1.56-.42 2.4-.58.82-.2 1.7-.3 2.58-.44.9-.12 1.8-.16 2.7-.23.9.02 1.83-.04 2.72.06.9.1 1.78.12 2.6.34.84.18 1.66.3 2.4.6.72.27 1.46.44 2.05.78l1.68.83c.47.3.87.58 1.2.8l1.04.72-1.02-.75-1.17-.85-1.66-.9c-.6-.36-1.32-.55-2.06-.85-.72-.32-1.54-.48-2.38-.7-.84-.24-1.74-.3-2.64-.43-.9-.12-1.83-.1-2.76-.15-.92.04-1.85.05-2.75.14-.9.12-1.8.2-2.66.37-.84.14-1.67.32-2.44.5-.78.17-1.5.4-2.17.58-1.26.38-2.28.76-3.03 1.05-.73-.48-1.46-.96-2.22-1.43-2.62-1.6-5.38-3.18-8.27-4.65.7.02 1.42.04 2.16.03 1.43 0 2.95-.04 4.52-.14 1.56-.1 3.18-.27 4.8-.54 1.64-.28 3.28-.66 4.88-1.2l1.2-.43.58-.22.57-.28 2.2-1.1c1.45-.74 2.84-1.6 4.3-2.05.7-.27 1.4-.55 2.1-.8l2.1-.52c.34-.08.68-.18 1.02-.25l1-.13c.66-.07 1.3-.2 1.9-.23 1.24 0 2.37-.1 3.37.06.5.05.96.07 1.4.14l1.16.22c.72.1 1.26.3 1.63.4l.57.15-.57-.17c-.37-.1-.9-.3-1.62-.45-.35-.1-.74-.18-1.17-.27-.42-.08-.9-.12-1.4-.2-1-.17-2.14-.12-3.4-.17-.6.02-1.26.1-1.93.16-.33.02-.68.05-1.02.1-.34.04-.7.13-1.04.2l-2.15.46c-.72.22-1.45.48-2.2.73-1.34.37-2.58 1.02-3.87 1.63-.2-.23-.58-.68-1.06-1.3-.7-.92-1.6-2.2-2.35-3.56-.38-.68-.7-1.38-.97-2.06-.15-.33-.23-.67-.34-.98-.1-.32-.14-.64-.2-.92-.08-.28-.07-.55-.1-.8-.04-.23-.02-.43 0-.6l.03-.54-.1.53c-.02.16-.05.37-.03.6 0 .25-.02.53.02.82.04.3.06.62.14.95.08.33.14.7.26 1.04.2.72.5 1.47.82 2.2 1 2.2 2.35 4.22 2.95 5.05l-1.85.85-.55.25-.58.2-1.16.36c-1.56.47-3.16.78-4.75 1-1.6.2-3.18.3-4.7.35-1.54.04-3.03.03-4.43-.03-1.4-.05-2.73-.16-3.96-.26-.82-.08-1.6-.16-2.33-.25-.2-.07-.37-.16-.55-.25l-2.3-1.04-2.3-.96c-3.1-1.3-6.28-2.44-9.42-3.52l-.37-.12c1.6-.88 3.4-1.94 5.14-3.08 2.43-1.57 4.75-3.33 6.25-4.92.38-.4.7-.77.96-1.13.27-.34.48-.67.63-.95.32-.55.38-.92.4-.9-.02-.02-.1.34-.47.85-.17.26-.4.57-.7.9-.28.3-.63.66-1.03 1-1.6 1.43-4.02 2.95-6.54 4.3-2.4 1.27-4.9 2.4-6.82 3.24-2.28-.7-4.54-1.37-6.77-1.94-5.3-1.4-10.34-2.44-14.86-3.2.36-.9.78-1.9 1.3-3 .86-1.83 2-3.9 3.47-5.9.45.3 1 .67 1.63 1.04.95.57 2.1 1.17 3.38 1.72.64.28 1.32.53 2 .78.7.2 1.4.47 2.12.6.72.18 1.44.35 2.16.42l1.06.15 1.05.05c.35.02.7.05 1.02.05l.95-.05c.63-.03 1.22-.07 1.76-.18.55-.1 1.05-.16 1.48-.25l1.1-.32.96-.27-.98.2-1.1.2c-.45.07-.94.1-1.48.13-.53.06-1.1.05-1.73.02l-.94-.03c-.3-.03-.64-.08-.97-.13l-1-.14-1.02-.24c-.67-.13-1.35-.35-2.02-.57-.68-.2-1.32-.52-1.97-.76-.62-.3-1.24-.6-1.82-.9-1.16-.64-2.2-1.3-3.06-1.9-.57-.4-1.04-.78-1.43-1.1 1.77-2.18 3.98-4.2 6.58-5.63.68-.4 1.4-.72 2.13-1.02l1.07-.4.4-.08c.23.1.5.24.8.4 1.06.52 2.45 1.28 3.78 2.13 1.34.86 2.6 1.83 3.44 2.68.2.2.37.42.53.6.17.18.3.35.4.5l.3.45-.28-.48c-.08-.16-.2-.34-.34-.53-.14-.2-.3-.43-.5-.65-.77-.92-1.97-2-3.26-2.98-1.23-.95-2.53-1.8-3.55-2.4 1.35-.25 2.73-.37 4.07-.4 3.06-.07 5.93.4 8.3 1.1 1.2.37 2.26.77 3.17 1.2.93.42 1.7.84 2.34 1.2l1.43.92.5.34-.46-.38c-.3-.26-.75-.6-1.35-1.05-.6-.42-1.35-.93-2.25-1.43-.9-.52-1.94-1.03-3.12-1.5-1.06-.45-2.25-.83-3.52-1.15.2-.15.43-.32.7-.5.95-.7 2.3-1.54 3.77-2.17l1.1-.43c.4-.1.75-.26 1.1-.33.38-.08.73-.2 1.07-.22.34-.05.66-.12.96-.13.6-.04 1.1-.04 1.45 0l.56.04-.54-.07c-.35-.07-.85-.1-1.47-.1-.3-.03-.64.02-1 .03-.34 0-.7.1-1.08.15-.4.06-.76.18-1.16.26-.4.1-.77.24-1.17.35-1.56.55-3.02 1.3-4.07 1.94-.65.4-1.14.73-1.43.94-1.2-.25-2.47-.44-3.8-.54-1.6-.1-3.27-.1-4.98.07-.43.06-.86.12-1.3.2-.53.1-.88.22-1.33.34-.85.26-1.7.55-2.5.9-.9.4-1.74.84-2.56 1.33v-.02c.1-.64.28-1.38.52-2.16.15-.4.27-.8.46-1.2.16-.4.36-.78.58-1.16.2-.4.45-.74.7-1.1.22-.38.52-.68.77-1 .25-.34.56-.6.82-.88.25-.28.54-.5.8-.7.25-.22.47-.43.7-.57.23-.16.43-.3.6-.4l.5-.34-.53.3-.6.35c-.26.14-.5.34-.77.53-.27.2-.58.4-.86.66-.3.25-.62.5-.9.8-.28.33-.6.63-.87 1-.27.34-.57.7-.8 1.1-.26.36-.5.76-.7 1.16-.2.4-.37.8-.55 1.2-.3.8-.56 1.56-.7 2.23-.07.28-.12.54-.16.78-1.82 1.2-3.46 2.62-4.88 4.1-2.3 2.4-4.06 4.95-5.4 7.2-.94 1.6-1.67 3.06-2.24 4.28-3.3-.45-6.16-.75-8.45-.93l-1.33-5.55-1.4-5.5c-.5-1.77-.96-3.48-1.4-5.12-.54-1.9-1.06-3.67-1.56-5.36l1.72-.64 6.3-4.58 8.38-.03 8.25.04 7.9-2.37 8.17-.45 7.9-2.2 6.88-3.2 7.36-2.04 7.38-2 6.37-4.56 7.5-1.73 6.62-3.98 7.52-.76 7.5.67 6.15 4.65 6.9 2.9 7 2.67 6.5 3.82 7.5 1.43 4.9 1.55v5.38h-1.5v2h1.5V303h-1.5v2h1.5c0 1.93-1.57 3.5-3.5 3.5V307h-2v1.5h-6.83V307h-1v12h1v-1.5h6.83v1.5h2v-1.5c6.9 0 12.5-5.6 12.5-12.5h1.5v-2h-1.5v-17.42h1.5v-2h-1.5V280l7.05.2 7.33-.35 7.45-.13 7.45.1 7.46.12 7.34-2.06 7.57 1.97 7.42-1.72 6.2-6.52 4.7-8.17.15.14c0 .12-.03.26-.05.4l-.27-.08-.2.63c-.1.4-.3.98-.54 1.67-.23.7-.57 1.5-.9 2.35-.18.43-.4.86-.6 1.3-.2.43-.4.9-.62 1.33-.5.85-.9 1.76-1.43 2.52-.24.4-.5.76-.73 1.12-.24.35-.43.7-.7.98l-1.58 1.92 1.82-1.72c.3-.24.53-.58.82-.9l.9-1.03c.6-.72 1.15-1.57 1.76-2.4.3-.4.54-.84.8-1.26l.2-.3c-.3 1.13-.67 2.28-1.1 3.43-.2.64-.5 1.25-.75 1.88-.27.62-.58 1.2-.86 1.77l-.95 1.6-.96 1.33c-.34.4-.65.74-.93 1.05-.26.33-.57.54-.78.75l-.73.62.77-.56c.24-.18.56-.37.86-.67l1.03-1 1.1-1.27 1.1-1.53c.34-.56.7-1.13 1.05-1.73.3-.6.67-1.22.95-1.85l.38-.85c-.18.86-.38 1.73-.6 2.6-.23.84-.45 1.68-.7 2.5-.24.82-.5 1.6-.8 2.37-.25.78-.56 1.5-.86 2.18-.27.7-.6 1.3-.9 1.9-.3.6-.63 1.07-.92 1.52l-.4.62c-.14.2-.3.34-.4.48-.5.58-.8.9-.8.9l.86-.84c.13-.14.3-.28.44-.46s.3-.38.45-.6c.32-.42.7-.9 1.03-1.47.34-.56.74-1.16 1.06-1.85.35-.67.72-1.38 1.03-2.14.34-.75.67-1.54.97-2.35.32-.8.6-1.64.88-2.48.23-.65.43-1.3.63-1.96l-.07.4c-.05.83-.12 1.66-.2 2.5-.1.82-.13 1.66-.27 2.45-.2.77-.3 1.54-.56 2.27-.27.7-.45 1.44-.78 2.07-.3.63-.6 1.25-.9 1.77-.3.55-.6 1.03-.9 1.45-.27.43-.53.79-.74 1.08l-.66.94.73-.9c.23-.27.52-.6.83-1 .3-.4.65-.87 1-1.4.37-.5.7-1.1 1.04-1.74.4-.62.64-1.35.97-2.07.32-.73.5-1.55.77-2.35.2-.8.3-1.63.47-2.45l.4-2.44v-.06.47c.04.7.1 1.43.13 2.14l.06.63c-.14.28-.26.57-.34.86l-.5 1.54c-.16.5-.3.97-.46 1.43l-.28 1.32-.58 2.7.88-2.6.42-1.28.6-1.35.42-.9c.13 1.3.27 2.53.4 3.65-.1.36-.2.7-.33 1.04-.25.73-.47 1.43-.72 2.07-.92 2.56-1.66 4.22-1.66 4.22s.85-1.62 1.96-4.1c.3-.63.56-1.32.86-2.04l.04-.1.06.46.45 3.43-.13-3.46c0-.4-.02-.82-.04-1.26l.53-1.38c.32-.8.56-1.66.85-2.52.3-.87.47-1.75.7-2.63.2-.92.3-1.83.46-2.74v-.1l.27-.3.87-.95c.28-.26.56-.5.8-.7.22-.23.43-.4.6-.5l.3-.24.16.3c-.33.47-.7 1.05-1.08 1.73-.26.5-.57 1.02-.8 1.62-.3.58-.54 1.2-.78 1.86-.26.65-.43 1.35-.65 2.04-.18.7-.36 1.42-.5 2.14-.12.73-.28 1.44-.35 2.16-.07.72-.17 1.42-.2 2.1l-.08 1.97c0 .62.04 1.2.05 1.76 0 1.08.14 2 .2 2.62l.08 1v-1c0-.64-.06-1.54.03-2.62l.1-1.74.24-1.93c.1-.67.25-1.35.38-2.04.13-.7.34-1.38.5-2.07.22-.7.45-1.36.67-2.02.28-.64.5-1.3.8-1.88.27-.6.56-1.17.86-1.7.28-.52.6-.98.88-1.43l.4-.55v.6c-.2.3-.4.6-.57.96-.3.54-.56 1.16-.83 1.8-.23.67-.5 1.37-.66 2.1-.2.73-.34 1.5-.46 2.28-.16.77-.18 1.57-.27 2.36-.08.8-.06 1.58-.1 2.36-.03.77.03 1.54.05 2.27.02.74.05 1.45.14 2.12.05.67.1 1.3.17 1.9.05.58.16 1.1.22 1.58l.18 1.22.16 1.06-.07-1.07-.1-1.23c-.02-.47-.1-1-.1-1.6 0-.58 0-1.2-.02-1.88-.03-.67 0-1.37.04-2.1.03-.73.02-1.48.12-2.23.1-.76.13-1.53.28-2.3.15-.74.23-1.5.44-2.23.18-.74.36-1.46.6-2.12.22-.68.5-1.3.77-1.88.02-.02.03-.03.03-.05l.07 2.25-.07.2c-.32.97-.62 1.96-.83 2.9-.23.94-.38 1.83-.46 2.6-.05.38-.05.73-.06 1.05 0 .3 0 .58.03.8l.08.7v-.7c0-.22.04-.5.1-.8.03-.3.07-.64.17-1 .16-.74.42-1.58.75-2.47.13-.34.27-.7.42-1.04l.15 2.03c.03.6.13 1.16.2 1.7v.15l-.1.66-.18.97c-.07.3-.07.58-.1.83l-.06.63-.05.57.12-.54.16-.62c.07-.23.1-.5.22-.78l.14-.44c0 .04 0 .08.02.1.04.48.18.9.24 1.3.1.36.16.7.22.96.1.54.18.85.18.85l-.1-.87-.1-1c-.04-.37-.14-.8-.13-1.27l-.03-.95.24-.63c.3-.7.56-1.44.9-2.17.33-.74.64-1.47.98-2.15.32-.68.63-1.3.9-1.84l.1.13c0 .08-.03.16-.06.25-.17.7-.37 1.5-.56 2.38-.2.87-.4 1.8-.58 2.75-.2.94-.33 1.9-.48 2.77-.08.43-.1.87-.17 1.27-.03.4-.08.8-.12 1.15-.06.34-.03.68-.05.97 0 .3-.02.54-.03.75 0 .4-.02.65-.02.65l.1-.65.13-.73c.07-.3.1-.62.2-.96l.27-1.1c.1-.4.2-.82.32-1.24.26-.84.5-1.75.83-2.64.3-.9.6-1.78.92-2.6l.48-1.28.8 1.2c-.22.78-.45 1.64-.67 2.5-.15.67-.3 1.33-.4 1.95l-.28 1.7-.13 1.66.44-1.6c.15-.47.35-1.02.56-1.6.23-.58.5-1.18.75-1.78.23-.5.46-.98.7-1.44l6.08 5.72 6.14 5.85 4.57 7.2 5.47 6.43 7.47 4.7 4.44 7.55 8.66.02 8.37 1.44 8.56-.6 8.26 2.72 8.58-.8 8.27 2.64 8.62-1.27 8.37 1.43 8.3-2.37 7.15-4.7 7.2-4.64 7.4-4.17 7.64-3.74 8.5-1.98 6.98-5.96 9.26 2.15 8.93 1.65 8.66-1.5 5.9-4.84 4.76-6.67 6.3-5.26 5.46-6.05 7.54.3 7.28-1.6 7.06-3.05 7.43-.55 7.53.1 6.9-2.8 3.46-1.15v.57c0 .46-.02.9-.03 1.33-.03.43 0 .84-.07 1.2l-.34 2.47.64-2.42c.1-.36.14-.77.2-1.2.08-.42.15-.88.22-1.34.04-.28.05-.57.08-.85l1.08-.36c.14.62.22 1.24.33 1.85.1.66.14 1.32.2 1.96l.06 1.84-.1 1.64-.22 1.38c-.05.42-.2.76-.27 1.05l-.27.9.36-.88c.1-.3.27-.62.35-1.03l.36-1.4c.1-.5.17-1.06.26-1.66l.13-1.88c-.03-.65 0-1.33-.05-2.02-.06-.68-.07-1.38-.17-2.07v-.02l.16-.05c.2.56.4 1.12.57 1.68.27.83.53 1.66.74 2.5.23.8.43 1.62.6 2.42.18.8.3 1.57.4 2.3.16.74.2 1.44.24 2.1.08.64.05 1.24.04 1.77v.74c-.03.24-.08.44-.1.63l-.18 1.2.27-1.18c.04-.2.1-.4.14-.63l.06-.74c.05-.53.13-1.14.1-1.8-.02-.66 0-1.37-.1-2.13-.05-.75-.1-1.55-.25-2.36-.1-.83-.24-1.67-.42-2.52-.16-.85-.36-1.7-.56-2.56-.15-.6-.3-1.2-.47-1.8l.02-.03.1.2 1.15 2.22c.35.75.77 1.5 1.07 2.23.23.75.55 1.47.72 2.22.15.75.38 1.47.43 2.18.08.7.17 1.36.18 2 .04.6.04 1.17.02 1.68 0 .5-.04.95-.06 1.3l-.06 1.16.14-1.15c.06-.36.12-.8.16-1.3.06-.5.1-1.1.1-1.7.05-.64 0-1.33-.03-2.05 0-.73-.17-1.47-.27-2.26-.1-.8-.4-1.58-.6-2.4-.25-.8-.6-1.54-.9-2.32l-.97-2.28v-.04l.24.4 1.24 1.73.4.5c.03.3.07.6.16.9l.4 1.57.36 1.46.46 1.27.95 2.6-.64-2.68-.3-1.3-.2-1.47c-.04-.3-.1-.64-.13-.97l2.28 2.9c.1.35.2.7.28 1.05.18.76.36 1.47.5 2.14.56 2.65.8 4.45.8 4.45s-.12-1.8-.5-4.5c-.1-.7-.22-1.42-.35-2.2v-.1l.27.36 2.2 2.68-1.94-2.85-.7-1.04-.3-1.47c-.14-.84-.4-1.7-.6-2.58-.2-.9-.54-1.73-.8-2.6-.32-.88-.7-1.68-1.05-2.5l1.28-.77c.02.27.05.55.1.83.07.65.2 1.32.34 2 .12.68.35 1.37.52 2.07.22.7.45 1.4.7 2.1.3.66.54 1.36.86 2 .33.65.6 1.3.95 1.9l.98 1.7c.33.53.67 1.02.97 1.47.58.92 1.18 1.6 1.55 2.12.4.5.6.8.6.8l-.53-.85c-.32-.53-.86-1.26-1.35-2.22-.26-.48-.55-.98-.83-1.53l-.82-1.76c-.28-.63-.5-1.28-.77-1.93-.25-.66-.43-1.35-.65-2.03-.2-.68-.35-1.38-.5-2.05-.1-.7-.28-1.37-.33-2.03-.1-.65-.15-1.3-.16-1.9-.03-.5-.02-.97 0-1.4l.35.07c0 .2 0 .4.02.6.02.63.14 1.3.25 1.98.16.68.3 1.4.56 2.12.2.73.5 1.45.8 2.18.28.74.7 1.42 1.03 2.14.35.72.8 1.38 1.18 2.05.37.7.84 1.3 1.24 1.92.4.6.82 1.2 1.24 1.73l1.16 1.5c.35.47.73.86 1.03 1.23l.8.94.7.8-.63-.86-.73-1c-.28-.38-.62-.8-.93-1.3l-1.03-1.58c-.38-.55-.73-1.16-1.08-1.8-.35-.63-.76-1.27-1.07-1.96-.33-.7-.7-1.37-1-2.1-.26-.7-.6-1.4-.8-2.13-.23-.72-.46-1.42-.6-2.12-.2-.68-.27-1.36-.36-2v-.05c.4.62.82 1.24 1.25 1.87 0 .07.02.14.03.2.24 1 .52 2 .83 2.9.3.93.65 1.76 1 2.45.15.36.35.66.5.92.16.28.3.5.45.67.3.36.44.56.44.56l-.36-.6c-.12-.2-.23-.43-.35-.7-.12-.3-.27-.6-.38-.97-.26-.7-.5-1.56-.67-2.48-.08-.36-.14-.74-.2-1.1l1.2 1.63c.34.48.73.9 1.07 1.34l.1.12.24.62.36.9c.1.3.26.54.36.76.1.22.2.42.3.57l.24.5-.17-.54c-.07-.17-.13-.37-.2-.6-.08-.24-.2-.5-.25-.8l-.1-.44.07.1c.3.36.63.65.9.94.26.27.5.5.68.7.4.4.6.63.6.63l-.54-.7-.62-.76c-.23-.3-.53-.62-.77-1.03l-.53-.77-.14-.67c-.12-.75-.28-1.53-.4-2.32-.1-.8-.22-1.6-.3-2.34-.08-.75-.16-1.45-.2-2.04l-.05-.43h.05l.23.72c.2.7.48 1.48.78 2.32.3.85.64 1.74.97 2.63.33.9.72 1.77 1.06 2.6.16.4.37.8.53 1.17l.5 1.04c.14.34.33.6.47.87l.38.64.34.58-.26-.6-.28-.7c-.1-.26-.26-.55-.35-.9l-.36-1.08c-.12-.4-.28-.78-.38-1.2-.22-.87-.5-1.77-.7-2.7-.2-.9-.43-1.83-.6-2.7l-.42-2.17 1.23.5c.24.96.6 2.2 1 3.42l.68 1.86.7 1.6.76 1.47-.48-1.6-.36-1.64-.3-1.9c-.12-.88-.2-1.73-.28-2.5l4.6 1.87 8.26 1.65 8 2.62 8.44 1 7.4 3.57 3.36 6.07 3.78 6.3 7.7-1.82 7.34-3.1 7.96-1.1 7.07-3.97 7.74-1.84 7.6-3.13 7.08 3.12 7.36 1.5 6.7 3.36 6.96 1.9 8.32.1 8.3-1.95 8.5-.13 8.5-1.28 7.02 1.1 6.2 4.15 7.1-.48 7.23-.3 6.63-3.18 6.83-2.43 6.92-2.1 6.87-1.35 7.38-4 4.68-7.34 6.38-5.44 5.02-4.7h2.02V0zM558.78 414.77l-1.8 1.5-.9.73-.94.7-1.9 1.4c-.66.44-1.33.84-2 1.27-1.3.88-2.72 1.57-4.1 2.34-.7.35-1.42.67-2.13 1-.7.35-1.43.64-2.17.92-1.46.6-2.97 1.06-4.48 1.54-1.52.4-3.05.82-4.62 1.1-.77.17-1.55.3-2.34.42-.8.1-1.58.25-2.38.32-1.58.2-3.18.32-4.78.43-1.6.1-3.2.15-4.83.2l-2.47.05-2.43.18c-.85.14-1.7.26-2.53.43-.8.2-1.63.38-2.42.63-1.6.5-3.15 1.1-4.64 1.8-.74.36-1.5.7-2.2 1.1-.74.4-1.45.8-2.15 1.24-1.4.85-2.77 1.78-4.08 2.77-1.3.98-2.55 2-3.75 3.12-1.48 1.04-3.05 2-4.64 2.88-.45-1.62-1.26-3.32-2.45-4.95-1.33-1.83-3.1-3.56-5.23-5.03-1.07-.73-2.22-1.4-3.45-2-1.24-.57-2.5-1.03-3.65-1.8-2.32-1.45-4.18-3.7-5.45-6.27-1.25-2.58-1.94-5.48-2.08-8.4-.13-2.9.26-5.86 1.42-8.43 1.14-2.66 2.55-5.14 4.2-7.34 1.62-2.2 3.48-4.1 5.43-5.65 1.95-1.56 4-2.72 6-3.6 3.86-1.7 7.4-2.23 9.9-2.38 8.07 1.48 16.34 3.44 24.5 6.3 2.6.9 5.13 1.95 7.64 3.07 1.24.58 2.4 1.15 3.65 1.8l1.87 1.03.46.26.4.24.94.54c4.93 2.92 10 5.8 15.25 8.56 3.82 2 7.78 3.83 11.83 5.52l-.5.45zm842.65-141.1l.15-.4c.05-.1.08-.24.14-.36l.22-.37c.15-.25.26-.5.44-.73.1-.13.2-.26.28-.4v.1c.02.54 0 1.1 0 1.68-.2.3-.38.62-.57.95-.27.46-.56.93-.82 1.42l-.02.04c0-.17 0-.34.02-.5 0-.32.06-.67.1-1l.02-.24v-.13s.02-.1 0 0l.03-.06zm.55-4.15c-.3.44-.6.94-.92 1.5-.06.08-.1.18-.16.3l.35-1.14c.23-.67.48-1.28.68-1.86l.4-.95.15 1.43-.5.72zm-.82-4.1V265.4v.02zM797.23 351.4c-.43-.76-.9-1.5-1.4-2.24-.36-.6-.75-1.15-1.14-1.72l.28.32 1.82 1.7c.6.6 1.23 1.15 1.76 1.75.27.37.56.7.84 1.06-1.05-.05-1.65-.1-1.72-.1l-.45-.77zm1.98-3.24c-.05-.16-.1-.32-.17-.48l-.42-1.1.42-.08c.57.67 1.2 1.3 1.7 1.98.5.68 1.03 1.3 1.5 2-.97-.73-2-1.5-3-2.32zm-.04 2.5c-.5-.67-1.1-1.26-1.63-1.9l-1.68-1.8c0-.02 0-.03-.02-.04l.36.3 1.74 1.2.53.35c.14.28.28.55.47.8l.9 1.35.82 1.25.14.16-.52-.02c-.34-.55-.75-1.08-1.12-1.65zm1.9 1.25l-.7-1.3c-.13-.3-.28-.6-.43-.88l3.1 1.95c.2.26.36.52.53.77-.8-.03-1.56-.06-2.22-.1l-.3-.43zm3 .44c-.03-.03-.05-.06-.06-.1.1.08.25.16.36.23h-.24l-.07-.13zm.5-.1l-1-.76-.76-1.27c-.42-.73-.95-1.46-1.44-2.22-.38-.6-.8-1.13-1.23-1.67l3.8-.68c.28.35.54.7.83 1.04.5.54.96 1.1 1.48 1.62.52.5 1 1 1.52 1.46l1.5 1.28c.5.4.97.74 1.4 1.07.27.2.53.4.8.56l-3.6-.08c-1.05-.02-2.03-.06-2.94-.1-.12-.07-.23-.16-.36-.25zm-57.4-3.75c-.26.86-.45 1.77-.76 2.58-.3.83-.55 1.66-.9 2.44-.3.78-.6 1.55-.93 2.26-.08.15-.14.3-.2.45.12-2.06.3-4.76.56-7.45l.04-.3.18-.24.92-1.27 1.3.55-.2.97zm7.43 2.98c-.25.56-.53 1.22-.8 1.93-.3.7-.6 1.48-.88 2.24l-.32.9v-.06c.16-1.17.27-2.4.48-3.65 0-.12.03-.24.05-.36.5-.82 1.02-1.6 1.52-2.35l.5.12c-.16.32-.34.74-.56 1.24zm3.6-.5l.1.03v.03l-.1-.04zm-17.07 71.13c-1.73 1.23-3.56 2.54-5.47 3.95-1.88 1.47-3.9 2.92-5.9 4.62l-3.1 2.54-3.1 2.77-1.6 1.42-1.57 1.5-3.2 3.1-1.12 1.2h-.04c-2.04.06-5.02.16-8.8.36-7.58.4-18.38 1.2-31.25 3.1-6.45 1-13.4 2.28-20.68 4.1-7.28 1.85-14.9 4.2-22.47 7.77-3.76 1.82-7.5 3.94-11.03 6.6l-1.3 1.03-.33.25-.18.14-.22.2-.58.5-2.32 2.1c-1.55 1.3-3.1 2.93-4.64 4.5-1.6 1.52-2.95 3.22-4.4 4.86-.74.8-1.4 1.7-2.05 2.57l-.7.93-.9-.32-2.42-.5c-1.78-.18-3.96-.43-6.37-.26-2.43-.02-5.1.4-8 .75-.75.07-1.48.2-2.22.36l-2.28.45-4.72.95c-1.67.35-3.18.6-4.86.75-.83.1-1.68.14-2.54.17-.86.05-1.73.03-2.6.04-7.04-.06-14.56-1.5-21.82-3.7-4.1-1.3-8.14-2.84-11.97-4.62 1.77-1 3.65-1.9 5.5-2.86 2.1-1 4.27-1.95 6.44-2.9 4.4-1.8 8.9-3.5 13.52-4.9l3.45-1.1 3.48-.97c2.3-.68 4.63-1.26 6.96-1.84 1.15-.3 2.32-.54 3.45-.88l3.46-1c2.33-.56 4.5-1.5 6.7-2.35.53-.2 1.07-.42 1.6-.64.54-.22 1.05-.5 1.57-.76l3.05-1.54c1.03-.47 1.94-1.12 2.88-1.7l2.77-1.75 2.54-1.94c.82-.65 1.68-1.24 2.4-1.96 1.48-1.4 3-2.68 4.2-4.14.64-.7 1.28-1.38 1.87-2.07l1.62-2.1c1.1-1.34 1.9-2.78 2.78-4.06.8-1.3 1.5-2.58 2.12-3.76.56-1.22 1.15-2.3 1.54-3.35.44-1.04.8-1.97 1.08-2.8l.22-.67 6.56-.15 8.78-.53c1.47-.07 2.9-.2 4.3-.33l4.23-.4 4.2-.4.53-.03.26-.04.33-.04 1.05-.14 2.1-.28 8.35-1.1c2.74-.5 5.45-1 8.13-1.47l4-.73c1.3-.3 2.62-.6 3.92-.88l7.68-1.75 7.4-1.98c1.22-.35 2.44-.64 3.63-1l3.52-1.08c2.33-.72 4.63-1.4 6.87-2.13l6.55-2.25c2.15-.7 4.22-1.5 6.24-2.26l5.93-2.26c3.8-1.6 7.47-3 10.82-4.5l4.87-2.16 4.5-2.1c1.6-.73 3.1-1.47 4.54-2.18-.32 7.54.2 15.57 2.02 23.64l-.6.37c-2.6 1.6-5.7 3.6-9.2 6zm83.06-68.35c1.77 0 3.57-.05 5.4-.17.15.17.46.52.9 1.05.64.77 1.53 1.87 2.53 3.25.5.7 1 1.45 1.52 2.27.5.83 1 1.7 1.44 2.66.4.95.8 1.96.9 2.98 0 .13.04.26.04.38l-.03.36v.37h-.02v.03l-.04.1-.07.2c-.15.6-.44 1-.68 1.45-1.2 1.87-2.8 3.55-4.32 5.07-1.53 1.5-3.03 2.86-4.34 4-2.6 2.24-4.44 3.65-4.44 3.65s1.9-1.3 4.64-3.42c1.37-1.06 2.95-2.33 4.57-3.77 1.62-1.45 3.32-3.03 4.73-4.97.33-.54.7-1.1.87-1.63l.08-.2.04-.1.03-.05.02-.08v-.03l.07-.5.06-.47c0-.16 0-.3-.02-.47-.04-1.26-.43-2.38-.83-3.42-.4-1.05-.9-2-1.37-2.9-.48-.9-.98-1.7-1.46-2.45-.94-1.48-1.8-2.66-2.4-3.5-.02 0-.03 0-.04-.03l1.43-.2.76-.1c.23 0 .45-.06.68-.05.46-.02.9 0 1.37.05 1.85.22 3.63.9 5.25 1.74 3.25 1.7 5.98 3.95 8.2 5.95 2.2 2 3.93 3.84 5.1 5.14l1.27 1.47v.04l-.24.92-.34.92c-.94 2.44-2.44 4.77-4.18 6.92-3.5 4.32-7.83 8.03-12.04 11.27-4.23 3.23-8.42 5.97-12.06 8.22-3.42 2.1-6.36 3.76-8.52 4.93-1.24-.32-2.46-.67-3.65-1.05l-1.38-.46-1.28-.47c-.4-.14-.9-.34-1.37-.54l-.72-.28-.35-.15-.1-.03c.17.06 0 0 .03 0l-.15-.07c-3.15-1.4-6-3.24-8.5-5.36-5.04-4.25-8.78-9.42-11.63-14.28-2.85-4.9-4.84-9.53-6.3-13.4l-.3-.83c.48-.9.95-1.76 1.42-2.6 2.36-4.17 4.65-7.68 6.6-10.5.16-.2.3-.4.44-.6.12.25.2.5.3.76l.4 1.27c.13.4.3.8.35 1.15l.5 2.44-.2-2.5c0-.38-.12-.77-.2-1.2l-.25-1.34c-.08-.45-.2-.9-.33-1.36.2-.3.4-.57.6-.84l.36.55c.37.57.66 1.18 1 1.76l.85 1.76.66 1.72.45 1.6.24 1.37c.1.4.07.77.1 1.07l.04.95.04-.95c0-.3.06-.67 0-1.1l-.12-1.4-.32-1.67-.5-1.8c-.24-.62-.45-1.26-.72-1.9-.28-.62-.53-1.28-.85-1.9-.13-.28-.28-.55-.42-.82.56.68 1.12 1.38 1.65 2.1.52.7 1.05 1.4 1.52 2.1.5.7.95 1.4 1.38 2.1.44.68.8 1.37 1.17 2.02.37.65.64 1.3.9 1.9.3.58.47 1.15.64 1.65l.23.7c.06.23.1.44.13.63l.22 1.18-.14-1.2c-.02-.18-.03-.4-.08-.62-.06-.22-.12-.47-.2-.72-.12-.52-.25-1.12-.5-1.73-.23-.6-.45-1.3-.8-1.98-.3-.7-.62-1.42-1.03-2.14-.24-.47-.5-.95-.78-1.43l1.77.18c.18.23.36.46.52.7.38.67.84 1.27 1.12 1.9.32.65.63 1.24.84 1.83.24.57.43 1.1.58 1.6.16.47.28.9.38 1.24l.33 1.1-.24-1.12c-.07-.36-.15-.8-.28-1.28-.1-.5-.27-1.05-.47-1.65-.17-.6-.44-1.23-.7-1.9-.25-.7-.67-1.33-1.03-2.05-.05-.1-.1-.2-.17-.28.2 0 .38.03.58.05.2.24.4.5.6.7 1.05 1.3 1.76 2.14 1.76 2.14l-1.52-2.3c-.1-.16-.2-.34-.32-.5l2.3.2c.38.6.75 1.16 1.07 1.7 1.43 2.32 2.27 3.93 2.27 3.93s-.73-1.67-2-4.1c-.23-.46-.52-.97-.8-1.5l.66.07 2.4 1.44-1.92-1.4 2.4.18 4.68.3c.1.08.22.15.32.2l.83.55-.78-.6-.17-.12c1.5.1 3.07.16 4.7.23l.9.53-.75-.52.7.04c1.9.06 3.9.1 5.9.1zm-17.87-8.43c.5.6 1.12 1.1 1.68 1.68.57.56 1.2 1.03 1.8 1.54.58.52 1.22.94 1.8 1.38.6.44 1.18.86 1.75 1.22l1.6 1.03c.3.2.6.37.88.53-1.4 0-2.72-.02-4-.03-.3-.25-.64-.5-.97-.83-.4-.36-.85-.74-1.3-1.16-.43-.44-.9-.9-1.36-1.4-.46-.47-.9-1.02-1.36-1.55-.45-.53-.86-1.12-1.3-1.68l-.6-.93.7-.6c.2.26.45.53.7.8zm5.92-.97l1.17 1.26c.62.6 1.05 1 1.17 1.1l-.5-.3-.83-.52c-.32-.22-.7-.4-1.08-.7l-1.23-.92c-.43-.33-.9-.64-1.34-1.03l-1.34-1.12 1.3-1.16c.43.6.9 1.24 1.4 1.88.42.53.85 1.05 1.25 1.53zm376.23 38.04c-.32.74-.7 1.74-1.02 2.95-.2.7-.37 1.45-.5 2.26-.15.82-.25 1.68-.28 2.58-.04.9-.02 1.82.1 2.76.02.47.12.93.2 1.4.08.47.2.93.35 1.4.26.9.56 1.78.83 2.67.3.9.44 1.78.67 2.62.05.2.08.4.1.6-.36-.4-.75-.77-1.18-1.13l-.83-.74-.9-.68c-.58-.46-1.2-.85-1.82-1.26-.62-.4-1.26-.74-1.87-1.1-.63-.3-1.22-.63-1.8-.87-.6-.27-1.16-.5-1.68-.7-.87-.35-1.63-.6-2.23-.77.2-.54.42-1.1.6-1.66l.86-2.43.8-2.57c.57-1.73 1.03-3.55 1.55-5.4.6-2.4 1.2-4.9 1.74-7.5 1.53 2.3 3.63 4.9 6.3 7.56zm213.42-103.05c-.2.82-.38 1.63-.63 2.4-.02-1.2-.05-2.47-.05-3.77l.26-.44.82-1.4.2-.27c-.02.28-.04.56-.08.83-.18.9-.28 1.8-.52 2.65zm3.74-9.66c-.1.06-.26.22-.46.4-.2.2-.44.42-.67.7l-.47.54c0-.57 0-1.1.02-1.65.3-.36.6-.66.82-.9l.72.65.1.2c-.02 0-.03.02-.06.04zm3.45 5.82l.16.3-.26.62.1-.92zm1 3.45c-.2.58-.4 1.26-.62 2-.23.72-.44 1.5-.65 2.3-.1.3-.16.62-.23.94v-.06c.04-1.18.03-2.43.12-3.7 0-.1 0-.22.02-.34.47-.96.96-1.9 1.44-2.75l.3.46-.38 1.17zm262.6-10.53c-.15-.26-.28-.54-.4-.8l.57-.36c.02.5.02 1 .06 1.53v.05l-.23-.4zm2.78 3.26c.25.8.54 1.6.74 2.38-.66-1-1.35-2.08-2.05-3.2v-.5c-.03-.53-.04-1.07-.05-1.6l.02-.36c.13.26.26.5.37.76.33.85.73 1.7.98 2.52zm4.46-6.25l.02.02s0-.02-.02-.02zm2.3 1.58c.13.6.32 1.3.52 2.03.2.73.44 1.5.67 2.3l.3.9-.04-.04c-.6-1.02-1.27-2.08-1.86-3.2-.06-.1-.1-.2-.17-.3-.1-1-.18-2-.23-2.94l.5.12c.08.3.17.7.3 1.13z"/></svg>