<svg xmlns="http://www.w3.org/2000/svg" width="473" height="127" xml:space="preserve"><pattern x=".2" width="11" height="11" patternUnits="userSpaceOnUse" id="a" viewBox="17 -28 11 11" overflow="visible"><path fill="none" d="M17-28h11v11H17z"/><g fill="#1b4787"><path d="M39.4-1.4 38 0 22-16l1.4-1.4zM42.2-4.2l-1.4 1.5-16-16 1.4-1.5zM44.9-6.9l-1.4 1.4-16-16 1.4-1.4z"/></g><g fill="#1b4787"><path d="M28.4-1.4 27 0 11-16l1.4-1.4zM31.2-4.2l-1.4 1.5-16-16 1.4-1.5zM33.9-6.9l-1.4 1.4-16-16 1.4-1.4zM36.7-9.7l-1.4 1.5-16-16 1.4-1.5z"/></g><g fill="#1b4787"><path d="M17.4-1.4 16 0 0-16l1.4-1.4zM20.2-4.2l-1.4 1.5-16-16 1.4-1.5zM22.9-6.9l-1.4 1.4-16-16 1.4-1.4zM25.7-9.7l-1.4 1.5-16-16 1.4-1.5z"/></g><g fill="#1b4787"><path d="m36.7-9.7-1.4 1.5-16-16 1.4-1.5zM39.4-12.4 38-11 22-27l1.4-1.4zM42.2-15.2l-1.4 1.5-16-16 1.4-1.5zM44.9-17.9l-1.4 1.4-16-16 1.4-1.4z"/></g><g fill="#1b4787"><path d="m25.7-9.7-1.4 1.5-16-16 1.4-1.5zM28.4-12.4 27-11 11-27l1.4-1.4zM31.2-15.2l-1.4 1.5-16-16 1.4-1.5zM33.9-17.9l-1.4 1.4-16-16 1.4-1.4zM36.7-20.7l-1.4 1.5-16-16 1.4-1.5z"/></g><g fill="#1b4787"><path d="M17.4-12.4 16-11 0-27l1.4-1.4zM20.2-15.2l-1.4 1.5-16-16 1.4-1.5zM22.9-17.9l-1.4 1.4-16-16 1.4-1.4zM25.7-20.7l-1.4 1.5-16-16 1.4-1.5z"/></g><g fill="#1b4787"><path d="m36.7-20.7-1.4 1.5-16-16 1.4-1.5zM39.4-23.4 38-22 22-38l1.4-1.4zM42.2-26.2l-1.4 1.5-16-16 1.4-1.5zM44.9-28.9l-1.4 1.4-16-16 1.4-1.4z"/></g><g fill="#1b4787"><path d="m25.7-20.7-1.4 1.5-16-16 1.4-1.5zM28.4-23.4 27-22 11-38l1.4-1.4zM31.2-26.2l-1.4 1.5-16-16 1.4-1.5zM33.9-28.9l-1.4 1.4-16-16 1.4-1.4z"/></g><g fill="#1b4787"><path d="M17.4-23.4 16-22 0-38l1.4-1.4zM20.2-26.2l-1.4 1.5-16-16 1.4-1.5zM22.9-28.9l-1.4 1.4-16-16 1.4-1.4z"/></g></pattern><g fill="url(#a)"><path d="M95.7 7.2h18L99.3 124.6h-18l6.3-50.7H30l-6.3 50.7h-18L20.1 7.2h18L32 57.9h57.6l6.2-50.7zM200.6 23h-48.8l-4.4 34.9h42.3l-1.9 16h-42.3l-4.4 34.9H190l-1.9 15.8h-66.8L135.7 7.2h66.8L200.6 23zM206.1 124.6 220.5 7.2h18L226 108.8h41.6l-1.8 15.8H206zM284 124.6 298.2 7.2h18l-12.5 101.6h41.7l-2 15.8H284zM407.6 126.2c-11 0-20.5-2.7-28.6-8.1a47 47 0 0 1-17.7-21.8c-3.8-9.2-5-19.4-3.6-30.4a70.4 70.4 0 0 1 34.2-52.2c9.4-5.4 19.6-8.1 30.4-8.1 10.9 0 20.4 2.7 28.5 8C459 19 465 26.4 468.7 35.6c3.7 9.2 5 19.3 3.6 30.4A70.5 70.5 0 0 1 438 118c-9.5 5.4-19.6 8-30.5 8zm2-17.1c12 0 22.3-4.1 30.7-12.4a50.3 50.3 0 0 0 15-30.8 40 40 0 0 0-7.4-30.9c-6.5-8.2-15.7-12.3-27.6-12.3s-22.1 4-30.6 12.3a50.1 50.1 0 0 0-15 30.9 40 40 0 0 0 7.4 30.8 33 33 0 0 0 27.6 12.4z"/></g><g fill="#FFF"><path d="M90.2 1.6h18L93.8 119h-18l6.3-50.7H24.4L18.2 119H.2L14.6 1.6h18l-6.3 50.7H84l6.3-50.7zM195.1 17.4h-48.8l-4.4 34.9H184l-1.8 16H140l-4.4 34.9h48.9l-2 15.8h-66.8L130.1 1.6H197L195 17.4zM200.6 119 215 1.6h18l-12.5 101.6H262l-1.9 15.8h-59.6zM278.4 119 292.8 1.6h18l-12.5 101.6h41.6L338 119h-59.6zM402 120.6c-10.9 0-20.4-2.7-28.5-8.1a47 47 0 0 1-17.8-21.8c-3.7-9.2-5-19.4-3.6-30.4A70.4 70.4 0 0 1 386.3 8C395.8 2.7 406 0 416.8 0c10.9 0 20.4 2.7 28.5 8 8.1 5.4 14 12.7 17.8 21.9 3.8 9.2 5 19.3 3.6 30.4a70.5 70.5 0 0 1-34.2 52.2c-9.4 5.4-19.6 8-30.4 8zm2.1-17.1c12 0 22.3-4.1 30.7-12.4a50.3 50.3 0 0 0 15-30.8 40 40 0 0 0-7.5-30.9c-6.5-8.2-15.6-12.3-27.5-12.3s-22.1 4-30.6 12.3a50.1 50.1 0 0 0-15 30.9 40 40 0 0 0 7.4 30.8 33 33 0 0 0 27.5 12.4z"/></g></svg>