<?xml version="1.0" encoding="utf-8"?>
<!-- Generator: Adobe Illustrator 16.0.5, SVG Export Plug-In . SVG Version: 6.00 Build 0)  -->
<!DOCTYPE svg PUBLIC "-//W3C//DTD SVG 1.1//EN" "http://www.w3.org/Graphics/SVG/1.1/DTD/svg11.dtd">
<svg version="1.1" id="Layer_1" xmlns="http://www.w3.org/2000/svg" xmlns:xlink="http://www.w3.org/1999/xlink" x="0px" y="0px"
	 width="473px" height="127px" viewBox="0 0 473 127" enable-background="new 0 0 473 127" xml:space="preserve">
<pattern  x="0.18" width="11" height="11" patternUnits="userSpaceOnUse" id="New_Pattern_4" viewBox="16.957 -27.957 11 11" overflow="visible">
	<g>
		<polygon fill="none" points="16.957,-27.957 27.957,-27.957 27.957,-16.957 16.957,-16.957 		"/>
		<g>
			<polygon fill="#1b4787" points="39.414,-1.414 38,0 22,-16 23.414,-17.414 			"/>
			<polygon fill="#1b4787" points="42.164,-4.164 40.75,-2.75 24.75,-18.75 26.164,-20.164 			"/>
			<polygon fill="#1b4787" points="44.914,-6.914 43.5,-5.5 27.5,-21.5 28.914,-22.914 			"/>
		</g>
		<g>
			<polygon fill="#1b4787" points="28.414,-1.414 27,0 11,-16 12.414,-17.414 			"/>
			<polygon fill="#1b4787" points="31.164,-4.164 29.75,-2.75 13.75,-18.75 15.164,-20.164 			"/>
			<polygon fill="#1b4787" points="33.914,-6.914 32.5,-5.5 16.5,-21.5 17.914,-22.914 			"/>
			<polygon fill="#1b4787" points="36.664,-9.664 35.25,-8.25 19.25,-24.25 20.664,-25.664 			"/>
		</g>
		<g>
			<polygon fill="#1b4787" points="17.414,-1.414 16,0 0,-16 1.414,-17.414 			"/>
			<polygon fill="#1b4787" points="20.164,-4.164 18.75,-2.75 2.75,-18.75 4.164,-20.164 			"/>
			<polygon fill="#1b4787" points="22.914,-6.914 21.5,-5.5 5.5,-21.5 6.914,-22.914 			"/>
			<polygon fill="#1b4787" points="25.664,-9.664 24.25,-8.25 8.25,-24.25 9.664,-25.664 			"/>
		</g>
		<g>
			<polygon fill="#1b4787" points="36.664,-9.664 35.25,-8.25 19.25,-24.25 20.664,-25.664 			"/>
			<polygon fill="#1b4787" points="39.414,-12.414 38,-11 22,-27 23.414,-28.414 			"/>
			<polygon fill="#1b4787" points="42.164,-15.164 40.75,-13.75 24.75,-29.75 26.164,-31.164 			"/>
			<polygon fill="#1b4787" points="44.914,-17.914 43.5,-16.5 27.5,-32.5 28.914,-33.914 			"/>
		</g>
		<g>
			<polygon fill="#1b4787" points="25.664,-9.664 24.25,-8.25 8.25,-24.25 9.664,-25.664 			"/>
			<polygon fill="#1b4787" points="28.414,-12.414 27,-11 11,-27 12.414,-28.414 			"/>
			<polygon fill="#1b4787" points="31.164,-15.164 29.75,-13.75 13.75,-29.75 15.164,-31.164 			"/>
			<polygon fill="#1b4787" points="33.914,-17.914 32.5,-16.5 16.5,-32.5 17.914,-33.914 			"/>
			<polygon fill="#1b4787" points="36.664,-20.664 35.25,-19.25 19.25,-35.25 20.664,-36.664 			"/>
		</g>
		<g>
			<polygon fill="#1b4787" points="17.414,-12.414 16,-11 0,-27 1.414,-28.414 			"/>
			<polygon fill="#1b4787" points="20.164,-15.164 18.75,-13.75 2.75,-29.75 4.164,-31.164 			"/>
			<polygon fill="#1b4787" points="22.914,-17.914 21.5,-16.5 5.5,-32.5 6.914,-33.914 			"/>
			<polygon fill="#1b4787" points="25.664,-20.664 24.25,-19.25 8.25,-35.25 9.664,-36.664 			"/>
		</g>
		<g>
			<polygon fill="#1b4787" points="36.664,-20.664 35.25,-19.25 19.25,-35.25 20.664,-36.664 			"/>
			<polygon fill="#1b4787" points="39.414,-23.414 38,-22 22,-38 23.414,-39.414 			"/>
			<polygon fill="#1b4787" points="42.164,-26.164 40.75,-24.75 24.75,-40.75 26.164,-42.164 			"/>
			<polygon fill="#1b4787" points="44.914,-28.914 43.5,-27.5 27.5,-43.5 28.914,-44.914 			"/>
		</g>
		<g>
			<polygon fill="#1b4787" points="25.664,-20.664 24.25,-19.25 8.25,-35.25 9.664,-36.664 			"/>
			<polygon fill="#1b4787" points="28.414,-23.414 27,-22 11,-38 12.414,-39.414 			"/>
			<polygon fill="#1b4787" points="31.164,-26.164 29.75,-24.75 13.75,-40.75 15.164,-42.164 			"/>
			<polygon fill="#1b4787" points="33.914,-28.914 32.5,-27.5 16.5,-43.5 17.914,-44.914 			"/>
		</g>
		<g>
			<polygon fill="#1b4787" points="17.414,-23.414 16,-22 0,-38 1.414,-39.414 			"/>
			<polygon fill="#1b4787" points="20.164,-26.164 18.75,-24.75 2.75,-40.75 4.164,-42.164 			"/>
			<polygon fill="#1b4787" points="22.914,-28.914 21.5,-27.5 5.5,-43.5 6.914,-44.914 			"/>
		</g>
	</g>
</pattern>
<g>
	<g>
		<path fill="url(#New_Pattern_4)" d="M95.739,7.165h18.005L99.34,124.591H81.334l6.263-50.728H29.98l-6.263,50.728H5.712
			L20.116,7.165h18.005l-6.263,50.728h57.617L95.739,7.165z"/>
		<path fill="url(#New_Pattern_4)" d="M200.637,22.979h-48.849l-4.384,34.915h42.273l-1.879,15.97h-42.273l-4.384,34.915h48.849
			l-1.879,15.813h-66.854L135.662,7.165h66.854L200.637,22.979z"/>
		<path fill="url(#New_Pattern_4)" d="M206.116,124.591L220.52,7.165h18.005L226,108.777h41.647l-1.879,15.813H206.116z"/>
		<path fill="url(#New_Pattern_4)" d="M283.93,124.591L298.334,7.165h18.005l-12.525,101.612h41.647l-1.879,15.813H283.93z"/>
		<path fill="url(#New_Pattern_4)" d="M407.618,126.157c-10.96,0-20.486-2.688-28.574-8.064
			c-8.09-5.374-14.013-12.654-17.771-21.841c-3.757-9.184-4.958-19.309-3.601-30.374c1.355-11.062,5.034-21.188,11.038-30.374
			c6.001-9.184,13.724-16.464,23.172-21.841c9.445-5.375,19.596-8.063,30.452-8.063c10.854,0,20.354,2.688,28.495,8.063
			c8.142,5.377,14.092,12.658,17.85,21.841c3.757,9.186,4.956,19.312,3.601,30.374c-1.357,11.065-5.037,21.19-11.038,30.374
			c-6.003,9.187-13.727,16.467-23.172,21.841C428.622,123.47,418.473,126.157,407.618,126.157z M409.653,109.091
			c12.002,0,22.232-4.123,30.688-12.369c8.454-8.244,13.438-18.526,14.952-30.844c1.512-12.315-0.967-22.597-7.438-30.844
			c-6.473-8.244-15.656-12.369-27.556-12.369s-22.103,4.125-30.609,12.369c-8.508,8.247-13.519,18.529-15.03,30.844
			c-1.514,12.317,0.964,22.6,7.438,30.844C388.568,104.968,397.754,109.091,409.653,109.091z"/>
	</g>
	<g>
		<path fill="#FFFFFF" d="M90.206,1.565h18.005L93.807,118.991H75.802l6.263-50.728H24.447l-6.263,50.728H0.18L14.583,1.565h18.005
			l-6.263,50.728h57.617L90.206,1.565z"/>
		<path fill="#FFFFFF" d="M195.104,17.379h-48.849l-4.384,34.915h42.273l-1.879,15.97h-42.273l-4.384,34.915h48.849l-1.879,15.813
			h-66.854L130.129,1.565h66.854L195.104,17.379z"/>
		<path fill="#FFFFFF" d="M200.583,118.991L214.987,1.565h18.006l-12.526,101.612h41.647l-1.879,15.813H200.583z"/>
		<path fill="#FFFFFF" d="M278.396,118.991L292.801,1.565h18.005L298.28,103.178h41.647l-1.879,15.813H278.396z"/>
		<path fill="#FFFFFF" d="M402.085,120.558c-10.96,0-20.486-2.688-28.574-8.064c-8.09-5.374-14.013-12.655-17.771-21.841
			c-3.757-9.184-4.958-19.309-3.601-30.374c1.355-11.062,5.034-21.188,11.038-30.374c6.001-9.184,13.724-16.464,23.172-21.841
			C395.795,2.688,405.945,0,416.802,0c10.854,0,20.354,2.688,28.495,8.063c8.142,5.377,14.092,12.658,17.85,21.841
			c3.757,9.186,4.956,19.312,3.601,30.374c-1.357,11.065-5.037,21.19-11.038,30.374c-6.003,9.186-13.727,16.467-23.172,21.841
			C423.089,117.87,412.939,120.558,402.085,120.558z M404.12,103.491c12.002,0,22.232-4.123,30.688-12.369
			c8.454-8.244,13.438-18.526,14.952-30.844c1.512-12.315-0.967-22.597-7.438-30.844c-6.473-8.244-15.656-12.369-27.556-12.369
			s-22.103,4.125-30.609,12.369c-8.508,8.247-13.519,18.529-15.03,30.844c-1.514,12.317,0.964,22.6,7.438,30.844
			C383.035,99.369,392.221,103.491,404.12,103.491z"/>
	</g>
</g>
</svg>
