<svg width="5760" height="130" xmlns="http://www.w3.org/2000/svg" xmlns:xlink="http://www.w3.org/1999/xlink">
  <defs>
    <path id="transition" d="M1920 0H0v55.6l8 3.6 7.4 1.7 7.5 1 7 2.3 6.9 3.5 7.9.6.4 9.1.7 8.8 2.4 8.6.7 9 7.2 1.7 6.8 1.8 7 .9 6.4 2.2 7.3-1.1 7.8.7 7.6-.4 7.5-1 7.4-2.2 7.4-2 7.7.5 8-1 8.3.9 8.2-1.2 8.2-.7 8.2 1.5 8.2-1.3 8.3.6 7.4-4.2 8.2.3 7.7-2.2 7.5-3.3 8.1-.4 7.7-2.6 7.8-1.5 8.1-.6 7.6-2.5 8-1.5 7.5-3 7.9-1.3 8.2-.7 4.8-6.3 6.3-4.5 4.9-6.2 6-4.8 5.2-5.8 5.4-5.7 7.6-3 7.8-1.8 7.5-2.7 7.3-3 6.3-5.5 8-1.5 7-2.8 7.4 3.5 7.2 4.8 8-.4 8 .7 7.9.3 7.8 1.8 8 .4 7.9.5 8-1 7.9 1.3 8-.2 7 4.5 8.4 1.2 7.3 4 7.5 3.2 7.6 3.3 8 2.4 4.5 6.8 6 5.6 3.6 7.3 5 6.3 5.7 5.7 4.6 6.6 4.4 6.8 4.8 6.5 8 4 8.5 3 7.8 3.7h7.6l7.8-1.2 7.6-2.3 7.6-2 7.7-.3 6 5.7 7.3-.2 7.9-1.4 7.1-4 7.8-1.4 7.2-3.6 8.3.2 7.6-1.7 8-.8 7.8-2.9 8-1 8.4 2.1 8-.7 8-1.8 8.1-.2 8.1-2 4.4 1.1-.7 1-.9 1-.7 1-1.8 1.7 2-1.5.9-.8 1-1 1-1.1 2.4.6v.1l-1.1 1.7-1 1.5-1.2 1.2-1 1-.8.6-.8.6.8-.5 1-.6 1-.9 1.2-1.1 1.3-1.5 1.2-1.6.2-.3 2.8 1-.3.7-.9 2.4-1 2.3-1 2.1-1.2 1.8-1 1.5-.5.5-.4.5-.9.8 1-.7.4-.4.5-.6 1.2-1.4 1.2-1.7 1.3-2 1.1-2.3 1.1-2.4.4-.7 2.3.8-.3 1.8-.5 2.4c-.3.8-.4 1.5-.8 2.2l-1 2-1 1.7-1 1.4-.9 1-.7.8.8-.8a17.3 17.3 0 0 0 2-2.2c.5-.5.8-1 1.2-1.6.5-.6.8-1.3 1.2-2l1-2.3.7-2.4.4-1.6.7.3v2.2l-.5.9-.7 1.4-.6 1.4-.4 1.3-.8 2.6 1.1-2.5.6-1.2.7-1.3.5-.8.1 6.2v.6l-.4.8c-1.1 2.5-2 4.1-2 4.1l2.3-3.9.2-.3v2.2l.2-2.6.6-1.2 1.1-2.3 1.1-2.4 1-2.5.2-.9.9.4-.3.5-.9 2-.7 2-.5 2.2-.4 2-.3 2-.1 1.8v3.6-1l.3-2.6.3-1.7.4-2 .6-2 .7-2 .8-1.8c.4-.7.6-1.3 1-1.8l.4-.7.5.2-.2.2-.8 2-.7 2.3-.5 2.2-.3 2.4-.2 2.3v5.6l.1 1.2v1.1-1l.1-1.3v-1.6l.2-1.9.3-2c0-.8.1-1.5.3-2.3l.5-2.2.7-2.2a15.6 15.6 0 0 1 1.7-3.9l-.1 2.2-.1.2a30.9 30.9 0 0 0-1.8 5.4l-.2 1v1.5-.7l.2-.8.3-1c.2-.7.5-1.5 1-2.3l.5-1V117l-.2.6-.3 1-.1.8-.2.6v.5l.1-.5.2-.6.3-.7.2-.5v.1l.1 1.3.2 1v.9V117.4l.4-.6 1-2.1 1.3-2 1-1.8.4-.5-.3.9-.8 2.3-.9 2.7-.7 2.7-.3 1.2-.2 1.2-.2 1-.1.7v.6-.6l.3-.7.3-1 .3-1 .5-1.2 1-2.6c.5-.8.8-1.7 1.2-2.5l.1-.2 9 3 8.5-2.7 7-1.1 7.6-3.2 9-.3 4.6-2c2.1-1.7 3-2.8 2.8-3.2l1.3-2 .7-.6a29 29 0 0 0 3.1 3.8l.8.7.7.5.6.4-.6-.4-.6-.6-.6-.8-1.5-2-.8-1.6 1 .7 1.4.9 1.3.8 1.1.6 1 .4.7.4-.2-.1-1.3-1.1-1.3-1.4a9 9 0 0 1-1.3-1.7c-.5-1-.7-1-1-1.8l3-4 .2.4 1.4 1.9 1.5 1.9.7.8.7.8.6.6.4.4.4.4-.3-.5-.4-.5-.5-.6-.5-.9-.6-.9-1.2-2-1-2.1-.5-1 .3-.4.3.2c.5.8 1.1 1.5 1.8 2.2l1.8 2.1 1 1 .7.7.8.7.5.5.5.4-.4-.5-.5-.6-.6-.7-.7-.9-.8-1-1.5-2.3-1.5-2.4-.4-.6 5.4-4.8 4-6.6 7.9-3.7 7-5.3 7.5-4.5 8-3.7 8.3-2.5 7.4-4.6 8.4-1.4 8.3-1.9 8.4-1.4 7.8-3.6 8.2-1.9 9-2.1 9.3-1 9-1.7 6.6-4.5 6.5-5 6.4-5 6.8-4.6 6.9-4.7 7.7 1.4 7.6-.2 7.6 1.3 7.7.4 7.6.3 7.7.7 7.7-.4 7.6.3 7.7-.3 7.7.7 8 .1 7.1 5.8 8.6 2.2 6.7 6.2 8.6 1.7 7.1.5 7.4-.5 7.4.9 7.4-.7 7.2-2.7 7 1.8 5.8 4.7 5.4 5.6 6.8 1.6 6.8 1.5 20.7-4 6.3-4.6h16.6l7.9-2.3 8.2-.5 7.9-2.2 6.8-3.2 7.4-2 7.4-2 6.3-4.6 7.5-1.7 6.7-4 7.5-.8 7.5.7 6.1 4.7 7 2.9 7 2.6 6.4 3.8 7.5 1.5 5 1.5 9 1.8 7 .2 7.3-.3 7.5-.2 7.4.1 7.5.2 7.3-2.1 7.6 2 7.4-1.8 6.2-6.5 4.7-8.1h.1v.5h-.3l-.2.5c0 .4-.3 1-.5 1.7l-1 2.4-.5 1.3-.6 1.3-1.5 2.5-.7 1.1-.7 1-1.6 2 1.8-1.8.9-.9.9-1 1.7-2.4.8-1.3.2-.3-1 3.5-.8 1.8-.9 1.8-1 1.6-1 1.3-.8 1-.8.8-.7.7.7-.6.9-.7 1-1 1.1-1.2 1.1-1.6 1-1.7 1-1.9.4-.8-.6 2.6-.7 2.5a28.3 28.3 0 0 1-1.7 4.5c-.2.7-.6 1.3-.9 2l-.9 1.5-.4.6-.4.5-.8.9.9-.9.4-.4.5-.6 1-1.5 1-1.9a36.6 36.6 0 0 0 2-4.5l1-2.4.6-2-.1.4-.2 2.5c-.1.8-.1 1.7-.3 2.5l-.5 2.2-.8 2.1a27.8 27.8 0 0 1-2.6 4.3l-.6 1 .7-1 .8-1a28.9 28.9 0 0 0 2-3.1c.5-.6.7-1.3 1-2 .4-.8.6-1.6.8-2.4l.5-2.5.4-2.4v.4l.1 2.1v.7c0 .3-.2.5-.3.8l-.5 1.6-.4 1.4-.3 1.3-.6 2.7.9-2.6.4-1.3.6-1.3.4-1 .4 3.7c0 .4-.2.7-.3 1l-.7 2.2-1.7 4.2s.9-1.6 2-4.1l.9-2v-.2.5l.5 3.4-.1-3.4V42l.5-1.4.8-2.5.7-2.6.5-2.8.2-.4 1-1a20.7 20.7 0 0 1 1.3-1.1l.3-.3.2.3-1.1 1.8-.8 1.6-.8 1.9-.6 2-.5 2.1-.4 2.2-.2 2v3.8l.2 2.6v1-3.6l.2-1.7.2-2 .4-2 .5-2 .7-2 .8-2 .8-1.7 1-1.4.3-.5v.6l-.5 1-.9 1.7-.6 2.1a20 20 0 0 0-.5 2.3l-.3 2.4V47l.1 2.1.2 2 .2 1.5.2 1.2.2 1-.1-1-.1-1.2-.1-1.6v-4l.1-2.2.3-2.3.4-2.3a20.1 20.1 0 0 1 1.4-4l.1 2.2v.2a30.8 30.8 0 0 0-1.3 5.5l-.1 1v.9l.1.7V46l.1-.8c0-.3 0-.7.2-1a18.6 18.6 0 0 1 1.1-3.5l.2 2 .2 1.7v.2l-.1.6-.2 1v.8l-.1.6-.1.6.1-.5.2-.6c0-.3 0-.5.2-.8l.1-.5v.1l.3 1.3.2 1 .2.8-.1-.8-.1-1-.1-1.3v-1l.2-.6.9-2.1 1-2.2.9-1.8v.3l-.6 2.4a71 71 0 0 0-.5 2.8l-.5 2.7-.2 1.3-.1 1.2v1.7l-.1.6v-.6l.2-.7.2-1 .3-1.1.3-1.2.8-2.7 1-2.6.4-1.3.8 1.2-.6 2.5-.4 2-.3 1.7-.1 1.6.4-1.6.6-1.6.7-1.7.7-1.5 6 5.7 6.2 5.9 4.6 7.2 5.5 6.4 7.4 4.7 4.5 7.6h8.6l8.4 1.4 8.6-.6 8.2 2.8 8.6-.8 8.3 2.6 8.6-1.3 8.4 1.5 8.3-2.4 7.1-4.7 7.2-4.7 7.4-4.1 7.6-3.8 8.5-2 7-5.9 9.3 2.1 8.9 1.7 8.7-1.5 5.9-4.8 4.7-6.7 6.3-5.3 5.5-6 7.5.3 7.3-1.6 7-3 7.5-.6h7.5l7-2.7 3.4-1.2v1.9l-.1 1.2-.4 2.5.7-2.4.2-1.2.2-1.4v-.8l1.2-.4.3 1.9.2 2V35.4l-.3 1.4-.2 1-.3 1 .3-1 .4-1 .4-1.4.2-1.6.1-1.9v-2c0-.7 0-1.4-.2-2v-.1h.2a37 37 0 0 1 1.9 6.5l.4 2.3c.2.8.2 1.5.2 2.1V42l-.2 1.2.3-1.2.1-.6v-.8l.2-1.8-.1-2.1-.3-2.4c0-.8-.2-1.6-.4-2.5l-.6-2.5-.4-1.8v.1l1.2 2.2 1.1 2.3c.2.7.6 1.4.7 2.2l.5 2.2.1 2v4.1-1.1a16.3 16.3 0 0 0 .3-3v-2c0-.8-.2-1.6-.3-2.3 0-.8-.4-1.6-.6-2.4l-.9-2.4-1-2.2.3.3 1.2 1.7.4.5.2 1 .4 1.5.4 1.5.4 1.2 1 2.6-.7-2.6-.3-1.3-.2-1.5-.1-1 2.3 3 .3 1 .5 2.1.8 4.5-.5-4.5-.4-2.2v-.1l.3.3 2.2 2.7-2-2.8-.7-1-.3-1.6-.6-2.5c-.2-1-.5-1.8-.8-2.6l-1-2.5 1.3-.8v.8l.4 2 .5 2.1.7 2.1.9 2 1 1.9 1 1.7.9 1.5 1.5 2 .6.9-.5-.9c-.3-.5-.9-1.2-1.3-2.2l-.9-1.5-.8-1.8-.8-1.9-.6-2-.5-2-.3-2.1a14.2 14.2 0 0 1-.2-3.3h.3v.7l.3 2 .6 2 .8 2.2 1 2.2 1.2 2 1.2 2 1.3 1.7 1.1 1.5c.4.4.8.8 1 1.2l.9 1 .7.7-.7-.8-.7-1-1-1.3-1-1.6-1-1.8-1.1-2-1-2-.8-2.2-.6-2.1-.4-2 1.3 1.8v.2a32 32 0 0 0 1.8 5.4l.5.9.5.7.4.5-.3-.6-.4-.7-.4-1c-.2-.7-.5-1.5-.6-2.4l-.2-1.1 1.2 1.6 1 1.3.1.2.3.6.3.9.4.7.3.6.2.5-.1-.5-.2-.6-.3-.8v-.5.1l.9 1 .7.7.6.6-.6-.7-.6-.8-.8-1-.5-.8-.1-.6-.4-2.4-.3-2.3-.2-2v-.5l.2.8.8 2.3 1 2.6 1 2.6.5 1.2.5 1 .5.9.4.6.3.6-.2-.6-.3-.7-.4-.9-.3-1-.4-1.3-.7-2.7-.6-2.7-.4-2.1 1.2.5 1 3.4.7 1.8.7 1.6.7 1.5-.4-1.6-.4-1.6-.3-2-.3-2.4 4.6 1.8 8.3 1.7 8 2.6 8.4 1 7.4 3.6 3.4 6 3.8 6.3 7.7-1.8 7.3-3 8-1.2 7-4 7.8-1.8 7.6-3.1 7 3.1 7.4 1.5 6.7 3.4 7 1.9h8.3l8.3-1.9 8.5-.1 8.5-1.3 7 1.1 6.2 4.2 7-.5 7.3-.3 6.6-3.2 6.9-2.4 6.9-2.1 6.9-1.4 7.3-4 4.7-7.3 6.4-5.5 5-4.7h1.5V0Z" fill-rule="nonzero"/>
  </defs>
  <use xlink:href="#transition" x="0" y="0" fill="#03082B"  />
  <use xlink:href="#transition" x="1920" y="0" fill="#051750" />
  <use xlink:href="#transition" x="3840" y="0" fill="#00488C" />
</svg>