<?xml version="1.0" encoding="utf-8"?>
<!-- Generator: Adobe Illustrator 16.0.5, SVG Export Plug-In . SVG Version: 6.00 Build 0)  -->
<!DOCTYPE svg PUBLIC "-//W3C//DTD SVG 1.1//EN" "http://www.w3.org/Graphics/SVG/1.1/DTD/svg11.dtd">
<svg version="1.1" id="Layer_1" xmlns="http://www.w3.org/2000/svg" xmlns:xlink="http://www.w3.org/1999/xlink" x="0px" y="0px"
	 width="1920px" height="1080px" viewBox="0 0 1920 1080" enable-background="new 0 0 1920 1080" xml:space="preserve">
<path fill="#135661" d="M1918.579,816.701l-1.433-0.095l-1.424-0.206l-1.389-1.128l-1.422-0.277l-1.456,0.762l-1.399-0.758
	l-1.49,1.548l-1.432,0.038l-1.323-0.846c0.427-0.735,0.688-1.578,0.688-2.489c0-2.762-2.238-5-5-5c-1.711,0-3.217,0.861-4.119,2.171
	c-0.895-1.728-2.676-2.921-4.756-2.921c-0.57,0-1.109,0.113-1.625,0.277v-3.027h-14.5v2.051c-0.167-0.017-0.329-0.051-0.5-0.051
	c-1.396,0-2.653,0.553-3.593,1.439c-1.146-0.898-2.589-1.439-4.157-1.439c-2.524,0-4.723,1.389-5.88,3.442
	c-0.554-0.479-1.277-0.775-2.079-0.775c-1.727,0-3.125,1.343-3.125,3c0,0.169,0.022,0.332,0.052,0.493
	c-0.562-0.801-1.514-1.327-2.594-1.327c-1.019,0-1.912,0.474-2.483,1.196c-0.486-1.047-1.578-1.779-2.85-1.779
	c-1.152,0-2.147,0.605-2.689,1.496c-0.571-0.607-1.391-0.996-2.311-0.996c-1.141,0-2.127,0.592-2.673,1.467
	c-0.283-0.755-1.028-1.299-1.913-1.299c-0.882,0-1.626,0.541-1.911,1.293l-0.214-0.182c-0.009-0.615-0.58-1.112-1.289-1.112
	c-0.713,0-1.291,0.504-1.291,1.125c0,0.118,0.038,0.227,0.077,0.334l-0.5-0.559c0-0.01,0.006-0.018,0.006-0.025
	c0-0.621-0.578-1.125-1.292-1.125c-0.6,0-1.081,0.363-1.227,0.846l-0.013,0.005c-0.368-0.513-0.981-0.85-1.681-0.85
	c-0.562,0-1.071,0.219-1.44,0.572c-0.236-0.243-0.579-0.407-0.975-0.407c-0.146,0-0.281,0.033-0.412,0.072l-0.54-0.374l-0.621,0.037
	c-0.363-0.324-0.848-0.527-1.384-0.527c-1.003,0-1.833,0.697-2.004,1.614l-0.403,0.097l-0.13-0.139
	c0.009-0.053,0.036-0.101,0.036-0.155c0-0.601-0.545-1.083-1.229-1.113l-0.047-0.051l-0.037,0.043
	c-0.338,0.004-0.643,0.122-0.868,0.312c-0.358-0.562-0.998-0.94-1.735-0.94c-1.021,0-1.86,0.724-2.009,1.666l-1.124-1.363
	l-1.437-0.165l-0.473,0.521c-0.122,0.091-0.219,0.199-0.295,0.324l-0.771,0.847l-0.453-0.281c-0.088-1.005-0.954-1.796-2.022-1.796
	c-0.511,0-0.973,0.188-1.33,0.484l-0.021,0.006c-0.234-0.223-0.565-0.366-0.94-0.366c-0.15,0-0.29,0.033-0.424,0.074l-0.481-0.206
	l-0.419,0.385c-0.371-0.479-0.962-0.795-1.633-0.795c-0.28,0-0.548,0.055-0.791,0.153c-0.236-0.265-0.588-0.444-1.002-0.444
	c-0.4,0-0.743,0.168-0.979,0.417c-0.311-0.183-0.671-0.293-1.062-0.293c-0.445,0-0.854,0.141-1.188,0.373l-0.127-0.158l-0.15,0.093
	c-0.236-0.257-0.584-0.432-0.992-0.432c-0.566,0-1.033,0.322-1.207,0.765c-0.373-0.391-0.904-0.64-1.5-0.64
	c-0.495,0-0.943,0.176-1.296,0.458l-0.639-0.36l-0.152,0.062c-0.264-0.073-0.557-0.118-0.872-0.118
	c-0.521,0-0.992,0.114-1.343,0.299l-0.526-0.218l-1.427-0.189l-1.449,0.459l-1.402-0.686l-0.291,0.329
	c-0.237-0.246-0.58-0.411-0.979-0.411c-0.713,0-1.291,0.504-1.291,1.125c0,0.074,0.032,0.139,0.049,0.209l-0.389-0.166l-1.382-1.196
	l-1.466,0.994l-1.312-1.106c-0.418-0.512-1.188-0.858-2.084-0.858c-0.987,0-1.833,0.42-2.209,1.021l-0.063,0.008l-0.254-0.035
	c-0.334-0.247-0.867-0.409-1.474-0.409c-0.533,0-1.01,0.126-1.345,0.324l-0.809,0.315c-0.22-0.278-0.562-0.474-0.973-0.474
	c-0.354,0-0.666,0.144-0.888,0.361c-0.064-0.622-0.721-1.111-1.529-1.111c-0.494,0-0.929,0.187-1.211,0.469
	c-0.018-2.193-1.799-3.969-3.997-3.969c-1.022,0-1.947,0.396-2.655,1.029c-0.982-1.086-2.39-1.779-3.97-1.779
	c-2.969,0-5.375,2.406-5.375,5.375c0,0.026,0.008,0.05,0.008,0.076l-1.062,0.015c-0.259-1.677-1.696-2.966-3.446-2.966
	c-0.967,0-1.842,0.393-2.475,1.025c-0.871-0.85-2.174-1.4-3.65-1.4c-1.462,0-2.754,0.542-3.625,1.376
	c-0.49-1.175-1.646-2.001-3-2.001c-1.705,0-3.089,1.318-3.224,2.989l-0.792-0.196l-1.438-0.381l-1.47,0.5l-1.408-0.94l-1.422-0.688
	l-1.448-0.094l-1.142,0.518c-0.488-0.652-1.281-1.083-2.183-1.083c-0.688,0-1.311,0.256-1.785,0.664l-0.7,0.027l-1.445-0.111
	l-0.793,0.354c-0.457-0.345-1.024-0.559-1.65-0.559c-0.39,0-0.755,0.082-1.088,0.226l-0.797-0.52l-1.494,1.064l-1.397-1.18
	l-0.071,0.062c-0.492-0.548-1.214-0.902-2.026-0.902c-1.287,0-2.359,0.869-2.625,2.027l-0.694-0.6
	c-0.052-1.142-1.022-2.054-2.226-2.054c-0.536,0-1.021,0.188-1.406,0.49c-0.468-0.812-1.36-1.365-2.397-1.365
	c-1.117,0-2.074,0.638-2.505,1.551c-0.499-0.269-1.1-0.426-1.745-0.426c-1.15,0-2.146,0.503-2.688,1.244
	c-0.289-0.922-1.604-1.619-3.188-1.619c-1.064,0-2.003,0.32-2.596,0.809l-0.382-0.377l-0.807,0.332
	c-0.44-0.164-0.964-0.264-1.528-0.264c-0.889,0-1.672,0.243-2.188,0.615v-18.74h-7.375v16.591c-0.623-0.363-1.484-0.591-2.438-0.591
	c-1.863,0-3.371,0.863-3.427,1.939l-1.09,0.795l-1.426-0.181l-1.42-0.262l-1.429-0.144l-1.418,0.483l-1.42,0.118l-1.421,0.145
	l-1.429-0.429l-1.437-1.038l-1.396,1.607l-1.431-0.8l-0.188-0.038c0.069-0.24,0.116-0.493,0.116-0.762
	c0-1.277-0.867-2.312-1.938-2.312s-1.938,1.035-1.938,2.312c0,0.46,0.114,0.887,0.31,1.245l-0.619-0.237l-1.416,0.271l-1.419,0.072
	l-1.419,0.078l-1.419,0.071l-1.436-1.16l-1.396,1.55l-1.42,0.002l-1.426-0.536l-1.406,0.727l-0.889-1.077
	c-0.358-0.967-1.894-1.692-3.732-1.692c-1.844,0-3.381,0.729-3.735,1.698l-0.163-0.139l-1.417-0.071l-1.404,0.8l-1.425-0.331
	l-1.413-0.369l-1.418-0.326l-1.476,1.534l-1.432-0.072l-1.432,0.08l-1.431-0.09l-1.429-0.008l-1.429,0.026l-0.728-0.562
	c0.006-0.057,0.017-0.113,0.017-0.172c0-1.605-2.134-2.927-4.875-3.104V792.5h-13.75v12.428l-0.621,0.335l-1.431,0.115l-1.423-0.199
	l-1.413-0.466l-1.423-0.086l-0.849,0.309c0.127-0.457,0.2-0.938,0.2-1.436c0-2.991-2.444-5.416-5.458-5.416
	c-3.017,0-5.459,2.425-5.459,5.416c0,0.578,0.094,1.135,0.263,1.657l-0.104,0.003l-1.425,0.184l-1.375-1.668l-1.454-0.061
	l-1.504-0.091l-1.443,0.507l-1.42,0.897l-1.52-0.995l-1.443,0.465l-1.481-0.321l-1.47-0.088l-1.447,0.323l-1.383,1.435l-1.479-0.334
	l-1.522-1.073l-1.366,1.8l-1.496-0.564l-1.438,0.453l-1.532-1.266l-1.431,0.63l-1.445,0.271l-1.437,0.518l-1.455,0.161l-1.457,0.079
	l-1.508-1.306l-1.436,1.504l-1.459-0.28l-1.457-0.406l-1.452-0.828l-1.455,0.318l-1.454,1.488l-1.452-1.664l-1.454,1.161
	l-1.449-0.993l-1.45,0.238l-1.452-0.476l-1.452,1.733l-1.104-0.747c-0.906-2.036-3.336-3.497-6.199-3.497
	c-2.716,0-5.046,1.312-6.052,3.184l-1.155-0.737l-1.452,0.944l-1.45-0.358l-1.448,1.146l-1.446-0.582l-1.445-1.183l-1.354,1.763
	c-0.724-1.636-3.182-2.842-6.11-2.842c-2.418,0-4.518,0.82-5.584,2.024l-0.009,0.002l-1.469,0.172l-1.428-0.573l-1.424-0.725
	l-1.452-0.081l-1.502,0.97l-1.441-0.313l-1.447-0.113l-1.478,0.495l-1.408-0.959l-1.427-0.582l-1.463,0.138l-1.501,0.959
	l-1.386-1.43l-1.52,1.317l-1.473,0.404l-1.399-1.146l-1.462,0.148l-1.45-0.02l-1.417-0.729l-1.441-0.198l-1.488,0.684l-1.419-0.714
	l-1.504,1.091l-1.408-0.856l-1.419-0.628l-1.458,0.171l-1.496,0.913l-1.434-0.43l-1.466,0.267l-1.402-0.952l-1.439-0.164
	l-1.516,1.42l-1.441-0.103l-1.36-1.862l-1.46,0.162l-0.961,0.069c-0.392-1.514-2.252-2.662-4.5-2.662
	c-1.522,0-2.861,0.532-3.694,1.342c-0.851-0.821-2.05-1.342-3.388-1.342c-0.866,0-1.666,0.229-2.361,0.604
	c-0.68-0.768-1.792-1.271-3.056-1.271c-0.535,0-1.042,0.093-1.502,0.254c-0.58-0.26-1.225-0.42-1.915-0.42
	c-1.715,0-3.185,0.908-3.887,2.215c-0.558-0.543-1.259-0.882-2.03-0.882c-0.95,0-1.797,0.5-2.393,1.284l-0.829-0.062l-1.461,0.36
	l-1.447-0.067l-1.458,0.41l-1.445-0.209l-1.45-0.116l-1.474,1.081l-1.438-0.475l-1.439-0.293l-1.456,0.398l-1.437-0.496
	l-1.467,0.726l-1.412-1.789l-1.463,0.574l-1.437-0.482l-1.469,1.121l-1.438-0.331l-1.448,0.192l-1.44-0.362l-1.44-0.646
	l-1.465-0.315l-1.459,0.111l-1.457,1.379l-1.453,0.028l-1.455-1.191l-1.452-0.153l-1.452,1.419l-1.454-1.204l-1.449,1.191
	l-1.449-0.639l-1.453,0.165l-1.451-0.371l-1.452,0.747l-1.147-0.927c-0.416-0.938-1.135-1.56-1.954-1.56
	c-1.007,0-1.855,0.938-2.184,2.244l-0.521-0.16l-1.451-0.994l-1.451-0.013l-1.428,0.938c-0.505-0.996-1.487-1.683-2.634-1.683
	c-1.045,0-1.964,0.565-2.5,1.421l-0.688,0.202l-1.448-0.724l-0.809,0.652c-0.443-1.459-2.237-2.553-4.391-2.553
	c-1.77,0-3.285,0.744-4.021,1.817l-0.916,0.129l-1.445,0.031l-1.443,0.411l-1.442-0.363l-1.449,0.765l-1.448,0.271l-1.448-0.311
	l-1.447-0.711l-1.45,0.84l-1.449-1.25l-1.448,1.146l-1.447-0.322l-0.598,0.241c-0.377-1.356-1.665-2.361-3.212-2.361
	c-1.321,0-2.453,0.736-2.991,1.796l-0.443-0.435l-1.449,0.551l-1.456,0.783l-1.447-0.033l-1.405-1.06l-0.961,0.896
	c-0.989-1.953-3.381-3.333-6.178-3.333c-2.46,0-4.603,1.068-5.758,2.653l-0.021,0.007l-1.431-0.058l-1.42-0.439l-1.459,0.821
	l-1.444,0.291l-1.431-0.054l-1.39-1.274l-1.47,1.073l-1.426-0.185l-1.432,0.021l-1.39-1.302l-1.433,0.058l-0.055,0.033
	c-0.259-1.887-1.438-3.313-2.86-3.313c-1.279,0-2.354,1.159-2.747,2.764l-0.042-0.013l-1.466,1.152l-1.419-0.332l-1.436,0.144
	l-1.448,0.521l-1.409-0.643l-1.438,0.291l-1.372-1.67l-1.426,0.006l-1.453,0.88l-0.655,0.049c-0.288-1.5-1.787-2.647-3.606-2.647
	c-1.363,0-2.54,0.651-3.171,1.605c-0.742-0.964-2.027-1.605-3.495-1.605c-1.891,0-3.469,1.064-3.979,2.514l-0.812,0.432
	l-1.391-0.547l-1.401-0.357l-1.382-0.797l-1.432,0.462l-1.383-0.78l-1.451,0.997l-1.384-0.682l-0.958,0.222
	c-0.583-0.964-1.742-1.629-3.096-1.629c-1.179,0-2.216,0.504-2.85,1.27l-0.155-0.057l-1.407-0.131l-0.757,0.229
	c-0.791-0.802-1.911-1.312-3.164-1.312c-1.239,0-2.352,0.497-3.141,1.283l-0.101,0.024l-1.434,0.812l-1.432-1.441l-1.432,1.36
	l-1.432,0.18l-1.428-0.724l-1.428-0.523l-1.433-0.154l-1.431,1.409l-1.432,0.035l-1.43-1.559l-1.431,0.305l-1.431,0.501
	l-1.428-0.503l-1.43,1.252l-1.431-0.848l-1.428,0.133l-1.427,0.372l-1.428,0.097l-1.432-1.017l-1.434,0.534l-1.426-0.522
	l-1.406-0.723l-1.482,0.579l-1.477,0.526l-1.439-0.129l-1.378-1.093l-1.493,0.801l-1.396-0.782l-1.459,0.287l-1.445,0.087
	l-1.455,0.159l-1.396-0.753l-1.445,0.017l-1.462,0.317l-1.419-0.428l-1.438-0.103l-1.418-0.37l-1.419-0.419l-1.437-0.089
	l-1.474,0.507l-1.394-0.752l-1.456,0.249l-1.455,0.2l-1.4-0.688l-1.522,1.384l-1.38-0.944l-1.411-0.448l-1.415-0.401l-1.442,0.053
	l-1.481,0.646l-1.445,0.098l-1.436-0.043l-1.453,0.281l-1.452,0.255l-1.343-1.495l-1.451,0.178l-1.5,0.974l-1.329-1.814l-1.471,0.49
	l-1.411-0.481l-1.494,0.854l-1.412-0.454l-1.503,0.957l-1.421-0.593l-1.424-0.527l-1.416-0.562l-1.514,1.23l-1.394-1.037
	l-1.46,0.282l-1.481,0.651l-1.356-1.616l-1.516,1.377l-1.426-0.415l-1.438-0.126l-1.468,0.384l-1.438-0.135l-1.418-0.532
	l-1.394-0.991l-1.444,0.044l-1.463,0.349l-1.404-0.786l-1.497,1.053l-1.384-1.135l-1.484,0.817l-1.425-0.4l-1.466,0.434
	l-1.437-0.118l-1.44,0.037l-1.429-0.245l-1.406-0.639l-1.445,0.062l-1.476,0.593l-1.418-0.413l-1.439-0.362l-1.43-0.814
	l-1.471,0.736l-1.425-0.782l-1.483,1.248l-1.411-1.22l-1.458,0.435l-1.458,0.391l-1.461,0.66l-1.408-1.2l-1.474,0.933l-1.439-0.193
	l-1.448,0.146l-1.398-1.632l-1.482,1.249l-1.455,0.403l-1.43-0.486l-1.457,0.444l-1.396-1.739l-1.476,1.198l-1.434-0.324
	l-1.438-0.159l-1.448,0.179l-1.443-0.024l-1.405-1.276l-1.465,0.888l-1.465,0.896l-1.394-1.646l-1.453,0.346l-1.43-0.555
	l-1.482,1.498l-1.403-1.285l-1.426-0.399l-1.463,0.902l-1.409-0.986l-1.443,0.046l-1.473,1.085l-1.416-0.893l-1.479,1.278
	l-1.439-0.142l-1.423-0.691l-1.431-0.418l-1.435-0.227l-1.479,1.379l-1.436-0.244l-1.448,0.251l-1.396-1.592l-1.44-0.106
	l-1.46,0.695l-1.389-0.599l-1.391,0.761l-1.388,0.362l-1.384-1.392l-1.387,0.542l-1.386,0.793l-1.383-1.214l-0.17,0.195v-1.614H988
	v1.768l-0.912,0.674l-1.37-1.466l-1.504,1.234l-1.423-0.401l-1.424-0.367l-1.438-0.042l-1.447,0.121l-1.448,0.227l-1.406-0.61
	l-1.442,0.021l-1.438-0.047l-1.454,0.273l-1.375-1.267l-1.497,1.123l-1.394-0.771l-1.153-0.202V788H956v0.805l-0.602,0.397
	l-1.381-0.849l-1.439-0.136l-0.828-0.314V787h-7.5v1.186l-0.407,0.203l-1.407-0.53l-1.061,0.533v-2.267h-7.75v1.234l-1.128,0.488
	c-0.015-1.852-1.63-3.349-3.622-3.349c-1.869,0-3.39,1.322-3.586,3.014l-0.054-0.042l-1.414,0.894l-1.455-1.238l-1.408,1.132
	l-1.429,0.098l-1.451-1.05l-0.629,0.391c-0.248-1.807-1.662-3.195-3.387-3.195c-1.75,0-3.178,1.431-3.394,3.275l-1.144,0.574
	l-1.433-0.088l-1.412,0.547l-1.486-1.211l-0.07,0.077V787h-10v1.072l-1.341,0.439l-1.438-0.21l-1.39,0.865l-1.453-0.491
	l-0.629-0.047v-0.755H877.5v2.158l-0.783,0.149l-1.407,0.422l-0.435-0.221v-1.947H864.75v2.122l-1.023-0.745l-1.227,0.67V788h-8.75
	v2.271l-0.158,0.028l-1.463-0.767l-1.435,0.759l-0.068,0.03v-1.886h-7.875v1.664l-0.753-0.216l-0.051,0.058
	c-0.937-1.087-2.598-1.817-4.508-1.817c-2.373,0-4.358,1.124-5.04,2.664l-0.469-0.218l-1.38-0.6l-1.416,0.211l-1.449,0.966
	l-1.337-1.405l-0.019-0.002c-0.781-0.977-2.061-1.616-3.516-1.616c-1.652,0-3.07,0.83-3.795,2.036l-0.148,0.012
	c-0.578-1.812-3.013-3.173-5.931-3.173c-2.371,0-4.419,0.9-5.415,2.209l-1.144,0.216l-1.412-0.942l-1.479-0.137l-1.533,0.533
	l-0.475-0.228c0.005-0.072,0.019-0.142,0.019-0.215c0-1.554-1.091-2.812-2.438-2.812c-1.348,0-2.438,1.259-2.438,2.812
	c0,0.038,0.008,0.072,0.01,0.109l-0.663,0.719l-1.403-0.993l-1.517,0.318L792,787.85v-5.975h-24.5v4.886l-0.33,0.125l-1.374-1.1
	l-1.462,0.174l-1.445-0.044l-1.337,1.518l-1.485-1.208l-1.4,0.301l-1.46-0.753l-1.318,1.771l-1.504-1.613l-1.341,1.359l-1.284,0.381
	V784h-12.423v4.12l-0.402,0.267l-1.537-0.747l-1.498-0.347l-1.331,1.429l-1.416,0.541l-1.483-0.225l-1.54-0.85l-1.411,0.565
	l-1.472-0.141l-0.57-0.014c-1.011-1.754-3.252-2.977-5.859-2.977c-2.794,0-5.164,1.401-6.056,3.357
	c-0.4-0.435-0.938-0.805-1.59-1.077v-6.946h-7.792v2.599H700v-2.14h-13.655v2.75h-8.161c-0.871-0.104-1.766-0.168-2.684-0.168
	c-2.536,0-4.921,0.423-7,1.166v-2.957h-8.667v-4.459h-12.667v6.918h-1.333v-5.834h-9.5v-5h-3.167v-3.5H627.5v3.5h-3.333v5.917h-3.75
	v3.25H615.5V768.5h-2.833v12.668h-7v-16.5h-2.292v-0.715l1.319,0.513l0.361-0.932l-9-3.5l-0.361,0.932l0.634,0.247v3.455h-0.995
	v10.579l-18.458-1.079v3.582H566.5v-15.416l-6,5h-2.333v3.834h-9.042V768.5H543v2.668h-13.5v7h-2.666v-15.334h-3.667v-2.166H518
	v2.166h-0.833v13h-9v-3.833l-7.5,4v3.333H494v-1.833h-6.833v-3.667H477.5v1.334h-7.333v2.833h-3.542v-2.626h-4.75v-9.625h-0.438v-12
	h0.547l0.388-6h0.925l0.113-1.625h1.463v-1.3h-2.672l-0.988-3.869l0.973-1.581h-1.376l-0.436-1.708H460V721h-1v16.667h-0.375
	l-0.436,1.708h-1.377l0.974,1.581l-0.988,3.869h-2.672v1.3h1.347l0.151,1.625h0.879l0.388,6h0.547v12h-5.312V778H444v-3.25h-13.5
	v6.668h-9.498v2.779l-1.061,0.121l-1.394,0.88l-1.417,0.401l-1.466-0.694l-1.401,0.728l-1.431,0.011l-1.454-0.555l-1.427,0.042
	l-1.435-0.125l-1.432,0.046l-1.443-0.246l-1.4,1.354l-1.506-1.156l-1.405,1.219l-1.446,0.158l-1.499-1.058l-1.458-0.112
	l-1.441,0.194l-1.42,0.807l-1.466-0.408l-1.479-0.725l-1.45,0.075l-1.396,1.297l-1.479-0.642l-1.423,0.653l-1.478-0.602
	l-1.462-0.276l-1.446,0.043l-1.407,1.058l-1.474-0.562l-1.461-0.289l-1.385,1.521l-1.46-0.289l-1.501-1.226l-1.397,1.239l-1.464-0.4
	l-1.465-0.468l-1.412,0.833l-1.448-0.063l-1.476-0.644l-1.424,0.631l-1.474-0.645l-1.446,0.004l-1.394,1.214l-1.414,0.678
	L355,787.09l-1.412,0.893l-1.484-0.896l-1.388,1.445l-1.452-0.093l-1.446,0.043l-1.5-1.23l-1.397,1.215l-1.443,0.094l-1.479-0.779
	l-1.456-0.229l-1.461-0.312l-1.381,1.605l-1.449,0.002l-1.445,0.086l-1.478-0.967l-1.444-0.297l-1.464,1.341l-1.452-0.029
	l-1.451,0.289l-1.45-0.06l-1.441-1.155l-1.447-0.005l-1.454,0.604l-1.437-1.244l-1.456,1.642l-1.45,0.143l-1.443-0.602l-1.445-0.563
	l-1.453,0.94l-1.447-0.276l-1.449,0.377l-1.434-1.857l-1.447,0.056l-1.456,1.227l-1.444-0.242l-1.44-0.664l-1.444-0.105
	l-1.455,1.114l-1.443-0.396l-1.445,0.122l-1.441-0.199l-1.436-0.913l-1.445,0.374l-1.448,0.511l-1.442-0.719l-1.448,0.59
	l-1.438-0.578l-1.445,0.696l-1.439-0.101l-1.434-0.855l-1.448,0.519l-1.453,1.262l-1.436-1.208l-1.441-0.627l-1.448,0.451
	l-1.45,0.66l-1.448,0.441l-1.436-1.197l-1.449,0.854l-1.444,0.042l-1.438-0.973l-1.453,1.083l-1.442-0.475l-1.444-0.014
	l-1.438-0.909l-1.444,0.197l-1.44-0.321l-1.451,1.115l-1.439-0.548l-1.447,0.507l-1.438-0.86l-1.452,1.054l-1.447,0.271l-1.434-1.52
	l-1.442-0.071l-1.454,1.616l-1.437-0.717l-1.447,0.754l-1.431-1.7l-1.449,1.084l-1.441-0.074l-1.445,0.449l-1.44-0.463l-1.438-0.831
	l-1.453,1.31l-1.445,0.084l-1.444,0.023l-1.438-0.725l-1.446,0.572l-1.436-0.872l-1.444,0.406l-1.443,0.479l-1.434-0.921
	l-1.436-0.734l-1.441,0.239l-1.447,0.982l-1.44-0.023l-1.442,0.229l-1.433-1.235l-1.452,1.554l-1.431-1.662l-1.444,0.145
	l-1.451,1.144l-1.44-0.594l-1.446,0.344l-1.447,0.64l-1.441,0.003l-1.429-1.767l-1.443,0.301l-1.449,1.273l-1.439,0.104
	l-1.435-0.649l-1.432-1.061l-1.446,1.192l-1.433-0.744l-1.436-0.296l-1.449,1.561l-1.427-1.571l-1.445,1.072l-1.431-1.098
	l-1.447,1.201l-1.431-1.146l-1.44,0.148l-1.438-0.119l-1.445,0.847l-1.439-0.194l-1.438-0.443l-1.438-0.497l-1.452,1.572
	l-1.439-0.517l-1.438-0.714l-1.447,0.697l-1.434-1.07l-1.448,1.103l-1.439-0.098l-1.435-0.638l-1.442,0.527l-1.439,0.243
	l-1.432-0.861l-1.445,1.116l-1.433-0.486l-1.446,0.713l-1.43-1.665l-1.452,1.568l-1.436-0.896l-1.445,0.399l-1.445,0.354
	l-1.435-1.123L140,786.066l-1.444,0.249l-1.443,0.215l-1.405-0.319l-1.449,0.147l-1.585,1.216l-1.359-1.137L131,786.618v-4.117
	h-6.833v3.943l-0.191,0.163l-1.407-0.563l-1.43-0.322l-0.472,0.066v-2.121H113v1.537l-0.621,0.324l-1.433-0.01l-1.364-0.476
	l-1.422,0.492l-1.379-0.796l-1.422,0.674l-1.381-0.687l-1.31-1.027V782.5h-5.5v1.349l-0.161,0.034l-1.409,0.247l-0.263-0.168v-1.296
	h-10v1.126l-1.014,0.473l-1.418,0.462l-1.417-0.459l-1.415-0.442l-0.736,0.48V782.5h-6.167v1.04l-0.172-0.006l-1.416,0.814
	l-1.415,0.268l-1.416-0.147l-1.405-0.007l-1.489-0.798l-1.44,0.671l-0.58,0.131v-1.8h-8.667v-9.833H48.5v11.349l-0.141,0.034
	l-1.471,1.22l-1.43-1.459l-1.46,0.084l-1.476,0.926l-1.446-0.539l-1.478,1.065l-1.434-0.962l-1.445-0.519l-1.467,0.718L34,784.678
	v-2.011h-5.5v1.792l-0.511,0.046l-1.432-1.103l-1.468,0.713l-1.438-0.646l-1.476,1.082l-1.425-0.072l-1.404,0.527l-0.513-0.151
	v-12.021h-6.167v12.535l-0.791,0.107l-1.509-0.03l-0.034,0.027v-0.891h-4.5v-1.917H0v4.291v0.577v2.914v0.218V1080h1920V815.356
	L1918.579,816.701z M597.328,761.602l1.033,0.401v2.665h-1.033V761.602z M599.361,762.392l0.639,0.249v2.027h-0.639V762.392z
	 M601,763.029l1.375,0.535v1.104H601V763.029z"/>
</svg>
