<?xml version="1.0" encoding="utf-8"?>
<!-- Generator: Adobe Illustrator 16.0.5, SVG Export Plug-In . SVG Version: 6.00 Build 0)  -->
<!DOCTYPE svg PUBLIC "-//W3C//DTD SVG 1.1//EN" "http://www.w3.org/Graphics/SVG/1.1/DTD/svg11.dtd">
<svg version="1.1" id="Layer_1" xmlns="http://www.w3.org/2000/svg" xmlns:xlink="http://www.w3.org/1999/xlink" x="0px" y="0px"
	 width="1920px" height="1080px" viewBox="0 0 1920 1080" enable-background="new 0 0 1920 1080" xml:space="preserve">
<path fill="#D7F2F1" d="M362.49,150.646c-1.252,0-2.445,0.248-3.541,0.688c0.023-0.332,0.051-0.663,0.051-1.001
	c0-7.153-5.498-13.013-12.497-13.607c-3.229-10.274-12.829-17.727-24.17-17.727c-13.418,0-24.394,10.435-25.27,23.631
	c-3.007-3.517-7.468-5.754-12.459-5.754c-8.052,0-14.734,5.809-16.118,13.461c-2.225-3.223-5.94-5.338-10.153-5.338
	c-5.857,0-10.75,4.087-12.009,9.562c-1.74-2.552-4.669-4.228-7.991-4.228c-4.421,0-8.141,2.971-9.292,7.023
	c-1.339-1.446-3.249-2.357-5.375-2.357c-2.761,0-5.162,1.527-6.414,3.78c-1.06-0.87-2.415-1.393-3.893-1.393
	c-2.951,0-5.413,2.082-6.003,4.856c-0.869-0.612-1.974-0.995-3.196-0.995c-2.436,0-4.46,1.463-4.909,3.401
	c-0.918-0.681-2.288-1.124-3.841-1.124c-2.501,0-4.555,1.128-4.928,2.598c-1.528-0.409-3.695-0.667-6.105-0.667
	c-4.627,0-8.378,0.942-8.378,2.104c0,1.163,3.75,2.104,8.378,2.104h19.783h54.172H362.49c5.252,0,9.51-4.258,9.51-9.51
	C372,154.901,367.742,150.646,362.49,150.646z"/>
<path fill="#D7F2F1" d="M1813.75,143.003c-2.348,0-4.561,0.563-6.53,1.539c-2.657-9.043-11.013-15.647-20.916-15.647
	c-5.741,0-10.962,2.223-14.855,5.851c-3.698-11.794-14.712-20.351-27.728-20.351c-12.385,0-22.952,7.752-27.134,18.666
	c-4.098-3.888-9.631-6.278-15.726-6.278c-10.283,0-18.979,6.79-21.854,16.129c-3.229-3.521-7.854-5.742-13.009-5.742
	c-8.366,0-15.357,5.822-17.187,13.632c-2.508-3.979-6.929-6.632-11.979-6.632c-6.344,0-11.711,4.17-13.517,9.917
	c-2.049-2.395-5.087-3.917-8.483-3.917c-4.9,0-9.054,3.161-10.558,7.552c-1.438-1.177-3.273-1.885-5.276-1.885
	c-3.621,0-6.694,2.314-7.844,5.542c-1.023-0.756-2.285-1.209-3.656-1.209c-2.569,0-4.771,1.572-5.696,3.806
	c-0.597-0.293-1.26-0.472-1.97-0.472c-1.983,0-3.647,1.291-4.247,3.072c-0.521-0.359-1.154-0.572-1.837-0.572
	c-1.724,0-3.119,1.345-3.229,3.041c-0.533-0.623-1.461-1.038-2.521-1.038c-1.656,0-3,1.006-3,2.249c0,0.15,0.021,0.296,0.059,0.438
	c-0.594-0.265-1.514-0.439-2.559-0.439c-1.795,0-3.25,0.504-3.25,1.125s1.455,1.125,3.25,1.125h5h12.084v-0.025
	c0.084,0.005,0.164,0.025,0.25,0.025h35H1728.5h15.221h70.029c8.146,0,14.75-6.604,14.75-14.75S1821.896,143.003,1813.75,143.003z"
	/>
<path fill="#D7F2F1" d="M1335.488,133.684c-3.377,0-6.473,1.203-8.882,3.203c-2.664-6.542-9.077-11.159-16.577-11.159
	c-2.9,0-5.631,0.706-8.056,1.93c-3.608-9.276-12.62-15.853-23.173-15.853c-9.361,0-17.513,5.178-21.753,12.825
	c-1.271-0.273-2.586-0.425-3.938-0.425c-7.645,0-14.205,4.601-17.091,11.18c-1.339-0.447-2.767-0.7-4.255-0.7
	c-4.463,0-8.403,2.187-10.845,5.537c-1.794-1.145-3.92-1.817-6.206-1.817c-4.567,0-8.505,2.655-10.383,6.5
	c-0.972-0.38-2.025-0.596-3.132-0.596c-4.017,0-7.38,2.752-8.333,6.471c-1.15-1.181-2.755-1.917-4.533-1.917
	c-2.96,0-5.438,2.033-6.134,4.778c-0.452-0.173-0.938-0.278-1.45-0.278c-1.631,0-3.028,0.963-3.683,2.347
	c-0.549-0.322-1.198-0.513-1.9-0.513c-1.417,0-2.63,0.766-3.181,1.861c-0.654-0.427-1.523-0.694-2.486-0.694
	c-2.024,0-3.666,1.157-3.666,2.583c0,1.426,1.642,2.583,3.666,2.583h37.097h0.278h128.613c7.688,0,13.923-6.233,13.923-13.923
	S1343.178,133.684,1335.488,133.684z M1194.165,157.875h-0.099c0.013-0.027,0.025-0.053,0.039-0.081
	C1194.124,157.822,1194.146,157.848,1194.165,157.875z"/>
</svg>
