<?xml version="1.0" encoding="utf-8"?>
<!-- Generator: Adobe Illustrator 16.0.5, SVG Export Plug-In . SVG Version: 6.00 Build 0)  -->
<!DOCTYPE svg PUBLIC "-//W3C//DTD SVG 1.1//EN" "http://www.w3.org/Graphics/SVG/1.1/DTD/svg11.dtd">
<svg version="1.1" id="Layer_1" xmlns="http://www.w3.org/2000/svg" xmlns:xlink="http://www.w3.org/1999/xlink" x="0px" y="0px"
	 width="1920px" height="1080px" viewBox="0 0 1920 1080" enable-background="new 0 0 1920 1080" xml:space="preserve">
<polyline fill="none" stroke="#0b2159" stroke-width="0.25" stroke-miterlimit="10" points="223.401,776.52 224.672,771.774 
	225.943,776.52 "/>
<path fill="#0b2159" d="M733.833,845.645h-2.086c0.074-0.288,0.125-0.588,0.125-0.899c0-2.017-1.633-3.648-3.648-3.648
	s-3.648,1.634-3.648,3.648c0,0.312,0.051,0.611,0.125,0.899h-0.284v-4.229h-3.604v3.238l-0.584-0.321v-7.083h-7.062v-4.417h-7.792
	V827H700v6.207l-2.5-1.375L697,831.7V828h-1.137c0.001-0.039,0.012-0.076,0.012-0.116c0-2.329-1.888-4.218-4.218-4.218
	c-2.025,0-3.714,1.43-4.121,3.334h-4.619v-3.166H675.5v-1.917h-2.413c0.011-0.104,0.031-0.205,0.031-0.312
	c0-1.622-1.315-2.938-2.938-2.938c-1.622,0-2.937,1.315-2.937,2.938c0,0.476,0.123,0.916,0.323,1.312h-2.214v-1H657.5v-2.25H650
	v-1.501h-7.225c-0.376-2.354-2.702-4.166-5.523-4.166c-2.111,0-3.948,1.015-4.896,2.511c-1.393-1.514-3.756-2.511-6.438-2.511
	c-2.3,0-4.36,0.737-5.779,1.9c-1.168-1.441-3.216-2.4-5.554-2.4c-1.196,0-2.312,0.254-3.28,0.691
	c-1.162-1.441-2.88-2.358-4.803-2.358c-1.11,0-2.153,0.307-3.06,0.842c-1.392-1.43-3.499-2.342-5.857-2.342
	c-1.336,0-2.589,0.295-3.68,0.808c-1.363-2.262-4.09-3.808-7.237-3.808c-1.77,0-3.403,0.493-4.74,1.322
	c-1.274-1.791-3.561-2.989-6.177-2.989c-1.862,0-3.555,0.61-4.839,1.604c-1.761-1.197-4.13-1.938-6.744-1.938
	c-2.677,0-5.101,0.771-6.874,2.021c-1.322-1.146-3.13-1.855-5.126-1.855c-2.584,0-4.852,1.188-6.158,2.978
	c-1.274-1.118-3.01-1.811-4.926-1.811c-2.261,0-4.271,0.963-5.566,2.457c-1.685-2.094-4.382-3.457-7.434-3.457
	c-3.624,0-6.752,1.919-8.271,4.707c-2.021-1.663-4.882-2.707-8.063-2.707c-3.2,0-6.075,1.057-8.098,2.736
	c-1.301-1.649-3.193-2.695-5.31-2.695c-1.891,0-3.604,0.836-4.876,2.19c-1.761-2.301-4.755-3.815-8.155-3.815
	c-2.338,0-4.481,0.719-6.167,1.914c-1.671-2.966-5.455-5.039-9.863-5.039c-4.114,0-7.688,1.805-9.505,4.457
	c-1.289-1.876-3.727-3.146-6.526-3.146c-0.69,0-1.355,0.083-1.99,0.229c-0.394-3.155-3.155-5.604-6.51-5.604
	c-2.175,0-4.097,1.032-5.291,2.615c-0.69-0.609-1.56-0.99-2.521-0.99c-1.41,0-2.645,0.791-3.356,1.979
	c-0.594-0.488-1.332-0.792-2.144-0.792c-0.822,0-1.568,0.312-2.166,0.812c-0.754-0.575-1.727-0.937-2.804-0.937
	c-1.079,0-2.053,0.361-2.806,0.938c-0.817-0.869-2.053-1.438-3.455-1.438c-1.338,0-2.524,0.517-3.341,1.318
	c-1.047-1.434-3.02-2.401-5.284-2.401c-2.778,0-5.116,1.456-5.844,3.442c-0.869-0.569-2.212-0.942-3.739-0.942
	c-0.722,0-1.399,0.088-2.012,0.235c-0.533-1.017-1.834-1.735-3.363-1.735c-1.654,0-3.034,0.846-3.469,1.994
	c0.001-0.026,0.01-0.052,0.01-0.077c0-1.657-1.791-3-4-3c-1.396,0-2.622,0.538-3.337,1.351c-0.786-1.479-2.595-2.518-4.704-2.518
	c-1.977,0-3.672,0.92-4.527,2.252c-0.961-1.468-3.254-2.502-5.932-2.502c-1.771,0-3.375,0.452-4.536,1.183L366,791.749l-10.167-0.25
	l-1.75,0.916l-0.057,4.847l-4.099-1.525c0.205-0.492,0.321-1.021,0.321-1.569c0-2.67-2.612-4.834-5.833-4.834
	c-2.254,0-4.206,1.062-5.177,2.612l-5.505-1.589l-8.517-1.228l-10.78-0.203l-8.327-1.213c-0.646-2.713-3.471-4.756-6.86-4.756
	c-1.421,0-2.742,0.361-3.846,0.979l-1.049-0.533c-0.45-1.261-1.998-2.195-3.855-2.195c-0.416,0-0.809,0.06-1.186,0.146l-1.014-0.339
	c-0.633-1.401-2.735-2.434-5.238-2.434c-0.988,0-1.912,0.163-2.711,0.444l-1.421-0.292c-0.334-1.146-2.264-2.027-4.618-2.027
	c-1.504,0-2.828,0.365-3.686,0.924l-5.294-0.467l-6.833,0.334l-3.911-0.435c-0.642-1.265-2.252-2.166-4.152-2.166
	c-1.507,0-2.834,0.568-3.641,1.435H238h-14.833l-15.167,1h-12.865c-0.428-1.28-1.527-2.197-2.828-2.197
	c-1.601,0-2.897,1.389-3.005,3.139l-10.801,1.894l-1.281,0.71c-0.258-0.339-0.585-0.619-0.992-0.793
	c-1.397-0.597-3.078,0.206-3.756,1.794c-0.251,0.589-0.328,1.202-0.255,1.771l-0.228,0.126c-0.353-0.114-0.722-0.192-1.113-0.192
	c-1.153,0-2.169,0.549-2.833,1.389c-0.547-0.979-1.531-1.639-2.667-1.639c-1.726,0-3.125,1.511-3.125,3.375
	c0,0.199,0.023,0.392,0.054,0.581c-0.411-0.124-0.845-0.206-1.304-0.206c-2.209,0-4,1.567-4,3.5c0,0.05,0.015,0.096,0.017,0.146
	c-0.366-0.085-0.744-0.146-1.142-0.146c-2.396,0-4.337,1.652-4.369,3.699c-0.32-0.117-0.654-0.199-1.006-0.199
	c-1.696,0-3.108,1.465-3.43,3.409c-0.596-0.262-1.252-0.409-1.945-0.409c-2.513,0-4.557,1.908-4.822,4.351
	c-0.342-0.062-0.692-0.101-1.053-0.101c-2.592,0-4.781,1.715-5.5,4.072l-0.571,0.207c-0.907-0.496-1.948-0.779-3.055-0.779
	c-2.694,0-4.993,1.674-5.926,4.035L122,809.665l-2.311,0.229c-0.616-1.502-2.089-2.562-3.814-2.562c-2.009,0-3.679,1.438-4.046,3.34
	l-3.33,0.329l-0.958-0.104c-0.888-1.525-2.522-2.564-4.416-2.564c-1.5,0-2.837,0.656-3.774,1.684l-1.684-0.182l-6.711-0.133
	c-0.836-1.693-2.563-2.869-4.581-2.869c-1.944,0-3.615,1.096-4.483,2.689l-0.893-0.018l-21.501,3.587l-9.043,1.693
	c-1.069-1.91-3.109-3.203-5.454-3.203c-2.129,0-4.007,1.065-5.135,2.692l-5.875-1.901l-3.415-1.436
	c-1.112-3.398-4.305-5.855-8.075-5.855c-3.593,0-6.659,2.231-7.902,5.384l-0.139,0.034l-6.299,0.938
	c-1.265-1.148-2.94-1.855-4.785-1.855c-1.221,0-2.37,0.309-3.375,0.85V1080h996.607L730.214,850.666h3.619V845.645z
	 M536.366,817.934c0.009-0.017,0.018-0.033,0.026-0.052c0.017,0.013,0.031,0.026,0.048,0.039L536.366,817.934z M713.167,840.449
	l-0.081-0.045h0.081V840.449z"/>
<polygon fill="#0b2159" points="224.672,771.774 223.855,774.823 225.488,774.823 "/>
</svg>
