<?xml version="1.0" encoding="utf-8"?>
<!-- Generator: Adobe Illustrator 16.0.5, SVG Export Plug-In . SVG Version: 6.00 Build 0)  -->
<!DOCTYPE svg PUBLIC "-//W3C//DTD SVG 1.1//EN" "http://www.w3.org/Graphics/SVG/1.1/DTD/svg11.dtd">
<svg version="1.1" id="Layer_1" xmlns="http://www.w3.org/2000/svg" xmlns:xlink="http://www.w3.org/1999/xlink" x="0px" y="0px"
	 width="1920px" height="1080px" viewBox="0 0 1920 1080" enable-background="new 0 0 1920 1080" xml:space="preserve">
<path fill="#09174d" d="M1374.104,890.166L1324,875.938l-51.925-21.851L1235.5,837l-16-10.5l-12.608-8.405
	c0.309-0.686,0.483-1.421,0.483-2.189c0-3.591-3.638-6.5-8.125-6.5c-1.554,0-3,0.354-4.234,0.96l-2.639-1.617
	c0.4-0.77,0.623-1.612,0.623-2.497c0-3.59-3.638-6.5-8.125-6.5c-2.074,0-3.96,0.627-5.396,1.649L1172,798l-0.035-0.01
	c-1.102-1.559-3.248-2.615-5.715-2.615c-0.88,0-1.718,0.136-2.483,0.38L1161,795l-13,0.5l-6.697-2.87
	c0.128-0.567,0.197-1.154,0.197-1.755c0-4.901-4.488-8.875-10.024-8.875c-2.159,0-4.153,0.61-5.79,1.639
	c-1.36-4.031-6.104-7.014-11.766-7.014c-4.975,0-9.244,2.302-11.132,5.596L1093,784l-22,1l-14-0.5l-1.471,0.227
	c-0.733-2.144-3.264-3.727-6.279-3.727c-3.59,0-6.5,2.238-6.5,5c0,0.232,0.027,0.458,0.067,0.682l-5.317,0.818l-14.5,3l-30.5,14
	L972,826l-83.5,45.858l261.859,48.547L1477.25,924L1374.104,890.166z"/>
</svg>
