<?xml version="1.0" encoding="utf-8"?>
<!-- Generator: Adobe Illustrator 16.0.5, SVG Export Plug-In . SVG Version: 6.00 Build 0)  -->
<!DOCTYPE svg PUBLIC "-//W3C//DTD SVG 1.1//EN" "http://www.w3.org/Graphics/SVG/1.1/DTD/svg11.dtd">
<svg version="1.1" id="Layer_1" xmlns="http://www.w3.org/2000/svg" xmlns:xlink="http://www.w3.org/1999/xlink" x="0px" y="0px"
	 width="1920px" height="1080px" viewBox="0 0 1920 1080" enable-background="new 0 0 1920 1080" xml:space="preserve">
<polygon fill="#4889c9" points="1920,741.789 1918.805,741.997 1917.354,741.452 1915.929,741.947 1914.492,742.055 
	1913.046,741.51 1911.621,741.928 1910.178,741.723 1908.752,742.242 1907.311,742.009 1905.875,742.072 1904.439,742.161 
	1903.005,741.835 1901.529,742.154 1900.092,741.881 1898.664,741.501 1897.182,741.882 1895.783,741.149 1894.297,741.574 
	1892.898,740.879 1891.425,741.14 1889.959,741.354 1888.554,740.775 1887.126,740.451 1885.68,740.369 1884.189,740.852 
	1882.798,740.088 1881.347,740.07 1879.91,739.876 1878.454,739.956 1876.995,740.067 1875.562,740.101 1874.168,739.618 
	1872.707,740.013 1871.332,739.386 1869.899,739.441 1868.497,739.144 1867.092,738.895 1865.677,738.747 1864.219,739.211 
	1862.812,739.013 1861.409,738.744 1860.002,738.517 1858.601,738.22 1857.182,738.167 1855.732,738.467 1854.301,738.588 
	1852.903,738.266 1851.512,737.888 1850.084,737.706 1848.676,737.335 1847.182,737.697 1845.75,737.567 1844.381,736.925 
	1842.906,737.146 1841.516,736.7 1840.098,736.452 1838.622,736.721 1837.216,736.427 1835.85,735.767 1834.346,736.24 
	1832.919,736.081 1831.576,735.246 1830.096,735.528 1828.678,735.314 1827.305,734.732 1825.816,735.085 1824.391,734.934 
	1822.975,734.693 1821.556,734.395 1820.173,733.845 1818.75,733.608 1817.299,733.592 1815.814,733.799 1814.388,733.606 
	1812.987,733.24 1811.602,732.743 1810.153,732.736 1808.693,732.811 1807.334,732.139 1805.914,731.914 1804.483,731.751 
	1803.016,731.862 1801.573,731.791 1800.189,731.303 1798.732,731.357 1797.312,731.137 1795.922,730.701 1794.501,730.494 
	1793.104,730.222 1791.699,730.016 1790.312,729.696 1788.842,729.988 1787.505,729.325 1786.042,729.565 1784.638,729.403 
	1783.297,728.778 1781.909,728.513 1780.506,728.364 1779.064,728.448 1777.691,728.07 1776.334,727.572 1774.936,727.377 
	1773.468,727.646 1772.107,727.182 1770.678,727.209 1769.314,726.757 1767.936,726.428 1766.564,726.227 1765.151,726.159 
	1763.911,725.493 1762.641,724.928 1761.152,725.024 1759.882,724.459 1758.727,723.553 1757.274,723.548 1756.02,722.942 
	1754.636,722.31 1753.108,722.155 1751.684,721.671 1750.327,720.976 1748.825,720.748 1747.468,720.052 1746.041,719.596 
	1744.486,719.586 1743.095,719.824 1741.689,719.367 1740.287,719.688 1738.888,719.319 1737.485,719.854 1736.086,719.793 
	1734.688,719.787 1733.287,719.29 1731.891,719.734 1730.495,719.747 1729.095,719.425 1727.696,719.314 1726.297,719.171 
	1724.899,719.766 1723.524,719.742 1722.157,720.026 1720.688,719.919 1719.273,720.088 1717.988,720.875 1716.597,721.145 
	1715.23,721.535 1713.842,721.794 1712.367,721.641 1710.974,721.922 1710.002,722.956 1708.608,723.354 1707.801,724.636 
	1706.641,725.403 1705.319,725.881 1703.993,726.321 1702.893,727.237 1701.571,727.68 1700.234,728.257 1698.686,727.893 
	1697.299,728.191 1695.973,728.905 1694.548,729.041 1693.101,729.001 1691.683,729.158 1690.32,729.771 1688.884,729.798 
	1687.466,730.018 1686.035,730.105 1684.578,729.916 1683.179,730.212 1681.779,730.555 1680.333,730.424 1678.936,730.789 
	1677.496,730.704 1676.102,731.104 1674.68,731.192 1673.233,730.99 1671.83,731.31 1670.449,731.911 1668.986,731.562 
	1667.551,731.585 1666.189,732.01 1664.84,732.507 1663.47,732.918 1661.994,732.706 1660.645,733.266 1659.241,733.515 
	1657.778,733.374 1656.441,734.01 1655.011,734.051 1653.604,734.262 1652.146,734.129 1650.753,734.411 1649.33,734.494 
	1647.98,735.118 1646.545,735.105 1645.162,735.489 1643.711,735.348 1642.354,735.93 1640.948,736.211 1639.463,735.803 
	1638.044,735.942 1636.695,736.719 1635.249,736.6 1633.862,737.036 1632.383,736.527 1631.007,737.075 1629.574,737.175 
	1628.159,737.468 1626.725,737.4 1625.279,737.184 1623.885,737.775 1622.463,737.883 1621.033,737.952 1619.599,737.718 
	1618.175,737.963 1616.747,737.636 1615.318,737.786 1613.889,737.956 1612.464,737.586 1611.032,737.294 1609.6,737.385 
	1608.172,737.774 1606.741,737.788 1605.311,737.911 1603.86,737.484 1602.453,738.138 1600.995,737.565 1599.568,737.695 
	1598.164,738.215 1596.721,738.075 1595.299,738.302 1593.886,738.646 1592.456,738.75 1590.977,738.182 1589.531,738.408 
	1588.113,739.007 1586.67,739.154 1585.201,739.013 1583.724,738.711 1582.311,739.271 1580.843,739.089 1579.385,739.075 
	1577.976,739.773 1576.489,739.27 1575.07,739.777 1573.596,739.451 1572.178,740.005 1570.704,739.658 1569.261,739.806 
	1567.811,739.85 1566.384,740.262 1564.933,740.273 1563.475,740.188 1562.017,740.081 1560.6,740.765 1559.141,740.646 
	1557.677,740.452 1556.241,740.796 1554.773,740.46 1553.347,740.955 1551.901,740.988 1550.442,740.811 1549.004,741.076 
	1547.54,741.266 1546.05,741.033 1544.609,741.558 1543.133,741.468 1541.686,741.838 1540.18,741.295 1538.755,741.993 
	1537.268,741.745 1535.817,741.994 1534.367,742.227 1532.875,741.893 1531.396,741.742 1529.938,741.935 1528.48,742.112 
	1527.01,742.086 1525.554,742.288 1524.126,742.902 1522.639,742.608 1521.201,743.105 1519.715,742.796 1518.261,742.956 
	1516.779,742.733 1515.354,743.403 1513.882,743.331 1512.418,743.352 1510.969,743.578 1509.515,743.792 1508.01,743.261 
	1506.534,743.43 1505.061,743.575 1503.6,743.99 1502.125,744.092 1500.645,743.979 1499.18,744.237 1497.695,744.002 
	1496.235,744.33 1494.756,744.136 1493.268,743.793 1491.794,743.797 1490.339,744.377 1488.851,743.975 1487.382,744.16 
	1485.914,744.325 1484.433,744.057 1482.979,744.635 1481.484,744.197 1480.057,744.871 1478.558,744.366 1477.099,744.443 
	1475.655,744.725 1474.215,745.072 1472.77,745.344 1471.306,745.262 1469.839,745.185 1468.41,745.634 1466.963,745.788 
	1465.479,745.451 1464.021,745.467 1462.564,745.542 1461.132,745.949 1459.686,746.145 1458.229,746.182 1456.775,746.273 
	1455.301,746.039 1453.863,746.368 1452.418,746.565 1450.942,746.261 1449.506,746.58 1448.032,746.359 1446.602,746.785 
	1445.146,746.814 1443.688,746.745 1442.26,747.155 1440.796,747.019 1439.332,746.903 1437.885,747.108 1436.466,747.682 
	1434.982,747.229 1433.558,747.369 1432.156,747.832 1430.718,747.734 1429.325,748.252 1427.877,747.991 1426.443,747.901 
	1425.043,748.286 1423.62,748.361 1422.186,748.201 1420.781,748.486 1419.359,748.575 1417.943,748.733 1416.494,748.42 
	1415.096,748.802 1413.659,748.663 1412.27,749.188 1410.85,749.268 1409.438,749.481 1408,749.309 1406.61,749.808 
	1405.156,749.344 1403.75,749.621 1402.33,749.709 1400.905,749.706 1399.513,750.154 1398.1,750.267 1396.655,749.925 
	1395.251,750.182 1393.82,750.078 1392.424,750.496 1390.764,750.521 1392.427,750.56 1393.855,750.38 1395.28,750.413 
	1396.701,750.386 1398.124,750.468 1399.543,750.701 1400.963,750.663 1402.388,750.422 1403.804,750.568 1405.219,750.709 
	1406.637,751.021 1408.061,750.738 1409.479,751.04 1410.902,750.561 1412.318,751.03 1413.739,750.863 1415.159,750.714 
	1416.582,750.461 1417.996,750.923 1419.417,750.564 1420.833,750.64 1422.251,750.584 1423.664,751.211 1425.088,750.732 
	1426.506,750.576 1427.919,750.765 1429.336,750.594 1430.743,751.263 1432.166,750.803 1433.584,750.929 1435,750.989 
	1436.464,750.952 1437.925,750.993 1439.367,751.516 1440.834,751.205 1442.304,750.893 1443.739,751.556 1445.197,751.454 
	1446.646,751.699 1448.117,751.154 1449.553,751.68 1451.004,751.864 1452.469,751.549 1453.912,751.959 1455.366,751.973 
	1456.834,751.587 1458.276,751.961 1459.745,751.501 1461.197,751.587 1462.642,751.884 1464.088,752.075 1465.537,752.193 
	1467.006,751.695 1468.457,751.82 1469.912,751.755 1471.344,752.396 1472.791,752.469 1474.248,752.232 1475.689,752.509 
	1477.15,752.264 1478.608,752.172 1480.042,752.753 1481.5,752.592 1482.952,752.254 1484.42,752.686 1485.861,752.041 
	1487.327,752.624 1488.77,752.082 1490.225,752.193 1491.688,752.632 1493.127,752.128 1494.584,752.458 1496.021,751.97 
	1497.485,752.473 1498.924,751.938 1500.378,752.028 1501.831,752.109 1503.281,752.062 1504.73,751.956 1506.176,751.808 
	1507.631,751.981 1509.079,751.912 1510.527,751.868 1511.971,751.701 1513.43,752.127 1514.869,751.634 1516.324,751.869 
	1517.771,751.886 1519.214,751.716 1520.653,751.446 1522.098,751.345 1523.551,751.56 1525.002,751.686 1526.467,751.811 
	1527.934,751.372 1529.398,751.652 1530.859,751.658 1532.322,751.819 1533.784,751.157 1535.243,751.312 1536.705,751.582 
	1538.163,751.652 1539.62,751.315 1541.081,751.474 1542.541,751.144 1544.002,751.403 1545.461,751.371 1546.921,751.396 
	1548.38,751.232 1549.838,751.704 1551.297,751.479 1552.757,751.548 1554.214,751.338 1555.67,751.242 1557.127,751.244 
	1558.587,751.693 1560.044,751.361 1561.491,751.848 1562.968,751.498 1564.433,751.545 1565.874,752.032 1567.349,751.781 
	1568.791,752.227 1570.27,751.903 1571.737,751.74 1573.172,752.325 1574.639,752.137 1576.091,752.255 1577.559,752.129 
	1578.991,752.692 1580.479,752.214 1581.928,752.389 1583.382,752.545 1584.852,752.356 1586.28,752.966 1587.765,752.484 
	1589.188,753.214 1590.65,753.136 1592.098,753.314 1593.567,753.081 1595.014,753.37 1596.465,753.51 1597.912,753.698 
	1599.365,753.741 1600.845,753.273 1602.274,753.795 1603.732,753.785 1605.209,753.454 1606.655,753.688 1608.11,753.682 
	1609.566,753.618 1611,754.003 1612.453,754.2 1613.901,753.849 1615.354,754.301 1616.797,753.986 1618.244,753.963 
	1619.688,753.613 1621.135,754.021 1622.578,753.716 1624.02,753.706 1625.467,754.116 1626.91,753.889 1628.355,754.039 
	1629.8,753.913 1631.242,753.804 1632.689,754.094 1634.13,753.798 1635.57,753.552 1637.013,753.473 1638.459,753.649 
	1639.904,753.988 1641.343,753.771 1642.786,753.928 1644.224,753.319 1645.67,753.658 1647.114,754.001 1648.551,753.793 
	1649.988,753.725 1651.425,753.388 1652.868,753.598 1654.312,753.787 1655.754,753.666 1657.188,753.256 1658.631,753.756 
	1660.067,753.774 1661.501,753.359 1662.954,753.71 1664.422,753.37 1665.874,753.561 1667.329,753.53 1668.782,753.657 
	1670.242,753.436 1671.689,753.575 1673.134,754.036 1674.588,753.833 1676.045,753.582 1677.488,753.973 1678.945,753.852 
	1680.389,754.204 1681.84,754.246 1683.299,754.03 1684.743,754.283 1686.205,753.891 1687.641,754.534 1689.109,753.839 
	1690.55,754.211 1692.003,754.078 1693.443,754.448 1694.893,754.534 1696.342,754.583 1697.785,754.786 1699.248,754.189 
	1700.693,754.26 1702.13,754.698 1703.592,754.221 1705.041,754.305 1706.479,754.771 1707.927,754.691 1709.377,754.531 
	1710.814,754.732 1712.255,754.9 1713.702,754.999 1715.154,754.876 1716.6,755.017 1718.055,754.812 1719.496,755.241 
	1720.951,755.155 1722.402,755.214 1723.855,754.672 1725.298,755.179 1726.747,755.104 1728.191,755.438 1729.641,754.797 
	1731.083,755.458 1732.529,754.979 1733.973,754.861 1735.416,755.312 1736.859,755.367 1738.305,755.484 1739.749,755.463 
	1741.198,755.049 1742.645,754.82 1744.082,755.447 1745.526,755.282 1746.975,754.991 1748.413,755.342 1749.854,755.539 
	1751.3,755.05 1752.745,754.904 1754.188,755.054 1755.626,755.444 1757.066,755.289 1758.504,755.405 1759.944,755.481 
	1761.386,755.455 1762.834,755.116 1764.271,755.597 1765.711,755.556 1767.153,755.015 1768.588,755.387 1770.021,755.553 
	1771.468,755.138 1772.907,755.441 1774.348,755.597 1775.791,755.269 1777.233,755.453 1778.675,755.638 1780.118,755.453 
	1781.559,755.579 1783,755.489 1784.445,755.465 1785.892,755.773 1787.335,755.662 1788.775,755.717 1790.218,755.646 
	1791.658,755.435 1793.097,755.771 1794.538,755.652 1795.975,755.424 1797.41,755.467 1798.852,755.83 1800.29,755.486 
	1801.73,755.329 1803.168,755.65 1804.608,755.572 1806.046,755.242 1807.483,755.297 1808.922,755.709 1810.36,755.363 
	1811.797,755.178 1813.232,755.525 1814.669,755.355 1816.107,755.639 1817.545,755.751 1818.98,755.318 1820.414,755.439 
	1821.848,755.625 1823.282,755.816 1824.718,755.227 1826.156,755.301 1827.593,755.361 1829.026,755.602 1830.458,755.436 
	1831.889,755.302 1833.319,755.631 1834.756,755.608 1836.191,755.72 1837.627,755.146 1839.062,755.324 1840.499,755.741 
	1841.939,755.165 1843.374,755.479 1844.806,755.906 1846.239,755.621 1847.675,755.474 1849.105,755.521 1850.533,755.807 
	1851.967,755.643 1853.396,755.455 1854.82,755.854 1856.251,755.951 1857.684,755.645 1859.113,755.8 1860.546,755.419 
	1861.977,755.414 1863.403,755.785 1864.834,755.5 1866.265,755.382 1867.689,755.917 1869.121,755.502 1870.545,755.931 
	1871.972,756.02 1873.402,755.919 1874.834,755.552 1876.259,755.73 1877.686,755.617 1879.107,755.965 1880.533,755.807 
	1881.959,756.064 1883.388,756.201 1884.816,756.011 1886.24,756.077 1887.667,755.705 1889.088,755.842 1890.508,755.878 
	1891.938,755.646 1893.359,756.273 1894.792,755.637 1896.216,756.09 1897.646,755.792 1899.069,756.293 1900.499,755.846 
	1901.952,755.932 1903.4,755.617 1904.855,755.816 1906.3,755.604 1907.754,755.829 1909.197,755.586 1910.653,756.062 
	1912.093,755.509 1913.543,755.854 1914.984,755.739 1916.428,755.438 1917.882,755.835 1919.329,755.86 1920,755.88 "/>
</svg>
