<?xml version="1.0" encoding="utf-8"?>
<!-- Generator: Adobe Illustrator 16.0.5, SVG Export Plug-In . SVG Version: 6.00 Build 0)  -->
<!DOCTYPE svg PUBLIC "-//W3C//DTD SVG 1.1//EN" "http://www.w3.org/Graphics/SVG/1.1/DTD/svg11.dtd">
<svg version="1.1" id="Layer_1" xmlns="http://www.w3.org/2000/svg" xmlns:xlink="http://www.w3.org/1999/xlink" x="0px" y="0px"
	 width="1920px" height="1080px" viewBox="0 0 1920 1080" enable-background="new 0 0 1920 1080" xml:space="preserve">
<rect y="722" fill="#78c6f7" width="1920" height="358"/>
<polygon fill="#6ab4ed" points="1920,717.712 1919.194,717.391 1918.335,717.623 1917.518,717.369 1916.68,717.354 1915.84,717.408 
	1915.028,717.045 1914.186,717.044 1913.323,717.264 1912.499,716.93 1911.689,717.024 1910.907,717.282 1910.105,717.385 
	1909.294,717.401 1908.466,717.239 1907.669,717.363 1906.881,717.586 1906.062,717.562 1905.253,717.589 1904.445,717.649 
	1903.673,718.073 1902.862,718.113 1902.061,718.225 1901.232,718.084 1900.439,718.304 1899.617,718.271 1898.822,718.519 
	1897.996,718.472 1897.186,718.634 1896.347,718.649 1895.604,719.137 1894.753,719.1 1893.93,719.164 1893.164,719.536 
	1892.366,719.754 1891.527,719.77 1890.696,719.812 1889.888,719.968 1889.102,720.253 1888.279,720.356 1887.529,720.811 
	1886.71,720.938 1885.892,721.065 1885.07,721.177 1884.264,721.354 1883.442,721.479 1882.826,721.693 1882.116,721.812 
	1881.793,721.787 1880.821,721.979 1881.547,721.908 1881,722 1904,722 1920,722 "/>
<path fill="#6ab4ed" d="M1571.232,721.631l-0.818-0.258l-0.751-0.518l-0.87-0.069l-0.792-0.364l-0.904,0.072l-0.773-0.417
	l-0.89-0.011l-0.826-0.237l-0.859-0.13l-0.801-0.354l-0.78-0.241l-0.73-0.421l-0.841-0.004l-0.765-0.284l-0.771-0.285l-0.819-0.088
	l-0.796-0.175l-0.811-0.135l-0.721-0.46l-0.779-0.242l-0.849,0.005l-0.727-0.446l-0.793-0.201l-0.782-0.23l-0.794-0.189
	l-0.776-0.269l-0.785-0.241l-0.795-0.213l-0.878,0.084l-0.799-0.27l-0.776-0.376l-0.876-0.004l-0.77-0.397l-0.839-0.134
	l-0.857-0.062l-0.744-0.514l-0.85-0.104l-0.86-0.062l-0.766-0.437l-0.867-0.041l-0.783-0.361l-0.845-0.114l-0.781-0.379
	l-0.809-0.281l-0.911,0.103l-0.779-0.407l-0.76-0.299l-0.846,0.134l-0.755-0.35l-0.783-0.188l-0.843,0.121l-0.756-0.337
	l-0.782-0.201l-0.788-0.175l-0.809-0.075l-0.765-0.311l-0.803-0.104l-0.853,0.145l-0.786-0.18l-0.779-0.235l-0.812-0.075
	l-0.757-0.373l-0.831,0.053l-0.777-0.299l-0.814,0.149l-0.784-0.292l-0.824,0.187l-0.785-0.277l-0.797-0.124l-0.826,0.244
	l-0.783-0.343l-0.808-0.021l-0.794-0.195l-0.821,0.122l-0.803-0.096l-0.809-0.026l-0.795-0.175l-0.818,0.07l-0.808-0.084
	l-0.819,0.035l-0.8-0.192l-0.801-0.208l-0.813-0.091l-0.837,0.172l-0.796-0.233l-0.829,0.047l-0.793-0.268l-0.833,0.117
	l-0.798-0.219l-0.819-0.06l-0.801-0.214l-0.846,0.198l-0.812-0.146l-0.787-0.354l-0.822,0.007l-0.843,0.161l-0.776-0.456
	l-0.82-0.074l-0.85,0.177l-0.813-0.368l-0.817,0.154l-0.786,0.242l-0.796,0.161l-0.812,0.049l-0.787,0.248l-0.835-0.144
	l-0.792,0.158l-0.805,0.09l-0.791,0.215l-0.825-0.076l-0.809,0.047l-0.799,0.131l-0.784,0.281l-0.823-0.045l-0.804,0.107
	l-0.823-0.026l-0.797,0.186l-0.792,0.208l-0.792,0.2l-0.805,0.143l-0.841-0.146l-0.817,0.044l-0.786,0.312l-0.828,0.062
	l-0.807,0.264l-0.844-0.05l-0.827,0.077l-0.834,0.017l-0.841-0.052l-0.823,0.106l-0.811,0.271l-0.845-0.071l-0.818,0.164
	l-0.834-0.001l-0.812,0.229l-0.844-0.071l-0.819,0.121l-0.824,0.097l-0.838,0.008l-0.825,0.103l-0.787,0.457l-0.861-0.212
	l-0.835,0.024l-0.817,0.196l-0.825,0.107l-0.843-0.029l-0.837,0.052l-0.795,0.458l-0.866-0.161l-0.789,0.302l-0.824,0.135
	l-0.843,0.044l-0.787,0.288l-0.81,0.197l-0.796,0.261l-0.86-0.028l-0.802,0.208l-0.771,0.358l-0.866-0.058l-0.77,0.376l-0.797,0.24
	l-0.865-0.064l-0.787,0.308l-0.808,0.216l-0.857-0.022l-0.771,0.396l-0.846,0.043l-0.813,0.184l-0.767,0.394l-0.885-0.122
	l-0.751,0.485l-0.844,0.081l-0.787,0.349l-0.849-0.082l-0.821,0.044l-0.743,0.46l-0.802,0.173l-0.823,0.048l-0.792,0.226
	l-0.838-0.015l-0.787,0.246l-0.812,0.118l-0.774,0.302l-0.854-0.112l-0.815,0.084l-0.769,0.332l-0.816,0.086l-0.79,0.229
	l-0.79,0.244l-0.831,0.023l-0.766,0.363l-0.804,0.169l-0.812,0.104l-0.821,0.067l-0.809,0.141l-0.854-0.082l-0.746,0.47
	l-0.804,0.177l-0.867-0.175l-0.754,0.425l-0.817,0.104l-0.826,0.056l-0.771,0.312l-0.85-0.071l-0.812,0.135l-0.74,0.489
	l-0.826,0.041l-0.851-0.082l-0.779,0.312l-0.775,0.319l-0.83,0.038l-0.836,0.021l-0.785,0.278l-0.779,0.305l-0.806,0.165
	l-0.876-0.186l-0.752,0.469l-0.834,0.058l-0.825,0.101l0.094,0.069l0.825,0.062l0.818-0.062l0.104-0.045l48.159,0.491l38.503-0.107
	l49.502,0.005l41.009-0.581l-1.519-0.146l0.597-0.04L1571.232,721.631z M1396.46,721.801l0.336,0.038l-0.534,0.048L1396.46,721.801z
	"/>
<path fill="#6ab4ed" d="M1179.502,722.842l0.678,0.104l-0.636-0.242l-0.729,0.16l-0.269-0.024l-0.653-0.255l-0.815-0.104
	l-0.835,0.019l-0.816-0.105l-0.775-0.369l-0.863,0.227l-0.769-0.44l-0.819-0.069l-0.81-0.185l-0.855,0.163l-0.792-0.296
	l-0.846,0.072l-0.808-0.187l-0.79-0.288l-0.818-0.099l-0.813-0.13l-0.854,0.119l-0.821-0.089l-0.792-0.298l-0.828-0.037
	l-0.796-0.268l-0.832-0.024l-0.819-0.114l-0.812-0.108l-0.817-0.11l-0.796-0.276l-0.854,0.148l-0.772-0.4l-0.835,0.004l-0.84,0.018
	l-0.775-0.416l-0.848,0.074l-0.799-0.271l-0.848,0.06l-0.83-0.046l-0.787-0.314l-0.817-0.148l-0.859,0.125l-0.812-0.219
	l-0.814-0.196l-0.831,0.172l-0.825-0.014l-0.824-0.065l-0.823-0.131l-0.825-0.01l-0.828,0.134l-0.822-0.161l-0.824-0.107
	l-0.828-0.038l-0.829-0.04l-0.829,0.057l-0.826-0.083l-0.828,0.009l-0.828,0.1l-0.829,0.008l-0.83,0.072l-0.828-0.053l-0.827-0.114
	l-0.826-0.104l-0.83,0.063l-0.826-0.208l-0.834,0.254l-0.825-0.212l-0.829,0.083l-0.826-0.216l-0.834,0.306l-0.824-0.129
	l-0.824-0.206l-0.832,0.092l-0.834,0.116l-0.826-0.125l-0.831-0.096l-0.834,0.119l-0.829-0.062l-0.829-0.016l-0.836,0.107
	l-0.832-0.178l-0.835-0.093l-0.842-0.009l-0.829,0.006l-0.819,0.148l-0.821,0.136l-0.832-0.073l-0.828-0.044l-0.812,0.322
	l-0.842-0.281l-0.822,0.104l-0.814,0.174l-0.832-0.121l-0.823,0.099l-0.812,0.291l-0.837-0.241l-0.812,0.312l-0.839-0.186
	l-0.832-0.08l-0.812,0.339l-0.834-0.043l-0.828,0.006l-0.821,0.171l-0.841-0.265l-0.83,0.031l-0.829,0.091l-0.836-0.011
	l-0.825,0.198l-0.829-0.082l-0.829,0.201l-0.829-0.084l-0.827,0.207l-0.829-0.233l-0.827-0.07l-0.826-0.025l-0.824,0.119
	l-0.826-0.139l-0.823,0.189l-0.824,0.19l-0.826-0.243l-0.824,0.243l-0.824-0.095l-0.826,0.002l-0.829-0.062l-0.829-0.062
	l-0.828,0.25l-0.831,0.009l-0.831-0.006l-0.829,0.021l-0.832-0.289l-0.826,0.188l-0.828,0.029l-0.828-0.012l-0.827-0.005
	l-0.829,0.111l-0.832-0.345l-0.83,0.212l-0.834-0.198l-0.829,0.32l-0.833-0.291l-0.828-0.003l-0.829,0.155l-0.831-0.024l-0.833-0.05
	l-0.833,0.043l-0.832-0.109l-0.829,0.374l-0.833-0.336l-0.833-0.013l-0.832,0.203l-0.833-0.146l-0.829,0.12l-0.834-0.146
	l-0.83,0.058l-0.83,0.052l-0.828,0.233l-0.837-0.289l-0.831,0.159l-0.834-0.163l-0.835,0.007l-0.832,0.292l-0.836-0.326
	l-0.831,0.128l-0.835,0.26l-0.839-0.246l-0.84,0.224l-0.841-0.128l-0.812,0.06l-0.812,0.125l-0.825-0.252l-0.812,0.021l-0.807,0.204
	l-0.814,0.044l-0.81,0.212l-0.831-0.35l-0.811,0.178l-0.811,0.135l-0.812,0.125l-0.824-0.178l-0.809,0.092l-0.812,0.04l-0.824-0.132
	l-0.809,0.142l-0.806,0.26l-0.819-0.135l-0.819-0.012l-0.817,0.015l-0.817-0.056l-0.812,0.194l-0.815,0.061l-0.818-0.018
	l-0.807,0.253l-0.824-0.082l-0.829-0.142l-0.812,0.292l-0.835-0.245l-0.812,0.128l-0.81,0.252l-0.821-0.159l-0.812,0.145
	l-0.824-0.238l-0.809,0.321l-0.821-0.062l-0.814,0.156l-0.821-0.03l-0.818,0.017l-0.821-0.125l-0.813,0.156l-0.827-0.253
	l-0.812,0.198l-0.821-0.005l-0.814,0.135l-0.825-0.174l-0.814,0.173l-0.815,0.16l-0.824-0.114l-0.812,0.07l-0.818,0.006
	l-0.823-0.051l-0.817,0.049l-0.822-0.115l-0.812,0.271l-0.832-0.248l-0.817,0.076l-0.821-0.015l-0.82,0.104l-0.812,0.325
	l-0.831-0.275l-0.811,0.313L992.5,720.5l-0.829-0.071l-0.82,0.201l-0.829-0.002l-0.801,0.246l-0.822-0.151l-0.817-0.05l-0.801,0.187
	l-0.822-0.096l-0.812,0.059l-0.791,0.253l-0.822-0.118l-0.789,0.37l-0.824-0.156l-0.811,0.028l-0.812,0.035l-0.815-0.01
	l-0.794,0.315l-0.828-0.203l-0.793,0.358l-0.823-0.101h-0.816l-0.8,0.214l-0.808,0.155l-0.833-0.189l-0.813,0.132l-0.805-0.086
	l-0.767-0.14l-0.803-0.063l-0.768-0.244l-0.791-0.134l-0.844,0.143l-0.757-0.309l-0.791-0.118l-0.75-0.354l-0.862,0.23l-0.753-0.358
	l-0.798-0.093l-0.82-0.035l-0.818,0.072l-0.812,0.205l-0.829-0.207l-0.821,0.004l-0.815,0.12l-0.819,0.077l-0.819,0.114
	l-0.822-0.021l-0.824-0.057l-0.815,0.184l-0.822-0.009l-0.824-0.03l-0.819-0.002l-0.828-0.148l-0.818,0.099l-0.818,0.085l-0.84,0.17
	l-0.819,0.064l-0.83-0.107l-0.816,0.18l-0.825-0.077l-0.823,0.097l-0.829-0.083l-0.829-0.104l-0.817,0.115l-0.819,0.181
	l-0.824,0.096l-0.833-0.041l-0.831,0.158l-0.838,0.003l-0.827-0.111l-0.835,0.021l-0.829-0.126l-0.828-0.115l-0.831-0.064
	l-0.833,0.005l-0.839,0.092l-0.825-0.188l-0.834-0.004l-0.836,0.048l-0.818-0.322l-0.845,0.257l-0.823-0.176l-0.825-0.162
	l-0.832-0.092l-0.848,0.282l-0.827-0.182l-0.835-0.035l-0.834-0.05l-0.83-0.107l-0.828-0.144l-0.854,0.346l-0.827-0.244
	l-0.839-0.082l-0.849,0.154l-0.812-0.283l-0.821-0.111h-0.829l-0.837,0.146l-0.831,0.025l-0.82-0.171h-0.828l-0.831,0.089
	l-0.818-0.196l-0.824-0.111l-0.839,0.174l-0.819-0.214l-0.824-0.095l-0.823-0.105l-0.827-0.079l-0.848,0.339l-0.817-0.236
	l-0.82-0.178l-0.83-0.021l-0.833,0.106l-0.821-0.107l-0.821-0.133l-0.848,0.282l-0.812-0.394l-0.832,0.012l-0.831-0.039
	l-0.831-0.011l-0.836,0.112l-0.816-0.266l-0.846,0.233l-0.828-0.161l-0.833-0.094l-0.828-0.062l-0.786-0.086l-0.74-0.313
	l-0.812-0.009l-0.75-0.3l-0.835,0.081l-0.746-0.334l-0.848,0.017l-0.781-0.346l-0.854,0.061l-0.803-0.241l-0.827-0.09l-0.774-0.377
	l-0.854,0.062l-0.812-0.188l-0.785-0.348l-0.866,0.09l-0.809-0.184l-0.816-0.039l-0.817,0.177l-0.826-0.144l-0.827-0.1l-0.817,0.183
	l-0.816,0.135l-0.821,0.024l-0.817,0.116l-0.83-0.094l-0.818,0.179l-0.837-0.279l-0.817,0.266l-0.819,0.123l-0.834-0.165l-0.815,0.2
	l-0.83-0.031l-0.827,0.075l-0.844-0.271l-0.824,0.354l-0.841-0.169l-0.84-0.034l-0.838-0.146l-0.85,0.166l-0.842,0.012l-0.841-0.016
	l-0.833-0.27l-0.85,0.104l-0.844,0.019l-0.845-0.06l-0.831-0.301l-0.855,0.276l-0.843-0.036l-0.845-0.077l-0.844-0.114l-0.841-0.216
	l-0.856,0.136l-0.835-0.14l-0.836,0.238l-0.837-0.242l-0.838,0.086l-0.839-0.052l-0.838,0.129l-0.838,0.023l-0.839-0.289
	l-0.839,0.188l-0.839-0.037l-0.839,0.089l-0.837,0.027l-0.84,0.048l-0.837,0.03l-0.836-0.224l-0.837,0.052l-0.842,0.112l-0.84-0.109
	l-0.839-0.138l-0.842,0.272l-0.84-0.279l-0.84-0.012l-0.839,0.262l-0.844,0.078l-0.844-0.099l-0.847-0.032l-0.848-0.125
	l-0.818-0.134l-0.828,0.22l-0.823-0.1l-0.824-0.054l-0.817-0.064l-0.825,0.069l-0.822-0.18l-0.827,0.229l-0.817-0.193l-0.824,0.076
	l-0.825-0.087l-0.826,0.032l-0.822-0.101l-0.826-0.072l-0.829,0.177l-0.827,0.066l-0.825,0.044l-0.826-0.172L807,715.991
	l-0.831-0.082l-0.833,0.073l-0.794-0.221l-0.833,0.252l-0.789-0.316l-0.812-0.002l-0.797-0.152l-0.814,0.049l-0.798-0.215
	l-0.812-0.009l-0.816,0.098l-0.793-0.235l-0.82,0.06l-0.799-0.186l-0.824,0.125l-0.82,0.042l-0.811-0.061l-0.799-0.206l-0.809-0.075
	l-0.798-0.249l-0.821,0.036l-0.836,0.182l-0.804-0.169l-0.824,0.129l-0.833-0.006l-0.83,0.016l-0.827,0.073l-0.835-0.182
	l-0.839-0.153l-0.83,0.093l-0.833-0.021l-0.827,0.312l-0.837-0.138l-0.834,0.037l-0.835-0.132l-0.834,0.085l-0.833,0.188
	l-0.846-0.235l-0.849,0.081l-0.786,0.44l-0.831,0.163l-0.891-0.116l-0.806,0.303l-0.792,0.358l-0.906-0.212l-0.793,0.366
	l-0.867,0.001l-0.836,0.183l-0.785,0.439l-0.858-0.168l-0.798,0.216l-0.772,0.362l-0.852-0.162l-0.771,0.38l-0.828,0.021
	l-0.814,0.104l-0.788,0.279l-0.836-0.024l-0.846-0.093l-0.808,0.166l-0.758,0.462l-0.867-0.212l-0.774,0.39l-0.811,0.188
	l-0.845,0.027l-0.775-0.303l-0.808-0.01l-0.786-0.146l-0.788-0.125l-0.792-0.121l-0.82,0.053l-0.762-0.348l-0.785-0.184
	l-0.801-0.229l-0.852,0.007l-0.808-0.242l-0.868,0.094l-0.787-0.317l-0.843-0.048l-0.809-0.237l-0.833-0.104l-0.833-0.104
	l-0.8-0.292l-0.813-0.214l-0.827-0.139l-0.807-0.235l-0.822-0.178l-0.831-0.145l-0.887,0.146l-0.773-0.428l-0.829-0.119
	l-0.834-0.118l-0.802-0.229l-0.784-0.28l-0.799-0.253l-0.784-0.287l-0.756-0.388l-0.872-0.011l-0.8-0.247l-0.698-0.572l-0.873,0.001
	l-0.765-0.367l-0.812-0.208l-0.762-0.395l-0.867,0.014l-0.803-0.068l-0.815-0.06l-0.813,0.179l-0.821-0.288l-0.816,0.098
	l-0.811,0.142l-0.814,0.063l-0.819-0.029l-0.817-0.166l-0.812,0.142l-0.812,0.102l-0.817,0.131l-0.815,0.052l-0.821-0.194
	l-0.824-0.164l-0.812,0.308l-0.822-0.161l-0.812,0.273l-0.828-0.362l-0.818,0.191l-0.823,0.087l-0.81,0.127l-0.848-0.079
	l-0.814,0.148l-0.821,0.121l-0.785,0.33l-0.845,0.001l-0.797,0.255l-0.829,0.075l-0.829,0.101l-0.805,0.231l-0.803,0.262
	l-0.812,0.21l-0.867-0.175l-0.784,0.239l-0.77,0.311l-0.831-0.014l-0.729,0.49l-0.846-0.046l-0.806,0.124l-0.743,0.422l-0.829,0.016
	l-0.842-0.03l-0.791,0.208l-0.766,0.325l-0.82,0.081l-0.766,0.329l-0.858-0.11l-0.738,0.455l-0.828,0.047l-0.798,0.193l-0.825,0.071
	l-0.776,0.402l-0.844-0.264l-0.832,0.036l-0.83-0.032l-0.83,0.015l-0.827-0.099l-0.829,0.027l-0.829,0.041l-0.826-0.119
	l-0.828-0.051l-0.826,0.001l-0.828-0.062l-0.835,0.265l-0.824-0.291l-0.838,0.32l-0.832-0.063l-0.831-0.154l-0.836,0.109
	l-0.834,0.027l-0.828-0.236l-0.835,0.176l-0.826-0.271l-0.834,0.127l-0.831-0.023l-0.828-0.216l-0.838,0.271l-0.829-0.248
	l-0.834-0.078l-0.835,0.021l-0.834,0.021l-0.833-0.013l-0.833,0.003l-0.83-0.168l-0.839,0.176l-0.838,0.098l-0.834-0.006
	l-0.831-0.193l-0.838,0.184l-0.83-0.32l-0.835-0.025l-0.841,0.253l-0.832-0.102l-0.835-0.066l-0.834,0.021l-0.833,0.041
	l-0.831-0.138l-0.837-0.035l-0.836,0.012l-0.839,0.161l-0.836-0.15l-0.841,0.102l-0.83-0.318l-0.832-0.041l-0.847,0.276
	l-0.835-0.268l-0.85,0.291l-0.849-0.002l-0.827-0.258l-0.844,0.034l-0.841,0.021l-0.83-0.15l-0.834-0.104l-0.85,0.105l-0.833-0.144
	l-0.828-0.206l-0.841-0.002l-0.838-0.052l-0.843-0.029l-0.83-0.181l-0.851,0.114l-0.823-0.257l-0.858,0.257l-0.828-0.184l-0.819-0.3
	l-0.844,0.061l-0.837-0.113l-0.84-0.043l-0.839-0.062l-0.842-0.062l-0.854,0.166l-0.832-0.168l-0.842-0.01l-0.847-0.03l-0.824-0.321
	l-0.868,0.267l-0.83-0.345l-0.835-0.038l-0.839,0.258l-0.825-0.221l-0.827-0.131l-0.834,0.123l-0.835,0.162l-0.827-0.133
	l-0.824-0.245l-0.839,0.238l-0.83-0.113l-0.832-0.088l-0.836,0.093l-0.835,0.104l-0.824-0.297l-0.839,0.259l-0.83-0.096
	l-0.822-0.324l-0.834-0.029l-0.844,0.266l-0.833-0.021l-0.83-0.12l-0.827-0.215l-0.846,0.296l-0.822-0.317l-0.836,0.083l-0.84,0.117
	l-0.833,0.036l-0.82-0.303l-0.837,0.126l-0.838,0.039l-0.83-0.129l-0.834-0.056l-0.843,0.149l-0.827-0.272l-0.84,0.104l-0.837,0.13
	l-0.828-0.318l-0.842,0.056l-0.84-0.074l-0.844,0.195l-0.827,0.027l-0.836-0.292l-0.826,0.167l-0.828,0.123l-0.829,0.052
	l-0.835-0.22l-0.825,0.294l-0.839-0.264l-0.827,0.31l-0.839-0.229l-0.827,0.266l-0.837-0.268l-0.825,0.276l-0.834-0.062
	l-0.835-0.077l-0.834,0.014l-0.833,0.022l-0.834-0.043l-0.83,0.13l-0.833,0.11l-0.834,0.031l-0.837-0.177l-0.829,0.125l-0.835,0.005
	l-0.832,0.003l-0.833-0.067l-0.834-0.091l-0.828,0.341l-0.842-0.305l-0.832,0.134l-0.837-0.002l-0.832,0.155l-0.837-0.114
	l-0.836-0.104l-0.837,0.1l-0.832,0.312l-0.85-0.354l-0.839,0.147l-0.83-0.143l-0.823,0.345l-0.827,0.038l-0.833-0.333l-0.827,0.041
	l-0.825,0.123l-0.828,0.081l-0.831-0.078l-0.83,0.055l-0.831,0.008l-0.831,0.134l-0.835-0.067l-0.837-0.176l-0.831,0.12
	l-0.833-0.087l-0.828,0.247l-0.832-0.066l-0.83,0.046l-0.833-0.147l-0.83,0.119l-0.833-0.038l-0.828,0.299l-0.84-0.253l-0.834,0.019
	l-0.83,0.242l-0.836-0.248l-0.828,0.252l-0.839-0.324l-0.833,0.092l-0.831,0.325l-0.835-0.027l-0.837-0.21l-0.832,0.142
	l-0.837-0.072l-0.834,0.105l-0.836-0.072l-0.835-0.124l-0.833,0.163l-0.831,0.188l-0.833-0.022l-0.833-0.033l-0.841-0.202
	l-0.834,0.053l-0.833,0.146l-0.836,0.093l-0.835,0.085l-0.841-0.356l-0.835-0.012l-0.836,0.254l-0.838,0.144l-0.848-0.277
	l-0.835,0.235l-0.845-0.021l-0.832,0.155l-0.849-0.042l-0.838,0.08l-0.832,0.171l-0.858-0.148l-0.814,0.359l-0.841,0.036
	l-0.837,0.104l-0.843,0.01l-0.833,0.105l-0.854-0.124l-0.823,0.278l-0.844,0.034l-0.836,0.12l-0.868-0.229l-0.812,0.404
	l-0.862-0.179l-0.825,0.236l-0.842,0.091l-0.844,0.092l-0.848,0.072l-0.859-0.229l-0.796-0.062l-0.824,0.126l-0.814-0.019
	l-0.798-0.268l-0.824,0.146l-0.809-0.113l-0.814-0.014l-0.81-0.135l-0.801-0.148l-0.819,0.068l-0.807-0.151l-0.817,0.045
	l-0.817,0.083l-0.793-0.314l-0.839,0.312l-0.809-0.132l-0.804-0.188l-0.828,0.134l-0.809-0.165l-0.812-0.052l-0.803-0.195
	l-0.812-0.129l-0.825,0.063l-0.832,0.125l-0.812-0.129l-0.832,0.045l-0.814,0.248l-0.833,0.054l-0.854-0.159l-0.818,0.229
	l-0.848-0.101l-0.814,0.246l-0.849-0.08l-0.817,0.209l-0.848-0.126l-0.821,0.171l-0.813,0.303l-0.85-0.102l-0.823,0.168
	l-0.841,0.012l-0.82,0.22l-0.861-0.225l-0.825,0.157l-0.846-0.035l-0.824,0.228l-0.835,0.12l-0.836,0.233l-0.845-0.219l-0.843,0.181
	l-0.839-0.084l-0.838-0.168l-0.84-0.043l-0.841,0.112l-0.838-0.149l-0.842,0.168l-0.836-0.08l-0.839,0.047l-0.844,0.035
	l-0.842,0.017l-0.839-0.106l-0.839-0.188l-0.846,0.229l-0.838-0.229l-0.843,0.086l-0.84-0.221l-0.851,0.294l-0.844-0.307
	l-0.853,0.221l-0.819-0.072l-0.818-0.156l-0.821-0.058l-0.821-0.027l-0.821,0.073l-0.822,0.083l-0.821-0.099l-0.821-0.093
	l-0.822-0.047l-0.826,0.263l-0.821-0.052l-0.821,0.12l-0.818-0.078l-0.817-0.192l-0.818,0.029l-0.817-0.021l-0.82,0.169
	l-0.813-0.243l-0.82,0.085l-0.817-0.093l-0.818,0.115l-0.817-0.199l-0.821,0.082l-0.822,0.187l-0.82-0.213l-0.826,0.101l-0.821-0.24
	l-0.822,0.062l-0.823,0.093l-0.82-0.188l-0.824,0.267l-0.817-0.177l-0.823,0.139l-0.821-0.062l-0.819-0.168l-0.827,0.22
	l-0.823-0.195l-0.823-0.098l-0.822,0.021l-0.823-0.002l-0.823,0.021l-0.824,0.004l-0.825-0.075l-0.828,0.264l-0.822-0.204
	l-0.823-0.079l-0.825,0.031l-0.826,0.052l-0.825,0.088l-0.827,0.104l-0.823-0.058l-0.824-0.146l-0.821-0.128l-0.822,0.021
	l-0.824,0.057l-0.83,0.218l-0.824-0.195l-0.823-0.089l-0.83,0.198l-0.825-0.195l-0.826-0.046l-0.827,0.14l-0.832,0.135l-0.827-0.342
	l-0.835,0.227l-0.833-0.048l-0.835,0.091l-0.829-0.033l-0.826-0.062l-0.814-0.323l-0.829-0.013l-0.824-0.115l-0.834,0.128
	l-0.828-0.01l-0.825-0.056l-0.823-0.102l-0.822-0.139l-0.842,0.28l-0.827-0.06l-0.815-0.296l-0.835,0.097l-0.835,0.112l-0.826-0.036
	l-0.82-0.158l-0.828,0.012l-0.818-0.198l-0.833,0.181l-0.812-0.29l-0.831,0.122l-0.815-0.229l-0.827,0.046l-0.833,0.178
	l-0.821-0.095l-0.82-0.139l-0.832,0.081l-0.83,0.027l-0.814-0.315l-0.834,0.076l-0.836,0.097L340.948,714l-0.835,0.126l-0.827-0.038
	h-0.829l-0.815-0.271l-0.822-0.106l-0.838,0.17l-0.835,0.13l-0.828-0.06l-0.833-0.001l-0.819-0.264l-0.835,0.09l-0.815-0.312
	l-0.842,0.251l-0.822-0.181l-0.842,0.192l-0.83-0.031l-0.826-0.146l-0.825-0.123l-0.836,0.123l-0.816-0.396l-0.834,0.03
	l-0.841,0.206l-0.817-0.31l-0.837,0.063l-0.825-0.101l-0.83,0.008l-0.827-0.09l-0.837,0.064l-0.825-0.156l-0.839,0.123l-0.84,0.089
	l-0.83-0.083l-0.819-0.319l-0.832-0.012l-0.851,0.313l-0.818-0.418l-0.85,0.192l-0.839-0.033l-0.812-0.156l-0.818-0.042l-0.83,0.147
	l-0.807-0.211l-0.824,0.06l-0.809-0.177l-0.812-0.146l-0.817-0.077l-0.819-0.062l-0.836,0.188l-0.822-0.022l-0.8-0.356l-0.822,0.007
	l-0.816-0.098l-0.828,0.074l-0.823,0.002l-0.823-0.028l-0.812-0.184l-0.82-0.051l-0.839,0.252l-0.817-0.117l-0.822-0.041
	l-0.799-0.318l-0.833,0.164l-0.806-0.319l-0.827,0.072l-0.826,0.078l-0.808-0.251l-0.836,0.157l-0.814-0.16l-0.83,0.078
	l-0.826-0.031l-0.817-0.135l-0.822-0.062l-0.828,0.065l-0.825-0.043l-0.809-0.341l-0.828-0.066l-0.838,0.032l-0.833,0.036
	l-0.83,0.027l-0.822,0.178l-0.828,0.077l-0.847-0.195l-0.87,0.271l-0.841-0.075l-0.815,0.32l-0.831,0.06l-0.83,0.057l-0.84-0.109
	l-0.834-0.008l-0.833-0.006l-0.823,0.178l-0.834,0.017l-0.83,0.104l-0.838-0.006l-0.839-0.039l-0.82,0.257l-0.841-0.109l-0.828,0.13
	l-0.844-0.147l-0.825,0.195l-0.832,0.091l-0.834,0.049h-0.836l-0.82,0.276l-0.855-0.279l-0.827,0.176l-0.831,0.103l-0.844-0.136
	l-0.831,0.125l-0.825,0.183l-0.841-0.116l-0.834,0.02l-0.836,0.053l-0.82,0.274l-0.839-0.024l-0.829,0.189l-0.848-0.162
	l-0.833,0.089l-0.831,0.102l-0.844-0.042l-0.833,0.16l-0.855-0.163l-0.818,0.382l-0.854-0.214l-0.808,0.252l-0.81,0.243
	l-0.852-0.119l-0.82,0.155l-0.843-0.063l-0.83,0.059l-0.797,0.352l-0.838-0.013l-0.815,0.21l-0.824,0.136l-0.844-0.064l-0.807,0.271
	l-0.862-0.226l-0.83,0.072l-0.828,0.098l-0.799,0.353l-0.818,0.165l-0.851-0.111l-0.81,0.241l-0.824,0.097l-0.846-0.091
	l-0.831,0.085l-0.81,0.258l-0.845-0.062l-0.819,0.198l-0.829,0.104l-0.841-0.013l-0.839-0.012l-0.809,0.305l-0.855-0.112
	l-0.826,0.187l-0.832,0.167l-0.83-0.111l-0.831-0.039l-0.821-0.215l-0.852,0.281l-0.815-0.366l-0.839,0.068l-0.836,0.032
	l-0.819-0.235l-0.848,0.229l-0.82-0.243l-0.833-0.038l-0.837,0.008l-0.829-0.106l-0.839,0.073l-0.82-0.245l-0.845,0.133l-0.835-0.02
	l-0.828-0.129l-0.836,0.03l-0.836-0.012L194.191,715l-0.823-0.165l-0.839,0.074l-0.837-0.022l-0.835-0.024l-0.819-0.29l-0.85,0.174
	l-0.835-0.049l-0.84,0.057l-0.827-0.157l-0.832-0.13l-0.835-0.111l-0.853,0.147l-0.835-0.227l-0.843-0.062l-0.797,0.438
	l-0.842-0.084l-0.835,0.017l-0.84-0.029l-0.824,0.183l-0.817,0.254l-0.859-0.243l-0.813,0.277l-0.829,0.089l-0.833,0.041
	l-0.844-0.086l-0.811,0.29l-0.833,0.052l-0.828,0.113l-0.851-0.141l-0.825,0.187l-0.85-0.116l-0.832,0.076l-0.808,0.351l-0.84-0.024
	l-0.826,0.146l-0.828,0.138l-0.847-0.072l-0.845-0.063l-0.838,0.021l-0.817,0.263l-0.84,0.017l-0.83,0.13l-0.829,0.127l-0.839-0.006
	l-0.848-0.071l-0.81,0.331l-0.84-0.026l-0.817,0.244l-0.837,0.066l-0.86-0.225l-0.821,0.222l-0.834,0.106l-0.833,0.097l-0.841,0.012
	l-0.819,0.241l-0.851-0.076l-0.842,0.054l-0.826,0.251l-0.854,0.077l-0.824-0.083l-0.808-0.199l-0.82,0.056l-0.81-0.217l-0.82,0.019
	l-0.813-0.126l-0.824,0.127l-0.821,0.098l-0.802-0.318l-0.815-0.02l-0.824,0.162l-0.808-0.215l-0.827,0.186l-0.807-0.271
	l-0.824,0.069l-0.816-0.078l-0.809-0.213l-0.831,0.282l-0.813-0.108l-0.808-0.236l-0.831,0.224l-0.818-0.06l-0.82-0.006
	l-0.819,0.009l-0.81-0.237l-0.816-0.105l-0.822,0.022l-0.822,0.14l-0.808-0.229l-0.826,0.096l-0.815-0.079l-0.805-0.277
	l-0.825,0.131l-0.824,0.021l-0.82-0.021l-0.825,0.077l-0.809-0.322l-0.833,0.223l-0.808-0.307l-0.832,0.254l-0.815-0.215
	l-0.821-0.111l-0.825-0.072l-0.829,0.022L108.18,716l-0.81-0.125l-0.801-0.232l-0.837,0.271l-0.812-0.072l-0.797-0.277l-0.81-0.112
	l-0.82,0.03l-0.833,0.188l-0.812-0.105l-0.815-0.083l-0.807-0.188l-0.814-0.067l-0.818-0.01l-0.814-0.068l-0.818-0.016l-0.805-0.229
	l-0.834,0.184L93.507,715l-0.809-0.162l-0.819-0.025l-0.816-0.075l-0.82-0.025l-0.805-0.169l-0.816-0.053l-0.815-0.103l-0.812-0.097
	l-0.828,0.128l-0.798-0.297l-0.82-0.051l-0.821-0.019l-0.834,0.188l-0.813-0.162l-0.83,0.101l-0.812-0.147l-0.802-0.271
	l-0.837,0.167l-0.818-0.116l-0.82-0.129l-0.831-0.124l-0.814,0.127l-0.816,0.015l-0.811,0.065l-0.803,0.13l-0.802,0.154
	l-0.788,0.278l-0.8,0.167l-0.839-0.173l-0.804,0.132l-0.786,0.298l-0.804,0.133l-0.826-0.084l-0.826-0.062l-0.775,0.395
	l-0.804,0.125l-0.819-0.015l-0.797,0.185l-0.813,0.079l-0.813,0.064l-0.832-0.094l-0.781,0.361l-0.83-0.07l-0.827-0.041
	l-0.772,0.401l-0.837-0.107l-0.801,0.209l-0.815,0.105l-0.823-0.189l-0.796-0.02l-0.815-0.064l-0.811-0.084l-0.812-0.074
	l-0.811-0.092l-0.776-0.301l-0.772-0.327l-0.821-0.034l-0.807-0.11l-0.817-0.062l-0.809-0.112l-0.795-0.192l-0.785-0.221
	l-0.847,0.115l-0.812-0.102l-0.749-0.451l-0.809-0.09l-0.812-0.089l-0.816-0.083l-0.807-0.124l-0.819-0.055l-0.751-0.466
	l-0.843,0.078l-0.789-0.229l-0.843,0.09l-0.762-0.409l-0.845,0.066l-0.768-0.396l-0.84,0.018l-0.858-0.07l-0.79,0.436l-0.853-0.05
	l-0.807,0.294l-0.86-0.1l-0.802,0.341l-0.84,0.056l-0.873-0.194l-0.829,0.117l-0.804,0.334l-0.831,0.104l-0.824,0.155l-0.852-0.048
	l-0.822,0.209l-0.813,0.257l-0.847-0.001l-0.862-0.087l-0.825,0.175l-0.835,0.099l-0.826,0.155l-0.808,0.325l-0.85,0.02l-0.826,0.22
	l-0.862-0.027L9.504,714.9l-0.837,0.092l-0.831-0.075l-0.827-0.147L6.18,714.7l-0.833-0.021l-0.829-0.064l-0.841,0.254l-0.832,0.001
	l-0.834-0.018l-0.826-0.195l-0.828-0.133L0,714.608v65.073l733-49.352l5.602-1.604l289.361-3.752l3.703,0.024l6.608-0.158
	l140.269-1.817l0.104,0.029l0.136-0.033l1.551-0.021l-1.076-0.099L1179.502,722.842z M1175.163,722.532l0.177-0.04l0.831,0.045
	l0.234,0.105L1175.163,722.532z"/>
</svg>
