<?xml version="1.0" encoding="utf-8"?>
<!-- Generator: Adobe Illustrator 16.0.5, SVG Export Plug-In . SVG Version: 6.00 Build 0)  -->
<!DOCTYPE svg PUBLIC "-//W3C//DTD SVG 1.1//EN" "http://www.w3.org/Graphics/SVG/1.1/DTD/svg11.dtd">
<svg version="1.1" id="Layer_1" xmlns="http://www.w3.org/2000/svg" xmlns:xlink="http://www.w3.org/1999/xlink" x="0px" y="0px"
	 width="136px" height="130px" viewBox="0 0 136 130" enable-background="new 0 0 136 130" xml:space="preserve">
<rect fill="#FFFFFF" width="136" height="130"/>
<rect x="8.344" y="8.344" fill="#EC1C24" width="55.485" height="52.8"/>
<path fill="#FFFFFF" d="M36.216,37.138c-3.331,0-6.177-2.115-7.267-5.072h-5.534c1.235,5.934,6.505,10.407,12.8,10.407
	S47.782,38,49.017,32.066h-5.534C42.394,35.023,39.547,37.138,36.216,37.138"/>
<rect x="22.419" y="31.069" fill="none" width="27.595" height="12.4"/>
<path fill="#FFFFFF" d="M36.216,21.659c3.331,0,6.177,2.116,7.267,5.073h5.534c-1.235-5.935-6.505-10.408-12.801-10.408
	s-11.565,4.473-12.8,10.408h5.534C30.04,23.774,32.886,21.659,36.216,21.659"/>
<rect x="22.419" y="15.328" fill="none" width="27.595" height="12.4"/>
<rect x="28.95" y="26.731" fill="#853F97" width="5.334" height="5.335"/>
<path fill="#FFFFFF" d="M20.892,48.771v-0.964h-4.55v0.964h1.757v4.37h1.098v-4.37H20.892z M25.645,53.142h1.098v-5.334h-1.098
	v2.164h-2.863v-2.164h-1.099v5.334h1.099v-2.213h2.863V53.142z M31.966,53.142v-0.966h-3.169V50.89h2.597v-0.965h-2.597v-1.153
	h3.169v-0.964h-4.22v5.334H31.966z M35.582,50.474c0-0.965,0.675-1.725,1.663-1.725c0.691,0,1.201,0.243,1.562,0.525l0.517-0.777
	c-0.556-0.509-1.271-0.769-2.086-0.769c-1.592,0-2.793,1.185-2.793,2.746c0,1.562,1.201,2.746,2.793,2.746
	c0.815,0,1.53-0.26,2.086-0.769l-0.517-0.777c-0.361,0.282-0.871,0.526-1.562,0.526C36.257,52.2,35.582,51.44,35.582,50.474
	 M39.712,50.483c0,1.56,1.176,2.737,2.738,2.737c1.577,0,2.753-1.178,2.753-2.737c0-1.577-1.176-2.754-2.753-2.754
	C40.888,47.729,39.712,48.906,39.712,50.483 M40.795,50.483c0-0.981,0.698-1.711,1.663-1.711c0.98,0,1.663,0.73,1.663,1.711
	c0,0.965-0.682,1.709-1.663,1.709C41.493,52.192,40.795,51.448,40.795,50.483 M46.035,53.142h1.098v-1.923h0.659l1.781,1.923h1.232
	V52.96l-1.703-1.781c0.8-0.165,1.403-0.792,1.403-1.639c0-1.2-0.815-1.733-2.125-1.733h-2.345V53.142z M48.497,48.764
	c0.502,0,0.863,0.275,0.863,0.801c0,0.493-0.361,0.792-0.863,0.792h-1.365v-1.594H48.497z M55.824,53.142v-0.966h-3.169V50.89h2.596
	v-0.965h-2.596v-1.153h3.169v-0.964h-4.22v5.334H55.824z"/>
<rect x="15.345" y="46.732" fill="none" width="41.476" height="7.484"/>
<rect x="72.173" y="8.344" fill="#00BAEE" width="55.483" height="52.8"/>
<path fill="#FFFFFF" d="M100.045,37.138c-3.332,0-6.179-2.115-7.267-5.072h-5.534c1.234,5.934,6.505,10.407,12.801,10.407
	c6.295,0,11.564-4.473,12.8-10.407h-5.533C106.221,35.023,103.374,37.138,100.045,37.138"/>
<rect x="86.247" y="31.069" fill="none" width="27.594" height="12.4"/>
<path fill="#FFFFFF" d="M100.045,21.659c3.329,0,6.176,2.116,7.267,5.073h5.533c-1.235-5.935-6.505-10.408-12.8-10.408
	c-6.296,0-11.566,4.473-12.801,10.408h5.534C93.866,23.774,96.713,21.659,100.045,21.659"/>
<rect x="86.247" y="15.328" fill="none" width="27.594" height="12.4"/>
<rect x="92.778" y="26.731" fill="#1F4387" width="5.334" height="5.335"/>
<path fill="#FFFFFF" d="M84.719,48.771v-0.964h-4.55v0.964h1.758v4.37h1.097v-4.37H84.719z M89.472,53.142h1.099v-5.334h-1.099
	v2.164h-2.862v-2.164h-1.099v5.334h1.099v-2.213h2.862V53.142z M95.794,53.142v-0.966h-3.17V50.89h2.598v-0.965h-2.598v-1.153h3.17
	v-0.964h-4.221v5.334H95.794z M99.41,50.474c0-0.965,0.675-1.725,1.662-1.725c0.691,0,1.2,0.243,1.562,0.525l0.517-0.777
	c-0.555-0.509-1.271-0.769-2.086-0.769c-1.593,0-2.792,1.185-2.792,2.746c0,1.562,1.199,2.746,2.792,2.746
	c0.815,0,1.531-0.26,2.086-0.769l-0.517-0.777c-0.361,0.282-0.87,0.526-1.562,0.526C100.085,52.2,99.41,51.44,99.41,50.474
	 M103.54,50.483c0,1.56,1.176,2.737,2.737,2.737c1.577,0,2.753-1.178,2.753-2.737c0-1.577-1.176-2.754-2.753-2.754
	C104.716,47.729,103.54,48.906,103.54,50.483 M104.622,50.483c0-0.981,0.698-1.711,1.663-1.711c0.981,0,1.663,0.73,1.663,1.711
	c0,0.965-0.682,1.709-1.663,1.709C105.32,52.192,104.622,51.448,104.622,50.483 M109.862,53.142h1.098v-1.923h0.658l1.781,1.923
	h1.232V52.96l-1.703-1.781c0.8-0.165,1.404-0.792,1.404-1.639c0-1.2-0.816-1.733-2.126-1.733h-2.345V53.142z M112.325,48.764
	c0.502,0,0.862,0.275,0.862,0.801c0,0.493-0.36,0.792-0.862,0.792h-1.365v-1.594H112.325z M119.651,53.142v-0.966h-3.169V50.89
	h2.596v-0.965h-2.596v-1.153h3.169v-0.964h-4.221v5.334H119.651z"/>
<rect x="79.172" y="46.732" fill="none" width="41.477" height="7.484"/>
<rect x="8.344" y="69.108" fill="#1F4387" width="55.484" height="52.801"/>
<path fill="#FFFFFF" d="M36.215,97.902c-3.331,0-6.177-2.116-7.267-5.072h-5.534c1.235,5.934,6.505,10.408,12.8,10.408
	s11.565-4.475,12.801-10.408h-5.534C42.393,95.786,39.546,97.902,36.215,97.902"/>
<rect x="22.418" y="91.834" fill="none" width="27.594" height="12.398"/>
<path fill="#FFFFFF" d="M36.215,82.423c3.331,0,6.177,2.115,7.267,5.072h5.534c-1.235-5.935-6.505-10.407-12.801-10.407
	s-11.565,4.473-12.8,10.407h5.534C30.039,84.538,32.885,82.423,36.215,82.423"/>
<rect x="22.418" y="76.091" fill="none" width="27.594" height="12.401"/>
<rect x="28.949" y="87.495" fill="#00BAEE" width="5.334" height="5.335"/>
<path fill="#FFFFFF" d="M20.891,109.535v-0.964h-4.55v0.964h1.757v4.371h1.098v-4.371H20.891z M25.644,113.906h1.098v-5.335h-1.098
	v2.165h-2.863v-2.165h-1.099v5.335h1.099v-2.214h2.863V113.906z M31.965,113.906v-0.966h-3.169v-1.287h2.597v-0.964h-2.597v-1.154
	h3.169v-0.964h-4.22v5.335H31.965z M35.581,111.238c0-0.966,0.675-1.725,1.663-1.725c0.691,0,1.201,0.243,1.562,0.525l0.517-0.776
	c-0.556-0.511-1.271-0.77-2.086-0.77c-1.592,0-2.793,1.184-2.793,2.745s1.201,2.746,2.793,2.746c0.815,0,1.53-0.26,2.086-0.77
	l-0.517-0.777c-0.361,0.283-0.871,0.526-1.562,0.526C36.256,112.964,35.581,112.204,35.581,111.238 M39.711,111.246
	c0,1.56,1.176,2.738,2.738,2.738c1.577,0,2.753-1.179,2.753-2.738c0-1.577-1.176-2.753-2.753-2.753
	C40.887,108.493,39.711,109.669,39.711,111.246 M40.794,111.246c0-0.981,0.698-1.711,1.663-1.711c0.98,0,1.663,0.729,1.663,1.711
	c0,0.966-0.682,1.71-1.663,1.71C41.492,112.956,40.794,112.212,40.794,111.246 M46.034,113.906h1.098v-1.924h0.659l1.78,1.924h1.232
	v-0.182l-1.703-1.781c0.8-0.163,1.403-0.792,1.403-1.64c0-1.199-0.815-1.732-2.125-1.732h-2.345V113.906z M48.496,109.527
	c0.502,0,0.863,0.276,0.863,0.802c0,0.493-0.361,0.793-0.863,0.793h-1.365v-1.595H48.496z M55.822,113.906v-0.966h-3.169v-1.287
	h2.596v-0.964h-2.596v-1.154h3.169v-0.964h-4.22v5.335H55.822z"/>
<rect x="15.344" y="107.496" fill="none" width="41.476" height="7.484"/>
<rect x="72.172" y="69.108" fill="#853F97" width="55.484" height="52.801"/>
<path fill="#FFFFFF" d="M100.043,97.902c-3.33,0-6.177-2.116-7.267-5.072h-5.534c1.235,5.934,6.506,10.408,12.801,10.408
	s11.565-4.475,12.8-10.408h-5.533C106.221,95.786,103.374,97.902,100.043,97.902"/>
<rect x="86.245" y="91.834" fill="none" width="27.595" height="12.398"/>
<path fill="#FFFFFF" d="M100.043,82.423c3.331,0,6.178,2.115,7.267,5.072h5.533c-1.234-5.935-6.505-10.407-12.8-10.407
	s-11.565,4.473-12.801,10.407h5.534C93.866,84.538,96.713,82.423,100.043,82.423"/>
<rect x="86.245" y="76.091" fill="none" width="27.595" height="12.401"/>
<rect x="92.776" y="87.495" fill="#EC1C24" width="5.335" height="5.335"/>
<rect x="91.779" y="86.499" fill="none" width="7.329" height="7.328"/>
<path fill="#FFFFFF" d="M84.718,109.535v-0.964h-4.549v0.964h1.757v4.371h1.098v-4.371H84.718z M89.472,113.906h1.098v-5.335h-1.098
	v2.165h-2.864v-2.165H85.51v5.335h1.098v-2.214h2.864V113.906z M95.792,113.906v-0.966h-3.168v-1.287h2.596v-0.964h-2.596v-1.154
	h3.168v-0.964h-4.22v5.335H95.792z M99.408,111.238c0-0.966,0.676-1.725,1.662-1.725c0.691,0,1.202,0.243,1.562,0.525l0.518-0.776
	c-0.557-0.511-1.271-0.77-2.088-0.77c-1.591,0-2.792,1.184-2.792,2.745s1.201,2.746,2.792,2.746c0.816,0,1.531-0.26,2.088-0.77
	l-0.518-0.777c-0.36,0.283-0.871,0.526-1.562,0.526C100.084,112.964,99.408,112.204,99.408,111.238 M103.54,111.246
	c0,1.56,1.176,2.738,2.735,2.738c1.577,0,2.755-1.179,2.755-2.738c0-1.577-1.178-2.753-2.755-2.753
	C104.716,108.493,103.54,109.669,103.54,111.246 M104.622,111.246c0-0.981,0.697-1.711,1.663-1.711c0.979,0,1.663,0.729,1.663,1.711
	c0,0.966-0.684,1.71-1.663,1.71C105.319,112.956,104.622,112.212,104.622,111.246 M109.862,113.906h1.096v-1.924h0.66l1.779,1.924
	h1.233v-0.182l-1.702-1.781c0.8-0.163,1.402-0.792,1.402-1.64c0-1.199-0.814-1.732-2.125-1.732h-2.344V113.906z M112.323,109.527
	c0.502,0,0.864,0.276,0.864,0.802c0,0.493-0.362,0.793-0.864,0.793h-1.365v-1.595H112.323z M119.65,113.906v-0.966h-3.17v-1.287
	h2.598v-0.964h-2.598v-1.154h3.17v-0.964h-4.22v5.335H119.65z"/>
<rect x="79.172" y="107.496" fill="none" width="41.476" height="7.484"/>
<rect x="72.172" y="8.344" fill="#853F97" width="55.484" height="52.8"/>
<path fill="#FFFFFF" d="M100.043,37.138c-3.33,0-6.177-2.115-7.267-5.072h-5.534c1.235,5.934,6.506,10.407,12.801,10.407
	s11.565-4.473,12.8-10.407h-5.533C106.221,35.023,103.374,37.138,100.043,37.138"/>
<rect x="86.245" y="31.069" fill="none" width="27.595" height="12.4"/>
<path fill="#FFFFFF" d="M100.043,21.659c3.331,0,6.178,2.116,7.267,5.073h5.533c-1.234-5.935-6.505-10.408-12.8-10.408
	s-11.565,4.473-12.801,10.408h5.534C93.866,23.774,96.713,21.659,100.043,21.659"/>
<rect x="86.245" y="15.328" fill="none" width="27.595" height="12.4"/>
<rect x="92.776" y="26.731" fill="#EC1C24" width="5.335" height="5.335"/>
<rect x="91.779" y="25.734" fill="none" width="7.329" height="7.329"/>
<path fill="#FFFFFF" d="M84.718,48.771v-0.964h-4.549v0.964h1.757v4.37h1.098v-4.37H84.718z M89.472,53.142h1.098v-5.334h-1.098
	v2.164h-2.864v-2.164H85.51v5.334h1.098v-2.213h2.864V53.142z M95.792,53.142v-0.966h-3.168V50.89h2.596v-0.965h-2.596v-1.153h3.168
	v-0.964h-4.22v5.334H95.792z M99.408,50.474c0-0.965,0.676-1.725,1.662-1.725c0.691,0,1.202,0.243,1.562,0.525l0.518-0.777
	c-0.557-0.509-1.271-0.769-2.088-0.769c-1.591,0-2.792,1.185-2.792,2.746c0,1.562,1.201,2.746,2.792,2.746
	c0.816,0,1.531-0.26,2.088-0.769l-0.518-0.777c-0.36,0.282-0.871,0.526-1.562,0.526C100.084,52.2,99.408,51.44,99.408,50.474
	 M103.54,50.483c0,1.56,1.176,2.737,2.735,2.737c1.577,0,2.755-1.178,2.755-2.737c0-1.577-1.178-2.754-2.755-2.754
	C104.716,47.729,103.54,48.906,103.54,50.483 M104.622,50.483c0-0.981,0.697-1.711,1.663-1.711c0.979,0,1.663,0.73,1.663,1.711
	c0,0.965-0.684,1.709-1.663,1.709C105.319,52.192,104.622,51.448,104.622,50.483 M109.862,53.142h1.096v-1.923h0.66l1.779,1.923
	h1.233V52.96l-1.702-1.781c0.8-0.165,1.402-0.792,1.402-1.639c0-1.2-0.814-1.733-2.125-1.733h-2.344V53.142z M112.323,48.764
	c0.502,0,0.864,0.275,0.864,0.801c0,0.493-0.362,0.792-0.864,0.792h-1.365v-1.594H112.323z M119.65,53.142v-0.966h-3.17V50.89h2.598
	v-0.965h-2.598v-1.153h3.17v-0.964h-4.22v5.334H119.65z"/>
<rect x="79.172" y="46.732" fill="none" width="41.476" height="7.484"/>
<rect x="72.173" y="69.138" fill="#00BAEE" width="55.484" height="52.8"/>
<path fill="#FFFFFF" d="M100.045,97.932c-3.332,0-6.179-2.114-7.267-5.072h-5.534c1.234,5.936,6.505,10.407,12.801,10.407
	c6.295,0,11.564-4.472,12.8-10.407h-5.533C106.221,95.817,103.374,97.932,100.045,97.932"/>
<rect x="86.247" y="91.863" fill="none" width="27.594" height="12.4"/>
<path fill="#FFFFFF" d="M100.045,82.452c3.329,0,6.176,2.117,7.267,5.074h5.533c-1.235-5.935-6.505-10.409-12.8-10.409
	c-6.296,0-11.566,4.475-12.801,10.409h5.534C93.866,84.569,96.713,82.452,100.045,82.452"/>
<rect x="86.247" y="76.122" fill="none" width="27.594" height="12.399"/>
<rect x="92.778" y="87.524" fill="#1F4387" width="5.334" height="5.335"/>
<path fill="#FFFFFF" d="M84.719,109.566v-0.964h-4.55v0.964h1.758v4.369h1.097v-4.369H84.719z M89.472,113.936h1.099v-5.333h-1.099
	v2.163h-2.862v-2.163h-1.099v5.333h1.099v-2.212h2.862V113.936z M95.794,113.936v-0.966h-3.17v-1.285h2.598v-0.966h-2.598v-1.152
	h3.17v-0.964h-4.221v5.333H95.794z M99.41,111.268c0-0.964,0.675-1.725,1.662-1.725c0.691,0,1.2,0.243,1.562,0.525l0.517-0.777
	c-0.555-0.508-1.271-0.769-2.086-0.769c-1.593,0-2.792,1.186-2.792,2.745c0,1.562,1.199,2.748,2.792,2.748
	c0.815,0,1.531-0.262,2.086-0.77l-0.517-0.777c-0.361,0.283-0.87,0.526-1.562,0.526C100.085,112.995,99.41,112.233,99.41,111.268
	 M103.54,111.277c0,1.56,1.176,2.738,2.737,2.738c1.577,0,2.753-1.179,2.753-2.738c0-1.577-1.176-2.755-2.753-2.755
	C104.716,108.522,103.54,109.7,103.54,111.277 M104.622,111.277c0-0.981,0.698-1.711,1.663-1.711c0.981,0,1.663,0.729,1.663,1.711
	c0,0.964-0.682,1.71-1.663,1.71C105.32,112.987,104.622,112.241,104.622,111.277 M109.862,113.936h1.098v-1.922h0.658l1.781,1.922
	h1.232v-0.182l-1.703-1.779c0.8-0.166,1.404-0.793,1.404-1.64c0-1.199-0.816-1.732-2.126-1.732h-2.345V113.936z M112.325,109.559
	c0.502,0,0.862,0.274,0.862,0.8c0,0.495-0.36,0.793-0.862,0.793h-1.365v-1.593H112.325z M119.651,113.936v-0.966h-3.169v-1.285
	h2.596v-0.966h-2.596v-1.152h3.169v-0.964h-4.221v5.333H119.651z"/>
<rect x="79.172" y="107.527" fill="none" width="41.477" height="7.482"/>
</svg>
