<svg xmlns="http://www.w3.org/2000/svg" width="136" height="130"><path fill="#FFF" d="M0 0h136v130H0z"/><path fill="#EC1C24" d="M8.3 8.3h55.5v52.8H8.3z"/><path fill="#FFF" d="M36.2 37.1a7.8 7.8 0 0 1-7.3-5h-5.5A13.1 13.1 0 0 0 49 32h-5.5c-1.1 3-4 5-7.3 5"/><path fill="none" d="M22.4 31.1H50v12.4H22.4z"/><path fill="#FFF" d="M36.2 21.7c3.3 0 6.2 2 7.3 5H49a13.1 13.1 0 0 0-25.6 0H29c1-3 3.9-5 7.2-5"/><path fill="none" d="M22.4 15.3H50v12.4H22.4z"/><path fill="#853F97" d="M28.9 26.7h5.3V32h-5.3z"/><path fill="#FFF" d="M20.9 48.8v-1h-4.6v1h1.8V53h1.1v-4.3h1.7zm4.7 4.3h1.1v-5.3h-1V50h-3v-2.2h-1v5.3h1V51h3v2.2zm6.4 0v-1h-3.2V51h2.6v-1h-2.6v-1.1H32v-1h-4.3v5.3H32zm3.6-2.6c0-1 .7-1.8 1.6-1.8.7 0 1.2.3 1.6.6l.5-.8a3 3 0 0 0-2-.8 2.7 2.7 0 0 0-2.9 2.8c0 1.5 1.2 2.7 2.8 2.7a3 3 0 0 0 2.1-.7l-.5-.8c-.4.3-.9.5-1.6.5-1 0-1.6-.8-1.6-1.7m4.1 0c0 1.5 1.2 2.7 2.8 2.7 1.5 0 2.7-1.2 2.7-2.7 0-1.6-1.2-2.8-2.8-2.8a2.7 2.7 0 0 0-2.7 2.8m1 0c0-1 .8-1.7 1.8-1.7s1.6.7 1.6 1.7-.7 1.7-1.6 1.7c-1 0-1.7-.8-1.7-1.7M46 53h1.1v-1.9h.7l1.8 2h1.2V53l-1.7-1.8c.8-.2 1.4-.8 1.4-1.7 0-1.2-.8-1.7-2.1-1.7H46v5.3zm2.5-4.3c.5 0 .9.2.9.8 0 .5-.4.8-.9.8h-1.4v-1.6h1.4zm7.3 4.3v-1h-3.1V51h2.6v-1h-2.6v-1.1h3.1v-1h-4.2v5.3h4.2z"/><path fill="none" d="M15.3 46.7h41.5v7.5H15.3z"/><path fill="#00BAEE" d="M72.2 8.3h55.5v52.8H72.2z"/><path fill="#FFF" d="M100 37.1a7.8 7.8 0 0 1-7.2-5h-5.6a13.1 13.1 0 0 0 25.6 0h-5.5c-1 3-4 5-7.3 5"/><path fill="none" d="M86.2 31.1h27.6v12.4H86.2z"/><path fill="#FFF" d="M100 21.7c3.4 0 6.2 2 7.3 5h5.5a13.1 13.1 0 0 0-25.6 0h5.6c1-3 4-5 7.2-5"/><path fill="none" d="M86.2 15.3h27.6v12.4H86.2z"/><path fill="#1F4387" d="M92.8 26.7h5.3V32h-5.3z"/><path fill="#FFF" d="M84.7 48.8v-1h-4.5v1h1.7V53H83v-4.3h1.7zm4.8 4.3h1v-5.3h-1V50h-2.9v-2.2h-1v5.3h1V51h2.9v2.2zm6.3 0v-1h-3.2V51h2.6v-1h-2.6v-1.1h3.2v-1h-4.2v5.3h4.2zm3.6-2.6c0-1 .7-1.8 1.7-1.8.7 0 1.2.3 1.5.6l.6-.8a3 3 0 0 0-2.1-.8 2.7 2.7 0 0 0-2.8 2.8c0 1.5 1.2 2.7 2.8 2.7a3 3 0 0 0 2-.7l-.5-.8c-.3.3-.8.5-1.5.5-1 0-1.7-.8-1.7-1.7m4.1 0c0 1.5 1.2 2.7 2.8 2.7 1.6 0 2.7-1.2 2.7-2.7 0-1.6-1.1-2.8-2.7-2.8a2.7 2.7 0 0 0-2.8 2.8m1.1 0c0-1 .7-1.7 1.7-1.7s1.6.7 1.6 1.7-.6 1.7-1.6 1.7-1.7-.8-1.7-1.7M110 53h1v-1.9h.7l1.8 2h1.2V53l-1.7-1.8c.8-.2 1.4-.8 1.4-1.7 0-1.2-.8-1.7-2-1.7h-2.4v5.3zm2.4-4.3c.5 0 .9.2.9.8 0 .5-.4.8-.9.8H111v-1.6h1.3zm7.4 4.3v-1h-3.2V51h2.6v-1h-2.6v-1.1h3.2v-1h-4.3v5.3h4.3z"/><path fill="none" d="M79.2 46.7h41.5v7.5H79.2z"/><path fill="#1F4387" d="M8.3 69.1h55.5v52.8H8.3z"/><path fill="#FFF" d="M36.2 97.9a7.8 7.8 0 0 1-7.3-5h-5.5a13.1 13.1 0 0 0 25.6 0h-5.5c-1.1 2.9-4 5-7.3 5"/><path fill="none" d="M22.4 91.8H50v12.4H22.4z"/><path fill="#FFF" d="M36.2 82.4c3.3 0 6.2 2.1 7.3 5H49a13.1 13.1 0 0 0-25.6 0H29c1.1-2.9 4-5 7.3-5"/><path fill="none" d="M22.4 76.1H50v12.4H22.4z"/><path fill="#00BAEE" d="M28.9 87.5h5.3v5.3h-5.3z"/><path fill="#FFF" d="M20.9 109.5v-1h-4.6v1h1.8v4.4h1.1v-4.4h1.7zm4.7 4.4h1.1v-5.3h-1v2.1h-3v-2.1h-1v5.3h1v-2.2h3v2.2zm6.4 0v-1h-3.2v-1.2h2.6v-1h-2.6v-1.2H32v-1h-4.3v5.4H32zm3.6-2.7c0-1 .7-1.7 1.6-1.7.7 0 1.2.3 1.6.5l.5-.7a3 3 0 0 0-2-.8c-1.7 0-2.9 1.2-2.9 2.7s1.2 2.8 2.8 2.8a3 3 0 0 0 2.1-.8l-.5-.8c-.4.3-.9.6-1.6.6-1 0-1.6-.8-1.6-1.8m4.1 0c0 1.6 1.2 2.8 2.7 2.8 1.6 0 2.8-1.2 2.8-2.8 0-1.5-1.2-2.7-2.8-2.7a2.7 2.7 0 0 0-2.7 2.7m1 0c0-1 .8-1.7 1.8-1.7s1.6.8 1.6 1.7c0 1-.7 1.8-1.6 1.8-1 0-1.7-.8-1.7-1.8M46 114h1.1v-2h.7l1.8 2h1.2v-.2l-1.7-1.8c.8-.1 1.4-.7 1.4-1.6 0-1.2-.8-1.7-2.1-1.7H46v5.3zm2.5-4.4c.5 0 .9.3.9.8s-.4.8-.9.8h-1.4v-1.6h1.4zm7.3 4.4v-1h-3.1v-1.2h2.5v-1h-2.5v-1.2h3.1v-1h-4.2v5.4h4.2z"/><path fill="none" d="M15.3 107.5h41.5v7.5H15.3z"/><path fill="#853F97" d="M72.2 69.1h55.5v52.8H72.2z"/><path fill="#FFF" d="M100 97.9a7.8 7.8 0 0 1-7.2-5h-5.6a13.1 13.1 0 0 0 25.6 0h-5.5c-1 2.9-4 5-7.3 5"/><path fill="none" d="M86.2 91.8h27.6v12.4H86.2z"/><path fill="#FFF" d="M100 82.4c3.4 0 6.2 2.1 7.3 5h5.5a13 13 0 0 0-25.6 0h5.6c1-2.9 4-5 7.2-5"/><path fill="none" d="M86.2 76.1h27.6v12.4H86.2z"/><path fill="#EC1C24" d="M92.8 87.5h5.3v5.3h-5.3z"/><path fill="none" d="M91.8 86.5h7.3v7.3h-7.3z"/><path fill="#FFF" d="M84.7 109.5v-1h-4.5v1h1.7v4.4H83v-4.4h1.7zm4.8 4.4h1v-5.3h-1v2.1h-2.9v-2.1h-1v5.3h1v-2.2h2.9v2.2zm6.3 0v-1h-3.2v-1.2h2.6v-1h-2.6v-1.2h3.2v-1h-4.2v5.4h4.2zm3.6-2.7c0-1 .7-1.7 1.7-1.7.7 0 1.2.3 1.5.5l.6-.7a3 3 0 0 0-2.1-.8c-1.6 0-2.8 1.2-2.8 2.7s1.2 2.8 2.8 2.8a3 3 0 0 0 2-.8l-.5-.8c-.3.3-.8.6-1.5.6-1 0-1.7-.8-1.7-1.8m4.1 0c0 1.6 1.2 2.8 2.8 2.8 1.6 0 2.7-1.2 2.7-2.8 0-1.5-1.1-2.7-2.7-2.7a2.7 2.7 0 0 0-2.8 2.7m1.1 0c0-1 .7-1.7 1.7-1.7s1.6.8 1.6 1.7c0 1-.6 1.8-1.6 1.8s-1.7-.8-1.7-1.8m5.3 2.7h1v-2h.7l1.8 2h1.2v-.2L113 112c.8-.1 1.4-.7 1.4-1.6 0-1.2-.8-1.7-2-1.7h-2.4v5.3zm2.4-4.4c.5 0 .9.3.9.8s-.4.8-.9.8H111v-1.6h1.3zm7.4 4.4v-1h-3.2v-1.2h2.6v-1h-2.6v-1.2h3.2v-1h-4.3v5.4h4.3z"/><path fill="none" d="M79.2 107.5h41.5v7.5H79.2z"/><path fill="#853F97" d="M72.2 8.3h55.5v52.8H72.2z"/><path fill="#FFF" d="M100 37.1a7.8 7.8 0 0 1-7.2-5h-5.6a13.1 13.1 0 0 0 25.6 0h-5.5c-1 3-4 5-7.3 5"/><path fill="none" d="M86.2 31.1h27.6v12.4H86.2z"/><path fill="#FFF" d="M100 21.7c3.4 0 6.2 2 7.3 5h5.5a13.1 13.1 0 0 0-25.6 0h5.6c1-3 4-5 7.2-5"/><path fill="none" d="M86.2 15.3h27.6v12.4H86.2z"/><path fill="#EC1C24" d="M92.8 26.7h5.3V32h-5.3z"/><path fill="none" d="M91.8 25.7h7.3V33h-7.3z"/><path fill="#FFF" d="M84.7 48.8v-1h-4.5v1h1.7V53H83v-4.3h1.7zm4.8 4.3h1v-5.3h-1V50h-2.9v-2.2h-1v5.3h1V51h2.9v2.2zm6.3 0v-1h-3.2V51h2.6v-1h-2.6v-1.1h3.2v-1h-4.2v5.3h4.2zm3.6-2.6c0-1 .7-1.8 1.7-1.8.7 0 1.2.3 1.5.6l.6-.8a3 3 0 0 0-2.1-.8 2.7 2.7 0 0 0-2.8 2.8c0 1.5 1.2 2.7 2.8 2.7a3 3 0 0 0 2-.7l-.5-.8c-.3.3-.8.5-1.5.5-1 0-1.7-.8-1.7-1.7m4.1 0c0 1.5 1.2 2.7 2.8 2.7 1.6 0 2.7-1.2 2.7-2.7 0-1.6-1.1-2.8-2.7-2.8a2.7 2.7 0 0 0-2.8 2.8m1.1 0c0-1 .7-1.7 1.7-1.7s1.6.7 1.6 1.7-.6 1.7-1.6 1.7-1.7-.8-1.7-1.7M110 53h1v-1.9h.7l1.8 2h1.2V53l-1.7-1.8c.8-.2 1.4-.8 1.4-1.7 0-1.2-.8-1.7-2-1.7h-2.4v5.3zm2.4-4.3c.5 0 .9.2.9.8 0 .5-.4.8-.9.8H111v-1.6h1.3zm7.4 4.3v-1h-3.2V51h2.6v-1h-2.6v-1.1h3.2v-1h-4.3v5.3h4.3z"/><path fill="none" d="M79.2 46.7h41.5v7.5H79.2z"/><path fill="#00BAEE" d="M72.2 69.1h55.5v52.8H72.2z"/><path fill="#FFF" d="M100 98a7.8 7.8 0 0 1-7.2-5.1h-5.6a13 13 0 0 0 25.6 0h-5.5c-1 3-4 5-7.3 5"/><path fill="none" d="M86.2 91.9h27.6v12.4H86.2z"/><path fill="#FFF" d="M100 82.5c3.4 0 6.2 2 7.3 5h5.5a13.1 13.1 0 0 0-25.6 0h5.6c1-3 4-5 7.2-5"/><path fill="none" d="M86.2 76.1h27.6v12.4H86.2z"/><path fill="#1F4387" d="M92.8 87.5h5.3v5.3h-5.3z"/><path fill="#FFF" d="M84.7 109.6v-1h-4.5v1h1.7v4.3H83v-4.3h1.7zm4.8 4.3h1v-5.3h-1v2.2h-2.9v-2.2h-1v5.3h1v-2.2h2.9v2.2zm6.3 0v-1h-3.2v-1.2h2.6v-1h-2.6v-1.1h3.2v-1h-4.2v5.3h4.2zm3.6-2.6c0-1 .7-1.8 1.7-1.8.7 0 1.2.3 1.5.6l.6-.8a3 3 0 0 0-2.1-.8 2.7 2.7 0 0 0-2.8 2.8c0 1.5 1.2 2.7 2.8 2.7a3 3 0 0 0 2-.8l-.5-.7c-.3.3-.8.5-1.5.5-1 0-1.7-.8-1.7-1.7m4.1 0c0 1.5 1.2 2.7 2.8 2.7 1.6 0 2.7-1.2 2.7-2.7 0-1.6-1.1-2.8-2.7-2.8a2.7 2.7 0 0 0-2.8 2.8m1.1 0c0-1 .7-1.7 1.7-1.7s1.6.7 1.6 1.7-.6 1.7-1.6 1.7-1.7-.8-1.7-1.7m5.3 2.6h1V112h.7l1.8 2h1.2v-.2L113 112c.8-.2 1.4-.8 1.4-1.7 0-1.2-.8-1.7-2-1.7h-2.4v5.3zm2.4-4.3c.5 0 .9.2.9.8 0 .5-.4.8-.9.8H111v-1.6h1.3zm7.4 4.3v-1h-3.2v-1.2h2.6v-1h-2.6v-1.1h3.2v-1h-4.3v5.3h4.3z"/><path fill="none" d="M79.2 107.5h41.5v7.5H79.2z"/></svg>