<?xml version="1.0" encoding="utf-8"?>
<!-- Generator: Adobe Illustrator 16.0.5, SVG Export Plug-In . SVG Version: 6.00 Build 0)  -->
<!DOCTYPE svg PUBLIC "-//W3C//DTD SVG 1.1//EN" "http://www.w3.org/Graphics/SVG/1.1/DTD/svg11.dtd">
<svg version="1.1" id="Layer_1" xmlns="http://www.w3.org/2000/svg" xmlns:xlink="http://www.w3.org/1999/xlink" x="0px" y="0px"
	 width="150px" height="95px" viewBox="0 0 150 95" enable-background="new 0 0 150 95" xml:space="preserve">
<rect fill="#FFFFFF" width="150" height="95"/>
<text transform="matrix(1 0 0 1 80.832 87.3223)" fill="#231F20" font-family="'Avenir-Book'" font-size="5">3 x Red Squa</text>
<text transform="matrix(1 0 0 1 110.2012 87.3223)" fill="#231F20" font-family="'Avenir-Book'" font-size="5">r</text>
<text transform="matrix(1 0 0 1 111.7764 87.3223)" fill="#231F20" font-family="'Avenir-Book'" font-size="5">e </text>
<text transform="matrix(1 0 0 1 115.9463 87.3223)" fill="#231F20" font-family="'Avenir-Book'" font-size="5">W</text>
<text transform="matrix(1 0 0 1 120.7812 87.3223)" fill="#231F20" font-family="'Avenir-Book'" font-size="5">idth</text>
<polyline fill="none" stroke="#231F20" stroke-width="0.25" points="125.375,70.576 125.375,73.293 140.434,73.293 140.434,70.576 
	"/>
<line fill="none" stroke="#231F20" stroke-width="0.25" x1="132.904" y1="73.244" x2="132.904" y2="85.322"/>
<rect x="9.441" y="10.674" fill="none" stroke="#B1B3B5" stroke-width="0.25" width="130.991" height="55.369"/>
<rect x="125.25" y="35.838" fill="#E6E7E8" width="15.309" height="5.102"/>
<rect x="34.313" y="10.549" fill="#E6E7E8" width="5.101" height="15.307"/>
<rect x="9.316" y="35.838" fill="#E6E7E8" width="15.307" height="5.102"/>
<rect x="34.313" y="50.861" fill="#E6E7E8" width="5.101" height="15.307"/>
<path fill="#231F20" d="M62.302,35.307v-1.73h-8.157v1.73h3.151v7.834h1.969v-7.834H62.302z M70.825,43.141h1.969v-9.564h-1.969
	v3.883h-5.133v-3.883h-1.97v9.564h1.97v-3.965h5.133V43.141z M82.161,43.141v-1.73h-5.683v-2.307h4.655v-1.729h-4.655v-2.068h5.683
	v-1.73h-7.567v9.564H82.161z M88.645,38.36c0-1.73,1.209-3.094,2.98-3.094c1.238,0,2.152,0.436,2.799,0.941l0.93-1.393
	c-1-0.914-2.278-1.379-3.742-1.379c-2.854,0-5.006,2.125-5.006,4.924c0,2.799,2.15,4.922,5.006,4.922
	c1.464,0,2.742-0.463,3.742-1.379l-0.93-1.391c-0.646,0.506-1.561,0.941-2.799,0.941C89.854,41.454,88.645,40.09,88.645,38.36
	 M96.049,38.374c0,2.799,2.111,4.908,4.91,4.908c2.826,0,4.936-2.109,4.936-4.908c0-2.826-2.108-4.938-4.936-4.938
	C98.16,33.436,96.049,35.547,96.049,38.374 M97.99,38.374c0-1.758,1.252-3.066,2.982-3.066c1.758,0,2.979,1.309,2.979,3.066
	c0,1.73-1.224,3.066-2.979,3.066C99.242,41.44,97.99,40.104,97.99,38.374 M107.385,43.141h1.971v-3.445h1.181l3.192,3.445h2.209
	v-0.322l-3.053-3.193c1.436-0.295,2.518-1.42,2.518-2.939c0-2.152-1.463-3.109-3.812-3.109h-4.205V43.141z M111.802,35.293
	c0.899,0,1.548,0.492,1.548,1.436c0,0.885-0.647,1.42-1.548,1.42h-2.446v-2.855L111.802,35.293L111.802,35.293z M124.938,43.141
	v-1.73h-5.682v-2.307h4.654v-1.729h-4.654v-2.068h5.682v-1.73h-7.565v9.564H124.938z"/>
<path fill="#231F20" d="M36.864,45.76c-3.185,0-5.907-2.021-6.949-4.85h-5.292c1.181,5.674,6.221,9.951,12.241,9.951
	s11.06-4.277,12.241-9.951h-5.292C42.771,43.739,40.05,45.76,36.864,45.76"/>
<path fill="#231F20" d="M36.864,30.958c3.186,0,5.907,2.023,6.949,4.852h5.292c-1.181-5.676-6.221-9.953-12.241-9.953
	s-11.06,4.277-12.241,9.953h5.292C30.957,32.981,33.679,30.958,36.864,30.958"/>
<rect x="30.167" y="35.809" fill="#EC1C24" width="5.101" height="5.102"/>
<polyline fill="none" stroke="#231F20" stroke-width="0.637" points="140.238,15.241 140.238,10.868 135.666,10.868 "/>
<polyline fill="none" stroke="#231F20" stroke-width="0.637" points="14.008,10.868 9.635,10.868 9.635,15.441 "/>
<polyline fill="none" stroke="#231F20" stroke-width="0.637" points="9.635,61.479 9.635,65.852 14.208,65.852 "/>
<polyline fill="none" stroke="#231F20" stroke-width="0.637" points="135.866,65.85 140.238,65.85 140.238,61.277 "/>
</svg>
