<?xml version="1.0" encoding="utf-8"?>
<!-- Generator: Adobe Illustrator 16.0.5, SVG Export Plug-In . SVG Version: 6.00 Build 0)  -->
<!DOCTYPE svg PUBLIC "-//W3C//DTD SVG 1.1//EN" "http://www.w3.org/Graphics/SVG/1.1/DTD/svg11.dtd">
<svg version="1.1" id="Layer_1" xmlns="http://www.w3.org/2000/svg" xmlns:xlink="http://www.w3.org/1999/xlink" x="0px" y="0px"
	 width="310px" height="200px" viewBox="0 -43 310 200" enable-background="new 0 -43 310 200" xml:space="preserve">
<rect y="-43.5" fill="#25B23A" width="310" height="201"/>
<circle opacity="0.2" enable-background="new    " cx="50" cy="57" r="30"/>
<circle opacity="0.2" enable-background="new    " cx="260" cy="57" r="30"/>
<circle opacity="0.2" enable-background="new    " cx="50" cy="56" r="30"/>
<circle fill="#FFFFFF" cx="50" cy="56" r="30"/>
<circle fill="#0074C2" cx="50" cy="56" r="21"/>
<circle fill="#FFFFFF" cx="260" cy="56" r="30"/>
<circle fill="#0074C2" cx="260" cy="56" r="21"/>
<g>
	<circle fill="#006837" cx="70" cy="96" r="5"/>
	<path opacity="0.2" enable-background="new    " d="M70,92c2.591,0,4.695,1.977,4.949,4.5C74.967,96.333,75,96.171,75,96
		c0-2.762-2.238-5-5-5s-5,2.238-5,5c0,0.171,0.033,0.333,0.051,0.5C65.305,93.977,67.409,92,70,92z"/>
</g>
<path opacity="0.2" enable-background="new    " d="M50,36c11.431,0,20.707,9.135,20.975,20.5C70.979,56.332,71,56.169,71,56
	c0-11.599-9.4-21-21-21c-11.599,0-21,9.401-21,21c0,0.169,0.021,0.332,0.025,0.5C29.293,45.135,38.57,36,50,36z"/>
<g opacity="0.2">
	<path d="M120,36c-10.229,0-18.739,7.317-20.608,17h41.217C138.74,43.317,130.229,36,120,36z"/>
	<path d="M149.727,61c0.175-1.311,0.273-2.643,0.273-4c0-1.357-0.099-2.691-0.273-4C147.77,38.323,135.212,27,120,27
		S92.23,38.323,90.273,53C90.099,54.309,90,55.643,90,57c0,1.357,0.099,2.689,0.273,4C92.23,75.676,104.788,87,120,87
		c8.285,0,15.778-3.365,21.205-8.795l-6.355-6.355C131.049,75.648,125.799,78,120,78c-10.229,0-18.74-7.316-20.608-17h41.217
		H149.727z M120,36c10.229,0,18.74,7.316,20.608,17H99.392C101.261,43.316,109.771,36,120,36z"/>
</g>
<g opacity="0.2">
	<path d="M190,36c-10.229,0-18.739,7.317-20.607,17h41.217C208.74,43.316,200.229,36,190,36z"/>
	<path d="M219.727,61c0.176-1.311,0.273-2.643,0.273-4c0-1.357-0.1-2.691-0.273-4C217.77,38.323,205.212,27,190,27
		s-27.77,11.323-29.727,26c-0.176,1.309-0.273,2.643-0.273,4c0,1.357,0.1,2.689,0.273,4C162.23,75.676,174.788,87,190,87
		c8.285,0,15.777-3.365,21.205-8.795l-6.355-6.355C201.049,75.648,195.799,78,190,78c-10.229,0-18.74-7.316-20.607-17h41.217
		H219.727z M190,36c10.229,0,18.74,7.316,20.607,17h-41.217C171.261,43.316,179.771,36,190,36z"/>
</g>
<path fill="#FFFFFF" d="M149.727,60c0.175-1.311,0.273-2.643,0.273-4s-0.099-2.69-0.273-4C147.77,37.323,135.212,26,120,26
	S92.23,37.323,90.273,52C90.099,53.31,90,54.643,90,56s0.099,2.689,0.273,4C92.23,74.677,104.788,86,120,86
	c8.285,0,15.778-3.364,21.205-8.795l-6.355-6.355C131.049,74.65,125.799,77,120,77c-10.229,0-18.74-7.316-20.608-17h41.217H149.727z
	"/>
<path fill="#FFFFFF" d="M219.727,60c0.176-1.311,0.273-2.643,0.273-4s-0.1-2.69-0.273-4C217.77,37.323,205.212,26,190,26
	s-27.77,11.323-29.727,26c-0.176,1.31-0.273,2.643-0.273,4s0.1,2.689,0.273,4C162.23,74.677,174.788,86,190,86
	c8.285,0,15.777-3.364,21.205-8.795l-6.355-6.355C201.049,74.65,195.799,77,190,77c-10.229,0-18.74-7.316-20.607-17h41.217H219.727z
	"/>
<path fill="#0074C2" d="M120,35c-10.229,0-18.739,7.317-20.608,17h41.217C138.74,42.317,130.229,35,120,35z"/>
<path fill="#0074C2" d="M190,35c-10.229,0-18.739,7.317-20.607,17h41.217C208.74,42.317,200.229,35,190,35z"/>
<rect x="281" y="11" fill="#FFFFFF" width="9" height="45"/>
<path opacity="0.2" enable-background="new    " d="M260,36c11.432,0,20.707,9.135,20.975,20.5C280.979,56.332,281,56.169,281,56
	c0-11.599-9.4-21-21-21s-21,9.401-21,21c0,0.169,0.021,0.332,0.025,0.5C239.293,45.135,248.57,36,260,36z"/>
<path opacity="0.2" enable-background="new    " d="M190,36c9.872,0,18.124,6.821,20.369,16h0.238C208.74,42.317,200.229,35,190,35
	s-18.739,7.317-20.607,17h0.238C171.877,42.821,180.129,36,190,36z"/>
<path opacity="0.2" enable-background="new    " d="M120,36c9.872,0,18.124,6.821,20.369,16h0.239C138.74,42.317,130.229,35,120,35
	s-18.739,7.317-20.608,17h0.239C101.877,42.821,110.129,36,120,36z"/>
</svg>
