<?xml version="1.0" encoding="utf-8"?>
<!-- Generator: Adobe Illustrator 16.0.5, SVG Export Plug-In . SVG Version: 6.00 Build 0)  -->
<!DOCTYPE svg PUBLIC "-//W3C//DTD SVG 1.1//EN" "http://www.w3.org/Graphics/SVG/1.1/DTD/svg11.dtd">
<svg version="1.1" id="Layer_1" xmlns="http://www.w3.org/2000/svg" xmlns:xlink="http://www.w3.org/1999/xlink" x="0px" y="0px"
	 width="565px" height="257px" viewBox="0 0 565 257" enable-background="new 0 0 565 257" xml:space="preserve">
<rect fill="#FBFBFB" width="565" height="257"/>
<g id="Timeline_Base">
	<g opacity="0.8">
		<text transform="matrix(1 0 0 1 216.4414 32.252)" fill="#545F7F" font-family="'Avenir-Book'" font-size="12">1s</text>
	</g>
	<line fill="none" stroke="#F0F0F0" stroke-miterlimit="10" x1="221.5" y1="35.918" x2="221.5" y2="249.918"/>
	<line fill="none" stroke="#F5F5F5" stroke-miterlimit="10" x1="168.5" y1="35.918" x2="168.5" y2="249.918"/>
	<g opacity="0.8">
		<text transform="matrix(1 0 0 1 322.4414 32.252)" fill="#545F7F" font-family="'Avenir-Book'" font-size="12">2s</text>
	</g>
	<line fill="none" stroke="#F0F0F0" stroke-miterlimit="10" x1="327.5" y1="35.918" x2="327.5" y2="249.918"/>
	<line fill="none" stroke="#F5F5F5" stroke-miterlimit="10" x1="274.5" y1="35.918" x2="274.5" y2="249.918"/>
	<g opacity="0.8">
		<text transform="matrix(1 0 0 1 428.4414 32.252)" fill="#545F7F" font-family="'Avenir-Book'" font-size="12">3s</text>
	</g>
	<line fill="none" stroke="#F0F0F0" stroke-miterlimit="10" x1="433.5" y1="35.918" x2="433.5" y2="249.918"/>
	<line fill="none" stroke="#F5F5F5" stroke-miterlimit="10" x1="380.5" y1="35.918" x2="380.5" y2="249.918"/>
	<g opacity="0.8">
		<text transform="matrix(1 0 0 1 534.4414 32.252)" fill="#545F7F" font-family="'Avenir-Book'" font-size="12">4s</text>
	</g>
	<line fill="none" stroke="#F0F0F0" stroke-miterlimit="10" x1="539.5" y1="35.918" x2="539.5" y2="249.918"/>
	<line fill="none" stroke="#F5F5F5" stroke-miterlimit="10" x1="486.5" y1="35.918" x2="486.5" y2="249.918"/>
</g>
<g id="Layer_7">
	<text transform="matrix(1 0 0 1 58.8672 52.5859)" fill="#575757" font-family="'Avenir-Medium'" font-size="15">Rotate</text>
	<line fill="none" stroke="#F5F5F5" stroke-miterlimit="10" x1="4" y1="58.418" x2="107" y2="58.418"/>
	<g>
		<text transform="matrix(1 0 0 1 65.8271 77.5859)" fill="#575757" font-family="'Avenir-Medium'" font-size="15">Move</text>
	</g>
	<line fill="none" stroke="#F5F5F5" stroke-miterlimit="10" x1="4" y1="83.418" x2="107" y2="83.418"/>
	<g>
		<text transform="matrix(1 0 0 1 34.7183 100.5859)" fill="#575757" font-family="'Avenir-Medium'" font-size="15">Fill Colour</text>
	</g>
	<line fill="none" stroke="#F5F5F5" stroke-miterlimit="10" x1="4" y1="106.418" x2="107" y2="106.418"/>
	<g>
		<text transform="matrix(1 0 0 1 11.9478 123.5859)" fill="#575757" font-family="'Avenir-Medium'" font-size="15">Border Width</text>
	</g>
	<line fill="none" stroke="#F5F5F5" stroke-miterlimit="10" x1="4" y1="129.418" x2="107" y2="129.418"/>
	<g>
		<text transform="matrix(1 0 0 1 50.8574 145.5859)" fill="#575757" font-family="'Avenir-Medium'" font-size="15">Opacity</text>
	</g>
	<line fill="none" stroke="#F5F5F5" stroke-miterlimit="10" x1="4" y1="151.418" x2="107" y2="151.418"/>
	<g>
		<path fill="#FF931E" d="M220,40.918c0-1.65-1.35-3-3-3h-97c-1.65,0-3,1.35-3,3v15c0,1.65,1.35,3,3,3h97c1.65,0,3-1.35,3-3V40.918z
			"/>
	</g>
	
		<text transform="matrix(1 0 0 1 122.833 51.5566)" opacity="0.8" fill="#FFFFFF" enable-background="new    " font-family="'Avenir-Book'" font-size="10">10˚</text>
	
		<text transform="matrix(1 0 0 1 200.48 51.5566)" opacity="0.8" fill="#FFFFFF" enable-background="new    " font-family="'Avenir-Book'" font-size="10">95˚</text>
	<g>
		<path fill="#FF931E" d="M220,109.918c0-1.65-1.35-3-3-3h-97c-1.65,0-3,1.35-3,3v15c0,1.65,1.35,3,3,3h97c1.65,0,3-1.35,3-3
			V109.918z"/>
	</g>
	
		<text transform="matrix(1 0 0 1 122.833 120.5566)" opacity="0.8" fill="#FFFFFF" enable-background="new    " font-family="'Avenir-Book'" font-size="10">2px</text>
	
		<text transform="matrix(1 0 0 1 197.5103 120.5566)" opacity="0.8" fill="#FFFFFF" enable-background="new    " font-family="'Avenir-Book'" font-size="10">6px</text>
	<g>
		<path fill="#FF7BAC" d="M326,132.918c0-1.657-1.343-3-3-3h-97c-1.657,0-3,1.343-3,3v15c0,1.657,1.343,3,3,3h97
			c1.657,0,3-1.343,3-3V132.918z"/>
	</g>
	<g>
		<path fill="#FF7BAC" d="M432,132.918c0-1.657-1.343-3-3-3h-97c-1.657,0-3,1.343-3,3v15c0,1.657,1.343,3,3,3h97
			c1.657,0,3-1.343,3-3V132.918z"/>
	</g>
	<g>
		<text transform="matrix(1 0 0 1 228.833 144.5566)" fill="#FFFFFF" font-family="'Avenir-Book'" font-size="10">0%</text>
	</g>
	<g>
		<text transform="matrix(1 0 0 1 294.9902 144.5566)" fill="#FFFFFF" font-family="'Avenir-Book'" font-size="10">100%</text>
	</g>
	<g>
		<text transform="matrix(1 0 0 1 331.9902 144.5566)" fill="#FFFFFF" font-family="'Avenir-Book'" font-size="10">100%</text>
	</g>
	<g>
		<text transform="matrix(1 0 0 1 413.2773 144.5566)" fill="#FFFFFF" font-family="'Avenir-Book'" font-size="10">0%</text>
	</g>
	<g>
		<path fill="#3FA9F5" d="M379,86.918c0-1.65-1.35-3-3-3H173c-1.65,0-3,1.35-3,3v15c0,1.65,1.35,3,3,3h203c1.65,0,3-1.35,3-3V86.918
			z"/>
	</g>
	<g>
		<path fill="#7AC943" d="M432,40.918c0-1.65-1.35-3-3-3H279c-1.65,0-3,1.35-3,3v15c0,1.65,1.35,3,3,3h150c1.65,0,3-1.35,3-3V40.918
			z"/>
	</g>
	<g>
		<path fill="#7AC943" d="M432,63.918c0-1.65-1.35-3-3-3H279c-1.65,0-3,1.35-3,3v15c0,1.65,1.35,3,3,3h150c1.65,0,3-1.35,3-3V63.918
			z"/>
	</g>
	<g>
		<path fill="#FFFFFF" d="M430,64.918c0-1.1-0.9-2-2-2H280c-1.1,0-2,0.9-2,2v13c0,1.1,0.9,2,2,2h148c1.1,0,2-0.9,2-2V64.918z"/>
	</g>
	<text transform="matrix(1 0 0 1 281.833 74.5566)" fill="#7AC943" font-family="'Avenir-Book'" font-size="10">34, 67</text>
	<text transform="matrix(1 0 0 1 395.2002 74.5566)" fill="#7AC943" font-family="'Avenir-Book'" font-size="10">98, 45</text>
	<g>
		<path fill="#FFFFFF" d="M430,41.918c0-1.1-0.9-2-2-2H280c-1.1,0-2,0.9-2,2v13c0,1.1,0.9,2,2,2h148c1.1,0,2-0.9,2-2V41.918z"/>
	</g>
	<text transform="matrix(1 0 0 1 281.833 51.5566)" fill="#7AC943" font-family="'Avenir-Book'" font-size="10">95˚</text>
	<text transform="matrix(1 0 0 1 403.9199 51.5566)" fill="#7AC943" font-family="'Avenir-Book'" font-size="10">125˚</text>
	<g>
		<circle fill="#25B23A" cx="184.5" cy="94.418" r="4.5"/>
		<g opacity="0.8">
			<path fill="#FFFFFF" d="M184.5,89.918c2.485,0,4.5,2.015,4.5,4.5c0,2.486-2.015,4.501-4.5,4.501s-4.5-2.015-4.5-4.501
				C180,91.933,182.015,89.918,184.5,89.918 M184.5,88.918c-3.033,0-5.5,2.467-5.5,5.5s2.467,5.501,5.5,5.501s5.5-2.468,5.5-5.501
				S187.534,88.918,184.5,88.918L184.5,88.918z"/>
		</g>
	</g>
	<g>
		<circle fill="#006837" cx="364.5" cy="94.418" r="4.5"/>
		<g opacity="0.8">
			<path fill="#FFFFFF" d="M364.5,89.918c2.484,0,4.5,2.015,4.5,4.5c0,2.486-2.016,4.501-4.5,4.501s-4.5-2.015-4.5-4.501
				C360,91.933,362.016,89.918,364.5,89.918 M364.5,88.918c-3.033,0-5.5,2.467-5.5,5.5s2.467,5.501,5.5,5.501s5.5-2.468,5.5-5.501
				S367.534,88.918,364.5,88.918L364.5,88.918z"/>
		</g>
	</g>
	<rect x="326" y="134.918" fill="#FF7BAC" width="3" height="2"/>
	<rect x="326" y="143.918" fill="#FF7BAC" width="3" height="2"/>
	<line fill="none" x1="1010" y1="-524.082" x2="1010" y2="169.918"/>
</g>
</svg>
